<?xml version="1.0" encoding="UTF-8" standalone="no"?>
<svg
   width="1510"
   height="1270"
   version="1.1"
   id="svg146"
   sodipodi:docname="LMCLogoBlanc.svg"
   inkscape:export-filename="LMCLogoBlanSVG.svg"
   inkscape:export-xdpi="96"
   inkscape:export-ydpi="96"
   xmlns:inkscape="http://www.inkscape.org/namespaces/inkscape"
   xmlns:sodipodi="http://sodipodi.sourceforge.net/DTD/sodipodi-0.dtd"
   xmlns="http://www.w3.org/2000/svg"
   xmlns:svg="http://www.w3.org/2000/svg">
  <defs
     id="defs150" />
  <sodipodi:namedview
     id="namedview148"
     pagecolor="#000000"
     bordercolor="#000000"
     borderopacity="0.25"
     inkscape:showpageshadow="2"
     inkscape:pageopacity="0.0"
     inkscape:pagecheckerboard="0"
     inkscape:deskcolor="#d1d1d1"
     showgrid="false" />
  <!--PARENTHESE GAUGHE-->
  <polygon
     points="20,1205 70,1255 70,1270 55,1270 0,1215 0,55 55,0 70,0 70,15 20,65 "
     style="fill:#000000"
     id="polygon2" />
  <!--PARENTHESE DROITE-->
  <polygon
     points="1455,1270 1440,1270 1440,1255 1490,1205 1490,65 1440,15 1440,0 1455,0 1510,55 1510,1215 "
     style="fill:#000000"
     id="polygon4" />
  <!--ZAMANSKY-->
  <polygon
     points="600,1080 590,1080 530,1020 530,1010 590,950 600,950 660,1010 660,1020 "
     style="fill:#000000"
     id="polygon6" />
  <!--BAT C-->
  <polygon
     points="470,40 700,40 700,90 470,90 "
     style="fill:#000000"
     id="polygon8" />
  <!--BAT B-->
  <polygon
     points="1020,90 710,90 710,0 760,0 760,40 1020,40 "
     style="fill:#000000"
     id="polygon10" />
  <!--BAT A-->
  <polygon
     points="1340,90 1030,90 1030,0 1080,0 1080,40 1340,40 "
     style="fill:#000000"
     id="polygon12" />
  <!--BAT F-->
  <polygon
     points="1340,170 1390,170 1390,800 1340,800 "
     style="fill:#000000"
     id="polygon14" />
  <!--ESCLANGON-->
  <polygon
     points="1300,1220 1340,1220 1340,990 1390,990 1390,1270 1300,1270 "
     style="fill:#000000"
     id="polygon16" />
  <!--ATRIUM BORDURE 1-->
  <polygon
     points="1280,580 1080,580 1080,570 1290,570 1290,790 1280,790 "
     style="fill:#000000"
     id="polygon18" />
  <!--ATRIUM BORDURE 2-->
  <polygon
     points="1290,800 1080,800 1080,790 1160,790 1160,580 1170,580 1170,790 1290,790 "
     style="fill:#000000"
     id="polygon20" />
  <!--ATRIUM SIGNE-->
  <polygon
     points="1210,760 1200,760 1200,730 1200,730 1240,690 1240,680 1200,640 1200,610 1210,610 1250,650 1250,720 "
     style="fill:#000000"
     id="polygon22" />
  <!--TOUR 12-->
  <polygon
     points="180,390 130,390 120,380 120,330 130,320 180,320 190,330 190,380 "
     style="fill:#000000"
     id="polygon24" />
  <!--TOUR 13-->
  <polygon
     points="180,610 130,610 120,600 120,550 130,540 180,540 190,550 190,600 "
     style="fill:#000000"
     id="polygon26" />
  <!--TOUR 14-->
  <polygon
     points="180,830 130,830 120,820 120,770 130,760 180,760 190,770 190,820 "
     style="fill:#000000"
     id="polygon28" />
  <!--TOUR 15-->
  <polygon
     points="180,1050 130,1050 120,1040 120,990 130,980 180,980 190,990 190,1040 "
     style="fill:#000000"
     id="polygon30" />
  <!--TOUR 16-->
  <polygon
     points="180,1270 130,1270 120,1260 120,1210 130,1200 180,1200 190,1210 190,1260 "
     style="fill:#000000"
     id="polygon32" />
  <!--TOUR 22-->
  <polygon
     points="400,390 350,390 340,380 340,330 350,320 400,320 410,330 410,380 "
     style="fill:#000000"
     id="polygon34" />
  <!--TOUR 23-->
  <polygon
     points="400,610 350,610 340,600 340,550 350,540 400,540 410,550 410,600 "
     style="fill:#000000"
     id="polygon36" />
  <!--TOUR 24-->
  <polygon
     points="400,830 350,830 340,820 340,770 350,760 400,760 410,770 410,820 "
     style="fill:#000000"
     id="polygon38" />
  <!--TOUR 25-->
  <polygon
     points="400,1050 350,1050 340,1040 340,990 350,980 400,980 410,990 410,1040 "
     style="fill:#000000"
     id="polygon40" />
  <!--TOUR 26-->
  <polygon
     points="400,1270 350,1270 340,1260 340,1210 350,1200 400,1200 410,1210 410,1260 "
     style="fill:#000000"
     id="polygon42" />
  <!--TOUR 32-->
  <polygon
     points="620,390 570,390 560,380 560,330 570,320 620,320 630,330 630,380 "
     style="fill:#000000"
     id="polygon44" />
  <!--TOUR 33-->
  <polygon
     points="620,610 570,610 560,600 560,550 570,540 620,540 630,550 630,600 "
     style="fill:#000000"
     id="polygon46" />
  <!--TOUR 34-->
  <polygon
     points="620,830 570,830 560,820 560,770 570,760 620,760 630,770 630,820 "
     style="fill:#000000"
     id="polygon48" />
  <!--TOUR 42-->
  <polygon
     points="840,390 790,390 780,380 780,330 790,320 840,320 850,330 850,380 "
     style="fill:#000000"
     id="polygon50" />
  <!--TOUR 43-->
  <polygon
     points="840,610 790,610 780,600 780,550 790,540 840,540 850,550 850,600 "
     style="fill:#000000"
     id="polygon52" />
  <!--TOUR 44-->
  <polygon
     points="840,830 790,830 780,820 780,770 790,760 840,760 850,770 850,820 "
     style="fill:#000000"
     id="polygon54" />
  <!--TOUR 45-->
  <polygon
     points="840,1050 790,1050 780,1040 780,990 790,980 840,980 850,990 850,1040 "
     style="fill:#000000"
     id="polygon56" />
  <!--TOUR 46-->
  <polygon
     points="840,1270 790,1270 780,1260 780,1210 790,1200 840,1200 850,1210 850,1260 "
     style="fill:#000000"
     id="polygon58" />
  <!--TOUR 53-->
  <polygon
     points="1060,610 1010,610 1000,600 1000,550 1010,540 1060,540 1070,550 1070,600 "
     style="fill:#000000"
     id="polygon60" />
  <!--TOUR 54-->
  <polygon
     points="1060,830 1010,830 1000,820 1000,770 1010,760 1060,760 1070,770 1070,820 "
     style="fill:#000000"
     id="polygon62" />
  <!--TOUR 55-->
  <polygon
     points="1060,1050 1010,1050 1000,1040 1000,990 1010,980 1060,980 1070,990 1070,1040 "
     style="fill:#000000"
     id="polygon64" />
  <!--TOUR 56-->
  <polygon
     points="1060,1270 1010,1270 1000,1260 1000,1210 1010,1200 1060,1200 1070,1210 1070,1260 "
     style="fill:#000000"
     id="polygon66" />
  <!--TOUR 65-->
  <polygon
     points="1280,1050 1230,1050 1220,1040 1220,990 1230,980 1280,980 1290,990 1290,1040 "
     style="fill:#000000"
     id="polygon68" />
  <!--TOUR 66-->
  <polygon
     points="1280,1270 1230,1270 1220,1260 1220,1210 1230,1200 1280,1200 1290,1210 1290,1260 "
     style="fill:#000000"
     id="polygon70" />
  <!--12-13-->
  <polygon
     points="150,400 160,400 160,530 150,530 "
     style="fill:#000000"
     id="polygon72" />
  <!--13-14-->
  <polygon
     points="150,620 160,620 160,750 150,750 "
     style="fill:#000000"
     id="polygon74" />
  <!--14-15-->
  <polygon
     points="150,840 160,840 160,970 150,970 "
     style="fill:#000000"
     id="polygon76" />
  <!--15-16-->
  <polygon
     points="150,1060 160,1060 160,1190 150,1190 "
     style="fill:#000000"
     id="polygon78" />
  <!--22-23-->
  <polygon
     points="370,400 380,400 380,530 370,530 "
     style="fill:#000000"
     id="polygon80" />
  <!--23-24-->
  <polygon
     points="370,620 380,620 380,750 370,750 "
     style="fill:#000000"
     id="polygon82" />
  <!--24-25-->
  <polygon
     points="370,840 380,840 380,970 370,970 "
     style="fill:#000000"
     id="polygon84" />
  <!--25-26-->
  <polygon
     points="370,1060 380,1060 380,1190 370,1190 "
     style="fill:#000000"
     id="polygon86" />
  <!--32-33-->
  <polygon
     points="590,400 600,400 600,530 590,530 "
     style="fill:#000000"
     id="polygon88" />
  <!--33-34-->
  <polygon
     points="590,620 600,620 600,750 590,750 "
     style="fill:#000000"
     id="polygon90" />
  <!--42-43-->
  <polygon
     points="810,400 820,400 820,530 810,530 "
     style="fill:#000000"
     id="polygon92" />
  <!--43-44-->
  <polygon
     points="810,620 820,620 820,750 810,750 "
     style="fill:#000000"
     id="polygon94" />
  <!--44-45-->
  <polygon
     points="810,840 820,840 820,970 810,970 "
     style="fill:#000000"
     id="polygon96" />
  <!--45-46-->
  <polygon
     points="810,1060 820,1060 820,1190 810,1190 "
     style="fill:#000000"
     id="polygon98" />
  <!--53-54-->
  <polygon
     points="1030,620 1040,620 1040,750 1030,750 "
     style="fill:#000000"
     id="polygon100" />
  <!--54-55-->
  <polygon
     points="1030,840 1040,840 1040,970 1030,970 "
     style="fill:#000000"
     id="polygon102" />
  <!--55-56-->
  <polygon
     points="1030,1060 1040,1060 1040,1190 1030,1190 "
     style="fill:#000000"
     id="polygon104" />
  <!--65-66-->
  <polygon
     points="1250,1060 1260,1060 1260,1190 1250,1190 "
     style="fill:#000000"
     id="polygon106" />
  <!--12-22-->
  <polygon
     points="200,350 330,350 330,360 200,360 "
     style="fill:#000000"
     id="polygon108" />
  <!--13-23-->
  <polygon
     points="200,570 330,570 330,580 200,580 "
     style="fill:#000000"
     id="polygon110" />
  <!--14-24-->
  <polygon
     points="200,790 330,790 330,800 200,800 "
     style="fill:#000000"
     id="polygon112" />
  <!--15-25-->
  <polygon
     points="200,1010 330,1010 330,1020 200,1020 "
     style="fill:#000000"
     id="polygon114" />
  <!--16-26-->
  <polygon
     points="200,1230 330,1230 330,1240 200,1240 "
     style="fill:#000000"
     id="polygon116" />
  <!--22-32-->
  <polygon
     points="420,350 550,350 550,360 420,360 "
     style="fill:#000000"
     id="polygon118" />
  <!--23-33-->
  <polygon
     points="420,570 550,570 550,580 420,580 "
     style="fill:#000000"
     id="polygon120" />
  <!--24-34-->
  <polygon
     points="420,790 550,790 550,800 420,800 "
     style="fill:#000000"
     id="polygon122" />
  <!--26-00-->
  <polygon
     points="420,1230 550,1230 550,1240 420,1240 "
     style="fill:#000000"
     id="polygon124" />
  <!--32-42-->
  <polygon
     points="640,350 770,350 770,360 640,360 "
     style="fill:#000000"
     id="polygon126" />
  <!--33-43-->
  <polygon
     points="640,570 770,570 770,580 640,580 "
     style="fill:#000000"
     id="polygon128" />
  <!--34-44-->
  <polygon
     points="640,790 770,790 770,800 640,800 "
     style="fill:#000000"
     id="polygon130" />
  <!--46-00-->
  <polygon
     points="640,1230 770,1230 770,1240 640,1240 "
     style="fill:#000000"
     id="polygon132" />
  <!--43-53-->
  <polygon
     points="860,570 990,570 990,580 860,580 "
     style="fill:#000000"
     id="polygon134" />
  <!--44-54-->
  <polygon
     points="860,790 990,790 990,800 860,800 "
     style="fill:#000000"
     id="polygon136" />
  <!--45-55-->
  <polygon
     points="860,1010 990,1010 990,1020 860,1020 "
     style="fill:#000000"
     id="polygon138" />
  <!--46-56-->
  <polygon
     points="860,1230 990,1230 990,1240 860,1240 "
     style="fill:#000000"
     id="polygon140" />
  <!--55-65-->
  <polygon
     points="1080,1010 1210,1010 1210,1020 1080,1020 "
     style="fill:#000000"
     id="polygon142" />
  <!--56-66-->
  <polygon
     points="1080,1230 1210,1230 1210,1240 1080,1240 "
     style="fill:#000000"
     id="polygon144" />
</svg>
