<?xml version="1.0" encoding="UTF-8" standalone="no"?>
<svg
   viewBox="0 0 614.02 560.99998"
   version="1.1"
   id="svg12403"
   sodipodi:docname="polytechSandBDE.svg"
   width="614.02002"
   height="561"
   inkscape:version="1.2.1 (9c6d41e410, 2022-07-14)"
   xmlns:inkscape="http://www.inkscape.org/namespaces/inkscape"
   xmlns:sodipodi="http://sodipodi.sourceforge.net/DTD/sodipodi-0.dtd"
   xmlns="http://www.w3.org/2000/svg"
   xmlns:svg="http://www.w3.org/2000/svg">
  <sodipodi:namedview
     id="namedview12405"
     pagecolor="#ffffff"
     bordercolor="#000000"
     borderopacity="0.25"
     inkscape:showpageshadow="2"
     inkscape:pageopacity="0.0"
     inkscape:pagecheckerboard="0"
     inkscape:deskcolor="#d1d1d1"
     showgrid="false"
     inkscape:zoom="0.74248762"
     inkscape:cx="-137.37603"
     inkscape:cy="237.7144"
     inkscape:window-width="1920"
     inkscape:window-height="991"
     inkscape:window-x="-9"
     inkscape:window-y="-9"
     inkscape:window-maximized="1"
     inkscape:current-layer="svg12403" />
  <defs
     id="defs12329">
    <style
       id="style12327">.cls-1{fill:#c9bdb9;}.cls-2{fill:#004a75;}.cls-3{fill:#cabfb8;}.cls-4{fill:#fff;}</style>
  </defs>
  <g
     id="g12493">
    <path
       class="cls-1"
       d="m 471.22,408.06 c -10.56,25.32 -25.44,47.67 -45.56,66.15 -28,25.66 -60.63,41.93 -98.41,48 -39.71,6.39 -77.36,0.18 -113.5,-16.71 -10.18,-4.76 -19.37,-11.33 -29.77,-18 0,18.22 -0.16,35.16 0.1,52.08 0.08,4.87 -1.42,6.22 -6.27,6.3 a 62.61,62.61 0 0 1 -63.34,-57.34 c -3.31,-36.76 -0.56,-73.64 -1.49,-110.45 -0.1,-4.14 1.65,-5 5.37,-5 22.49,0.12 45,0.25 67.45,-0.08 5.58,-0.08 6.41,3.77 7.86,7.14 6.28,14.6 14.9,27.61 26.64,38.3 19.47,17.75 42.17,28 68.76,30 28.43,2.17 53.85,-5.61 76,-22.73 23.42,-18.07 38.36,-42 42.84,-71.65 6.14,-40.69 -6.87,-75 -37.17,-102 -25.29,-22.47 -55.46,-31.58 -89.66,-26.88 -24.29,3.35 -44.68,14.16 -62.2,30.43 a 103.71,103.71 0 0 0 -26.25,39.43 c -1.59,4.19 -3.33,5.78 -7.79,5.74 q -33,-0.3 -66.06,0 c -5.2,0.05 -6.5,-1.68 -5.31,-6.59 a 190.53,190.53 0 0 1 39.62,-78.94 c 29.87,-35.52 67.76,-57.52 113.34,-64.46 36.49,-5.56 72.57,-2.33 106.84,13.42 a 197.42,197.42 0 0 1 51.54,34.14 c 31.8,29.11 51.2,65.14 57.8,107.2 5.51,34.79 2.4,69.38 -11.38,102.5 z"
       id="path12331" />
    <path
       class="cls-3"
       d="m 457.54,24.37 c -16.87,-12.57 8.87,-7 15.67,-5.46 1.26,0.27 2.19,0.69 2.37,-1.31 -0.49,-4.29 13.56,1 16.17,1 4.19,1.56 3.29,-3.07 7.63,-1.17 8.26,2.95 16,7.08 24.6,8.56 11.15,3.82 23.12,6.9 32.71,13.88 9.64,6.69 17.32,15.73 27.44,21.71 a 7.59,7.59 0 0 0 3.87,1.09 23.32,23.32 0 0 1 13.24,5.7 c 4.36,3.63 8.76,7.29 10.42,13.07 3.15,11.06 3,22.66 0.52,34 -3.74,14.51 -13.38,25.78 -23.31,36.4 -2.44,2.21 2,3.48 -1.86,8.75 -13.38,18.69 -37.3,24.5 -53.88,39.37 a 280,280 0 0 0 -21,22.85 c -3.57,2.94 -7.64,18 -12.54,15.65 -3.62,-2.53 0.44,-6.75 0,-10.59 a 24.14,24.14 0 0 0 -5.33,7.8 c -2.78,5.78 -6.43,11.21 -7.69,17.67 -0.5,4 -5.06,4.26 -6.41,0.54 A 230.49,230.49 0 0 0 447,204.91 142.61,142.61 0 0 0 418.17,179.62 c -18.65,-14.33 -38,-27.64 -60.58,-35.06 -1.72,-0.32 -2,-1.73 -0.11,-2.32 8.82,-4.81 16.34,-11.5 23.47,-18.5 2.89,-2.58 -7.05,-0.69 -8.31,-1.67 -2.3,-0.59 -2.54,-1.11 -0.79,-2.83 2.33,-2.29 4.77,-4.45 7.22,-6.6 A 33.13,33.13 0 0 0 385.3,105 c -16.84,6.93 -33.37,14.16 -51.15,18.61 -11.79,2.88 -23.81,4.84 -35.68,7.42 a 47.47,47.47 0 0 1 -12.88,0.43 c -8.75,-0.77 -17.56,1.32 -26.29,0.31 -16.32,-2.28 -68.14,-5.15 -64.46,-29 a 68.65,68.65 0 0 1 9.09,-25.22 c 4.95,-8.88 13.92,-12.86 22.54,-17.61 -3.21,-1.27 -10.65,2.27 -11.62,-0.25 -1.61,-4.58 10.13,-8.09 13.39,-9.5 C 213.58,43.68 208.94,24.62 225.47,17.54 241.18,10 258.36,4.47 275.83,3.43 289.77,2 303.76,-0.85 317.87,0.24 a 289.27,289.27 0 0 1 76.37,16 c 13.94,3.53 27.21,9.48 40.35,15 0.24,-0.66 -0.26,-1 -0.55,-1.48 q -3.63,-5.51 -7.29,-11 c -1.56,-1.53 -0.1,-2.92 1.69,-2 6.39,2.07 12.38,5.31 19.05,6.56 3.19,0.56 6.36,1.33 10.05,1.05 z m -237,3.31 a 2.92,2.92 0 0 0 2,-0.66 c 4.45,-3 9.51,-4.74 14.13,-7.35 1.16,-0.66 1.8,-0.44 1.9,1.07 0.51,1.46 -0.12,7.75 2.58,5.67 18.37,-11.65 3,-6.36 22.58,1.87 4.31,1.53 3.68,-5.13 4.84,-7.67 0.38,-3.35 8,2.46 9.6,3.23 5.8,4.4 7.08,-5.51 11.39,-2.24 15.34,9.54 34.81,8 50.79,0.48 a 2.37,2.37 0 0 1 2,0.16 90.31,90.31 0 0 1 11.91,5.59 c 4.17,2.33 9,3 13.46,4.57 16.56,6 34.18,5.86 51.35,8.62 0.69,0.14 1.67,-0.24 1.78,1 0.16,2.74 -5.74,2.57 -7.69,2.93 -21.93,-1.5 -43.86,-3.75 -65.74,-5.54 -4.91,-1.6 -9.62,0.25 -14.33,-0.93 -6.44,-1.45 -12.95,-0.86 -19.43,-1 -4.73,-0.7 -9.33,0 -13.91,0.81 -16.15,3.26 -32.84,5.22 -48.43,10.58 a 79.71,79.71 0 0 1 -19.67,5 c -2.16,0.27 -4.49,0.34 -6.9,2.1 23.37,-0.71 2.91,9.35 -5.33,13.76 -9.47,4.93 -14.24,14.81 -16.56,24.8 -1.1,2.78 1.23,4.26 3.58,2.4 1.61,-0.89 14.09,-8.85 12.17,-2.83 -1,4.59 -2.68,16.39 3.55,17.71 a 93.24,93.24 0 0 0 18.3,-2.31 c 2.59,-0.23 15.43,-5.18 13.85,0.64 -0.88,3.14 -1.77,6.27 -2.61,9.42 -1,2.1 -0.16,3.11 2,1.64 13.73,-8.06 28,-11.42 43.62,-7.87 18.07,3.47 37.67,6.67 55.28,-0.67 7.42,-3.36 15.44,-5.23 22.65,-9.17 5.92,-3.23 12.27,-5.53 18.38,-8.35 1.44,-0.66 2.8,-0.77 3.8,0.65 2.07,3.31 -3.19,4.61 -4,7 0.15,0.52 0.7,0.41 1.09,0.38 6.28,-0.83 12.59,0 18.88,-0.73 a 5.45,5.45 0 0 1 3.93,0.5 c 0.4,0.27 0.93,0.54 0.8,1.14 -0.13,0.6 -0.67,0.48 -1.05,0.57 -2.66,0.75 -15.63,3.18 -15.25,6.6 0.26,0.63 0.8,0.4 1.29,0.26 10.75,-2.49 21.84,-5.17 32.92,-3.54 -0.55,1 -1.38,1 -2.08,1.28 -3.44,1.31 -6.89,2.6 -10.33,3.92 -3.44,1.32 -1.71,4.24 1.27,4.57 a 22.34,22.34 0 0 0 11.13,-0.45 c 0.5,-0.15 1.06,-0.64 1.57,0 1,4.65 -4.58,7.64 -7.6,10.3 -2.6,1.93 0.34,3.77 2.55,3.38 6.15,0.35 10.47,3.61 14,8.69 -7.76,-0.86 -13.89,3.44 -20.35,6.8 -0.54,0.26 -1.3,0.73 -1.17,1.38 0.13,0.65 1.06,0.49 1.66,0.62 2.32,0.5 2.52,0.8 1.53,2.8 -0.59,1.21 0.14,1.26 1,1.47 a 98.93,98.93 0 0 1 10.68,3.27 87.21,87.21 0 0 1 10,4.15 c 3.17,1.43 -2.8,3.32 -4,4.64 a 8.05,8.05 0 0 0 1.79,0.57 c 5,0.14 9.17,2.63 13.35,5.06 4.72,2.43 -10.49,8.64 -12.5,9.33 -2.01,0.69 -2.18,2.13 -0.15,2.69 a 107.14,107.14 0 0 1 12.44,8.13 c 6,3.59 -15.21,2.85 -16.89,3 37.46,41.61 16.8,33.2 36.5,13.08 1,-1.16 1.62,-1.18 2.6,0.09 1.56,2 3.33,3.86 5,5.75 2.06,2.11 4.3,-1 3.16,-3.14 -0.53,-2.3 -2.74,-10.33 -0.74,-11.85 7.07,-2.58 14.32,-3.49 21.82,-3.87 7.34,-0.53 -2.3,-6.1 3.36,-6 14.28,-0.31 28.42,-3.05 41.24,-9.49 8.57,-3.91 15.78,-10 23.59,-15.13 a 13.1,13.1 0 0 0 4,-4.38 c 0.76,-1.07 0.39,-1.9 -0.93,-1.33 -4.31,0.85 -8.51,0.13 -12.85,-0.12 a 2.08,2.08 0 0 1 -2.21,-1.68 c -0.34,-2.91 8.62,-4.25 11,-5.74 6.47,-2.58 12.58,-5.65 16.11,-12.14 7.34,-9.18 13.56,-18.94 14.41,-31.1 1.92,-14.31 -22.68,-9.07 -30.35,-16.65 -2.1,-1.69 -3,-3.2 -2.49,-5.94 0.3,-1.47 0.9,-2.72 2.51,-2.64 1.61,0.08 2.46,1.27 2.61,2.88 0.05,0.58 0.05,1.16 0.62,1.49 3.77,3.32 9,3.28 13.67,4.58 a 2,2 0 0 0 2,-0.44 22.06,22.06 0 0 1 7.09,-4.23 c 1.08,-0.46 1.09,-1.16 1,-2 C 604.33,72.26 590,69.19 580.42,72.94 c -2,0.88 -4,-0.92 -2.32,-2.68 0.88,-1.37 0.2,-1.86 -1,-2.19 a 14.46,14.46 0 0 1 -6.28,-3.43 c -2.09,-2.49 -14.41,-4 -14.53,-5.91 0.07,-2.25 7.26,-1 4.63,-4.49 a 4.13,4.13 0 0 0 -2.33,-1.73 c -6.3,-2 -13.31,-2.7 -17.85,-8.16 a 34.09,34.09 0 0 0 -3.11,-2.88 c -0.4,-0.37 -1.14,-0.63 -0.91,-1.28 0.55,-1.65 6.49,0.08 7.26,-1.69 -6.67,-4.53 -16.12,-4.73 -24.09,-4.93 C 508.49,34 510,26 501.83,22.74 c 0.69,2.38 3.64,5.26 2.43,7.33 -0.73,0.71 -1.35,0.05 -1.88,-0.32 -5.14,-3.63 -10.85,-6.12 -16.63,-8.46 -1.23,-0.46 -6.09,-2.62 -5.81,0 0.37,2.33 -0.93,3.34 -3.13,2.47 -6.1,-2 -12.17,-4 -18.74,-3.43 2.1,1.63 10.33,7.39 3.8,7.91 -9,-0.22 -18.08,-1.13 -26.63,-4.17 1.9,2.8 10.92,14.43 2.59,12.87 C 424.36,32.51 411.4,26.7 397.93,22.27 366.42,12.59 333.68,3.27 300.41,5.76 293.08,5.68 286.12,7.7 278.85,8.41 a 81.93,81.93 0 0 0 -26.44,4.49 c -10.96,3.79 -23.72,5.78 -31.86,14.78 z m 387.7,66.93 c -0.1,-1.59 0.52,-5.32 -2,-4.11 -1.81,0.91 -1.89,1.13 -0.28,2.38 0.63,0.51 1.04,1.32 2.28,1.73 z"
       id="path12373" />
    <path
       class="cls-3"
       d="m 111.6,555.53 c -1.2,6.67 -4,4 -9,2.87 -1.28,-0.37 -2.21,-0.54 -3.49,0.7 -4.7,3 -14.43,2 -19.53,-0.34 -5.93,-2.21 -13.81,-2.5 -17,-9 -0.35,-0.78 -1.31,-0.76 -2.06,-0.88 -3.5,-0.78 -11.46,-2.48 -13,-5.83 0,-1.71 -1.14,-2 -2.39,-2.39 -2.79,-1.37 -11.17,-2.3 -12,-5 a 2.76,2.76 0 0 1 1.39,-2.88 c 5,-3 -7.93,-4.46 -2.66,-8.84 1.19,-0.95 0.72,-1.27 -0.21,-1.7 -8.62,-3.56 -8.35,-11.09 -13.51,-13.25 -3,-1.47 -8.24,-3.69 -4.89,-7.52 a 1,1 0 0 0 -0.08,-1.46 c -5.82,-7.36 -9.72,-16 -12.83,-24.77 -0.8,-2.06 0.35,-3.48 2.53,-3 2.34,0.57 4.67,0.26 7,0.39 1.17,0.06 1.39,-0.42 0.85,-1.39 A 25.36,25.36 0 0 1 8,462.57 c -1.19,-5.93 5.42,-3.26 4,-5.76 -3.64,-6.26 -2.38,-12.7 -0.63,-19.14 1.86,-4.12 3.92,-23.45 10.12,-13.18 l 0.56,-0.33 c 0.6,-2.77 -1.32,-8.45 1,-9.94 1.57,-0.93 2.7,0 3.74,1 3.13,3.18 6.91,5.55 10.49,8.45 0.47,-1.52 -0.67,-2.13 -1.13,-3 C 35,418.65 33,417 33.16,414.29 c 0.14,-4.06 4.08,-3.25 6.9,-3 1.39,0.09 2.63,0.27 2.61,-1.91 0,-1.37 1.41,-1.81 2.67,-1.94 a 44.72,44.72 0 0 1 27.87,6.22 c 4,2.43 -3,-6.73 -3.23,-7.68 C 65,391 94.9,415.28 98.22,417.32 a 5.23,5.23 0 0 1 2.48,5.32 c -1,6.6 0.85,13.3 -0.23,19.94 -1.35,21.53 -2.09,43.53 3.45,64.55 a 82.68,82.68 0 0 0 12.63,27.49 47.88,47.88 0 0 0 9.87,9.93 c 2.72,2.09 2.84,3.77 0.72,6.42 -2.93,3.73 -12.05,10.96 -15.54,4.56 z m -99,-62.72 a 19.44,19.44 0 0 0 5.71,7.43 c 0.95,0.7 1.68,1.5 1.15,2.65 -1.52,3 8.36,4.1 10.29,3.37 1,-0.22 2.18,-0.08 2.41,1.12 0.34,2 -2.34,2.67 -3.86,2.69 -5.51,-0.62 6.15,9.78 7.64,10.36 6.76,4.3 -6.48,5 3.36,7.15 a 3.16,3.16 0 0 1 2.39,2.42 c 1.18,2.46 -6.34,3.94 -3.09,5.21 4.06,1.24 8.1,2.55 12.15,3.8 1.23,0.38 1.88,1 1.35,2.32 -0.53,1.32 0.27,1.65 1.24,1.93 3.58,0.9 6.66,2.52 10.57,2.31 -0.9,-3.15 -7.17,-13.32 0,-11.82 2.27,0.71 3.57,-2 1.47,-3.15 -4.91,-3.43 -10,-7.05 -12.77,-12.51 -1.14,-1.55 -0.48,-2.55 1.31,-1.77 7.1,1.64 7.3,-0.48 3.48,-5.82 -1.81,-3.66 -4.33,-7 -5,-11.21 -0.67,-4.21 -0.36,-8.35 -1.45,-12.41 -0.39,-1.44 0.45,-1.63 1.49,-1.49 5.18,1.79 9.82,5.32 14.49,7.85 0.43,-0.14 0.32,-0.58 0.27,-0.91 -0.55,-3.48 -0.89,-7 -2.75,-10.16 -1.86,-3.16 -3,-7.06 -5.15,-10.24 a 1.94,1.94 0 0 1 -0.09,-2.55 c 1,-1.17 2.55,-0.54 3.77,-0.14 6.52,2.74 -3.25,-15 -5.48,-16 -7.45,-6 13.08,-6.29 16.19,-6.13 1.29,0 2,-0.42 1.63,-1.71 -0.44,-2.1 -2.8,-19.1 0.17,-17.6 3.32,2.23 10.84,-1.07 10.19,-5.33 -0.14,-5 -1.32,-5.65 5.32,-3.79 2.08,0.59 3.86,1.88 6,2.79 -1,-1.91 -19.14,-13.93 -21.39,-14.32 0.52,3.24 7,8.58 4.84,11.79 -0.79,0.95 -1.84,0.34 -2.76,0 -9.27,-2.78 -19.33,-9.46 -29,-6.65 2.46,1.31 0.86,5.34 -1.77,4.45 -2.1,-0.5 -4.24,-0.21 -6.34,-0.54 -0.47,-0.07 -1,-0.42 -1.32,0.18 1.61,4.36 5.17,8.32 8,12.14 1.62,1.26 0.5,3.5 -1.39,3.64 -7.22,-0.25 -12.77,-6 -18.92,-9.32 a 38.35,38.35 0 0 0 3.14,15.5 c 0.78,1.47 2,4.17 -0.12,5.07 -2.78,0.83 -3.77,-6 -5,-7.86 -0.35,-1.91 -5.7,-9.45 -6.76,-5.15 -1.06,4.3 -2.19,8.35 -3.23,12.54 a 15.8,15.8 0 0 0 2.82,14.22 c 3,3.86 5.72,7.92 8.57,11.89 0.91,1.25 1.16,2.46 -0.25,3.52 -3.08,2.32 -7.45,-6.12 -9.2,-8.18 a 2.57,2.57 0 0 0 -3.61,-1.07 c -2.8,1.4 8.23,16.47 10.15,18.16 1,1.14 1.76,2.32 0.33,3.69 -2.52,2.31 -5,-1.82 -6.44,-3.66 -3.21,-4.31 -3.2,-4.32 -8.61,-4.24 -4.68,-0.91 0.77,6.49 2,7.79 3.1,3 6,6.24 10.13,7.93 a 2.35,2.35 0 0 1 1.37,3.34 c -1.67,2.98 -7.33,-2.65 -9.67,-3.52 z"
       id="path12375" />
    <path
       class="cls-4"
       d="m 220.55,27.68 c 8.12,-9 20.91,-11 31.86,-14.77 a 81.93,81.93 0 0 1 26.44,-4.49 c 7.27,-0.71 14.23,-2.73 21.56,-2.65 33.27,-2.48 66,6.83 97.52,16.51 13.47,4.43 26.43,10.24 39.9,14.67 8.49,1.59 -0.9,-10.19 -2.59,-12.87 8.55,3 17.62,4 26.63,4.17 6.53,-0.52 -1.7,-6.27 -3.8,-7.91 6.57,-0.61 12.64,1.4 18.74,3.43 2.2,0.87 3.5,-0.14 3.13,-2.47 -0.29,-2.63 4.59,-0.46 5.81,0 5.78,2.34 11.49,4.83 16.63,8.46 0.53,0.37 1.15,1 1.87,0.32 1.24,-2.05 -1.74,-5 -2.42,-7.33 a 11.7,11.7 0 0 1 6.17,4.9 c 2.81,4.49 6.7,5.85 11.79,5.84 8,0.18 17.43,0.41 24.09,4.93 -0.84,1.24 -4.14,0.85 -5.62,1 -1.65,0 -2.37,1.07 -0.73,2 4.47,4.58 9.17,8.44 15.64,9.48 2.53,1 5.94,0.93 7.63,3.26 2.63,3.47 -4.56,2.27 -4.63,4.49 0.11,1.92 12.49,3.46 14.53,5.91 A 14.46,14.46 0 0 0 577,68 c 1.25,0.33 1.93,0.82 1,2.19 -1.72,1.77 0.43,3.56 2.32,2.68 9.57,-3.74 23.94,-0.69 26.24,10.63 0.12,0.87 0.11,1.57 -1,2 a 22.06,22.06 0 0 0 -7.09,4.23 2,2 0 0 1 -2,0.44 c -4.67,-1.3 -9.89,-1.26 -13.67,-4.58 -0.57,-0.33 -0.57,-0.91 -0.62,-1.49 -0.15,-3.53 -4.8,-4 -5.12,-0.24 -0.97,15.71 35.94,6.07 32.94,22.61 -0.86,12.16 -7.07,21.92 -14.41,31.1 -3.53,6.49 -9.64,9.56 -16.11,12.14 -2.33,1.51 -11.31,2.79 -11,5.74 a 2.1,2.1 0 0 0 2.22,1.68 c 4.33,0.25 8.54,1 12.85,0.12 1.27,-0.6 1.72,0.3 0.93,1.33 a 13.1,13.1 0 0 1 -4,4.38 c -7.81,5.13 -15,11.22 -23.59,15.13 -12.82,6.43 -27,9.18 -41.24,9.49 -5.66,-0.06 4,5.48 -3.36,6 -7.49,0.37 -14.77,1.3 -21.81,3.88 -2.06,1.61 0.22,9.4 0.73,11.84 1.23,2 -1.22,5.33 -3.16,3.14 -1.71,-1.89 -3.48,-3.74 -5,-5.75 -1,-1.27 -1.62,-1.25 -2.6,-0.09 -19.71,20.13 1,28.52 -36.5,-13.08 1.62,-0.12 22.94,0.59 16.89,-3 a 107.14,107.14 0 0 0 -12.44,-8.13 c -2,-0.55 -1.73,-2.13 0.15,-2.69 1.88,-0.56 17.21,-6.88 12.5,-9.33 -4.18,-2.43 -8.31,-4.92 -13.35,-5.06 a 8.05,8.05 0 0 1 -1.79,-0.57 c 1.2,-1.31 7.13,-3.22 4,-4.64 a 106.94,106.94 0 0 0 -20.78,-7.42 c -3.45,-0.58 2.45,-3.68 -2.5,-4.27 -1.95,0.14 -2.27,-1.22 -0.49,-2 3.84,-1.82 7.33,-4.34 11.4,-5.7 a 22.46,22.46 0 0 1 8.95,-1.1 c -3.5,-5.08 -7.82,-8.34 -14,-8.69 -2.21,0.38 -5.15,-1.43 -2.55,-3.38 3,-2.65 8.62,-5.65 7.6,-10.3 -0.51,-0.59 -1.07,-0.1 -1.57,0 a 22.34,22.34 0 0 1 -11.13,0.45 c -3,-0.32 -4.8,-3.25 -1.27,-4.57 3.53,-1.32 6.89,-2.61 10.33,-3.92 0.7,-0.27 1.53,-0.31 2.08,-1.28 -11.07,-1.63 -22.18,1 -32.92,3.54 -0.49,0.14 -1,0.37 -1.29,-0.26 -0.27,-3.42 12.3,-5.8 15.25,-6.6 0.38,-0.09 0.94,-0.06 1.05,-0.57 0.11,-0.51 -0.4,-0.87 -0.8,-1.14 a 5.45,5.45 0 0 0 -3.93,-0.5 c -6.29,0.73 -12.6,-0.1 -18.88,0.73 -0.39,0 -0.94,0.14 -1.09,-0.38 0.84,-2.4 6.07,-3.7 4,-7 -1,-1.42 -2.36,-1.31 -3.8,-0.65 -6.11,2.82 -12.46,5.12 -18.38,8.35 -7.21,3.94 -15.23,5.81 -22.65,9.17 -17.61,7.34 -37.21,4.14 -55.28,0.67 -15.76,-3.54 -29.79,-0.21 -43.61,7.87 -1.81,1.32 -3.15,0.69 -2,-1.65 0.84,-3.14 1.73,-6.27 2.61,-9.41 1.59,-5.77 -11.12,-0.92 -13.85,-0.64 a 93.24,93.24 0 0 1 -18.3,2.31 c -6.25,-1.21 -4.53,-13.23 -3.55,-17.71 1.88,-6 -10.31,1.81 -12.17,2.83 -8.17,4.79 -0.44,-11.87 0.63,-14.41 a 30.12,30.12 0 0 1 12.35,-12.79 c 8.37,-4.51 28.71,-14.44 5.33,-13.76 2.41,-1.76 4.74,-1.83 6.9,-2.1 a 79.71,79.71 0 0 0 19.67,-5 c 15.59,-5.36 32.28,-7.32 48.43,-10.58 4.58,-0.79 9.18,-1.51 13.91,-0.81 6.48,0.09 13,-0.5 19.43,1 4.71,1.18 9.43,-0.67 14.33,0.93 21.88,1.79 43.81,4 65.74,5.54 2.33,-0.38 7.64,-0.2 7.69,-2.93 -0.11,-1.22 -1.09,-0.84 -1.78,-1 -17.17,-2.76 -34.79,-2.64 -51.35,-8.62 -4.48,-1.54 -9.29,-2.24 -13.46,-4.57 a 90.31,90.31 0 0 0 -11.91,-5.59 2.37,2.37 0 0 0 -2,-0.16 c -16,7.51 -35.45,9.06 -50.79,-0.48 -4.31,-3.26 -5.6,6.64 -11.39,2.24 -1.73,-0.84 -9.16,-6.55 -9.6,-3.23 -1.2,2.52 -0.48,9.21 -4.84,7.67 -19.58,-8.22 -4.2,-13.52 -22.58,-1.87 -2.76,2.12 -2,-4.21 -2.58,-5.67 -0.1,-1.51 -0.74,-1.73 -1.9,-1.07 -4.62,2.61 -9.68,4.39 -14.13,7.35 a 2.92,2.92 0 0 1 -1.94,0.71 z M 335.28,104 c 13.26,-1.43 26,-6.57 35.25,-16.71 3.16,-3.53 6.16,-7.21 9.21,-10.83 0.41,-0.48 0.89,-1 0.58,-1.71 -0.31,-0.71 -1.1,-0.48 -1.7,-0.53 -2.42,-0.2 -4.8,0.33 -7.2,0.43 a 87,87 0 0 1 -43.3,-10.26 c -26.49,-7.88 -55.58,-9.6 -81.75,0.29 -6,1.6 -10.57,5.12 -14.47,9.85 a 68.88,68.88 0 0 1 -8.48,8.94 c -0.56,0.47 -1.64,0.71 -1.23,1.69 2.92,2.19 10.54,-1.93 13.11,-4.07 9.5,-7.64 22.13,-15.36 33.53,-6.78 9.54,5.48 19.29,10.57 29.14,15.41 12.1,5.59 23.82,12.8 37.31,14.28 z M 485.13,92.6 c 1.66,-0.47 2.71,0.4 3.89,2.12 7.75,12.61 25,11.73 36,4.16 2.75,-1.92 5.27,-3.33 8.79,-2.5 5.74,-0.51 6.89,-8.57 1.43,-10.29 a 4.47,4.47 0 0 1 -2.93,-4.29 c -0.66,-14.07 -18.8,-19.24 -30.68,-17.72 -8.11,0.88 -15.15,7 -16.26,15.19 -0.61,2.15 -1.43,3.54 -3.57,4.41 -2.4,1 -3,2.52 -2.41,5 0.85,3.42 1.61,3.96 5.74,3.92 z m 22.05,50.89 c 8.45,-0.77 14.9,-6 22.36,-9.44 14.6,-6.9 29.08,-14.12 44.47,-19.15 11.4,-5.88 18.23,0.89 19.19,-4.32 -4.87,-8.22 -44,9.16 -51.67,13.21 -10.28,5.09 -20.59,10.16 -30.59,15.8 a 9.93,9.93 0 0 0 -3.76,3.9 z m -31,-88.62 c 1.11,-5.16 -4.42,-5.92 -5.36,-1.38 C 469.6,57 465.61,69.16 470,71 c 4.72,1.27 5.39,-8.65 9.33,-7.95 3.94,0.7 8,-7.09 11.8,-9 2.66,-1.92 5,-4.39 8.61,-4.68 a 2.24,2.24 0 0 0 2,-2.2 c -2.07,-8.08 -12.31,1.84 -15.76,4.34 -3.24,3.79 -3.71,-5.93 -9.83,3.36 z m 96.5,74.36 c 1.84,-0.31 4.71,0.91 5.27,-1.34 a 1.83,1.83 0 0 0 -1.81,-2 c -3.94,-0.5 -7.69,-0.67 -11.5,1.44 -16.48,9.1 -30.93,21.12 -45.79,32.5 -1.71,0.8 -1.11,2.5 0.74,1.54 14.07,-3.74 40.6,-32.82 53.06,-32.14 z m -35.22,45 c 6.7,-2.06 10.8,-8.77 15.52,-13.55 4.82,-5.19 9.46,-10.54 15,-15.06 4.4,-3.63 9.66,-5.58 14.78,-7.79 1.19,-0.51 2.12,-1.09 1.73,-2.46 -0.46,-1.56 -1.77,-1.14 -2.84,-0.83 -10.06,2.68 -18.16,9.86 -25.57,16.91 -5,5.19 -9.58,10.81 -14.78,15.84 -1.96,1.84 -3.79,3.9 -3.87,6.94 z"
       id="path12377" />
    <path
       class="cls-4"
       d="m 608.24,94.61 c -1.23,-0.41 -1.65,-1.22 -2.32,-1.73 -1.61,-1.25 -1.53,-1.47 0.28,-2.38 2.56,-1.21 1.94,2.5 2.04,4.11 z"
       id="path12379" />
    <path
       class="cls-4"
       d="m 12.57,492.81 c 2.36,0.9 8,6.47 9.78,3.5 A 2.35,2.35 0 0 0 21,493 c -4.17,-1.69 -7,-4.93 -10.13,-7.93 -1.27,-1.3 -6.71,-8.67 -2,-7.79 5.41,-0.08 5.4,-0.07 8.61,4.24 1.48,1.84 3.92,6 6.44,3.66 1.43,-1.37 0.66,-2.55 -0.33,-3.69 -1.86,-1.61 -13,-16.79 -10.15,-18.16 a 2.57,2.57 0 0 1 3.56,1.04 c 1.76,2.07 6.1,10.49 9.2,8.18 1.41,-1.06 1.16,-2.27 0.25,-3.52 -2.85,-4 -5.58,-8 -8.57,-11.89 a 15.8,15.8 0 0 1 -2.82,-14.22 c 1,-4.19 2.22,-8.34 3.23,-12.54 1.06,-4.37 6.45,3.36 6.76,5.15 1.17,1.83 2.2,8.74 5,7.86 2.13,-0.91 0.9,-3.58 0.12,-5.07 A 38.35,38.35 0 0 1 27,422.82 c 6.15,3.35 11.71,9.07 18.92,9.32 1.89,-0.14 3,-2.37 1.39,-3.64 -2.82,-3.81 -6.38,-7.78 -8,-12.14 0.33,-0.6 0.85,-0.25 1.32,-0.18 2.1,0.33 4.24,0 6.34,0.54 2.63,0.89 4.23,-3.14 1.77,-4.45 9.69,-2.81 19.74,3.86 29,6.65 0.92,0.33 2,0.94 2.76,0 2.2,-3.2 -4.32,-8.56 -4.84,-11.79 2.25,0.39 20.41,12.41 21.39,14.32 -20,-9.51 -6.12,1.12 -14,5.45 -2.48,1.23 -4.73,2.59 -7.53,0.88 -3,-1.63 -0.59,15.8 -0.17,17.6 0.34,1.29 -0.34,1.74 -1.63,1.71 -3.08,-0.18 -23.66,0.18 -16.19,6.13 2.14,0.87 12,18.78 5.48,16 -1.22,-0.4 -2.74,-1 -3.77,0.14 a 1.94,1.94 0 0 0 0.09,2.55 c 2.19,3.18 3.22,6.94 5.15,10.24 1.25,2 3.36,9.25 2.48,11.07 -4.67,-2.53 -9.31,-6.06 -14.49,-7.85 -1,-0.14 -1.88,0.05 -1.49,1.49 1.09,4.06 0.84,8.29 1.45,12.41 1.09,5.4 4.3,10 7.08,14.64 2.14,3.71 -3.56,3.08 -5.61,2.39 -1.83,-0.81 -2.43,0.26 -1.31,1.77 2.82,5.46 7.86,9.08 12.77,12.51 2.09,1.14 0.8,3.91 -1.47,3.15 -7.13,-1.41 -0.89,8.55 0,11.82 -3.91,0.21 -7,-1.41 -10.57,-2.31 -1,-0.28 -1.75,-0.66 -1.24,-1.93 0.51,-1.27 -0.08,-1.92 -1.33,-2.31 -4,-1.25 -8.09,-2.56 -12.15,-3.8 -3.25,-1.26 4.27,-2.76 3.09,-5.21 -0.45,-2.52 -3.33,-2.51 -5.27,-3.22 -1,-0.36 -1.57,-1 -0.29,-1.72 6,-3.18 -5.2,-6.27 -8.75,-13 -3.09,-3.77 5,-0.3 4.75,-4.67 -0.23,-1.2 -1.39,-1.34 -2.41,-1.12 -1.93,0.72 -11.83,-0.38 -10.29,-3.37 0.53,-1.15 -0.2,-1.95 -1.15,-2.65 a 19.44,19.44 0 0 1 -5.71,-7.43 z"
       id="path12381" />
    <path
       class="cls-3"
       d="M 335.28,104 C 321.8,102.52 310.07,95.3 298,89.75 c -9.85,-4.84 -19.6,-9.93 -29.14,-15.41 -11.38,-8.57 -24,-0.86 -33.53,6.78 -2.7,2.2 -10.14,6.24 -13.11,4.07 -0.41,-1 0.67,-1.22 1.23,-1.69 a 68.88,68.88 0 0 0 8.48,-8.94 c 3.9,-4.73 8.43,-8.25 14.47,-9.85 26.17,-9.89 55.26,-8.17 81.75,-0.29 a 87,87 0 0 0 43.3,10.26 c 2.4,-0.1 4.78,-0.63 7.2,-0.43 0.6,0 1.36,-0.23 1.7,0.53 0.34,0.76 -0.17,1.23 -0.58,1.71 -3.05,3.62 -6.05,7.3 -9.21,10.83 -9.27,10.14 -22.03,15.28 -35.28,16.68 z"
       id="path12383" />
    <path
       class="cls-3"
       d="m 485.13,92.6 c -4.16,0 -4.89,-0.5 -5.7,-4 -0.56,-2.44 0,-4 2.41,-5 2.14,-0.87 3,-2.26 3.57,-4.42 1.12,-8.21 8.14,-14.31 16.26,-15.17 11.88,-1.54 30,3.65 30.68,17.7 a 4.48,4.48 0 0 0 2.93,4.3 c 5.45,1.72 4.33,9.79 -1.43,10.29 -3.53,-0.84 -6,0.58 -8.79,2.5 -11.08,7.57 -28.29,8.45 -36,-4.16 -1.22,-1.64 -2.27,-2.51 -3.93,-2.04 z m 11.58,-13.53 c -0.75,0.32 -2,0.27 -1.53,1.83 0.26,3 2,12 6.53,9.39 0.93,-0.9 -0.08,-1.36 -0.55,-1.86 a 10.54,10.54 0 0 1 -1.46,-2.06 c -1.49,-1.74 -0.7,-7.04 -2.99,-7.3 z m 21.7,4.48 c 0,-2.52 -2.18,-5.06 -4.35,-4.87 -1.85,0.16 -1.31,1.95 -1.45,3 -0.29,2.98 5.64,6.26 5.8,1.87 z M 534,90.76 c -1.23,-0.29 -1.75,-1.32 -2.79,-0.72 a 0.71,0.71 0 0 0 -0.17,1.11 c 0.81,0.85 1.64,0.48 2.96,-0.39 z"
       id="path12385" />
    <path
       class="cls-3"
       d="m 507.18,143.49 a 9.93,9.93 0 0 1 3.76,-3.9 c 10,-5.64 20.31,-10.71 30.59,-15.8 7.7,-4 46.73,-21.43 51.67,-13.21 -0.88,5.18 -7.82,-1.54 -19.19,4.33 -15.39,5 -29.87,12.24 -44.47,19.15 -7.46,3.41 -13.92,8.66 -22.36,9.43 z"
       id="path12387" />
    <path
       class="cls-3"
       d="m 476.15,54.87 c 6.13,-9.29 6.59,0.44 9.81,-3.32 3.72,-2.49 9.68,-9.27 14.38,-6.78 2.09,1 1.7,4.43 -0.61,4.64 -7,1.46 -11.73,7.54 -16.64,12.26 -1.07,1.08 -2.27,1.86 -3.77,1.41 -3.93,-0.71 -4.61,9.21 -9.33,7.94 -4.4,-2 -0.39,-13.92 0.8,-17.53 0.94,-4.49 6.47,-3.78 5.36,1.38 z"
       id="path12389" />
    <path
       class="cls-3"
       d="m 572.65,129.23 c -12.5,-0.65 -39,28.39 -53.09,32.16 -1.71,0.91 -2.57,-0.65 -0.74,-1.54 14.86,-11.38 29.32,-23.4 45.79,-32.5 3.81,-2.11 7.56,-1.94 11.5,-1.44 a 1.83,1.83 0 0 1 1.81,2 c -0.54,2.22 -3.45,1.02 -5.27,1.32 z"
       id="path12391" />
    <path
       class="cls-3"
       d="m 537.43,174.23 c 0.08,-3 1.91,-5.1 3.8,-6.94 5.2,-5 9.76,-10.65 14.79,-15.84 7.4,-7 15.5,-14.23 25.56,-16.91 1.07,-0.31 2.38,-0.73 2.84,0.83 0.39,1.37 -0.54,1.95 -1.73,2.46 -5.12,2.21 -10.38,4.16 -14.78,7.79 -5.5,4.52 -10.14,9.87 -15,15.06 -4.68,4.78 -8.78,11.49 -15.48,13.55 z"
       id="path12393" />
    <path
       class="cls-4"
       d="m 496.71,79.07 c 2.28,0.24 1.51,5.57 3,7.3 a 10.54,10.54 0 0 0 1.46,2.06 c 0.47,0.5 1.48,1 0.55,1.86 -4.53,2.6 -6.27,-6.39 -6.53,-9.39 -0.44,-1.56 0.81,-1.51 1.52,-1.83 z"
       id="path12395" />
    <path
       class="cls-4"
       d="m 518.41,83.55 c -0.16,4.39 -6.1,1.11 -5.8,-1.83 0.14,-1.09 -0.4,-2.88 1.45,-3 2.17,-0.23 4.3,2.28 4.35,4.83 z"
       id="path12397" />
    <path
       class="cls-4"
       d="m 534,90.76 c -1.33,0.87 -2.16,1.26 -3,0.39 a 0.71,0.71 0 0 1 0.17,-1.11 c 1.09,-0.6 1.61,0.43 2.83,0.72 z"
       id="path12399" />
  </g>
</svg>
