<?xml version="1.0" encoding="UTF-8"?> <!-- Generator: Adobe Illustrator 25.2.3, SVG Export Plug-In . SVG Version: 6.00 Build 0) --> <svg xmlns="http://www.w3.org/2000/svg" xmlns:xlink="http://www.w3.org/1999/xlink" version="1.1" id="Calque_1" x="0px" y="0px" viewBox="0 0 470.6 136.6" style="enable-background:new 0 0 470.6 136.6;" xml:space="preserve"> <style type="text/css"> .st0{display:none;} </style> <g id="Calque_2_1_" class="st0"> </g> <g id="Calque_1_1_"> <g> <g> 
<path class="st1" fill="#112970" d="M38.9,42.7h4.5v-10c0-1.3-1.1-2.3-2.3-2.3c-1.3,0-2.3,1.1-2.3,2.3L38.9,42.7L38.9,42.7z"></path> 
<path class="st1" fill="#112970" d="M29.3,42.7h4.5v-10c0-1.3-1.1-2.3-2.3-2.3c-1.3,0-2.3,1.1-2.3,2.3L29.3,42.7L29.3,42.7z"></path> 
<path class="st1" fill="#112970" d="M48.5,42.7H53v-10c0-1.3-1.1-2.3-2.3-2.3c-1.3,0-2.3,1.1-2.3,2.3L48.5,42.7L48.5,42.7z"></path> 
<path class="st1" fill="#112970" d="M42.3,5.8c3.1,0.6,4.1,3.2,4.1,5.1v3.9h2.8V17c7.3,3.5,12.4,11.1,12.4,18.9c0,0.1,0,0.1,0,0.2v6.7h16.9V36 C78.2,13.8,62.5,0.3,41.7,0L42.3,5.8z"></path> 
<path class="st1" fill="#112970" d="M39.1,10.8v4h4.1v-4c0-1.2-1-2-2-2C40,8.7,39.1,9.6,39.1,10.8"></path> 
<path class="st1" fill="#112970" d="M44.3,53.5c-17.4-4.4-23.9-8.2-23.9-19.3c0-7.9,5.3-14.7,12.7-17.6v-1.8h2.8v-3.9c0-1.9,1.2-4.6,4.3-5.1 L40.8,0C19.9,0.2,2,14.7,2.8,34.3c1,21.9,25,28,37.9,30.7c10.2,2.1,34.7,7.9,40.8,25.2C81.5,90.2,83.8,61.7,44.3,53.5"></path> 
<path class="st1" fill="#112970" d="M38.5,83.9c17.5,5.4,22.1,11.9,22.1,21.1c0,14.1-10.9,19.9-24.6,19.9c-13.1,0-24.4-6.1-31.9-14.1l-2.8,5.8 c5.5,10.4,21,20,38.4,20l0,0l0,0l0,0c22.2,0.2,41.1-10.2,41.1-31.1c0-22.5-24.5-31.2-38.1-34.2C31.9,68.8,5,61.8,0.2,46.6 C0.2,46.6-5.2,72.8,38.5,83.9"></path> </g> </g> <g> 
<path class="st1" fill="#112970" d="M133.1,18.6c15.3,0,23.2,8.8,23.2,8.8l-7,11.5c0,0-6.9-6.4-15.5-6.4c-11.9,0-17.5,8.8-17.5,17.7 c0,9.2,6.1,18.6,17.5,18.6c9.3,0,16.5-7.6,16.5-7.6l7.8,11.1c0,0-8.8,10.4-25,10.4c-19.5,0-32.5-13.8-32.5-32.2 C100.6,32.5,114.5,18.6,133.1,18.6z"></path> 
<path class="st1" fill="#112970" d="M198.1,68.6h-19.4l-3.8,13h-15.6l21.1-62h16l21.1,62h-15.6L198.1,68.6z M188.4,33.8c0,0-1.3,6.7-2.5,10.7 l-3.6,12h12.1l-3.5-12C189.9,40.7,188.5,33.8,188.4,33.8C188.5,33.8,188.4,33.8,188.4,33.8z"></path> 
<path class="st1" fill="#112970" d="M221.8,19.7h25.7c12,0,20.2,8.9,20.2,21.3c0,12.5-8.2,21.5-20.2,21.5h-10.6v19.2h-15.1V19.7z M244.4,49.5 c5.3,0,7.9-3.6,7.9-8.5s-2.6-8.3-7.6-8.3H237v16.9L244.4,49.5L244.4,49.5z"></path> 
<path class="st1" fill="#112970" d="M279.5,62.4c0,0,7,6.5,14.8,6.5c3.1,0,6.6-1.3,6.6-4.9c0-7.3-28-7.1-28-26.2c0-11.5,9.6-19,22-19 c13.4,0,20,7,20,7l-6.5,12.4c0,0-6.3-5.5-13.7-5.5c-3.1,0-6.6,1.3-6.6,4.8c0,7.8,28,6.5,28,26c0,10.3-7.9,19.3-21.9,19.3 c-14.6,0-22.6-8.9-22.6-8.9L279.5,62.4z"></path> 
<path class="st1" fill="#112970" d="M323.4,19.7h15.1v39.2c0,6.6,4.2,9.9,10.8,9.9c6.6,0,10.8-3.5,10.8-9.9V19.7h15.1v39.2 c0,14-10.2,23.8-25.8,23.8c-15.8,0-26-9.9-26-23.8L323.4,19.7L323.4,19.7z"></path> 
<path class="st1" fill="#112970" d="M383.9,19.7H399v49h25.3v13h-40.5V19.7z"></path> 
<path class="st1" fill="#112970" d="M430.6,19.7h38.8v13h-23.7v11.3h18.9v13h-18.9v11.8h24.9v13h-40.1L430.6,19.7L430.6,19.7z"></path> </g> <g> 
<path class="st1" fill="#56B7E6" d="M105.3,112.5c0,0,1.4,1.4,3.4,1.4c1.1,0,2-0.6,2-1.6c0-2.4-6.5-2-6.5-6.3c0-2.3,1.9-4,4.6-4 c2.7,0,4,1.4,4,1.4l-1.1,2c0,0-1.3-1.2-3-1.2c-1.2,0-2,0.7-2,1.6c0,2.4,6.5,1.8,6.5,6.2c0,2.2-1.6,4-4.5,4c-3.1,0-4.7-1.8-4.7-1.8 L105.3,112.5z"></path> 
<path class="st1" fill="#56B7E6" d="M121.7,102.1c3.4,0,5,1.8,5,1.8l-1.2,1.8c0,0-1.5-1.4-3.8-1.4c-2.9,0-4.6,2.1-4.6,4.7c0,2.6,1.7,4.9,4.6,4.9 c2.4,0,4-1.7,4-1.7l1.3,1.8c0,0-1.9,2.2-5.4,2.2c-4.1,0-7-3.1-7-7.1C114.6,105.2,117.6,102.1,121.7,102.1z"></path> 
<path class="st1" fill="#56B7E6" d="M129.4,102.4h2.5V116h-2.5V102.4z"></path> 
<path class="st1" fill="#56B7E6" d="M135.2,102.4h8.2v2.1h-5.7v3.6h4.6v2.1h-4.6v3.7h6v2.1h-8.5V102.4z"></path> 
<path class="st1" fill="#56B7E6" d="M146.3,102.4h2.5l5.2,7.9c0.5,0.8,1.2,2.1,1.2,2.1l0,0c0,0-0.1-1.3-0.1-2.1v-7.9h2.5V116h-2.5l-5.2-7.9 c-0.5-0.8-1.2-2.1-1.2-2.1l0,0c0,0,0.1,1.3,0.1,2.1v7.9h-2.5V102.4z"></path> 
<path class="st1" fill="#56B7E6" d="M167,102.1c3.4,0,5,1.8,5,1.8l-1.2,1.8c0,0-1.5-1.4-3.8-1.4c-2.9,0-4.6,2.1-4.6,4.7c0,2.6,1.7,4.9,4.6,4.9 c2.4,0,4-1.7,4-1.7l1.3,1.8c0,0-1.9,2.2-5.4,2.2c-4.1,0-7-3.1-7-7.1C160,105.2,163,102.1,167,102.1z"></path> 
<path class="st1" fill="#56B7E6" d="M174.8,102.4h8.2v2.1h-5.7v3.6h4.6v2.1h-4.6v3.7h6v2.1h-8.5V102.4z"></path> 
<path class="st1" fill="#56B7E6" d="M186.1,112.5c0,0,1.4,1.4,3.4,1.4c1.1,0,2-0.6,2-1.6c0-2.4-6.5-2-6.5-6.3c0-2.3,1.9-4,4.6-4s4,1.4,4,1.4 l-1.1,2c0,0-1.3-1.2-3-1.2c-1.2,0-2,0.7-2,1.6c0,2.4,6.5,1.8,6.5,6.2c0,2.2-1.6,4-4.5,4c-3.1,0-4.7-1.8-4.7-1.8L186.1,112.5z"></path> 
<path class="st1" fill="#56B7E6" d="M201.5,112.5c0,0,1.4,1.4,3.4,1.4c1.1,0,2-0.6,2-1.6c0-2.4-6.5-2-6.5-6.3c0-2.3,1.9-4,4.6-4s4,1.4,4,1.4 l-1.1,2c0,0-1.3-1.2-3-1.2c-1.2,0-2,0.7-2,1.6c0,2.4,6.5,1.8,6.5,6.2c0,2.2-1.6,4-4.5,4c-3.1,0-4.7-1.8-4.7-1.8L201.5,112.5z"></path> 
<path class="st1" fill="#56B7E6" d="M217.9,102.1c4,0,7,3.1,7,6.9c0,4-3.1,7.1-7,7.1c-4,0-7-3.2-7-7.1C210.8,105.2,213.9,102.1,217.9,102.1z M217.9,113.9c2.5,0,4.5-2.1,4.5-4.9c0-2.7-2-4.7-4.5-4.7c-2.5,0-4.5,2-4.5,4.7C213.4,111.9,215.4,113.9,217.9,113.9z"> </path> 
<path class="st1" fill="#56B7E6" d="M227.5,102.4h4.4c1.4,0,2.1,0.1,2.8,0.4c1.3,0.6,2.2,1.9,2.2,3.8c0,1.6-0.9,3.2-2.3,3.8l0,0 c0,0,0.2,0.2,0.5,0.7l2.8,5.1h-2.8l-2.7-5.1H230v5.1h-2.5V102.4z M232.2,108.7c1.3,0,2.1-0.8,2.1-2.1c0-1.3-0.6-2.1-2.5-2.1h-1.9 v4.2C229.9,108.7,232.2,108.7,232.2,108.7z"></path> 
<path class="st1" fill="#56B7E6" d="M240.1,102.4h4.9c2.5,0,4.2,1.3,4.2,3.6c0,1.3-0.6,2.4-1.6,2.9l0,0c1.5,0.5,2.2,1.8,2.2,3.2 c0,2.7-2.2,4-4.7,4h-4.9L240.1,102.4L240.1,102.4z M245,107.9c1.1,0,1.7-0.8,1.7-1.7c0-1-0.6-1.7-1.7-1.7h-2.4v3.5 C242.6,107.9,245,107.9,245,107.9z M245.3,113.8c1.3,0,2-0.9,2-2c0-1.2-0.8-1.9-2-1.9h-2.7v4H245.3z"></path> 
<path class="st1" fill="#56B7E6" d="M258.6,102.1c4,0,7,3.1,7,6.9c0,4-3.1,7.1-7,7.1c-4,0-7-3.2-7-7.1C251.6,105.2,254.6,102.1,258.6,102.1z M258.6,113.9c2.5,0,4.5-2.1,4.5-4.9c0-2.7-2-4.7-4.5-4.7s-4.5,2-4.5,4.7C254.1,111.9,256.1,113.9,258.6,113.9z"></path> 
<path class="st1" fill="#56B7E6" d="M268.2,102.4h2.5l5.2,7.9c0.5,0.8,1.2,2.1,1.2,2.1l0,0c0,0-0.1-1.3-0.1-2.1v-7.9h2.5V116h-2.5l-5.2-7.9 c-0.5-0.8-1.2-2.1-1.2-2.1l0,0c0,0,0.1,1.3,0.1,2.1v7.9h-2.5V102.4z"></path> 
<path class="st1" fill="#56B7E6" d="M282.8,102.4h2.5l5.2,7.9c0.5,0.8,1.2,2.1,1.2,2.1l0,0c0,0-0.1-1.3-0.1-2.1v-7.9h2.5V116h-2.5l-5.2-7.9 c-0.5-0.8-1.2-2.1-1.2-2.1l0,0c0,0,0.1,1.3,0.1,2.1v7.9h-2.5V102.4z"></path> 
<path class="st1" fill="#56B7E6" d="M297.5,102.4h8.2v2.1H300v3.6h4.6v2.1H300v3.7h6v2.1h-8.5L297.5,102.4L297.5,102.4z"></path> 
<path class="st1" fill="#56B7E6" d="M313,102.4h2.5v8.8c0,1.8,1.2,2.9,3,2.9c1.8,0,3.1-1.1,3.1-2.9v-8.8h2.5v8.8c0,3.1-2.2,5.1-5.5,5.1 c-3.3,0-5.5-2.1-5.5-5.1L313,102.4L313,102.4z"></path> 
<path class="st1" fill="#56B7E6" d="M327.2,102.4h2.5l5.2,7.9c0.5,0.8,1.2,2.1,1.2,2.1l0,0c0,0-0.1-1.3-0.1-2.1v-7.9h2.5V116H336l-5.2-7.9 c-0.5-0.8-1.2-2.1-1.2-2.1l0,0c0,0,0.1,1.3,0.1,2.1v7.9h-2.5V102.4z"></path> 
<path class="st1" fill="#56B7E6" d="M341.9,102.4h2.5V116h-2.5V102.4z"></path> 
<path class="st1" fill="#56B7E6" d="M346,102.4h2.7l3,9c0.3,0.8,0.5,2,0.5,2l0,0c0,0,0.3-1.3,0.5-2l3-9h2.7l-5,13.7h-2.5L346,102.4z"></path> 
<path class="st1" fill="#56B7E6" d="M360.2,102.4h8.2v2.1h-5.7v3.6h4.6v2.1h-4.6v3.7h6v2.1h-8.5L360.2,102.4L360.2,102.4z"></path> 
<path class="st1" fill="#56B7E6" d="M371.3,102.4h4.4c1.4,0,2.1,0.1,2.8,0.4c1.3,0.6,2.2,1.9,2.2,3.8c0,1.6-0.9,3.2-2.3,3.8l0,0 c0,0,0.2,0.2,0.5,0.7l2.8,5.1h-2.8l-2.7-5.1h-2.4v5.1h-2.5V102.4z M376,108.7c1.3,0,2.1-0.8,2.1-2.1c0-1.3-0.6-2.1-2.5-2.1h-1.9 v4.2C373.7,108.7,376,108.7,376,108.7z"></path> 
<path class="st1" fill="#56B7E6" d="M384.2,112.5c0,0,1.4,1.4,3.4,1.4c1.1,0,2-0.6,2-1.6c0-2.4-6.5-2-6.5-6.3c0-2.3,1.9-4,4.6-4 c2.7,0,4,1.4,4,1.4l-1.1,2c0,0-1.3-1.2-3-1.2c-1.2,0-2,0.7-2,1.6c0,2.4,6.5,1.8,6.5,6.2c0,2.2-1.6,4-4.5,4c-3.1,0-4.7-1.8-4.7-1.8 L384.2,112.5z"></path> 
<path class="st1" fill="#56B7E6" d="M394.6,102.4h2.5V116h-2.5V102.4z"></path> 
<path class="st1" fill="#56B7E6" d="M403.4,104.5h-4.5v-2.1h11.5v2.1h-4.5V116h-2.5L403.4,104.5L403.4,104.5z"></path> 
<path class="st1" fill="#56B7E6" d="M412,102.4h8.2v2.1h-5.7v3.6h4.6v2.1h-4.6v3.7h6v2.1H412L412,102.4L412,102.4z M416.8,98.8h2.5l-2,2.6h-1.9 L416.8,98.8z"></path> </g> </g> </svg> 