<svg width="227" height="99" viewBox="0 0 227 99" fill="none" xmlns="http://www.w3.org/2000/svg">
<path d="M48.3564 50.297C48.2903 48.2951 48.3547 46.162 48.4603 44.0321C48.6167 40.8739 49.2122 37.8011 50.5871 34.9207C52.742 30.4081 56.2234 27.3538 60.8847 25.608C63.0872 24.7835 65.3679 24.3285 67.7106 24.1441C69.7237 23.9863 71.7368 23.9661 73.7419 24.1707C77.8551 24.5894 81.7105 25.7562 85.0735 28.2637C87.6539 30.1875 89.5316 32.6604 90.7856 35.6133C91.0137 36.1496 91.2111 36.7003 91.4053 37.2503C91.6439 37.9259 91.6366 37.934 92.3321 37.9332C94.2251 37.9308 96.1206 37.8671 98.0104 37.9404C99.1298 37.9839 100.048 37.6425 100.929 37.02C101.933 36.3122 102.938 35.6068 104.002 34.9884C107.105 33.187 110.429 32.1362 114.027 32.0009C114.469 31.984 114.906 31.8833 115.352 31.9373C116.186 32.0396 116.672 32.501 116.641 33.175C116.609 33.8626 116.1 34.3265 115.281 34.3434C113.685 34.3756 112.106 34.5278 110.552 34.8998C108.397 35.416 106.401 36.3025 104.536 37.4943C103.399 38.2206 102.323 39.0372 101.172 39.7442C100.461 40.1806 99.7003 40.3779 98.8767 40.3771C96.9837 40.3747 95.0907 40.3731 93.1976 40.3715C93.0365 40.3715 92.8745 40.365 92.7141 40.3763C92.2975 40.4053 92.2088 40.4923 92.2789 40.9062C92.5594 42.5593 92.5787 44.227 92.6391 45.8971C92.7222 48.1888 92.8858 50.479 92.8148 52.7731C92.7367 55.3056 92.7214 57.8421 92.461 60.3666C92.4216 60.7467 92.3611 61.1243 92.3192 61.5044C92.2741 61.9151 92.3031 61.9602 92.7238 61.965C93.5691 61.9747 94.4153 61.9642 95.2615 61.9642C96.007 61.9642 96.7524 61.9489 97.497 61.9771C97.9798 61.9948 98.3344 61.8209 98.6688 61.4819C100.424 59.7071 102.195 57.9468 103.962 56.1833C104.375 55.771 104.787 55.3563 105.208 54.9521C107.343 52.9028 110.461 53.3513 111.922 55.916C111.961 55.986 112.001 56.0561 112.037 56.1278C112.155 56.3629 112.303 56.3323 112.465 56.1793C112.567 56.0827 112.668 55.9844 112.768 55.8846C113.324 55.3306 113.884 54.7798 114.435 54.2201C116.527 52.0983 119.882 52.7836 121.152 55.2058C121.413 55.7018 121.465 55.7034 121.885 55.3016C122.292 54.9118 122.678 54.5004 123.086 54.1122C124.295 52.9631 125.718 52.6708 127.278 53.1886C128.818 53.7008 129.767 54.8015 130.06 56.3975C130.323 57.8333 129.927 59.1088 128.911 60.1717C128.438 60.6662 127.94 61.1372 127.466 61.63C127.171 61.9368 127.181 62.0045 127.533 62.2171C127.843 62.4047 128.157 62.5859 128.43 62.8266C130.204 64.3856 130.355 67.1001 128.729 68.8241C127.777 69.8347 126.774 70.7986 125.792 71.7802C123.997 73.5727 122.207 75.3708 120.401 77.1528C118.821 78.7126 116.378 78.8004 114.693 77.3783C114.191 76.9547 113.843 76.4184 113.564 75.829C113.321 75.3152 113.31 75.308 112.744 75.4215C111.137 75.7444 109.752 75.3684 108.626 74.146C108.322 73.8159 108.102 73.435 107.909 73.034C107.653 72.5017 107.618 72.4679 107.026 72.5943C106.24 72.7618 105.474 72.7666 104.709 72.4856C103.703 72.116 102.909 71.5137 102.441 70.5272C102.407 70.4548 102.369 70.3831 102.333 70.3114C102 69.6463 102 69.6431 101.241 69.7751C99.4062 70.0956 97.95 69.4997 96.8999 67.9601C96.3688 67.1814 96.2092 66.2989 96.2737 65.3696C96.3183 64.7259 96.0118 64.4033 95.3542 64.4017C94.4073 64.4009 93.4612 64.4001 92.5142 64.4017C91.7341 64.4033 91.7269 64.4033 91.4964 65.1321C91.0209 66.6347 90.4133 68.0777 89.6082 69.4345C87.5911 72.8367 84.7028 75.2041 81.0255 76.6214C78.7384 77.5031 76.3634 77.9983 73.9224 78.2302C72.616 78.3542 71.304 78.3913 70.0025 78.384C66.6226 78.3663 63.3032 77.8969 60.1215 76.6697C55.3168 74.8176 52.0288 71.4517 50.1213 66.7039C49.3508 64.7866 48.9245 62.7848 48.669 60.7386C48.4861 59.2779 48.4386 57.8132 48.4216 56.3436C48.3991 54.3723 48.3193 52.4011 48.3564 50.297ZM81.912 51.2359C81.9369 48.581 81.9361 45.9253 81.6742 43.2792C81.4905 41.4231 81.0706 39.6282 80.1833 37.9686C79.0035 35.7614 77.258 34.2121 74.8645 33.4125C72.6571 32.6757 70.3974 32.571 68.124 32.9342C64.4862 33.5156 61.8848 35.4635 60.4455 38.9019C59.6718 40.7491 59.36 42.689 59.2657 44.6651C59.1803 46.4527 59.1609 48.2436 59.1496 50.0328C59.1416 51.4002 59.1948 52.7667 59.2157 54.134C59.2318 55.2203 59.2133 56.3081 59.2568 57.3928C59.3237 59.0637 59.5082 60.7233 59.9886 62.3338C60.9492 65.5548 62.9566 67.8337 66.1512 68.9554C68.8493 69.9024 71.6063 69.9322 74.3487 69.1414C76.3296 68.5697 78.0139 67.5019 79.3097 65.8705C80.2406 64.6988 80.7942 63.3476 81.1939 61.9215C81.7911 59.7868 81.8032 57.5861 81.9007 55.3998C81.9619 54.014 81.912 52.6241 81.912 51.2359ZM112.001 73.1137C112.452 73.1298 112.897 72.7594 113.318 72.3382C117.848 67.8135 122.379 63.2905 126.907 58.7642C127.092 58.5798 127.271 58.3849 127.416 58.1691C127.921 57.4202 127.801 56.4354 127.151 55.8628C126.445 55.2396 125.5 55.2283 124.786 55.8435C124.588 56.0142 124.406 56.2035 124.221 56.3887C120.603 60.0034 116.987 63.619 113.368 67.2322C113.097 67.5019 112.808 67.7523 112.537 68.0221C111.808 68.7452 111.048 69.4377 110.386 70.2245C109.885 70.8187 109.871 71.4879 110.188 72.1474C110.502 72.8029 111.076 73.1089 112.002 73.1129L112.001 73.1137ZM104.31 68.4344C104.313 69.1881 104.581 69.7147 105.194 70.0425C105.832 70.3831 106.469 70.4064 107.077 69.9861C107.34 69.8041 107.584 69.5875 107.811 69.3612C111.345 65.8358 114.875 62.3064 118.403 58.7754C118.587 58.5918 118.764 58.3929 118.906 58.1763C119.409 57.4065 119.299 56.4942 118.646 55.8669C118.042 55.2855 117.096 55.2331 116.369 55.7606C116.143 55.9249 115.945 56.1302 115.746 56.3283C112.213 59.8553 108.683 63.3847 105.153 66.9133C105.01 67.0558 104.865 67.1959 104.733 67.3473C104.443 67.6783 104.287 68.0616 104.31 68.4344ZM115.671 74.1227C115.647 74.9134 115.995 75.4513 116.68 75.7871C117.375 76.1277 118.009 76.0053 118.592 75.5343C118.764 75.3958 118.918 75.2339 119.074 75.0777C121.581 72.5734 124.088 70.0682 126.594 67.5623C126.75 67.4061 126.912 67.2523 127.048 67.0784C127.576 66.406 127.544 65.4155 126.985 64.7987C126.365 64.1142 125.465 63.9886 124.69 64.4943C124.489 64.6256 124.305 64.7866 124.135 64.9565C121.54 67.5446 118.948 70.1359 116.357 72.7272C116.244 72.8407 116.133 72.9591 116.032 73.0847C115.785 73.3939 115.65 73.7442 115.671 74.1227H115.671ZM109.991 58.0741C109.976 57.1762 109.668 56.6294 109.047 56.3081C108.406 55.9756 107.758 56.0352 107.167 56.4611C106.973 56.6013 106.804 56.7792 106.634 56.9491C104.612 58.9671 102.592 60.9866 100.572 63.0062C100.089 63.4894 99.5915 63.9612 99.1266 64.4621C98.4649 65.1764 98.4528 66.1837 99.0951 66.8625C99.685 67.4858 100.604 67.737 101.495 67.0969C101.705 66.9455 101.89 66.7546 102.075 66.5702C104.424 64.2254 106.771 61.8789 109.118 59.5316C109.274 59.3753 109.431 59.2175 109.572 59.0484C109.852 58.7118 110.002 58.3245 109.99 58.0733L109.991 58.0741Z" fill="#DF5F4D"/>
<path d="M166.531 24.0435C169.834 24.0435 173.138 24.0339 176.44 24.0467C179.636 24.0588 182.745 24.5919 185.682 25.869C190.837 28.11 193.847 32.0388 194.743 37.5894C194.904 38.5847 195.021 39.5872 195.038 40.5898C195.083 43.1585 194.856 45.6991 193.954 48.1333C192.493 52.0742 189.738 54.7799 185.925 56.4524C183.786 57.3905 181.534 57.8962 179.218 58.1555C177.775 58.3173 176.326 58.3479 174.878 58.36C171.696 58.3874 168.513 58.3664 165.331 58.3705C164.274 58.3713 164.274 58.3777 164.274 59.4439C164.274 64.9196 164.274 70.3944 164.273 75.8701C164.273 76.1721 164.282 76.4757 164.25 76.7752C164.147 77.7278 163.521 78.3173 162.568 78.3366C161.322 78.3616 160.077 78.4912 158.827 78.3535C158.41 78.3076 157.984 78.3398 157.561 78.3857C156.675 78.4816 155.789 78.3857 154.909 78.3084C154.221 78.2472 153.81 77.7665 153.586 77.1336C153.47 76.8058 153.472 76.462 153.473 76.1182C153.475 72.5348 153.474 68.9522 153.474 65.3689C153.474 65.2481 153.478 65.1273 153.474 65.0065C153.458 64.4831 153.4 64.409 152.878 64.4058C151.528 64.3961 150.179 64.409 148.83 64.3978C148.368 64.3937 147.904 64.3647 147.444 64.3116C146.794 64.2367 146.351 63.7415 146.359 63.144C146.368 62.5731 146.799 62.0947 147.411 61.9981C147.609 61.9667 147.812 61.9732 148.014 61.9732C149.605 61.9715 151.196 61.9748 152.787 61.9707C153.441 61.9691 153.472 61.9401 153.472 61.2903C153.475 54.5471 153.475 47.8032 153.472 41.06C153.472 40.4183 153.433 40.382 152.78 40.3804C151.35 40.3756 149.92 40.3651 148.49 40.3828C147.417 40.3957 146.438 40.1308 145.484 39.6291C142.668 38.1483 139.95 36.4894 137.121 35.0319C135.126 34.0044 133.074 33.1163 130.876 32.6412C127.41 31.8915 124.184 32.4656 121.323 34.6269C120.075 35.569 119.087 36.7689 118.281 38.112C116.497 41.0802 114.714 44.0475 112.931 47.0157C112.859 47.1364 112.785 47.258 112.727 47.3853C112.62 47.618 112.668 47.8169 112.883 47.9658C113.57 48.4393 114.305 48.8057 115.143 48.9201C115.712 48.9982 116.226 48.8436 116.652 48.4546C116.994 48.1422 117.338 47.8282 117.64 47.4803C119.464 45.3794 121.457 43.4428 123.433 41.4908C124.077 40.8547 124.69 40.1847 125.387 39.6033C126.315 38.8295 127.748 38.7353 128.765 39.3924C129.764 40.039 130.696 40.7742 131.571 41.5826C133.481 43.3486 135.188 45.3077 136.94 47.225C138.461 48.8895 139.975 50.5596 141.49 52.2288C142.194 53.0043 142.897 53.7797 143.593 54.5616C144.405 55.474 144.788 56.5474 144.786 57.7673C144.782 60.4247 144.79 63.082 144.783 65.7385C144.781 66.828 144.553 67.8547 143.875 68.7461C142.835 70.1118 141.137 70.6876 139.393 70.2334C138.63 70.0353 138.72 69.9588 138.41 70.7246C137.561 72.8255 135.468 73.8401 133.282 73.2209C133.165 73.1879 133.049 73.1532 132.933 73.1194C132.743 73.0646 132.621 73.1468 132.551 73.3175C132.481 73.485 132.427 73.6581 132.356 73.8248C131.268 76.3831 128.175 77.2141 125.944 75.5537C125.639 75.3266 125.426 75.0456 125.352 74.6743C125.261 74.2186 125.414 73.8353 125.763 73.5422C126.116 73.2474 126.518 73.1653 126.946 73.361C127.146 73.4528 127.328 73.5856 127.519 73.6952C128.77 74.4118 130.139 73.7097 130.27 72.2819C130.333 71.6007 130.369 70.9187 130.367 70.2326C130.358 67.374 130.363 64.5153 130.363 61.6575C130.363 61.4361 130.355 61.213 130.383 60.994C130.45 60.452 130.824 60.0824 131.366 59.9995C131.851 59.9254 132.379 60.2314 132.577 60.7113C132.718 61.0536 132.726 61.4159 132.725 61.7807C132.723 64.0958 132.724 66.4109 132.725 68.7252C132.725 68.9667 132.717 69.2107 132.749 69.4483C132.875 70.3647 133.692 71.0346 134.616 70.9952C135.492 70.9581 136.234 70.2165 136.289 69.3098C136.308 69.0086 136.297 68.7058 136.297 68.4039C136.299 65.5654 136.285 62.7269 136.309 59.8892C136.316 59.0686 136.06 58.4107 135.48 57.835C133.321 55.6938 131.177 53.539 129.027 51.3882C128.871 51.2319 128.706 51.0797 128.574 50.9034C128.223 50.4307 128.265 49.7704 128.656 49.3444C129.022 48.945 129.56 48.875 130.093 49.1544C130.31 49.2687 130.485 49.4338 130.657 49.6045C132.836 51.7827 135.014 53.9609 137.193 56.1383C138.257 57.2012 138.798 58.4518 138.76 59.985C138.71 61.9965 138.755 64.0104 138.745 66.0236C138.742 66.6468 138.932 67.1606 139.418 67.5672C140.378 68.3725 141.826 67.9618 142.214 66.766C142.302 66.4954 142.335 66.2176 142.335 65.9334C142.332 63.1754 142.33 60.4174 142.336 57.6602C142.338 57.0885 142.17 56.5949 141.788 56.1697C140.75 55.019 139.718 53.8619 138.676 52.7144C136.362 50.1674 134.049 47.618 131.721 45.0839C130.574 43.8357 129.289 42.735 127.934 41.7179C127.822 41.6334 127.698 41.5641 127.577 41.49C127.3 41.3193 127.039 41.3556 126.801 41.5649C126.635 41.7107 126.472 41.8621 126.315 42.0191C124.636 43.6996 122.952 45.3754 121.283 47.068C120.733 47.6268 120.227 48.2292 119.701 48.8114C119.174 49.3944 118.651 49.983 118.019 50.4557C116.986 51.2287 115.853 51.5613 114.556 51.2778C113.375 51.0202 112.292 50.5732 111.335 49.8308C110.995 49.5675 110.718 49.2486 110.505 48.8814C110.03 48.0665 110.014 47.2403 110.495 46.4174C111.348 44.9574 112.199 43.4967 113.057 42.0392C114.2 40.0962 115.355 38.1587 116.6 36.2785C117.667 34.6696 118.958 33.2684 120.565 32.1789C122.691 30.7367 125.065 30.0901 127.613 29.9484C129.958 29.8188 132.17 30.3438 134.34 31.1547C137.161 32.2095 139.791 33.6485 142.399 35.1382C143.814 35.9475 145.244 36.7326 146.668 37.5266C147.153 37.7972 147.677 37.9212 148.232 37.9204C149.743 37.9171 151.254 37.9172 152.764 37.9123C153.459 37.9099 153.471 37.9002 153.471 37.1973C153.474 33.5938 153.471 29.9911 153.474 26.3876C153.474 26.1267 153.469 25.8618 153.506 25.6049C153.636 24.7167 154.217 24.1611 155.109 24.0612C155.328 24.0363 155.551 24.0435 155.773 24.0435C159.358 24.0427 162.943 24.0435 166.528 24.0435H166.531ZM164.155 41.0963C164.146 41.0963 164.138 41.0963 164.129 41.0963C164.129 42.9073 164.128 44.7191 164.129 46.5301C164.13 47.3957 164.13 48.2606 164.149 49.1262C164.158 49.5876 164.224 49.6359 164.681 49.6649C164.761 49.6698 164.842 49.669 164.922 49.669C168.608 49.669 172.292 49.6649 175.978 49.6706C176.933 49.6722 177.864 49.528 178.775 49.2542C181.4 48.4627 183.196 46.8313 183.867 44.1127C184.318 42.2856 184.344 40.436 183.893 38.6113C183.208 35.842 181.565 33.9296 178.757 33.1275C177.686 32.8215 176.591 32.675 175.479 32.6693C172.841 32.6573 170.203 32.6532 167.565 32.6484C166.74 32.6468 165.914 32.654 165.088 32.6581C164.474 32.6608 164.164 32.9783 164.157 33.6107C164.157 33.6711 164.155 33.7315 164.155 33.7919C164.155 36.2269 164.155 38.662 164.155 41.0971V41.0963Z" fill="#DF5F4D"/>
<path d="M39.342 43.1494C38.254 43.1494 37.1669 43.1477 36.079 43.1494C35.7953 43.1494 35.5164 43.1236 35.2392 43.0664C34.5977 42.9344 34.1343 42.5792 33.9143 41.9584C33.7403 41.4656 33.5984 40.9615 33.4542 40.459C33.1246 39.3123 32.6918 38.21 32.0697 37.1881C31.13 35.6428 29.8373 34.5139 28.1522 33.8294C26.5477 33.178 24.8819 32.8373 23.1565 32.7673C21.4779 32.6988 19.8129 32.7786 18.193 33.2762C15.4329 34.1249 13.3432 35.7628 12.1577 38.4451C11.642 39.6119 11.3382 40.8423 11.1504 42.1017C10.9602 43.3772 10.9167 44.6632 10.8627 45.9508C10.7684 48.1846 10.7998 50.4183 10.8055 52.6513C10.8103 54.4824 10.8329 56.3144 10.9191 58.1431C11.0045 59.9364 11.2995 61.6999 11.9305 63.3973C13.1466 66.6691 15.5675 68.5469 18.8845 69.303C21.519 69.903 24.1655 69.7886 26.7725 69.0599C27.9443 68.7321 29.0427 68.2296 30.0299 67.5122C31.2525 66.624 32.0834 65.4258 32.7007 64.0665C33.1262 63.1284 33.4252 62.1476 33.6798 61.1515C34.0634 59.6481 34.501 59.3051 36.0451 59.3027C38.2605 59.2986 40.4767 59.3252 42.6921 59.293C44.1403 59.272 44.6963 59.9654 44.5964 61.3504C44.1701 67.2601 41.3019 71.6882 36.3473 74.8005C33.4066 76.6485 30.1573 77.6631 26.7113 78.11C24.3807 78.412 22.0444 78.4176 19.7154 78.2952C16.6611 78.1358 13.6873 77.5021 10.8973 76.1879C6.95896 74.3326 4.02632 71.4732 2.22194 67.484C1.07193 64.9426 0.448981 62.274 0.199962 59.5064C0.0613487 57.9619 0.0202486 56.4142 0.0113839 54.8649C0.000907309 53.0128 0.0250843 51.1608 0.00413116 49.3087C-0.0152102 47.5573 0.0355614 45.8067 0.110509 44.0585C0.25154 40.7674 0.956692 37.5947 2.40326 34.6194C4.09241 31.1447 6.63982 28.4826 10.0721 26.6764C12.601 25.3453 15.3031 24.6117 18.127 24.2647C20.7171 23.9466 23.3153 23.9321 25.903 24.1914C29.6568 24.5666 33.2132 25.6304 36.4263 27.6531C40.3945 30.151 43.0894 33.6064 44.1926 38.2204C44.4465 39.2834 44.5271 40.3672 44.594 41.4503C44.652 42.3916 44.1419 42.9658 43.2062 43.1059C42.9886 43.1389 42.7654 43.1453 42.5438 43.1461C41.476 43.1502 40.409 43.1477 39.3412 43.1477L39.342 43.1494Z" fill="#DF5F4D"/>
<path d="M226.843 51.1721C226.843 59.566 226.843 67.9591 226.841 76.3531C226.841 76.7315 226.876 77.1116 226.645 77.4619C226.245 78.065 225.711 78.3726 224.977 78.3638C223.487 78.346 221.996 78.3348 220.506 78.3485C219.702 78.3557 218.902 78.4266 218.095 78.3501C217.02 78.2486 216.448 77.6874 216.411 76.6059C216.402 76.3442 216.407 76.0825 216.407 75.8208C216.407 62.9988 216.407 50.1768 216.402 37.3549C216.402 37.106 216.535 36.7654 216.264 36.6293C215.957 36.4755 215.768 36.8145 215.56 36.978C212.097 39.707 208.639 42.4432 205.18 45.1762C205.053 45.2761 204.923 45.3727 204.786 45.4565C204.015 45.9283 203.226 45.8414 202.583 45.2076C202.165 44.7962 201.85 44.3001 201.493 43.8395C200.766 42.9006 200.055 41.9488 199.344 40.997C199.213 40.8206 199.092 40.6306 199.002 40.4309C198.588 39.5137 198.795 38.6279 199.582 37.9982C201.138 36.7525 202.701 35.5165 204.262 34.278C208.3 31.0739 212.34 27.8738 216.372 24.6625C216.883 24.2551 217.431 24.0376 218.089 24.0401C220.385 24.0505 222.681 24.0473 224.977 24.0401C225.629 24.0384 226.144 24.2784 226.543 24.797C226.735 25.0466 226.852 25.3091 226.842 25.628C226.835 25.8495 226.842 26.0709 226.842 26.2923C226.842 34.5856 226.842 42.878 226.842 51.1713L226.843 51.1721Z" fill="#DF5F4D"/>
</svg>
