<?xml version="1.0" encoding="utf-8"?>
<!-- Generator: Adobe Illustrator 25.3.1, SVG Export Plug-In . SVG Version: 6.00 Build 0)  -->
<svg version="1.1" id="Calque_1" xmlns="http://www.w3.org/2000/svg" xmlns:xlink="http://www.w3.org/1999/xlink" x="0px" y="0px"
	 viewBox="0 0 371.3 141.7" style="enable-background:new 0 0 371.3 141.7;" xml:space="preserve">
<style type="text/css">
	.st0{fill:#1D2769;}
	.st1{fill:#E6332A;}
</style>
<path class="st0" d="M40.4,44.4h4.7V34c0-1.3-1.1-2.4-2.4-2.4s-2.4,1.1-2.4,2.4V44.4z"/>
<path class="st0" d="M30.4,44.4h4.7V34c0-1.3-1.1-2.4-2.4-2.4c-1.3,0-2.4,1.1-2.4,2.4V44.4z"/>
<path class="st0" d="M50.4,44.4h4.7V34c0-1.3-1.1-2.4-2.4-2.4c-1.3,0-2.4,1.1-2.4,2.4V44.4z"/>
<path class="st0" d="M43.9,6c3.2,0.6,4.3,3.3,4.3,5.3v4h2.9v2.3c7.6,3.6,12.9,11.5,12.9,19.6c0,0.1,0,0.1,0,0.2v7h17.5v-7.1
	c-0.4-23-16.7-37-38.3-37.3L43.9,6z"/>
<path class="st0" d="M40.6,11.2v4.2h4.3v-4.2c0-1.2-1-2.1-2.1-2.1C41.6,9.1,40.6,10,40.6,11.2"/>
<path class="st0" d="M46,55.6C27.9,51,21.2,47,21.2,35.6c0-8.2,5.5-15.3,13.2-18.3v-1.9h2.9v-4c0-2,1.2-4.8,4.5-5.3l0.6-6
	C20.5,0.2,2,15.3,2.9,35.6c1,22.7,25.9,29.1,39.3,31.9c10.6,2.2,36,8.2,42.3,26.1C84.5,93.6,86.9,64,46,55.6"/>
<path class="st0" d="M40,87.1c18.2,5.6,22.9,12.3,22.9,21.9c0,14.6-11.3,20.6-25.5,20.6c-13.6,0-25.3-6.3-33.1-14.6c0,0-2.9,6-2.9,6
	c5.7,10.8,21.8,20.7,39.8,20.7h0c0,0,0,0,0,0v0c23,0.2,42.6-10.6,42.6-32.3c0-23.3-25.4-32.4-39.5-35.5c-11.1-2.5-39-9.8-44-25.5
	C0.2,48.5-5.3,75.6,40,87.1"/>
<g>
	<path class="st0" d="M108,27.8h35v12h-21v12h17.4v12H122V85h-14V27.8z"/>
	<path class="st0" d="M168.6,59.4h0.6v-0.7c0-3.4-2.6-4.6-6.1-4.6c-5.2,0-11.1,3.9-11.1,3.9l-4.8-9.8c0,0,7.1-5.4,17.3-5.4
		c11.6,0,18.6,6.3,18.6,16.8V85h-12.6v-2.5c0-1.4,0.2-2.6,0.2-2.6h-0.2c0,0-3,6-11.7,6c-7.7,0-14-5.1-14-13.3
		C144.7,60.7,162.2,59.4,168.6,59.4z M162.5,75.4c3.6,0,6.8-3.9,6.8-7.3v-0.9H168c-4.4,0-9.4,1.3-9.4,4.7
		C158.6,73.9,159.8,75.4,162.5,75.4z"/>
	<path class="st0" d="M190.6,27.8h13.8v15.9c0,2.1-0.2,3.5-0.2,3.5h0.2c0,0,3.8-4.4,11.1-4.4c11.2,0,18.6,8.8,18.6,21.6
		c0,13-8.2,21.5-19.2,21.5c-7.6,0-11.3-4.6-11.3-4.6h-0.2c0,0,0.1,1,0.1,2.3V85h-13V27.8z M212.1,74.6c4.3,0,8.1-3.5,8.1-9.8
		c0-6.2-3.3-10.2-8.1-10.2c-4.2,0-8.1,3-8.1,10.2C204,69.7,206.7,74.6,212.1,74.6z"/>
	<path class="st0" d="M241.2,27.8h14V73h23.4v12h-37.4V27.8z"/>
	<path class="st0" d="M303.4,59.4h0.6v-0.7c0-3.4-2.6-4.6-6.1-4.6c-5.2,0-11.1,3.9-11.1,3.9l-4.8-9.8c0,0,7.1-5.4,17.3-5.4
		c11.6,0,18.6,6.3,18.6,16.8V85h-12.6v-2.5c0-1.4,0.2-2.6,0.2-2.6h-0.2c0,0-3,6-11.7,6c-7.7,0-14-5.1-14-13.3
		C279.5,60.7,297,59.4,303.4,59.4z M297.3,75.4c3.6,0,6.8-3.9,6.8-7.3v-0.9h-1.3c-4.4,0-9.4,1.3-9.4,4.7
		C293.4,73.9,294.6,75.4,297.3,75.4z"/>
	<path class="st0" d="M325.4,27.8h13.8v15.9c0,2.1-0.2,3.5-0.2,3.5h0.2c0,0,3.8-4.4,11.1-4.4c11.2,0,18.6,8.8,18.6,21.6
		c0,13-8.2,21.5-19.2,21.5c-7.6,0-11.3-4.6-11.3-4.6h-0.2c0,0,0.1,1,0.1,2.3V85h-13V27.8z M346.9,74.6c4.3,0,8.1-3.5,8.1-9.8
		c0-6.2-3.3-10.2-8.1-10.2c-4.2,0-8.1,3-8.1,10.2C338.8,69.7,341.5,74.6,346.9,74.6z"/>
</g>
<g>
	<path class="st1" d="M109.4,109.7c0,0,1.5,1.5,3.5,1.5c1.1,0,2.1-0.6,2.1-1.7c0-2.5-6.7-2.1-6.7-6.5c0-2.4,2-4.1,4.8-4.1
		c2.8,0,4.2,1.5,4.2,1.5l-1.1,2.1c0,0-1.4-1.2-3.1-1.2c-1.2,0-2.1,0.7-2.1,1.7c0,2.5,6.7,1.9,6.7,6.4c0,2.3-1.7,4.2-4.7,4.2
		c-3.2,0-4.9-1.9-4.9-1.9L109.4,109.7z"/>
	<path class="st1" d="M126.5,98.9c4.2,0,7.3,3.2,7.3,7.2c0,4.2-3.2,7.4-7.3,7.4c-4.2,0-7.3-3.3-7.3-7.4
		C119.1,102.1,122.3,98.9,126.5,98.9z M126.5,111.3c2.6,0,4.7-2.2,4.7-5.1c0-2.8-2.1-4.9-4.7-4.9s-4.7,2.1-4.7,4.9
		C121.8,109.1,123.9,111.3,126.5,111.3z"/>
	<path class="st1" d="M136.4,99.2h4.6c1.5,0,2.2,0.1,2.9,0.4c1.4,0.6,2.3,2,2.3,3.9c0,1.7-0.9,3.3-2.4,3.9v0c0,0,0.2,0.2,0.5,0.7
		l2.9,5.3h-2.9l-2.8-5.3H139v5.3h-2.6V99.2z M141.3,105.8c1.4,0,2.2-0.8,2.2-2.2c0-1.4-0.6-2.2-2.6-2.2h-2v4.4H141.3z"/>
	<path class="st1" d="M149.5,99.2h5.1c2.6,0,4.4,1.3,4.4,3.7c0,1.3-0.6,2.5-1.7,3v0c1.6,0.5,2.3,1.9,2.3,3.3c0,2.8-2.3,4.1-4.9,4.1
		h-5.1V99.2z M154.6,105c1.1,0,1.8-0.8,1.8-1.8c0-1-0.6-1.8-1.8-1.8h-2.5v3.6H154.6z M154.9,111.2c1.3,0,2.1-0.9,2.1-2.1
		c0-1.2-0.8-2-2.1-2h-2.8v4.1H154.9z"/>
	<path class="st1" d="M168.7,98.9c4.2,0,7.3,3.2,7.3,7.2c0,4.2-3.2,7.4-7.3,7.4c-4.2,0-7.3-3.3-7.3-7.4
		C161.4,102.1,164.5,98.9,168.7,98.9z M168.7,111.3c2.6,0,4.7-2.2,4.7-5.1c0-2.8-2.1-4.9-4.7-4.9s-4.7,2.1-4.7,4.9
		C164,109.1,166.1,111.3,168.7,111.3z"/>
	<path class="st1" d="M178.7,99.2h2.6l5.4,8.2c0.5,0.8,1.2,2.2,1.2,2.2h0c0,0-0.1-1.4-0.1-2.2v-8.2h2.6v14.2h-2.6l-5.4-8.2
		c-0.5-0.8-1.2-2.2-1.2-2.2h0c0,0,0.1,1.4,0.1,2.2v8.2h-2.6V99.2z"/>
	<path class="st1" d="M193.8,99.2h2.6l5.4,8.2c0.5,0.8,1.2,2.2,1.2,2.2h0c0,0-0.1-1.4-0.1-2.2v-8.2h2.6v14.2h-2.6l-5.4-8.2
		c-0.5-0.8-1.2-2.2-1.2-2.2h0c0,0,0.1,1.4,0.1,2.2v8.2h-2.6V99.2z"/>
	<path class="st1" d="M209,99.2h8.5v2.2h-5.9v3.7h4.8v2.2h-4.8v3.8h6.2v2.2H209V99.2z"/>
	<path class="st1" d="M225.1,99.2h2.6v9.1c0,1.9,1.2,3,3.1,3s3.2-1.1,3.2-3v-9.1h2.6v9.1c0,3.2-2.3,5.3-5.7,5.3
		c-3.4,0-5.7-2.2-5.7-5.3V99.2z"/>
	<path class="st1" d="M240,99.2h2.6l5.4,8.2c0.5,0.8,1.2,2.2,1.2,2.2h0c0,0-0.1-1.4-0.1-2.2v-8.2h2.6v14.2H249l-5.4-8.2
		c-0.5-0.8-1.2-2.2-1.2-2.2h0c0,0,0.1,1.4,0.1,2.2v8.2H240V99.2z"/>
	<path class="st1" d="M255.2,99.2h2.6v14.2h-2.6V99.2z"/>
	<path class="st1" d="M259.5,99.2h2.8l3.1,9.3c0.3,0.8,0.5,2.1,0.5,2.1h0c0,0,0.3-1.3,0.5-2.1l3.1-9.3h2.8l-5.2,14.2h-2.6
		L259.5,99.2z"/>
	<path class="st1" d="M274.2,99.2h8.5v2.2h-5.9v3.7h4.8v2.2h-4.8v3.8h6.2v2.2h-8.8V99.2z"/>
	<path class="st1" d="M285.7,99.2h4.6c1.5,0,2.2,0.1,2.9,0.4c1.4,0.6,2.3,2,2.3,3.9c0,1.7-0.9,3.3-2.4,3.9v0c0,0,0.2,0.2,0.5,0.7
		l2.9,5.3h-2.9l-2.8-5.3h-2.5v5.3h-2.6V99.2z M290.6,105.8c1.4,0,2.2-0.8,2.2-2.2c0-1.4-0.6-2.2-2.6-2.2h-2v4.4H290.6z"/>
	<path class="st1" d="M299.1,109.7c0,0,1.5,1.5,3.5,1.5c1.1,0,2.1-0.6,2.1-1.7c0-2.5-6.7-2.1-6.7-6.5c0-2.4,2-4.1,4.8-4.1
		c2.8,0,4.2,1.5,4.2,1.5l-1.1,2.1c0,0-1.4-1.2-3.1-1.2c-1.2,0-2.1,0.7-2.1,1.7c0,2.5,6.7,1.9,6.7,6.4c0,2.3-1.7,4.2-4.7,4.2
		c-3.2,0-4.9-1.9-4.9-1.9L299.1,109.7z"/>
	<path class="st1" d="M309.9,99.2h2.6v14.2h-2.6V99.2z"/>
	<path class="st1" d="M319,101.4h-4.7v-2.2h11.9v2.2h-4.7v12H319V101.4z"/>
	<path class="st1" d="M328.1,99.2h8.5v2.2h-5.9v3.7h4.8v2.2h-4.8v3.8h6.2v2.2h-8.8V99.2z M332.9,95.5h2.6l-2.1,2.7h-2L332.9,95.5z"
		/>
</g>
</svg>
