<?xml version="1.0" encoding="UTF-8" standalone="no"?>
<!-- Created with Inkscape (http://www.inkscape.org/) -->

<svg
   version="1.1"
   id="svg2"
   width="586.73053"
   height="746.6817"
   viewBox="0 0 586.73053 746.6817"
   sodipodi:docname="Logo_final_vect.svg"
   xml:space="preserve"
   inkscape:version="1.1.2 (0a00cf5339, 2022-02-04)"
   inkscape:export-filename="Logo_final_vect.png"
   inkscape:export-xdpi="96"
   inkscape:export-ydpi="96"
   xmlns:inkscape="http://www.inkscape.org/namespaces/inkscape"
   xmlns:sodipodi="http://sodipodi.sourceforge.net/DTD/sodipodi-0.dtd"
   xmlns="http://www.w3.org/2000/svg"
   xmlns:svg="http://www.w3.org/2000/svg"><defs
     id="defs6"><clipPath
       clipPathUnits="userSpaceOnUse"
       id="clipPath12542"><g
         inkscape:label="Clip"
         id="use12544" /></clipPath></defs><sodipodi:namedview
     id="namedview4"
     pagecolor="#ffffff"
     bordercolor="#000000"
     borderopacity="0.25"
     inkscape:showpageshadow="2"
     inkscape:pageopacity="0.0"
     inkscape:pagecheckerboard="0"
     inkscape:deskcolor="#d1d1d1"
     showgrid="false"
     inkscape:zoom="0.50075679"
     inkscape:cx="500.24284"
     inkscape:cy="252.61764"
     inkscape:window-width="1864"
     inkscape:window-height="1136"
     inkscape:window-x="0"
     inkscape:window-y="0"
     inkscape:window-maximized="1"
     inkscape:current-layer="layer2"
     showguides="false"
     inkscape:pageshadow="2"><inkscape:grid
       type="xygrid"
       id="grid128"
       originx="-595.6374"
       originy="-702.6553" /></sodipodi:namedview><g
     inkscape:groupmode="layer"
     id="layer4"
     inkscape:label="Echiquier"
     transform="translate(-203.76367,-241.35352)"><path
       id="path483"
       style="display:inline;fill:#ffffff;fill-opacity:1;stroke-width:0.706038"
       inkscape:label="blanc"
       d="m 424.88086,388.47461 c -0.54307,-0.0707 -1.07475,0.40724 -1.62305,0.55469 -21.54401,21.5477 -43.0888,43.09684 -64.63281,64.64453 -1.55375,4.08943 4.63646,6.22017 6.51953,9.29687 10.1792,9.83864 19.94115,20.3135 30.37695,29.76172 3.68021,0.73324 3.65072,-4.98571 5.24805,-7.30273 3.33979,-7.94906 7.39314,-16.58234 14.89063,-21.35352 4.71873,-2.25616 12.76447,-4.60357 15.92968,1.15039 1.99333,3.62263 6.01832,8.0602 10.53711,7.0918 3.40681,-3.14048 2.59331,-8.71271 4.17383,-12.8125 2.88332,-12.7424 7.20134,-25.15774 10.9082,-37.54883 -2.98895,-5.69615 -8.6803,-9.96962 -13.01171,-14.84765 -6.26343,-6.08607 -12.20696,-12.69646 -18.76954,-18.34766 -0.18468,-0.17795 -0.36585,-0.26354 -0.54687,-0.28711 z m 143.86523,0.0215 c -0.42693,-0.004 -0.85335,0.1633 -1.41406,0.50782 -10.97591,11.31738 -22.8505,21.86952 -32.93359,34 -4.49395,6.43367 0.56178,13.85116 1.64844,20.48632 3.03096,10.73224 4.7413,21.76565 7.79687,32.44922 2.5869,3.16293 6.1902,-1.35296 8.77344,-2.49218 3.27346,-1.91374 7.28444,-4.66552 5.89258,-9.10938 0.19593,-2.91038 4.78771,-2.95415 6.89453,-2.35937 5.73644,1.48107 11.40695,4.65493 15.00586,9.41015 3.35308,9.12933 4.91407,19.05254 8.8125,28.07031 3.36737,3.46243 6.09667,-3.23435 8.75781,-4.83593 12.51575,-12.73339 25.74074,-25.0142 37.24609,-38.58594 0.0939,-3.89755 -5.19405,-5.99569 -7.27148,-9.10547 l -57.79492,-57.92187 c -0.55985,-0.33465 -0.98713,-0.50971 -1.41407,-0.51368 z M 281.00195,532.19922 c -0.42663,-0.003 -0.85211,0.16399 -1.41211,0.50976 -21.65156,21.64798 -43.30351,43.29547 -64.95507,64.94336 -1.55728,4.0845 4.61644,6.23569 6.48828,9.32032 19.3625,19.36581 38.72538,38.73184 58.08789,58.09765 4.07509,1.5564 6.25538,-4.58166 9.35351,-6.43359 19.39117,-19.42824 39.44536,-38.24114 58.24805,-58.23242 1.29603,-3.80139 -3.96408,-5.8083 -5.63281,-8.62305 -19.3779,-19.89789 -39.15794,-39.40003 -58.76367,-59.07227 -0.5604,-0.33385 -0.98744,-0.50678 -1.41407,-0.50976 z m 432.19727,0.79883 c -0.42503,-0.007 -0.85184,0.15568 -1.41016,0.5 -21.52388,21.34503 -43.44617,42.3117 -64.59961,64.01757 -0.90185,3.92563 4.4291,5.79115 6.20313,8.74219 19.40282,19.57494 38.75551,39.22159 58.58008,58.36328 3.91816,0.91435 5.76742,-4.42319 8.70898,-6.19921 19.45854,-19.21353 38.73009,-38.62033 58.08203,-57.94141 1.55261,-4.08478 -4.61927,-6.23205 -6.49219,-9.31641 -19.22136,-19.21805 -38.44465,-38.4382 -57.66601,-57.65625 -0.55746,-0.32895 -0.98123,-0.50317 -1.40625,-0.50976 z M 584.86719,548.6875 c -0.5556,-0.0505 -1.08313,0.46686 -1.63672,0.63672 -3.99091,8.118 -8.58698,15.98318 -14.70899,22.6875 -3.8085,7.06478 -1.66636,15.79505 -5.55078,22.83984 -2.62771,7.35873 -10.05815,11.82486 -11.72656,19.66992 -1.13555,11.55658 -1.94966,23.55142 0.74609,34.91407 5.08109,5.38119 10.29628,11.00415 15.85547,15.83984 3.71788,0.36704 5.88087,-4.65396 8.89453,-6.49023 19.86988,-19.13729 39.05507,-38.97268 58.21485,-58.81641 1.47949,-4.08507 -4.63036,-6.21366 -6.50196,-9.30273 -14.16979,-14.04766 -28.09412,-28.57081 -43.01953,-41.70508 -0.19365,-0.17682 -0.3812,-0.25662 -0.5664,-0.27344 z m -181.53125,5.74609 c -0.20794,0.0171 -0.41883,0.051 -0.62891,0.0918 -15.34204,13.6234 -29.33593,28.79517 -44.04297,43.12695 -1.55728,4.0845 4.61656,6.23385 6.48828,9.31836 19.33302,19.33633 38.66698,38.67343 58,58.00977 4.04071,1.55308 6.33556,-4.44747 9.48243,-6.22461 3.44446,-3.7757 8.277,-6.58764 10.78711,-11.01367 -0.88267,-11.37706 0.91939,-23.30492 -2.82422,-34.28516 -3.82067,-8.17467 -11.47544,-13.98249 -14.46875,-22.66992 -3.33026,-6.61232 -3.89192,-14.71648 -8.6875,-20.48828 -5.42698,-3.97721 -8.51878,-10.07262 -12.39258,-15.33399 -0.48808,-0.48521 -1.08909,-0.5825 -1.71289,-0.53125 z m 165.86718,121.79102 c -0.42656,-0.006 -0.8558,0.15763 -1.41796,0.5 -4.29003,4.96388 -10.5532,8.84332 -13.1875,14.98242 0.95183,19.75526 6.53574,39.01508 12.50195,57.77735 4.98985,14.37094 10.25527,28.89689 18.2793,41.875 3.47151,2.10203 5.73606,-3.19794 8.28711,-4.78516 13.91012,-13.7622 28.07347,-27.48168 41.39453,-41.70117 0.13189,-4.08554 -4.78725,-6.66356 -7.08008,-9.80078 -18.97564,-19.5861 -38.23007,-38.90037 -57.36719,-58.32813 -0.55812,-0.33691 -0.9835,-0.51334 -1.41016,-0.51953 z m -144.55273,0.43945 c -0.43685,-0.01 -0.86911,0.13618 -1.35937,0.48438 -21.64486,21.43079 -42.79531,43.35761 -64.21094,65.01758 -1.52037,4.08793 4.63372,6.21788 6.51172,9.30078 14.0832,13.89699 27.85657,28.13501 42.25195,41.70117 3.8841,1.01019 4.27909,-4.58083 6.1543,-6.78711 7.59392,-13.83582 13.6397,-28.47378 17.47851,-43.80078 4.49184,-16.14624 7.3858,-32.75485 9.0918,-49.41797 -3.51246,-6.2109 -9.37108,-11.06909 -14.5293,-16.04492 -0.50928,-0.27669 -0.95182,-0.44317 -1.38867,-0.45313 z" /></g><g
     inkscape:groupmode="layer"
     id="layer3"
     inkscape:label="corps fou"
     style="fill:#e9d056;fill-opacity:1"
     transform="translate(-203.76367,-241.35352)"><path
       id="jaune_clair"
       style="fill:#bda947;fill-opacity:1;stroke-width:0.17651"
       d="m 494.43555,270.35547 c -0.10689,0.003 -0.2088,0.0248 -0.31446,0.0332 -0.10011,0.009 -0.19972,0.0177 -0.29882,0.0312 -0.2558,0.0328 -0.50681,0.0799 -0.75391,0.14258 -0.0432,0.0112 -0.0859,0.0231 -0.12891,0.0352 -0.29114,0.0802 -0.57485,0.17876 -0.85156,0.29687 -0.006,0.003 -0.0131,0.005 -0.0195,0.008 -0.2934,0.12629 -0.57686,0.27118 -0.85156,0.43555 -0.003,0.002 -0.006,0.004 -0.01,0.006 -0.54574,0.32767 -1.05254,0.72142 -1.50976,1.17187 -0.0167,0.0163 -0.0343,0.0305 -0.0508,0.0469 -0.45526,0.45576 -0.86104,0.96086 -1.20703,1.50195 -10e-4,0.002 -0.004,0.004 -0.006,0.006 -0.003,0.004 -0.005,0.008 -0.008,0.0117 -0.0165,0.026 -0.0365,0.05 -0.0527,0.0762 -2.38943,3.62705 -4.58942,7.42197 -6.23047,11.44922 -2.3e-4,5.5e-4 2.2e-4,10e-4 0,0.002 -0.0938,0.30073 -0.14765,0.59613 -0.16602,0.88867 -10e-4,0.0224 0.005,0.0441 0.004,0.0664 -0.0905,2.0148 1.43165,3.83692 2.45312,5.48243 0.70577,0.92682 1.38295,1.87259 2.03516,2.83398 0.003,0.005 0.007,0.009 0.01,0.0137 0.0731,0.1083 0.13848,0.22138 0.21093,0.33008 0.53833,0.80401 1.06198,1.61654 1.56641,2.44141 0.3861,0.63328 0.75317,1.27774 1.12109,1.92187 0.17328,0.30279 0.35408,0.60122 0.52344,0.90625 0.43099,0.77723 0.84429,1.56518 1.25195,2.35547 0.094,0.18223 0.19241,0.36206 0.28516,0.54492 0.90687,1.78644 1.74841,3.60658 2.55664,5.44141 0.14159,0.32326 0.28695,0.6444 0.42578,0.96875 0.60675,1.40807 1.17832,2.82902 1.74219,4.25195 0.36088,0.92119 0.71705,1.84387 1.0625,2.76758 0.29355,0.80247 0.58244,1.61444 0.87305,2.42383 1.11504,3.33344 1.96061,6.75482 2.00195,10.29297 0.2553,7.77156 0.11965,15.63509 -0.0586,23.44726 -0.0376,0.83572 -0.0937,1.6833 -0.2129,2.51758 -0.25227,0.85065 -0.53779,1.69103 -0.86523,2.51562 -1.64355,-3.30217 -3.25783,-6.62801 -4.88086,-9.95117 -1.40608,-2.88207 -2.82885,-5.75792 -4.29687,-8.60742 -1.43441,-2.78486 -2.92572,-5.53736 -4.48438,-8.25 -0.32231,-0.56193 -0.63178,-1.13155 -0.96094,-1.68945 -0.13229,-0.22367 -0.27471,-0.44111 -0.4082,-0.66406 -1.66632,-2.79103 -3.4146,-5.53351 -5.30078,-8.19336 -0.78377,-0.96572 -1.55218,-2.06025 -2.44922,-2.98633 -0.0271,-0.0289 -0.0566,-0.0535 -0.084,-0.082 -0.31456,-0.31811 -0.64861,-0.60723 -1.00196,-0.86914 -0.56623,-0.43113 -1.17515,-0.79764 -1.89453,-0.98047 -0.0572,-0.008 -0.10775,0.005 -0.16406,0 -0.22845,-0.0235 -0.44712,-0.0231 -0.66016,-0.004 -0.0498,0.005 -0.10143,0.004 -0.15039,0.0117 -0.26835,0.0365 -0.52005,0.11308 -0.76367,0.20898 -0.0118,0.005 -0.0254,0.005 -0.0371,0.01 -5.7e-4,2.3e-4 -10e-4,-2.4e-4 -0.002,0 -1.59782,0.65043 -2.66754,2.46874 -3.27735,4.04687 -2.0875,5.53856 -2.79868,11.47036 -3.68164,17.28907 -0.0189,0.17096 -0.0297,0.34253 -0.0469,0.51367 -9e-5,6.3e-4 9e-5,0.001 0,0.002 -4.7e-4,0.004 4.6e-4,0.008 0,0.0117 -0.062,0.61906 -0.11455,1.23862 -0.1543,1.85938 -0.11817,1.64463 -0.14142,3.2887 -0.0781,4.93164 0.0163,0.51549 0.0423,1.03016 0.0742,1.54492 0.0126,0.18485 0.0187,0.36993 0.0332,0.55469 0.1529,2.09466 0.43018,4.18105 0.8457,6.24218 0.0148,0.0839 0.0321,0.1699 0.0469,0.25391 0.18944,1.07442 0.37132,2.14602 0.5957,3.21289 0.29267,1.52503 0.61781,3.04383 1.01563,4.54688 0.34174,1.29119 0.7314,2.56605 1.20507,3.80468 0.5262,1.38752 1.15748,2.7361 1.91211,4.00196 0.25713,0.43076 0.5314,0.85297 0.82032,1.26757 0.0856,0.12144 0.17131,0.24216 0.25976,0.36133 0.0995,0.13647 0.19351,0.27568 0.29688,0.41016 0.65272,0.85578 1.39919,1.60715 2.20898,2.27539 0.0909,0.0765 0.18433,0.15019 0.27734,0.22461 0.24348,0.19125 0.50334,0.35913 0.75782,0.53515 0.25471,0.17751 0.49006,0.37539 0.75976,0.53711 0.075,0.0448 0.155,0.0756 0.23047,0.11914 0.58213,0.34264 1.18446,0.65349 1.80469,0.92969 0.0448,0.0197 0.0918,0.0333 0.13672,0.0527 0.63412,0.27664 1.28375,0.51577 1.94531,0.72851 0.0911,0.029 0.18392,0.0522 0.27539,0.0801 0.62469,0.19209 1.25477,0.35977 1.89258,0.5 0.10319,0.0228 0.20703,0.0429 0.31054,0.0645 0.55083,0.11396 1.10141,0.21045 1.6543,0.28907 0.23978,0.0363 0.47982,0.0663 0.7207,0.0976 0.13858,0.0161 0.27772,0.0426 0.41602,0.0566 1.28965,0.13967 2.58321,0.23101 3.87695,0.29883 3.49537,0.18324 7.00108,0.13638 10.5,-0.0352 1.49386,-0.0362 2.98292,-0.1104 4.46289,-0.27539 0.15214,-0.0108 0.30496,-0.0183 0.45704,-0.0293 0.86188,-0.0511 1.68866,-0.22199 2.49804,-0.44336 0.053,-0.0115 0.10719,-0.0136 0.16016,-0.0254 0.0805,-0.0233 0.15639,-0.0573 0.23633,-0.082 0.31822,-0.0978 0.63132,-0.20794 0.9414,-0.32813 0.1872,-0.0722 0.37279,-0.14726 0.55664,-0.22656 0.28525,-0.12403 0.56748,-0.25373 0.84571,-0.39453 0.15327,-0.0768 0.30217,-0.16081 0.45312,-0.24219 0.77468,-0.42149 1.52628,-0.88974 2.2461,-1.41211 0.16167,-0.11693 0.31566,-0.24223 0.4746,-0.36328 0.68217,-0.52032 1.3479,-1.06292 1.98047,-1.63477 0.005,-0.005 0.0105,-0.009 0.0156,-0.0137 0.0695,-0.0633 0.13412,-0.1296 0.20312,-0.19336 0.33939,-0.31174 0.67682,-0.62531 1.00196,-0.94336 0.13348,-0.13554 0.25678,-0.28248 0.38867,-0.41992 0.2107,-0.21273 0.43658,-0.41649 0.64258,-0.63086 0.14915,-0.16608 0.27658,-0.35497 0.42383,-0.52344 0.86494,-0.96909 1.68506,-1.97809 2.45703,-3.02734 0.18531,-0.25271 0.3614,-0.51063 0.54101,-0.76758 0.28827,-0.4121 0.57994,-0.82117 0.85156,-1.24414 0.23421,-0.36394 0.44678,-0.7397 0.66797,-1.11133 0.32294,-0.54409 0.63485,-1.09241 0.92774,-1.65234 0.27087,-0.51739 0.54125,-1.0359 0.7832,-1.56641 0.21563,-0.47032 0.39919,-0.95373 0.5918,-1.43359 0.10131,-0.25634 0.21275,-0.50848 0.30664,-0.76758 0.69942,-1.88536 1.23322,-3.83226 1.52734,-5.83984 1.12022,-6.23427 1.00875,-12.61673 0.72071,-18.91992 -0.81869,-9.67611 -3.42005,-19.20795 -7.85157,-27.86133 -4.27064,-8.36976 -8.70865,-16.66759 -13.59961,-24.69336 -1.2384,-1.86028 -2.45698,-3.80877 -3.86914,-5.57617 -0.81831,-1.46036 -1.73183,-2.84969 -3.06836,-3.875 -0.9045,-0.62312 -2.01781,-0.74728 -3.08789,-0.70899 -0.099,-0.004 -0.19468,0.0113 -0.29297,0.0117 -0.0726,-0.002 -0.14387,-0.016 -0.21679,-0.0137 z m -22.63086,132.91992 -0.34961,0.0586 -0.23047,0.0391 c -3.35126,2.55933 -4.14676,7.05744 -5.91406,10.67187 -5.51149,14.33432 -10.81159,28.80975 -14.63477,43.69727 -1.68819,7.44634 -2.87393,15.03077 -2.7832,22.68164 -0.59539,6.67067 -3.81635,13.59481 -1.3125,20.21875 2.14535,4.65656 7.67956,6.39876 12.38476,7.02734 2.99653,0.44684 5.00263,-2.38533 5.21289,-5.07031 0.95315,-5.92734 1.05909,-11.95171 1.56446,-17.92578 2.64309,-3.05221 6.40767,-5.6207 10.60937,-5.09961 11.5587,-0.40453 23.08901,-0.10844 34.67578,0.1289 2.01025,2.20816 5.10057,4.14468 4.8086,7.55665 0.4826,6.21096 -0.19504,12.53806 0.84961,18.68554 1.24476,3.28821 5.34208,3.14592 8.13281,2.26758 8.56569,-1.68161 14.43983,-9.82384 15.54492,-18.14844 1.45811,-8.45151 -1.95829,-16.62307 -3.41992,-24.8125 -3.01309,-14.91111 -7.20405,-29.54626 -12.02344,-43.96679 -1.90757,-5.14457 -2.77309,-10.87458 -6.00781,-15.41407 -1.97647,-2.46518 -5.34174,-2.47522 -8.14063,-1.70703 -8.08035,1.18444 -16.27209,0.53031 -24.39062,0.64453 -4.91899,0.1778 -9.74405,-1.27263 -14.57617,-1.5332 z" /><path
       id="jaune_fonce"
       style="fill:#8e7d43;fill-opacity:1;stroke-width:0.353019"
       d="m 495.5918,243.48242 c -0.26995,0.005 -0.54034,0.0219 -0.81055,0.0508 -0.6994,-0.002 -1.39829,-0.007 -2.09766,0.002 -5.2408,-0.3463 -11.01154,2.49804 -12.44921,7.84765 -1.72214,4.8114 -1.04956,11.06853 3.59179,14.02149 4.70366,3.25642 11.23518,3.45594 16.33789,1.07226 5.63112,-3.24571 6.3416,-10.82705 4.61133,-16.49804 -1.20061,-3.9391 -5.13437,-6.56465 -9.18359,-6.4961 z m -13.9043,52.40039 c -3.83212,0.36478 -5.93926,4.29208 -7.50195,7.38281 -1.49877,2.87404 -1.4662,6.37716 0.38086,9.0918 5.5313,10.07582 12.28268,19.45518 17.16406,29.89453 1.70218,3.24711 3.23728,6.60208 4.87109,9.86719 1.63387,1.51934 3.92048,-0.23119 3.54102,-2.20898 0.11449,-10.08696 0.47669,-20.39273 -2.53516,-30.15235 -2.3354,-7.70044 -5.42258,-15.53225 -10.98633,-21.49414 -1.33089,-1.26997 -3.02162,-2.40504 -4.93359,-2.38086 z m -13.48633,83.93555 c -4.31762,0.0963 -6.13901,5.78144 -4.125,9.15234 1.5923,3.92709 5.77732,5.73878 9.73047,6.24024 13.20041,2.4103 26.73455,2.47143 40.07031,1.36523 4.63768,-0.63106 10.07629,-3.05836 10.76367,-8.26953 0.83994,-3.56571 -1.99341,-8.47576 -6.09374,-7.48047 -11.56361,2.7574 -23.71083,3.96888 -35.47071,2.41016 -5.08311,-0.58837 -9.78001,-3.01939 -14.875,-3.41797 z" /><path
       style="fill:#e9d056;fill-opacity:1"
       d="m 442.40361,481.08984 c -0.87684,2.61543 10.08051,13.10617 14.75604,14.27056 16.99891,4.23338 53.31806,4.28094 67.87362,0.29932 12.60832,-2.91804 10.81466,-23.90015 9.70772,-30.74602 -4.44642,-25.14802 -15.78158,-63.8613 -14.02913,-65.51822 l -50.42368,0.49925 c -13.28926,30.7168 -18.30767,52.62931 -27.88457,81.19511 z m 30.88004,-166.81552 25.71108,44.18313 3.74434,-18.72167 -2.49623,-20.46902 -10.48413,-20.96826 -9.23602,-7.23904 8.73678,-19.96978 9.98488,0.74887 c 0,0 14.80215,21.52274 18.21723,33.88285 3.52738,12.76656 3.22146,29.3132 1.82047,39.69297 -1.94723,14.42681 -7.1481,24.22615 -23.90102,26.59578 -15.18095,2.14728 -27.80106,-5.0634 -27.80106,-5.0634 l -4.28121,-22.71777 5.74131,-27.45844 z"
       id="path10480"
       sodipodi:nodetypes="ssccccsccccccccssscccc"
       inkscape:label="ombre claire" /><path
       style="fill:#b7a050;fill-opacity:1"
       d="m 466.16168,379.67201 -0.57755,3.82416 c -1.79929,11.91371 58.41292,11.04388 56.37231,1.83301 l -1.25331,-5.65717 z m 14.29727,-85.96014 -8.47246,15.88585 22.76973,37.06701 c 4.49831,-3.59767 3.80798,-14.98474 3.88321,-24.71134 l -12.35566,-27.18247 z m -0.61778,-42.27404 c 0,0 -0.67024,8.42034 1.71599,11.27521 16.31691,7.80299 23.99235,-9.01816 18.44526,-17.20969 -0.19753,-5.27283 0.45502,0.58218 -7.45256,-2.97925 l -9.70803,3.53019 z"
       id="path10674"
       sodipodi:nodetypes="csscccccccccccccc"
       inkscape:label="ombre foncee" /><path
       id="path11844"
       style="fill:#e6e6e6;fill-opacity:1"
       inkscape:label="reflets"
       d="m 490.17773,246.1582 c -0.85457,-0.0603 -5.64515,0.69175 -7.17382,6.19922 -0.48119,1.73365 1.82846,4.07178 2.27343,0.79492 0.41022,-3.0209 3.17453,-5.11055 5.90625,-4.92773 0.59412,0.0398 3.4369,-1.753 -1.00586,-2.06641 z m 2.86915,26.84961 c -1.22274,0.12513 -4.54112,5.40988 -4.69141,5.65821 -0.4204,0.70968 -4.44072,7.65725 -3.99805,7.89453 0.40088,0.21487 -0.1093,0.42551 1.44141,-1.47461 2.07323,-2.54038 5.94603,-9.77973 7.6289,-11.78711 -0.0738,-0.22242 -0.20618,-0.30889 -0.38085,-0.29102 z m -10.05469,25.91992 c -0.3123,-0.0529 -1.56276,0.20015 -2.0918,0.43165 -6.61327,3.49331 -4.48741,10.82424 -4.41211,9.79687 1.88388,-6.10715 4.73832,-9.0564 6.44141,-10.06055 0.16581,-0.0978 0.1666,-0.15034 0.0625,-0.16797 z m -10.77344,20.10743 c -0.46868,0.0119 -5.32852,13.51972 -5.24805,23.39257 0.0923,11.32521 3.25811,23.26515 4.83985,23.21094 -4.83827,-32.34417 -0.72932,-31.42961 0.4414,-46.42187 0.0105,-0.12425 -0.002,-0.18243 -0.0332,-0.18164 z m 0.93164,89.35742 c -4.58175,-1.0909 -27.9314,69.90633 -21.86328,72.8789 0.56363,0.27611 1.82946,1.82224 2.57422,1.82813 0.33287,0.003 0.57215,-0.27226 0.58008,-1.1582 0.19279,-21.5574 17.93886,-64.85837 18.92187,-72.32227 5.2e-4,-0.004 0.001,-0.008 0.002,-0.0117 6.7e-4,-0.005 0.001,-0.009 0.002,-0.0137 0.0965,-0.75381 0.0751,-1.26038 -0.2168,-1.20117 z" /></g><g
     inkscape:groupmode="layer"
     id="layer1"
     inkscape:label="corps tour"
     style="display:inline"
     transform="translate(-203.76367,-241.35352)"><path
       id="bleu_fonce"
       style="display:inline;fill:#1e223a;fill-opacity:1;stroke-width:0.17651"
       d="m 576.66602,477.02539 c -3.13219,0.46155 -5.65522,2.62903 -8.47071,3.91602 -4.18084,2.17374 -8.76812,3.48018 -12.96484,5.57617 -0.87152,0.87752 -0.43491,2.35014 -0.66211,3.48828 -0.51821,9.7781 -0.82092,19.62883 -3.69336,29.05859 -1.68989,5.11068 -6.08858,9.00275 -11.07422,10.8086 -4.77891,1.90855 -10.1403,3.58598 -15.34961,2.34179 -2.99432,-1.62637 -5.2446,-4.39225 -6.96679,-7.2832 -3.74536,-6.60386 -4.74043,-14.3316 -5.91602,-21.78711 -0.44142,-2.57209 -0.71321,-5.18648 -1.30664,-7.72461 -0.83303,-1.30208 -2.61634,-0.5635 -3.88086,-0.67187 -12.08256,0.33327 -24.20255,0.46674 -36.30078,0.64062 -1.38218,0.40132 -1.44274,2.19625 -1.74219,3.38672 -0.96328,5.95888 -2.04136,11.90468 -3.00781,17.86523 -0.96699,5.15321 -1.64016,10.40018 -3.25781,15.40235 -0.42389,0.91836 -0.97304,2.15377 -2.0293,2.43164 -8.13895,-0.36044 -16.13655,-2.79973 -23.46485,-6.35742 -1.44631,-0.59933 -2.34608,-2.01477 -2.4082,-3.56446 -0.70898,-5.97907 -0.62146,-12.01362 -0.55469,-18.01562 0.15512,-4.64478 0.75899,-9.20214 1.22852,-13.77539 -0.31247,-1.17627 -1.69269,-1.68791 -2.58008,-2.43164 -3.17063,-1.99952 -6.561,-3.62262 -9.78906,-5.5293 -4.36255,-2.3118 -8.68689,-4.88375 -13.41992,-6.33398 -1.19441,-0.004 -1.67504,1.42699 -2.25196,2.30078 -1.71778,3.75847 -2.22515,7.93005 -3.01171,11.95117 -1.98109,12.17793 -2.30784,24.61811 -1.1875,36.89844 1.06879,9.02134 4.74298,17.46334 8.57226,25.61133 1.09995,2.34302 2.40179,4.74091 4.69336,6.11914 4.13019,2.58674 8.63803,4.51115 13.0918,6.46484 10.89446,4.47366 22.52412,7.26076 34.29101,7.92773 13.65945,0.13092 27.32491,0.0983 40.98243,-0.17187 14.51472,-0.70475 29.05884,-1.88598 43.33203,-4.70898 6.18567,-1.32792 12.36421,-2.97891 18.11328,-5.66016 4.24164,-2.229 7.17351,-6.26284 9.59961,-10.27539 3.2124,-5.71692 5.92851,-11.70933 8.36718,-17.79297 2.32028,-5.74233 3.29586,-11.95844 3.11329,-18.13672 -0.10535,-11.23156 -1.67469,-22.4743 -5.08008,-33.19336 -0.90606,-2.66445 -1.39885,-5.59199 -3.07031,-7.91406 -0.47389,-0.56625 -1.2017,-0.9069 -1.94336,-0.86133 z m -129.2168,135.78906 c -2.77094,0.70348 -0.77727,4.34722 -0.90039,6.30078 1.68862,10.4164 3.49175,20.78037 2.69336,31.33789 -1.03712,25.21145 -3.00335,50.47126 -6.64258,75.48633 -2.6029,12.77028 -7.53352,25.20886 -10.88086,37.95899 -2.65353,9.78061 -6.95545,19.27945 -7.80469,29.46679 0.82927,5.49719 6.87114,8.03211 11.60156,9.43946 11.56631,3.57122 23.24111,7.45908 35.46094,7.7539 17.16439,1.36651 34.42795,0.84526 51.59961,-0.0703 12.42611,-1.44668 25.23381,-2.36864 36.94336,-7.09375 5.11528,-2.51528 11.17792,-5.32429 13.34961,-10.98633 1.25169,-7.34868 -2.22754,-14.47273 -4.40234,-21.32422 -7.53998,-18.99911 -13.45817,-38.63702 -17.51953,-58.6621 -2.45743,-16.24547 -4.88776,-32.24718 -5.44532,-48.6504 -0.50202,-15.2053 -1.40154,-30.68407 0.47071,-45.74023 0.31519,-1.7107 1.4538,-5.52734 -1.54883,-5.14648 -18.05422,2.61014 -36.33946,1.922 -54.53516,2.29882 -13.90541,0.0929 -27.71405,-0.10195 -41.41406,-2.33398 -0.34112,-0.0215 -0.68322,-0.0523 -1.02539,-0.0352 z m 147.83789,226.6836 c -4.3886,0.82261 -8.16492,3.66026 -12.50391,4.81054 -13.19237,4.74364 -26.86225,7.9874 -40.78906,7.84766 -6.07788,0.066 -12.15839,0.12956 -18.24023,0.17969 -1.03135,0.0115 -2.06225,0.0131 -3.09375,0.0254 -20.45578,0.1482 -40.92281,0.0806 -61.33204,-0.85352 -17.80197,-0.6962 -35.1163,-4.60614 -52.59765,-7.76562 -6.88047,-1.73959 -13.00571,4.36808 -14.29688,10.72265 -1.66973,7.79158 0.44928,16.51067 5.63672,22.57422 6.968,6.46871 16.64214,8.81543 25.61133,11.11719 26.13323,5.67884 53.06964,4.61375 79.63867,4.63867 20.1976,-0.45896 40.49135,-0.43795 60.56446,-2.94531 10.64092,-1.92455 21.50548,-4.46659 30.88671,-10.0293 7.29448,-5.14656 13.52518,-13.38923 12.83204,-22.74804 0.0252,-6.74979 -3.5503,-14.10063 -9.83399,-17.06055 -0.78427,-0.32705 -1.62835,-0.53822 -2.48242,-0.51367 z" /><path
       id="bleu_clair"
       style="display:inline;fill:#343d76;fill-opacity:1;stroke-width:0.706038"
       d="m 562.55859,463.54883 c -1.79435,0.004 -1.56,2.26179 -0.32812,2.98437 0.47808,0.6874 2.27131,1.68552 0.79492,2.43946 -3.92592,3.2128 -9.29429,4.79912 -12.31641,9.03125 -0.44571,1.67495 1.36304,3.17808 2.6504,3.82812 6.20677,-2.89421 11.96387,-6.7997 17.52343,-10.80078 1.83727,-0.82585 2.04968,-2.85229 0.0879,-3.6875 -2.42221,-1.82433 -5.36303,-3.45885 -8.41211,-3.79492 z m -139.48242,0.73242 c -3.00318,0.67718 -5.71075,2.81073 -7.47461,5.29492 -0.88987,2.19853 2.13061,3.33054 3.50391,4.36524 5.67796,3.3682 11.13342,7.21097 17.13476,9.98047 1.6791,1.03228 4.45647,-0.34364 3.49219,-2.46485 -2.42967,-3.27894 -6.51687,-4.81363 -9.84765,-7.00586 -2.07081,-1.42371 -4.81993,-2.42543 -6.13672,-4.63672 0.31303,-1.60244 2.889,-4.10307 0.60351,-5.34765 -0.40193,-0.16491 -0.84598,-0.19024 -1.27539,-0.18555 z m 82.44727,18.78516 c -0.9166,-0.007 -1.8341,0.004 -2.75,0.002 -9.88668,0.17401 -19.84385,0.0889 -29.6836,0.52539 -1.90141,0.74813 -3.3822,4.18347 -0.77929,5.07617 7.23824,1.6129 14.76763,0.96274 22.13281,1.01172 5.19656,-0.26818 10.64393,0.11949 15.60547,-1.67578 1.85701,-1.3452 0.69926,-5.14434 -1.77735,-4.8457 -0.91426,-0.0642 -1.83145,-0.0874 -2.74804,-0.0937 z m 35.02929,34.17578 c -5.16395,0.51246 -10.31918,1.5658 -15.23046,3.25 -1.90828,0.59155 -1.03304,2.89796 -0.29493,4.0957 1.25906,1.89968 3.9131,0.90033 5.69532,0.48828 4.04996,-1.3191 8.21249,-2.57223 11.90429,-4.72656 1.11784,-0.59933 1.16544,-2.23663 -0.0781,-2.72461 -0.60064,-0.34732 -1.31765,-0.39707 -1.9961,-0.38281 z m -93.125,3.28906 c -1.46535,-0.0147 -3.43935,1.28421 -2.32226,2.81836 1.91883,2.14698 5.05074,2.51999 7.71875,3.10547 1.92034,0.21808 4.88765,0.87749 5.78125,-1.45703 0.27105,-2.20542 -2.31029,-3.17074 -4.06445,-3.47852 -2.24621,-0.46624 -4.52641,-0.93892 -6.82813,-0.9668 -0.0921,-0.013 -0.18746,-0.0205 -0.28516,-0.0215 z m 109.70313,58.83789 c -8.44186,2.8721 -17.17656,4.70227 -26.06836,5.26563 -26.01586,1.72776 -52.39125,2.8511 -78.4082,-0.0352 -6.85975,-0.53117 -13.28159,-3.10671 -20.03321,-4.26172 -3.72419,-0.0638 -2.41002,4.61001 -0.88086,6.41211 3.70398,7.64495 11.02879,13.03991 19.42969,14.29492 16.97357,3.01986 34.33058,2.94145 51.50977,3.48438 15.96509,-1.04948 32.75609,-0.32 47.67383,-6.97461 5.40901,-3.28679 8.27423,-10.06295 8.79101,-16.16211 -0.0454,-1.06198 -0.85988,-2.14013 -2.01367,-2.02344 z m 26.97461,223.91602 c -4.83312,0.28589 -8.98363,3.24574 -13.63477,4.35351 -18.02123,5.46129 -36.6768,8.0578 -55.45508,8.55078 -18.11296,0.36849 -36.30072,0.52325 -54.37695,-0.18164 -8.76247,-0.25265 -17.4971,-2.19023 -25.91406,-5.05859 -7.44775,-2.15313 -14.64986,-5.15292 -22.16992,-7.14649 -3.90173,-1.13399 -7.98064,0.56229 -10.5918,3.51954 -3.89877,3.40318 -6.98511,8.893 -4.95312,14.11132 2.18221,5.72434 6.9181,10.53669 12.95507,12.04883 6.9566,1.88884 13.70575,4.6016 20.90235,5.50586 23.84316,3.56731 48.0081,4.33985 72.08593,4.18945 22.38564,0.088 44.92688,-0.6604 66.95508,-4.94726 8.71954,-1.72597 17.61787,-4.36908 24.39453,-10.40625 3.9469,-3.17283 7.56631,-8.33003 5.69532,-13.60547 -1.78345,-5.48487 -6.4757,-10.58614 -12.5625,-10.78711 -1.10513,-0.12293 -2.21827,-0.17999 -3.33008,-0.14648 z" /><path
       style="fill:#353a58;fill-opacity:1"
       d="m 405.88566,848.96503 c 140.4277,25.25145 183.64884,-6.22567 189.71285,-0.49925 5.53739,5.22912 5.49681,18.63441 -0.45641,22.72816 -30.0084,20.63538 -185.63385,15.76145 -193.69428,0.71858 -4.50743,-8.41205 -2.67451,-24.22642 4.43784,-22.94749 z M 446.6046,621.66658 c 34.40594,7.86508 63.39775,3.00239 82.40164,3.16026 11.81609,0.0982 9.61661,20.32758 9.64762,22.50064 5.51202,85.80525 15.65859,101.12969 20.74957,118.74096 3.20451,11.08537 2.16287,21.29203 -5.9301,24.03842 -33.16704,11.25537 -129.26993,6.62145 -124.16666,-16.28906 22.4989,-101.00605 14.60205,-152.76749 17.29793,-152.15122 z M 408.09004,476.57574 c -22.6441,15.75316 -16.40365,59.45465 6.00133,75.54608 38.99671,28.00774 109.68061,14.57169 142.97272,7.76643 6.02121,-1.2308 19.70403,-12.1129 26.12341,-45.53947 2.80057,-14.58293 -0.30751,-37.78319 -5.69069,-39.70308 -8.69342,-3.10047 -23.18704,8.16405 -23.25687,10.04948 l -6.35435,39.53814 -22.2402,6.35434 -6.70736,-5.64831 -4.94227,-32.47775 -45.53946,-0.35302 -8.47245,40.24418 -24.35832,-5.64831 2.11811,-37.067 c 0,0 -20.78718,-19.22994 -29.6536,-13.06171 z"
       id="path7195"
       sodipodi:nodetypes="ssssssscssssssssscccccccccs"
       inkscape:label="ombre foncee" /><path
       style="fill:#3e4a90;fill-opacity:1"
       d="m 408.44306,800.29423 -11.2966,10.23755 c -26.45622,23.97595 200.01355,40.91181 201.22086,-0.70604 -1.32472,-8.33028 -3.22138,-3.09559 -7.4134,-10.23755 -84.69136,25.25338 -135.88273,15.37263 -182.51086,0.70604 z m 18.21077,-217.07429 c -4.53856,-1.46225 0.48804,2.53367 4.38245,7.02795 34.62513,39.95843 108.76188,27.56156 129.20498,0.35301 4.69936,-6.25456 5.68414,-9.10725 1.26586,-7.38096 -5.57599,2.17862 -69.35778,21.10158 -134.85329,0 z m -1.04802,-120.1708 -11.73224,4.99244 0.99849,7.23905 20.71864,11.48262 8.23753,-4.74283 -16.47506,-12.4811 z m 45.18162,18.97128 -0.99849,7.73829 43.18463,1.24811 -1.74735,-9.48564 z m 83.87305,1.99698 22.21637,-14.22846 -11.98186,-8.48716 -5.24207,1.49774 0.74887,4.24357 -12.73073,10.23451 z"
       id="path7229"
       sodipodi:nodetypes="cscccsssss"
       inkscape:label="ombre claire" /></g><g
     inkscape:groupmode="layer"
     id="layer2"
     inkscape:label="Contours vectoriels"
     style="display:inline"
     transform="translate(-203.76367,-241.35352)"><path
       id="contours"
       style="display:inline;fill:#000000"
       d="m 492.91406,241.35352 c -5.86261,0 -8.47297,1.12182 -11.32422,3.91992 -2.67518,2.6253 -3.67532,3.88967 -3.8789,10.55468 -0.092,3.01205 0.76567,5.26518 1.38672,6.70508 0.62105,1.4399 1.63039,2.50402 3.08984,4.00977 2.0832,2.14929 2.92146,1.86328 2.80078,3.30078 -0.29446,3.50758 -4.33876,11.70771 -6.58789,17.05664 -4.80422,11.4258 -16.07705,32.45322 -17.85547,45.54883 l -1.09961,8.10937 -127.84179,128.00196 c -102.2473,102.37591 -124.22033,127.25943 -127.83985,130.52734 1.67106,1.62266 75.84267,78.6388 105.24024,108.26172 l 91.08593,91.79101 -3.55273,3.70899 c -1.9543,2.0402 -4.27846,5.14996 -5.16406,6.91016 -2.1491,4.27141 -2.01246,12.816 0.28515,17.875 l 1.85157,4.07421 -2.95704,3.92579 c -6.63491,8.80941 -9.50965,16.9348 -10.41015,29.42382 -0.11576,18.84291 7.21335,28.33442 22.125,33.30469 16.41482,5.4049 46.17257,7.86718 100.26853,8.43698 31.34536,-0.12707 65.94949,-0.3925 94.51662,-10.74753 10.33331,-3.86611 18.64359,-13.34462 21.36329,-24.36523 1.43271,-5.80421 1.43534,-7.12054 0.0391,-13.96875 -1.8563,-9.10261 -6.23224,-18.60862 -11.27344,-24.49023 l -3.71094,-4.33008 1.64649,-3.45313 c 2.81581,-5.90501 1.62685,-12.36059 -2.54906,-20.3075 -1.71456,-3.26313 -5.94037,-6.71083 -4.81815,-7.86462 0,0 184.56174,-190.456 192.74419,-198.41003 l -129.4551,-131.80457 -129.79101,-129.5 -2.32813,-10 c -2.4342,-10.45731 -9.02652,-25.24129 -17.61523,-39.5 -2.4847,-4.12491 -5.67083,-9.92286 -7.07813,-12.88476 l -2.55859,-5.38477 2,-2.1289 c 5.23491,-5.5725 5.90933,-12.03239 2.05273,-19.6543 -2.27681,-4.4999 -5.12593,-6.65234 -12.80664,-6.65234 z m -0.11914,3.7207 c 1.19565,-0.044 2.3782,0.0179 3.48047,0.16211 2.39156,0.31281 5.16078,1.54657 6.20508,3.7207 2.23285,4.64856 2.0303,12.22084 -2.08399,15.33008 -4.68059,3.53728 -14.64403,2.22746 -17.75195,-2.26172 -2.43165,-3.51236 -1.82999,-9.70052 0.81055,-13.10351 2.04443,-2.63483 5.75299,-3.71554 9.33984,-3.84766 z m 1.64649,27.17773 c 3.06591,-0.2994 7.96191,6.9859 13.93945,17.86524 10.89277,19.82506 9.98529,18.27977 12.01758,23.93945 6.34954,17.68308 4.51207,34.89936 2.54687,41.66016 -1.7273,5.94241 -6.97828,13.28713 -12.01758,16.81054 h -0.002 c -4.16221,2.9103 -4.80299,3.03946 -16,3.25586 -19.94652,0.3856 -24.73295,-3.58522 -27.93555,-23.18164 -1.37701,-8.43901 -1.37721,-10.39908 0,-19.33008 1.6653,-10.79782 3.47124,-15.71289 5.77344,-15.71289 2.4752,0 10.85348,13.17858 18.73438,29.4668 l 7.48242,15.46484 c 3.66029,-6.65421 4.5458,-13.81075 4.33203,-21.60742 0.009,-13.72952 -1.67526,-22.83075 -3.78906,-29.03125 -2.76747,-9.48298 -10.81547,-19.24255 -15.75977,-24.98828 0,-0.7229 1.69642,-4.23608 3.76953,-7.80859 3.2348,-5.5743 4.21391,-6.53964 6.90821,-6.80274 z m -12.69727,25.30664 c 5.5167,0 14.35198,17.4496 16.10938,31.81641 0.5561,4.5465 0.87613,11.39731 0.71093,15.22461 l -0.30078,6.95898 -4.79297,-10 c -2.63601,-5.49991 -7.9236,-14.74407 -11.75,-20.54297 -3.91901,-5.93921 -6.9514,-11.6161 -6.9414,-13 0.028,-4.19051 4.20184,-10.45703 6.96484,-10.45703 z m -14.3457,84.08594 c 0.8146,-0.3126 4.26843,0.39015 7.67383,1.56055 11.02062,3.78791 27.0021,3.53624 43.91211,-0.68946 4.61474,-0.9781 6.62568,8.81442 -1.38868,11.26368 -6.58911,3.23661 -43.42191,1.70208 -48.98632,-2.04102 -4.1151,-2.7681 -4.82804,-8.70575 -1.21094,-10.09375 z m -42.64453,7.92774 15.96289,15.9414 c 9.49611,9.48211 15.65251,16.36589 15.19531,16.99219 -1.7804,2.439 -10.74965,32.10442 -11.65625,38.55273 -0.348,2.475 -1.06505,5.89938 -1.59375,7.60938 l -0.96094,3.10937 -3.90625,-1.93164 c -2.7144,-1.343 -4.09002,-2.77541 -4.51172,-4.69531 -0.8857,-4.0323 -5.95438,-6.23143 -11.49609,-4.98633 -2.3284,0.5232 -5.48773,1.60048 -7.01953,2.39258 -5.7754,2.9866 -14.52696,16.41424 -16.45117,25.24024 -0.3883,1.78111 -1.03922,3.44441 -1.44532,3.69531 -0.406,0.251 -9.0303,-7.84538 -19.16601,-17.99219 l -18.42969,-18.44922 32.73828,-32.73828 z m 144.01367,0.004 32.49804,32.48438 c 17.87351,17.86712 32.49805,32.94405 32.49805,33.50195 0,0.558 -9.63931,10.64491 -21.41992,22.41602 l -21.41992,21.40234 -1.58008,-3.7832 c -0.8693,-2.0806 -1.58008,-4.32483 -1.58008,-4.98633 0,-0.6615 -1.125,-4.51014 -2.5,-8.55274 -1.375,-4.04261 -2.5,-8.24136 -2.5,-9.33007 0,-3.203 -7.00168,-8.96004 -13.87109,-11.40625 -5.8675,-2.0895 -6.48097,-2.13337 -9.32227,-0.66407 -2.64441,1.3675 -2.97454,1.98599 -2.52734,4.74219 0.4788,2.9503 0.13095,3.41175 -5.02735,6.66406 -7.23521,4.5621 -6.93745,4.51041 -7.50585,1.28711 -1.8551,-10.52031 -7.05387,-32.71898 -8.73047,-37.27929 -3.7195,-10.11721 -4.0413,-9.51191 15.48632,-29.01563 z m -96.46875,15.52344 c 0.93977,-0.1 2.43385,0.17148 5.1875,0.74023 7.05781,1.4578 27.05489,1.56834 33.0664,0.18164 6.2464,-1.44081 7.75705,-0.21807 10.25586,8.30274 1.167,3.97921 3.94734,12.63446 6.17774,19.23437 2.2303,6.6 5.53398,19.20009 7.34179,28 1.8079,8.79991 3.70881,17.35922 4.22461,19.01953 0.5339,1.7189 0.59814,5.52615 0.14844,8.83985 -0.9923,7.31191 -4.94018,13.28164 -10.43359,15.77734 v 0.002 c -4.9756,2.26031 -9.09209,2.37559 -9.89649,0.27929 -0.3339,-0.87 -0.60742,-5.31882 -0.60742,-9.88672 0,-7.70571 0.60096,-8.85599 -0.7539,-11.91992 -1.92965,-2.68079 -3.08194,-4.08691 -5.7461,-5.98633 l -19.01758,-0.084 -19.01562,0.041 c -3.695,1.02958 -6.85777,2.98845 -9.22266,6.34571 l -0.71679,10.5 c -0.8092,11.87211 -1.46896,12.70819 -8.29297,10.51758 -7.7839,-2.4988 -9.13677,-6.52821 -6.25196,-18.63672 1.1331,-4.7559 1.51814,-8.37237 0.99414,-9.35157 -0.82851,-1.54811 2.59315,-20.82683 4.87305,-27.45703 0.5674,-1.64991 2.12986,-6.375 3.47266,-10.5 3.12381,-9.59651 10.84841,-29.90485 12.34961,-32.46875 0.53805,-0.9189 0.9235,-1.39027 1.86328,-1.49023 z m 89.80859,59.28125 c 1.0697,-1.0697 9.86071,3.55477 9.41211,4.95117 -0.2167,0.6745 -4.18692,3.55354 -8.82422,6.39844 -4.63721,2.845 -8.71534,5.207 -9.06054,5.25 -0.3451,0.0426 -1.15443,-0.55759 -1.79883,-1.33399 -0.9405,-1.13311 -0.51951,-1.89776 2.1289,-3.88086 1.8145,-1.35861 4.73178,-3.19593 6.48438,-4.08203 4.21621,-2.13141 5.01466,-3.63822 2.78906,-5.26562 -1.0064,-0.7359 -1.51526,-1.65271 -1.13086,-2.03711 z m -139.19726,0.67773 c 2.18351,0 2.2621,0.37319 0.6289,2.98829 -1.5791,2.52861 -0.81149,3.30015 8.51172,8.54296 3.9665,2.2305 7.21289,4.67459 7.21289,5.42969 0,2.1169 -1.7085,2.17995 -5,0.18555 -1.65,-0.9999 -6.27153,-3.74958 -10.26953,-6.10938 -3.9979,-2.35961 -7.51104,-4.68 -7.80664,-5.1582 -0.772,-1.2492 4.52236,-5.87891 6.72266,-5.87891 z m 153.16406,13.13282 c 1.03706,-0.20568 1.72401,0.11458 2.22656,0.92773 0.3603,0.5829 1.967,5.87049 3.57031,11.75 2.0967,7.68801 3.08639,14.05924 3.52539,22.68945 0.719,14.13161 -0.22433,18.35325 -7.64453,34.16797 -4.78101,10.18991 -8.91098,15.26677 -13.98828,17.19727 -12.08301,4.59401 -24.59138,6.92158 -46.5,8.65429 h -0.002 c -18.81872,1.4885 -48.03479,1.70943 -60,0.45313 -10.69631,-1.1231 -22.5181,-4.55049 -33.09961,-9.5957 -9.16771,-4.3711 -9.68652,-4.79176 -11.98242,-9.72266 -1.6859,-3.64411 -3.41615,-7.11294 -4.8418,-11.4082 -3.7546,-8.48781 -4.69971,-19.38899 -4.00781,-34.7461 0.5867,-13.02322 3.08808,-26.38576 5.39648,-28.82226 0.4283,-0.4522 6.24136,2.21306 12.91797,5.92187 l 12.14063,6.74414 -0.76172,5.07813 c -1.3324,8.88351 -0.93616,28.0639 0.61914,29.9375 3.12731,3.76711 22.61384,9.57032 27.22265,8.10742 2.1092,-0.6694 3.52123,-4.63179 4.79883,-13.4668 0.517,-3.57491 1.711,-10.775 2.6543,-16 l 1.71484,-9.5 h 15.61524 c 8.58751,0 17.39948,-0.22234 19.58398,-0.49414 l 3.97266,-0.49414 1.22461,8.49414 c 2.1565,14.95551 4.21039,20.60302 9.55469,26.26953 3.06471,3.2497 4.09922,3.72461 8.10742,3.72461 5.85671,0 14.86803,-3.35722 19.18554,-7.14843 1.9787,-1.7373 4.00536,-4.90646 4.94336,-7.73047 1.7429,-5.2476 3.52121,-18.70212 3.53321,-26.73633 l 0.01,-5.11719 6.25,-2.27344 c 3.4375,-1.25061 7.81741,-3.33676 9.73242,-4.63476 1.9041,-1.29045 3.29107,-2.02089 4.32813,-2.22656 z m -67.64649,5.61718 c 0.4467,-0.005 1.75489,0.1178 1.86329,2.8086 0.0527,1.3073 -5.14033,2.25524 -19.70704,2.40234 -10.84432,0.1095 -19.06695,-0.69555 -19.12695,-1.56445 -0.0883,-1.2769 1.36556,-3.11719 1.88086,-3.11719 1.4888,-0.01 19.47422,-0.3642 35.08984,-0.5293 z m 33.42774,34.30664 c 1.8906,1.1685 0.967,1.80716 -6.57031,4.54297 -7.8229,2.8396 -9.101,2.93773 -9.9375,0.75782 -0.347,-0.9037 -0.50793,-1.73667 -0.35743,-1.85157 1.5374,-1.174 15.81994,-4.09513 16.86524,-3.44922 z m -95.07422,3.36915 c 0.74375,-0.15449 1.82462,-0.15806 3.23242,0.0605 6.4497,1.0031 7.75,1.51993 7.75,3.08203 0,1.6356 -2.6764,1.70882 -8.25,0.22852 -4.15589,-1.10385 -4.96367,-2.90772 -2.73242,-3.37109 z m -166.01758,12.07812 32.7461,32.74609 32.74609,32.7461 -32.49024,32.50195 c -17.86952,17.87592 -32.72055,32.50195 -33.00195,32.50195 -0.2813,0 -15.13243,-14.62603 -33.00195,-32.50195 l -32.49024,-32.50195 32.7461,-32.7461 z m 432.5,0.64258 32.49805,32.42578 32.49805,32.42773 -32.49805,32.45703 -32.49805,32.45508 -32.8164,-32.57422 -32.81641,-32.57421 32.81641,-32.3086 z m -128.45312,16.08203 c 1.6636,0.6689 48.95312,47.27354 48.95312,48.24414 0,0.5992 -14.42774,15.58807 -32.06055,33.30859 -17.63282,17.72071 -32.38209,32.21875 -32.77539,32.21875 -0.3933,0 -4.03495,-3.34357 -8.09375,-7.42968 l -7.38086,-7.42969 -1.42187,-8.25586 c -0.159,-8.39871 -0.97833,-22.56809 2.07227,-30.9707 l 6.20312,-7.08204 c 3.74584,-4.27689 4.86263,-9.55516 6.27734,-12.58007 1.4148,-3.025 0.82204,-9.11893 1.42774,-12.93164 0.8782,-5.5278 3.50318,-6.40951 6.08008,-9.26172 1.7773,-1.9673 4.76477,-6.84408 6.63867,-10.83789 1.874,-3.994 3.70938,-7.14129 4.08008,-6.99219 z m -180.88282,4.77148 c 0.3746,0 1.22719,1.65979 1.89649,3.6875 1.1411,3.4578 9.80927,13.3125 11.70898,13.3125 1.002,0 3.98079,11.94698 5.47852,15.45703 1.31013,3.07047 2.79935,8.73276 6.85156,13.54297 2.0849,2.475 4.94783,6.25876 6.77734,8.25196 5.6702,6.17691 5.12305,24.21042 5.12305,31.92773 v 6.36524 l -8.27148,8.22656 c -4.549,4.52521 -8.48916,8.22851 -8.75586,8.22851 -0.2666,0 -15.1029,-14.62402 -32.97071,-32.49804 l -32.48828,-32.49805 21.98438,-22.00195 c 12.09131,-12.10071 22.29151,-22.00196 22.66601,-22.00196 z m 153.09571,24.64063 c 1.62428,-0.15577 1.95375,1.40766 1.26953,5.05469 -0.9117,4.86001 -4.91257,10.93497 -8.38477,12.73047 -1.5766,0.81521 -7.31706,2.43445 -12.75586,3.59765 -14.57032,3.1162 -43.76424,3.49054 -74.88867,0.96094 -15.55912,-1.2645 -21.67858,-3.71913 -27.15429,-10.89063 -6.0863,-7.97091 -5.63163,-12.36535 0.99218,-9.59765 8.49641,3.54991 25.9055,5.5 49.01172,5.5 37.72404,-0.006 61.01894,-2.21916 69.84375,-6.63867 0.8395,-0.4204 1.52498,-0.66488 2.06641,-0.7168 z m -110.10352,33.88672 c 0.189,-0.1794 3.49384,0.32966 7.34375,1.13086 14.00481,2.91431 83.47153,1.8667 91.20313,-1.09961 0.5435,-0.2086 -1.77499,9.15631 -1.58789,14.14062 0.1871,4.9843 -0.12062,-3.41281 -0.14453,10.63281 -0.039,22.81412 1.93318,46.34256 2.73828,50.66797 0.6653,3.575 1.73033,11.22509 2.36523,17 1.0157,9.23741 3.33011,18.68226 10.94922,44.67969 0.9961,3.3988 3.48686,10.14889 5.53516,15 3.69701,8.75651 8.03959,21.03114 6.77929,26.05274 -0.9543,3.80211 -5.22323,6.92022 -10.71484,9.70312 -8.91991,4.5201 -23.81844,6.34064 -33.62305,7.43164 -13.60472,1.514 -30.16468,1.89612 -48,1.10742 -17.47372,-0.7728 -20.15558,-1.1608 -31.7539,-4.5957 -10.15061,-3.0062 -24.93817,-5.02596 -22.94922,-14.58789 l 1.46875,-7.06641 c 2.17792,-7.42824 4.68634,-13.663 6.77343,-21.29297 0.8771,-3.81181 3.55501,-12.78164 5.94922,-19.93164 2.8974,-8.65281 4.69903,-16.1768 5.39063,-22.5 0.5714,-5.22491 1.49679,-13.325 2.05469,-18 1.78101,-14.92552 4.42549,-56.62221 3.80859,-63.04882 -0.3276,-3.412 -1.53842,-12.19583 -2.38672,-16.77344 -0.8483,-4.5777 -1.38812,-8.47099 -1.19922,-8.65039 z m -22.27148,63.97265 7.05664,6.97266 c 5.66261,5.59471 7.05078,7.5714 7.05078,10 -0.01,4.4466 -3.75543,28.77397 -4.89063,31.75977 -0.536,1.40971 -1.26704,4.51719 -1.62304,6.90429 -0.3561,2.3871 -1.47483,6.82017 -2.48633,9.85157 -1.0114,3.03141 -2.98994,9.62193 -4.39844,14.64453 -1.4086,5.02241 -4.44193,12.4475 -6.74023,16.5 -2.2983,4.05231 -5.22521,9.72977 -6.50391,12.61718 -1.2787,2.8875 -2.6721,5.25 -3.0957,5.25 -0.4237,0 -11.64538,-10.91259 -24.9375,-24.25 l -24.16797,-24.25 32.36719,-33 z m 144.13867,0.0352 32.48828,32.47656 c 17.86842,17.86212 32.48828,32.93264 32.48828,33.49024 0,0.5575 -10.4661,11.47275 -23.25781,24.25586 -12.79171,12.78292 -23.52391,23.24218 -23.84961,23.24218 -0.6203,0 -11.89258,-23.33874 -11.89258,-24.62304 0,-0.4063 -1.33148,-4.1459 -2.95898,-8.3086 -5.4242,-13.87302 -12.67046,-40.09615 -13.97266,-50.56836 -0.5471,-4.39991 -1.27137,-10.025 -1.60937,-12.5 -0.613,-4.48751 -0.59609,-4.51782 5.97461,-10.98242 z m 17.74219,127.48828 c 2.59731,0.17884 5.12414,0.88854 6.61914,2.06445 3.15451,2.4814 5.62133,6.91909 5.61133,10.11329 -0.006,3.72861 -3.5397,8.44635 -8.50391,11.35546 -21.86365,19.1632 -159.02166,13.70369 -172.67774,5.02149 -11.10702,-2.5945 -13.30704,-3.79342 -17.16015,-9.35352 -3.7569,-5.42131 -2.97787,-10.18521 2.52734,-15.47461 4.3563,-4.18531 6.91985,-4.59152 13.31836,-2.11132 5.0802,1.96901 9.50018,3.42969 22.20899,7.33789 8.40471,2.58441 12.82429,3.28801 25,3.97851 22.94503,1.3012 59.3827,0.4116 76.79882,-1.875 13.80061,-1.8118 33.24689,-6.73654 39.2168,-9.93164 1.7765,-0.95075 4.44362,-1.30384 7.04102,-1.125 z m 9.13476,35.25 c 0.86946,0.0432 1.75287,0.4901 3.29102,1.37305 4.23821,2.4328 7.80859,9.38212 7.80859,15.19922 0,7.26661 -2.03589,12.11277 -7.46289,17.76367 -4.34461,4.52381 -6.40091,5.74294 -14.94922,8.86914 -14.04442,5.13601 -21.79071,6.30017 -49.79883,7.48047 -32.31574,1.3618 -71.75864,1.13076 -89.28906,-0.52344 -21.28832,-2.0086 -38.20658,-6.93082 -45.89258,-13.35352 -3.38151,-2.82571 -6.58665,-11.13474 -6.59765,-17.09765 -0.0119,-6.69081 2.42324,-11.72456 6.96094,-14.38867 3.22631,-1.8942 3.31899,-1.88977 15.88671,0.74804 29.62653,6.2183 41.81573,7.15844 92.64258,7.14844 20.95297,-0.26532 55.76232,2.11336 84.19141,-12.16797 1.484,-0.73275 2.33952,-1.09398 3.20898,-1.05078 z"
       sodipodi:nodetypes="sssssscccccccsscccccccccccsccccccsscssssssssssssscsccsccssccccssssscccscsscccssccsscccsssscccccccscccsssssscssscssssssssccssccccccssssssssssscsscsssssssscscscsscscssccssscscssccsccccssscccscccssscccscccscsssscccssscccccccccccccssscccccsssscscssscsccscccsssssscccssscsssssscssssscccsssssscccsssssssccccccsssscssccscccssscssssscsssscscssccsc" /><g
       aria-label="LES FOUS DES TOURS"
       transform="translate(-13.78106,-31.197987)"
       id="text12669"
       style="font-size:40px;font-family:Vani;-inkscape-font-specification:'Vani, Normal';white-space:pre;inline-size:657.034;display:inline;fill:#1e223a"
       inkscape:label="Texte"><path
         d="m 292.78648,1008.8426 -0.6836,9.6159 h -25.2702 v -1.6178 q 0.54688,-0.046 1.57227,-0.1595 1.04818,-0.114 1.45833,-0.2963 0.6836,-0.2962 0.97982,-0.8659 0.31901,-0.5696 0.31901,-1.4583 v -23.15105 q 0,-0.77474 -0.27343,-1.36719 -0.25066,-0.59245 -1.0254,-0.95703 -0.52408,-0.27344 -1.48112,-0.52409 -0.93424,-0.27344 -1.54948,-0.31901 v -1.61784 h 13.6491 v 1.61784 q -0.63802,0.0228 -1.66341,0.22786 -1.00261,0.20508 -1.45834,0.36459 -0.77474,0.27344 -1.07096,0.93424 -0.27344,0.66081 -0.27344,1.41276 v 21.71552 q 0,1.5039 0.13672,2.347 0.15951,0.8203 0.70638,1.276 0.52409,0.4102 1.54948,0.5469 1.04818,0.114 2.91667,0.114 0.8431,0 1.75456,-0.046 0.91146,-0.046 1.73177,-0.1823 0.79753,-0.1367 1.45834,-0.3646 0.68359,-0.2506 1.0026,-0.6152 0.93425,-1.0482 2.16472,-3.1674 1.25325,-2.1419 1.73177,-3.4635 z"
         style="font-weight:bold;font-size:46.6667px;-inkscape-font-specification:'Vani, Bold'"
         id="path5748" /><path
         d="m 322.18103,1008.9338 -0.61524,9.5247 h -26.84246 v -1.6178 q 0.68359,-0.046 1.82292,-0.1823 1.13932,-0.1595 1.48112,-0.319 0.72916,-0.3418 1.0026,-0.8887 0.29623,-0.5469 0.29623,-1.39 v -23.2422 q 0,-0.75195 -0.25066,-1.32161 -0.25065,-0.59245 -1.04817,-0.95703 -0.61524,-0.29623 -1.66342,-0.52409 -1.02539,-0.22787 -1.64062,-0.27344 v -1.61784 h 25.01955 v 7.79297 h -1.70899 q -0.45573,-1.73177 -1.98242,-3.66862 -1.50391,-1.95964 -2.8711,-2.14193 -0.70638,-0.0911 -1.6862,-0.13672 -0.97982,-0.0456 -2.23307,-0.0456 h -5.08139 v 12.85161 h 3.64584 q 1.75456,0 2.55209,-0.319 0.82031,-0.3418 1.43554,-1.11659 0.50131,-0.6608 0.8431,-1.75455 0.36459,-1.11654 0.47852,-2.09636 h 1.70898 v 12.6465 h -1.70898 q -0.0911,-1.0937 -0.5013,-2.3014 -0.38737,-1.2305 -0.82032,-1.7774 -0.70638,-0.8886 -1.61784,-1.1621 -0.88867,-0.2734 -2.36979,-0.2734 h -3.64584 v 9.707 q 0,1.4584 0.20508,2.3015 0.20508,0.8431 0.79753,1.276 0.59245,0.433 1.61784,0.5697 1.02539,0.1139 2.91667,0.1139 0.75195,0 1.98242,0 1.23047,0 2.07357,-0.091 0.86589,-0.091 1.77734,-0.3191 0.93425,-0.2506 1.32162,-0.6608 1.04818,-1.0937 2.1875,-3.304 1.16211,-2.2331 1.48112,-3.2812 z"
         style="font-weight:bold;font-size:46.6667px;-inkscape-font-specification:'Vani, Bold'"
         id="path5750" /><path
         d="m 345.60552,1003.6245 q 1.02539,1.1393 1.50391,2.5065 0.5013,1.3444 0.5013,3.1445 0,4.2839 -3.16732,7.0639 -3.16732,2.7799 -7.86133,2.7799 -2.16472,0 -4.32943,-0.6608 -2.16472,-0.6836 -3.73698,-1.6406 l -0.97982,1.6634 h -1.82292 l -0.31901,-11.0742 h 1.8457 q 0.56967,2.0507 1.32162,3.7142 0.77474,1.6406 2.028,3.0761 1.18489,1.3444 2.75716,2.142 1.59505,0.7975 3.69141,0.7975 1.57226,0 2.73437,-0.4102 1.1849,-0.4101 1.91407,-1.1621 0.72917,-0.7519 1.07096,-1.7545 0.36459,-1.0254 0.36459,-2.3471 0,-1.9368 -1.09375,-3.6002 -1.09376,-1.6862 -3.25847,-2.5521 -1.48112,-0.5924 -3.39518,-1.2988 -1.91407,-0.7292 -3.30404,-1.3672 -2.73438,-1.2305 -4.26107,-3.21291 -1.50391,-2.00521 -1.50391,-5.2181 0,-1.84571 0.75195,-3.44076 0.75196,-1.59505 2.14193,-2.84831 1.32162,-1.1849 3.12175,-1.8457 1.80013,-0.6836 3.75977,-0.6836 2.23307,0 3.98763,0.6836 1.77734,0.68359 3.23568,1.59505 l 0.93424,-1.54948 h 1.82292 l 0.18229,10.73243 h -1.8457 q -0.5013,-1.84571 -1.13932,-3.5319 -0.61524,-1.6862 -1.61784,-3.05339 -0.97982,-1.32162 -2.39258,-2.09636 -1.41277,-0.79752 -3.46355,-0.79752 -2.16471,0 -3.69141,1.38997 -1.52669,1.38998 -1.52669,3.39519 0,2.09635 0.97982,3.48633 0.97982,1.36718 2.84831,2.25586 1.66341,0.79752 3.25846,1.38997 1.61784,0.56966 3.12175,1.23043 1.36719,0.5925 2.62044,1.3444 1.27605,0.752 2.21029,1.7546 z"
         style="font-weight:bold;font-size:46.6667px;-inkscape-font-specification:'Vani, Bold'"
         id="path5752" /><path
         d="m 388.01115,994.21369 h -1.70898 q -0.47852,-1.80013 -2.00521,-3.85092 -1.50391,-2.05078 -2.89388,-2.25586 -0.70639,-0.0911 -1.6862,-0.13672 -0.95704,-0.0456 -2.18751,-0.0456 h -5.42318 v 12.98831 h 3.7142 q 1.6862,0 2.62044,-0.3418 0.93425,-0.3646 1.59506,-1.09377 0.45573,-0.5013 0.82031,-1.54948 0.38737,-1.07096 0.5013,-2.27864 h 1.73177 v 12.69209 h -1.73177 q -0.0684,-1.0026 -0.47851,-2.2786 -0.38737,-1.2761 -0.8431,-1.8458 -0.6836,-0.843 -1.73178,-1.1393 -1.02539,-0.319 -2.48372,-0.319 h -3.7142 v 11.1426 q 0,0.752 0.29623,1.3444 0.29622,0.5925 1.04818,0.957 0.34179,0.1595 1.48112,0.3874 1.13932,0.2279 1.73177,0.2507 v 1.6178 h -14.01368 v -1.6178 q 0.68359,-0.046 1.82291,-0.1368 1.13933,-0.1139 1.48113,-0.2734 0.68359,-0.2962 0.97981,-0.8659 0.31901,-0.5924 0.31901,-1.4127 v -23.33343 q 0,-0.75195 -0.25065,-1.32161 -0.25065,-0.59245 -1.04817,-0.95703 -0.61524,-0.29623 -1.66342,-0.52409 -1.02539,-0.22787 -1.64062,-0.27344 v -1.61784 h 25.36134 z"
         style="font-weight:bold;font-size:46.6667px;-inkscape-font-specification:'Vani, Bold'"
         id="path5754" /><path
         d="m 416.99554,989.95262 q 2.14193,2.23307 3.34962,5.40039 1.20768,3.14453 1.20768,6.97269 0,3.8509 -1.23047,6.9954 -1.23047,3.1446 -3.41797,5.3548 -2.11914,2.1875 -4.92188,3.3724 -2.80274,1.1849 -5.97006,1.1849 -3.3724,0 -6.24349,-1.2532 -2.84831,-1.2761 -4.89909,-3.5319 -2.05079,-2.2103 -3.23568,-5.3548 -1.16211,-3.1674 -1.16211,-6.7676 0,-3.94209 1.23047,-7.01826 1.23047,-3.09896 3.39518,-5.35482 2.14193,-2.23308 4.96745,-3.41797 2.84831,-1.1849 5.94727,-1.1849 3.2129,0 6.06121,1.20768 2.8483,1.20769 4.92187,3.39519 z m -3.39518,22.92318 q 1.27604,-2.0736 1.8457,-4.694 0.59245,-2.6204 0.59245,-5.8561 0,-3.32685 -0.66081,-6.1068 -0.63802,-2.77995 -1.89127,-4.73959 -1.25326,-1.93685 -3.14454,-3.00781 -1.89127,-1.09375 -4.32943,-1.09375 -2.73437,0 -4.64844,1.25325 -1.91406,1.25326 -3.12174,3.34961 -1.13933,2.00521 -1.70899,4.69402 -0.54688,2.6888 -0.54688,5.65107 0,3.2812 0.59245,5.9245 0.59245,2.6432 1.86849,4.694 1.23047,2.0052 3.09896,3.1445 1.86849,1.1165 4.46615,1.1165 2.43816,0 4.39779,-1.1393 1.95964,-1.1393 3.19011,-3.1901 z"
         style="font-weight:bold;font-size:46.6667px;-inkscape-font-specification:'Vani, Bold'"
         id="path5756" /><path
         d="m 458.30743,987.74233 q -0.63802,0.0228 -1.86849,0.27344 -1.23047,0.25065 -2.00521,0.75195 -0.77474,0.52409 -1.07097,2.16472 -0.29622,1.64062 -0.29622,4.01042 v 14.05924 q 0,2.6888 -1.11654,4.6712 -1.11654,1.9825 -2.93945,3.2585 -1.80014,1.2305 -3.80535,1.7546 -1.98242,0.5468 -3.80534,0.5468 -2.91666,0 -5.19531,-0.7747 -2.27865,-0.752 -3.82813,-2.0508 -1.52669,-1.2988 -2.30143,-2.9622 -0.77474,-1.6862 -0.77474,-3.5091 v -19.1179 q 0,-0.79752 -0.27344,-1.32161 -0.25065,-0.54688 -1.04818,-1.00261 -0.56966,-0.31901 -1.45833,-0.5013 -0.88868,-0.20508 -1.45834,-0.25065 v -1.61784 h 13.46681 v 1.61784 q -0.63802,0.0228 -1.61784,0.20508 -0.95703,0.18229 -1.41276,0.34179 -0.77474,0.27344 -1.04818,0.91146 -0.25065,0.63802 -0.25065,1.38998 v 17.86456 q 0,1.2989 0.27344,2.7344 0.29622,1.4128 1.13932,2.6432 0.88867,1.2533 2.41537,2.0508 1.52669,0.7976 4.19271,0.7976 2.50651,0 4.19271,-0.7976 1.70898,-0.7975 2.6888,-2.0963 0.93425,-1.2305 1.32162,-2.5749 0.38737,-1.3444 0.38737,-2.7116 v -13.26172 q 0,-2.5293 -0.36459,-4.12435 -0.36458,-1.61784 -1.07096,-2.11914 -0.79753,-0.56967 -2.1875,-0.88868 -1.36719,-0.31901 -2.09636,-0.36458 v -1.61784 h 13.21616 z"
         style="font-weight:bold;font-size:46.6667px;-inkscape-font-specification:'Vani, Bold'"
         id="path5758" /><path
         d="m 481.02554,1003.6245 q 1.02539,1.1393 1.50391,2.5065 0.5013,1.3444 0.5013,3.1445 0,4.2839 -3.16732,7.0639 -3.16732,2.7799 -7.86133,2.7799 -2.16472,0 -4.32943,-0.6608 -2.16472,-0.6836 -3.73698,-1.6406 l -0.97982,1.6634 h -1.82292 l -0.31901,-11.0742 h 1.84571 q 0.56966,2.0507 1.32161,3.7142 0.77474,1.6406 2.028,3.0761 1.18489,1.3444 2.75716,2.142 1.59505,0.7975 3.69141,0.7975 1.57227,0 2.73438,-0.4102 1.18489,-0.4101 1.91406,-1.1621 0.72917,-0.7519 1.07096,-1.7545 0.36459,-1.0254 0.36459,-2.3471 0,-1.9368 -1.09375,-3.6002 -1.09375,-1.6862 -3.25847,-2.5521 -1.48112,-0.5924 -3.39518,-1.2988 -1.91407,-0.7292 -3.30404,-1.3672 -2.73438,-1.2305 -4.26107,-3.21291 -1.50391,-2.00521 -1.50391,-5.2181 0,-1.84571 0.75195,-3.44076 0.75196,-1.59505 2.14193,-2.84831 1.32162,-1.1849 3.12175,-1.8457 1.80013,-0.6836 3.75977,-0.6836 2.23307,0 3.98763,0.6836 1.77734,0.68359 3.23568,1.59505 l 0.93424,-1.54948 h 1.82292 l 0.18229,10.73243 h -1.8457 q -0.5013,-1.84571 -1.13932,-3.5319 -0.61524,-1.6862 -1.61784,-3.05339 -0.97982,-1.32162 -2.39258,-2.09636 -1.41276,-0.79752 -3.46355,-0.79752 -2.16471,0 -3.69141,1.38997 -1.52669,1.38998 -1.52669,3.39519 0,2.09635 0.97982,3.48633 0.97982,1.36718 2.84831,2.25586 1.66341,0.79752 3.25846,1.38997 1.61784,0.56966 3.12175,1.23043 1.36719,0.5925 2.62045,1.3444 1.27604,0.752 2.21028,1.7546 z"
         style="font-weight:bold;font-size:46.6667px;-inkscape-font-specification:'Vani, Bold'"
         id="path5760" /><path
         d="m 529.31008,1002.4852 q 0,4.1243 -1.54948,7.1549 -1.54948,3.0306 -4.03321,4.9675 -2.50651,1.9368 -5.62826,2.8939 -3.12175,0.957 -6.44857,0.957 h -13.39845 v -1.6178 q 0.66081,0 1.70899,-0.114 1.07096,-0.1367 1.41276,-0.2962 0.68359,-0.2962 0.97982,-0.8659 0.31901,-0.5924 0.31901,-1.4127 v -23.3334 q 0,-0.77474 -0.27344,-1.38997 -0.25065,-0.61524 -1.02539,-0.97982 -0.70638,-0.3418 -1.52669,-0.5013 -0.82032,-0.15951 -1.41277,-0.20508 v -1.61784 h 14.12762 q 2.91667,0 5.74219,0.91146 2.82552,0.88867 4.92188,2.41536 2.84831,2.028 4.46615,5.30925 1.61784,3.28126 1.61784,7.72464 z m -5.58269,-0.023 q 0,-3.25847 -0.86589,-5.87892 -0.86588,-2.64323 -2.52929,-4.60287 -1.57227,-1.86849 -3.87371,-2.93945 -2.27864,-1.07097 -5.08138,-1.07097 -0.93424,0 -2.11914,0.0456 -1.16211,0.0228 -1.73177,0.0456 v 24.86001 q 0,2.0737 1.20768,2.8711 1.20768,0.7975 3.7142,0.7975 2.89388,0 5.05859,-1.0254 2.16472,-1.0254 3.50912,-2.8483 1.41276,-1.9141 2.05078,-4.4206 0.66081,-2.5293 0.66081,-5.8333 z"
         style="font-weight:bold;font-size:46.6667px;-inkscape-font-specification:'Vani, Bold'"
         id="path5762" /><path
         d="m 560.48197,1008.9338 -0.61523,9.5247 h -26.84247 v -1.6178 q 0.6836,-0.046 1.82292,-0.1823 1.13932,-0.1595 1.48112,-0.319 0.72917,-0.3418 1.00261,-0.8887 0.29622,-0.5469 0.29622,-1.39 v -23.2422 q 0,-0.75195 -0.25065,-1.32161 -0.25065,-0.59245 -1.04818,-0.95703 -0.61523,-0.29623 -1.66341,-0.52409 -1.02539,-0.22787 -1.64063,-0.27344 v -1.61784 h 25.01955 v 7.79297 h -1.70898 q -0.45573,-1.73177 -1.98243,-3.66862 -1.5039,-1.95964 -2.87109,-2.14193 -0.70638,-0.0911 -1.6862,-0.13672 -0.97982,-0.0456 -2.23308,-0.0456 h -5.08138 v 12.85161 h 3.64584 q 1.75455,0 2.55208,-0.319 0.82031,-0.3418 1.43555,-1.11659 0.5013,-0.6608 0.8431,-1.75455 0.36458,-1.11654 0.47851,-2.09636 h 1.70899 v 12.6465 h -1.70899 q -0.0911,-1.0937 -0.5013,-2.3014 -0.38737,-1.2305 -0.82031,-1.7774 -0.70638,-0.8886 -1.61784,-1.1621 -0.88867,-0.2734 -2.36979,-0.2734 h -3.64584 v 9.707 q 0,1.4584 0.20508,2.3015 0.20508,0.8431 0.79752,1.276 0.59245,0.433 1.61784,0.5697 1.0254,0.1139 2.91667,0.1139 0.75196,0 1.98243,0 1.23047,0 2.07357,-0.091 0.86588,-0.091 1.77734,-0.3191 0.93425,-0.2506 1.32162,-0.6608 1.04817,-1.0937 2.1875,-3.304 1.16211,-2.2331 1.48112,-3.2812 z"
         style="font-weight:bold;font-size:46.6667px;-inkscape-font-specification:'Vani, Bold'"
         id="path5764" /><path
         d="m 583.90648,1003.6245 q 1.02539,1.1393 1.50391,2.5065 0.5013,1.3444 0.5013,3.1445 0,4.2839 -3.16732,7.0639 -3.16732,2.7799 -7.86133,2.7799 -2.16472,0 -4.32943,-0.6608 -2.16472,-0.6836 -3.73699,-1.6406 l -0.97981,1.6634 h -1.82292 l -0.31901,-11.0742 h 1.8457 q 0.56966,2.0507 1.32162,3.7142 0.77474,1.6406 2.02799,3.0761 1.1849,1.3444 2.75717,2.142 1.59505,0.7975 3.6914,0.7975 1.57227,0 2.73438,-0.4102 1.1849,-0.4101 1.91407,-1.1621 0.72916,-0.7519 1.07096,-1.7545 0.36458,-1.0254 0.36458,-2.3471 0,-1.9368 -1.09375,-3.6002 -1.09375,-1.6862 -3.25846,-2.5521 -1.48112,-0.5924 -3.39519,-1.2988 -1.91406,-0.7292 -3.30404,-1.3672 -2.73437,-1.2305 -4.26107,-3.21291 -1.5039,-2.00521 -1.5039,-5.2181 0,-1.84571 0.75195,-3.44076 0.75195,-1.59505 2.14193,-2.84831 1.32161,-1.1849 3.12174,-1.8457 1.80014,-0.6836 3.75977,-0.6836 2.23308,0 3.98764,0.6836 1.77734,0.68359 3.23567,1.59505 l 0.93425,-1.54948 h 1.82292 l 0.18229,10.73243 h -1.8457 q -0.50131,-1.84571 -1.13933,-3.5319 -0.61523,-1.6862 -1.61784,-3.05339 -0.97982,-1.32162 -2.39258,-2.09636 -1.41276,-0.79752 -3.46354,-0.79752 -2.16472,0 -3.69141,1.38997 -1.52669,1.38998 -1.52669,3.39519 0,2.09635 0.97981,3.48633 0.97982,1.36718 2.84831,2.25586 1.66342,0.79752 3.25847,1.38997 1.61784,0.56966 3.12175,1.23043 1.36718,0.5925 2.62044,1.3444 1.27604,0.752 2.21029,1.7546 z"
         style="font-weight:bold;font-size:46.6667px;-inkscape-font-specification:'Vani, Bold'"
         id="path5766" /><path
         d="m 627.497,994.89728 h -1.57227 q -0.20508,-0.82031 -0.75195,-1.93685 -0.52409,-1.13932 -1.1849,-2.14193 -0.68359,-1.04817 -1.50391,-1.82291 -0.79752,-0.79753 -1.54948,-0.91146 -0.70638,-0.0911 -1.77734,-0.13672 -1.07097,-0.0456 -1.98242,-0.0456 h -1.32162 v 25.86269 q 0,0.7519 0.31901,1.39 0.31901,0.6152 1.11654,0.957 0.41015,0.1595 1.70898,0.4329 1.32162,0.2735 2.05079,0.2963 v 1.6178 h -15.26694 v -1.6178 q 0.63802,-0.046 1.93685,-0.1823 1.32161,-0.1368 1.82292,-0.3418 0.75195,-0.2963 1.09375,-0.8431 0.36458,-0.5697 0.36458,-1.5039 v -26.06779 h -1.32161 q -0.70639,0 -1.75456,0.0456 -1.04818,0.0228 -2.00521,0.13672 -0.75196,0.0911 -1.57227,0.91146 -0.79753,0.79752 -1.48112,1.82291 -0.68359,1.02539 -1.20768,2.1875 -0.52409,1.13933 -0.72917,1.89128 h -1.59505 v -8.77279 H 627.497 Z"
         style="font-weight:bold;font-size:46.6667px;-inkscape-font-specification:'Vani, Bold'"
         id="path5768" /><path
         d="m 656.20795,989.95262 q 2.14192,2.23307 3.34961,5.40039 1.20768,3.14453 1.20768,6.97269 0,3.8509 -1.23047,6.9954 -1.23047,3.1446 -3.41797,5.3548 -2.11914,2.1875 -4.92188,3.3724 -2.80273,1.1849 -5.97005,1.1849 -3.3724,0 -6.2435,-1.2532 -2.84831,-1.2761 -4.89909,-3.5319 -2.05078,-2.2103 -3.23568,-5.3548 -1.16211,-3.1674 -1.16211,-6.7676 0,-3.94209 1.23047,-7.01826 1.23047,-3.09896 3.39518,-5.35482 2.14193,-2.23308 4.96746,-3.41797 2.8483,-1.1849 5.94727,-1.1849 3.21289,0 6.0612,1.20768 2.84831,1.20769 4.92188,3.39519 z m -3.39519,22.92318 q 1.27604,-2.0736 1.84571,-4.694 0.59244,-2.6204 0.59244,-5.8561 0,-3.32685 -0.6608,-6.1068 -0.63803,-2.77995 -1.89128,-4.73959 -1.25326,-1.93685 -3.14453,-3.00781 -1.89128,-1.09375 -4.32943,-1.09375 -2.73438,0 -4.64845,1.25325 -1.91406,1.25326 -3.12174,3.34961 -1.13933,2.00521 -1.70899,4.69402 -0.54687,2.6888 -0.54687,5.65107 0,3.2812 0.59245,5.9245 0.59244,2.6432 1.86849,4.694 1.23047,2.0052 3.09896,3.1445 1.86849,1.1165 4.46615,1.1165 2.43815,0 4.39778,-1.1393 1.95964,-1.1393 3.19011,-3.1901 z"
         style="font-weight:bold;font-size:46.6667px;-inkscape-font-specification:'Vani, Bold'"
         id="path5770" /><path
         d="m 697.51983,987.74233 q -0.63802,0.0228 -1.86849,0.27344 -1.23047,0.25065 -2.00521,0.75195 -0.77474,0.52409 -1.07097,2.16472 -0.29622,1.64062 -0.29622,4.01042 v 14.05924 q 0,2.6888 -1.11654,4.6712 -1.11653,1.9825 -2.93945,3.2585 -1.80013,1.2305 -3.80534,1.7546 -1.98243,0.5468 -3.80534,0.5468 -2.91667,0 -5.19532,-0.7747 -2.27865,-0.752 -3.82813,-2.0508 -1.52669,-1.2988 -2.30143,-2.9622 -0.77474,-1.6862 -0.77474,-3.5091 v -19.1179 q 0,-0.79752 -0.27344,-1.32161 -0.25065,-0.54688 -1.04818,-1.00261 -0.56966,-0.31901 -1.45833,-0.5013 -0.88867,-0.20508 -1.45834,-0.25065 v -1.61784 h 13.46681 v 1.61784 q -0.63802,0.0228 -1.61784,0.20508 -0.95703,0.18229 -1.41276,0.34179 -0.77474,0.27344 -1.04818,0.91146 -0.25065,0.63802 -0.25065,1.38998 v 17.86456 q 0,1.2989 0.27344,2.7344 0.29622,1.4128 1.13932,2.6432 0.88867,1.2533 2.41537,2.0508 1.52669,0.7976 4.19271,0.7976 2.50651,0 4.19271,-0.7976 1.70899,-0.7975 2.6888,-2.0963 0.93425,-1.2305 1.32162,-2.5749 0.38737,-1.3444 0.38737,-2.7116 v -13.26172 q 0,-2.5293 -0.36458,-4.12435 -0.36459,-1.61784 -1.07097,-2.11914 -0.79752,-0.56967 -2.1875,-0.88868 -1.36719,-0.31901 -2.09636,-0.36458 v -1.61784 h 13.21616 z"
         style="font-weight:bold;font-size:46.6667px;-inkscape-font-specification:'Vani, Bold'"
         id="path5772" /><path
         d="m 731.60838,1018.4585 h -8.70443 q -2.89388,-4.5345 -5.24089,-7.8386 -2.32422,-3.304 -5.0586,-6.8131 h -3.30404 v 10.2539 q 0,0.7975 0.25065,1.4128 0.25066,0.5924 1.07097,0.9114 0.41015,0.1595 1.43555,0.2963 1.02539,0.1367 1.73177,0.1595 v 1.6178 h -13.67189 v -1.6178 q 0.54688,-0.046 1.57227,-0.1595 1.04818,-0.114 1.45833,-0.2963 0.6836,-0.2962 0.97982,-0.8659 0.31901,-0.5696 0.31901,-1.4583 v -23.37892 q 0,-0.79752 -0.22786,-1.41276 -0.22787,-0.61523 -1.07097,-0.93424 -0.56966,-0.20508 -1.48112,-0.36459 -0.91145,-0.18229 -1.54948,-0.22786 v -1.61784 h 14.92514 q 2.05079,0 3.85092,0.43294 1.80013,0.41016 3.25846,1.3444 1.41277,0.91146 2.25586,2.39258 0.8431,1.45834 0.8431,3.53191 0,1.86849 -0.56966,3.30404 -0.56966,1.43554 -1.6862,2.48372 -1.02539,0.97982 -2.46094,1.70902 -1.43554,0.7063 -3.16732,1.2077 2.39258,3.1673 3.96485,5.332 1.59505,2.1647 3.89649,5.2637 1.0026,1.3671 1.80013,2.028 0.82031,0.638 1.61784,1.0481 0.59245,0.2963 1.48112,0.4558 0.88867,0.1595 1.48112,0.1823 z M 719.6227,994.35041 q 0,-2.93946 -1.6862,-4.64844 -1.6862,-1.73178 -4.76238,-1.73178 h -3.8737 v 13.87701 h 2.98503 q 3.14453,0 5.24089,-2.00525 2.09636,-2.028 2.09636,-5.49154 z"
         style="font-weight:bold;font-size:46.6667px;-inkscape-font-specification:'Vani, Bold'"
         id="path5774" /><path
         d="m 752.9821,1003.6245 q 1.02539,1.1393 1.50391,2.5065 0.5013,1.3444 0.5013,3.1445 0,4.2839 -3.16732,7.0639 -3.16732,2.7799 -7.86133,2.7799 -2.16472,0 -4.32943,-0.6608 -2.16472,-0.6836 -3.73698,-1.6406 l -0.97982,1.6634 h -1.82292 l -0.31901,-11.0742 h 1.8457 q 0.56967,2.0507 1.32162,3.7142 0.77474,1.6406 2.028,3.0761 1.18489,1.3444 2.75716,2.142 1.59505,0.7975 3.69141,0.7975 1.57226,0 2.73437,-0.4102 1.1849,-0.4101 1.91407,-1.1621 0.72917,-0.7519 1.07096,-1.7545 0.36459,-1.0254 0.36459,-2.3471 0,-1.9368 -1.09375,-3.6002 -1.09376,-1.6862 -3.25847,-2.5521 -1.48112,-0.5924 -3.39519,-1.2988 -1.91406,-0.7292 -3.30403,-1.3672 -2.73438,-1.2305 -4.26107,-3.21291 -1.50391,-2.00521 -1.50391,-5.2181 0,-1.84571 0.75195,-3.44076 0.75196,-1.59505 2.14193,-2.84831 1.32162,-1.1849 3.12175,-1.8457 1.80013,-0.6836 3.75977,-0.6836 2.23307,0 3.98763,0.6836 1.77734,0.68359 3.23568,1.59505 l 0.93424,-1.54948 h 1.82292 l 0.18229,10.73243 h -1.8457 q -0.5013,-1.84571 -1.13933,-3.5319 -0.61523,-1.6862 -1.61784,-3.05339 -0.97981,-1.32162 -2.39257,-2.09636 -1.41277,-0.79752 -3.46355,-0.79752 -2.16471,0 -3.69141,1.38997 -1.52669,1.38998 -1.52669,3.39519 0,2.09635 0.97982,3.48633 0.97982,1.36718 2.84831,2.25586 1.66341,0.79752 3.25846,1.38997 1.61784,0.56966 3.12175,1.23043 1.36719,0.5925 2.62044,1.3444 1.27605,0.752 2.21029,1.7546 z"
         style="font-weight:bold;font-size:46.6667px;-inkscape-font-specification:'Vani, Bold'"
         id="path5776" /></g></g></svg>
