<svg xmlns="http://www.w3.org/2000/svg" viewBox="0 0 614.02 672.65"><defs><style>.cls-1{fill:#c9bdb9;}.cls-2{fill:#004a75;}.cls-3{fill:#cabfb8;}.cls-4{fill:#fff;}</style></defs><g id="Calque_2" data-name="Calque 2"><g id="test_1" data-name="test 1"><path class="cls-1" d="M471.22,408.06c-10.56,25.32-25.44,47.67-45.56,66.15-28,25.66-60.63,41.93-98.41,48-39.71,6.39-77.36.18-113.5-16.71-10.18-4.76-19.37-11.33-29.77-18,0,18.22-.16,35.16.1,52.08.08,4.87-1.42,6.22-6.27,6.3a62.61,62.61,0,0,1-63.34-57.34c-3.31-36.76-.56-73.64-1.49-110.45-.1-4.14,1.65-5,5.37-5,22.49.12,45,.25,67.45-.08,5.58-.08,6.41,3.77,7.86,7.14,6.28,14.6,14.9,27.61,26.64,38.3,19.47,17.75,42.17,28,68.76,30,28.43,2.17,53.85-5.61,76-22.73,23.42-18.07,38.36-42,42.84-71.65,6.14-40.69-6.87-75-37.17-102-25.29-22.47-55.46-31.58-89.66-26.88-24.29,3.35-44.68,14.16-62.2,30.43a103.71,103.71,0,0,0-26.25,39.43c-1.59,4.19-3.33,5.78-7.79,5.74q-33-.3-66.06,0c-5.2.05-6.5-1.68-5.31-6.59a190.53,190.53,0,0,1,39.62-78.94c29.87-35.52,67.76-57.52,113.34-64.46,36.49-5.56,72.57-2.33,106.84,13.42a197.42,197.42,0,0,1,51.54,34.14C456.6,227.47,476,263.5,482.6,305.56,488.11,340.35,485,374.94,471.22,408.06Z"/><path class="cls-2" d="M231.52,646.15v-46h22.71q6.66,0,9.29,1.48a8.14,8.14,0,0,1,3.74,4.88,20.65,20.65,0,0,1,.68,5.83,15.28,15.28,0,0,1-.78,5.53q-1.38,3.43-6,4.51v.17a11.25,11.25,0,0,1,4.64,1.55q3.24,2.22,3.24,9.33,0,8.19-4.31,10.92-2.91,1.78-9.3,1.79Zm8.82-26.69H251c3.17,0,5.21-.27,6.14-.81,1.34-.78,2-2.59,2-5.42a8.52,8.52,0,0,0-.58-3.67,3.56,3.56,0,0,0-3.06-2,25.84,25.84,0,0,0-2.73-.1H240.34Zm0,19.34h9.57c4.32,0,7-.26,8.12-.77a3.73,3.73,0,0,0,2-2.7,13.42,13.42,0,0,0,.21-2.73,11,11,0,0,0-.58-4.14q-.87-2.06-3.8-2.36c-.75-.07-2.21-.1-4.38-.1H240.34Z"/><path class="cls-2" d="M275.38,646.15v-46h22.71a27.63,27.63,0,0,1,7.85.94,11.6,11.6,0,0,1,5.12,3q3.62,3.71,4.21,10.64c.12,1.13.17,2.68.17,4.65q0,8.7-.27,11.93a20.64,20.64,0,0,1-2,8.19,11.17,11.17,0,0,1-4.82,4.75c-2.44,1.26-5.77,1.89-10,1.89Zm8.83-7.58h12.43c4,0,6.62-.93,7.92-2.77a12.22,12.22,0,0,0,1.72-6c.13-1.66.2-3.9.2-6.7a74.41,74.41,0,0,0-.37-8.73q-.57-4.62-4-5.86a14.42,14.42,0,0,0-4.89-.68h-13Z"/><path class="cls-2" d="M329.73,607.5v11.86h21.46v6.47H329.73v13h22.84v7.35H320.9v-46h31.47v7.34Z"/><path class="cls-2" d="M183.86,584.2v-20H192l2.28,0a8.2,8.2,0,0,1,2.79.5,4,4,0,0,1,1.75,1.45,8.26,8.26,0,0,1,1.06,4.74,10.09,10.09,0,0,1-.75,4.5,4.25,4.25,0,0,1-3.15,2.17c-.35.06-1.61.11-3.78.16h-4.47v6.46Zm3.83-9.77H192a8.41,8.41,0,0,0,2.76-.29,1.82,1.82,0,0,0,1-1.35,7.59,7.59,0,0,0,.13-1.67,8.36,8.36,0,0,0-.25-2.46,1.93,1.93,0,0,0-1.92-1.23c-.23,0-.69,0-1.37,0h-4.71Z"/><path class="cls-2" d="M221.38,564a14,14,0,0,1,5.15.67,5.55,5.55,0,0,1,3.21,4.57,34.05,34.05,0,0,1,.2,4.73,39.47,39.47,0,0,1-.19,4.93,7.21,7.21,0,0,1-1,2.92,4.69,4.69,0,0,1-2,1.7,9.18,9.18,0,0,1-3.27.74c-.81.06-1.73.08-2.78.08a22.94,22.94,0,0,1-3.5-.2,7.11,7.11,0,0,1-2.2-.7,4.92,4.92,0,0,1-2.39-2.86,10.76,10.76,0,0,1-.49-3.05c0-.75-.05-1.65-.05-2.69a43.73,43.73,0,0,1,.21-5.42,7.1,7.1,0,0,1,1-2.93,5,5,0,0,1,2.11-1.72,8.24,8.24,0,0,1,3.06-.68C219.29,564.06,220.25,564,221.38,564Zm-.46,3.29a9.85,9.85,0,0,0-3.31.36c-.9.37-1.42,1.35-1.55,2.94,0,.52-.06,2-.06,4.42q0,2,.06,2.73a5.91,5.91,0,0,0,.45,2,1.89,1.89,0,0,0,1,1,11.18,11.18,0,0,0,3.65.37,10,10,0,0,0,3.28-.35c.84-.38,1.35-1.38,1.53-3,0-.45.07-1.82.07-4.1,0-1.58,0-2.6-.06-3a5.84,5.84,0,0,0-.45-2,2.05,2.05,0,0,0-1-1,4.64,4.64,0,0,0-1.64-.32C222.39,567.34,221.73,567.32,220.92,567.32Z"/><path class="cls-2" d="M247.15,564.2v16.63h9.33v3.37H243.31v-20Z"/><path class="cls-2" d="M283,564.2l-7.42,12.37v7.63h-3.83v-7.63l-7.21-12.37h4.39l3,5.28q.33.56,1.29,2.43l.41.8h.12l.42-.8c.64-1.21,1.07-2,1.31-2.43l3-5.28Z"/><path class="cls-2" d="M304.15,567.59V584.2h-3.84V567.57h-5.77V564.2h15.54v3.39Z"/><path class="cls-2" d="M326.25,567.4v5.15h9.33v2.82h-9.33V581h9.93v3.19H322.41v-20h13.68v3.2Z"/><path class="cls-2" d="M362.14,577.07h3.79v.67a9.61,9.61,0,0,1-.57,4.06,4.57,4.57,0,0,1-3.59,2.38,33.62,33.62,0,0,1-4.58.19,19.4,19.4,0,0,1-3.78-.26,5.07,5.07,0,0,1-2.18-1,5.33,5.33,0,0,1-1.91-3.57,56,56,0,0,1-.29-6.89,18.87,18.87,0,0,1,.41-4.54,4.73,4.73,0,0,1,2.28-3,8.42,8.42,0,0,1,3.61-1c.66-.05,1.79-.07,3.4-.07a14,14,0,0,1,3.94.38,4.3,4.3,0,0,1,2.95,4c.06.45.11,1.27.14,2.46H362c0-.26,0-.43,0-.49q0-2-.81-2.55a6,6,0,0,0-3-.49,16.35,16.35,0,0,0-3,.21,2.3,2.3,0,0,0-1.95,2.21,33.61,33.61,0,0,0-.12,3.55,38.64,38.64,0,0,0,.25,5.64,2.45,2.45,0,0,0,.88,1.56,6.72,6.72,0,0,0,3.47.59c2.06,0,3.35-.23,3.87-.68a3.11,3.11,0,0,0,.67-2.35C362.15,577.82,362.15,577.49,362.14,577.07Z"/><path class="cls-2" d="M395.73,564.2v20h-3.84v-8.56h-9.28v8.56h-3.84v-20h3.84v8.16h9.28V564.2Z"/><path class="cls-2" d="M238.17,662.14h-2.71a3.26,3.26,0,0,0-.27-1.56,1.42,1.42,0,0,0-1-.55,7.74,7.74,0,0,0-1.39-.09,14.08,14.08,0,0,0-1.73.08,2.33,2.33,0,0,0-.9.28c-.41.25-.61.78-.61,1.6a2.51,2.51,0,0,0,.26,1.3c.19.34.66.54,1.4.61.23,0,.93.08,2.1.14a20.81,20.81,0,0,1,2.63.26,3,3,0,0,1,2.19,1.47,5.63,5.63,0,0,1,.39,2.42,8.93,8.93,0,0,1-.21,2.18,2.74,2.74,0,0,1-.69,1.27,4,4,0,0,1-2.46,1c-.71.07-1.55.1-2.52.1a14.85,14.85,0,0,1-3.75-.31,2.77,2.77,0,0,1-1.92-1.78,9.15,9.15,0,0,1-.29-2.68h2.71a8.19,8.19,0,0,0,.07,1.23,2,2,0,0,0,.27.67,1.52,1.52,0,0,0,1.23.57c.24,0,.9,0,2,0a8.05,8.05,0,0,0,1.66-.12,1.52,1.52,0,0,0,.8-.44,2.73,2.73,0,0,0,.36-1.69c0-.89-.27-1.44-.81-1.63a18,18,0,0,0-2.8-.28c-1.23-.07-2-.14-2.41-.21a3.39,3.39,0,0,1-2.42-1.29,5.19,5.19,0,0,1-.58-2.75c0-1.69.39-2.81,1.16-3.38a4.61,4.61,0,0,1,2.34-.77c.72-.07,1.52-.1,2.41-.1a14,14,0,0,1,3.12.24,2.83,2.83,0,0,1,2.12,1.77,5.33,5.33,0,0,1,.28,1.9Z"/><path class="cls-2" d="M248.76,657.73a10.32,10.32,0,0,1,3.79.5,4.06,4.06,0,0,1,2.35,3.35,25.17,25.17,0,0,1,.15,3.47,30,30,0,0,1-.14,3.61,5.43,5.43,0,0,1-.71,2.14,3.42,3.42,0,0,1-1.47,1.25,6.7,6.7,0,0,1-2.4.54q-.89.06-2,.06a17.17,17.17,0,0,1-2.57-.15,5.16,5.16,0,0,1-1.61-.51,3.62,3.62,0,0,1-1.75-2.1,7.6,7.6,0,0,1-.36-2.23c0-.55,0-1.21,0-2a32.88,32.88,0,0,1,.15-4,5.32,5.32,0,0,1,.75-2.15,3.6,3.6,0,0,1,1.54-1.26,6,6,0,0,1,2.25-.5C247.23,657.75,247.94,657.73,248.76,657.73Zm-.33,2.42a7.17,7.17,0,0,0-2.43.26q-1,.4-1.14,2.16c0,.38,0,1.46,0,3.24,0,1,0,1.64,0,2a4.11,4.11,0,0,0,.34,1.45,1.39,1.39,0,0,0,.74.71,8.25,8.25,0,0,0,2.67.27A7.25,7.25,0,0,0,251,670c.62-.28,1-1,1.12-2.19,0-.33.05-1.34.05-3,0-1.16,0-1.9,0-2.22a4.3,4.3,0,0,0-.33-1.43,1.48,1.48,0,0,0-.75-.71,3.41,3.41,0,0,0-1.2-.24Q249.33,660.15,248.43,660.15Z"/><path class="cls-2" d="M259.13,672.52V657.86h7.2a6.65,6.65,0,0,1,3.1.55,3,3,0,0,1,1.45,1.8,7.58,7.58,0,0,1,.21,2,8.53,8.53,0,0,1-.24,2.36,2.33,2.33,0,0,1-1.45,1.56,6.59,6.59,0,0,1-1,.24v.11c1.69.1,2.52,1,2.49,2.84v3.2h-2.84v-2.64a2.4,2.4,0,0,0-.54-1.77,2.27,2.27,0,0,0-1.67-.47h-3.94v4.88Zm2.81-7.28h3.94a2.82,2.82,0,0,0,1.79-.44,1.59,1.59,0,0,0,.5-1,6.51,6.51,0,0,0,.06-1.09,5.71,5.71,0,0,0-.14-1.54,1.34,1.34,0,0,0-1.2-.87,6,6,0,0,0-.82-.05h-4.13Z"/><path class="cls-2" d="M275.51,672.52V657.86h7.24a6.61,6.61,0,0,1,3,.47,2.58,2.58,0,0,1,1.19,1.56,6.3,6.3,0,0,1,.22,1.86,4.76,4.76,0,0,1-.25,1.76A2.48,2.48,0,0,1,285,665v0a3.69,3.69,0,0,1,1.48.5c.69.47,1,1.46,1,3,0,1.74-.45,2.9-1.37,3.48a5.89,5.89,0,0,1-3,.57Zm2.81-8.5h3.41a4.61,4.61,0,0,0,1.95-.26c.43-.25.65-.83.65-1.73a2.61,2.61,0,0,0-.19-1.17,1.14,1.14,0,0,0-1-.63q-.29,0-.87,0h-4Zm0,6.16h3.05a8.17,8.17,0,0,0,2.59-.24,1.23,1.23,0,0,0,.65-.86,4.75,4.75,0,0,0,.06-.87,3.6,3.6,0,0,0-.18-1.33,1.36,1.36,0,0,0-1.22-.75c-.23,0-.7,0-1.39,0h-3.56Z"/><path class="cls-2" d="M297.7,657.73a10.23,10.23,0,0,1,3.78.5,4,4,0,0,1,2.35,3.35,25.17,25.17,0,0,1,.15,3.47,27.91,27.91,0,0,1-.14,3.61,5.28,5.28,0,0,1-.71,2.14,3.42,3.42,0,0,1-1.47,1.25,6.64,6.64,0,0,1-2.39.54q-.9.06-2,.06a17.07,17.07,0,0,1-2.57-.15,5.16,5.16,0,0,1-1.61-.51,3.55,3.55,0,0,1-1.75-2.1,7.58,7.58,0,0,1-.37-2.23q0-.82,0-2a32.88,32.88,0,0,1,.15-4,5.17,5.17,0,0,1,.74-2.15,3.63,3.63,0,0,1,1.55-1.26,5.93,5.93,0,0,1,2.24-.5C296.17,657.75,296.87,657.73,297.7,657.73Zm-.33,2.42a7.13,7.13,0,0,0-2.43.26q-1,.4-1.14,2.16c0,.38,0,1.46,0,3.24,0,1,0,1.64,0,2a4.38,4.38,0,0,0,.33,1.45,1.42,1.42,0,0,0,.74.71,8.37,8.37,0,0,0,2.68.27A7.22,7.22,0,0,0,300,670c.62-.28,1-1,1.12-2.19,0-.33.06-1.34.06-3,0-1.16,0-1.9-.05-2.22a4.07,4.07,0,0,0-.33-1.43,1.5,1.5,0,0,0-.74-.71,3.51,3.51,0,0,0-1.2-.24Q298.26,660.15,297.37,660.15Z"/><path class="cls-2" d="M321.67,657.86v14.66H317l-4.2-8c-.23-.45-.72-1.5-1.45-3.16l-.47-1.05h-.1l0,1q.06,1.46.06,2.88v8.41h-2.76V657.86h4.7l3.82,7.43c.4.8,1,2,1.73,3.59l.56,1.21h.1l0-1c0-.95-.05-1.89-.05-2.84v-8.44Z"/><path class="cls-2" d="M340.06,657.86v14.66h-4.72l-4.2-8c-.23-.45-.72-1.5-1.46-3.16l-.46-1.05h-.1l0,1q.06,1.46.06,2.88v8.41h-2.76V657.86h4.7l3.82,7.43c.4.8,1,2,1.73,3.59l.56,1.21h.09l0-1c0-.95-.05-1.89-.05-2.84v-8.44Z"/><path class="cls-2" d="M347.36,660.2V664h6.85v2.07h-6.85v4.13h7.29v2.34h-10.1V657.86h10v2.34Z"/><path class="cls-2" d="M406.73,552.69a5.51,5.51,0,0,1,2.93.86,5.59,5.59,0,0,1,2.12,2.3,5.76,5.76,0,0,1,.63,2.63,5.62,5.62,0,0,1-.44,2.21,5.75,5.75,0,0,1-1.24,1.88,5.83,5.83,0,0,1-1.88,1.25,5.78,5.78,0,0,1-7.53-3.13,5.58,5.58,0,0,1-.44-2.2,5.83,5.83,0,0,1,.84-3,5.67,5.67,0,0,1,2.32-2.12A5.8,5.8,0,0,1,406.73,552.69Zm-.14.81a4.87,4.87,0,0,0-3.4,1.45,4.94,4.94,0,0,0-1.44,3.52,4.84,4.84,0,0,0,1.44,3.53,4.85,4.85,0,0,0,6.92,0,5,5,0,0,0,1.05-5.44,4.86,4.86,0,0,0-4.57-3.06Zm1.52,5.77h1.37v.27a3.11,3.11,0,0,1-.2,1.32,1.57,1.57,0,0,1-1.22.78,9.52,9.52,0,0,1-1.36.06,5.77,5.77,0,0,1-1.7-.17,1.69,1.69,0,0,1-1.1-1.42,18.52,18.52,0,0,1-.09-2.22,5.94,5.94,0,0,1,.13-1.43,1.57,1.57,0,0,1,.48-.77,2,2,0,0,1,.87-.44,9,9,0,0,1,1.75-.11,4.93,4.93,0,0,1,1.32.12,1.43,1.43,0,0,1,1,1.3c0,.14,0,.42,0,.85h-1.36v-.22c0-.39-.1-.65-.25-.75a2,2,0,0,0-1-.14,2.39,2.39,0,0,0-1.36.23,1.32,1.32,0,0,0-.25.84v.8a10.41,10.41,0,0,0,.08,1.74.7.7,0,0,0,.6.58,4.64,4.64,0,0,0,.77,0,2.35,2.35,0,0,0,1.24-.2.9.9,0,0,0,.2-.7C408.12,559.54,408.12,559.41,408.11,559.27Z"/><path class="cls-3" d="M457.54,24.37c-16.87-12.57,8.87-7,15.67-5.46,1.26.27,2.19.69,2.37-1.31-.49-4.29,13.56,1,16.17,1,4.19,1.56,3.29-3.07,7.63-1.17,8.26,2.95,16,7.08,24.6,8.56,11.15,3.82,23.12,6.9,32.71,13.88,9.64,6.69,17.32,15.73,27.44,21.71A7.59,7.59,0,0,0,588,62.67a23.32,23.32,0,0,1,13.24,5.7C605.6,72,610,75.66,611.66,81.44c3.15,11.06,3,22.66.52,34-3.74,14.51-13.38,25.78-23.31,36.4-2.44,2.21,2,3.48-1.86,8.75-13.38,18.69-37.3,24.5-53.88,39.37a280,280,0,0,0-21,22.85c-3.57,2.94-7.64,18-12.54,15.65-3.62-2.53.44-6.75,0-10.59a24.14,24.14,0,0,0-5.33,7.8c-2.78,5.78-6.43,11.21-7.69,17.67-.5,4-5.06,4.26-6.41.54A230.49,230.49,0,0,0,447,204.91a142.61,142.61,0,0,0-28.83-25.29c-18.65-14.33-38-27.64-60.58-35.06-1.72-.32-2-1.73-.11-2.32,8.82-4.81,16.34-11.5,23.47-18.5,2.89-2.58-7.05-.69-8.31-1.67-2.3-.59-2.54-1.11-.79-2.83,2.33-2.29,4.77-4.45,7.22-6.6A33.13,33.13,0,0,0,385.3,105c-16.84,6.93-33.37,14.16-51.15,18.61-11.79,2.88-23.81,4.84-35.68,7.42a47.47,47.47,0,0,1-12.88.43c-8.75-.77-17.56,1.32-26.29.31-16.32-2.28-68.14-5.15-64.46-29a68.65,68.65,0,0,1,9.09-25.22c4.95-8.88,13.92-12.86,22.54-17.61-3.21-1.27-10.65,2.27-11.62-.25-1.61-4.58,10.13-8.09,13.39-9.5-14.66-6.51-19.3-25.57-2.77-32.65C241.18,10,258.36,4.47,275.83,3.43,289.77,2,303.76-.85,317.87.24a289.27,289.27,0,0,1,76.37,16c13.94,3.53,27.21,9.48,40.35,15,.24-.66-.26-1-.55-1.48q-3.63-5.51-7.29-11c-1.56-1.53-.1-2.92,1.69-2,6.39,2.07,12.38,5.31,19.05,6.56C450.68,23.88,453.85,24.65,457.54,24.37Zm-237,3.31a2.92,2.92,0,0,0,2-.66c4.45-3,9.51-4.74,14.13-7.35,1.16-.66,1.8-.44,1.9,1.07.51,1.46-.12,7.75,2.58,5.67,18.37-11.65,3-6.36,22.58,1.87,4.31,1.53,3.68-5.13,4.84-7.67.38-3.35,8,2.46,9.6,3.23,5.8,4.4,7.08-5.51,11.39-2.24,15.34,9.54,34.81,8,50.79.48a2.37,2.37,0,0,1,2,.16,90.31,90.31,0,0,1,11.91,5.59c4.17,2.33,9,3,13.46,4.57,16.56,6,34.18,5.86,51.35,8.62.69.14,1.67-.24,1.78,1,.16,2.74-5.74,2.57-7.69,2.93-21.93-1.5-43.86-3.75-65.74-5.54-4.91-1.6-9.62.25-14.33-.93-6.44-1.45-12.95-.86-19.43-1-4.73-.7-9.33,0-13.91.81-16.15,3.26-32.84,5.22-48.43,10.58a79.71,79.71,0,0,1-19.67,5c-2.16.27-4.49.34-6.9,2.1,23.37-.71,2.91,9.35-5.33,13.76-9.47,4.93-14.24,14.81-16.56,24.8-1.1,2.78,1.23,4.26,3.58,2.4,1.61-.89,14.09-8.85,12.17-2.83-1,4.59-2.68,16.39,3.55,17.71a93.24,93.24,0,0,0,18.3-2.31c2.59-.23,15.43-5.18,13.85.64-.88,3.14-1.77,6.27-2.61,9.42-1,2.1-.16,3.11,2,1.64,13.73-8.06,28-11.42,43.62-7.87,18.07,3.47,37.67,6.67,55.28-.67,7.42-3.36,15.44-5.23,22.65-9.17,5.92-3.23,12.27-5.53,18.38-8.35,1.44-.66,2.8-.77,3.8.65,2.07,3.31-3.19,4.61-4,7,.15.52.7.41,1.09.38,6.28-.83,12.59,0,18.88-.73a5.45,5.45,0,0,1,3.93.5c.4.27.93.54.8,1.14s-.67.48-1.05.57c-2.66.75-15.63,3.18-15.25,6.6.26.63.8.4,1.29.26,10.75-2.49,21.84-5.17,32.92-3.54-.55,1-1.38,1-2.08,1.28-3.44,1.31-6.89,2.6-10.33,3.92s-1.71,4.24,1.27,4.57a22.34,22.34,0,0,0,11.13-.45c.5-.15,1.06-.64,1.57,0,1,4.65-4.58,7.64-7.6,10.3-2.6,1.93.34,3.77,2.55,3.38,6.15.35,10.47,3.61,14,8.69-7.76-.86-13.89,3.44-20.35,6.8-.54.26-1.3.73-1.17,1.38s1.06.49,1.66.62c2.32.5,2.52.8,1.53,2.8-.59,1.21.14,1.26,1,1.47A98.93,98.93,0,0,1,439.9,156a87.21,87.21,0,0,1,10,4.15c3.17,1.43-2.8,3.32-4,4.64a8.05,8.05,0,0,0,1.79.57c5,.14,9.17,2.63,13.35,5.06,4.72,2.43-10.49,8.64-12.5,9.33s-2.18,2.13-.15,2.69a107.14,107.14,0,0,1,12.44,8.13c6,3.59-15.21,2.85-16.89,3,37.46,41.61,16.8,33.2,36.5,13.08,1-1.16,1.62-1.18,2.6.09,1.56,2,3.33,3.86,5,5.75,2.06,2.11,4.3-1,3.16-3.14-.53-2.3-2.74-10.33-.74-11.85,7.07-2.58,14.32-3.49,21.82-3.87,7.34-.53-2.3-6.1,3.36-6,14.28-.31,28.42-3.05,41.24-9.49,8.57-3.91,15.78-10,23.59-15.13a13.1,13.1,0,0,0,4-4.38c.76-1.07.39-1.9-.93-1.33-4.31.85-8.51.13-12.85-.12a2.08,2.08,0,0,1-2.21-1.68c-.34-2.91,8.62-4.25,11-5.74,6.47-2.58,12.58-5.65,16.11-12.14,7.34-9.18,13.56-18.94,14.41-31.1,1.92-14.31-22.68-9.07-30.35-16.65-2.1-1.69-3-3.2-2.49-5.94.3-1.47.9-2.72,2.51-2.64s2.46,1.27,2.61,2.88c.05.58.05,1.16.62,1.49,3.77,3.32,9,3.28,13.67,4.58a2,2,0,0,0,2-.44,22.06,22.06,0,0,1,7.09-4.23c1.08-.46,1.09-1.16,1-2-2.33-11.31-16.66-14.38-26.24-10.63-2,.88-4-.92-2.32-2.68.88-1.37.2-1.86-1-2.19a14.46,14.46,0,0,1-6.28-3.43c-2.09-2.49-14.41-4-14.53-5.91.07-2.25,7.26-1,4.63-4.49a4.13,4.13,0,0,0-2.33-1.73c-6.3-2-13.31-2.7-17.85-8.16a34.09,34.09,0,0,0-3.11-2.88c-.4-.37-1.14-.63-.91-1.28.55-1.65,6.49.08,7.26-1.69-6.67-4.53-16.12-4.73-24.09-4.93C508.49,34,510,26,501.83,22.74c.69,2.38,3.64,5.26,2.43,7.33-.73.71-1.35.05-1.88-.32-5.14-3.63-10.85-6.12-16.63-8.46-1.23-.46-6.09-2.62-5.81,0,.37,2.33-.93,3.34-3.13,2.47-6.1-2-12.17-4-18.74-3.43,2.1,1.63,10.33,7.39,3.8,7.91-9-.22-18.08-1.13-26.63-4.17,1.9,2.8,10.92,14.43,2.59,12.87-13.47-4.43-26.43-10.24-39.9-14.67-31.51-9.68-64.25-19-97.52-16.51-7.33-.08-14.29,1.94-21.56,2.65a81.93,81.93,0,0,0-26.44,4.49C241.45,16.69,228.69,18.68,220.55,27.68ZM608.24,94.61c-.1-1.59.52-5.32-2-4.11-1.81.91-1.89,1.13-.28,2.38C606.59,93.39,607,94.2,608.24,94.61Z"/><path class="cls-3" d="M111.6,555.53c-1.2,6.67-4,4-9,2.87-1.28-.37-2.21-.54-3.49.7-4.7,3-14.43,2-19.53-.34-5.93-2.21-13.81-2.5-17-9-.35-.78-1.31-.76-2.06-.88-3.5-.78-11.46-2.48-13-5.83,0-1.71-1.14-2-2.39-2.39-2.79-1.37-11.17-2.3-12-5a2.76,2.76,0,0,1,1.39-2.88c5-3-7.93-4.46-2.66-8.84,1.19-.95.72-1.27-.21-1.7-8.62-3.56-8.35-11.09-13.51-13.25-3-1.47-8.24-3.69-4.89-7.52a1,1,0,0,0-.08-1.46c-5.82-7.36-9.72-16-12.83-24.77-.8-2.06.35-3.48,2.53-3,2.34.57,4.67.26,7,.39,1.17.06,1.39-.42.85-1.39a25.36,25.36,0,0,1-2.72-8.67c-1.19-5.93,5.42-3.26,4-5.76-3.64-6.26-2.38-12.7-.63-19.14,1.86-4.12,3.92-23.45,10.12-13.18l.56-.33c.6-2.77-1.32-8.45,1-9.94,1.57-.93,2.7,0,3.74,1,3.13,3.18,6.91,5.55,10.49,8.45.47-1.52-.67-2.13-1.13-3C35,418.65,33,417,33.16,414.29c.14-4.06,4.08-3.25,6.9-3,1.39.09,2.63.27,2.61-1.91,0-1.37,1.41-1.81,2.67-1.94a44.72,44.72,0,0,1,27.87,6.22c4,2.43-3-6.73-3.23-7.68C65,391,94.9,415.28,98.22,417.32a5.23,5.23,0,0,1,2.48,5.32c-1,6.6.85,13.3-.23,19.94-1.35,21.53-2.09,43.53,3.45,64.55a82.68,82.68,0,0,0,12.63,27.49,47.88,47.88,0,0,0,9.87,9.93c2.72,2.09,2.84,3.77.72,6.42C124.21,554.7,115.09,561.93,111.6,555.53Zm-99-62.72a19.44,19.44,0,0,0,5.71,7.43c.95.7,1.68,1.5,1.15,2.65-1.52,3,8.36,4.1,10.29,3.37,1-.22,2.18-.08,2.41,1.12.34,2-2.34,2.67-3.86,2.69-5.51-.62,6.15,9.78,7.64,10.36,6.76,4.3-6.48,5,3.36,7.15A3.16,3.16,0,0,1,41.69,530c1.18,2.46-6.34,3.94-3.09,5.21,4.06,1.24,8.1,2.55,12.15,3.8,1.23.38,1.88,1,1.35,2.32s.27,1.65,1.24,1.93c3.58.9,6.66,2.52,10.57,2.31-.9-3.15-7.17-13.32,0-11.82,2.27.71,3.57-2,1.47-3.15-4.91-3.43-10-7.05-12.77-12.51-1.14-1.55-.48-2.55,1.31-1.77,7.1,1.64,7.3-.48,3.48-5.82-1.81-3.66-4.33-7-5-11.21s-.36-8.35-1.45-12.41c-.39-1.44.45-1.63,1.49-1.49,5.18,1.79,9.82,5.32,14.49,7.85.43-.14.32-.58.27-.91-.55-3.48-.89-7-2.75-10.16s-3-7.06-5.15-10.24a1.94,1.94,0,0,1-.09-2.55c1-1.17,2.55-.54,3.77-.14,6.52,2.74-3.25-15-5.48-16-7.45-6,13.08-6.29,16.19-6.13,1.29,0,2-.42,1.63-1.71-.44-2.1-2.8-19.1.17-17.6,3.32,2.23,10.84-1.07,10.19-5.33-.14-5-1.32-5.65,5.32-3.79,2.08.59,3.86,1.88,6,2.79-1-1.91-19.14-13.93-21.39-14.32.52,3.24,7,8.58,4.84,11.79-.79.95-1.84.34-2.76,0-9.27-2.78-19.33-9.46-29-6.65,2.46,1.31.86,5.34-1.77,4.45-2.1-.5-4.24-.21-6.34-.54-.47-.07-1-.42-1.32.18,1.61,4.36,5.17,8.32,8,12.14,1.62,1.26.5,3.5-1.39,3.64-7.22-.25-12.77-6-18.92-9.32a38.35,38.35,0,0,0,3.14,15.5c.78,1.47,2,4.17-.12,5.07-2.78.83-3.77-6-5-7.86-.35-1.91-5.7-9.45-6.76-5.15s-2.19,8.35-3.23,12.54a15.8,15.8,0,0,0,2.82,14.22c3,3.86,5.72,7.92,8.57,11.89.91,1.25,1.16,2.46-.25,3.52-3.08,2.32-7.45-6.12-9.2-8.18a2.57,2.57,0,0,0-3.61-1.07c-2.8,1.4,8.23,16.47,10.15,18.16,1,1.14,1.76,2.32.33,3.69-2.52,2.31-5-1.82-6.44-3.66-3.21-4.31-3.2-4.32-8.61-4.24-4.68-.91.77,6.49,2,7.79,3.1,3,6,6.24,10.13,7.93a2.35,2.35,0,0,1,1.37,3.34C20.57,499.31,14.91,493.68,12.57,492.81Z"/><path class="cls-4" d="M220.55,27.68c8.12-9,20.91-11,31.86-14.77a81.93,81.93,0,0,1,26.44-4.49c7.27-.71,14.23-2.73,21.56-2.65,33.27-2.48,66,6.83,97.52,16.51,13.47,4.43,26.43,10.24,39.9,14.67,8.49,1.59-.9-10.19-2.59-12.87,8.55,3,17.62,4,26.63,4.17,6.53-.52-1.7-6.27-3.8-7.91,6.57-.61,12.64,1.4,18.74,3.43,2.2.87,3.5-.14,3.13-2.47-.29-2.63,4.59-.46,5.81,0,5.78,2.34,11.49,4.83,16.63,8.46.53.37,1.15,1,1.87.32,1.24-2.05-1.74-5-2.42-7.33A11.7,11.7,0,0,1,508,27.65c2.81,4.49,6.7,5.85,11.79,5.84,8,.18,17.43.41,24.09,4.93-.84,1.24-4.14.85-5.62,1-1.65,0-2.37,1.07-.73,2C542,46,546.7,49.86,553.17,50.9c2.53,1,5.94.93,7.63,3.26,2.63,3.47-4.56,2.27-4.63,4.49.11,1.92,12.49,3.46,14.53,5.91A14.46,14.46,0,0,0,577,68c1.25.33,1.93.82,1,2.19-1.72,1.77.43,3.56,2.32,2.68,9.57-3.74,23.94-.69,26.24,10.63.12.87.11,1.57-1,2a22.06,22.06,0,0,0-7.09,4.23,2,2,0,0,1-2,.44c-4.67-1.3-9.89-1.26-13.67-4.58-.57-.33-.57-.91-.62-1.49-.15-3.53-4.8-4-5.12-.24C576.09,99.57,613,89.93,610,106.47c-.86,12.16-7.07,21.92-14.41,31.1-3.53,6.49-9.64,9.56-16.11,12.14-2.33,1.51-11.31,2.79-11,5.74a2.1,2.1,0,0,0,2.22,1.68c4.33.25,8.54,1,12.85.12,1.27-.6,1.72.3.93,1.33a13.1,13.1,0,0,1-4,4.38c-7.81,5.13-15,11.22-23.59,15.13-12.82,6.43-27,9.18-41.24,9.49-5.66-.06,4,5.48-3.36,6-7.49.37-14.77,1.3-21.81,3.88-2.06,1.61.22,9.4.73,11.84,1.23,2-1.22,5.33-3.16,3.14-1.71-1.89-3.48-3.74-5-5.75-1-1.27-1.62-1.25-2.6-.09-19.71,20.13,1,28.52-36.5-13.08,1.62-.12,22.94.59,16.89-3a107.14,107.14,0,0,0-12.44-8.13c-2-.55-1.73-2.13.15-2.69s17.21-6.88,12.5-9.33c-4.18-2.43-8.31-4.92-13.35-5.06a8.05,8.05,0,0,1-1.79-.57c1.2-1.31,7.13-3.22,4-4.64a106.94,106.94,0,0,0-20.78-7.42c-3.45-.58,2.45-3.68-2.5-4.27-1.95.14-2.27-1.22-.49-2,3.84-1.82,7.33-4.34,11.4-5.7a22.46,22.46,0,0,1,8.95-1.1c-3.5-5.08-7.82-8.34-14-8.69-2.21.38-5.15-1.43-2.55-3.38,3-2.65,8.62-5.65,7.6-10.3-.51-.59-1.07-.1-1.57,0a22.34,22.34,0,0,1-11.13.45c-3-.32-4.8-3.25-1.27-4.57s6.89-2.61,10.33-3.92c.7-.27,1.53-.31,2.08-1.28-11.07-1.63-22.18,1-32.92,3.54-.49.14-1,.37-1.29-.26-.27-3.42,12.3-5.8,15.25-6.6.38-.09.94-.06,1.05-.57s-.4-.87-.8-1.14a5.45,5.45,0,0,0-3.93-.5c-6.29.73-12.6-.1-18.88.73-.39,0-.94.14-1.09-.38.84-2.4,6.07-3.7,4-7-1-1.42-2.36-1.31-3.8-.65-6.11,2.82-12.46,5.12-18.38,8.35-7.21,3.94-15.23,5.81-22.65,9.17-17.61,7.34-37.21,4.14-55.28.67-15.76-3.54-29.79-.21-43.61,7.87-1.81,1.32-3.15.69-2-1.65.84-3.14,1.73-6.27,2.61-9.41,1.59-5.77-11.12-.92-13.85-.64a93.24,93.24,0,0,1-18.3,2.31c-6.25-1.21-4.53-13.23-3.55-17.71,1.88-6-10.31,1.81-12.17,2.83-8.17,4.79-.44-11.87.63-14.41a30.12,30.12,0,0,1,12.35-12.79c8.37-4.51,28.71-14.44,5.33-13.76,2.41-1.76,4.74-1.83,6.9-2.1a79.71,79.71,0,0,0,19.67-5c15.59-5.36,32.28-7.32,48.43-10.58,4.58-.79,9.18-1.51,13.91-.81,6.48.09,13-.5,19.43,1,4.71,1.18,9.43-.67,14.33.93,21.88,1.79,43.81,4,65.74,5.54,2.33-.38,7.64-.2,7.69-2.93-.11-1.22-1.09-.84-1.78-1-17.17-2.76-34.79-2.64-51.35-8.62-4.48-1.54-9.29-2.24-13.46-4.57a90.31,90.31,0,0,0-11.91-5.59,2.37,2.37,0,0,0-2-.16c-16,7.51-35.45,9.06-50.79-.48-4.31-3.26-5.6,6.64-11.39,2.24-1.73-.84-9.16-6.55-9.6-3.23-1.2,2.52-.48,9.21-4.84,7.67-19.58-8.22-4.2-13.52-22.58-1.87-2.76,2.12-2-4.21-2.58-5.67-.1-1.51-.74-1.73-1.9-1.07-4.62,2.61-9.68,4.39-14.13,7.35A2.92,2.92,0,0,1,220.55,27.68ZM335.28,104c13.26-1.43,26-6.57,35.25-16.71,3.16-3.53,6.16-7.21,9.21-10.83.41-.48.89-1,.58-1.71s-1.1-.48-1.7-.53c-2.42-.2-4.8.33-7.2.43a87,87,0,0,1-43.3-10.26c-26.49-7.88-55.58-9.6-81.75.29-6,1.6-10.57,5.12-14.47,9.85a68.88,68.88,0,0,1-8.48,8.94c-.56.47-1.64.71-1.23,1.69,2.92,2.19,10.54-1.93,13.11-4.07,9.5-7.64,22.13-15.36,33.53-6.78,9.54,5.48,19.29,10.57,29.14,15.41C310.07,95.31,321.79,102.52,335.28,104ZM485.13,92.6c1.66-.47,2.71.4,3.89,2.12,7.75,12.61,25,11.73,36,4.16,2.75-1.92,5.27-3.33,8.79-2.5,5.74-.51,6.89-8.57,1.43-10.29a4.47,4.47,0,0,1-2.93-4.29c-.66-14.07-18.8-19.24-30.68-17.72-8.11.88-15.15,7-16.26,15.19-.61,2.15-1.43,3.54-3.57,4.41-2.4,1-3,2.52-2.41,5C480.24,92.1,481,92.64,485.13,92.6Zm22.05,50.89c8.45-.77,14.9-6,22.36-9.44,14.6-6.9,29.08-14.12,44.47-19.15,11.4-5.88,18.23.89,19.19-4.32-4.87-8.22-44,9.16-51.67,13.21-10.28,5.09-20.59,10.16-30.59,15.8A9.93,9.93,0,0,0,507.18,143.49Zm-31-88.62c1.11-5.16-4.42-5.92-5.36-1.38C469.6,57,465.61,69.16,470,71c4.72,1.27,5.39-8.65,9.33-7.95s8-7.09,11.8-9c2.66-1.92,5-4.39,8.61-4.68a2.24,2.24,0,0,0,2-2.2c-2.07-8.08-12.31,1.84-15.76,4.34C482.74,55.3,482.27,45.58,476.15,54.87Zm96.5,74.36c1.84-.31,4.71.91,5.27-1.34a1.83,1.83,0,0,0-1.81-2c-3.94-.5-7.69-.67-11.5,1.44-16.48,9.1-30.93,21.12-45.79,32.5-1.71.8-1.11,2.5.74,1.54C533.66,157.63,560.19,128.55,572.65,129.23Zm-35.22,45c6.7-2.06,10.8-8.77,15.52-13.55,4.82-5.19,9.46-10.54,15-15.06,4.4-3.63,9.66-5.58,14.78-7.79,1.19-.51,2.12-1.09,1.73-2.46-.46-1.56-1.77-1.14-2.84-.83-10.06,2.68-18.16,9.86-25.57,16.91-5,5.19-9.58,10.81-14.78,15.84C539.34,169.13,537.51,171.19,537.43,174.23Z"/><path class="cls-4" d="M608.24,94.61c-1.23-.41-1.65-1.22-2.32-1.73-1.61-1.25-1.53-1.47.28-2.38C608.76,89.29,608.14,93,608.24,94.61Z"/><path class="cls-4" d="M12.57,492.81c2.36.9,8,6.47,9.78,3.5A2.35,2.35,0,0,0,21,493c-4.17-1.69-7-4.93-10.13-7.93-1.27-1.3-6.71-8.67-2-7.79,5.41-.08,5.4-.07,8.61,4.24,1.48,1.84,3.92,6,6.44,3.66,1.43-1.37.66-2.55-.33-3.69-1.86-1.61-13-16.79-10.15-18.16A2.57,2.57,0,0,1,17,464.37c1.76,2.07,6.1,10.49,9.2,8.18,1.41-1.06,1.16-2.27.25-3.52-2.85-4-5.58-8-8.57-11.89a15.8,15.8,0,0,1-2.82-14.22c1-4.19,2.22-8.34,3.23-12.54,1.06-4.37,6.45,3.36,6.76,5.15,1.17,1.83,2.2,8.74,5,7.86,2.13-.91.9-3.58.12-5.07A38.35,38.35,0,0,1,27,422.82c6.15,3.35,11.71,9.07,18.92,9.32,1.89-.14,3-2.37,1.39-3.64-2.82-3.81-6.38-7.78-8-12.14.33-.6.85-.25,1.32-.18,2.1.33,4.24,0,6.34.54,2.63.89,4.23-3.14,1.77-4.45,9.69-2.81,19.74,3.86,29,6.65.92.33,2,.94,2.76,0,2.2-3.2-4.32-8.56-4.84-11.79,2.25.39,20.41,12.41,21.39,14.32-20-9.51-6.12,1.12-14,5.45-2.48,1.23-4.73,2.59-7.53.88-3-1.63-.59,15.8-.17,17.6.34,1.29-.34,1.74-1.63,1.71-3.08-.18-23.66.18-16.19,6.13,2.14.87,12,18.78,5.48,16-1.22-.4-2.74-1-3.77.14a1.94,1.94,0,0,0,.09,2.55c2.19,3.18,3.22,6.94,5.15,10.24,1.25,2,3.36,9.25,2.48,11.07-4.67-2.53-9.31-6.06-14.49-7.85-1-.14-1.88.05-1.49,1.49,1.09,4.06.84,8.29,1.45,12.41,1.09,5.4,4.3,10,7.08,14.64,2.14,3.71-3.56,3.08-5.61,2.39-1.83-.81-2.43.26-1.31,1.77,2.82,5.46,7.86,9.08,12.77,12.51,2.09,1.14.8,3.91-1.47,3.15-7.13-1.41-.89,8.55,0,11.82-3.91.21-7-1.41-10.57-2.31-1-.28-1.75-.66-1.24-1.93S52,539.39,50.75,539c-4-1.25-8.09-2.56-12.15-3.8-3.25-1.26,4.27-2.76,3.09-5.21-.45-2.52-3.33-2.51-5.27-3.22-1-.36-1.57-1-.29-1.72,6-3.18-5.2-6.27-8.75-13-3.09-3.77,5-.3,4.75-4.67-.23-1.2-1.39-1.34-2.41-1.12-1.93.72-11.83-.38-10.29-3.37.53-1.15-.2-1.95-1.15-2.65A19.44,19.44,0,0,1,12.57,492.81Z"/><path class="cls-3" d="M335.28,104C321.8,102.52,310.07,95.3,298,89.75c-9.85-4.84-19.6-9.93-29.14-15.41-11.38-8.57-24-.86-33.53,6.78-2.7,2.2-10.14,6.24-13.11,4.07-.41-1,.67-1.22,1.23-1.69a68.88,68.88,0,0,0,8.48-8.94c3.9-4.73,8.43-8.25,14.47-9.85,26.17-9.89,55.26-8.17,81.75-.29a87,87,0,0,0,43.3,10.26c2.4-.1,4.78-.63,7.2-.43.6,0,1.36-.23,1.7.53s-.17,1.23-.58,1.71c-3.05,3.62-6.05,7.3-9.21,10.83C361.29,97.46,348.53,102.6,335.28,104Z"/><path class="cls-3" d="M485.13,92.6c-4.16,0-4.89-.5-5.7-4-.56-2.44,0-4,2.41-5,2.14-.87,3-2.26,3.57-4.42,1.12-8.21,8.14-14.31,16.26-15.17,11.88-1.54,30,3.65,30.68,17.7a4.48,4.48,0,0,0,2.93,4.3c5.45,1.72,4.33,9.79-1.43,10.29-3.53-.84-6,.58-8.79,2.5-11.08,7.57-28.29,8.45-36-4.16C487.84,93,486.79,92.13,485.13,92.6Zm11.58-13.53c-.75.32-2,.27-1.53,1.83.26,3,2,12,6.53,9.39.93-.9-.08-1.36-.55-1.86a10.54,10.54,0,0,1-1.46-2.06C498.21,84.63,499,79.33,496.71,79.07Zm21.7,4.48c0-2.52-2.18-5.06-4.35-4.87-1.85.16-1.31,1.95-1.45,3C512.32,84.66,518.25,87.94,518.41,83.55ZM534,90.76c-1.23-.29-1.75-1.32-2.79-.72a.71.71,0,0,0-.17,1.11C531.85,92,532.68,91.63,534,90.76Z"/><path class="cls-3" d="M507.18,143.49a9.93,9.93,0,0,1,3.76-3.9c10-5.64,20.31-10.71,30.59-15.8,7.7-4,46.73-21.43,51.67-13.21-.88,5.18-7.82-1.54-19.19,4.33-15.39,5-29.87,12.24-44.47,19.15C522.08,137.47,515.62,142.72,507.18,143.49Z"/><path class="cls-3" d="M476.15,54.87c6.13-9.29,6.59.44,9.81-3.32,3.72-2.49,9.68-9.27,14.38-6.78,2.09,1,1.7,4.43-.61,4.64-7,1.46-11.73,7.54-16.64,12.26-1.07,1.08-2.27,1.86-3.77,1.41-3.93-.71-4.61,9.21-9.33,7.94-4.4-2-.39-13.92.8-17.53C471.73,49,477.26,49.71,476.15,54.87Z"/><path class="cls-3" d="M572.65,129.23c-12.5-.65-39,28.39-53.09,32.16-1.71.91-2.57-.65-.74-1.54,14.86-11.38,29.32-23.4,45.79-32.5,3.81-2.11,7.56-1.94,11.5-1.44a1.83,1.83,0,0,1,1.81,2C577.38,130.13,574.47,128.93,572.65,129.23Z"/><path class="cls-3" d="M537.43,174.23c.08-3,1.91-5.1,3.8-6.94,5.2-5,9.76-10.65,14.79-15.84,7.4-7,15.5-14.23,25.56-16.91,1.07-.31,2.38-.73,2.84.83.39,1.37-.54,1.95-1.73,2.46-5.12,2.21-10.38,4.16-14.78,7.79-5.5,4.52-10.14,9.87-15,15.06C548.23,165.46,544.13,172.17,537.43,174.23Z"/><path class="cls-4" d="M496.71,79.07c2.28.24,1.51,5.57,3,7.3a10.54,10.54,0,0,0,1.46,2.06c.47.5,1.48,1,.55,1.86-4.53,2.6-6.27-6.39-6.53-9.39C494.75,79.34,496,79.39,496.71,79.07Z"/><path class="cls-4" d="M518.41,83.55c-.16,4.39-6.1,1.11-5.8-1.83.14-1.09-.4-2.88,1.45-3C516.23,78.49,518.36,81,518.41,83.55Z"/><path class="cls-4" d="M534,90.76c-1.33.87-2.16,1.26-3,.39a.71.71,0,0,1,.17-1.11C532.26,89.44,532.78,90.47,534,90.76Z"/></g></g></svg>