<svg id="content" xmlns="http://www.w3.org/2000/svg" viewBox="0 0 402.91 171.08"><defs><style>.cls-1{fill:#1d2769;}.cls-2{fill:#e6332a;}</style></defs><path class="cls-1" d="M54.92,59h4.73V48.63a2.37,2.37,0,1,0-4.73,0Z"/><path class="cls-1" d="M45,59h4.73V48.63a2.37,2.37,0,1,0-4.73,0Z"/><path class="cls-1" d="M64.88,59h4.73V48.63a2.37,2.37,0,1,0-4.73,0Z"/><path class="cls-1" d="M58.47,20.72A5.28,5.28,0,0,1,62.8,26v4h2.88v2.29c7.54,3.56,12.89,11.48,12.89,19.61,0,0,0,.1,0,.16v7H96V51.93C95.63,29,79.35,15,57.85,14.68Z"/><path class="cls-1" d="M55.17,25.86V30h4.24V25.86a2.12,2.12,0,1,0-4.24,0"/><path class="cls-1" d="M60.49,70.24c-18-4.62-24.73-8.55-24.73-20,0-8.21,5.46-15.28,13.13-18.3V30h2.9V26a5.27,5.27,0,0,1,4.45-5.29l.59-6c-21.67.17-40.11,15.27-39.23,35.57,1,22.73,25.82,29.09,39.2,31.95,10.53,2.24,35.86,8.19,42.13,26.09,0,0,2.35-29.62-38.44-38"/><path class="cls-1" d="M54.5,101.78c18.15,5.55,22.8,12.3,22.8,21.89,0,14.62-11.29,20.63-25.45,20.63a45.68,45.68,0,0,1-33-14.57s-2.9,6-2.9,6c5.71,10.82,21.75,20.67,39.66,20.67h0c22.93.2,42.43-10.57,42.43-32.27,0-23.28-25.29-32.4-39.33-35.53-11.05-2.46-38.92-9.82-43.88-25.45,0,0-5.53,27.09,39.61,38.63"/><path class="cls-2" d="M123.88,145.68a5.65,5.65,0,0,0,3.53,1.5c1.07,0,2.05-.56,2.05-1.72,0-2.54-6.68-2.1-6.68-6.46,0-2.36,2-4.12,4.75-4.12a6,6,0,0,1,4.23,1.52l-1.12,2.1a5.18,5.18,0,0,0-3.13-1.24c-1.2,0-2.14.7-2.14,1.7,0,2.52,6.66,1.9,6.66,6.44,0,2.26-1.71,4.16-4.66,4.16a6.86,6.86,0,0,1-4.89-1.94Z"/><path class="cls-2" d="M140.93,134.88a7.16,7.16,0,0,1,7.31,7.24,7.32,7.32,0,1,1-14.63,0A7.16,7.16,0,0,1,140.93,134.88Zm0,12.32a4.8,4.8,0,0,0,4.66-5.08,4.67,4.67,0,1,0-9.33,0A4.8,4.8,0,0,0,140.93,147.2Z"/><path class="cls-2" d="M150.83,135.12h4.57a6.58,6.58,0,0,1,2.85.4,4,4,0,0,1,2.31,3.88,4.08,4.08,0,0,1-2.39,3.88v0a3.47,3.47,0,0,1,.48.7l2.91,5.3h-2.87l-2.81-5.3H153.4v5.3h-2.57Zm4.89,6.66a2.06,2.06,0,0,0,2.23-2.24c0-1.36-.58-2.2-2.59-2.2h-2v4.44Z"/><path class="cls-2" d="M163.93,135.12H169c2.56,0,4.37,1.32,4.37,3.66a3.37,3.37,0,0,1-1.71,3v0a3.33,3.33,0,0,1,2.29,3.34c0,2.84-2.27,4.12-4.89,4.12h-5.12Zm5.06,5.8a1.69,1.69,0,0,0,1.76-1.82,1.64,1.64,0,0,0-1.8-1.76H166.5v3.58Zm.26,6.18a2.05,2.05,0,1,0,0-4.1H166.5v4.1Z"/><path class="cls-2" d="M183.05,134.88a7.16,7.16,0,0,1,7.32,7.24,7.32,7.32,0,1,1-14.64,0A7.16,7.16,0,0,1,183.05,134.88Zm0,12.32a4.81,4.81,0,0,0,4.67-5.08,4.67,4.67,0,1,0-9.34,0A4.81,4.81,0,0,0,183.05,147.2Z"/><path class="cls-2" d="M193,135.12h2.57l5.36,8.2a21.52,21.52,0,0,1,1.18,2.2h0s-.14-1.36-.14-2.2v-8.2h2.55v14.2H202l-5.37-8.18a22.84,22.84,0,0,1-1.17-2.2h0s.14,1.36.14,2.2v8.18H193Z"/><path class="cls-2" d="M208.09,135.12h2.57l5.36,8.2a21.52,21.52,0,0,1,1.18,2.2h0s-.14-1.36-.14-2.2v-8.2h2.55v14.2H217.1l-5.36-8.18a21.52,21.52,0,0,1-1.18-2.2h0s.14,1.36.14,2.2v8.18h-2.57Z"/><path class="cls-2" d="M223.22,135.12h8.47v2.22h-5.9v3.72h4.77v2.22h-4.77v3.82H232v2.22h-8.79Z"/><path class="cls-2" d="M239.29,135.12h2.57v9.1a3.14,3.14,0,0,0,6.28,0v-9.08h2.57v9.1c0,3.18-2.29,5.34-5.7,5.34s-5.72-2.16-5.72-5.34Z"/><path class="cls-2" d="M254.08,135.12h2.57l5.37,8.2a20.63,20.63,0,0,1,1.17,2.2h0s-.14-1.36-.14-2.2v-8.2h2.56v14.2h-2.56l-5.36-8.18a21.52,21.52,0,0,1-1.18-2.2h0s.14,1.36.14,2.2v8.18h-2.57Z"/><path class="cls-2" d="M269.21,135.12h2.57v14.2h-2.57Z"/><path class="cls-2" d="M273.54,135.12h2.77l3.11,9.26c.28.82.52,2.08.54,2.08h0s.26-1.26.54-2.08l3.13-9.26h2.75l-5.17,14.2H278.7Z"/><path class="cls-2" d="M288.17,135.12h8.48v2.22h-5.91v3.72h4.77v2.22h-4.77v3.82H297v2.22h-8.8Z"/><path class="cls-2" d="M299.61,135.12h4.57a6.55,6.55,0,0,1,2.85.4,4,4,0,0,1,2.32,3.88,4.09,4.09,0,0,1-2.4,3.88v0a3.47,3.47,0,0,1,.48.7l2.91,5.3h-2.87l-2.81-5.3h-2.48v5.3h-2.57Zm4.89,6.66a2.06,2.06,0,0,0,2.23-2.24c0-1.36-.58-2.2-2.59-2.2h-2v4.44Z"/><path class="cls-2" d="M313,145.68a5.68,5.68,0,0,0,3.53,1.5c1.08,0,2.05-.56,2.05-1.72,0-2.54-6.68-2.1-6.68-6.46,0-2.36,2-4.12,4.75-4.12a6,6,0,0,1,4.23,1.52l-1.12,2.1a5.18,5.18,0,0,0-3.13-1.24c-1.2,0-2.13.7-2.13,1.7,0,2.52,6.66,1.9,6.66,6.44,0,2.26-1.72,4.16-4.67,4.16a6.86,6.86,0,0,1-4.89-1.94Z"/><path class="cls-2" d="M323.73,135.12h2.58v14.2h-2.58Z"/><path class="cls-2" d="M332.81,137.34h-4.65v-2.22H340v2.22h-4.65v12h-2.57Z"/><path class="cls-2" d="M341.88,135.12h8.47v2.22h-5.9v3.72h4.77v2.22h-4.77v3.82h6.22v2.22h-8.79Zm4.86-3.66h2.61l-2.09,2.72h-2Z"/><path class="cls-1" d="M138.15,84.8c8.36,0,13.09,5.83,13.09,13.69,0,.94-.22,3-.22,3H133.15c.72,3.47,3.58,5.06,6.6,5.06,4.07,0,7.81-2.86,7.81-2.86l3.52,6.66a19.16,19.16,0,0,1-12.1,4.12c-10.12,0-15.56-7.31-15.56-14.85C123.42,91.29,129,84.8,138.15,84.8ZM141.67,96A3.85,3.85,0,0,0,137.93,92c-2.75,0-4.06,2-4.56,4.07Zm-3.24-21.56h9.4l-6.49,8.25H134Z"/><path class="cls-1" d="M157.85,93.38h-3.63V86h3.9V77.82h9.24V86h5.94v7.42h-5.94v8.69c0,3.19,3.24,3.63,5.06,3.63a11.46,11.46,0,0,0,1.26-.06v8.25a17.66,17.66,0,0,1-2.58.17c-4.51,0-13.25-1.21-13.25-10.73Z"/><path class="cls-1" d="M178.86,85.46h9.51v16.61c0,2.64,1,3.74,3,3.74,4.07,0,6-3.58,6-7.81V85.46h9.51v28.32h-9.13v-2.47a14.88,14.88,0,0,1,.11-1.76h-.11c-1.54,3-5.06,4.89-8.85,4.89-5.61,0-10.06-2.64-10.06-10.61Z"/><path class="cls-1" d="M224.94,84.8c5.72,0,7.43,2.26,7.43,2.26h.11s-.06-.55-.06-1.27V74.46h9.52v39.32H233v-1.87c0-.88.05-1.59.05-1.59H233a9.45,9.45,0,0,1-8.19,4.12c-7.7,0-12.76-6-12.76-14.85C212,90.63,217.41,84.8,224.94,84.8Zm2.2,21.78c2.86,0,5.56-2.09,5.56-7,0-3.41-1.82-6.76-5.56-6.76-3,0-5.55,2.42-5.55,6.76S223.84,106.58,227.14,106.58Z"/><path class="cls-1" d="M249,85.46h9.51v28.32H249Zm.11-11h9.29v7.43h-9.29Z"/><path class="cls-1" d="M279.83,96.13h.39v-.5c0-2.36-1.82-3.13-4.18-3.13-3.58,0-7.65,2.69-7.65,2.69l-3.3-6.7A21.42,21.42,0,0,1,277,84.8c8,0,12.76,4.35,12.76,11.55v17.43H281v-1.7a14.88,14.88,0,0,1,.11-1.76H281s-2.09,4.12-8,4.12c-5.28,0-9.62-3.52-9.62-9.13C263.39,97.06,275.43,96.13,279.83,96.13Zm-4.18,11.05c2.48,0,4.68-2.69,4.68-5v-.61h-.88c-3,0-6.49.88-6.49,3.25C273,106.14,273.78,107.18,275.65,107.18Z"/><path class="cls-1" d="M296.33,85.46h9.13v2.48a15.1,15.1,0,0,1-.11,1.76h.11a10,10,0,0,1,9-4.9c5.72,0,10.18,2.64,10.18,10.61v18.37h-9.52V97.17c0-2.64-1-3.74-3.13-3.74a5.57,5.57,0,0,0-5.61,4.07,11.26,11.26,0,0,0-.55,3.74v12.54h-9.52Z"/><path class="cls-1" d="M332.74,93.38h-3.63V86H333V77.82h9.24V86h5.94v7.42h-5.94v8.69c0,3.19,3.24,3.63,5.06,3.63a11.46,11.46,0,0,0,1.26-.06v8.25a17.66,17.66,0,0,1-2.58.17c-4.51,0-13.26-1.21-13.26-10.73Z"/><path class="cls-1" d="M366.84,84.8c8.36,0,13.09,5.83,13.09,13.69,0,.94-.22,3-.22,3H361.84c.71,3.47,3.57,5.06,6.6,5.06,4.07,0,7.81-2.86,7.81-2.86l3.52,6.66a19.16,19.16,0,0,1-12.1,4.12c-10.12,0-15.57-7.31-15.57-14.85C352.1,91.29,357.71,84.8,366.84,84.8ZM370.36,96A3.85,3.85,0,0,0,366.62,92c-2.75,0-4.07,2-4.56,4.07Z"/><path class="cls-1" d="M128.7,44.93S133.15,49,138.1,49c2,0,4.12-.77,4.12-3.13,0-4.68-17.7-4.51-17.7-16.61,0-7.26,6.1-12,13.91-12,8.47,0,12.65,4.45,12.65,4.45L147,29.53s-4-3.46-8.69-3.46c-2,0-4.18.88-4.18,3.08,0,5,17.71,4.07,17.71,16.5,0,6.54-5,12.2-13.86,12.2a20.3,20.3,0,0,1-14.35-5.6Z"/><path class="cls-1" d="M171.65,39.54H172v-.49c0-2.37-1.81-3.14-4.18-3.14-3.57,0-7.64,2.7-7.64,2.7l-3.3-6.71a21.42,21.42,0,0,1,11.88-3.69c8,0,12.76,4.35,12.76,11.55V57.19h-8.69v-1.7a14.88,14.88,0,0,1,.11-1.76h-.11s-2.09,4.12-8,4.12c-5.28,0-9.62-3.51-9.62-9.12C155.21,40.48,167.25,39.54,171.65,39.54ZM167.47,50.6c2.47,0,4.67-2.7,4.67-5V45h-.88c-3,0-6.49.88-6.49,3.24C164.77,49.55,165.6,50.6,167.47,50.6Z"/><path class="cls-1" d="M188.15,28.87h9.13v2.48a15.1,15.1,0,0,1-.11,1.76h.11a10,10,0,0,1,9-4.9c5.72,0,10.17,2.64,10.17,10.62V57.19H207V40.59c0-2.64-1.05-3.74-3.14-3.74a5.58,5.58,0,0,0-5.61,4.07,11.49,11.49,0,0,0-.55,3.74V57.19h-9.51Z"/><path class="cls-1" d="M224.56,36.79h-3.63V29.37h3.91V21.23h9.23v8.14H240v7.42h-5.94v8.69c0,3.19,3.25,3.63,5.06,3.63.77,0,1.27,0,1.27,0V57.3a17.9,17.9,0,0,1-2.59.17c-4.51,0-13.25-1.21-13.25-10.72Z"/><path class="cls-1" d="M258.66,28.21c8.36,0,13.09,5.83,13.09,13.7,0,.93-.22,3-.22,3H253.65c.72,3.46,3.58,5.06,6.6,5.06,4.07,0,7.81-2.86,7.81-2.86l3.52,6.65a19.12,19.12,0,0,1-12.1,4.12c-10.12,0-15.56-7.31-15.56-14.84C243.92,34.7,249.53,28.21,258.66,28.21Zm3.52,11.22a3.86,3.86,0,0,0-3.74-4.07c-2.75,0-4.07,2-4.57,4.07Zm-3.25-21.55h9.41l-6.49,8.24h-7.37Z"/></svg>