<?xml version="1.0" encoding="UTF-8" standalone="no"?>
<svg
   xmlns:dc="http://purl.org/dc/elements/1.1/"
   xmlns:cc="http://creativecommons.org/ns#"
   xmlns:rdf="http://www.w3.org/1999/02/22-rdf-syntax-ns#"
   xmlns:svg="http://www.w3.org/2000/svg"
   xmlns="http://www.w3.org/2000/svg"
   viewBox="0 0 1333.3333 1333.3333"
   height="1333.3333"
   width="1333.3333"
   xml:space="preserve"
   id="svg2"
   version="1.1"><metadata
     id="metadata8"><rdf:RDF><cc:Work
         rdf:about=""><dc:format>image/svg+xml</dc:format><dc:type
           rdf:resource="http://purl.org/dc/dcmitype/StillImage" /></cc:Work></rdf:RDF></metadata><defs
     id="defs6"><clipPath
       id="clipPath18"
       clipPathUnits="userSpaceOnUse"><path
         id="path16"
         d="M 0,1000 H 1000 V 0 H 0 Z" /></clipPath><clipPath
       id="clipPath82"
       clipPathUnits="userSpaceOnUse"><path
         id="path80"
         d="M 0,1000 H 1000 V 0 H 0 Z" /></clipPath><clipPath
       id="clipPath98"
       clipPathUnits="userSpaceOnUse"><path
         id="path96"
         d="M 0,1000 H 1000 V 0 H 0 Z" /></clipPath><clipPath
       id="clipPath110"
       clipPathUnits="userSpaceOnUse"><path
         id="path108"
         d="M 0,1000 H 1000 V 0 H 0 Z" /></clipPath><clipPath
       id="clipPath122"
       clipPathUnits="userSpaceOnUse"><path
         id="path120"
         d="M 0,1000 H 1000 V 0 H 0 Z" /></clipPath><clipPath
       id="clipPath146"
       clipPathUnits="userSpaceOnUse"><path
         id="path144"
         d="M 0,1000 H 1000 V 0 H 0 Z" /></clipPath></defs><g
     transform="matrix(1.3333333,0,0,-1.3333333,0,1333.3333)"
     id="g10"><g
       id="g12"><g
         clip-path="url(#clipPath18)"
         id="g14"><g
           transform="translate(944.0682,500)"
           id="g20"><path
             id="path22"
             style="fill:#ffffff;fill-opacity:1;fill-rule:nonzero;stroke:none"
             d="m 0,0 c 0,-245.788 -199.25,-445.038 -445.038,-445.038 -245.788,0 -445.039,199.25 -445.039,445.038 0,245.788 199.251,445.038 445.039,445.038 C -199.25,445.038 0,245.788 0,0" /></g><g
           transform="translate(944.0682,500)"
           id="g24"><path
             id="path26"
             style="fill:none;stroke:#39434e;stroke-width:7.36499977;stroke-linecap:butt;stroke-linejoin:miter;stroke-miterlimit:10;stroke-dasharray:none;stroke-opacity:1"
             d="m 0,0 c 0,-245.788 -199.25,-445.038 -445.038,-445.038 -245.788,0 -445.039,199.25 -445.039,445.038 0,245.788 199.251,445.038 445.039,445.038 C -199.25,445.038 0,245.788 0,0 Z" /></g></g></g><text
       id="text30"
       style="font-variant:normal;font-weight:bold;font-stretch:normal;font-size:106.61852264px;font-family:Sansation;-inkscape-font-specification:Sansation-Bold;writing-mode:lr-tb;fill:#39434e;fill-opacity:1;fill-rule:nonzero;stroke:none"
       transform="matrix(0.15011369,0.93593306,0.98866874,-0.15857188,224.1899,499.7891)"><tspan
         id="tspan28"
         y="0"
         x="0">T</tspan></text>
<text
       id="text34"
       style="font-variant:normal;font-weight:bold;font-stretch:normal;font-size:106.0517807px;font-family:Sansation;-inkscape-font-specification:Sansation-Bold;writing-mode:lr-tb;fill:#39434e;fill-opacity:1;fill-rule:nonzero;stroke:none"
       transform="matrix(0.33951433,0.89042916,0.94060088,-0.35864461,233.4526,557.1611)"><tspan
         id="tspan32"
         y="0"
         x="0">É</tspan></text>
<text
       id="text38"
       style="font-variant:normal;font-weight:bold;font-stretch:normal;font-size:105.11612701px;font-family:Sansation;-inkscape-font-specification:Sansation-Bold;writing-mode:lr-tb;fill:#39434e;fill-opacity:1;fill-rule:nonzero;stroke:none"
       transform="matrix(0.52120833,0.80790744,0.85342948,-0.55057585,257.5737,618.0605)"><tspan
         id="tspan36"
         y="0"
         x="0">L</tspan></text>
<text
       id="text42"
       style="font-variant:normal;font-weight:bold;font-stretch:normal;font-size:103.95573425px;font-family:Sansation;-inkscape-font-specification:Sansation-Bold;writing-mode:lr-tb;fill:#39434e;fill-opacity:1;fill-rule:nonzero;stroke:none"
       transform="matrix(0.68819387,0.68666822,0.72535872,-0.72697095,288.9727,666.6729)"><tspan
         id="tspan40"
         y="0"
         x="0">É</tspan></text>
<text
       id="text46"
       style="font-variant:normal;font-weight:bold;font-stretch:normal;font-size:105.25027466px;font-family:Sansation;-inkscape-font-specification:Sansation-Bold;writing-mode:lr-tb;fill:#39434e;fill-opacity:1;fill-rule:nonzero;stroke:none"
       transform="matrix(0.82039217,0.49897353,0.52708842,-0.86661723,335.293,712.4663)"><tspan
         id="tspan44"
         y="0"
         x="0">S</tspan></text>
<text
       id="text50"
       style="font-variant:normal;font-weight:bold;font-stretch:normal;font-size:106.37741089px;font-family:Sansation;-inkscape-font-specification:Sansation-Bold;writing-mode:lr-tb;fill:#39434e;fill-opacity:1;fill-rule:nonzero;stroke:none"
       transform="matrix(0.91693902,0.24860823,0.2626159,-0.96860412,391.8921,747.7944)"><tspan
         id="tspan48"
         y="0"
         x="0">O</tspan></text>
<text
       id="text54"
       style="font-variant:normal;font-weight:bold;font-stretch:normal;font-size:106.7543869px;font-family:Sansation;-inkscape-font-specification:Sansation-Bold;writing-mode:lr-tb;fill:#39434e;fill-opacity:1;fill-rule:nonzero;stroke:none"
       transform="matrix(0.94641264,-0.02285527,-0.02414327,-0.99973878,472.7422,768.085)"><tspan
         id="tspan52"
         y="0"
         x="0">R</tspan></text>
<text
       id="text58"
       style="font-variant:normal;font-weight:bold;font-stretch:normal;font-size:106.31317139px;font-family:Sansation;-inkscape-font-specification:Sansation-Bold;writing-mode:lr-tb;fill:#39434e;fill-opacity:1;fill-rule:nonzero;stroke:none"
       transform="matrix(0.91179203,-0.26890178,-0.28405324,-0.9631676,541.7344,765.9419)"><tspan
         id="tspan56"
         y="0"
         x="0">B</tspan></text>
<text
       id="text62"
       style="font-variant:normal;font-weight:bold;font-stretch:normal;font-size:105.12500763px;font-family:Sansation;-inkscape-font-specification:Sansation-Bold;writing-mode:lr-tb;fill:#39434e;fill-opacity:1;fill-rule:nonzero;stroke:none"
       transform="matrix(0.80874762,-0.51975359,-0.54903967,-0.85431622,607.7539,746.9902)"><tspan
         id="tspan60"
         y="0"
         x="0">O</tspan></text>
<text
       id="text66"
       style="font-variant:normal;font-weight:bold;font-stretch:normal;font-size:104.39037323px;font-family:Sansation;-inkscape-font-specification:Sansation-Bold;writing-mode:lr-tb;fill:#39434e;fill-opacity:1;fill-rule:nonzero;stroke:none"
       transform="matrix(0.62918734,-0.73579488,-0.77725368,-0.66463889,677.5098,701.2544)"><tspan
         id="tspan64"
         y="0"
         x="0">N</tspan></text>
<text
       id="text70"
       style="font-variant:normal;font-weight:bold;font-stretch:normal;font-size:105.7873764px;font-family:Sansation;-inkscape-font-specification:Sansation-Bold;writing-mode:lr-tb;fill:#39434e;fill-opacity:1;fill-rule:nonzero;stroke:none"
       transform="matrix(0.39879427,-0.86812532,-0.91704042,-0.42126387,729.8828,639.1689)"><tspan
         id="tspan68"
         y="0"
         x="0">N</tspan></text>
<text
       id="text74"
       style="font-variant:normal;font-weight:bold;font-stretch:normal;font-size:106.56687164px;font-family:Sansation;-inkscape-font-specification:Sansation-Bold;writing-mode:lr-tb;fill:#39434e;fill-opacity:1;fill-rule:nonzero;stroke:none"
       transform="matrix(0.17585202,-0.9319078,-0.98441661,-0.18576035,762.5322,564.4492)"><tspan
         id="tspan72"
         y="0"
         x="0">E</tspan></text>
<g
       id="g76"><g
         clip-path="url(#clipPath82)"
         id="g78"><g
           transform="translate(908.5855,500)"
           id="g84"><path
             id="path86"
             style="fill:none;stroke:#ffd456;stroke-width:39.41799927;stroke-linecap:butt;stroke-linejoin:miter;stroke-miterlimit:10;stroke-dasharray:none;stroke-opacity:1"
             d="m 0,0 c 0,-226.191 -183.364,-409.556 -409.556,-409.556 -226.191,0 -409.555,183.365 -409.555,409.556 0,226.191 183.364,409.556 409.555,409.556 C -183.364,409.556 0,226.191 0,0 Z" /></g></g></g><text
       id="text90"
       style="font-variant:normal;font-weight:bold;font-stretch:normal;font-size:71.6190033px;font-family:Sansation;-inkscape-font-specification:Sansation-Bold;writing-mode:lr-tb;fill:#39434e;fill-opacity:1;fill-rule:nonzero;stroke:none"
       transform="matrix(0.94665941,0,0,-1,368.3813,195.1543)"><tspan
         id="tspan88"
         y="0"
         x="0 43.257877 79.067375 102.34355 118.60107 142.73666 186.99721 231.25775">Est.1998</tspan></text>
<g
       id="g92"><g
         clip-path="url(#clipPath98)"
         id="g94"><g
           transform="translate(522.179,573.7952)"
           id="g100"><path
             id="path102"
             style="fill:none;stroke:#39434e;stroke-width:17.10499954;stroke-linecap:round;stroke-linejoin:round;stroke-miterlimit:10;stroke-dasharray:none;stroke-opacity:1"
             d="M 0,0 C -21.506,0 -41.647,-11.466 -51.806,-30.421 -86.392,-94.958 44.26,-145.927 3.4,-211.213 c -10.668,-17.045 -29.675,-27.061 -49.783,-27.061" /></g></g></g><g
       id="g104"><g
         clip-path="url(#clipPath110)"
         id="g106"><g
           transform="translate(520.7899,671.9986)"
           id="g112"><path
             id="path114"
             style="fill:none;stroke:#39434e;stroke-width:17.10499954;stroke-linecap:round;stroke-linejoin:round;stroke-miterlimit:10;stroke-dasharray:none;stroke-opacity:1"
             d="m 0,0 -98.575,-98.203 h -49.221 c -22.819,0 -41.317,-18.499 -41.317,-41.318 v -155.64 c 0,-22.818 18.498,-41.317 41.317,-41.317 h 102.802" /></g></g></g><g
       id="g116"><g
         clip-path="url(#clipPath122)"
         id="g118"><g
           transform="translate(357.7239,532.4782)"
           id="g124"><path
             id="path126"
             style="fill:#ffd456;fill-opacity:1;fill-rule:nonzero;stroke:none"
             d="m 0,0 v -155.64 c 0,-6.31 3.847,-11.737 9.317,-14.061 h 90.264 27.434 c 7.784,2.12 14.579,6.941 18.761,13.623 8.255,13.192 5.825,24.032 -24.821,62.22 C 98.679,-66.1 68.697,-28.734 85.599,14.363 H 52.39 10.136 C 4.238,12.248 0,6.617 0,0" /></g><g
           transform="translate(640.3359,376.8379)"
           id="g128"><path
             id="path130"
             style="fill:#ffd456;fill-opacity:1;fill-rule:nonzero;stroke:none"
             d="m 0,0 v 155.64 c 0,6.607 -4.225,12.23 -10.108,14.353 -0.079,0 -0.155,0.01 -0.234,0.01 h -115.641 c -9.016,-2.09 -16.713,-7.732 -21.022,-15.771 -6.002,-11.198 -5.395,-20.752 25.977,-59.845 12.799,-15.95 26.037,-32.443 33.749,-51.132 8.21,-19.896 8.731,-39.109 1.652,-57.316 h 75.285 c 0.381,0 0.75,0.04 1.128,0.05 C -3.799,-11.661 0,-6.268 0,0" /></g></g></g><g
       transform="translate(627.5889,471.4265)"
       id="g132"><path
         id="path134"
         style="fill:none;stroke:#ffffff;stroke-width:3.92000008;stroke-linecap:round;stroke-linejoin:round;stroke-miterlimit:10;stroke-dasharray:none;stroke-opacity:1"
         d="M 0,0 -52.489,64.429" /></g><g
       transform="translate(627.4702,496.7737)"
       id="g136"><path
         id="path138"
         style="fill:none;stroke:#ffffff;stroke-width:3.92000008;stroke-linecap:round;stroke-linejoin:round;stroke-miterlimit:10;stroke-dasharray:none;stroke-opacity:1"
         d="M 0,0 -29.624,36.363" /></g><g
       id="g140"><g
         clip-path="url(#clipPath146)"
         id="g142"><g
           transform="translate(522.2635,573.7952)"
           id="g148"><path
             id="path150"
             style="fill:none;stroke:#39434e;stroke-width:17.10499954;stroke-linecap:round;stroke-linejoin:round;stroke-miterlimit:10;stroke-dasharray:none;stroke-opacity:1"
             d="m 0,0 h 102.802 c 22.819,0 41.318,-18.498 41.318,-41.317 v -155.64 c 0,-22.819 -18.499,-41.317 -41.318,-41.317 H 50.323 l 18.513,-56.332 H -93.803" /></g></g></g><g
       transform="translate(422.2146,573.7952)"
       id="g152"><path
         id="path154"
         style="fill:none;stroke:#39434e;stroke-width:17.10499954;stroke-linecap:round;stroke-linejoin:round;stroke-miterlimit:10;stroke-dasharray:none;stroke-opacity:1"
         d="M 0,0 -52.489,64.429" /></g></g></svg>