<?xml version="1.0" standalone="no"?>
<!DOCTYPE svg PUBLIC "-//W3C//DTD SVG 20010904//EN"
 "http://www.w3.org/TR/2001/REC-SVG-20010904/DTD/svg10.dtd">
<svg version="1.0" xmlns="http://www.w3.org/2000/svg"
 width="667.000000pt" height="667.000000pt" viewBox="0 0 667.000000 667.000000"
 preserveAspectRatio="xMidYMid meet">

<g transform="translate(0.000000,667.000000) scale(0.100000,-0.100000)"
fill="#000000" stroke="none">
<path d="M3321 6438 c-5 -13 -18 -97 -31 -187 -12 -90 -31 -196 -42 -235 -30
-111 -93 -221 -174 -306 -39 -41 -81 -94 -93 -117 -22 -44 -27 -88 -12 -97 4
-3 55 4 112 16 142 29 359 29 513 0 60 -12 113 -19 118 -16 14 9 9 54 -13 97
-12 23 -54 76 -93 117 -76 79 -141 190 -171 290 -9 30 -29 141 -45 247 -16
106 -31 197 -35 203 -10 17 -25 11 -34 -12z"/>
<path d="M3504 5455 c-20 -52 59 -1032 85 -1058 15 -15 392 -68 419 -59 7 2
12 13 12 25 -1 48 -42 106 -154 217 -65 65 -124 133 -135 156 -37 77 -72 219
-97 394 -19 131 -33 194 -57 254 -32 81 -60 107 -73 71z"/>
<path d="M3302 5432 c-26 -17 -43 -147 -52 -402 -25 -694 -42 -958 -95 -1490
-66 -669 -119 -984 -250 -1497 -62 -245 -109 -372 -194 -522 -68 -122 -81
-158 -59 -166 8 -3 60 4 114 15 375 80 769 82 1126 3 65 -14 125 -23 134 -19
22 9 12 45 -35 126 -120 203 -173 360 -275 800 -52 226 -78 360 -105 537 -26
167 -88 701 -101 873 -6 74 -15 178 -20 230 -21 203 -40 557 -60 1100 -12 347
-28 420 -88 420 -15 0 -33 -4 -40 -8z"/>
<path d="M3041 4638 c-37 -80 -54 -147 -81 -312 -23 -134 -74 -301 -115 -372
-13 -22 -49 -60 -79 -83 -94 -73 -194 -185 -206 -232 -14 -53 -6 -59 69 -52
154 12 336 35 351 43 12 7 22 45 38 157 51 359 82 649 85 801 2 95 0 107 -16
110 -13 3 -25 -12 -46 -60z"/>
<path d="M3612 4298 c-25 -30 -11 -306 43 -855 14 -143 56 -387 126 -743 88
-445 218 -849 374 -1165 85 -171 126 -224 190 -248 221 -84 420 -180 572 -276
44 -28 85 -51 91 -51 26 0 52 40 52 79 0 34 -18 68 -132 238 -183 275 -256
398 -363 618 -181 370 -281 612 -405 985 -189 565 -261 884 -295 1309 -3 41
-10 80 -15 86 -6 7 -43 16 -83 19 -39 4 -88 10 -107 13 -25 3 -40 0 -48 -9z"/>
<path d="M2798 3491 c-31 -3 -60 -9 -64 -13 -3 -4 -11 -51 -15 -105 -26 -289
-101 -551 -275 -960 -90 -212 -137 -306 -259 -519 -160 -278 -239 -391 -455
-644 -126 -147 -133 -160 -120 -194 14 -39 52 -43 108 -13 114 61 393 169 559
217 54 15 82 30 107 56 116 120 294 476 385 772 30 96 85 323 136 558 26 120
43 267 72 611 14 176 15 214 4 227 -14 17 -70 19 -183 7z"/>
<path d="M3411 1183 c-18 -19 -46 -78 -81 -173 -29 -80 -55 -151 -58 -158 -3
-10 4 -13 28 -10 33 3 34 5 89 145 31 78 61 147 68 154 6 6 20 8 32 4 20 -6
42 -66 102 -272 10 -34 17 -42 40 -45 22 -4 29 -1 29 12 0 21 -74 277 -91 314
-27 59 -112 74 -158 29z"/>
<path d="M2655 1151 l-90 -16 3 -30 c2 -16 4 -30 5 -31 1 -1 57 8 125 19 130
23 154 20 160 -20 5 -34 -21 -48 -126 -67 -136 -24 -140 -28 -115 -143 16 -72
23 -88 39 -91 40 -5 46 9 30 84 -8 38 -13 71 -11 73 3 2 39 10 82 17 43 8 90
19 105 25 72 30 82 137 17 183 -30 20 -103 20 -224 -3z"/>
<path d="M3792 1145 c-38 -32 -49 -75 -29 -114 13 -25 12 -31 -4 -52 -41 -53
-15 -143 48 -167 39 -15 222 -44 233 -37 9 5 15 55 8 55 -2 0 -52 9 -113 19
-77 14 -113 25 -122 37 -18 24 -16 38 6 58 18 16 25 16 135 -3 63 -12 117 -21
119 -21 3 0 7 13 9 30 5 32 5 32 -164 61 -74 12 -104 34 -93 68 10 32 46 35
168 13 61 -11 113 -19 114 -18 1 1 3 15 5 31 l3 30 -95 17 c-140 25 -192 24
-228 -7z"/>
<path d="M4186 1103 c-16 -42 -8 -48 103 -76 116 -31 151 -48 151 -76 0 -45
-40 -51 -145 -21 -87 25 -131 26 -143 3 -5 -10 -18 -53 -28 -96 -16 -68 -16
-80 -3 -88 34 -22 47 -10 64 61 9 39 20 72 24 74 3 2 29 -3 57 -11 l51 -15 7
-51 c3 -29 6 -66 6 -84 0 -26 5 -33 31 -42 l31 -11 -3 85 -4 84 31 5 c71 14
109 101 71 160 -23 35 -55 50 -185 84 -94 26 -111 28 -116 15z"/>
<path d="M2262 1055 c-41 -13 -83 -32 -94 -42 -57 -52 -61 -131 -12 -229 37
-74 71 -99 132 -99 69 1 185 42 219 77 26 27 28 35 28 111 -1 97 -29 168 -76
192 -40 21 -113 18 -197 -10z m172 -70 c25 -27 36 -65 36 -122 0 -43 -34 -77
-95 -92 -72 -18 -113 -14 -139 14 -22 23 -46 85 -46 118 0 29 50 76 98 91 76
23 119 20 146 -9z"/>
<path d="M1895 926 c-150 -64 -215 -94 -215 -100 0 -17 25 -56 34 -52 6 2 36
16 67 29 l56 26 59 -135 c32 -75 61 -137 65 -140 4 -2 19 1 32 7 l24 11 -58
139 c-33 76 -59 140 -59 142 0 3 27 15 60 27 33 12 63 26 65 31 6 9 -15 59
-24 58 -3 0 -51 -20 -106 -43z"/>
<path d="M4614 931 c-52 -32 -103 -165 -90 -235 9 -50 52 -87 140 -124 95 -40
143 -41 186 -5 63 52 115 166 103 224 -9 49 -62 93 -152 128 -92 36 -143 39
-187 12z m186 -89 c72 -35 88 -64 71 -123 -7 -24 -28 -58 -47 -77 -31 -31 -38
-33 -72 -27 -56 10 -135 56 -150 87 -15 33 -8 83 19 127 35 58 82 62 179 13z"/>
<path d="M2982 645 c-349 -40 -684 -123 -987 -244 -95 -39 -305 -139 -355
-169 l-35 -22 1730 0 1730 0 -75 41 c-336 184 -772 322 -1220 384 -162 23
-624 29 -788 10z m738 -140 c163 -20 345 -57 496 -100 243 -68 308 -63 -881
-64 -667 -1 -1065 3 -1060 8 28 27 423 122 630 151 231 32 581 35 815 5z"/>
</g>
</svg>
