<?xml version="1.0" encoding="UTF-8" standalone="no"?>
<svg
   version="1.0"
   width="924.29999pt"
   height="905.71002pt"
   viewBox="0 0 924.29994 905.70998"
   preserveAspectRatio="xMidYMid"
   id="svg12115"
   sodipodi:docname="bicursiositeReworked.svg"
   inkscape:version="1.2.1 (9c6d41e410, 2022-07-14)"
   xmlns:inkscape="http://www.inkscape.org/namespaces/inkscape"
   xmlns:sodipodi="http://sodipodi.sourceforge.net/DTD/sodipodi-0.dtd"
   xmlns="http://www.w3.org/2000/svg"
   xmlns:svg="http://www.w3.org/2000/svg">
  <defs
     id="defs12119" />
  <sodipodi:namedview
     id="namedview12117"
     pagecolor="#ffffff"
     bordercolor="#000000"
     borderopacity="0.25"
     inkscape:showpageshadow="2"
     inkscape:pageopacity="0.0"
     inkscape:pagecheckerboard="0"
     inkscape:deskcolor="#d1d1d1"
     inkscape:document-units="pt"
     showgrid="false"
     inkscape:zoom="0.32944713"
     inkscape:cx="1217.1908"
     inkscape:cy="824.10795"
     inkscape:window-width="1920"
     inkscape:window-height="991"
     inkscape:window-x="-9"
     inkscape:window-y="-9"
     inkscape:window-maximized="1"
     inkscape:current-layer="svg12115" />
  <g
     transform="matrix(0.1,0,0,-0.1,-316.21168,1100.7097)"
     fill="#000000"
     stroke="none"
     id="g12113">
    <path
       d="m 7800,11000 c -118,-9 -353,-36 -485,-56 -55,-8 -145,-22 -200,-30 -191,-27 -520,-103 -696,-159 -666,-214 -1185,-499 -1685,-926 -133,-113 -341,-319 -403,-399 -121,-154 -251,-330 -251,-340 0,-5 -4,-10 -8,-10 -5,0 -35,-41 -68,-92 -32,-51 -74,-109 -91,-131 -18,-21 -33,-45 -33,-51 0,-7 -10,-25 -23,-40 -25,-28 -230,-406 -306,-561 -133,-275 -229,-572 -296,-925 -13,-69 -31,-154 -39,-190 -19,-81 -42,-301 -51,-478 -5,-105 -4,-133 7,-136 20,-7 1282,-56 1287,-50 5,5 16,196 46,789 9,182 18,340 20,351 5,22 18,29 1035,547 397,202 484,247 496,260 7,8 17,151 28,392 9,209 19,402 22,429 l 6,48 92,-6 c 50,-3 213,-9 362,-12 l 271,-7 6,56 c 18,146 110,348 219,476 76,89 143,143 250,201 120,65 349,143 411,141 33,0 51,32 62,114 4,28 17,102 30,165 13,63 29,152 36,197 7,46 14,82 15,80 1,-1 9,-74 19,-162 9,-88 20,-178 25,-200 5,-22 12,-72 15,-111 l 7,-71 102,-27 c 170,-46 285,-99 368,-170 126,-109 163,-156 237,-303 56,-111 111,-296 111,-373 0,-25 4,-50 8,-56 5,-8 126,-16 367,-25 l 360,-14 v -418 -418 l 307,-177 c 169,-97 424,-244 565,-326 142,-82 344,-199 448,-259 105,-61 201,-118 215,-127 l 25,-18 -12,-323 c -6,-178 -14,-437 -19,-575 l -7,-252 519,-8 c 285,-5 600,-8 699,-9 h 180 l -3,190 c -2,105 -8,242 -13,305 -5,63 -14,201 -19,305 -13,231 -52,464 -116,685 -49,167 -112,359 -124,375 -4,6 -13,28 -20,50 -44,136 -241,531 -370,740 -35,58 -181,252 -258,344 -76,92 -168,199 -251,291 -205,231 -557,543 -756,671 -69,45 -336,201 -415,242 -41,21 -100,57 -132,78 -31,21 -61,39 -65,39 -4,0 -62,23 -128,51 -66,28 -186,72 -266,99 -80,26 -155,53 -167,59 -11,6 -81,26 -154,45 -73,19 -176,46 -230,60 -140,39 -314,74 -468,96 -431,62 -462,64 -650,50 z"
       id="path12029" />
    <path
       d="m 8409,7737 c -18,-12 -40,-34 -48,-49 -14,-24 -14,-28 3,-47 29,-32 78,-27 121,10 78,69 12,145 -76,86 z m 91,-32 c 0,-25 -46,-65 -75,-65 -32,0 -33,25 -3,57 25,27 78,32 78,8 z"
       id="path12031" />
    <path
       d="m 7444,7672 c -41,-21 -101,-87 -129,-143 -32,-63 -45,-121 -46,-218 -2,-87 11,-118 70,-176 27,-25 38,-29 84,-28 28,1 66,7 82,13 43,16 95,53 95,68 0,6 5,12 10,12 6,0 10,6 10,14 0,7 10,35 21,61 19,42 21,62 17,159 -5,104 -7,114 -39,168 -27,45 -42,60 -74,72 -49,17 -64,17 -101,-2 z m 97,-44 c 43,-43 60,-87 66,-172 7,-85 -21,-199 -61,-250 -46,-61 -144,-86 -195,-50 -60,42 -77,162 -41,289 26,96 36,113 97,168 64,56 89,59 134,15 z"
       id="path12033" />
    <path
       d="m 8226,7589 c -29,-34 -34,-80 -12,-98 26,-22 69,-9 93,28 28,42 29,55 3,81 -28,28 -54,25 -84,-11 z m 84,-29 c 0,-12 -11,-32 -25,-46 -21,-21 -29,-23 -40,-14 -20,17 -19,30 7,57 27,29 58,30 58,3 z"
       id="path12035" />
    <path
       d="m 8600,7527 c -18,-9 -25,-21 -25,-42 0,-26 4,-30 30,-33 37,-4 78,30 73,61 -4,27 -41,33 -78,14 z m 60,-20 c 0,-19 -21,-37 -42,-37 -22,0 -23,8 -1,32 19,21 43,24 43,5 z"
       id="path12037" />
    <path
       d="m 8126,7428 c -32,-46 -13,-138 28,-138 27,0 37,28 34,92 -3,56 -5,63 -25,66 -13,2 -27,-5 -37,-20 z m 50,-32 c 9,-36 1,-71 -16,-71 -16,0 -26,54 -16,81 8,22 25,17 32,-10 z"
       id="path12039" />
    <path
       d="m 8493,7415 c -45,-32 -19,-75 44,-75 43,0 65,20 61,55 -3,27 -7,30 -43,33 -25,2 -49,-3 -62,-13 z m 94,-20 c 2,-6 -10,-18 -26,-28 -24,-14 -30,-15 -40,-3 -10,11 -7,18 11,30 24,17 49,18 55,1 z"
       id="path12041" />
    <path
       d="m 8433,7333 c -35,-5 -48,-25 -33,-53 14,-26 43,-33 90,-20 28,8 40,16 40,29 0,33 -39,51 -97,44 z m 66,-36 c 6,-8 8,-17 4,-20 -11,-11 -71,-8 -79,4 -15,25 54,40 75,16 z"
       id="path12043" />
    <path
       d="m 8187,7273 c -22,-22 4,-103 33,-103 5,0 16,7 24,16 31,30 12,94 -28,94 -12,0 -26,-3 -29,-7 z m 51,-36 c 2,-15 -1,-27 -6,-27 -17,0 -34,29 -28,46 9,23 31,11 34,-19 z"
       id="path12045" />
    <path
       d="m 8328,7244 c -15,-8 -33,-24 -39,-36 -10,-18 -8,-24 11,-40 26,-21 64,-16 98,15 28,26 28,42 0,61 -27,19 -35,19 -70,0 z m 69,-29 c 7,-20 -24,-44 -55,-45 -31,0 -26,30 8,47 33,17 39,16 47,-2 z"
       id="path12047" />
    <path
       d="m 7055,7082 c -31,-11 -89,-49 -153,-100 -56,-45 -106,-82 -112,-82 -5,0 -13,-6 -17,-13 -13,-21 -149,-108 -258,-164 -93,-48 -110,-53 -240,-72 -77,-12 -156,-21 -176,-21 -104,0 -179,-74 -179,-176 0,-29 8,-44 40,-76 35,-35 44,-40 72,-34 17,3 39,13 48,21 9,8 23,15 30,15 34,0 -5,14 -42,15 -90,2 -106,102 -27,164 39,30 64,38 190,56 188,28 349,89 437,166 18,16 38,29 45,29 7,0 23,9 37,20 14,11 66,52 115,92 96,76 173,118 218,118 19,0 40,-12 66,-39 78,-79 128,-87 279,-41 79,24 104,22 147,-12 43,-34 155,-296 155,-362 0,-11 -32,-59 -71,-105 -39,-47 -80,-103 -91,-125 -29,-57 -33,-138 -10,-218 l 19,-66 -138,-68 c -98,-48 -151,-80 -181,-111 -39,-40 -41,-44 -26,-59 15,-16 20,-14 62,23 42,37 122,81 253,139 l 51,23 27,-40 c 31,-47 210,-238 240,-256 28,-17 65,-16 65,1 0,8 -21,30 -48,49 -58,43 -190,187 -216,235 l -19,36 24,16 c 45,30 78,66 103,112 22,41 31,77 50,193 3,17 -2,69 -11,117 l -17,87 37,43 c 20,24 46,54 59,68 12,13 43,60 69,105 58,99 99,140 128,130 12,-4 52,-33 89,-65 88,-78 127,-89 225,-65 39,10 83,26 97,35 28,20 164,70 189,70 33,0 101,-43 123,-78 52,-84 78,-131 113,-200 69,-139 157,-209 335,-266 87,-28 123,-44 147,-69 37,-37 63,-93 65,-141 2,-64 -75,-133 -138,-123 -35,6 -42,-1 -22,-21 29,-29 141,-4 178,38 42,48 31,171 -22,234 -35,43 -117,91 -183,107 -150,36 -263,127 -339,269 -89,170 -144,264 -164,285 -21,22 -83,45 -119,45 -11,0 -70,-24 -130,-54 -193,-95 -268,-106 -316,-49 -90,107 -129,131 -182,112 -32,-12 -66,-58 -135,-186 -13,-24 -27,-43 -32,-43 -4,0 -8,-6 -8,-12 0,-7 -18,-33 -40,-58 -28,-33 -40,-41 -44,-30 -3,8 -30,87 -61,174 -30,88 -62,167 -71,178 -34,36 -82,40 -180,13 -129,-36 -157,-34 -216,15 -46,40 -104,70 -130,70 -7,-1 -36,-8 -63,-18 z m 714,-695 c 1,-58 -4,-79 -32,-140 -37,-79 -81,-137 -103,-137 -22,0 -36,47 -38,127 -1,69 0,73 43,134 25,35 61,80 80,101 l 36,38 6,-27 c 4,-16 7,-59 8,-96 z"
       id="path12049" />
    <path
       d="m 7013,6805 c -12,-22 -31,-60 -43,-85 -11,-25 -27,-57 -35,-72 -18,-32 -19,-130 -2,-178 19,-53 35,-79 80,-127 55,-60 74,-69 98,-47 10,9 19,22 19,27 0,6 -27,34 -59,64 -49,44 -63,64 -80,116 -24,73 -20,112 24,235 31,87 30,128 -2,67 z"
       id="path12051" />
    <path
       d="m 7512,6764 c -32,-91 -58,-152 -89,-201 -17,-28 -41,-69 -52,-90 -17,-33 -106,-148 -174,-223 -21,-23 -161,-130 -171,-130 -13,0 -210,-130 -308,-203 -168,-124 -238,-205 -317,-364 -65,-130 -85,-207 -78,-293 8,-89 14,-103 40,-89 15,9 133,92 144,103 1,1 -2,31 -8,67 -36,233 129,493 431,679 154,94 209,136 296,219 134,128 319,463 302,546 -2,12 -8,4 -16,-21 z"
       id="path12053" />
    <path
       d="m 7980,6656 c 0,-124 68,-386 133,-511 45,-86 126,-174 338,-367 174,-159 220,-249 221,-435 v -103 h 69 69 v 34 c 0,60 -31,200 -52,236 -68,114 -119,182 -182,238 -66,57 -256,216 -295,245 -31,23 -103,112 -136,169 -65,111 -135,362 -135,485 0,49 -3,63 -15,63 -11,0 -15,-13 -15,-54 z"
       id="path12055" />
    <path
       d="m 8606,6588 c 6,-78 4,-92 -19,-141 -32,-71 -95,-131 -176,-168 -58,-27 -88,-36 -163,-53 -33,-8 -34,-15 -8,-48 18,-23 23,-24 68,-17 146,23 292,137 323,253 15,53 6,182 -14,226 -16,35 -16,34 -11,-52 z"
       id="path12057" />
    <path
       d="m 6158,6516 c -32,-17 -58,-34 -58,-38 0,-8 369,-699 379,-710 4,-5 29,15 56,43 l 50,50 -154,302 c -200,391 -194,380 -206,382 -5,1 -36,-12 -67,-29 z"
       id="path12059" />
    <path
       d="m 9002,6004 c -177,-130 -319,-240 -316,-245 3,-5 11,-9 17,-9 17,1 641,463 640,475 -1,5 -6,11 -10,12 -5,2 -154,-103 -331,-233 z"
       id="path12061" />
    <path
       d="m 3460,5975 c 0,-215 6,-242 67,-300 61,-58 169,-73 243,-35 38,19 90,81 90,107 0,20 7,16 49,-26 59,-59 137,-76 208,-46 98,41 113,81 113,313 v 182 h -385 -385 z m 370,-7 c 0,-120 -3,-138 -25,-185 -41,-89 -130,-120 -201,-71 -57,39 -68,75 -72,241 l -4,147 h 151 151 z m 329,-15 c -4,-135 -6,-151 -27,-180 -53,-74 -158,-59 -203,28 -16,32 -19,59 -19,169 v 130 h 126 126 z"
       id="path12063" />
    <path
       d="m 7261,6149 -22,-21 45,-48 c 26,-27 46,-54 46,-60 0,-14 25,-13 38,3 9,10 5,26 -15,63 -26,51 -51,84 -63,84 -3,0 -16,-9 -29,-21 z"
       id="path12065" />
    <path
       d="m 9062,5938 c -171,-128 -310,-237 -308,-243 1,-5 9,-11 17,-12 16,-3 620,455 627,475 11,33 -48,-6 -336,-220 z"
       id="path12067" />
    <path
       d="m 7908,6031 c -59,-60 -108,-113 -108,-118 0,-5 7,-18 15,-29 14,-18 17,-17 73,41 59,61 79,79 144,129 l 38,28 -17,29 c -10,16 -22,29 -27,29 -5,0 -58,-49 -118,-109 z"
       id="path12069" />
    <path
       d="m 7050,5953 c -1,-5 -37,-46 -80,-93 -46,-49 -80,-94 -80,-106 0,-38 60,-75 135,-84 47,-5 50,-7 65,-45 29,-77 82,-127 114,-108 40,25 156,180 156,209 0,34 -63,64 -134,64 -52,0 -56,2 -62,28 -13,58 -17,68 -41,105 -18,25 -33,37 -49,37 -13,0 -24,-3 -24,-7 z m 64,-123 c 2,-8 7,-32 11,-52 l 6,-38 57,6 c 63,7 112,-7 112,-31 0,-9 -26,-43 -58,-76 l -58,-61 -32,36 c -19,22 -34,53 -38,77 l -7,41 -51,-5 c -47,-4 -106,12 -106,30 0,3 26,37 57,76 l 57,69 23,-28 c 13,-16 25,-36 27,-44 z"
       id="path12071" />
    <path
       d="m 7423,5904 c -7,-3 6,-33 37,-82 42,-66 51,-90 64,-170 9,-50 16,-109 16,-130 0,-49 -27,-139 -51,-174 -26,-36 -24,-51 11,-76 35,-26 82,-29 101,-5 22,26 16,258 -10,356 -27,103 -124,289 -149,286 -4,0 -12,-3 -19,-5 z"
       id="path12073" />
    <path
       d="m 11277,5893 c -3,-5 -8,-119 -12,-255 l -7,-248 73,-1 c 41,0 214,-6 384,-13 171,-7 313,-10 316,-7 4,3 10,122 14,264 l 7,257 h -34 -35 l -7,-92 c -3,-50 -6,-128 -6,-172 0,-45 -3,-105 -6,-133 l -7,-53 h -91 c -50,0 -115,3 -144,6 l -52,7 5,91 c 2,50 7,142 10,204 l 5,112 h -39 -39 l -7,-206 -7,-206 -127,7 c -69,4 -128,9 -130,11 -5,4 -4,65 5,277 l 7,157 h -36 c -20,0 -38,-3 -40,-7 z"
       id="path12075" />
    <path
       d="m 7667,5725 -57,-84 11,-51 c 6,-27 14,-50 18,-50 3,0 13,20 20,44 7,25 33,79 57,122 34,59 41,80 33,91 -6,7 -14,13 -18,13 -4,0 -32,-38 -64,-85 z"
       id="path12077" />
    <path
       d="m 8260,5681 c -13,-26 -5,-46 26,-60 34,-15 65,-14 92,5 29,20 28,34 -1,34 -13,0 -32,9 -42,20 -23,25 -61,26 -75,1 z"
       id="path12079" />
    <path
       d="m 7810,5665 c 0,-13 29,-15 200,-15 171,0 200,2 200,15 0,13 -29,15 -200,15 -171,0 -200,-2 -200,-15 z"
       id="path12081" />
    <path
       d="m 6856,5355 c -184,-38 -325,-113 -453,-242 -287,-287 -334,-739 -111,-1080 195,-299 543,-443 898,-373 63,12 133,32 155,44 40,21 49,21 835,26 l 795,5 31,22 c 60,43 82,138 49,216 -18,44 -48,65 -99,74 l -39,6 6,300 c 4,165 7,351 7,412 v 113 l 32,6 c 18,3 42,13 55,21 78,51 70,214 -14,271 -27,18 -64,19 -753,27 -692,8 -727,9 -760,28 -90,50 -188,92 -258,110 -101,27 -282,34 -376,14 z m 524,-111 c 25,-13 40,-23 34,-24 -14,0 -124,50 -124,56 0,8 41,-6 90,-32 z m -205,6 c 71,-20 205,-79 205,-90 0,-3 -16,-22 -35,-40 -41,-39 -25,-44 -156,44 -40,26 -88,55 -106,64 -25,12 -30,18 -22,29 15,17 31,17 114,-7 z m -297,-16 c 28,-4 52,-10 52,-13 0,-4 -14,-15 -31,-25 -30,-18 -31,-18 -70,8 -21,15 -39,28 -39,31 0,7 24,6 88,-1 z m -120,-51 c 20,-15 39,-29 42,-31 8,-6 -33,-32 -50,-32 -11,0 -21,14 -28,39 -19,62 -17,63 36,24 z m 301,-8 c 51,-25 177,-110 186,-124 4,-8 -108,-101 -123,-101 -13,0 -196,189 -189,196 7,8 71,53 75,54 1,0 25,-11 51,-25 z m 498,-52 c 58,-48 119,-121 109,-130 -3,-3 -16,7 -28,23 -12,16 -56,63 -97,104 -78,77 -74,77 16,3 z m 866,42 c 400,-4 543,-8 557,-18 49,-30 66,-134 29,-180 -23,-30 -89,-52 -128,-42 -42,11 -61,34 -61,76 0,71 79,90 96,23 7,-27 27,-27 32,0 10,50 -26,86 -87,86 -49,0 -91,-52 -91,-113 0,-32 7,-46 39,-78 21,-22 48,-39 60,-39 20,0 21,-5 21,-107 0,-60 -3,-246 -7,-415 -6,-306 -6,-307 -28,-312 -38,-10 -85,-72 -85,-112 0,-42 23,-89 49,-104 30,-16 84,-11 109,9 25,22 30,72 8,90 -12,10 -15,7 -18,-16 -2,-17 -13,-33 -30,-42 -24,-14 -28,-14 -48,4 -16,14 -20,28 -18,59 2,33 9,43 35,59 45,26 106,15 146,-25 27,-26 29,-34 25,-84 -6,-65 -32,-99 -92,-115 -30,-8 -239,-10 -741,-5 -385,3 -704,6 -709,6 -4,0 23,24 61,54 73,57 137,128 196,215 l 36,54 3,-69 c 5,-107 22,-78 29,48 3,68 12,130 22,156 52,136 59,355 16,497 -11,39 -24,110 -27,159 -5,58 -11,91 -19,94 -9,2 -13,-9 -13,-38 v -43 l -51,78 c -28,43 -77,105 -110,138 -32,32 -59,61 -59,63 0,2 71,2 158,-1 86,-3 399,-7 695,-10 z m -1748,-66 c -8,-11 -45,-12 -45,0 0,4 5,23 12,42 l 12,34 13,-33 c 7,-18 11,-37 8,-43 z m -106,3 c -9,-27 -43,-52 -54,-40 -3,2 9,21 26,42 36,43 44,42 28,-2 z m 903,7 c 31,-23 148,-165 148,-181 0,-24 -95,-138 -114,-138 -6,0 -24,28 -41,62 -16,34 -49,88 -72,120 -24,32 -43,61 -43,65 0,7 81,93 88,93 2,0 17,-10 34,-21 z m -502,-94 c 55,-57 90,-99 84,-105 -13,-12 -180,-80 -197,-80 -9,0 -28,36 -50,93 -56,146 -56,139 5,163 29,12 56,22 59,23 3,0 47,-42 99,-94 z m -520,55 c -6,-11 -15,-20 -20,-20 -14,0 -12,6 6,24 21,22 27,20 14,-4 z m 264,-62 c 4,-18 22,-70 40,-115 26,-63 31,-85 22,-92 -17,-15 -165,-46 -174,-37 -10,11 -5,207 7,238 9,25 27,33 77,37 17,1 23,-6 28,-31 z m -174,-137 v -130 l -42,-6 c -24,-3 -59,-6 -78,-8 -34,-2 -34,-2 -32,38 4,49 50,201 66,214 12,10 41,18 69,20 15,1 17,-11 17,-128 z m 817,52 c 52,-79 75,-121 87,-159 5,-17 -5,-28 -64,-67 -38,-26 -72,-47 -74,-47 -2,0 -25,39 -51,88 -27,48 -59,101 -72,119 -14,18 -23,37 -21,42 4,13 120,100 133,101 6,0 34,-35 62,-77 z m -974,61 c 12,-4 10,-16 -9,-69 -13,-35 -29,-94 -35,-130 l -12,-65 h -42 c -23,0 -44,3 -48,6 -16,16 104,264 129,264 1,0 9,-2 17,-6 z m 1397,-176 c 16,-43 30,-86 30,-97 0,-32 -19,-35 -25,-4 -9,41 -45,133 -67,170 -11,18 -16,38 -12,44 11,18 40,-26 74,-113 z m -647,25 c 23,-34 117,-207 117,-216 0,-14 -254,-116 -264,-106 -17,19 -97,196 -102,226 l -6,39 84,32 c 46,17 92,38 103,46 30,23 39,20 68,-21 z m 560,-35 c 15,-35 33,-91 41,-125 12,-54 12,-64 -1,-85 -25,-37 -136,-148 -149,-148 -7,0 -13,27 -17,68 -3,37 -13,100 -23,140 l -17,71 64,70 c 35,38 67,70 70,70 3,1 18,-27 32,-61 z m -827,-182 c 30,-71 53,-130 51,-132 -7,-7 -202,-64 -218,-64 -13,0 -25,26 -47,98 -17,53 -34,116 -37,139 -7,42 -7,42 32,51 21,5 63,16 93,25 30,8 59,14 63,13 5,-1 33,-59 63,-130 z m -288,-63 c 17,-76 32,-143 32,-149 0,-11 -114,-34 -169,-34 -25,0 -32,5 -36,28 -4,15 -11,45 -16,67 -13,50 -17,180 -7,191 5,4 41,13 80,19 40,7 75,13 78,14 3,0 20,-61 38,-136 z m 911,88 c 13,-45 30,-168 31,-223 0,-35 -4,-40 -52,-68 -69,-39 -78,-38 -78,8 0,42 -33,181 -51,214 -7,12 -8,23 -3,25 5,2 36,21 69,42 33,22 63,40 66,40 3,1 11,-17 18,-38 z m -1169,-48 c 0,-38 7,-103 15,-146 8,-43 15,-81 15,-83 0,-3 -30,-4 -67,-2 l -68,3 -8,60 c -8,60 -3,208 8,226 4,5 28,9 56,9 h 49 z m 1517,-112 c -6,-99 -21,-185 -37,-211 -19,-30 -21,0 -6,80 9,45 16,115 16,154 0,74 5,90 23,79 6,-4 8,-43 4,-102 z m -535,13 c 22,-76 41,-201 32,-215 -3,-6 -41,-27 -83,-46 -134,-62 -113,-70 -181,73 -33,70 -60,130 -60,134 0,4 33,19 73,34 39,15 97,40 127,56 30,16 59,28 65,26 5,-1 17,-29 27,-62 z m 433,-157 c -29,-148 -38,-166 -111,-226 -36,-29 -67,-52 -68,-50 -2,2 3,45 10,94 7,50 13,111 13,137 1,45 3,49 54,87 28,21 66,53 82,71 l 30,32 3,-31 c 2,-17 -4,-68 -13,-114 z m -760,26 c 14,-32 38,-79 51,-106 14,-26 27,-60 30,-75 6,-28 6,-28 -100,-57 -59,-15 -108,-26 -109,-24 -53,80 -137,237 -137,254 0,2 21,8 48,14 26,5 72,19 102,30 81,29 84,28 115,-36 z m -271,-150 c 36,-70 65,-128 63,-129 -1,-1 -46,-10 -100,-19 -105,-18 -119,-15 -133,28 -4,12 -20,41 -36,65 -29,42 -64,129 -56,137 3,3 44,12 93,20 49,9 91,18 94,20 2,3 6,5 7,5 1,0 32,-57 68,-127 z m -300,-5 c 21,-51 47,-108 57,-126 23,-41 18,-52 -25,-52 -75,0 -94,10 -126,65 -29,50 -80,175 -80,195 0,6 30,10 68,10 h 68 z m 1116,49 c 0,-24 -9,-86 -20,-138 -11,-52 -20,-97 -20,-101 0,-13 -44,-48 -59,-48 -14,0 -16,19 -16,133 v 133 l 50,31 c 28,17 53,31 58,32 4,1 7,-19 7,-42 z m -179,-310 c -10,-27 -76,-56 -91,-41 -9,11 -90,200 -90,212 0,4 21,17 47,27 25,11 67,29 92,40 l 46,22 3,-117 c 1,-65 -2,-129 -7,-143 z m -197,48 c 27,-57 48,-107 47,-112 0,-4 -19,-14 -42,-22 -51,-17 -76,-7 -145,57 -50,47 -110,120 -103,125 2,2 22,9 44,15 91,27 140,41 145,41 3,0 27,-46 54,-104 z m -233,-66 c 56,-55 98,-103 96,-106 -9,-8 -154,-16 -180,-9 -25,6 -199,157 -198,173 0,4 40,15 88,24 48,9 89,17 91,18 2,1 48,-44 103,-100 z m 669,37 c -42,-58 -100,-114 -100,-95 1,28 36,78 75,108 55,41 61,38 25,-13 z m -940,-78 101,-93 -56,-3 c -70,-4 -120,23 -214,112 l -63,61 53,6 c 30,3 60,6 66,7 7,1 58,-40 113,-90 z m 780,-2 c 0,-15 -24,-66 -31,-66 -11,0 -11,0 2,39 6,17 15,31 20,31 5,0 9,-2 9,-4 z m -94,-58 c -3,-13 -6,-32 -6,-43 -1,-17 -3,-15 -16,8 -18,33 -12,57 12,57 12,0 15,-6 10,-22 z m -87,-30 c 11,-30 9,-31 -23,-17 -28,13 -33,24 -13,32 22,10 28,7 36,-15 z m -105,-33 c 18,-14 16,-15 -30,-15 -27,0 -60,3 -74,7 l -25,7 25,7 c 42,12 84,9 104,-6 z m -177,-47 88,-23 -54,-3 c -68,-4 -216,27 -186,39 33,13 59,10 152,-13 z"
       id="path12083" />
    <path
       d="m 7996,4973 c -3,-3 -6,-235 -6,-515 0,-445 2,-508 15,-508 13,0 15,63 15,509 0,281 -4,512 -9,515 -4,3 -11,3 -15,-1 z"
       id="path12085" />
    <path
       d="m 8237,4973 c -9,-14 -29,-1011 -21,-1024 3,-6 10,-7 15,-2 4,4 13,235 19,512 10,464 8,548 -13,514 z"
       id="path12087" />
    <path
       d="m 8457,4972 c -4,-5 -11,-233 -17,-507 -9,-463 -7,-536 15,-514 2,3 9,232 15,508 11,467 8,549 -13,513 z"
       id="path12089" />
    <path
       d="m 8677,4973 c -3,-4 -6,-235 -8,-512 -3,-368 -1,-505 7,-508 15,-5 31,1004 16,1019 -5,5 -12,6 -15,1 z"
       id="path12091" />
    <path
       d="m 4190,5069 c -118,-44 -249,-93 -290,-109 -41,-15 -103,-39 -137,-52 -65,-24 -75,-38 -50,-72 12,-16 37,-8 347,107 184,69 347,130 362,136 25,9 26,13 17,41 -6,16 -16,30 -22,30 -7,-1 -109,-37 -227,-81 z"
       id="path12093" />
    <path
       d="m 11093,4966 c -18,-39 -71,-156 -118,-260 -47,-104 -85,-192 -85,-196 0,-13 61,-34 69,-24 4,5 27,53 51,108 24,54 49,100 55,102 11,5 75,-23 370,-156 88,-40 184,-83 213,-96 l 52,-23 16,30 c 8,17 14,32 12,34 -2,1 -23,12 -48,23 -110,49 -375,168 -476,214 l -112,51 13,31 c 7,17 30,67 49,110 20,44 35,85 32,92 -2,6 -17,16 -33,21 -28,10 -29,9 -60,-61 z"
       id="path12095" />
    <path
       d="m 4515,4449 c -119,-41 -246,-153 -301,-266 -25,-50 -29,-70 -29,-143 0,-73 4,-92 27,-135 89,-168 255,-225 435,-150 l 37,16 -25,25 -26,25 -61,-17 c -53,-15 -70,-15 -117,-5 -74,17 -133,63 -168,131 -25,48 -28,63 -24,120 2,39 14,85 28,115 33,71 120,155 204,196 60,30 78,34 145,33 85,0 134,-20 186,-76 74,-77 94,-178 54,-267 l -20,-43 21,-29 c 26,-37 38,-29 70,44 36,82 33,175 -9,260 -40,80 -112,148 -184,171 -69,22 -170,20 -243,-5 z"
       id="path12097" />
    <path
       d="m 10587,4192 c -10,-10 -17,-23 -16,-28 0,-5 35,-39 77,-75 42,-37 170,-148 285,-248 114,-99 211,-181 215,-181 5,0 18,10 30,23 l 22,23 -132,114 c -353,307 -450,390 -457,390 -4,0 -15,-8 -24,-18 z"
       id="path12099" />
    <path
       d="m 5403,3677 c -59,-65 -331,-437 -341,-466 -7,-19 -12,-64 -12,-101 0,-55 5,-78 28,-121 67,-129 234,-188 368,-130 66,28 80,44 268,293 l 156,207 -27,21 c -33,26 -21,37 -173,-165 -188,-248 -203,-266 -242,-286 -134,-68 -308,40 -308,191 0,28 7,64 15,80 8,16 87,124 175,239 88,116 160,214 160,219 0,6 -11,17 -24,25 -22,15 -25,14 -43,-6 z"
       id="path12101" />
    <path
       d="m 10093,3666 c -23,-7 -57,-23 -77,-35 -54,-34 -124,-118 -137,-164 -29,-108 44,-218 154,-232 55,-7 66,-5 277,55 98,28 152,23 192,-18 59,-58 53,-145 -16,-215 -73,-76 -162,-103 -240,-73 -24,9 -52,26 -61,36 -22,25 -33,25 -65,0 l -25,-19 25,-26 c 13,-14 48,-37 77,-51 45,-23 63,-26 125,-22 86,4 144,29 206,88 97,93 115,203 49,301 -39,58 -81,79 -156,79 -36,0 -91,-7 -121,-16 -167,-47 -208,-56 -248,-51 -48,5 -84,32 -102,78 -26,63 39,158 138,202 58,25 119,19 167,-17 34,-26 35,-27 60,-9 31,23 31,29 -2,59 -63,56 -145,74 -220,50 z"
       id="path12103" />
    <path
       d="m 6201,3068 c -99,-216 -284,-625 -288,-634 -4,-11 53,-41 62,-33 2,2 33,69 69,149 45,101 70,144 80,142 8,-1 67,-27 131,-57 184,-87 201,-118 136,-261 -60,-134 -60,-141 -17,-159 47,-20 46,-20 46,16 0,17 17,68 37,113 44,97 53,164 28,202 -9,14 -15,27 -13,28 2,1 22,10 46,21 48,21 97,72 118,121 34,82 6,196 -63,253 -29,24 -316,161 -337,161 -4,0 -20,-28 -35,-62 z m 181,-86 c 131,-60 154,-75 178,-115 57,-93 -15,-210 -129,-211 -35,0 -75,13 -163,54 -65,30 -118,59 -118,64 0,16 112,256 119,256 4,0 55,-22 113,-48 z"
       id="path12105" />
    <path
       d="m 9035,2987 c -56,-19 -81,-33 -127,-75 -60,-54 -90,-122 -96,-216 -6,-99 9,-169 59,-273 102,-214 284,-285 479,-187 63,31 107,78 141,149 51,106 36,266 -38,407 -40,76 -108,150 -167,180 -51,27 -190,35 -251,15 z m 226,-93 c 80,-44 143,-136 174,-254 51,-193 -49,-355 -226,-368 -60,-4 -75,-1 -123,22 -89,44 -159,140 -191,263 -32,121 -10,219 64,293 85,85 196,101 302,44 z"
       id="path12107" />
    <path
       d="m 7325,2791 c -70,-18 -124,-61 -144,-114 -16,-40 -14,-123 3,-156 30,-57 68,-82 268,-175 45,-22 89,-51 108,-73 30,-33 32,-41 28,-90 -8,-88 -68,-133 -180,-133 -119,0 -203,65 -222,173 -4,20 -12,37 -19,37 -7,0 -23,3 -36,7 -24,6 -24,6 -18,-52 7,-71 45,-136 105,-182 55,-42 108,-57 202,-57 95,0 161,30 205,93 25,35 30,54 33,114 3,63 1,77 -20,107 -30,44 -108,95 -223,145 -56,25 -105,55 -132,81 -37,35 -43,46 -43,83 0,82 52,121 163,121 106,0 197,-65 197,-140 0,-29 15,-40 55,-40 21,0 23,4 19,38 -12,96 -54,156 -133,191 -54,23 -169,35 -216,22 z"
       id="path12109" />
    <path
       d="m 8155,2623 c 5,-99 25,-615 25,-655 0,-14 8,-18 35,-18 31,0 35,3 35,28 0,68 -21,634 -26,690 l -6,62 h -34 -35 z"
       id="path12111" />
  </g>
</svg>
