<?xml version="1.0" encoding="UTF-8" standalone="no"?>
<!-- Created with Inkscape (http://www.inkscape.org/) -->

<svg
   version="1.1"
   id="svg2"
   width="383.05435"
   height="214.04822"
   viewBox="0 0 383.05435 214.04822"
   sodipodi:docname="logo.svgt.svg"
   inkscape:version="1.1 (ce6663b3b7, 2021-05-25)"
   xmlns:inkscape="http://www.inkscape.org/namespaces/inkscape"
   xmlns:sodipodi="http://sodipodi.sourceforge.net/DTD/sodipodi-0.dtd"
   xmlns="http://www.w3.org/2000/svg"
   xmlns:svg="http://www.w3.org/2000/svg">
  <defs
     id="defs6" />
  <sodipodi:namedview
     id="namedview4"
     pagecolor="#ffffff"
     bordercolor="#666666"
     borderopacity="1.0"
     inkscape:pageshadow="2"
     inkscape:pageopacity="0.0"
     inkscape:pagecheckerboard="0"
     showgrid="false"
     inkscape:zoom="0.86905989"
     inkscape:cx="201.94235"
     inkscape:cy="348.65261"
     inkscape:window-width="1680"
     inkscape:window-height="1013"
     inkscape:window-x="1920"
     inkscape:window-y="0"
     inkscape:window-maximized="1"
     inkscape:current-layer="g8" />
  <g
     inkscape:groupmode="layer"
     inkscape:label="Image"
     id="g8"
     transform="translate(123.03928,160.66889)">
    <path
       style="fill:#000000;stroke-width:0.32"
       d="m -2.8615195,53.160262 c -0.13796,-0.22324 -1.7403,-0.34874 -4.45264,-0.34874 -2.40981,0 -4.3756995,-0.13858 -4.5584495,-0.32133 -0.17674,-0.17674 -1.68154,-0.33755 -3.344,-0.35735 -1.66247,-0.0198 -3.16667,-0.14285 -3.34267,-0.27344 -0.176,-0.13059 -1.904,-0.4099 -3.84,-0.62069 -1.936,-0.21079 -3.808,-0.51048 -4.16,-0.66598 -0.352,-0.1555 -1.864,-0.49954 -3.36,-0.76453 -3.68312,-0.6524 -4.53063,-0.83825 -5.28,-1.15781 -0.352,-0.15011 -1.432,-0.4376 -2.4,-0.63887 -0.968,-0.20127 -2.048,-0.48429 -2.4,-0.62895 -0.352,-0.14466 -1.576,-0.55174 -2.72,-0.90463 -3.64507,-1.12439 -8.07444,-2.81513 -10.95348,-4.18107 -1.53641,-0.72894 -2.85504,-1.32535 -2.93028,-1.32535 -0.20799,0 -7.82558,-4.4015 -8.79054,-5.07924 -0.46513,-0.32669 -1.4937,-0.93806 -2.2857,-1.35862 -12.20281,-6.47977 -26.175563,-18.23609 -33.197461,-27.9315204 -0.3946,-0.54484 -0.94303,-1.27862 -1.21875,-1.63062 -0.98284,-1.25478 -3.34379,-4.63257998 -3.34379,-4.78394998 0,-0.0847 -0.77737,-1.34698002 -1.72749,-2.80504002 -0.95011,-1.45806 -1.98478,-3.19101 -2.29926,-3.85101 -0.31448,-0.66 -0.68912,-1.2 -0.83252,-1.2 -0.1434,0 -0.26073,-0.288 -0.26073,-0.64 0,-0.352 -0.144,-0.64 -0.32,-0.64 -0.176,0 -0.32,-0.19333 -0.32,-0.42963 0,-0.23629 -0.48731,-1.4242896 -1.0829,-2.6399996 -2.21005,-4.51104 -3.26608,-6.96178 -3.56222,-8.26688 -0.0769,-0.33908 -0.28727,-0.76388 -0.46739,-0.944 -0.18012,-0.18012 -0.32749,-0.58865 -0.32749,-0.90783 0,-0.31919 -0.1247,-0.83039 -0.27711,-1.136 -0.41162,-0.8254 -1.0187,-2.62861 -1.36788,-4.06306 -0.16969,-0.69708 -0.42879,-1.41708 -0.57577,-1.6 -0.14699,-0.18293 -0.34227,-0.9086 -0.43395,-1.6126 -0.2765,-2.12305 -1.12585,-5.85101 -1.48665,-6.52518 -0.18625,-0.34801 -0.34,-1.39821 -0.34165,-2.33379 -0.002,-0.93557 -0.28966,-3.11896 -0.64,-4.851974 -0.49088,-2.4282 -0.63699,-4.42833 -0.63699,-8.72 0,-3.49938 -0.11893,-5.56906 -0.32,-5.56906 -0.176,0 -0.32,-0.504 -0.32,-1.12 0,-0.616 0.144,-1.12 0.32,-1.12 0.176,0 0.32,-0.74757 0.32,-1.66125 0,-2.568219 0.65653,-8.983951 0.99249,-9.698754 0.28817,-0.61313 0.32135,-0.955383 0.31689,-3.269581 -0.001,-0.566269 0.13585,-1.114768 0.30432,-1.218887 0.16846,-0.104118 0.3063,-0.656006 0.3063,-1.226419 0,-0.570413 0.12209,-1.173913 0.27132,-1.341113 0.14922,-0.1672 0.45672,-1.384001 0.68333,-2.704001 0.22661,-1.32 0.55445,-2.76 0.72853,-3.2 0.17408,-0.44 0.43419,-1.088 0.57803,-1.44 0.14383,-0.352 0.35901,-1.144 0.47816,-1.76 0.59621,-3.082349 7.73893,-19.098133 9.28761,-20.825203 0.24916,-0.27785 0.45302,-0.58441 0.45302,-0.68123 0,-0.54511 2.89197,-4.84405 6.65631,-9.89464 4.645296,-6.23258 11.223081,-12.9669 17.663691,-18.08405 1.848,-1.46826 3.58808,-2.88676 3.86685,-3.15222 0.27876,-0.26546 0.65713,-0.48266 0.84081,-0.48266 0.18369,0 0.51248,-0.21509 0.73065,-0.47797 0.21818,-0.26288 1.13581,-0.91562 2.03919,-1.45053 0.90337,-0.53491 2.55696,-1.54383 3.67463,-2.24203 1.11767,-0.69821 2.07496,-1.26947 2.12729,-1.26947 0.0523,0 1.00989,-0.54486 2.12788,-1.21081 1.91485,-1.14061 4.43583,-2.40819 5.8727,-2.95288 0.84287,-0.31951 4.96652,-2.19034 5.67566,-2.57495 0.30561,-0.16575 0.83711,-0.30136 1.18111,-0.30136 0.34401,0 0.71446,-0.144 0.82323,-0.32 0.10878,-0.176 0.54078,-0.32 0.96,-0.32 0.41923,0 0.85123,-0.144 0.96,-0.32 0.10878,-0.176 0.51327,-0.32089 0.89889,-0.32197 0.38561,-0.001 1.10319,-0.2117 1.59463,-0.46804 0.49143,-0.25633 1.39302,-0.55977 2.00353,-0.6743 0.61051,-0.11453 1.18893,-0.33592 1.28537,-0.49197 0.0964,-0.15604 0.70686,-0.28882 1.35647,-0.29506 0.64961,-0.006 1.54111,-0.21713 1.98111,-0.46866 0.44,-0.25153 1.32242,-0.46242 1.96092,-0.46866 0.63851,-0.006 1.67202,-0.22489 2.29669,-0.4859 1.08116,-0.45173 3.76959,-0.73408 13.76964,-1.44612 2.43499,-0.17338 4.54015,-0.38501 4.67813,-0.47028 0.41904,-0.25898 21.51061952,-0.28745 23.0546195,-0.0311 0.792,0.13148 3.168,0.35816 5.28,0.50373 8.1637005,0.56266 13.8457105,1.37254 19.0400005,2.71384 0.44,0.11362 1.94491,0.34522 3.34424,0.51467 1.39933,0.16944 3.16836,0.51997 3.93118,0.77896 1.98662,0.67447 2.39121,0.60276 3.59261,-0.63676 2.9231,-3.01588 6.36621,-2.7075 8.18614,0.73318 0.40308,0.76205 0.95287,1.62864 1.22176,1.92576 0.26889,0.29711 0.76967,1.16735 1.11284,1.93386 0.71557,1.59827 4.9621,5.79484 5.86383,5.79484 0.32307,0 0.58741,0.12991 0.58741,0.2887 0,0.15878 0.396,0.4299 0.88,0.60249 0.484,0.17259 1.71638,1.05068 2.73862,1.95131 1.02224,0.90062 2.00952,1.6375 2.19395,1.6375 0.49595,0 2.82743,1.91678 2.82743,2.32453 0,0.19291 0.612,0.9588 1.36,1.70199 2.04492,2.03175 2.48,2.55109 2.48,2.96032 0,0.20524 0.14851,0.37316 0.33004,0.37316 0.18152,0 0.41941,0.252 0.52864,0.56 0.10923,0.308 0.37809,0.776 0.59748,1.04 0.21939,0.264 0.68796,1.00027 1.04127,1.63616 1.2863,2.31508 1.50575,2.68673 1.67924,2.84384 0.0972,0.088 0.43168,0.664 0.74336,1.28 0.66334,1.31103 0.98319,1.87242 2.28629,4.01279 1.76673,2.90189 1.73148,2.7098 0.75807,4.13213 -0.48749,0.71229 -1.3269,1.70329 -1.86537,2.20221 -1.28371,1.18943 -1.28992,2.35527 -0.019,3.57287 1.38738,1.32919 1.31322,2.68211 -0.24,4.3785 -1.9336,2.11184 -2.01779,2.1815 -2.63619,2.1815 -0.32476,0 -0.63847,0.14005 -0.69714,0.31122 -0.14318,0.41774 -4.60438,0.8179 -4.84147,0.43427 -0.10134,-0.16397 0.10692,-1.51477 0.46279,-3.0018 1.01279,-4.23198 1.14511,-6.70369 0.3589,-6.70369 -1.02139,0 -1.57912,0.9503 -2.34763,4 -1.30928,5.19565 -2.23757,6.09856 -5.54247,5.39091 -1.72605,-0.36958 -1.72204,-0.61289 0.0551,-3.33669 4.14863,-6.35873 5.11102,-9.3894 2.37251,-7.47127 -1.02644,0.71895 -4.38789,5.30521 -6.23991,8.51353 -0.99833,1.72945 -1.41049,1.88411 -3.55823,1.33525 -3.14062,-0.80259 -3.1649,-0.74666 2.95754,-6.81292 3.02294,-2.9952 5.49626,-5.52074 5.49626,-5.61232 0,-0.61301 -1.60459,0.0778 -3.3297,1.43351 -1.11978,0.88 -2.1343,1.6 -2.25449,1.6 -0.53521,0 -2.80732,1.93932 -5.52195,4.71317 -3.27806,3.34957 -3.16654,3.30792 -7.13386,2.66446 -2.11819,-0.34355 -4.0878,-0.42002 -4.48561,-0.17417 -0.21864,0.13513 -1.93235,-0.34533 -2.89409,-0.8114 -0.27483,-0.13319 -1.85883,-0.42684 -3.52,-0.65257 -1.66117,-0.22573 -3.19236,-0.54049 -3.40265,-0.69948 -0.21029,-0.15898 -1.86629,-0.2993 -3.68,-0.31182 -1.81371,-0.0125 -3.48023,-0.16524 -3.70337,-0.3394 -0.22585,-0.17626 -1.25431,-0.23969 -2.31988,-0.14307 -1.05279,0.0955 -1.9918,0.048 -2.08669,-0.10559 -0.0949,-0.15354 -0.59859,-0.19395 -1.11933,-0.0898 -0.52995,0.10599 -1.14225,0.0271 -1.39073,-0.17908 -0.42368,-0.35162 -5.0320805,-0.72582 -9.4776605,-0.76957 -1.14399998,-0.0113 -4.168,0.16277 -6.72,0.38673 -2.552,0.22397 -5.7919995,0.47629 -7.1999995,0.56072 -1.408,0.0844 -2.992,0.34514 -3.52,0.57937 -0.528,0.23422 -1.71584,0.52612 -2.63964,0.64866 -0.9238,0.12254 -1.7603,0.35331 -1.85888,0.51282 -0.0986,0.15951 -0.73825,0.29002 -1.42148,0.29002 -0.68322,0 -1.33122,0.144 -1.44,0.32 -0.10877,0.176 -0.58923,0.32 -1.06768,0.32 -0.47845,0 -1.15395,0.18465 -1.50111,0.41033 -0.34716,0.22568 -1.49521,0.68313 -2.55121,1.01655 -1.056,0.33342 -2.0568,0.72477 -2.224,0.86967 -0.1672,0.1449 -0.50628,0.26345 -0.75352,0.26345 -0.74899,0 -5.22617,2.37382 -7.00113,3.71201 -0.56025,0.4224 -1.17225,0.76799 -1.36,0.76799 -0.18774,0 -0.34135,0.12288 -0.34135,0.27305 0,0.27861 -3.58732,2.722311 -5.22513,3.559393 -2.3746,1.213651 -9.81487,9.433632 -9.81487,10.843425 0,0.200275 -0.144,0.364137 -0.32,0.364137 -0.176,0 -0.32,0.206784 -0.32,0.45952 0,0.252736 -0.80793,1.656736 -1.79541,3.12 -2.47573,3.668583 -6.20438,11.285738 -8.02319,16.390366 -0.44487,1.248563 -0.93768,2.406915 -1.09513,2.574115 -0.15745,0.1672 -0.28627,0.7192 -0.28627,1.226662 0,1.37157 -0.77929,0.9063 -0.90065,-0.537731 -0.0553,-0.658678 0.0445,-1.372473 0.22188,-1.586211 0.20609,-0.248329 0.21922,-0.84663 0.0364,-1.657389 -0.17624,-0.781411 -0.16928,-1.385651 0.0181,-1.573049 0.16735,-0.167357 0.30428,-0.986983 0.30428,-1.821396 0,-0.834413 0.15091,-1.610381 0.33535,-1.724374 0.20406,-0.126119 0.2547,-0.745101 0.12934,-1.58105 -0.11621,-0.774963 -0.0719,-1.456701 0.10173,-1.56399 0.16926,-0.104608 0.23827,-0.553636 0.15336,-0.997834 -0.0905,-0.473488 -0.007,-0.807638 0.20293,-0.807638 0.19651,0 0.3573,-0.505956 0.3573,-1.124343 0,-0.618387 0.12864,-1.374387 0.28588,-1.68 0.15723,-0.305613 0.45775,-1.347658 0.66784,-2.315658 0.21008,-0.968 0.65743,-2.370432 0.99412,-3.116512 0.33669,-0.746083 0.61216,-1.449792 0.61216,-1.563801 0,-0.222381 2.40843,-5.401361 2.8831,-6.199687 0.15697,-0.264 0.59692,-1.099411 0.97767,-1.856474 0.38075,-0.757059 1.25184,-2.121184 1.93575,-3.031386 0.68392,-0.910204 1.24348,-1.828345 1.24348,-2.040305 0,-0.21196 0.36,-0.66856 0.8,-1.01466 0.44,-0.34611 0.8,-0.76624 0.8,-0.93363 0,-0.1674 0.288,-0.56499 0.64,-0.88355 1.09981,-0.9953 0.62789,-2.4 -0.80629,-2.4 -0.73798,0 -2.07371,1.32746 -2.07371,2.06087 0,0.2508 -0.27596,0.54359 -0.61325,0.65064 -0.33729,0.10706 -0.75952,0.58476 -0.93828,1.06157 -0.17876,0.47681 -0.7668,1.35444 -1.30674,1.95029 -0.53995,0.595847 -0.98173,1.262215 -0.98173,1.480814 0,0.218601 -0.216,0.57672 -0.48,0.795821 -0.264,0.2191 -0.48,0.646412 -0.48,0.949587 0,0.303171 -0.288,0.811856 -0.64,1.130413 -0.352,0.318557 -0.64,0.775593 -0.64,1.015641 0,0.240048 -0.432,1.246 -0.96,2.23545 -0.528,0.98945 -0.96,2.144752 -0.96,2.567335 0,0.422585 -0.28039,1.069296 -0.62308,1.437132 -0.59499,0.638644 -0.84477,1.41057 -1.7423,5.384442 -0.21864,0.968 -0.47792,1.976 -0.57618,2.24 -0.28357,0.761847 -0.89844,5.023495 -0.89844,6.227054 0,0.602348 -0.14996,1.187859 -0.33325,1.301139 -0.1833,0.11328 -0.31846,0.949779 -0.30037,1.858886 0.0931,4.67841 0.0113,6.084215 -0.36763,6.31842 -0.31493,0.194633 -0.3188,0.677513 -0.0185,2.307224 0.47857,2.59733 0.48679,4.38728 0.0201,4.38728 -0.24798,0 -0.29668,0.57122 -0.15686,1.84 0.49,4.44635 0.57775,6.40436 0.29486,6.5792 -0.18389,0.11364 -0.19321,1.15353 -0.0241,2.68318 0.22831,2.06465 0.21171,3.86064 -0.0645,6.977624 -0.15816,1.7849 0.94784,12.6008 1.3115,12.82556 0.15325,0.0947 0.27864,0.67278 0.27864,1.28458 0,0.61181 0.22159,1.45056 0.49241,1.86389 0.27083,0.41333 0.45722,0.87626 0.41421,1.02874 -0.043,0.15248 0.16741,0.73808 0.46759,1.30134 0.3184,0.59744 0.54579,1.73605 0.54579,2.73297 0,1.02723 0.38293,2.89025 0.96,4.67063 0.528,1.62897 0.96,3.23463 0.96,3.56814 0,0.33351 0.144,0.69537 0.32,0.80415 0.176,0.10877 0.32,0.4524396 0.32,0.7637096 0,0.68262 1.1999,3.70095 2.94029,7.39629 2.36657,5.02486 3.15598,6.44127 5.4097,9.70641 0.95151,1.37852 2.12453,3.0971104 2.60671,3.8190704 0.48219,0.72197 1.05819,1.42788 1.28,1.56869 0.22182,0.14082 0.2593,0.25345 0.0833,0.2503 -0.176,-0.003 -0.896,-0.43048 -1.6,-0.94961 -0.704,-0.51913 -1.64,-1.12571 -2.08,-1.34794 -0.44,-0.22224 -1.06245,-0.72871 -1.38322,-1.1254904 -0.32074,-0.39679 -0.77594,-0.72143 -1.01152,-0.72143 -0.23558,0 -0.81856,-0.46376 -1.29551,-1.03059 -0.47695,-0.56682 -1.74975,-1.81393 -2.82845,-2.77136 -1.07869,-0.95743 -2.01539,-1.89766 -2.08155,-2.08941 -0.1159,-0.3359 -1.03032,-1.36921 -3.0977,-3.50044998 -0.5379,-0.5545 -1.18567,-1.44019002 -1.43948,-1.96819002 -0.25382,-0.528 -0.64059,-1.07452 -0.85949,-1.21449 -0.2189,-0.13997 -0.76959,-1.03997 -1.22376,-2 -0.45417,-0.96003 -0.94952,-1.74551 -1.10079,-1.74551 -0.15127,0 -0.87915,-1.26 -1.61752,-2.7999996 -0.73836,-1.54 -1.55269,-3.20346 -1.8096,-3.69657 -0.25692,-0.49311 -0.39114,-1.09458 -0.29827,-1.3366 0.0929,-0.24202 -0.0386,-0.6122 -0.29212,-0.82262 -0.25354,-0.21042 -0.46098,-0.6929 -0.46098,-1.07219 0,-0.37929 -0.2018,-0.97773 -0.44845,-1.32986 -0.24664,-0.35214 -0.49864,-0.99618 -0.56,-1.4312 -0.0889,-0.63021 -0.32336,-0.81137 -1.15375,-0.8914 -1.19821,-0.11548 -1.69563,0.606 -1.0883,1.57849 0.20377,0.32629 0.3705,0.94672 0.3705,1.37872 0,0.432 0.144,0.87445 0.32,0.98323 0.176,0.10877 0.32,0.67786 0.32,1.26465 0,0.65314 0.18615,1.13831 0.48,1.25107 0.27769,0.10656 0.48,0.58507 0.48,1.13535 0,0.52314 0.16008,1.05009 0.35572,1.17101 0.35052,0.21663 1.8979,3.4455096 2.01807,4.2110396 0.0339,0.21621 0.37773,0.72949 0.76396,1.14062 0.38624,0.41113 0.70225,0.85628 0.70225,0.98923 0,0.13294 0.432,0.86961 0.96,1.63703 0.528,0.76742 0.96,1.54937 0.96,1.73766 0,0.18828 0.12089,0.34234 0.26863,0.34234 0.14775,0 0.4182,0.32826 0.60101,0.72946 1.08269,2.37625 14.91112,15.5753804 16.33036,15.5872104 0.22,0.002 0.4,0.13448 0.4,0.29477 0,0.1603 1.476,1.2594 3.28,2.44245 1.804,1.18306 3.856,2.56551 4.56,3.07213 0.704,0.50662 1.712,1.15345 2.24,1.4374 0.528,0.28395 1.56024,1.00235 2.29386,1.59643 0.73362,0.59408 1.5393,1.08015 1.7904,1.08015 0.2511,0 0.72071,0.29189 1.04356,0.64864 0.32286,0.35675 1.38918,1.06142 2.3696,1.56593 2.42171,1.24617 3.24302,1.70356 4.18258,2.3293 0.44,0.29303 1.232,0.63353 1.76,0.75665 0.528,0.12313 2.112,0.83552 3.52,1.5831 1.408,0.74758 3.28,1.60536 4.16,1.90618 0.88,0.30082 1.84638,0.67588 2.1475,0.83347 0.30112,0.1576 1.59712,0.44322 2.88,0.63472 1.28288,0.1915 2.58255,0.48179 2.88816,0.6451 0.30561,0.1633 1.06161,0.29691 1.68,0.29691 0.61839,0 1.12434,0.1382 1.12434,0.30712 0,0.16891 0.468,0.30586 1.04,0.30432 2.0806995,-0.006 2.4517895,0.044 2.6430295,0.35346 0.10711,0.17331 0.66145,0.3151 1.23186,0.3151 0.57041,0 1.19124,0.15413 1.37962,0.34251 0.18838,0.18838 1.44601,0.35394 2.79473,0.36792 1.34872002,0.014 2.52789002,0.14784 2.62038002,0.29748 0.0925,0.14965 1.08715998,0.27209 2.21037998,0.27209 1.12323,0 2.13123,0.144 2.24,0.32 0.10878,0.176 0.88048,0.32 1.71489,0.32 0.83441,0 1.65391,0.13565 1.82111,0.30144 0.52126,0.51686 14.9619705,1.03305 20.3040005,0.72577 0.792,-0.0455 1.80001,-0.0586 2.24001,-0.0289 1.51645,0.10223 7.0619,-0.45488 7.22965,-0.72631 0.0925,-0.1496 1.20362,-0.27218 2.46923,-0.27239 1.26561,-2e-4 3.38112,-0.22232 4.70112,-0.4936 1.32,-0.27127 3.048,-0.57271 3.84,-0.66986 0.792,-0.0971 2.232,-0.43307 3.2,-0.74648 0.968,-0.31342 2.624,-0.73959 3.68,-0.94706 1.056,-0.20747 2.352,-0.52614 2.88,-0.70815 0.528,-0.18202 1.53033,-0.46977 2.2274,-0.63946 0.69707,-0.16969 1.42066,-0.43571 1.60797,-0.59117 0.18732,-0.15546 0.69699,-0.34178 1.1326,-0.41405 0.43562,-0.0723 1.00803,-0.20966 1.27203,-0.30532 0.264,-0.0957 1.2,-0.42474 2.08,-0.73128 0.88,-0.30654 1.7368,-0.68241 1.904,-0.83527 0.1672,-0.15285 0.6352,-0.27792 1.04,-0.27792 0.4048,0 0.736,-0.144 0.736,-0.32 0,-0.176 0.15322,-0.32 0.3405,-0.32 0.18728,0 1.15928,-0.37542 2.16,-0.83427 1.00072,-0.45885 2.49124,-1.09992 3.31225,-1.4246 1.76373,-0.69747 5.81903,-2.85275 8.19346,-4.35459 0.92742,-0.5866 1.75262,-1.06654 1.83379,-1.06654 0.37058,0 4.071,-2.53889 6.26257,-4.2968 1.33242,-1.06876 2.83919,-2.2312 3.34839,-2.5832 0.5092,-0.352 1.4382,-1.18 2.06443,-1.84 0.62624,-0.66 1.20746,-1.20004 1.29161,-1.20009 0.801609,-6.4e-4 7.960069,-7.8783904 9.377659,-10.3201304 0.48541,-0.83613 1.17334,-1.79112 1.52872,-2.12219998 0.64613,-0.60197 0.64613,-0.60197 -0.13996,-1.45018 -3.08042,-3.32383002 0.77189,-8.79262002 4.4815,-6.36199002 3.17856,2.08267 2.28463,7.85350002 -1.16806,7.54042002 -1.92686,-0.17472 -1.92686,-0.17472 -1.92686,0.81466998 0,0.54416 -0.12779,1.32016 -0.28397,1.72444 -0.15618,0.40428 -0.46375,1.52706 -0.6835,2.49506 -0.69446,3.05918 -2.93685,7.6772704 -4.83839,9.9644104 -0.67878,0.81643 -1.23414,1.63414 -1.23414,1.81715 0,0.92377 -12.259999,12.21844 -13.262719,12.21844 -0.12627,0 -0.82981,0.48306 -1.56343,1.07348 -1.65153,1.32914 -5.20742,3.40652 -5.831,3.40652 -0.25457,0 -0.46285,0.144 -0.46285,0.32 0,0.176 -0.14833,0.32 -0.32962,0.32 -0.27105,0 -4.92459,2.66792 -6.71038,3.84712 -0.264,0.17432 -0.696,0.41677 -0.96,0.53876 -0.264,0.122 -0.75916,0.48108 -1.10034,0.79796 -0.34119,0.31689 -0.94469,0.57616 -1.34112,0.57616 -0.39643,0 -0.80977,0.144 -0.91854,0.32 -0.10878,0.176 -0.46561,0.32 -0.79296,0.32 -0.32735,0 -1.00285,0.20351 -1.50111,0.45223 -0.89909,0.44881 -2.40968,1.10697 -3.94593,1.71922 -0.44,0.17536 -1.52,0.54136 -2.4,0.81334 -0.88,0.27198 -2.032,0.63852 -2.56,0.81454 -0.528,0.17602 -1.824,0.55586 -2.88,0.84407 -1.056,0.28821 -2.58733,0.72936 -3.40295,0.98031 -0.81562,0.25096 -1.92312,0.45629 -2.46112,0.45629 -0.53799,0 -1.06716,0.144 -1.17593,0.32 -0.10878,0.176 -0.53117,0.32 -0.93866,0.32 -0.40748,0 -1.37098,0.22948 -2.14111,0.50996 -0.77013,0.28047 -2.19223,0.63221 -3.16023,0.78164 -2.53377,0.39112 -6.37823,1.1812 -7.68,1.57832 -0.616,0.18792 -1.696,0.31802 -2.4,0.2891 -1.28536,-0.0528 -4.34038,0.29933 -10.88001,1.254 -1.936,0.28262 -4.528,0.53723 -5.76,0.5658 -10.9317705,0.25346 -19.05012048,0.52619 -19.8833505,0.66795 -0.56458,0.096 -1.09761,0.0182 -1.21889,-0.17803 z M 113.88649,-2.4146484 c 0.55588,-1.44859 0.0751,-3.01383 -0.92576,-3.01383 -0.79881,0 -1.12,0.53977 -1.12,1.88217 0,1.44376 1.58875,2.32261 2.04576,1.13166 z M 62.589281,-129.22726 c 1.15691,-0.93682 1.02311,-2.74887 -0.2896,-3.92177 -1.20841,-1.07971 -3.17544,-1.33401 -2.78046,-0.35946 0.7979,1.96868 0.86874,2.39791 0.52151,3.16 -0.80298,1.76234 0.85565,2.49205 2.54855,1.12123 z m -3.24096,-0.97805 c 0.43118,-0.80568 0.10093,-1.62318 -0.65574,-1.62318 -0.76755,0 -1.22188,1.53988 -0.57517,1.94945 0.65331,0.41374 0.86488,0.35766 1.23091,-0.32627 z M 192.85651,5.0309016 c -0.8245,-0.87765 -1.06113,-11.52683 -0.31335,-14.10225 2.1297,-7.3349296 11.78023,-5.1616296 11.77639,2.65203 -0.003,4.36262 -2.46148,6.92224002 -6.43501,6.69747002 -1.10371,-0.0624 -1.89559,0.026 -1.91059,0.21337 -0.0141,0.176 -0.004,1.13820998 0.0224,2.13824998 0.0739,2.80308 -1.57646,4.0652 -3.13978,2.40113 z m 7.30774,-9.25938 c 1.73606,-2.84738 -0.38246,-6.8133496 -2.93456,-5.4936 -1.39158,0.71961 -1.88416,4.63922 -0.74163,5.90169 0.97622,1.07874 2.89984,0.8652 3.67619,-0.40809 z m 15.45514,7.37777 c -1.00186,-0.48415 -1.18314,-1.23551 -0.47012,-1.94854 0.49424,-0.49423998 0.74138,-0.54503998 1.27143,-0.26135998 1.01539,0.54342998 3.26003,0.45537998 3.26003,-0.12787 0,-0.34978 -0.36896,-0.48276 -1.36,-0.49018 -3.03562,-0.0227 -5.40221,-6.08446002 -3.16566,-8.10850002 1.13395,-1.02622 2.08998,0.22393 2.00352,2.61993 -0.088,2.43968 0.33212,3.33327 1.50368,3.19793 0.84396,-0.0975 0.86003,-0.14315 0.95078,-2.70074 0.12224,-3.4444 2.62768,-5.3407396 2.62768,-1.98884 0,0.81557 0.18778,0.74847 1.25827,-0.4496 0.80781,-0.90409 1.13312,-1.04 2.48957,-1.04 2.60832,0 4.31021,1.75879 2.68438,2.77413 -0.58,0.36223 -0.5654,0.42192 0.32,1.30733 2.83872,2.83872 -2.33312,6.13657 -5.6528,3.60453002 -1.04102,-0.79401002 -1.04102,-0.79401002 -1.26704,0.8494 -0.3864,2.80936998 -3.55228,4.16446998 -6.45372,2.76237998 z m 8.42252,-5.69777 c 0.34695,0 0.78608,0.15526 0.97584,0.34502 0.4162,0.41619 2.18298,0.26645 2.18298,-0.18502 0,-0.176 -0.68112,-0.3983 -1.5136,-0.494 -1.0808,-0.12425 -1.78992,-0.43874 -2.48,-1.09987 -0.9664,-0.92587 -0.9664,-0.92587 -0.9664,0.7836 0,1.63583 0.0253,1.68665 0.58518,1.17987 0.32186,-0.29128 0.86906,-0.5296 1.216,-0.5296 z m 3.16116,-3.06225 c -0.7257,-0.5484 -1.80784,-0.49318 -2.00394,0.10225 -0.0921,0.27968 0.28538,0.39694 1.25494,0.38982 1.30477,-0.01 1.349,-0.0386 0.749,-0.49207 z m 12.64892,8.52329 c -0.1822,-0.34043 -0.33126,-1.06043 -0.33126,-1.6 0,-0.93519998 -0.0613,-0.98103998 -1.312,-0.98103998 -1.06541,0 -1.51648,-0.20449 -2.4,-1.088 -3.62042,-3.62041002 1.2656,-9.69400962 5.06694,-6.29854002 1.16132,1.0373 1.84743,8.94696 0.87751,10.11566 -0.54835,0.6607 -1.50835,0.58593 -1.90119,-0.14808 z m -0.49126,-6.74104 c 0,-1.9378 -0.78083,-2.53344 -1.88013,-1.43417 -1.12278,1.12281 -0.39856,3.45742 1.02167,3.29335 0.8152,-0.0942 0.85846,-0.18786 0.85846,-1.85918 z M -46.079279,0.65152162 c -0.10877,-0.176 -1.20036,-0.32 -2.42575,-0.32 -3.97976,0 -6.37425,-2.43009002 -6.37425,-6.46903002 0,-6.6821296 7.20426,-9.4908796 10.60188,-4.1333896 1.28197,2.0214396 1.43341,9.88520962 0.20692,10.74427962 -0.81115,0.56813998 -1.71805,0.64856998 -2.0088,0.17814 z m -1.51871,-4.47288002 c 0.5849,-0.93657 0.59043,-4.34111 0.008,-4.92355 -1.74278,-1.7427696 -4.06153,0.16589 -3.67773,3.02731 0.30913,2.30476 2.65696,3.51794 3.66973,1.89624 z m 45.3240695,4.23853002 c -4.87366,-0.34571 -4.96403,-8.08565002 -0.0944,-8.08565002 2.52006002,0 3.48905,1.40836 3.48905,5.07106 0,2.52420002 -0.30889998,3.30373002 -1.26399998,3.18975002 -0.2728,-0.0326 -1.23159002,-0.11138 -2.13064002,-0.17516 z m 0.77064,-2.70965002 c 0.93091002,-0.93091 0.1005,-3.31166 -1.07715,-3.08814 -0.63142,0.11985 -1.03846,2.01403 -0.65021,3.02579 0.21011,0.54755 1.20621,0.5835 1.72736,0.0623 z m -39.4559995,2.23750002 c -1.02758,-0.58932 -1.42068,-1.29167002 -1.07962,-1.92895002 0.32422,-0.6058 1.71342,-0.77237 2.03962,-0.24455 0.10878,0.176 0.70528,0.32 1.32556,0.32 1.47919,0 1.28104,-0.76591 -0.2302,-0.88979 -3.45943,-0.28358 -4.48295,-3.52664 -1.58583,-5.02479 2.55651,-1.32203 6.3994,1.00217 4.25257,2.57197 -0.51676,0.37787 -0.49317,0.45886 0.32,1.0985 2.92825,2.30337 -1.66368,6.03513 -5.0421,4.09761002 z m 3.42525,-5.55582002 c -0.79753,-0.55861 -1.7015,-0.51007 -1.9054,0.10232 -0.0928,0.27869 0.28469,0.4 1.24469,0.4 1.34322,0 1.35983,-0.0126 0.66071,-0.50232 z m 3.82512,5.35148002 c -0.98702,-0.75922002 -0.85286,-2.08353002 0.22654,-2.23625002 0.4163,-0.0589 0.9131,0.0491 1.104,0.24 0.1909,0.1909 0.83429,0.34709 1.42976,0.34709 1.65966,0 1.09475,-0.76771 -0.72087,-0.97966 -3.40889,-0.39794 -4.0952,-4.06886 -0.9545,-5.10539 2.59563,-0.85663 5.86665,1.00506 4.23374,2.40963 -0.83037,0.71426 -0.83037,0.71426 0.004,1.33743 1.23174,0.91962 1.17822,2.78929 -0.10933,3.81949002 -1.20855,0.96699 -4.05543,1.05854 -5.21364,0.16766 z m 3.63196,-5.35141002 c -0.72568,-0.5484 -1.80783,-0.49318 -2.00393,0.10225 -0.0921,0.27968 0.28538,0.39694 1.25494,0.38982 1.30476,-0.01 1.349,-0.0386 0.74899,-0.49207 z m 5.0275,5.00284002 c -2.63907,-2.63907002 -0.98336,-7.38059002 2.57727,-7.38059002 3.24332,0 5.15667,3.37601 3.60926,6.36837 -1.12266,2.17099002 -4.47866,2.72009 -6.18653,1.01222002 z m 3.89594,-1.80676002 c 0.63509,-1.65502 0.008,-3.33383 -1.24577,-3.33383 -1.32008,0 -2.06712,2.44487 -1.056,3.456 0.55631,0.55631 2.07229,0.47584 2.30177,-0.12217 z m 5.26438,2.02458002 c -3.55392,-3.00425002 -0.51447,-9.23243002 3.65532,-7.49017002 2.2214,0.92816 1.83667,2.68741 -0.50579,2.31283 -1.58066,-0.25275 -2.14113,0.19307 -2.13478,1.69811 0.007,1.73217 0.3171,2.01769 2.06354,1.9019 1.19697,-0.0794 1.60272,0.0236 1.88809,0.47897 1.0033895,1.60124002 -3.25689,2.54345 -4.96638,1.09836002 z m 6.3240895,0.21542 c -0.5819295,-1.51649002 -0.1993,-7.46860002 0.50432,-7.84517002 1.56204,-0.83598 2.79133,5.37592 1.53019,7.73238002 -0.39937,0.74622 -1.76244,0.82179 -2.03451,0.11279 z m 13.57997,-0.27871 c -0.62691,-0.66732002 -0.73059,-1.09720002 -0.69215,-2.86991002 0.0437,-2.01339 0.0121,-2.10214 -0.91842,-2.58333 -0.53,-0.27408 -0.96364,-0.57609 -0.96364,-0.67114 0,-0.49511 0.72024,-1.41074 1.1097,-1.41074 0.45902,0 0.96458,-1.08253 0.70853,-1.51714 -0.39754,-0.6747696 0.44104,-1.7230696 1.29941,-1.6243496 0.78839,0.0907 0.8994,0.25455 1.04236,1.5386296 0.12414,1.11502 0.30345,1.46343 0.8,1.55443 1.72023,0.31528 1.89527,1.49086 0.32,2.14905 -1.66402,0.69528 -1.75243,3.8759 -0.11227,4.0391 0.55425,0.0552 1.1579,0.34021 1.34145,0.63346 0.96515,1.54202002 -2.56074,2.22475 -3.93497,0.76194002 z m 5.11705,0.16592 c -1.11529,-2.08395002 -0.14426,-8.28457002 1.2188105,-7.78280002 1.62432,0.59794 1.50075,8.40176002 -0.13304,8.40176002 -0.4184505,0 -0.9020505,-0.27568 -1.0857705,-0.61896 z m 4.6796105,-0.0382 c -1.44085,-1.13337002 -1.8724,-4.62214002 -0.75176,-6.07753002 2.36433,-3.07062 7.26089,-1.33432 7.26089,2.57469 0,3.31042002 -4.01021,5.46849 -6.50913,3.50284002 z m 3.56513,-1.96684002 c 1.01113,-1.01113 0.26408,-3.456 -1.056,-3.456 -1.20254,0 -2.12526,2.72806 -1.22666,3.62666 0.35354,0.35355 1.87198,0.24003 2.28266,-0.17066 z m 4.11734,2.41066002 c -1.35875,-1.35875002 0.30449,-7.33705002 2.18027,-7.83668002 3.36523,-0.89637 5.02599,0.75819 4.89905,4.88074 -0.13568,4.40647 -1.95023,4.79427 -2.10219,0.44928 -0.0678,-1.93744 -0.21881,-2.65727 -0.62116,-2.96 -1.46677,-1.10361 -2.36682,-0.009 -2.29611,2.79307 0.0666,2.63829002 -0.87415,3.85931 -2.05986,2.67359002 z m 16.37681,-0.50825 c -3.14062,-2.65487002 -1.36284,-7.97566002 2.51542,-7.52853002 1.024,0.11805 1.02571,0.11577 1.12,-1.49582 0.0912,-1.5590796 0.12714,-1.6140596 1.05444,-1.6140596 1.5448,0 1.66743,8.8433396 0.14375,10.36701962 -1.27989,1.27988 -3.49357,1.40417 -4.83361,0.27139 z m 3.18586,-1.90241002 c 0.78631,-0.78631 0.47857,-3.10007 -0.44309,-3.33139 -1.38709,-0.34814 -2.12905,0.9411 -1.63174,2.83539 0.25035,0.95363 1.35348,1.21734 2.07483,0.496 z m 5.29198,1.74400002 c -3.77982,-3.36720002 0.14283,-9.86330962 4.25463,-7.04586002 2.94291,2.01651 2.31613,4.72586 -1.09328,4.72586 -2.74203,0 -2.62893,0.7832 0.12085,0.83692 2.67532,0.0523 2.68982,0.0563 2.68982,0.74494 0,1.77448002 -4.22278,2.29642 -5.97202,0.73814002 z m 3.09202,-5.04000002 c -0.49575,-0.59735 -0.68083,-0.59863 -1.45884,-0.0102 -0.58098,0.43943 -0.541,0.47048 0.61802,0.48 1.06574,0.009 1.18342,-0.057 0.84082,-0.46982 z m 4.68394,5.18378002 c -1.09103,-0.87305002 -1.05248,-1.93048002 0.0762,-2.09087002 0.4145,-0.0589 0.90983,0.0491 1.10073,0.24 0.54264,0.54263 2.4591,0.43906 2.4591,-0.13291 0,-0.33693 -0.34012,-0.48 -1.14104,-0.48 -4.1486,0 -4.59856,-4.55454 -0.52545,-5.31866 2.40419,-0.45103 4.87114,1.7267 3.24571,2.86519 -0.66037,0.46255 -0.66028,0.46333 0.16,1.2836 2.75516,2.75516 -2.24723,6.13675 -5.37528,3.63365002 z m 3.57171,-5.22527002 c -0.35254,-0.35254 -0.78944,-0.45424 -1.34857,-0.3139 -1.29084,0.32398 -0.9716,0.83539 0.52149,0.83539 1.24641,0 1.30906,-0.0395 0.82708,-0.52149 z m 13.0149,4.92149002 c -5.47332,-3.74055002 -3.20185,-13.03999962 3.18513,-13.03999962 2.1058,0 5.30432,2.15034 5.30432,3.56606 0,0.3058896 0.144,0.6451596 0.32,0.7539396 0.176,0.10877 0.32,0.90927 0.32,1.77889 0,2.55526 -0.51908,2.86111 -4.85578,2.86111 -3.57579,0 -3.57579,0 -2.80182,0.82384 0.80296,0.85472 2.94894,0.96871 5.50881,0.29264 1.06983,-0.28255 2.14879,0.52262 2.14879,1.60352 0,2.44839002 -6.18803,3.37021 -9.12945,1.36000002 z m 5.09949,-7.87154002 c 0.23119,-0.37406 -1.00451,-1.6484596 -1.5984,-1.6484596 -0.8169,0 -2.37164,0.9493896 -2.37164,1.4482196 0,0.52568 3.65498,0.71003 3.97004,0.20024 z m 8.16223,8.50136002 c -0.89644,-0.68826 -1.25227,-1.74168002 -1.25227,-3.70722002 0,-1.63843 -0.0937,-1.94922 -0.64,-2.1226 -0.4175,-0.13251 -0.64,-0.48417 -0.64,-1.01152 0,-0.53928 0.21306,-0.86411 0.64,-0.97576 0.49387,-0.12915 0.64,-0.43649 0.64,-1.34604 0,-1.3538596 0.45616,-1.9466796 1.4979,-1.9466796 0.73324,0 0.9239,0.37712 1.13251,2.2399996 0.0607,0.54222 0.3141,0.83197 0.78635,0.89921 1.6726,0.23816 1.72577,1.91926 0.0729,2.30663 -1.38537,0.3247 -1.33014,3.75467 0.0627,3.89274 1.25663,0.12457 1.87715,0.94287002 1.26987,1.67460002 -0.50415,0.60746 -2.82292,0.67023 -3.56999,0.0966 z m 5.27573,-0.67782 c -2.0791,-2.07910002 -1.33358,-8.76790002 0.78023,-7.00027002 0.5722,0.47849 0.69317,0.97272 0.76567,3.12827 0.0807,2.39962 0.13231,2.56655 0.82371,2.66456 1.32126,0.18731 1.66239,-0.4502 1.66239,-3.10677 0,-2.09515 0.0911,-2.50072 0.63833,-2.84249 1.50756,-0.94149 2.31697,1.48978 1.71293,5.14529 -0.51008,3.08696002 -4.15818,4.2365 -6.38326,2.01141002 z m 9.54924,0.66393 c -3.36305,-1.86773002 -1.97383,-7.89593002 1.819659,-7.89593002 1.25574,0 1.26712,-0.0111 1.3647,-1.32741 0.1141,-1.5392296 0.86967,-2.2504996 1.7784,-1.6741296 1.11678,0.70833 0.80846,9.1015996 -0.37987,10.34115962 -1.04348,1.08845 -3.16171,1.34558 -4.582889,0.55631 z m 3.059119,-3.64573002 c 0.09,-1.56008 0.0425,-1.68332 -0.72415,-1.87573 -1.07116,-0.26885 -1.772209,0.33471 -1.772209,1.52575 0,2.80292 2.335899,3.13041002 2.496359,0.34998 z m 4.23489,3.45084002 c -1.29339,-2.41674002 -0.0552,-8.58085002 1.55099,-7.72125002 0.73278,0.39217 1.14499,6.14101 0.54639,7.62021002 -0.36455,0.90086 -1.63653,0.96214 -2.09738,0.10104 z m 12.02298,0.11279 c -0.73109,-1.90520002 -0.0154,-6.08007002 1.19744,-6.98498002 3.55275,-2.65075 8.19034,2.69927 5.95707,6.87219002 -1.00172,1.87172998 -2.22874,0.53702 -2.22874,-2.42436002 0,-2.51828 -0.62923,-3.38912 -2.05383,-2.84244 -0.40087,0.15382 -0.50617,0.70639 -0.50617,2.656 0,1.48803 -0.15189,2.61365002 -0.384,2.84576002 -0.54862,0.54862 -1.75285,0.47438 -1.98177,-0.12217 z m 10.06899,-0.33699 c -0.51372,-0.65309002 -0.66322,-1.30384002 -0.66322,-2.88686002 0,-1.86941 -0.0682,-2.07479 -0.8,-2.40821 -1.01,-0.46018 -1.1133,-1.83976 -0.1565,-2.08997 0.62301,-0.16292 0.83895,-0.65325 1.02691,-2.3317996 0.18132,-1.61917 1.97521,-1.10542 2.16959,0.6213496 0.14535,1.29121 0.25709,1.44636 1.22036,1.69443 1.64616,0.42393 1.27276,1.69074 -0.67721,2.29755 -1.05089,0.32703 -0.63659,3.51738 0.47343,3.64566 1.08519,0.12542 1.65603,0.80208 1.38829,1.64565002 -0.3391,1.06842 -3.09578,0.9384 -3.98165,-0.1878 z m 11.98744,-0.28751 c -3.54741,-3.54742002 1.09775,-9.89119962 4.76442,-6.50664002 2.60012,2.40007 1.91445,4.43731 -1.49345,4.43731 -2.00555,0 -2.19606,0.0529 -1.82025,0.50577 0.3174,0.38244 0.88289,0.47997 2.31909,0.4 2.34856,-0.13079 3.16742,0.6047 1.86408,1.67428002 -1.38229,1.13436 -4.24865,0.87452 -5.63389,-0.51072 z m 3.20818,-4.79951002 c -0.77801,-0.58845 -0.96309,-0.58717 -1.45884,0.0102 -0.34261,0.41281 -0.22492,0.47857 0.84082,0.46982 1.15901,-0.01 1.199,-0.0406 0.61802,-0.48 z m 10.90011,5.18998002 c -1.30495,-1.04421002 -0.95483,-2.30700002 0.55267,-1.99336002 2.59929,0.54081 3.48906,0.57566 3.34191,0.1309 -0.0821,-0.24814 -0.78623,-0.51237 -1.62764,-0.61078 -3.56294,-0.4167 -4.27332,-4.03481 -1.00404,-5.11377 2.81472,-0.92894 6.00945,1.23641 3.95119,2.67808 -0.54678,0.38297 -0.58469,0.51598 -0.21037,0.73814 0.8841,0.52472 1.55479,1.93032 1.33635,2.80065 -0.51978,2.07097002 -4.41285,2.9123 -6.34007,1.37014002 z m 3.80337,-5.20205002 c -0.72567,-0.5484 -1.80783,-0.49318 -2.00392,0.10225 -0.0921,0.27968 0.28537,0.39694 1.25493,0.38982 1.30476,-0.01 1.349,-0.0386 0.74899,-0.49207 z m 10.80872,4.81729002 c -2.48488,-2.48487002 -0.79683,-7.19504002 2.57858,-7.19504002 1.33859,0 1.37551,-0.0274 1.24403,-0.92325 -0.26028,-1.7734296 1.70767,-3.2936096 2.29211,-1.7705796 0.31033,0.8086996 0.22422,8.0133096 -0.10616,8.8822696 -0.93181,2.45086002 -4.04308,2.97208 -6.00856,1.00660002 z m 3.68849,-2.84408002 c 0.1276,-2.01145 -0.82561,-2.77917 -1.99667,-1.6081 -1.10796,1.10795 -0.36899,3.43894 1.03866,3.27632 0.78493,-0.0907 0.86701,-0.23361 0.95801,-1.66822 z m 5.69723,3.30078002 c -3.25275,-2.55861002 -1.61376,-7.97174002 2.41369,-7.97174002 1.9334,0 4.0348,3.14589 3.1748,4.75281 -0.3187,0.59551 -0.64731,0.68719 -2.46318,0.68719 -1.53636,0 -2.0587,0.10672 -1.95783,0.4 0.0905,0.263 0.82667,0.4 2.14953,0.4 1.59796,0 2.08545,0.11936 2.3691,0.58005 1.0002,1.62450002 -3.83897,2.60466 -5.68611,1.15169002 z m 3.00324,-5.05750002 c 0,-0.55409 -1.07573,-0.69565 -1.56539,-0.206 -0.44234,0.44234 -0.3884,0.49176 0.53682,0.49176 0.56571,0 1.02857,-0.1286 1.02857,-0.28576 z m 24.79955,5.02594002 c -0.69187,-2.80216002 0.016,-10.66017962 0.96045,-10.66017962 0.91315,0 0.96464,0.0716 1.05536,1.4666596 0.0954,1.46667 0.0954,1.46667 1.44986,1.46667 2.73366,0 4.05478,1.67782 4.05478,5.14962 0,4.46341 -2.29645,4.85304 -2.56,0.43434 -0.29091,-4.87772 -2.58714,-4.86495 -2.88,0.016 -0.17091,2.84842002 -1.55331,4.26169 -2.08045,2.12687002 z m 25.02848,0.50118 c -0.57462,-0.57463 -0.24793,-7.76820002 0.36778,-8.09770002 1.36013,-0.72792 1.67376,0.12836 1.57501,4.29995 -0.0916,3.87133002 -0.69322,5.04731 -1.94279,3.79775002 z m 13.80211,-0.52295 c -2.40064,-2.02934002 -2.11369,-8.92758002 0.31722,-7.62658002 0.73405,0.39284 1.08541,1.65679 1.00742,3.6237 -0.0999,2.51943 -0.0934,2.53453 1.04522,2.42474 1.04,-0.10027 1.04,-0.10027 1.13475,-2.65136 0.19178,-5.1647 2.62525,-5.1221 2.62525,0.046 0,4.33012002 -3.29568,6.57938 -6.12986,4.18355002 z m 9.29194,0.2406 c -1.27334,-0.69197 -1.99754,-2.49685002 -1.77062,-4.41275002 0.48172,-4.06754 5.26099,-5.07355 7.05152,-1.48431 1.1544,2.31404 0.47468,3.17805 -2.50013,3.17805 -1.16135,0 -2.10285,0.14054 -2.10285,0.3139 0,0.47644 1.47987,0.74711 2.86966,0.52487 1.51469,-0.24221 2.25034,0.006 2.25034,0.75866 0,1.42453002 -3.86477,2.17215002 -5.79792,1.12158002 z m 2.91792,-5.24477002 c 0,-0.48462 -0.97338,-0.6896 -1.62317,-0.34183 -0.88851,0.4755 -0.76656,0.62759 0.50317,0.62759 0.616,0 1.12,-0.1286 1.12,-0.28576 z m -123.2,1.72576 c 0,-1.44 0,-1.44 1.44,-1.44 1.44,0 1.44,0 1.44,1.44 0,1.44 0,1.44 -1.44,1.44 -1.44,0 -1.44,0 -1.44,-1.44 z m 15.04,0 c 0,-1.44 0,-1.44 1.44,-1.44 1.44,0 1.44,0 1.44,1.44 0,1.44 0,1.44 -1.44,1.44 -1.44,0 -1.44,0 -1.44,-1.44 z m -158.3360095,-5.664 c -0.7554595,-0.7554696 -0.0947,-2.1759996 1.01211,-2.1759996 0.26557,0 1.16389,0.98793 1.16389,1.28 0,0.9334896 -1.51478,1.5572196 -2.176,0.8959996 z m 18.67886,-0.11886 c -0.65673,-0.6567296 -0.63506,-0.8782996 0.15588,-1.5940896 1.1064205,-1.0013 2.5271505,0.47723 1.5685105,1.6323196 -0.50003,0.60249 -1.0969005,0.58926 -1.7243905,-0.0382 z m 96.9371495,-0.13714 c -0.55892,-0.6175996 -0.55892,-0.6623996 0,-1.2799996 0.74834,-0.82691 1.28508,-0.80937 1.89538,0.062 0.94158,1.3442996 -0.77993,2.4506096 -1.89538,1.2180396 z m 124.97277,0.17537 c -0.84727,-1.0208796 0.40281,-2.6255496 1.40041,-1.7976296 0.60196,0.49959 0.65719,1.3438996 0.12282,1.8782596 -0.51306,0.51305 -1.0543,0.4844 -1.52323,-0.0806 z m -12.97277,-2.7220396 c -6.85446,-0.97907 -10.74147,-4.91902 -8.98954,-9.112 1.09735,-2.62628 3.50276,-3.25371 6.7136,-1.75117 3.45508,1.61682 11.05463,1.71498 12.50711,0.16154 0.63024,-0.67405 1.12883,-2.64986 1.12883,-4.47331 0,-1.39229 -0.0967,-1.77421 -0.4,-1.57987 -7.29232,4.67246 -17.50662,-2.17172 -19.74269,-13.22879 -0.70931,-3.507474 -1.00214,-21.883414 -0.37494,-23.528906 0.87885,-2.305654 3.67382,-3.478026 5.79257,-2.429744 2.73898,1.35513 2.70084,1.173642 2.9089,13.848916 0.19667,11.981964 0.16819,11.773494 1.97738,14.479584 2.08144,3.11335 5.53148,3.1087 8.79878,-0.0118 1.04,-0.99329 1.04,-0.99329 1.04,-12.667804 0,-8.51682 0.10819,-11.983585 0.4,-12.817224 1.38131,-3.94609 5.62582,-4.551878 7.85322,-1.120825 1.0128,1.560124 0.96,40.728033 -0.0595,44.138113 -1.73584,5.8061 -4.40429,8.54206 -9.47373,9.71337 -1.89264,0.4373 -8.05286,0.66951 -10.08,0.37996 z m -123.321799,-0.38217 c -1.38321,-0.39781 -5.21456,-3.48418 -6.17844,-4.9771 -2.89399,-4.48238 -2.96429,-4.8216 -1.23625,-5.96517 1.30476,-0.86345 2.25649,-0.62182 2.25649,0.57291 0,0.58106 2.94585,4.99579 3.8745,5.80641 2.58913,2.26008 7.415759,2.29969 10.574899,0.0868 1.1879,-0.8321 1.77694,-0.7443 2.34238,0.34913 0.86462,1.672 0.84849,1.69427 -2.60132,3.58962 -1.78418,0.98024 -6.513989,1.26167 -9.032259,0.53743 z m 20.987169,-4.17276 c -2.94771,-2.82551 -2.46859,-2.62154 -5.95568,-2.53537 -2.88728,0.0713 -4.669,-0.38993 -3.28635,-0.85081 0.20716,-0.0691 0.37666,-0.27267 0.37666,-0.45248 0,-0.17981 0.4028,-0.92381 0.89511,-1.65334 1.37517,-2.03776 1.38246,-2.2029 0.20081,-4.55149 -1.38483,-2.75244 -1.43561,-3.49677 -0.21592,-3.16473 0.484,0.13176 1.456,0.35564 2.16,0.4975 0.704,0.14186 1.66477,0.35231 2.13505,0.46766 0.84472,0.2072 2.81846,-0.86766 4.57582,-2.49189 1.27478,-1.17821 1.75379,-0.48001 2.30436,3.35885 0.18789,1.31011 0.71652,1.79949 3.51804,3.25681 1.75457,0.91271 2.68404,2.10994 1.62673,2.09538 -1.80428,-0.0249 -5.07542,1.81344 -5.41567,3.04347 -1.21554,4.39425 -1.32617,4.50721 -2.91896,2.98044 z m -16.865369,-9.42254 c -1.31119,-0.44944 -4.48,-3.07171 -4.48,-3.70732 0,-0.14054 -0.27574,-0.86595 -0.61276,-1.61203 -1.54623,-3.42304 -2.08401,-14.319264 -0.95689,-19.388244 1.01866,-4.58124 2.38947,-9.46124 3.00334,-10.69178 0.26747,-0.53615 0.48684,-1.2047 0.4875,-1.48566 6.4e-4,-0.28096 0.28866,-0.98232 0.64,-1.558568 0.35134,-0.576253 0.63881,-1.189792 0.63881,-1.363421 0,-1.123395 5.460249,-8.628845 6.277529,-8.628845 0.71203,0 1.9116,2.903021 1.36596,3.305731 -0.6646,0.490522 -3.80349,5.290378 -3.80349,5.816144 0,0.219869 -0.1927,0.559684 -0.42821,0.755143 -0.23552,0.195459 -0.61191,0.969096 -0.83642,1.719176 -0.22451,0.7501 -0.675709,1.93981 -1.002669,2.64381 -0.32696,0.704 -0.82405,2.216 -1.10465,3.36 -0.2806,1.144 -0.65951,2.584 -0.84202,3.2 -0.77796,2.62566 -1.63264,11.765074 -1.37656,14.720004 0.54222,6.25695 1.86174,8.90202 4.950529,9.92369 1.52409,0.50413 1.86348,1.14293 1.46042,2.74886 -0.23098,0.92031 -1.20152,0.99017 -3.380419,0.24331 z m -132.32001,-2.80712 c -4.08022,-1.94588 -7.47151,-6.44916 -8.57652,-11.38874 -0.52171,-2.33209 -0.65225,-23.228954 -0.1557,-24.9218 0.91334,-3.113738 4.59772,-4.261994 6.92263,-2.157478 1.62898,1.474563 1.64947,1.640621 1.65138,13.383384 0.003,14.803064 0.62945,16.557884 5.93929,16.621314 5.61182,0.067 6.21892,-1.53518 6.21892,-16.412454 0,-11.619406 0.0675,-12.179454 1.63876,-13.602302 2.72342,-2.466141 6.66414,-0.520198 7.1716,3.541362 0.40571,3.24728 -0.059,22.241974 -0.58791,24.027974 -1.85596,6.26756 -4.57536,9.35939 -10.2375,11.63956 -2.07184,0.83433 -7.54269,0.43391 -9.98495,-0.73082 z m 29.4358895,0.73456 c -2.75169,-1.33878 -3.63301,-22.633244 -1.24077,-29.979174 1.57184,-4.82668 7.10402,-9.964492 10.75578,-9.989033 0.40101,-0.0026 0.90547,-0.116947 1.12103,-0.253895 0.51318,-0.326035 6.2144005,0.177117 6.6216605,0.584384 0.17293,0.172925 0.51167,0.31441 0.75276,0.31441 2.54042,0 8.07365,6.798624 8.07365,9.920004 0,5.25142 -6.10229,6.72647 -8.3189,2.01085 -1.18426,-2.51941 -1.94962,-2.97001 -5.0454405,-2.97046 -6.00116,-8.9e-4 -6.47566,1.19059 -6.47566,16.260654 0,11.91755 -0.0808,12.50931 -1.88254998,13.79229 -1.008,0.71777 -3.20280002,0.87375 -4.36156002,0.30997 z m 33.4441105,-0.9233 c -1.37978,-1.37979 -2.10654,-33.783654 -0.82641,-36.847425 1.57296,-3.764637 7.17212,-3.024055 7.98825,1.056579 0.33385,1.669272 0.22723,32.653716 -0.11649,33.852206 -0.96413,3.36173 -4.61709,4.36689 -7.04535,1.93864 z m 25.76001,0.96 c -0.10878,-0.176 -0.46367,-0.32 -0.78865,-0.32 -3.09642,0 -8.77667,-6.46377 -10.26419,-11.68 -0.20076,-0.704 -0.50893,-1.75797 -0.68482,-2.34216 -0.472,-1.567694 -0.44089,-9.824114 0.0448,-11.897844 1.7162,-7.32709 5.70793,-12.204717 11.50058,-14.052942 1.36696,-0.436147 6.96647,-0.4571 7.23225,-0.02707 0.10877,0.176 0.48732,0.32 0.84122,0.32 4.49107,0 9.24614,8.790512 9.3473,17.280002 0.0884,7.41863 0.18092,7.36 -11.61263,7.36 -4.76074,10e-6 -8.65589,0.0736 -8.65589,0.1635 0,0.480074 1.51128,3.287574 2.07004,3.845494 2.34798,2.34447 8.43606,2.6364 11.97021,0.574 5.0798,-2.9644 8.95605,3.67725 4.59975,7.88132 -2.82613,2.72737 -14.37872,4.87178 -15.6,2.8957 z m 8.59324,-26.000004 c -1.0852,-5.91656 -9.82882,-6.55857 -11.07231,-0.81299 -0.0873,0.40314 -0.26456,0.98499 -0.39402,1.29299 -0.21928,0.52168 0.17143,0.56 5.71085,0.56 5.94624,0 5.94624,0 5.75548,-1.04 z m 78.446759,25.855414 c -6.86745,-2.04414 -10.68117,-8.21425 -7.21785,-11.67756 2.21096,-2.21097 3.9662,-2.13072 6.63607,0.3034 3.81537,3.47848 11.62178,2.72024 11.62178,-1.12883 0,-1.21386 -0.57927,-2.07242 -1.39826,-2.07242 -0.26618,0 -0.57297,-0.144004 -0.68174,-0.320004 -0.11067,-0.17907 -1.61761,-0.32 -3.42176,-0.32 -13.15042,0 -19.10075,-13.52196 -9.80879,-22.290218 6.67621,-6.299933 21.87055,-2.293514 21.87055,5.766798 0,4.70383 -3.98727,6.21632 -7.43602,2.8207 -3.9745,-3.91327 -10.23085,-2.97181 -9.93986,1.49576 0.12758,1.95882 1.52692,2.56204 6.01588,2.59335 4.66129,0.0325 7.72824,1.12285 9.86098,3.50572 6.68837,7.472824 4.09962,18.112294 -5.06098,20.800054 -0.792,0.23238 -1.85749,0.5497 -2.36775,0.70517 -1.30429,0.39739 -7.13707,0.27504 -8.67225,-0.18192 z m 26.78807,-0.1129 c -2.07138,-1.59404 -1.98364,-0.73285 -1.98596,-19.492784 -0.002,-16.584489 0.0151,-17.060876 0.6547,-18.199673 2.10768,-3.752541 6.54637,-3.049741 7.81974,1.238138 0.64724,2.179515 0.72025,31.017269 0.0845,33.394129 -0.84326,3.15286 -4.3382,4.77999 -6.57301,3.06019 z m 23.97516,-0.0876 c -3.00519,-1.33371 -5.07914,-3.9278 -6.39404,-7.99762 -0.24808,-0.76786 -0.36919,-4.57317 -0.36919,-11.600004 0,-10.45728 0,-10.45728 -1.89545,-10.45728 -1.57804,0 -2.06228,-0.14038 -2.89171,-0.8383 -3.65656,-3.07679 -1.78031,-8.761704 2.89171,-8.761704 1.89545,0 1.89545,0 1.89665,-6.64 0.001,-8.279034 0.63145,-9.680001 4.3527,-9.680001 3.40251,0 4.2861,2.086071 4.2861,10.119079 0,6.200922 0,6.200922 3.13507,6.200922 5.6928,0 8.08858,4.755004 4.30307,8.540524 -1.05756,1.05757 -1.06521,1.05948 -4.2488,1.05948 -3.18934,0 -3.18934,0 -3.18934,9.86422 0,11.747924 -0.0758,11.512694 3.58288,11.117054 4.00762,-0.43337 4.72323,-0.19829 6.25712,2.05547 3.49683,5.13792 -4.78106,10.09624 -11.71677,7.01816 z m -86.89488,-3.44903 c -0.19311,-0.31245 1.28745,-3.51289 1.80426,-3.90019 0.32251,-0.24169 2.80739,-5.29522 2.80739,-5.70942 0,-0.18524 0.26316,-0.80917 0.5848,-1.38653 1.60701,-2.884614 2.10541,-13.942244 0.74463,-16.520744 -0.83191,-1.57639 -1.17778,-1.58804 -0.77303,-0.026 0.25221,0.97332 -0.19404,6.14345 -0.6333,7.33706 -0.0971,0.264 -0.3623,1.56 -0.58921,2.88 -1.33323,7.755624 -7.88764,13.275164 -10.449939,8.800004 -0.96759,-1.68993 -0.81881,-9.687334 0.22622,-12.160004 0.148759,-0.352 0.450229,-1.36 0.669939,-2.24 4.61353,-18.479345 19.32446,-10.098945 15.31685,8.72559 -1.08851,5.112944 -4.76089,13.391394 -6.18253,13.936924 -1.06648,0.40925 -3.33137,0.57842 -3.52608,0.26337 z m 12.67835,-2.47515 c -1.54065,-0.92313 -1.55169,-1.12946 -0.19325,-3.61103 0.4216,-0.77017 0.76655,-1.66339 0.76655,-1.98494 0,-0.32155 0.16193,-0.98742 0.35984,-1.4797 0.68678,-1.708264 0.84896,-2.181734 1.18348,-3.455054 0.58023,-2.20863 0.97241,-4.08592 1.32032,-6.32 0.18499,-1.188 0.51302,-3.132 0.72894,-4.32 0.50976,-2.80478 0.46717,-14.741652 -0.0609,-17.076251 -1.53902,-6.803517 -2.80777,-9.757219 -5.27364,-12.277187 -2.421,-2.474116 -5.49769,-3.590685 -7.75565,-2.814618 -1.39811,0.480534 -1.70235,0.206643 -1.70235,-1.532519 0,-1.897331 0.35655,-2.05656 4.1008,-1.831312 2.75944,0.166004 5.37252,1.290064 7.43753,3.199377 1.12916,1.044028 3.82167,4.76911 3.82167,5.287286 0,0.148442 0.288,0.834791 0.64,1.525219 0.352,0.690429 0.64,1.484074 0.64,1.763661 0,0.279588 0.13293,0.64514 0.29541,0.81234 0.16247,0.1672 0.4617,1.24 0.66494,2.384 0.20325,1.144 0.52037,2.572163 0.70472,3.173696 0.87197,2.845219 0.54551,16.009938 -0.5244,21.146308 -0.27495,1.32 -0.50009,2.75593 -0.50029,3.19097 -2.1e-4,0.43503 -0.29806,1.80303 -0.66189,3.04 -0.36382,1.23696 -0.95461,3.257034 -1.31287,4.489034 -0.35825,1.232 -0.78057,2.49004 -0.93849,2.79566 -0.15792,0.30561 -0.28713,0.77556 -0.28713,1.04434 0,0.26878 -0.12065,0.73873 -0.2681,1.04434 -1.43655,2.97739 -1.33087,2.91746 -3.1852,1.80638 z M 82.817341,-45.517492 c -5.39998,-2.85794 -6.46747,-7.09257 -2.89598,-11.48806 3.45624,-4.25363 12.75282,-3.11071 11.60274,1.42644 -0.57271,2.25937 -0.996,4.38664 -1.46596,7.3673 -0.55257,3.50462 -3.58074,4.63141 -7.2408,2.69432 z m 5.10339,-16.56095 c -0.396,-0.15918 -0.71845,-0.40205 -0.71654,-0.53972 0.008,-0.55056 0.92969,-3.229853 1.68298,-4.890314 0.43916,-0.968 0.90625,-2.12 1.03799,-2.56 0.13174,-0.44 0.50864,-1.182231 0.83755,-1.649399 0.32891,-0.467168 0.59802,-1.056851 0.59802,-1.310403 0,-1.380387 1.79445,-1.875712 2.82422,-0.779574 0.89451,0.952166 0.87027,1.267769 -0.27426,3.571229 -0.52248,1.05152 -0.94996,2.091139 -0.94996,2.310265 0,0.21913 -0.25936,0.870794 -0.57636,1.448148 -0.31699,0.577353 -0.76386,1.697734 -0.99305,2.489738 -0.65609,2.26732 -1.46886,2.71462 -3.47059,1.91003 z m 9.63046,-12.710034 c -0.28554,-0.66 -0.62528,-1.488 -0.75498,-1.84 -0.81511,-2.21233 -0.84418,-2.240532 -3.07452,-2.981578 -4.32598,-1.437341 -4.33322,-1.452231 -1.57836,-3.247091 2.70951,-1.765313 2.67757,-1.713562 2.9307,-4.748817 0.25641,-3.074518 0.15422,-3.034889 2.98025,-1.155705 2.210269,1.469737 4.881049,1.801248 6.266449,0.77783 0.176,-0.130016 0.70717,-0.328777 1.18038,-0.44169 1.45944,-0.34824 1.46121,0.02327 0.0197,4.164141 -0.46196,1.327092 -0.46196,1.327092 1.32895,3.677729 2.27268,2.982995 2.34395,2.835181 -1.36698,2.835181 -3.15789,0 -3.15789,0 -5.11435,2.08 -2.301199,2.446509 -2.158799,2.402029 -2.817299,0.88 z m -66.86613,-0.04953 c -1.72172,-1.049875 -2.36434,-2.277389 -2.36434,-4.516304 0,-5.190963 4.67922,-7.427069 7.58091,-3.622762 3.08215,4.040913 -1.13835,10.625886 -5.21657,8.139066 z m 138.832739,-0.02874 c -3.75294,-2.288195 -2.93765,-8.555581 1.28903,-9.909143 1.4891,-0.476873 3.76074,0.645236 4.32255,2.135185 0.88806,2.355206 0.97337,2.933049 0.63537,4.303382 -0.8423,3.414848 -3.71801,5.01249 -6.24695,3.470576 z M 74.290741,-112.03352 c -1.64,-0.94604 -1.84766,-3.50133 -0.40201,-4.94697 1.99011,-1.99011 3.392,-1.16038 3.392,2.0076 0,2.47017 -1.40647,3.85283 -2.98999,2.93937 z"
       id="path1407" />
  </g>
</svg>
