<?xml version="1.0" encoding="UTF-8" standalone="no"?>
<!-- Generator: Adobe Illustrator 25.0.0, SVG Export Plug-In . SVG Version: 6.00 Build 0)  -->

<svg
   version="1.1"
   id="Calque_1"
   x="0px"
   y="0px"
   viewBox="0 0 229.865 153.60798"
   xml:space="preserve"
   sodipodi:docname="AMSU_LOGO_SVG_Reworked_NoText.svg"
   width="229.86501"
   height="153.608"
   inkscape:version="1.2.1 (9c6d41e410, 2022-07-14)"
   xmlns:inkscape="http://www.inkscape.org/namespaces/inkscape"
   xmlns:sodipodi="http://sodipodi.sourceforge.net/DTD/sodipodi-0.dtd"
   xmlns="http://www.w3.org/2000/svg"
   xmlns:svg="http://www.w3.org/2000/svg"><defs
   id="defs1818" /><sodipodi:namedview
   id="namedview1816"
   pagecolor="#ffffff"
   bordercolor="#000000"
   borderopacity="0.25"
   inkscape:showpageshadow="2"
   inkscape:pageopacity="0.0"
   inkscape:pagecheckerboard="0"
   inkscape:deskcolor="#d1d1d1"
   showgrid="false"
   inkscape:zoom="3.44968"
   inkscape:cx="86.239883"
   inkscape:cy="109.43044"
   inkscape:window-width="1920"
   inkscape:window-height="991"
   inkscape:window-x="-9"
   inkscape:window-y="-9"
   inkscape:window-maximized="1"
   inkscape:current-layer="Calque_1" />
<style
   type="text/css"
   id="style1711">
	.st0{fill:#9F1642;}
	.st1{fill:none;stroke:#9F1642;stroke-width:4;stroke-miterlimit:10;}
	.st2{fill:none;stroke:#9F1642;stroke-width:3;stroke-miterlimit:10;}
	.st3{fill:none;stroke:#9F1642;stroke-width:2;stroke-miterlimit:10;}
	.st4{fill:none;}
	.st5{fill:#9E1542;}
</style>
<g
   id="g1715"
   transform="translate(-285.85019,-150.39369)">
	<path
   class="st0"
   d="m 448.19,157.93 -3,81.07 -3,-81.07 c -0.06,-1.66 1.23,-3.05 2.89,-3.11 1.66,-0.06 3.05,1.23 3.11,2.89 0,0.07 0,0.15 0,0.22 z"
   id="path1713" />
</g>
<g
   id="g1719"
   transform="translate(-285.85019,-150.39369)">
	<path
   class="st0"
   d="m 492.1,183.34 -37.13,57.31 31.95,-60.35 c 0.78,-1.47 2.59,-2.02 4.06,-1.25 1.47,0.78 2.02,2.59 1.25,4.06 -0.04,0.08 -0.09,0.16 -0.13,0.23 z"
   id="path1717" />
</g>
<g
   id="g1723"
   transform="translate(-285.85019,-150.39369)">
	<path
   class="st0"
   d="m 514.32,222.82 -52.38,25.99 49.97,-30.37 c 1.18,-0.72 2.72,-0.34 3.44,0.84 0.72,1.18 0.34,2.72 -0.84,3.44 -0.06,0.03 -0.12,0.07 -0.19,0.1 z"
   id="path1721" />
</g>
<g
   id="g1727"
   transform="translate(-285.85019,-150.39369)">
	<path
   class="st0"
   d="m 512.88,260.73 -49.44,-2.5 49.44,-2.5 c 1.38,-0.07 2.56,0.99 2.63,2.37 0.07,1.38 -0.99,2.56 -2.37,2.63 -0.09,0 -0.18,0 -0.26,0 z"
   id="path1725" />
</g>
<g
   id="g1731"
   transform="translate(-285.85019,-150.39369)">
	<path
   class="st0"
   d="m 500.45,285.12 -34.86,-21.47 36.79,17.96 c 0.99,0.49 1.41,1.68 0.92,2.68 -0.49,0.99 -1.68,1.41 -2.68,0.92 -0.06,-0.02 -0.12,-0.05 -0.17,-0.09 z"
   id="path1729" />
</g>
<g
   id="g1735"
   transform="translate(-285.85019,-150.39369)">
	<path
   class="st0"
   d="m 484.72,302.73 -24.86,-31.01 27.85,28.35 c 0.78,0.79 0.76,2.06 -0.03,2.83 -0.79,0.77 -2.06,0.76 -2.83,-0.03 -0.05,-0.04 -0.09,-0.09 -0.13,-0.14 z"
   id="path1733" />
</g>
<g
   id="g1739"
   transform="translate(-285.85019,-150.39369)">
	<path
   class="st0"
   d="m 457.92,302.36 -5.29,-28.85 9.16,27.86 c 0.35,1.05 -0.23,2.18 -1.28,2.53 -1.05,0.35 -2.18,-0.23 -2.53,-1.28 -0.02,-0.08 -0.04,-0.18 -0.06,-0.26 z"
   id="path1737" />
</g>
<g
   id="g1743"
   transform="translate(-285.85019,-150.39369)">
	<path
   class="st0"
   d="m 435.96,296.97 8.1,-25.02 -5.2,25.78 c -0.16,0.81 -0.96,1.34 -1.77,1.18 -0.81,-0.16 -1.34,-0.96 -1.18,-1.77 0.02,-0.06 0.03,-0.12 0.05,-0.17 z"
   id="path1741" />
</g>
<g
   id="g1747"
   transform="translate(-285.85019,-150.39369)">
	<path
   class="st0"
   d="m 421.72,279.71 15.18,-11.98 -13.15,14.18 c -0.56,0.61 -1.52,0.65 -2.13,0.08 -0.61,-0.57 -0.65,-1.52 -0.08,-2.13 0.06,-0.05 0.12,-0.1 0.18,-0.15 z"
   id="path1745" />
</g>
<g
   id="g1751"
   transform="translate(-285.85019,-150.39369)">
	<path
   class="st0"
   d="m 390.72,152.05 43.62,86.95 -48.9,-84.1 c -0.83,-1.43 -0.35,-3.27 1.09,-4.1 1.43,-0.83 3.27,-0.35 4.1,1.09 0.03,0.05 0.06,0.11 0.09,0.16 z"
   id="path1749" />
</g>
<g
   id="g1755"
   transform="translate(-285.85019,-150.39369)">
	<path
   class="st0"
   d="m 288.98,256.38 126.82,5.37 -126.93,0.63 c -1.66,0.01 -3.01,-1.33 -3.02,-2.99 -0.01,-1.66 1.33,-3.01 2.99,-3.02 0.04,0 0.09,0 0.14,0.01 z"
   id="path1753" />
</g>
<g
   id="g1761"
   transform="translate(-285.85019,-150.39369)">
	<g
   id="g1759">
		<path
   class="st0"
   d="m 293.6,298.19 c -0.59,-12.02 0.38,-24.11 2.88,-35.88 0.65,-2.93 1.34,-5.86 2.18,-8.75 0.81,-2.88 1.69,-5.71 2.66,-8.56 1.94,-5.68 4.27,-11.23 6.95,-16.61 2.7,-5.37 5.72,-10.58 9.16,-15.51 3.45,-4.92 7.21,-9.62 11.3,-14.03 8.25,-8.74 17.72,-16.3 28.09,-22.31 10.39,-5.97 21.56,-10.55 33.24,-13.3 11.74,-2.65 23.79,-3.4 35.7,-2.32 5.95,0.53 11.86,1.53 17.66,3.04 1.45,0.37 2.89,0.8 4.33,1.24 l 4.21,1.41 c 2.8,0.96 5.59,2 8.35,3.15 2.75,1.18 5.46,2.46 8.1,3.89 2.62,1.47 5.21,2.99 7.66,4.76 2.48,1.7 4.8,3.63 7.06,5.62 1.08,1.05 2.2,2.06 3.24,3.15 l 1.54,1.65 c 0.52,0.54 1.02,1.11 1.49,1.69 7.78,9.19 13.22,20.2 16.05,31.82 2.84,11.61 2.89,24 -0.51,35.52 -1.77,5.75 -4.05,11.21 -7.12,16.38 -1.54,2.57 -3.28,5.02 -5.21,7.32 -1.94,2.3 -4.15,4.37 -6.5,6.25 -4.79,3.65 -10.39,6.34 -16.32,7.41 -5.91,1.17 -12.05,0.88 -17.85,-0.55 -2.9,-0.71 -5.73,-1.69 -8.45,-2.92 -1.36,-0.63 -2.69,-1.29 -3.98,-2.1 -1.25,-0.77 -2.5,-1.59 -3.7,-2.49 -2.4,-1.78 -4.6,-3.87 -6.42,-6.28 -1.83,-2.4 -3.22,-5.13 -4.1,-8.01 -1.77,-5.69 -1.78,-12.12 0.8,-17.62 1.29,-2.72 3.11,-5.19 5.4,-7.14 2.28,-1.98 5.04,-3.34 7.91,-4.14 2.88,-0.8 6.01,-0.96 8.91,-0.09 1.46,0.43 2.81,1.08 4.08,1.88 1.26,0.81 2.42,1.8 3.36,3 0.91,1.21 1.59,2.61 1.87,4.11 0.27,1.49 0.23,3.03 -0.13,4.49 -0.7,2.9 -2.55,5.63 -5.3,6.93 -1.36,0.65 -2.87,0.94 -4.36,0.9 -1.49,-0.04 -3.02,-0.52 -4.17,-1.51 -1.13,-0.99 -1.94,-2.38 -2.09,-3.89 -0.12,-1.5 0.28,-3.04 1.23,-4.21 0.94,-1.16 2.41,-1.9 3.9,-1.89 0.74,-0.01 1.5,0.1 2.16,0.46 0.67,0.35 1.16,0.98 1.43,1.67 0.27,0.69 0.32,1.48 0.08,2.18 -0.24,0.7 -0.76,1.3 -1.42,1.65 -0.65,0.35 -1.43,0.46 -2.14,0.29 -0.72,-0.18 -1.35,-0.61 -1.8,-1.19 0.46,0.57 1.1,0.99 1.81,1.16 0.71,0.16 1.47,0.04 2.11,-0.31 0.63,-0.35 1.13,-0.94 1.36,-1.62 0.23,-0.69 0.16,-1.44 -0.1,-2.11 -0.27,-0.66 -0.75,-1.25 -1.39,-1.57 -0.63,-0.34 -1.37,-0.43 -2.09,-0.41 -1.44,0.01 -2.83,0.74 -3.71,1.86 -0.89,1.11 -1.26,2.62 -1.12,4.02 0.16,1.42 0.94,2.72 2.02,3.63 1.09,0.91 2.52,1.34 3.94,1.36 1.42,0.02 2.87,-0.28 4.13,-0.91 5.14,-2.58 6.9,-10.2 3.19,-14.61 -1.77,-2.19 -4.39,-3.7 -7.08,-4.5 -2.73,-0.77 -5.67,-0.59 -8.4,0.21 -2.74,0.81 -5.33,2.14 -7.45,4.03 -2.14,1.87 -3.83,4.24 -5.01,6.82 -2.35,5.19 -2.26,11.26 -0.5,16.65 0.87,2.69 2.21,5.23 3.96,7.46 1.74,2.24 3.85,4.19 6.17,5.85 1.16,0.84 2.36,1.61 3.61,2.35 1.2,0.73 2.49,1.35 3.8,1.93 2.62,1.14 5.36,2.05 8.14,2.69 5.57,1.29 11.39,1.48 16.94,0.29 5.58,-1.09 10.77,-3.69 15.22,-7.17 2.18,-1.81 4.23,-3.77 6.03,-5.98 1.8,-2.2 3.42,-4.55 4.85,-7.02 2.85,-4.93 5.03,-10.37 6.61,-15.81 3.07,-10.99 2.87,-22.8 0,-33.85 -2.86,-11.05 -8.21,-21.49 -15.68,-30.05 -0.45,-0.55 -0.93,-1.07 -1.43,-1.58 l -1.47,-1.54 c -0.99,-1.01 -2.06,-1.95 -3.09,-2.92 -2.16,-1.84 -4.37,-3.63 -6.73,-5.2 -2.32,-1.63 -4.8,-3.04 -7.3,-4.39 -2.52,-1.31 -5.12,-2.5 -7.76,-3.59 -2.65,-1.07 -5.35,-2.03 -8.1,-2.93 l -4.13,-1.31 c -1.36,-0.4 -2.73,-0.79 -4.11,-1.12 -5.54,-1.35 -11.21,-2.24 -16.91,-2.66 -11.39,-0.87 -22.95,0.03 -33.99,2.68 -11.06,2.77 -21.69,7.31 -31.49,13.13 -9.79,5.86 -18.67,13.17 -26.36,21.55 -3.81,4.22 -7.31,8.72 -10.5,13.42 -3.18,4.71 -5.97,9.68 -8.45,14.8 -2.47,5.12 -4.59,10.41 -6.36,15.82 -0.88,2.7 -1.7,5.47 -2.43,8.23 -0.76,2.74 -1.37,5.52 -1.95,8.3 -2.2,11.15 -2.96,22.58 -2.24,33.91 0.14,2.2 -1.53,4.11 -3.74,4.25 -2.2,0.14 -4.11,-1.53 -4.25,-3.74 0,-0.01 0,-0.02 0,-0.04 z"
   id="path1757" />
	</g>
</g>
<path
   class="st1"
   d="m 227.80025,69.856309 c -1.96,-4.87 -5.4,-11.76 -11.47001,-18.77 -5.05,-5.83 -10.29001,-9.85 -14.35001,-12.51"
   id="path1763" />
<path
   class="st1"
   d="m 204.89023,30.736309 c -5.56,-3.65 -13.81001,-8.44 -23.68002,-11.92 -8.21,-2.9 -14.89001,-3.95 -19.64001,-4.31"
   id="path1765" />
<path
   class="st1"
   d="m 101.49014,2.2963087 c -8.570004,4.67 -20.530014,11.8100003 -31.980024,21.0700003 -9.530008,7.7 -15.640014,14.38 -19.500017,19.26"
   id="path1767" />
<path
   class="st2"
   d="m 228.16025,108.17631 c 0.14,-4.5 -0.12,-9.920001 -1.32,-15.860001 -1.48,-7.29 -3.91,-13.01 -6,-17.02"
   id="path1769" />
<path
   class="st2"
   d="m 216.25024,132.97631 c 1.5,-2.48 3.37001,-6.59 3.53001,-12.3 0.14,-5.22 -1.21,-9.81 -2.40001,-12.88"
   id="path1771" />
<path
   class="st2"
   d="m 201.19023,151.03631 c 1.57,-1.37 4.38,-4.32 5.82001,-9.47 1.56,-5.59 0.68,-10.85 0.11,-13.37"
   id="path1773" />
<path
   class="st2"
   d="m 174.34021,151.98631 c 2.58,-0.85 5.69,-2.17 9.07,-4.3 3.50001,-2.2 6.38001,-4.69 8.63001,-6.93"
   id="path1775" />
<path
   class="st3"
   d="m 151.56019,147.56631 c 1.95,0.62 5.11,1.27 9.30001,0.65 4.59,-0.68 8.42,-2.59 10.73,-3.94"
   id="path1777" />
<path
   class="st3"
   d="m 136.49017,130.94631 c 1.45001,1.49 3.91001,3.61 7.55001,5.22 3.99,1.77 7.68001,2.15 9.95001,2.21"
   id="path1779" />
<path
   class="st1"
   d="m 2.0300574,108.64631 c -0.1200001,5.87 0.1500001,14.3 2.1400018,23.31 1.6600015,7.5 3.9700035,12.97 5.9000048,16.69"
   id="path1781" />
<path
   class="st1"
   d="m 13.250067,107.77631 c 0.960001,-7.940001 2.900003,-17.890001 6.860006,-28.950001 6.150005,-17.17 14.680013,-30.07 21.180018,-38.44"
   id="path1783" />
<g
   id="g1787"
   transform="translate(-285.85019,-150.39369)">
	<path
   class="st0"
   d="m 329.75,188.62 90.48,60.09 -93.66,-55 c -1.43,-0.84 -1.91,-2.68 -1.07,-4.11 0.84,-1.43 2.68,-1.91 4.11,-1.07 0.04,0.03 0.1,0.06 0.14,0.09 z"
   id="path1785" />
</g>
<path
   class="st1"
   d="m 160.26019,6.4763087 c -7.7,-0.28 -18.73001,-0.16 -30.40002,1.9 -9.71001,1.7200003 -16.74002,4.2400003 -21.48002,6.3600003"
   id="path1789" />

<g
   id="g1803"
   transform="translate(-285.85019,-150.39369)">
</g>
<g
   id="g1805"
   transform="translate(-285.85019,-150.39369)">
</g>
<g
   id="g1807"
   transform="translate(-285.85019,-150.39369)">
</g>
<g
   id="g1809"
   transform="translate(-285.85019,-150.39369)">
</g>
<g
   id="g1811"
   transform="translate(-285.85019,-150.39369)">
</g>
<g
   id="g1813"
   transform="translate(-285.85019,-150.39369)">
</g>
</svg>
