<?xml version="1.0" encoding="UTF-8" standalone="no"?>
<!-- Generator: Adobe Illustrator 23.0.6, SVG Export Plug-In . SVG Version: 6.00 Build 0)  -->

<svg
   version="1.1"
   id="Calque_1"
   x="0px"
   y="0px"
   viewBox="0 0 93.362001 156.502"
   enable-background="new 0 0 388.9 156.7"
   xml:space="preserve"
   sodipodi:docname="Logo_solo.svg"
   width="93.362"
   height="156.502"
   inkscape:version="1.2.1 (9c6d41e410, 2022-07-14)"
   xmlns:inkscape="http://www.inkscape.org/namespaces/inkscape"
   xmlns:sodipodi="http://sodipodi.sourceforge.net/DTD/sodipodi-0.dtd"
   xmlns="http://www.w3.org/2000/svg"
   xmlns:svg="http://www.w3.org/2000/svg"><defs
   id="defs2678" /><sodipodi:namedview
   id="namedview2676"
   pagecolor="#ffffff"
   bordercolor="#000000"
   borderopacity="0.25"
   inkscape:showpageshadow="2"
   inkscape:pageopacity="0.0"
   inkscape:pagecheckerboard="0"
   inkscape:deskcolor="#d1d1d1"
   showgrid="false"
   inkscape:zoom="3.6289396"
   inkscape:cx="61.588239"
   inkscape:cy="72.610743"
   inkscape:window-width="1920"
   inkscape:window-height="991"
   inkscape:window-x="-9"
   inkscape:window-y="-9"
   inkscape:window-maximized="1"
   inkscape:current-layer="Calque_1" />






<g
   id="g3208"
   transform="translate(-0.26532397)"><path
     fill="#FFB500"
     d="m 44.9,49 h 5.2 V 37.5 c 0,-1.4 -1.2,-2.6 -2.6,-2.6 -1.4,0 -2.6,1.2 -2.6,2.6 z"
     id="path2661" /><path
     fill="#FFB500"
     d="M 33.8,49 H 39 V 37.5 c 0,-1.4 -1.2,-2.6 -2.6,-2.6 -1.4,0 -2.6,1.2 -2.6,2.6 z"
     id="path2663" /><path
     fill="#FFB500"
     d="m 55.9,49 h 5.2 V 37.5 c 0,-1.4 -1.2,-2.6 -2.6,-2.6 -1.4,0 -2.6,1.2 -2.6,2.6 z"
     id="path2665" /><path
     fill="#FFB500"
     d="m 48.8,6.7 c 3.5,0.6 4.8,3.7 4.8,5.8 V 17 h 3.2 v 2.5 c 8.3,3.9 14.2,12.7 14.2,21.6 0,0.1 0,0.1 0,0.2 V 49 H 90.3 V 41.1 C 89.9,15.8 71.9,0.3 48.1,0 Z"
     id="path2667" /><path
     fill="#FFB500"
     d="M 45.1,12.4 V 17 h 4.7 v -4.6 c 0,-1.3 -1.1,-2.4 -2.4,-2.4 -1.2,0 -2.3,1.1 -2.3,2.4"
     id="path2669" /><path
     fill="#FFB500"
     d="M 51,61.3 C 31.1,56.2 23.6,51.9 23.6,39.2 c 0,-9.1 6,-16.9 14.5,-20.2 v -2 h 3.2 v -4.5 c 0,-2.2 1.3,-5.3 4.9,-5.8 L 47,0 C 23,0.2 2.5,16.9 3.5,39.3 c 1.1,25.1 28.6,32.1 43.4,35.3 11.7,2.5 39.7,9 46.7,28.8 0,-0.1 2.6,-32.8 -42.6,-42.1"
     id="path2671" /><path
     fill="#FFB500"
     d="m 44.4,96.2 c 20.1,6.1 25.2,13.6 25.2,24.2 0,16.1 -12.5,22.8 -28.2,22.8 -15,0 -27.9,-7 -36.5,-16.1 0,0 -3.2,6.6 -3.2,6.6 6.3,11.9 24.1,22.8 43.9,22.8 v 0 c 0,0 0,0 0,0 v 0 c 25.4,0.2 47,-11.7 47,-35.6 C 92.6,95.2 64.6,85.1 49,81.7 36.9,78.9 6,70.8 0.5,53.5 c 0,0 -6.1,29.9 43.9,42.7"
     id="path2673" /></g>
</svg>