<?xml version="1.0" encoding="UTF-8" standalone="no"?>
<svg
   id="Calque_1"
   data-name="Calque 1"
   viewBox="0 0 893.23904 700.369"
   version="1.1"
   sodipodi:docname="Logo_BDS_Reworked_BDERemoved.svg"
   inkscape:version="1.2.1 (9c6d41e410, 2022-07-14)"
   width="893.23901"
   height="700.36902"
   xmlns:inkscape="http://www.inkscape.org/namespaces/inkscape"
   xmlns:sodipodi="http://sodipodi.sourceforge.net/DTD/sodipodi-0.dtd"
   xmlns="http://www.w3.org/2000/svg"
   xmlns:svg="http://www.w3.org/2000/svg"
   xmlns:rdf="http://www.w3.org/1999/02/22-rdf-syntax-ns#"
   xmlns:cc="http://creativecommons.org/ns#"
   xmlns:dc="http://purl.org/dc/elements/1.1/">
  <sodipodi:namedview
     id="namedview97"
     pagecolor="#ffffff"
     bordercolor="#000000"
     borderopacity="0.25"
     inkscape:showpageshadow="2"
     inkscape:pageopacity="0.0"
     inkscape:pagecheckerboard="0"
     inkscape:deskcolor="#d1d1d1"
     showgrid="false"
     inkscape:zoom="0.54666554"
     inkscape:cx="829.57488"
     inkscape:cy="381.40322"
     inkscape:window-width="1920"
     inkscape:window-height="991"
     inkscape:window-x="-9"
     inkscape:window-y="-9"
     inkscape:window-maximized="1"
     inkscape:current-layer="Calque_1" />
  <defs
     id="defs4">
    <style
       id="style2">.cls-1{fill:#fff;}.cls-2{fill:#c9bdb9;}.cls-3{fill:#004a75;}</style>
  </defs>
  <title
     id="title6">Logo BDS</title>
  <g
     id="g2051">
    <path
       d="m 335.22,560.47133 -4.33,1.18 c -5.7,1.58 -11.49,2.92 -17.08,4.83 a 45.22,45.22 0 0 0 -16.37,10.22 c -7.35,6.89 -14.25,14.49 -23.77,18.66 -10.56,4.62 -21.28,5 -33.31,1.24 4.43,-5.25 11.08,-6.65 13.87,-12.71 a 51.24,51.24 0 0 0 -5.1,2.65 c -8.34,5.55 -17.27,6.6 -26.89,4.19 -6.29,-1.58 -12.47,-3.29 -18.82,-7 1.57,-1.09 2.46,-2.06 3.54,-2.39 4.37,-1.34 8.83,-2.42 13.22,-3.71 4,-1.17 8.05,-2.21 11.46,-5.48 -2.09,-3.47 -5.44,-4.06 -8.47,-4.41 a 105.77,105.77 0 0 0 -16,-0.81 c -5.9,0.19 -11.78,1.12 -17.67,1.73 a 23.71,23.71 0 0 1 -6.2,0.08 12.76,12.76 0 0 1 7.27,-5.89 96.78,96.78 0 0 1 32.51,-6.12 c 10.32,-0.18 20.65,-0.3 30.76,-2.89 a 47,47 0 0 0 17.52,-8.21 c 3.25,-2.53 6.11,-5.53 5.12,-10.14 -0.72,-3.34 -5.11,-5.74 -10.27,-5.89 -11.46,-0.34 -22.36,2.6 -33.1,6.08 -11.74,3.8 -23.59,6.6 -36,5.39 -9.55,-0.93 -18.94,-2.65 -27.75,-6.66 -6.34,-2.88 -11.83,-6.79 -15.79,-13.78 l 4.39,0.38 c 6.83,0.61 13.68,1.91 20.48,1.7 10.71,-0.34 18,-7 25,-15.17 -11.57,-4.49 -22.89,-6.31 -35.39,-7.31 a 21.52,21.52 0 0 1 9.73,-5.32 c 11.39,-3.07 22.67,-2.32 34,0.49 a 120,120 0 0 0 18.49,3.58 34.93,34.93 0 0 0 12.92,-1.69 c 6.1,-1.89 8.28,-6.3 7,-12.57 a 37.13,37.13 0 0 0 -2,-6.56 c -3.53,-8.86 -7.9,-11.69 -17.53,-11.71 -5.71,0 -10.86,2 -15.91,4.32 -6.84,3.15 -13.81,5.24 -21.53,5.16 -14.65,-0.17 -24.5,-7 -30.63,-20.55 3,-1 5.44,0 7.64,1.34 7.32,4.54 14.23,3.13 21,-1.25 a 16.78,16.78 0 0 0 3.12,-2.5 c 1.77,-1.85 3.25,-4 2.07,-6.67 -1.18,-2.67 -3.88,-3.13 -6.35,-2.72 a 49.63,49.63 0 0 0 -9.89,2.65 88.32,88.32 0 0 1 -19.81,5.48 c -12.6,1.85 -22.93,-2.16 -31.8,-10.87 -7.17,-7 -11.89,-15.4 -13.34,-25.41 -0.34,-2.35 -0.05,-4.8 -0.05,-8.69 7.29,7.91 14.06,14.63 23.52,17 a 38.32,38.32 0 0 0 27.86,-2.89 c -8.79,-1 -15.23,-6.05 -21.23,-11.77 a 38.77,38.77 0 0 1 -11.37,-18.91 76.49,76.49 0 0 0 -2.9,-8.7 35.57,35.57 0 0 0 -17.52,-19.62 241.94,241.94 0 0 0 -35.41,-14.86 c -6.16,-2.05 -12.35,-4 -18.51,-6.09 a 36.66,36.66 0 0 1 -3.56,-1.76 c 11.76,-1.72 22.29,-3 33,-2.07 a 47.68,47.68 0 0 1 23,8 c 5.71,3.82 11.76,7.16 17.8,10.46 6.04,3.3 12.6,5.58 19.69,5.36 6.19,-0.2 8.11,-3.23 5,-8.53 a 29.65,29.65 0 0 0 -6.77,-7.63 c -10,-8.23 -22,-11.05 -34.51,-12.68 a 63.84,63.84 0 0 1 -10.13,-1.85 c -3.41,-1 -6.63,-2.71 -10.58,-4.39 5.09,-1.91 9.37,-3.3 14.35,-3.22 a 203,203 0 0 1 28.51,2.44 c 8.49,1.34 16.28,4.3 23,9.7 q 10.49,8.46 20.67,17.31 c 11.57,10.1 25,14.41 40.22,13.42 a 32.2,32.2 0 0 0 3.42,-0.34 c 1.5,-0.26 3,-0.65 5.91,-1.31 a 70.31,70.31 0 0 1 -24.13,-16.69 c 5.69,1.09 10.18,2 14.68,2.82 15.91,2.87 29.49,-1.28 40.35,-13.52 a 12.14,12.14 0 0 0 1.36,-1.84 c 0.17,-0.28 0.08,-0.71 0.14,-1.41 -5.12,0.53 -10.18,1.25 -15.26,1.52 -19.61,1.06 -37.48,-3.49 -52.84,-16.43 a 244,244 0 0 0 -20,-15.35 44.57,44.57 0 0 1 -18.8,-26.55 21.54,21.54 0 0 1 4.25,1.28 c 5.41,3 11.23,4.66 17.24,6 4.26,0.94 8.34,2.68 12.49,4.1 1.26,0.44 2.45,1.09 3.72,1.5 a 5.3,5.3 0 0 0 6.19,-1.75 c 1.71,-2.14 1.1,-4.27 -0.33,-6.32 -2.66,-3.81 -6.37,-5.84 -10.83,-6.95 -3.39,-0.85 -6.66,-2.24 -10,-3.39 v -1.54 a 23.44,23.44 0 0 1 4.43,-1.4 c 9.47,-1.08 18.64,-0.23 27.41,4 7.43,3.6 13.25,2.1 18.37,-4.11 2.64,-3.2 2.77,-6 -0.57,-8.38 a 20.84,20.84 0 0 0 -9.24,-4 75.36,75.36 0 0 0 -15.38,0.24 c -7.41,0.69 -14.76,2.24 -22.18,2.65 a 63.17,63.17 0 0 1 -14.73,-1.37 c -7.1,-1.32 -11.32,-6.58 -15.59,-12.63 8.39,1.93 16.1,7.51 24.42,1.34 -7,-0.93 -14.29,0.31 -20.53,-4.23 a 34.34,34.34 0 0 1 -12.72,-16.76 c 3.16,1.49 6.44,2.77 9.46,4.51 10.42,6 20.92,6.75 31.61,0.85 3.68,-2 7.73,-3.65 10.89,-6.31 15.47,-13 45.07,-19.52 64.43,-15.42 0.22,-0.77 0.49,-1.56 0.66,-2.37 0.55,-2.58 2.11,-3.05 4.24,-1.93 a 27.22,27.22 0 0 1 3.23,2.36 c 16,11.83 34.18,18.51 53.37,22.82 0.56,0.13 1.13,0.21 1.69,0.36 2.22,0.57 4.19,0.35 5.54,-1.77 1.57,-2.44 0.41,-4.42 -1.23,-6.16 -2,-2.09 -4.07,-4.05 -6.13,-6 -2.47,-2.39 -5,-4.74 -7.44,-7.15 -0.24,-0.23 -0.25,-0.69 -0.45,-1.29 a 10.84,10.84 0 0 1 9.82,-0.17 71.72,71.72 0 0 1 12.44,6.95 80,80 0 0 0 20.19,10.62 c 6.4,2.29 12.36,5.82 19.17,9.12 a 30.43,30.43 0 0 1 -0.66,-5.73 c 0.09,-1.37 0.71,-3.24 1.72,-3.85 1.01,-0.61 2.95,-0.17 4.09,0.49 a 29.68,29.68 0 0 1 4.8,4.06 c 5.79,5.4 12.53,7 20.17,5.15 4.81,-1.18 9.45,-2.7 13.43,-6.37 -2.6,-3.11 -5.9,-3.19 -9,-3.6 -8.14,-1.06 -16.31,-1.95 -24.44,-3.09 a 38.36,38.36 0 0 1 -21.87,-10.47 11.9,11.9 0 0 1 -1.38,-1.76 c -0.06,-0.09 0.06,-0.33 0.21,-1 l 21.87,-0.85 c -5.16,-3.39 -9.65,-5.5 -13,-8.77 -3.35,-3.27 -5.74,-7.8 -7.81,-12.58 a 14.8,14.8 0 0 1 3,1 c 9,5.2 18.72,7.52 29,8.21 8.2,0.56 16.34,1.46 24.3,3.84 a 50.53,50.53 0 0 1 17.93,9.15 c -2.21,-6.4 -6.16,-11.74 -10,-18 a 42.74,42.74 0 0 1 13.83,5.16 88.27,88.27 0 0 1 23.45,19.12 15.59,15.59 0 0 0 4.22,3.82 14.79,14.79 0 0 0 6.4,2 c 4.94,0.1 7.14,-2.66 5.79,-7.38 -1.05,-3.64 -2.86,-7.06 -4.36,-10.56 a 8.41,8.41 0 0 1 -1,-3.12 c 9.24,4.14 16.34,10.52 19.53,20.18 2.33,7 4.86,13.51 11.11,18.18 8.31,6.22 17.18,10.43 27.67,11.38 18.65,1.68 36.61,-1.85 54.23,-7.16 a 251.5,251.5 0 0 1 56.27,-10.12 c 12.39,-0.81 24.76,-2.07 37.1,-3.51 a 67.9,67.9 0 0 0 13.28,-3.37 21,21 0 0 0 6.4,-3.7 c 7.24,-5.85 7.14,-12.6 -0.43,-17.89 a 95.13,95.13 0 0 0 -30,-13.92 c -15.13,-4.06 -30.43,-7.49 -45.56,-11.54 -24.92,-6.68 -48.52,-16.25 -69.38,-31.91 -16.81,-12.61 -29.58,-28.68 -40.68,-46.25 -11.1,-17.57 -22,-35.42 -33.34,-52.9 -8.45,-13 -17.89,-25.3 -30.11,-35.14 a 12.66,12.66 0 0 1 -2.4,-2.45 c -1.88,-2.65 -1.18,-4.69 1.94,-5.64 a 25.31,25.31 0 0 1 4.49,-0.89 c 21.56,-2.31 43.13,-2.87 64.61,0.49 a 190.14,190.14 0 0 1 67.53,24.29 273.36,273.36 0 0 1 40.69,28.78 c 4.17,3.61 7.83,7.81 11.72,11.74 q 2.15,2.17 4.31,4.33 l 1.23,-0.43 c -0.18,-2.88 -0.23,-5.79 -0.58,-8.65 -0.43,-3.61 -1.3,-7.16 -1.64,-10.77 -0.7,-7.49 1.73,-9.25 8.56,-6.31 a 145.16,145.16 0 0 1 36,22.2 c 11.9,10 23.13,20.58 32.58,33 6.6,8.68 13.69,17 20.22,25.7 18.25,24.38 40.18,45.1 63.73,64.15 6.95,5.62 14.87,10.06 22.44,14.88 10,6.37 20.12,12.54 30.15,18.85 9.17,5.77 15.37,14 17.78,24.45 3.18,13.77 9.17,26.27 15.26,38.85 9.62,19.86 7.13,38.66 -6.57,55.77 a 38.38,38.38 0 0 1 -11.41,9.34 c -13.25,7.24 -27.39,9.44 -42.14,5.3 a 199.78,199.78 0 0 1 -21.81,-7 c -6.74,-2.77 -12.21,-1.43 -17.57,2.81 -7.8,6.16 -15.67,12.23 -23.52,18.33 -0.4,0.31 -0.94,0.45 -2.13,0.15 2.24,-3.18 4.43,-6.39 6.74,-9.52 1.36,-1.84 2.88,-3.58 4.38,-5.31 7.33,-8.42 7.33,-8.41 8.91,-18.48 5.33,-1.15 10.65,-2.47 16.05,-3.36 1.5,-0.25 3.25,0.68 4.82,1.24 a 6.26,6.26 0 0 1 1.78,1.42 c 10.25,9.32 22.92,12.76 36.15,14.4 8.9,1.1 16.53,-2.31 22.66,-8.79 2.35,-2.48 4.33,-5.32 6.55,-8.08 2.88,-0.43 5.92,2.43 8.61,-0.23 l -11.11,-7 a 30.14,30.14 0 0 0 -0.37,3.49 c 0,5.69 -2.64,9.91 -7.32,12.85 -7,4.41 -14.65,6.58 -23,5.13 -7.75,-1.35 -15.35,-3.25 -22.12,-7.5 -6.31,-4 -10.63,-9.24 -10.92,-17.95 -3.71,6.06 -9.33,7.26 -15,8.25 -6.37,1.11 -12.74,2.28 -19.15,3 -5.15,0.55 -9.59,-1.26 -13.56,-4.89 -4.9,-4.5 -11.28,-6.28 -17.59,-8 -4.79,-1.27 -9.62,-2.47 -14.38,-3.89 a 13.55,13.55 0 0 1 -9.58,-9.74 191.1,191.1 0 0 0 -7.29,-19.89 c 1.27,10.06 2.3,20.15 7.68,29.13 a 12.42,12.42 0 0 0 8.23,5.77 c 5.39,1.24 10.78,2.59 16.25,3.34 a 31.92,31.92 0 0 1 16.06,6.86 c 2.84,2.24 6.72,3.41 10.31,4.4 3.25,0.9 6.74,0.89 10.34,1.31 a 7.84,7.84 0 0 1 -1.33,7.11 32.5,32.5 0 0 1 -3.57,4.48 c -7.81,7.67 -12.76,17.09 -17.15,26.94 a 27.83,27.83 0 0 1 -4.74,7 c -15.4,17.26 -31,34.36 -46.32,51.67 -4.55,5.13 -8.51,10.8 -12.75,16.21 -0.69,0.87 -1.45,1.68 -2.8,3.24 -1.47,-2.83 -2.67,-5.12 -3.85,-7.41 -15.9,-30.78 -37.45,-56.75 -65.82,-76.77 -31.33,-22.1 -66.08,-34.15 -104.64,-33.66 -46,0.59 -85.24,17.79 -117.92,49.81 -30.91,30.28 -48.89,67.5 -56.88,109.76 a 223.41,223.41 0 0 0 -3.52,53.66 c 0.2,2.7 0.08,5.37 0.08,8.34 z m -51,-296.7 c 1.2,1.17 2.5,2.27 3.59,3.54 2.6,3 5.28,6 7.6,9.28 3,4.18 2.88,8.71 0,12.89 a 37.55,37.55 0 0 1 -6.37,7.29 53.53,53.53 0 0 1 -18.51,10.06 c -9.72,3.21 -19.61,2.78 -29.54,1.94 -5.8,-0.5 -11.57,-1.21 -17.36,-1.82 a 16.19,16.19 0 0 0 6.56,3.26 c 12.78,3.31 25.78,2.9 38.76,1.86 8.19,-0.66 16.35,-1.67 24.5,-2.75 5,-0.67 9.42,0.07 13.32,3.53 3.57,3.16 7.32,6.14 11,9.14 3,2.39 5.78,5.07 9.05,6.95 11,6.3 23,7.76 35.48,6.76 1.84,-0.15 3.62,-1.11 6.21,-1.95 -24,-11.46 -31,-16 -33.11,-21.65 5,1.16 9.61,2.38 14.26,3.26 8.61,1.63 17.23,3.3 25.91,4.46 3.4,0.46 7.19,0.49 10.74,-2.53 -2.06,-3.27 -4.16,-6.2 -5.81,-9.36 -1.65,-3.16 -5.3,-5.42 -4.94,-9.88 6.07,2.36 11.77,4.53 17.43,6.8 9.93,4 20,2.18 30,0.48 5.07,-0.86 5.88,-3 4.31,-7.88 a 33.44,33.44 0 0 0 -9,-13.81 c -1.38,-1.35 -3.32,-2.36 -3.72,-4.79 6.53,1 12.7,2.23 18.92,2.68 6.42,0.45 12.9,0.1 19.6,0.1 a 13.67,13.67 0 0 0 -0.63,-2.38 c -3,-6.15 -2.4,-12.23 0.21,-18.3 0.53,-1.23 0.94,-2.51 1.43,-3.75 a 12.83,12.83 0 0 0 -0.24,-10.57 39.4,39.4 0 0 1 -1.54,-4.6 5.33,5.33 0 0 1 3.63,2 c 8.16,11.85 19.15,18.78 33.63,20.44 10.32,1.19 17.88,7.2 23.6,15.67 0.79,1.18 1.69,2.27 2.69,3.61 2.62,-4.79 2.77,-8.16 0.06,-11.62 a 43.89,43.89 0 0 0 -6.92,-6.77 c -7.73,-6.26 -15.7,-12.24 -21.54,-20.47 a 19.83,19.83 0 0 1 -1.3,-2.61 l -1.26,1 q 1.65,6.07 3.28,12.15 l -1.07,0.9 a 100.09,100.09 0 0 0 -43.84,-23.47 c 1.41,3.71 3,6.82 3.76,10.12 3,13.53 -0.07,29.46 -21.53,31 -14.12,1 -28,-0.87 -38.91,-11.57 a 19.69,19.69 0 0 0 -2.33,-1.57 c 0.25,4.1 2.2,6.79 4,9.3 3.51,4.75 7.37,9.25 11.14,13.82 3.36,4.07 7.06,7.93 8.7,13.1 a 6.84,6.84 0 0 1 -7.81,1 c -4.68,-2.05 -9.46,-4.16 -13.59,-7.09 -5.12,-3.64 -9.57,-8.21 -14.42,-12.24 a 65.31,65.31 0 0 0 -29.16,-13.74 41.75,41.75 0 0 0 -4.57,-0.35 c 5.67,3.89 10.88,7.08 15.64,10.84 5.05,4 8.85,9.1 9.91,15.64 1.19,7.38 -1.53,10 -8.87,9.13 a 17.29,17.29 0 0 1 -3.39,-0.58 c -17.31,-6.06 -34.81,-11.61 -48,-25.57 -5.13,-5.41 -11.47,-9.47 -19.68,-10.33 z m -27.53,152.57 a 2.67,2.67 0 0 1 0.6,-1.09 c 10.75,-8.81 22.77,-15 36.87,-15.38 10.73,-0.29 19.62,-4.16 27.53,-11 5.69,-4.93 11.85,-9 19.2,-11 a 55.7,55.7 0 0 0 7.91,-3.33 c 2.4,-1.12 4.73,-2.39 7.09,-3.59 -25.63,6 -50.9,9.56 -76.36,-0.62 3.05,4.31 6.29,8.19 9.51,12.1 3.22,3.91 6.46,7.9 9,11 -7.81,-1 -17.23,-2.24 -26.67,-3.38 -19.47,-2.33 -38.88,-2.31 -58.14,1.82 -3.92,0.84 -7.79,1.9 -11.62,3.05 -1,0.3 -1.86,1.29 -3.33,2.36 17.82,1.1 37.71,7.27 49.21,15.25 l -20.16,5.34 a 41.05,41.05 0 0 0 16.61,9.65 c 5.89,1.88 11.92,3.29 18,2.32 6.08,-0.97 11.89,-2.81 18.57,-4.45 -6.23,8.67 -15.48,11.33 -24.18,15.23 12.5,7.95 34.56,5.92 41.11,-3.85 a 47.35,47.35 0 0 0 -6.37,-2.46 c -2.05,-0.49 -4.25,-0.37 -7.48,-0.59 2.33,-1.77 3.76,-2.68 5,-3.82 4.82,-4.56 3.72,-10.31 -2.56,-12.5 a 26.5,26.5 0 0 0 -8.41,-1.5 c -7.05,-0.1 -14.04,0.25 -20.97,0.44 z m 276.84,-360.21 -0.48,0.49 c 4.85,7.91 9.68,15.84 14.57,23.73 13.17,21.23 29.58,39.53 50.36,53.48 11.24,7.55 23,14.34 34.93,20.85 19.48,10.65 39.63,19.86 60.9,26.45 1.64,0.51 3.32,0.86 6.24,1.61 -5.45,-6.45 -11.59,-9 -17.75,-11.6 -6.53,-2.72 -13.15,-5.24 -19.5,-8.31 -14.62,-7.07 -28.93,-14.81 -43.7,-21.53 a 132.65,132.65 0 0 1 -34.1,-23 c -8.19,-7.41 -15.5,-15.82 -23,-24 -2.1,-2.28 -4,-5.07 -2.63,-9.41 1.52,0.84 2.77,1.46 4,2.19 5.68,3.49 11.29,7.13 17,10.5 5.71,3.37 11.83,6.26 17.52,9.76 13.37,8.25 27.51,14.94 41.7,21.62 10.17,4.79 20.33,9.91 29.66,16.13 14.44,9.62 29.1,19.05 41.83,31.14 1,-0.58 1.82,-1 2.63,-1.53 0.65,-0.39 1.28,-0.81 1.7,-1.08 a 9,9 0 0 0 -0.68,-1.63 13.81,13.81 0 0 0 -1.55,-1.69 c -15.66,-14.14 -32,-27.33 -51.1,-36.68 -14.58,-7.15 -29.27,-14.1 -44.15,-20.6 -23.31,-10.16 -44.92,-22.91 -63.91,-40 -5.54,-5 -11.35,-9.67 -17.07,-14.46 -1.1,-0.83 -2.31,-1.57 -3.46,-2.43 z m 174.83,155 c 22.27,-17.21 46,-28.7 74.42,-31 -5.09,-4.8 -9.92,-8.42 -13.54,-13 -4.69,-5.94 -10.27,-6.4 -16.78,-4.86 -0.74,0.18 -1.49,0.31 -2.23,0.51 a 112.56,112.56 0 0 0 -50.09,28.6 c -1.33,1.29 -2.43,2.82 -3.88,4.54 5.61,3.82 10.84,7.45 12.06,15.23 z m -422.83,293.37 c 1.86,-0.92 3.81,-1.7 5.56,-2.79 a 90,90 0 0 0 9.91,-6.72 c 5,-4.19 6.07,-10 5.21,-16.16 a 8.36,8.36 0 0 0 -5.64,-6.71 c -1.64,-0.64 -3.3,-1.24 -5.31,-2 12.74,-7.79 17.11,-13.42 17.33,-22.41 -0.77,0.68 -1.3,1.13 -1.81,1.6 -4.54,4.06 -8.89,8.38 -13.68,12.13 a 22.76,22.76 0 0 1 -15.39,5.25 c -4.26,-0.21 -8.54,-0.05 -12.82,-0.05 a 4,4 0 0 0 2.11,2.35 c 5.73,2.93 12,3.64 18.26,4.46 4.48,0.59 7.93,2.77 9.15,7.47 1.22,4.7 -0.07,8.38 -4,11 -4.61,3.06 -9.3,6 -14,8.84 -3.56,2.13 -7.24,4 -10.87,6.06 13.84,3.58 26.21,8.61 35.89,19.9 l -7.78,1.14 5.25,5.54 a 15.62,15.62 0 0 1 -6.11,10.18 c -3.6,2.77 -7.7,4.89 -11.55,7.33 -1,0.6 -1.8,1.36 -2.7,2.05 17.8,0.82 31.2,-7.29 43,-19.2 -3.92,-3.13 -7.76,-5.63 -10.9,-8.83 -8.43,-8.52 -16.28,-17.56 -29.11,-20.43 z m 186,-484.26 c -0.38,0.63 -0.6,0.85 -0.55,0.93 1.46,2.67 2.88,5.37 4.43,8 12.86,21.66 25.34,43.53 40.07,64.08 15.39,21.49 33.55,39.57 56.75,52.39 3.18,1.75 6.35,3.51 9.55,5.22 14.5,7.72 28.9,15.64 44.45,21.13 3.54,1.25 7.23,2.08 10.85,3.11 0.14,-0.37 0.28,-0.74 0.43,-1.11 -1.81,-0.85 -3.64,-1.66 -5.43,-2.54 -15.59,-7.65 -31.35,-15 -46.72,-23.06 -34.6,-18.22 -62,-44.26 -82.62,-77.48 -8.55,-13.8 -16.84,-27.77 -25.29,-41.63 -1.8,-3.02 -3.83,-5.91 -5.89,-9.04 z m 295.35,199.56 c 0.13,0.27 0.27,0.54 0.4,0.82 1,-0.41 2,-0.75 2.91,-1.22 q 5.64,-2.81 11.23,-5.67 a 14,14 0 0 1 13.14,-0.3 c 11.75,5.52 23.5,11 33.78,19.09 a 10,10 0 0 0 1.9,1 c 4.27,-4.43 4.58,-5.87 1,-8.23 a 193.29,193.29 0 0 0 -33.69,-18.16 c -4.19,-1.69 -7.93,-1.5 -11.79,1.21 -3.86,2.71 -7.94,4.54 -11.87,6.89 -2.38,1.39 -4.65,3.02 -6.98,4.57 z m 13.52,24.94 a 163.58,163.58 0 0 0 21.28,4.7 v -14.28 l -7.36,-5.54 z m -312.03,-226.75 0.66,-0.56 c -0.25,-0.48 -0.52,-0.94 -0.74,-1.44 -1.83,-4.09 -1.15,-5.42 3.16,-5.11 3.38,0.23 6.71,1.28 10.07,1.87 5.24,0.92 10.49,2.52 15.73,2.48 10.65,-0.07 21.3,-1 31.94,-1.66 2.22,-0.14 4.41,-0.69 6.62,-1 a 60.35,60.35 0 0 0 -10.92,-0.71 c -12.54,-0.11 -25.11,1.62 -37.6,-1.16 -7.24,-1.62 -14.59,-2.77 -21.9,-4.06 -1.88,-0.32 -3.82,-0.35 -7,-0.62 z m 301.78,259.08 c -10.5,-5.79 -19.42,-13.36 -30.87,-16.77 -0.18,1.1 -0.51,1.76 -0.32,2.17 a 5.43,5.43 0 0 0 1.66,2.18 c 9,5.72 17.69,11.93 27.91,16.23 z m -36.93,-9 c 0.76,2 0.81,3.19 1.38,3.55 q 14,8.86 28.06,17.51 c 1.52,0.94 3.17,0.86 4.08,-1 z m 86.23,-14.9 c 2.12,1 3.73,1.6 6.28,1 -2.18,-1.93 -3.61,-3.75 -6.28,-1.02 z"
       id="path10"
       style="fill:#004a75" />
    <path
       d="m 282.28,113.85133 c 2.33,4.16 1.67,9.15 -0.5,14.08 -2,4.54 -3.85,9.18 -6.22,13.52 a 17.06,17.06 0 0 1 -14.8,9.43 c -8.4,0.38 -16.81,0.35 -25.22,0.43 a 11.64,11.64 0 0 1 -2.78,-0.92 c 2.07,-5.13 3.82,-10.13 6.16,-14.83 0.65,-1.31 3,-2.31 4.64,-2.48 3.59,-0.39 7.25,-0.12 10.89,-0.18 2.35,0 4.8,-0.28 5.9,-2.7 0.73,-1.63 1.42,-3.74 1,-5.29 -0.25,-0.87 -2.86,-1.38 -4.44,-1.45 -4,-0.21 -8,-0.07 -12.45,-0.07 0.67,-5.12 2.7,-9.19 4.76,-13.16 0.52,-1 2.45,-1.68 3.8,-1.81 2.84,-0.28 5.77,0.22 8.58,-0.22 a 9.91,9.91 0 0 0 5.3,-2.62 5.47,5.47 0 0 0 1,-4.59 c -0.23,-0.83 -2.51,-1.43 -3.91,-1.51 -3.62,-0.21 -7.28,0.15 -10.89,-0.14 -3.61,-0.29 -5.06,1.34 -6.27,4.42 -5.39,13.69 -11,27.31 -16.49,40.95 -2.7,6.69 -2.72,6.71 -10.06,6.7 -3.95,0 -7.89,-0.08 -12.48,-0.14 0.63,-2.25 0.9,-3.68 1.44,-5 8,-19.86 16.08,-39.67 23.91,-59.59 1.58,-4 3.8,-5.59 8.08,-5.52 12.43,0.21 24.86,0.19 37.29,0.05 13.21,-0.14 15.92,7.48 11.62,17.48 -2.07,4.83 -4.83,9.39 -7.86,15.16 z"
       id="path12"
       style="fill:#004a75" />
    <path
       d="m 157.15,492.20133 c -13.54,8.61 -27.76,14.82 -44.47,11.85 a 25.64,25.64 0 0 1 -12.27,-5.86 c -2.33,-2 -4.67,-3.94 -7.1,-5.79 a 78.12,78.12 0 0 0 -38.78,-15.73 4.45,4.45 0 0 1 -2.86,-1.4 l 18,-7.77 c -2.31,-1.54 -4.38,-1.44 -6.26,-1.57 -9.33,-0.67 -18.7,-1 -28,-1.89 a 118.73,118.73 0 0 1 -17.39,-3.3 c -3,-0.76 -5.67,-2.63 -8.49,-4 l 0.3,-1.3 a 15.58,15.58 0 0 1 3.46,-0.18 52.6,52.6 0 0 0 31.8,-4.57 c 4.32,-2 8.61,-4.14 12.78,-6.45 11.6,-6.43 23.16,-6.13 34.22,0.83 a 109.41,109.41 0 0 1 16.1,12.72 97.51,97.51 0 0 1 11.22,13 c 8.75,11.67 20.28,18.26 34.74,19.82 0.9,0.09 1.79,0.28 2.69,0.42 z m -40.71,-4.53 c -5.87,-1.91 -8.68,-6.52 -11.34,-11.49 a 21.11,21.11 0 0 0 -5.24,-6 c -3.67,-3 -8.32,-3.51 -13.58,-1.56 7,2.22 11.18,7.09 15.15,12.35 3.57,4.8 8.32,7.8 15.01,6.7 z"
       id="path14"
       style="fill:#004a75" />
    <path
       d="m 282.84,151.27133 c 0.89,-2.73 1.35,-4.51 2,-6.21 q 11.65,-29 23.38,-57.93 c 2.39,-5.91 2.58,-6 8.81,-6 12.23,0 24.47,0.2 36.7,-0.05 14.23,-0.3 15.92,9 12.22,17.86 -4.94,11.81 -9.67,23.7 -14.51,35.55 -0.73,1.76 -1.55,3.49 -2.42,5.19 -3.6,7 -9.21,11 -17.22,11.48 -7.79,0.47 -15.55,0.34 -23.95,0.17 1.29,-6.21 3.74,-11.12 6.07,-16 0.6,-1.25 3.07,-2.05 4.77,-2.24 a 81.07,81.07 0 0 1 9.74,-0.12 c 2.13,0 3.6,-0.67 4.44,-2.8 3.78,-9.6 7.66,-19.15 11.47,-28.73 0.11,-0.29 -0.12,-0.71 -0.33,-1.8 -6.06,0 -12.29,-0.07 -18.51,0 -2.75,0.05 -3,2.6 -3.8,4.45 -5.49,13.45 -10.9,26.92 -16.35,40.38 a 17.28,17.28 0 0 1 -1.85,4.17 c -0.86,1.11 -2.26,2.47 -3.47,2.53 -5.42,0.26 -10.88,0.1 -17.19,0.1 z"
       id="path16"
       style="fill:#004a75" />
    <path
       d="m 382.06,129.06133 v 5.38 c 7.62,0 15,0.08 22.45,-0.09 a 4.29,4.29 0 0 0 3,-2 73.92,73.92 0 0 0 3.15,-7.85 c -2.29,-0.13 -3.94,-0.3 -5.59,-0.31 -7.64,0 -15.3,0.18 -22.94,-0.11 -8.56,-0.33 -12.73,-5.81 -10.12,-13.89 a 130.19,130.19 0 0 1 8.07,-18.93 16.58,16.58 0 0 1 14.69,-9.57 c 12.22,-0.39 24.46,-0.65 36.67,-0.29 7.42,0.22 10.71,5.24 9.42,12.61 a 19.41,19.41 0 0 1 -0.74,2.76 c -2.14,6.5 -2.44,6.72 -9.3,6.73 -3.62,0 -7.23,0 -11.21,0 v -5.41 c -7.1,0 -14,0 -20.83,0 a 4,4 0 0 0 -4.32,3 c -0.76,2.13 -1.62,4.23 -2.64,6.89 1.91,0.2 3.31,0.47 4.72,0.48 6.88,0 13.76,0 20.64,0 a 33.92,33.92 0 0 1 5.15,0.21 c 6.55,1 10.45,6 8.4,12.35 a 139.48,139.48 0 0 1 -9.22,21.49 c -2.81,5.38 -8,8.31 -14.15,8.46 -12.41,0.32 -24.84,0.58 -37.25,0.22 -7.63,-0.21 -11.16,-5.62 -9.48,-13 0.34,-1.48 1,-2.88 1.45,-4.35 1,-3.41 3,-5 6.72,-4.75 4.2,0.18 8.45,-0.03 13.26,-0.03 z"
       id="path18"
       style="fill:#004a75" />
    <path
       d="m 0,276.60133 c 4.47,-5.06 10.33,-7.55 16.83,-8.78 1.5,-0.29 3,-0.43 4.54,-0.69 8.75,-1.47 16.67,0 23.47,6.16 5.67,5.16 12.41,6.09 20.32,4.39 -2.81,-4.5 -8.23,-5.35 -10.77,-9.67 1.9,-1.92 4.32,-1.33 6.25,-0.65 a 75.93,75.93 0 0 1 12,5.22 51.41,51.41 0 0 1 9.75,7 c 6.11,5.65 13.28,9.6 20.42,13.66 1,0.55 1.85,1.19 3.55,2.3 a 23.73,23.73 0 0 1 -3.73,1 177,177 0 0 0 -33.91,5.24 84.21,84.21 0 0 1 -15.26,2.14 22,22 0 0 1 -17.54,-7.06 62.22,62.22 0 0 1 -8.08,-9.63 c -5.14,-8.11 -12.47,-10.77 -21.6,-9.8 -2,0.21 -4,0.4 -5.93,0.59 z"
       id="path20"
       style="fill:#004a75" />
    <path
       d="m 27.22,347.63133 c 2.14,0.23 4.31,0.29 6.4,0.71 5.41,1.11 10.77,2.38 16.16,3.57 7.86,1.73 13.39,6.27 16.29,13.79 1.44,3.73 2.58,7.58 3.87,11.37 3.59,10.51 10.61,17.47 21.35,20.5 5.1,1.45 10.23,2.78 16,4.33 -0.81,0.93 -1.22,1.87 -1.88,2.09 -11.7,3.93 -23.44,4.7 -35.35,0.68 -7.48,-2.53 -12.29,-7.35 -14.31,-15 a 71.54,71.54 0 0 0 -8.85,-20.39 57,57 0 0 0 -15.11,-16.29 c -1.69,-1.2 -3.32,-2.48 -5,-3.73 z"
       id="path22"
       style="fill:#004a75" />
    <path
       d="m 97.4,238.61133 c 1.42,1.73 3,3.37 4.23,5.21 a 23.71,23.71 0 0 0 16.37,10.44 c 3.39,0.53 6.75,1.43 10.15,1.61 7.87,0.4 14.62,3.6 22.17,8.56 -4.72,0.1 -8.37,0 -12,0.31 -4.89,0.42 -9.88,0.66 -14.61,1.86 -11.85,3 -23.4,-4 -25.56,-16.14 -0.67,-3.73 -1,-7.52 -1.52,-11.29 z"
       id="path24"
       style="fill:#004a75" />
    <path
       class="cls-1"
       d="m 284.18,263.77133 c 8.21,0.86 14.55,4.92 19.65,10.32 13.22,14 30.72,19.51 48,25.57 a 17.29,17.29 0 0 0 3.39,0.58 c 7.34,0.9 10.06,-1.75 8.87,-9.13 -1.06,-6.54 -4.86,-11.66 -9.91,-15.64 -4.76,-3.76 -10,-7 -15.64,-10.84 a 41.75,41.75 0 0 1 4.57,0.35 65.31,65.31 0 0 1 29.25,13.82 c 4.85,4 9.3,8.6 14.42,12.24 4.13,2.93 8.91,5 13.59,7.09 a 6.84,6.84 0 0 0 7.81,-1 c -1.64,-5.17 -5.34,-9 -8.7,-13.1 -3.77,-4.57 -7.63,-9.07 -11.14,-13.82 -1.85,-2.51 -3.8,-5.2 -4,-9.3 a 19.69,19.69 0 0 1 2.33,1.57 c 10.93,10.7 24.79,12.61 38.91,11.57 21.46,-1.57 24.51,-17.5 21.53,-31 -0.73,-3.3 -2.35,-6.41 -3.76,-10.12 a 100.09,100.09 0 0 1 43.84,23.47 l 1.07,-0.9 q -1.63,-6.07 -3.28,-12.15 l 1.26,-1 a 19.83,19.83 0 0 0 1.3,2.61 c 5.84,8.23 13.81,14.21 21.54,20.47 a 43.89,43.89 0 0 1 6.92,6.77 c 2.71,3.46 2.56,6.83 -0.06,11.62 -1,-1.34 -1.9,-2.43 -2.69,-3.61 -5.72,-8.47 -13.28,-14.48 -23.6,-15.67 -14.48,-1.66 -25.47,-8.59 -33.63,-20.44 a 5.33,5.33 0 0 0 -3.63,-2 39.4,39.4 0 0 0 1.54,4.6 12.83,12.83 0 0 1 0.24,10.57 c -0.49,1.24 -0.9,2.52 -1.43,3.75 -2.61,6.07 -3.2,12.15 -0.21,18.3 a 13.67,13.67 0 0 1 0.63,2.38 c -6.7,0 -13.18,0.35 -19.6,-0.1 -6.22,-0.45 -12.39,-1.72 -18.92,-2.68 0.4,2.43 2.34,3.44 3.72,4.79 a 33.44,33.44 0 0 1 9,13.81 c 1.57,4.84 0.76,7 -4.31,7.88 -9.95,1.7 -20,3.48 -30,-0.48 -5.66,-2.27 -11.36,-4.44 -17.43,-6.8 -0.36,4.46 3.3,6.72 4.94,9.88 1.64,3.16 3.75,6.09 5.81,9.36 -3.55,3 -7.34,3 -10.74,2.53 -8.68,-1.16 -17.3,-2.83 -25.91,-4.46 -4.65,-0.88 -9.23,-2.1 -14.26,-3.26 2.07,5.65 9.14,10.19 33.11,21.65 -2.59,0.84 -4.37,1.8 -6.21,1.95 -12.43,1 -24.48,-0.46 -35.48,-6.76 -3.27,-1.88 -6.09,-4.56 -9.05,-6.95 -3.72,-3 -7.47,-6 -11,-9.14 -3.9,-3.46 -8.31,-4.2 -13.32,-3.53 -8.15,1.08 -16.31,2.09 -24.5,2.75 -13,1 -26,1.45 -38.76,-1.86 a 16.19,16.19 0 0 1 -6.56,-3.26 c 5.79,0.61 11.56,1.32 17.36,1.82 9.93,0.84 19.82,1.27 29.54,-1.94 a 53.53,53.53 0 0 0 18.41,-10.13 37.55,37.55 0 0 0 6.37,-7.29 c 2.84,-4.18 3,-8.71 0,-12.89 -2.32,-3.25 -5,-6.24 -7.6,-9.28 -1.09,-1.27 -2.39,-2.32 -3.59,-3.54 z"
       id="path26" />
    <path
       class="cls-1"
       d="m 256.65,416.34133 c 6.93,-0.19 13.92,-0.54 20.9,-0.48 a 26.5,26.5 0 0 1 8.41,1.5 c 6.28,2.19 7.38,7.94 2.56,12.5 -1.2,1.14 -2.63,2.05 -5,3.82 3.23,0.22 5.43,0.1 7.48,0.59 a 47.35,47.35 0 0 1 6.37,2.46 c -6.55,9.77 -28.61,11.8 -41.11,3.85 8.7,-3.9 17.95,-6.56 24.18,-15.23 -6.68,1.64 -12.56,3.49 -18.57,4.45 -6.01,0.96 -12.14,-0.44 -18,-2.32 a 41.05,41.05 0 0 1 -16.61,-9.65 l 20.16,-5.34 c -11.5,-8 -31.39,-14.15 -49.21,-15.25 1.47,-1.07 2.3,-2.06 3.33,-2.36 3.83,-1.15 7.7,-2.21 11.62,-3.05 19.26,-4.13 38.67,-4.15 58.14,-1.82 9.44,1.14 18.86,2.39 26.67,3.38 -2.52,-3.09 -5.74,-7 -9,-11 -3.26,-4 -6.46,-7.79 -9.51,-12.1 25.46,10.18 50.73,6.64 76.36,0.62 -2.36,1.2 -4.69,2.47 -7.09,3.59 a 55.7,55.7 0 0 1 -7.91,3.33 c -7.35,2.08 -13.51,6.12 -19.2,11 -7.91,6.82 -16.8,10.69 -27.53,11 -14.1,0.37 -26.12,6.57 -36.87,15.38 a 2.67,2.67 0 0 0 -0.57,1.13 z"
       id="path28" />
    <path
       class="cls-1"
       d="m 533.49,56.13133 c 1.15,0.84 2.36,1.6 3.44,2.51 5.72,4.79 11.53,9.48 17.07,14.46 19,17 40.6,29.8 63.91,40 14.88,6.5 29.57,13.45 44.15,20.6 19.05,9.35 35.44,22.54 51.1,36.68 a 13.81,13.81 0 0 1 1.55,1.69 9,9 0 0 1 0.68,1.63 c -0.42,0.27 -1,0.69 -1.7,1.08 -0.81,0.49 -1.63,0.95 -2.63,1.53 -12.73,-12.09 -27.39,-21.52 -41.83,-31.14 -9.33,-6.22 -19.49,-11.34 -29.66,-16.13 -14.19,-6.68 -28.33,-13.37 -41.7,-21.62 -5.69,-3.5 -11.75,-6.39 -17.52,-9.76 -5.77,-3.37 -11.37,-7 -17,-10.5 -1.19,-0.73 -2.44,-1.35 -4,-2.19 -1.41,4.34 0.53,7.13 2.63,9.41 7.49,8.16 14.8,16.57 23,24 a 132.65,132.65 0 0 0 34.1,23 c 14.77,6.72 29.08,14.46 43.7,21.53 6.35,3.07 13,5.59 19.5,8.31 6.16,2.57 12.3,5.15 17.75,11.6 -2.92,-0.75 -4.6,-1.1 -6.24,-1.61 -21.27,-6.59 -41.42,-15.8 -60.9,-26.45 -11.89,-6.51 -23.69,-13.3 -34.93,-20.85 -20.78,-14 -37.19,-32.25 -50.36,-53.48 -4.89,-7.89 -9.72,-15.82 -14.57,-23.73 z"
       id="path30" />
    <path
       class="cls-1"
       d="m 708.32,211.15133 c -1.22,-7.78 -6.45,-11.41 -12.1,-15.19 1.45,-1.72 2.55,-3.25 3.88,-4.54 a 112.56,112.56 0 0 1 50.09,-28.6 c 0.74,-0.2 1.49,-0.33 2.23,-0.51 6.51,-1.54 12.09,-1.08 16.78,4.86 3.62,4.58 8.45,8.2 13.54,13 -28.37,2.28 -52.15,13.82 -74.42,30.98 z"
       id="path32" />
    <path
       class="cls-1"
       d="m 285.53,504.50133 c 12.83,2.87 20.68,11.91 29,20.4 3.14,3.2 7,5.7 10.9,8.83 -11.75,11.91 -25.15,20 -43,19.2 0.9,-0.69 1.75,-1.45 2.7,-2.05 3.85,-2.44 7.95,-4.56 11.55,-7.33 a 15.62,15.62 0 0 0 6.11,-10.18 l -5.25,-5.54 7.78,-1.14 c -9.68,-11.29 -22.05,-16.32 -35.89,-19.9 3.63,-2 7.31,-3.93 10.87,-6.06 4.74,-2.85 9.43,-5.78 14,-8.84 4,-2.62 5.23,-6.42 4,-11 -1.23,-4.58 -4.67,-6.88 -9.15,-7.47 -6.26,-0.82 -12.53,-1.53 -18.26,-4.46 a 4,4 0 0 1 -2.09,-2.3 c 4.28,0 8.56,-0.16 12.82,0.05 a 22.76,22.76 0 0 0 15.39,-5.25 c 4.79,-3.75 9.14,-8.07 13.68,-12.13 0.51,-0.47 1,-0.92 1.81,-1.6 -0.22,9 -4.59,14.62 -17.33,22.41 2,0.76 3.67,1.36 5.31,2 a 8.36,8.36 0 0 1 5.64,6.71 c 0.86,6.14 -0.18,12 -5.21,16.16 a 90,90 0 0 1 -9.94,6.7 c -1.63,1.09 -3.58,1.87 -5.44,2.79 z"
       id="path34" />
    <path
       class="cls-1"
       d="m 471.56,20.24133 c 2.06,3.13 4.09,6 5.92,9 8.45,13.86 16.74,27.83 25.29,41.63 20.59,33.22 48,59.26 82.62,77.48 15.37,8.09 31.13,15.41 46.72,23.06 1.79,0.88 3.62,1.69 5.43,2.54 -0.15,0.37 -0.29,0.74 -0.43,1.11 -3.62,-1 -7.31,-1.86 -10.85,-3.11 -15.55,-5.49 -30,-13.41 -44.45,-21.13 -3.2,-1.71 -6.37,-3.47 -9.55,-5.22 -23.2,-12.82 -41.36,-30.9 -56.75,-52.39 -14.73,-20.55 -27.21,-42.42 -40.07,-64.08 -1.55,-2.62 -3,-5.32 -4.43,-8 -0.01,-0.04 0.17,-0.26 0.55,-0.89 z"
       id="path36" />
    <path
       class="cls-1"
       d="m 766.91,219.80133 c 2.33,-1.55 4.6,-3.18 7,-4.61 3.93,-2.35 8.13,-4.28 11.87,-6.89 3.74,-2.61 7.6,-2.9 11.79,-1.21 a 193.29,193.29 0 0 1 33.69,18.16 c 3.59,2.36 3.28,3.8 -1,8.23 a 10,10 0 0 1 -1.9,-1 c -10.28,-8.11 -22,-13.57 -33.78,-19.09 a 14,14 0 0 0 -13.14,0.3 q -5.6,2.86 -11.23,5.67 c -0.94,0.47 -1.94,0.81 -2.91,1.22 -0.12,-0.24 -0.3,-0.51 -0.39,-0.78 z"
       id="path38" />
    <path
       class="cls-1"
       d="m 780.43,244.74133 13.92,-15.12 7.36,5.54 v 14.28 a 163.58,163.58 0 0 1 -21.28,-4.7 z"
       id="path40" />
    <path
       class="cls-1"
       d="m 468.37,17.99133 -10,-12 c 3.18,0.27 5.12,0.3 7,0.62 7.31,1.29 14.66,2.44 21.9,4.06 12.49,2.78 25.06,1 37.6,1.16 a 60.35,60.35 0 0 1 10.92,0.71 c -2.21,0.36 -4.4,0.91 -6.62,1 -10.64,0.67 -21.29,1.59 -31.94,1.66 -5.24,0 -10.49,-1.56 -15.73,-2.48 -3.36,-0.59 -6.69,-1.64 -10.07,-1.87 -4.31,-0.31 -5,1 -3.16,5.11 0.22,0.5 0.49,1 0.74,1.44 z"
       id="path42" />
    <path
       class="cls-1"
       d="m 770.15,277.06133 -1.62,3.81 c -10.22,-4.3 -18.93,-10.51 -27.91,-16.23 a 5.43,5.43 0 0 1 -1.66,-2.18 c -0.19,-0.41 0.14,-1.07 0.32,-2.17 11.45,3.41 20.37,10.98 30.87,16.77 z"
       id="path44" />
    <path
       class="cls-1"
       d="m 733.22,268.05133 33.52,20.08 c -0.91,1.84 -2.56,1.92 -4.08,1 q -14.1,-8.64 -28.06,-17.51 c -0.6,-0.38 -0.6,-1.54 -1.38,-3.57 z"
       id="path46" />
    <path
       class="cls-1"
       d="m 819.45,253.15133 c 2.67,-2.73 4.1,-0.91 6.28,1 -2.55,0.6 -4.16,-0.01 -6.28,-1 z"
       id="path48" />
    <path
       class="cls-1"
       d="m 116.44,487.67133 c -6.69,1.1 -11.42,-1.9 -15,-6.66 -4,-5.26 -8.13,-10.13 -15.15,-12.35 5.26,-1.95 9.91,-1.48 13.58,1.56 a 21.11,21.11 0 0 1 5.24,6 c 2.65,4.93 5.46,9.54 11.33,11.45 z"
       id="path50" />
    <path
       class="cls-2"
       d="m 667.41,580.99133 c -9.17,21.93 -22.1,41.29 -39.59,57.29 -24.33,22.23 -52.69,36.32 -85.52,41.58 -34.51,5.53 -67.23,0.15 -98.63,-14.48 -8.85,-4.12 -16.83,-9.81 -25.87,-15.59 0,15.78 -0.14,30.46 0.08,45.11 0.07,4.22 -1.23,5.39 -5.44,5.46 a 54.35,54.35 0 0 1 -55.05,-49.67 c -2.87,-31.83 -0.48,-63.78 -1.29,-95.66 -0.09,-3.59 1.43,-4.33 4.66,-4.33 19.55,0.1 39.11,0.22 58.62,-0.07 4.85,-0.07 5.57,3.27 6.83,6.18 5.46,12.65 12.95,23.92 23.15,33.18 16.92,15.37 36.65,24.25 59.75,26 24.71,1.88 46.8,-4.86 66,-19.69 20.35,-15.65 33.33,-36.37 37.23,-62.05 5.33,-35.25 -6,-65 -32.3,-88.35 -22,-19.46 -48.2,-27.35 -77.92,-23.28 -21.11,2.9 -38.83,12.26 -54.05,26.35 a 89.66,89.66 0 0 0 -22.81,34.16 c -1.39,3.63 -2.9,5 -6.77,5 q -28.68,-0.27 -57.41,0 c -4.52,0 -5.65,-1.46 -4.62,-5.71 a 164.82,164.82 0 0 1 34.54,-68.38 c 26,-30.77 58.88,-49.82 98.49,-55.83 31.71,-4.82 63.06,-2 92.85,11.62 a 171.46,171.46 0 0 1 44.78,29.57 c 27.64,25.21 44.5,56.42 50.23,92.85 4.74,30.13 2.04,60.09 -9.94,88.74 z"
       id="path52" />
  </g>
  <metadata
     id="metadata6086">
    <rdf:RDF>
      <cc:Work
         rdf:about="">
        <dc:title>Logo BDS</dc:title>
      </cc:Work>
    </rdf:RDF>
  </metadata>
</svg>
