<?xml version="1.0" encoding="UTF-8" standalone="no"?>
<!-- Created with Inkscape (http://www.inkscape.org/) -->

<svg
   width="132mm"
   height="132mm"
   viewBox="0 0 132 132"
   version="1.1"
   id="svg1"
   inkscape:version="1.3.2 (091e20e, 2023-11-25, custom)"
   sodipodi:docname="bsu.svg"
   xmlns:inkscape="http://www.inkscape.org/namespaces/inkscape"
   xmlns:sodipodi="http://sodipodi.sourceforge.net/DTD/sodipodi-0.dtd"
   xmlns="http://www.w3.org/2000/svg"
   xmlns:svg="http://www.w3.org/2000/svg">
  <sodipodi:namedview
     id="namedview1"
     pagecolor="#ffffff"
     bordercolor="#000000"
     borderopacity="0.25"
     inkscape:showpageshadow="2"
     inkscape:pageopacity="0.0"
     inkscape:pagecheckerboard="0"
     inkscape:deskcolor="#d1d1d1"
     inkscape:document-units="mm"
     inkscape:zoom="0.51213161"
     inkscape:cx="375.87994"
     inkscape:cy="379.78519"
     inkscape:window-width="1920"
     inkscape:window-height="1009"
     inkscape:window-x="-8"
     inkscape:window-y="-8"
     inkscape:window-maximized="1"
     inkscape:current-layer="layer1" />
  <defs
     id="defs1">
    <pattern
       id="EMFhbasepattern"
       patternUnits="userSpaceOnUse"
       width="6"
       height="6"
       x="0"
       y="0" />
  </defs>
  <g
     inkscape:label="Calque 1"
     inkscape:groupmode="layer"
     id="layer1"
     style="display:inline">
    <circle
       style="display:inline;fill:#1d2769;fill-opacity:1;stroke:#000000;stroke-width:0"
       id="path2"
       cx="66"
       cy="66"
       r="66" />
    <path
       style="display:inline;fill:#ffffff;fill-opacity:1"
       d="m 59.15413,100.31136 c -2.160576,-0.38527 -6.049513,-1.75733 -7.824978,-2.76074 -2.055958,-1.16194 -4.684267,-3.25208 -4.559624,-3.62601 0.186419,-0.55926 5.617996,-8.37692 5.826092,-8.38548 0.115234,-0.005 0.828677,0.45389 1.585429,1.0192 2.996574,2.23848 6.24471,3.46422 9.180033,3.46422 3.324638,0 4.73906,-0.88885 4.936397,-3.10212 0.184545,-2.0698 -0.867839,-2.87668 -7.323637,-5.61509 C 55.26579,78.8841 52.311666,77.0428 50.35398,74.686 l -0.893415,-1.07555 -2.005237,0.80293 c -1.10288,0.44162 -4.011848,1.28085 -6.464373,1.86496 -9.902254,2.35839 -14.508313,3.36634 -14.662488,3.20861 -0.329472,-0.33707 -10.309625,-44.76046 -10.098059,-44.94821 0.224408,-0.19914 15.603001,-3.72052 18.434215,-4.22105 3.578206,-0.63259 7.651377,-0.1638 10.323469,1.18815 1.656329,0.83803 3.764861,2.92904 4.595591,4.55741 2.00307,3.92634 1.710326,8.77638 -0.740949,12.27569 l -1.04353,1.48968 1.368617,0.28446 c 1.880691,0.39088 3.890289,1.59971 5.213845,3.13626 l 1.110315,1.289 1.785069,-0.62079 c 3.760974,-1.30794 8.775639,-1.44839 13.093446,-0.36671 2.312766,0.57938 6.356314,2.50935 7.743924,3.69615 l 0.88994,0.76115 -2.31165,4.44679 c -1.2714,2.44573 -2.362991,4.53658 -2.42575,4.64634 -0.06276,0.10976 -0.620075,-0.14856 -1.238481,-0.57403 -1.608047,-1.10637 -4.029176,-2.28516 -5.694823,-2.77267 -1.796238,-0.52574 -4.682104,-0.54207 -5.899564,-0.0334 -2.075525,0.86721 -2.966577,3.19928 -1.792635,4.6917 0.636685,0.80942 3.31124,2.2285 6.538025,3.46899 1.337126,0.51404 3.501912,1.47149 4.810634,2.12767 l 2.379494,1.19305 2.42035,-4.81104 c 1.33119,-2.64607 3.40218,-6.71355 4.6022,-9.03885 1.20002,-2.32529 3.34256,-6.48704 4.76121,-9.24833 1.41865,-2.76129 2.59875,-5.04595 2.62245,-5.07702 0.0543,-0.0712 8.78766,4.34498 9.6145,4.86182 0.41042,0.25654 0.5329,0.48572 0.37157,0.69529 -0.13236,0.17195 -2.11715,3.99875 -4.41065,8.50401 -2.29349,4.50525 -5.35859,10.48909 -6.81133,13.29741 -2.32329,4.49122 -2.65738,5.30589 -2.77457,6.7659 -0.076,0.94647 4.1e-4,2.06482 0.17771,2.60207 1.04906,3.17867 5.00649,5.74367 8.85249,5.73773 1.88739,-0.003 3.85071,-0.96375 4.9438,-2.41946 0.65007,-0.86571 2.77766,-4.93287 10.27499,-19.64194 2.07413,-4.06927 3.87247,-7.51157 3.9963,-7.64956 0.25698,-0.28638 1.04376,0.0683 6.51013,2.93513 l 3.77447,1.97948 -1.95638,3.74562 c -1.07601,2.06009 -3.772,7.31283 -5.99108,11.67276 -6.5255,12.82093 -6.79176,13.27525 -9.1109,15.5454 -6.56265,6.42401 -17.52807,6.09745 -25.98156,-0.77376 l -1.40427,-1.14142 -1.10974,1.36135 c -1.50316,1.84396 -4.331762,3.71828 -6.91085,4.57933 -1.791049,0.59797 -2.669963,0.7207 -5.685751,0.79397 -1.961968,0.0477 -4.207724,-0.0275 -4.990569,-0.16713 z M 38.824881,66.75447 c 1.936097,-0.44431 3.936351,-1.01947 4.445009,-1.27812 1.818763,-0.92484 2.717055,-3.13418 2.144583,-5.27459 -0.615734,-2.30216 -2.072235,-3.47749 -4.298422,-3.46865 -1.12323,0.004 -7.497691,1.36751 -7.797518,1.66733 -0.132626,0.13263 1.763595,9.16187 1.924073,9.16187 0.03415,0 1.646178,-0.36353 3.582275,-0.80784 z m -4.508537,-18.1018 c 1.654504,-0.37247 3.351463,-0.87782 3.771019,-1.12301 1.653451,-0.96629 2.206848,-3.39778 1.215557,-5.34087 -1.098724,-2.15368 -2.460736,-2.44437 -6.778593,-1.44673 -1.719815,0.39736 -3.158776,0.75032 -3.197692,0.78435 -0.06885,0.0602 1.428845,6.81369 1.657299,7.47317 0.142709,0.41197 -0.194468,0.44707 3.33241,-0.34691 z"
       id="path1" />
  </g>
</svg>
