<?xml version="1.0" encoding="UTF-8" standalone="no"?>
<!-- Generator: Adobe Illustrator 25.2.3, SVG Export Plug-In . SVG Version: 6.00 Build 0) -->

<svg
   version="1.1"
   id="Calque_1"
   x="0px"
   y="0px"
   viewBox="0 0 470.61199 136.60299"
   xml:space="preserve"
   sodipodi:docname="capsule.svg"
   width="470.612"
   height="136.603"
   inkscape:version="1.3.2 (091e20e, 2023-11-25, custom)"
   xmlns:inkscape="http://www.inkscape.org/namespaces/inkscape"
   xmlns:sodipodi="http://sodipodi.sourceforge.net/DTD/sodipodi-0.dtd"
   xmlns="http://www.w3.org/2000/svg"
   xmlns:svg="http://www.w3.org/2000/svg"><defs
   id="defs40" /><sodipodi:namedview
   id="namedview40"
   pagecolor="#ffffff"
   bordercolor="#000000"
   borderopacity="0.25"
   inkscape:showpageshadow="2"
   inkscape:pageopacity="0.0"
   inkscape:pagecheckerboard="0"
   inkscape:deskcolor="#d1d1d1"
   inkscape:zoom="2.6595389"
   inkscape:cx="234.25114"
   inkscape:cy="59.596798"
   inkscape:window-width="1920"
   inkscape:window-height="1009"
   inkscape:window-x="-8"
   inkscape:window-y="-8"
   inkscape:window-maximized="1"
   inkscape:current-layer="Calque_1" /> <style
   type="text/css"
   id="style1"> .st0{display:none;} </style> <g
   id="Calque_2_1_"
   class="st0"> </g> <g
   id="Calque_1_1_"
   transform="translate(0.01205488)"> <g
   id="g8"> <g
   id="g7"> 
<path
   class="st1"
   fill="#112970"
   d="m 38.9,42.7 h 4.5 v -10 c 0,-1.3 -1.1,-2.3 -2.3,-2.3 -1.3,0 -2.3,1.1 -2.3,2.3 z"
   id="path1" /> 
<path
   class="st1"
   fill="#112970"
   d="m 29.3,42.7 h 4.5 v -10 c 0,-1.3 -1.1,-2.3 -2.3,-2.3 -1.3,0 -2.3,1.1 -2.3,2.3 z"
   id="path2" /> 
<path
   class="st1"
   fill="#112970"
   d="M 48.5,42.7 H 53 v -10 c 0,-1.3 -1.1,-2.3 -2.3,-2.3 -1.3,0 -2.3,1.1 -2.3,2.3 z"
   id="path3" /> 
<path
   class="st1"
   fill="#112970"
   d="m 42.3,5.8 c 3.1,0.6 4.1,3.2 4.1,5.1 v 3.9 h 2.8 V 17 c 7.3,3.5 12.4,11.1 12.4,18.9 0,0.1 0,0.1 0,0.2 v 6.7 H 78.5 V 36 C 78.2,13.8 62.5,0.3 41.7,0 Z"
   id="path4" /> 
<path
   class="st1"
   fill="#112970"
   d="m 39.1,10.8 v 4 h 4.1 v -4 c 0,-1.2 -1,-2 -2,-2 -1.2,-0.1 -2.1,0.8 -2.1,2"
   id="path5" /> 
<path
   class="st1"
   fill="#112970"
   d="M 44.3,53.5 C 26.9,49.1 20.4,45.3 20.4,34.2 c 0,-7.9 5.3,-14.7 12.7,-17.6 v -1.8 h 2.8 V 10.9 C 35.9,9 37.1,6.3 40.2,5.8 L 40.8,0 C 19.9,0.2 2,14.7 2.8,34.3 c 1,21.9 25,28 37.9,30.7 10.2,2.1 34.7,7.9 40.8,25.2 0,0 2.3,-28.5 -37.2,-36.7"
   id="path6" /> 
<path
   class="st1"
   fill="#112970"
   d="m 38.5,83.9 c 17.5,5.4 22.1,11.9 22.1,21.1 0,14.1 -10.9,19.9 -24.6,19.9 -13.1,0 -24.4,-6.1 -31.9,-14.1 l -2.8,5.8 c 5.5,10.4 21,20 38.4,20 v 0 0 0 C 61.9,136.8 80.8,126.4 80.8,105.5 80.8,83 56.3,74.3 42.7,71.3 31.9,68.8 5,61.8 0.2,46.6 c 0,0 -5.4,26.2 38.3,37.3"
   id="path7" /> </g> </g> <g
   id="g14"> 
<path
   class="st1"
   fill="#112970"
   d="m 133.1,18.6 c 15.3,0 23.2,8.8 23.2,8.8 l -7,11.5 c 0,0 -6.9,-6.4 -15.5,-6.4 -11.9,0 -17.5,8.8 -17.5,17.7 0,9.2 6.1,18.6 17.5,18.6 9.3,0 16.5,-7.6 16.5,-7.6 l 7.8,11.1 c 0,0 -8.8,10.4 -25,10.4 -19.5,0 -32.5,-13.8 -32.5,-32.2 0,-18 13.9,-31.9 32.5,-31.9 z"
   id="path8" /> 
<path
   class="st1"
   fill="#112970"
   d="m 198.1,68.6 h -19.4 l -3.8,13 h -15.6 l 21.1,-62 h 16 l 21.1,62 h -15.6 z m -9.7,-34.8 c 0,0 -1.3,6.7 -2.5,10.7 l -3.6,12 h 12.1 l -3.5,-12 c -1,-3.8 -2.4,-10.7 -2.5,-10.7 0.1,0 0,0 0,0 z"
   id="path9" /> 
<path
   class="st1"
   fill="#112970"
   d="m 221.8,19.7 h 25.7 c 12,0 20.2,8.9 20.2,21.3 0,12.5 -8.2,21.5 -20.2,21.5 h -10.6 v 19.2 h -15.1 z m 22.6,29.8 c 5.3,0 7.9,-3.6 7.9,-8.5 0,-4.9 -2.6,-8.3 -7.6,-8.3 H 237 v 16.9 z"
   id="path10" /> 
<path
   class="st1"
   fill="#112970"
   d="m 279.5,62.4 c 0,0 7,6.5 14.8,6.5 3.1,0 6.6,-1.3 6.6,-4.9 0,-7.3 -28,-7.1 -28,-26.2 0,-11.5 9.6,-19 22,-19 13.4,0 20,7 20,7 l -6.5,12.4 c 0,0 -6.3,-5.5 -13.7,-5.5 -3.1,0 -6.6,1.3 -6.6,4.8 0,7.8 28,6.5 28,26 0,10.3 -7.9,19.3 -21.9,19.3 -14.6,0 -22.6,-8.9 -22.6,-8.9 z"
   id="path11" /> 
<path
   class="st1"
   fill="#112970"
   d="m 323.4,19.7 h 15.1 v 39.2 c 0,6.6 4.2,9.9 10.8,9.9 6.6,0 10.8,-3.5 10.8,-9.9 V 19.7 h 15.1 v 39.2 c 0,14 -10.2,23.8 -25.8,23.8 -15.8,0 -26,-9.9 -26,-23.8 z"
   id="path12" /> 
<path
   class="st1"
   fill="#112970"
   d="M 383.9,19.7 H 399 v 49 h 25.3 v 13 h -40.5 v -62 z"
   id="path13" /> 
<path
   class="st1"
   fill="#112970"
   d="m 430.6,19.7 h 38.8 v 13 H 445.7 V 44 h 18.9 v 13 h -18.9 v 11.8 h 24.9 v 13 h -40.1 z"
   id="path14" /> </g> <g
   id="g40"> 
<path
   class="st1"
   fill="#56b7e6"
   d="m 105.3,112.5 c 0,0 1.4,1.4 3.4,1.4 1.1,0 2,-0.6 2,-1.6 0,-2.4 -6.5,-2 -6.5,-6.3 0,-2.3 1.9,-4 4.6,-4 2.7,0 4,1.4 4,1.4 l -1.1,2 c 0,0 -1.3,-1.2 -3,-1.2 -1.2,0 -2,0.7 -2,1.6 0,2.4 6.5,1.8 6.5,6.2 0,2.2 -1.6,4 -4.5,4 -3.1,0 -4.7,-1.8 -4.7,-1.8 z"
   id="path15" /> 
<path
   class="st1"
   fill="#56b7e6"
   d="m 121.7,102.1 c 3.4,0 5,1.8 5,1.8 l -1.2,1.8 c 0,0 -1.5,-1.4 -3.8,-1.4 -2.9,0 -4.6,2.1 -4.6,4.7 0,2.6 1.7,4.9 4.6,4.9 2.4,0 4,-1.7 4,-1.7 l 1.3,1.8 c 0,0 -1.9,2.2 -5.4,2.2 -4.1,0 -7,-3.1 -7,-7.1 0,-3.9 3,-7 7.1,-7 z"
   id="path16" /> 
<path
   class="st1"
   fill="#56b7e6"
   d="m 129.4,102.4 h 2.5 V 116 h -2.5 z"
   id="path17" /> 
<path
   class="st1"
   fill="#56b7e6"
   d="m 135.2,102.4 h 8.2 v 2.1 h -5.7 v 3.6 h 4.6 v 2.1 h -4.6 v 3.7 h 6 v 2.1 h -8.5 z"
   id="path18" /> 
<path
   class="st1"
   fill="#56b7e6"
   d="m 146.3,102.4 h 2.5 l 5.2,7.9 c 0.5,0.8 1.2,2.1 1.2,2.1 v 0 c 0,0 -0.1,-1.3 -0.1,-2.1 v -7.9 h 2.5 V 116 h -2.5 l -5.2,-7.9 c -0.5,-0.8 -1.2,-2.1 -1.2,-2.1 v 0 c 0,0 0.1,1.3 0.1,2.1 v 7.9 h -2.5 z"
   id="path19" /> 
<path
   class="st1"
   fill="#56b7e6"
   d="m 167,102.1 c 3.4,0 5,1.8 5,1.8 l -1.2,1.8 c 0,0 -1.5,-1.4 -3.8,-1.4 -2.9,0 -4.6,2.1 -4.6,4.7 0,2.6 1.7,4.9 4.6,4.9 2.4,0 4,-1.7 4,-1.7 l 1.3,1.8 c 0,0 -1.9,2.2 -5.4,2.2 -4.1,0 -7,-3.1 -7,-7.1 0.1,-3.9 3.1,-7 7.1,-7 z"
   id="path20" /> 
<path
   class="st1"
   fill="#56b7e6"
   d="m 174.8,102.4 h 8.2 v 2.1 h -5.7 v 3.6 h 4.6 v 2.1 h -4.6 v 3.7 h 6 v 2.1 h -8.5 z"
   id="path21" /> 
<path
   class="st1"
   fill="#56b7e6"
   d="m 186.1,112.5 c 0,0 1.4,1.4 3.4,1.4 1.1,0 2,-0.6 2,-1.6 0,-2.4 -6.5,-2 -6.5,-6.3 0,-2.3 1.9,-4 4.6,-4 2.7,0 4,1.4 4,1.4 l -1.1,2 c 0,0 -1.3,-1.2 -3,-1.2 -1.2,0 -2,0.7 -2,1.6 0,2.4 6.5,1.8 6.5,6.2 0,2.2 -1.6,4 -4.5,4 -3.1,0 -4.7,-1.8 -4.7,-1.8 z"
   id="path22" /> 
<path
   class="st1"
   fill="#56b7e6"
   d="m 201.5,112.5 c 0,0 1.4,1.4 3.4,1.4 1.1,0 2,-0.6 2,-1.6 0,-2.4 -6.5,-2 -6.5,-6.3 0,-2.3 1.9,-4 4.6,-4 2.7,0 4,1.4 4,1.4 l -1.1,2 c 0,0 -1.3,-1.2 -3,-1.2 -1.2,0 -2,0.7 -2,1.6 0,2.4 6.5,1.8 6.5,6.2 0,2.2 -1.6,4 -4.5,4 -3.1,0 -4.7,-1.8 -4.7,-1.8 z"
   id="path23" /> 
<path
   class="st1"
   fill="#56b7e6"
   d="m 217.9,102.1 c 4,0 7,3.1 7,6.9 0,4 -3.1,7.1 -7,7.1 -4,0 -7,-3.2 -7,-7.1 -0.1,-3.8 3,-6.9 7,-6.9 z m 0,11.8 c 2.5,0 4.5,-2.1 4.5,-4.9 0,-2.7 -2,-4.7 -4.5,-4.7 -2.5,0 -4.5,2 -4.5,4.7 0,2.9 2,4.9 4.5,4.9 z"
   id="path24"> </path> 
<path
   class="st1"
   fill="#56b7e6"
   d="m 227.5,102.4 h 4.4 c 1.4,0 2.1,0.1 2.8,0.4 1.3,0.6 2.2,1.9 2.2,3.8 0,1.6 -0.9,3.2 -2.3,3.8 v 0 c 0,0 0.2,0.2 0.5,0.7 l 2.8,5.1 h -2.8 l -2.7,-5.1 H 230 v 5.1 h -2.5 z m 4.7,6.3 c 1.3,0 2.1,-0.8 2.1,-2.1 0,-1.3 -0.6,-2.1 -2.5,-2.1 h -1.9 v 4.2 c 0,0 2.3,0 2.3,0 z"
   id="path25" /> 
<path
   class="st1"
   fill="#56b7e6"
   d="m 240.1,102.4 h 4.9 c 2.5,0 4.2,1.3 4.2,3.6 0,1.3 -0.6,2.4 -1.6,2.9 v 0 c 1.5,0.5 2.2,1.8 2.2,3.2 0,2.7 -2.2,4 -4.7,4 h -4.9 z m 4.9,5.5 c 1.1,0 1.7,-0.8 1.7,-1.7 0,-1 -0.6,-1.7 -1.7,-1.7 h -2.4 v 3.5 c 0,-0.1 2.4,-0.1 2.4,-0.1 z m 0.3,5.9 c 1.3,0 2,-0.9 2,-2 0,-1.2 -0.8,-1.9 -2,-1.9 h -2.7 v 4 h 2.7 z"
   id="path26" /> 
<path
   class="st1"
   fill="#56b7e6"
   d="m 258.6,102.1 c 4,0 7,3.1 7,6.9 0,4 -3.1,7.1 -7,7.1 -4,0 -7,-3.2 -7,-7.1 0,-3.8 3,-6.9 7,-6.9 z m 0,11.8 c 2.5,0 4.5,-2.1 4.5,-4.9 0,-2.7 -2,-4.7 -4.5,-4.7 -2.5,0 -4.5,2 -4.5,4.7 0,2.9 2,4.9 4.5,4.9 z"
   id="path27" /> 
<path
   class="st1"
   fill="#56b7e6"
   d="m 268.2,102.4 h 2.5 l 5.2,7.9 c 0.5,0.8 1.2,2.1 1.2,2.1 v 0 c 0,0 -0.1,-1.3 -0.1,-2.1 v -7.9 h 2.5 V 116 H 277 l -5.2,-7.9 c -0.5,-0.8 -1.2,-2.1 -1.2,-2.1 v 0 c 0,0 0.1,1.3 0.1,2.1 v 7.9 h -2.5 z"
   id="path28" /> 
<path
   class="st1"
   fill="#56b7e6"
   d="m 282.8,102.4 h 2.5 l 5.2,7.9 c 0.5,0.8 1.2,2.1 1.2,2.1 v 0 c 0,0 -0.1,-1.3 -0.1,-2.1 v -7.9 h 2.5 V 116 h -2.5 l -5.2,-7.9 c -0.5,-0.8 -1.2,-2.1 -1.2,-2.1 v 0 c 0,0 0.1,1.3 0.1,2.1 v 7.9 h -2.5 z"
   id="path29" /> 
<path
   class="st1"
   fill="#56b7e6"
   d="m 297.5,102.4 h 8.2 v 2.1 H 300 v 3.6 h 4.6 v 2.1 H 300 v 3.7 h 6 v 2.1 h -8.5 z"
   id="path30" /> 
<path
   class="st1"
   fill="#56b7e6"
   d="m 313,102.4 h 2.5 v 8.8 c 0,1.8 1.2,2.9 3,2.9 1.8,0 3.1,-1.1 3.1,-2.9 v -8.8 h 2.5 v 8.8 c 0,3.1 -2.2,5.1 -5.5,5.1 -3.3,0 -5.5,-2.1 -5.5,-5.1 z"
   id="path31" /> 
<path
   class="st1"
   fill="#56b7e6"
   d="m 327.2,102.4 h 2.5 l 5.2,7.9 c 0.5,0.8 1.2,2.1 1.2,2.1 v 0 c 0,0 -0.1,-1.3 -0.1,-2.1 v -7.9 h 2.5 V 116 H 336 l -5.2,-7.9 c -0.5,-0.8 -1.2,-2.1 -1.2,-2.1 v 0 c 0,0 0.1,1.3 0.1,2.1 v 7.9 h -2.5 z"
   id="path32" /> 
<path
   class="st1"
   fill="#56b7e6"
   d="m 341.9,102.4 h 2.5 V 116 h -2.5 z"
   id="path33" /> 
<path
   class="st1"
   fill="#56b7e6"
   d="m 346,102.4 h 2.7 l 3,9 c 0.3,0.8 0.5,2 0.5,2 v 0 c 0,0 0.3,-1.3 0.5,-2 l 3,-9 h 2.7 l -5,13.7 h -2.5 z"
   id="path34" /> 
<path
   class="st1"
   fill="#56b7e6"
   d="m 360.2,102.4 h 8.2 v 2.1 h -5.7 v 3.6 h 4.6 v 2.1 h -4.6 v 3.7 h 6 v 2.1 h -8.5 z"
   id="path35" /> 
<path
   class="st1"
   fill="#56b7e6"
   d="m 371.3,102.4 h 4.4 c 1.4,0 2.1,0.1 2.8,0.4 1.3,0.6 2.2,1.9 2.2,3.8 0,1.6 -0.9,3.2 -2.3,3.8 v 0 c 0,0 0.2,0.2 0.5,0.7 l 2.8,5.1 h -2.8 l -2.7,-5.1 h -2.4 v 5.1 h -2.5 z m 4.7,6.3 c 1.3,0 2.1,-0.8 2.1,-2.1 0,-1.3 -0.6,-2.1 -2.5,-2.1 h -1.9 v 4.2 c 0,0 2.3,0 2.3,0 z"
   id="path36" /> 
<path
   class="st1"
   fill="#56b7e6"
   d="m 384.2,112.5 c 0,0 1.4,1.4 3.4,1.4 1.1,0 2,-0.6 2,-1.6 0,-2.4 -6.5,-2 -6.5,-6.3 0,-2.3 1.9,-4 4.6,-4 2.7,0 4,1.4 4,1.4 l -1.1,2 c 0,0 -1.3,-1.2 -3,-1.2 -1.2,0 -2,0.7 -2,1.6 0,2.4 6.5,1.8 6.5,6.2 0,2.2 -1.6,4 -4.5,4 -3.1,0 -4.7,-1.8 -4.7,-1.8 z"
   id="path37" /> 
<path
   class="st1"
   fill="#56b7e6"
   d="m 394.6,102.4 h 2.5 V 116 h -2.5 z"
   id="path38" /> 
<path
   class="st1"
   fill="#56b7e6"
   d="m 403.4,104.5 h -4.5 v -2.1 h 11.5 v 2.1 h -4.5 V 116 h -2.5 z"
   id="path39" /> 
<path
   class="st1"
   fill="#56b7e6"
   d="m 412,102.4 h 8.2 v 2.1 h -5.7 v 3.6 h 4.6 v 2.1 h -4.6 v 3.7 h 6 V 116 H 412 Z m 4.8,-3.6 h 2.5 l -2,2.6 h -1.9 z"
   id="path40" /> </g> </g> </svg>
