<?xml version="1.0" encoding="UTF-8" standalone="no"?>
<svg
   xmlns:dc="http://purl.org/dc/elements/1.1/"
   xmlns:cc="http://creativecommons.org/ns#"
   xmlns:rdf="http://www.w3.org/1999/02/22-rdf-syntax-ns#"
   xmlns:svg="http://www.w3.org/2000/svg"
   xmlns="http://www.w3.org/2000/svg"
   xmlns:sodipodi="http://sodipodi.sourceforge.net/DTD/sodipodi-0.dtd"
   xmlns:inkscape="http://www.inkscape.org/namespaces/inkscape"
   inkscape:version="1.0beta1 (76ce730, 2019-10-19)"
   sodipodi:docname="Logo Celsa 2018.svg"
   viewBox="0 0 465.50732 700.00001"
   height="700"
   width="465.50732"
   xml:space="preserve"
   id="svg10"
   version="1.1"><metadata
     id="metadata16"><rdf:RDF><cc:Work
         rdf:about=""><dc:format>image/svg+xml</dc:format><dc:type
           rdf:resource="http://purl.org/dc/dcmitype/StillImage" /><dc:title></dc:title></cc:Work></rdf:RDF></metadata><defs
     id="defs14" /><sodipodi:namedview
     inkscape:current-layer="g18"
     inkscape:window-maximized="0"
     inkscape:window-y="23"
     inkscape:window-x="0"
     inkscape:cy="95.588198"
     inkscape:cx="97.903708"
     inkscape:zoom="0.35"
     showgrid="false"
     id="namedview12"
     inkscape:window-height="784"
     inkscape:window-width="1440"
     inkscape:pageshadow="2"
     inkscape:pageopacity="0"
     guidetolerance="10"
     gridtolerance="10"
     objecttolerance="10"
     borderopacity="1"
     inkscape:document-rotation="0"
     bordercolor="#666666"
     pagecolor="#ffffff" /><g
     transform="matrix(1.3333333,0,0,-1.3333333,-110.67239,244.74633)"
     inkscape:label="Logo Celsa"
     inkscape:groupmode="layer"
     id="g18"><g
       transform="matrix(3.4129773,0,0,3.4129773,-200.28745,-442.92549)"
       id="g506"><g
         id="g467"
         transform="translate(1.3693351)"><path
           d="m 82.3624,31.2249 c 0,0 0.612,-0.575 1.407,-0.575 0.43,0 0.82,0.216 0.82,0.658 0,0.97 -2.665,0.803 -2.665,2.466 0,0.903 0.812,1.574 1.893,1.574 1.113,0 1.686,-0.581 1.686,-0.581 l -0.445,-0.801 c 0,0 -0.541,0.473 -1.249,0.473 -0.477,0 -0.851,-0.268 -0.851,-0.648 0,-0.963 2.656,-0.727 2.656,-2.46 0,-0.863 -0.684,-1.589 -1.86,-1.589 -1.257,0 -1.949,0.741 -1.949,0.741 z"
           style="opacity:1;fill:#1a2a68;fill-opacity:1;fill-rule:nonzero;stroke:none;stop-opacity:1"
           id="path46"
           inkscape:connector-curvature="0" /><path
           d="m 89.9562,35.348 c 1.663,0 2.92,-1.215 2.92,-2.765 0,-1.596 -1.257,-2.841 -2.92,-2.841 -1.662,0 -2.918,1.245 -2.918,2.841 0,1.55 1.256,2.765 2.918,2.765 m 0,-4.704 c 1.035,0 1.861,0.825 1.861,1.939 0,1.07 -0.826,1.864 -1.861,1.864 -1.034,0 -1.86,-0.794 -1.86,-1.864 0,-1.114 0.826,-1.939 1.86,-1.939"
           style="opacity:1;fill:#1a2a68;fill-opacity:1;fill-rule:nonzero;stroke:none;stop-opacity:1"
           id="path50"
           inkscape:connector-curvature="0" /><path
           d="m 94.525,35.2552 h 1.82 c 0.613,0 0.891,-0.046 1.138,-0.152 0.565,-0.244 0.923,-0.763 0.923,-1.482 0,-0.649 -0.358,-1.252 -0.955,-1.481 v -0.015 c 0,0 0.079,-0.077 0.191,-0.267 l 1.161,-2.023 h -1.145 l -1.121,2.023 H 95.55 v -2.023 h -1.025 z m 1.948,-2.543 c 0.549,0 0.891,0.314 0.891,0.857 0,0.518 -0.231,0.84 -1.034,0.84 h -0.78 v -1.697 z"
           style="opacity:1;fill:#1a2a68;fill-opacity:1;fill-rule:nonzero;stroke:none;stop-opacity:1"
           id="path54"
           inkscape:connector-curvature="0" /><path
           d="m 100.2599,35.2552 h 2.021 c 1.017,0 1.741,-0.503 1.741,-1.397 0,-0.504 -0.255,-0.939 -0.684,-1.161 v -0.014 c 0.62,-0.175 0.915,-0.727 0.915,-1.277 0,-1.084 -0.907,-1.571 -1.949,-1.571 h -2.044 z m 2.021,-2.215 c 0.445,0 0.7,0.308 0.7,0.696 0,0.389 -0.239,0.673 -0.717,0.673 h -0.978 v -1.369 z m 0.103,-2.358 c 0.524,0 0.819,0.328 0.819,0.787 0,0.449 -0.302,0.777 -0.819,0.777 h -1.098 v -1.564 z"
           style="opacity:1;fill:#1a2a68;fill-opacity:1;fill-rule:nonzero;stroke:none;stop-opacity:1"
           id="path58"
           inkscape:connector-curvature="0" /><path
           d="m 108.5011,35.348 c 1.663,0 2.919,-1.215 2.919,-2.765 0,-1.596 -1.256,-2.841 -2.919,-2.841 -1.662,0 -2.918,1.245 -2.918,2.841 0,1.55 1.256,2.765 2.918,2.765 m 0,-4.704 c 1.034,0 1.862,0.825 1.862,1.939 0,1.07 -0.828,1.864 -1.862,1.864 -1.033,0 -1.86,-0.794 -1.86,-1.864 0,-1.114 0.827,-1.939 1.86,-1.939"
           style="opacity:1;fill:#1a2a68;fill-opacity:1;fill-rule:nonzero;stroke:none;stop-opacity:1"
           id="path62"
           inkscape:connector-curvature="0" /><path
           d="m 113.173,35.2552 h 1.026 l 2.139,-3.13 c 0.215,-0.313 0.469,-0.84 0.469,-0.84 h 0.017 c 0,0 -0.056,0.519 -0.056,0.84 v 3.13 h 1.018 v -5.42 h -1.018 l -2.139,3.122 c -0.215,0.314 -0.47,0.84 -0.47,0.84 h -0.016 c 0,0 0.056,-0.519 0.056,-0.84 v -3.122 h -1.026 z"
           style="opacity:1;fill:#1a2a68;fill-opacity:1;fill-rule:nonzero;stroke:none;stop-opacity:1"
           id="path66"
           inkscape:connector-curvature="0" /><path
           d="m 119.8244,35.2552 h 1.025 l 2.14,-3.13 c 0.216,-0.313 0.469,-0.84 0.469,-0.84 h 0.016 c 0,0 -0.056,0.519 -0.056,0.84 v 3.13 h 1.019 v -5.42 h -1.019 l -2.138,3.122 c -0.215,0.314 -0.47,0.84 -0.47,0.84 h -0.016 c 0,0 0.055,-0.519 0.055,-0.84 v -3.122 h -1.025 z"
           style="opacity:1;fill:#1a2a68;fill-opacity:1;fill-rule:nonzero;stroke:none;stop-opacity:1"
           id="path70"
           inkscape:connector-curvature="0" /><path
           d="m 126.4855,35.2552 v -5.42 h 3.507 v 0.847 h -2.481 v 1.458 h 1.9 v 0.848 h -1.9 v 1.421 h 2.353 v 0.846 z"
           style="opacity:1;fill:#1a2a68;fill-opacity:1;fill-rule:nonzero;stroke:none;stop-opacity:1"
           id="path74"
           inkscape:connector-curvature="0" /><path
           d="m 135.6691,35.3079 h 1.035 v -3.507 c 0,-0.733 0.499,-1.148 1.262,-1.148 0.763,0 1.266,0.415 1.266,1.157 v 3.498 h 1.037 v -3.507 c 0,-1.226 -0.922,-2.057 -2.297,-2.057 -1.379,0 -2.303,0.831 -2.303,2.057 z"
           style="opacity:1;fill:#1a2a68;fill-opacity:1;fill-rule:nonzero;stroke:none;stop-opacity:1"
           id="path78"
           inkscape:connector-curvature="0" /><path
           d="m 141.9757,35.2493 h 1.026 l 2.14,-3.132 c 0.215,-0.313 0.47,-0.841 0.47,-0.841 h 0.014 c 0,0 -0.053,0.519 -0.053,0.841 v 3.132 h 1.017 v -5.423 h -1.017 l -2.14,3.124 c -0.216,0.312 -0.471,0.841 -0.471,0.841 h -0.016 c 0,0 0.056,-0.521 0.056,-0.841 v -3.124 h -1.026 z"
           style="opacity:1;fill:#1a2a68;fill-opacity:1;fill-rule:nonzero;stroke:none;stop-opacity:1"
           id="path82"
           inkscape:connector-curvature="0" /><path
           inkscape:connector-curvature="0"
           id="path84"
           style="opacity:1;fill:#1a2a68;fill-opacity:1;fill-rule:nonzero;stroke:none;stop-opacity:1"
           d="m 148.418,35.247 h 1.028 v -5.423 h -1.028 z" /><path
           d="m 150.5519,35.2493 h 1.105 l 1.24,-3.538 c 0.112,-0.313 0.206,-0.794 0.206,-0.794 h 0.025 c 0,0 0.103,0.481 0.215,0.794 l 1.248,3.538 h 1.097 l -2.061,-5.423 h -1.014 z"
           style="opacity:1;fill:#1a2a68;fill-opacity:1;fill-rule:nonzero;stroke:none;stop-opacity:1"
           id="path88"
           inkscape:connector-curvature="0" /><path
           d="m 156.7951,35.2493 h 3.381 v -0.849 h -2.355 v -1.421 h 1.9 v -0.847 h -1.9 v -1.459 h 2.481 v -0.847 h -3.507 z"
           style="opacity:1;fill:#1a2a68;fill-opacity:1;fill-rule:nonzero;stroke:none;stop-opacity:1"
           id="path92"
           inkscape:connector-curvature="0" /><path
           d="m 161.7667,35.2493 h 1.822 c 0.613,0 0.89,-0.046 1.137,-0.154 0.563,-0.245 0.923,-0.763 0.923,-1.482 0,-0.648 -0.36,-1.252 -0.954,-1.481 v -0.015 c 0,0 0.079,-0.078 0.189,-0.267 l 1.162,-2.024 h -1.145 l -1.122,2.024 h -0.987 v -2.024 h -1.025 z m 1.947,-2.545 c 0.55,0 0.893,0.314 0.893,0.857 0,0.518 -0.233,0.839 -1.034,0.839 h -0.781 v -1.696 z"
           style="opacity:1;fill:#1a2a68;fill-opacity:1;fill-rule:nonzero;stroke:none;stop-opacity:1"
           id="path96"
           inkscape:connector-curvature="0" /><path
           d="m 167.5255,31.2161 c 0,0 0.612,-0.572 1.408,-0.572 0.429,0 0.82,0.213 0.82,0.656 0,0.97 -2.665,0.803 -2.665,2.466 0,0.902 0.811,1.573 1.893,1.573 1.114,0 1.687,-0.579 1.687,-0.579 l -0.448,-0.802 c 0,0 -0.541,0.472 -1.247,0.472 -0.478,0 -0.852,-0.265 -0.852,-0.648 0,-0.962 2.658,-0.725 2.658,-2.46 0,-0.862 -0.684,-1.587 -1.862,-1.587 -1.256,0 -1.948,0.74 -1.948,0.74 z"
           style="opacity:1;fill:#1a2a68;fill-opacity:1;fill-rule:nonzero;stroke:none;stop-opacity:1"
           id="path100"
           inkscape:connector-curvature="0" /><path
           inkscape:connector-curvature="0"
           id="path102"
           style="opacity:1;fill:#1a2a68;fill-opacity:1;fill-rule:nonzero;stroke:none;stop-opacity:1"
           d="m 172.202,35.247 h 1.025 v -5.423 h -1.025 z" /><path
           d="m 176.2287,34.4007 h -1.855 v 0.847 h 4.732 v -0.847 h -1.854 v -4.576 h -1.023 z"
           style="opacity:1;fill:#1a2a68;fill-opacity:1;fill-rule:nonzero;stroke:none;stop-opacity:1"
           id="path106"
           inkscape:connector-curvature="0" /><path
           d="m 182.1925,36.6448 -0.604,-1.038 h 0.811 l 0.836,1.038 z m -1.939,-1.397 v -5.421 h 3.506 v 0.846 h -2.48 v 1.459 h 1.899 v 0.848 h -1.899 v 1.421 h 2.352 v 0.847 z"
           style="opacity:1;fill:#1a2a68;fill-opacity:1;fill-rule:nonzero;stroke:none;stop-opacity:1"
           id="path110"
           inkscape:connector-curvature="0" /></g><g
         id="g440"
         transform="matrix(2.6601047,0,0,2.6601047,-25.60451,-6.4597806)"><path
           d="m 59.4845,58.1229 h 1.424 v 3.123 c 0,0.393 -0.319,0.711 -0.712,0.711 -0.393,0 -0.712,-0.318 -0.712,-0.711 z"
           style="opacity:1;fill:#1a2a68;fill-opacity:1;fill-rule:nonzero;stroke:none;stop-opacity:1"
           id="path114"
           inkscape:connector-curvature="0" /><path
           d="m 56.487,58.1229 h 1.423 v 3.123 c 0,0.393 -0.319,0.711 -0.712,0.711 -0.392,0 -0.711,-0.318 -0.711,-0.711 z"
           style="opacity:1;fill:#1a2a68;fill-opacity:1;fill-rule:nonzero;stroke:none;stop-opacity:1"
           id="path118"
           inkscape:connector-curvature="0" /><path
           d="m 62.483,58.1229 h 1.423 v 3.123 c 0,0.393 -0.319,0.711 -0.712,0.711 -0.393,0 -0.711,-0.318 -0.711,-0.711 z"
           style="opacity:1;fill:#1a2a68;fill-opacity:1;fill-rule:nonzero;stroke:none;stop-opacity:1"
           id="path122"
           inkscape:connector-curvature="0" /><path
           d="m 60.5519,69.619 c 0.948,-0.167 1.304,-1 1.304,-1.582 v -1.211 h 0.868 v -0.687 c 2.27,-1.068 3.88,-3.447 3.88,-5.885 v -0.047 -2.09 h 5.25 v 2.137 c -0.112,6.887 -5.015,11.094 -11.489,11.179 z"
           style="opacity:1;fill:#1a2a68;fill-opacity:1;fill-rule:nonzero;stroke:none;stop-opacity:1"
           id="path126"
           inkscape:connector-curvature="0" /><path
           d="m 60.5519,69.619 c 0.948,-0.167 1.304,-1 1.304,-1.582 v -1.211 h 0.868 v -0.687 c 2.27,-1.068 3.88,-3.447 3.88,-5.885 v -0.047 -2.09 h 5.25 v 2.137 c -0.112,6.887 -5.015,11.094 -11.489,11.179 z"
           style="opacity:1;fill:#1a2a68;fill-opacity:1;fill-rule:nonzero;stroke:none;stop-opacity:1"
           id="path130"
           inkscape:connector-curvature="0" /><path
           d="m 59.5597,68.0765 v -1.251 h 1.278 v 1.251 c 0,0.353 -0.286,0.639 -0.639,0.639 -0.353,0 -0.639,-0.286 -0.639,-0.639"
           style="opacity:1;fill:#1a2a68;fill-opacity:1;fill-rule:nonzero;stroke:none;stop-opacity:1"
           id="path134"
           inkscape:connector-curvature="0" /><path
           d="m 59.5597,68.0765 v -1.251 h 1.278 v 1.251 c 0,0.353 -0.286,0.639 -0.639,0.639 -0.353,0 -0.639,-0.286 -0.639,-0.639"
           style="opacity:1;fill:#1a2a68;fill-opacity:1;fill-rule:nonzero;stroke:none;stop-opacity:1"
           id="path138"
           inkscape:connector-curvature="0" /><path
           d="m 61.1613,54.7591 c -5.419,1.385 -7.443,2.566 -7.443,6 0,2.465 1.643,4.586 3.95,5.492 v 0.574 h 0.873 v 1.213 c 0,0.588 0.365,1.435 1.342,1.587 l 0.177,1.808 c -6.525,-0.049 -12.077,-4.582 -11.811,-10.674 0.298,-6.819 7.774,-8.73 11.802,-9.586 3.169,-0.673 10.795,-2.458 12.685,-7.829 0,0 0.708,8.889 -11.575,11.415"
           style="opacity:1;fill:#1a2a68;fill-opacity:1;fill-rule:nonzero;stroke:none;stop-opacity:1"
           id="path142"
           inkscape:connector-curvature="0" /><path
           d="m 61.1613,54.7591 c -5.419,1.385 -7.443,2.566 -7.443,6 0,2.465 1.643,4.586 3.95,5.492 v 0.574 h 0.873 v 1.213 c 0,0.588 0.365,1.435 1.342,1.587 l 0.177,1.808 c -6.525,-0.049 -12.077,-4.582 -11.811,-10.674 0.298,-6.819 7.774,-8.73 11.802,-9.586 3.169,-0.673 10.795,-2.458 12.685,-7.829 0,0 0.708,8.889 -11.575,11.415"
           style="opacity:1;fill:#1a2a68;fill-opacity:1;fill-rule:nonzero;stroke:none;stop-opacity:1"
           id="path146"
           inkscape:connector-curvature="0" /><path
           d="m 59.3595,45.2923 c 5.464,-1.666 6.863,-3.692 6.863,-6.57 0,-4.386 -3.398,-6.187 -7.663,-6.187 -4.083,0 -7.595,1.903 -9.929,4.371 -0.012,0.013 -0.87,-1.802 -0.87,-1.802 1.718,-3.247 6.547,-6.203 11.937,-6.203 h 0.007 0.007 c 6.903,-0.058 12.775,3.174 12.775,9.683 0,6.99 -7.617,9.725 -11.843,10.664 -3.326,0.74 -11.718,2.948 -13.21,7.638 0,0 -1.666,-8.129 11.926,-11.594"
           style="opacity:1;fill:#1a2a68;fill-opacity:1;fill-rule:nonzero;stroke:none;stop-opacity:1"
           id="path150"
           inkscape:connector-curvature="0" /><path
           d="m 59.3595,45.2923 c 5.464,-1.666 6.863,-3.692 6.863,-6.57 0,-4.386 -3.398,-6.187 -7.663,-6.187 -4.083,0 -7.595,1.903 -9.929,4.371 -0.012,0.013 -0.87,-1.802 -0.87,-1.802 1.718,-3.247 6.547,-6.203 11.937,-6.203 h 0.007 0.007 c 6.903,-0.058 12.775,3.174 12.775,9.683 0,6.99 -7.617,9.725 -11.843,10.664 -3.326,0.74 -11.718,2.948 -13.21,7.638 0,0 -1.666,-8.129 11.926,-11.594"
           style="opacity:1;fill:#1a2a68;fill-opacity:1;fill-rule:nonzero;stroke:none;stop-opacity:1"
           id="path154"
           inkscape:connector-curvature="0" /></g><g
         id="g447"
         transform="translate(1.5523851)"><path
           d="m 92.5939,40.7113 c -3.189,0 -6.056,1.118 -8.069,3.149 -1.982,1.996 -3.073,4.792 -3.073,7.873 0,6.231 4.79,10.931 11.142,10.931 2.721,0 4.744,-0.816 5.962,-1.502 1.032,-0.581 1.672,-1.163 1.902,-1.391 l -2.261,-3.685 c -0.584,0.477 -2.78,2.111 -5.361,2.111 -3.128,0 -6.283,-1.961 -6.283,-6.343 0,-4.383 3.16,-6.675 6.283,-6.675 2.839,0 5.12,1.991 5.713,2.558 l 2.509,-3.569 c -0.51,-0.54 -3.495,-3.457 -8.464,-3.457"
           style="opacity:1;fill:#f9ae0c;fill-opacity:1;fill-rule:nonzero;stroke:none;stop-opacity:1"
           id="path158"
           inkscape:connector-curvature="0" /><path
           d="m 107.0895,41.0755 v 21.227 h 13.166 v -4.166 h -8.246 v -4.29 h 6.583 v -4.166 h -6.583 v -4.441 h 8.667 v -4.164 z"
           style="opacity:1;fill:#f9ae0c;fill-opacity:1;fill-rule:nonzero;stroke:none;stop-opacity:1"
           id="path162"
           inkscape:connector-curvature="0" /><path
           d="m 127.2609,41.0755 v 21.227 h 4.921 v -17.063 h 8.818 v -4.164 z"
           style="opacity:1;fill:#f9ae0c;fill-opacity:1;fill-rule:nonzero;stroke:none;stop-opacity:1"
           id="path166"
           inkscape:connector-curvature="0" /><path
           d="m 152.7775,40.7113 c -4.418,0 -7.155,2.443 -7.646,2.92 l 2.579,3.726 c 0.576,-0.479 2.764,-2.149 5.128,-2.149 0.574,0 2.446,0.138 2.446,1.906 0,1.105 -1.456,1.709 -3.302,2.476 -2.862,1.188 -6.421,2.667 -6.421,6.643 0,3.727 3.137,6.431 7.458,6.431 3.985,0 6.208,-1.823 6.722,-2.3 l -2.07,-4 c -0.546,0.422 -2.498,1.803 -4.712,1.803 -1.234,0 -2.479,-0.58 -2.479,-1.873 0,-1.177 1.482,-1.758 3.359,-2.496 2.834,-1.115 6.366,-2.504 6.366,-6.565 0,-3.838 -3.055,-6.522 -7.428,-6.522"
           style="opacity:1;fill:#f9ae0c;fill-opacity:1;fill-rule:nonzero;stroke:none;stop-opacity:1"
           id="path170"
           inkscape:connector-curvature="0" /><path
           d="m 173.6769,57.598 c -0.052,-0.248 -0.505,-2.426 -0.873,-3.7 l -1.306,-4.43 h 4.743 l -1.274,4.43 c -0.383,1.326 -0.867,3.678 -0.872,3.7 l -0.031,0.146 h -0.358 z m 5.025,-16.522 -1.328,4.528 h -7.007 l -1.299,-4.528 h -5.044 l 7.215,21.227 h 5.294 l 7.214,-21.227 z"
           style="opacity:1;fill:#f9ae0c;fill-opacity:1;fill-rule:nonzero;stroke:none;stop-opacity:1"
           id="path174"
           inkscape:connector-curvature="0" /></g></g></g></svg>
