<?xml version="1.0" encoding="UTF-8" standalone="no"?>
<svg
   inkscape:version="1.3.2 (091e20e, 2023-11-25, custom)"
   sodipodi:docname="celsa_banniere.svg"
   viewBox="0 0 465.50698 99.900003"
   height="99.900002"
   width="465.50699"
   xml:space="preserve"
   id="svg10"
   version="1.1"
   xmlns:inkscape="http://www.inkscape.org/namespaces/inkscape"
   xmlns:sodipodi="http://sodipodi.sourceforge.net/DTD/sodipodi-0.dtd"
   xmlns="http://www.w3.org/2000/svg"
   xmlns:svg="http://www.w3.org/2000/svg"
   xmlns:rdf="http://www.w3.org/1999/02/22-rdf-syntax-ns#"
   xmlns:cc="http://creativecommons.org/ns#"
   xmlns:dc="http://purl.org/dc/elements/1.1/"><metadata
     id="metadata16"><rdf:RDF><cc:Work
         rdf:about=""><dc:format>image/svg+xml</dc:format><dc:type
           rdf:resource="http://purl.org/dc/dcmitype/StillImage" /></cc:Work></rdf:RDF></metadata><defs
     id="defs14" /><sodipodi:namedview
     inkscape:current-layer="g506"
     inkscape:window-maximized="1"
     inkscape:window-y="-8"
     inkscape:window-x="-8"
     inkscape:cy="23.864854"
     inkscape:cx="249.60869"
     inkscape:zoom="2.8284271"
     showgrid="false"
     id="namedview12"
     inkscape:window-height="1009"
     inkscape:window-width="1920"
     inkscape:pageshadow="2"
     inkscape:pageopacity="0"
     guidetolerance="10"
     gridtolerance="10"
     objecttolerance="10"
     borderopacity="1"
     inkscape:document-rotation="0"
     bordercolor="#666666"
     pagecolor="#ffffff"
     inkscape:showpageshadow="2"
     inkscape:pagecheckerboard="0"
     inkscape:deskcolor="#d1d1d1" /><g
     transform="matrix(1.3333333,0,0,-1.3333333,-110.67239,244.74633)"
     inkscape:label="Logo Celsa"
     inkscape:groupmode="layer"
     id="g18"><g
       transform="matrix(3.4129773,0,0,3.4129773,-200.28745,-442.92549)"
       id="g506"><g
         id="g447"
         transform="translate(1.5523851,120.89544)"><path
           d="m 92.5939,40.7113 c -3.189,0 -6.056,1.118 -8.069,3.149 -1.982,1.996 -3.073,4.792 -3.073,7.873 0,6.231 4.79,10.931 11.142,10.931 2.721,0 4.744,-0.816 5.962,-1.502 1.032,-0.581 1.672,-1.163 1.902,-1.391 l -2.261,-3.685 c -0.584,0.477 -2.78,2.111 -5.361,2.111 -3.128,0 -6.283,-1.961 -6.283,-6.343 0,-4.383 3.16,-6.675 6.283,-6.675 2.839,0 5.12,1.991 5.713,2.558 l 2.509,-3.569 c -0.51,-0.54 -3.495,-3.457 -8.464,-3.457"
           style="opacity:1;fill:#ffffff;fill-opacity:1;fill-rule:nonzero;stroke:none;stop-opacity:1"
           id="path158"
           inkscape:connector-curvature="0" /><path
           d="m 107.0895,41.0755 v 21.227 h 13.166 v -4.166 h -8.246 v -4.29 h 6.583 v -4.166 h -6.583 v -4.441 h 8.667 v -4.164 z"
           style="opacity:1;fill:#ffffff;fill-opacity:1;fill-rule:nonzero;stroke:none;stop-opacity:1"
           id="path162"
           inkscape:connector-curvature="0" /><path
           d="m 127.2609,41.0755 v 21.227 h 4.921 v -17.063 h 8.818 v -4.164 z"
           style="opacity:1;fill:#ffffff;fill-opacity:1;fill-rule:nonzero;stroke:none;stop-opacity:1"
           id="path166"
           inkscape:connector-curvature="0" /><path
           d="m 152.7775,40.7113 c -4.418,0 -7.155,2.443 -7.646,2.92 l 2.579,3.726 c 0.576,-0.479 2.764,-2.149 5.128,-2.149 0.574,0 2.446,0.138 2.446,1.906 0,1.105 -1.456,1.709 -3.302,2.476 -2.862,1.188 -6.421,2.667 -6.421,6.643 0,3.727 3.137,6.431 7.458,6.431 3.985,0 6.208,-1.823 6.722,-2.3 l -2.07,-4 c -0.546,0.422 -2.498,1.803 -4.712,1.803 -1.234,0 -2.479,-0.58 -2.479,-1.873 0,-1.177 1.482,-1.758 3.359,-2.496 2.834,-1.115 6.366,-2.504 6.366,-6.565 0,-3.838 -3.055,-6.522 -7.428,-6.522"
           style="opacity:1;fill:#ffffff;fill-opacity:1;fill-rule:nonzero;stroke:none;stop-opacity:1"
           id="path170"
           inkscape:connector-curvature="0" /><path
           d="m 173.6769,57.598 c -0.052,-0.248 -0.505,-2.426 -0.873,-3.7 l -1.306,-4.43 h 4.743 l -1.274,4.43 c -0.383,1.326 -0.867,3.678 -0.872,3.7 l -0.031,0.146 h -0.358 z m 5.025,-16.522 -1.328,4.528 h -7.007 l -1.299,-4.528 h -5.044 l 7.215,21.227 h 5.294 l 7.214,-21.227 z"
           style="opacity:1;fill:#ffffff;fill-opacity:1;fill-rule:nonzero;stroke:none;stop-opacity:1"
           id="path174"
           inkscape:connector-curvature="0" /></g></g></g></svg>
