<?xml version="1.0" encoding="UTF-8" standalone="no"?>
<!-- Created with Inkscape (http://www.inkscape.org/) -->

<svg
   width="26.431999mm"
   height="123.165mm"
   viewBox="0 0 26.431998 123.165"
   version="1.1"
   id="svg1"
   inkscape:version="1.3.2 (091e20e, 2023-11-25, custom)"
   sodipodi:docname="celsa_white_rotated.svg"
   xmlns:inkscape="http://www.inkscape.org/namespaces/inkscape"
   xmlns:sodipodi="http://sodipodi.sourceforge.net/DTD/sodipodi-0.dtd"
   xmlns="http://www.w3.org/2000/svg"
   xmlns:svg="http://www.w3.org/2000/svg">
  <sodipodi:namedview
     id="namedview1"
     pagecolor="#ffffff"
     bordercolor="#000000"
     borderopacity="0.25"
     inkscape:showpageshadow="2"
     inkscape:pageopacity="0.0"
     inkscape:pagecheckerboard="0"
     inkscape:deskcolor="#d1d1d1"
     inkscape:document-units="mm"
     inkscape:zoom="1.0242632"
     inkscape:cx="61.995783"
     inkscape:cy="172.31899"
     inkscape:window-width="1920"
     inkscape:window-height="1009"
     inkscape:window-x="-8"
     inkscape:window-y="-8"
     inkscape:window-maximized="1"
     inkscape:current-layer="g447"
     showgrid="false" />
  <defs
     id="defs1" />
  <g
     inkscape:label="Calque 1"
     inkscape:groupmode="layer"
     id="layer1">
    <g
       id="g447"
       transform="matrix(1.2040225,0,0,-1.2040225,-98.06992,75.449227)">
      <path
         d="m 103.40489,-28.488701 c 0,-3.189 -1.118,-6.056 -3.149,-8.069 -1.995999,-1.982004 -4.791999,-3.073004 -7.872999,-3.073004 -6.231,0 -10.93099,4.790004 -10.93099,11.142004 0,2.721 0.816,4.744 1.502,5.962 0.581,1.032 1.163,1.672 1.391,1.902 l 3.68499,-2.261 c -0.477,-0.584 -2.111,-2.78 -2.111,-5.361 0,-3.128 1.961,-6.283 6.343,-6.283 4.383,0 6.675,3.16 6.675,6.283 0,2.839 -1.991,5.12 -2.558,5.713 l 3.569,2.509 c 0.539999,-0.51 3.456999,-3.495 3.456999,-8.464"
         style="opacity:1;fill:#ffffff;fill-opacity:1;fill-rule:nonzero;stroke:none;stop-opacity:1"
         id="path158"
         inkscape:connector-curvature="0" />
      <path
         d="M 103.04069,-13.993101 H 81.813701 v 13.1659995 h 4.16599 v -8.246 h 4.29 v 6.583 h 4.166 v -6.583 h 4.441 v 8.667 h 4.163999 z"
         style="opacity:1;fill:#ffffff;fill-opacity:1;fill-rule:nonzero;stroke:none;stop-opacity:1"
         id="path162"
         inkscape:connector-curvature="0" />
      <path
         d="M 103.04069,6.1782985 H 81.813701 v 4.9210005 h 17.06299 v 8.818003 h 4.163999 z"
         style="opacity:1;fill:#ffffff;fill-opacity:1;fill-rule:nonzero;stroke:none;stop-opacity:1"
         id="path166"
         inkscape:connector-curvature="0" />
      <path
         d="m 103.40489,31.694901 c 0,-4.418 -2.443,-7.155 -2.92,-7.646 l -3.725999,2.579 c 0.479,0.576 2.149,2.764 2.149,5.128 0,0.574 -0.138,2.446 -1.906,2.446 -1.105,0 -1.709,-1.456 -2.476,-3.302 -1.188,-2.862 -2.667,-6.421 -6.643,-6.421 -3.72699,0 -6.43099,3.137 -6.43099,7.458 0,3.985 1.823,6.208 2.3,6.722 l 3.99999,-2.07 c -0.422,-0.546 -1.803,-2.498 -1.803,-4.712 0,-1.234 0.58,-2.479 1.873,-2.479 1.177,0 1.758,1.482 2.496,3.359 1.115,2.834 2.504,6.366 6.565,6.366 3.837999,0 6.521999,-3.055 6.521999,-7.428"
         style="opacity:1;fill:#ffffff;fill-opacity:1;fill-rule:nonzero;stroke:none;stop-opacity:1"
         id="path170"
         inkscape:connector-curvature="0" />
      <path
         d="m 86.518191,52.594301 c 0.248,-0.052 2.426,-0.505 3.7,-0.873 l 4.43,-1.306 v 4.743 l -4.43,-1.274 c -1.326,-0.383 -3.678,-0.867 -3.7,-0.872 l -0.146,-0.031 v -0.358 z m 16.521999,5.025 -4.527999,-1.328 v -7.007 l 4.527999,-1.299 v -5.044 l -21.226989,7.215 v 5.294 l 21.226989,7.214 z"
         style="opacity:1;fill:#ffffff;fill-opacity:1;fill-rule:nonzero;stroke:none;stop-opacity:1"
         id="path174"
         inkscape:connector-curvature="0" />
    </g>
  </g>
</svg>
