<?xml version="1.0" encoding="UTF-8" standalone="no"?>
<!-- Created with Inkscape (http://www.inkscape.org/) -->

<svg
   width="292.397"
   height="292.69"
   viewBox="0 0 77.363374 77.440895"
   version="1.1"
   id="svg1"
   xml:space="preserve"
   inkscape:version="1.3.2 (091e20e, 2023-11-25, custom)"
   sodipodi:docname="cimer.svg"
   xmlns:inkscape="http://www.inkscape.org/namespaces/inkscape"
   xmlns:sodipodi="http://sodipodi.sourceforge.net/DTD/sodipodi-0.dtd"
   xmlns="http://www.w3.org/2000/svg"
   xmlns:svg="http://www.w3.org/2000/svg"><sodipodi:namedview
     id="namedview1"
     pagecolor="#ffffff"
     bordercolor="#000000"
     borderopacity="0.25"
     inkscape:showpageshadow="2"
     inkscape:pageopacity="0.0"
     inkscape:pagecheckerboard="0"
     inkscape:deskcolor="#d1d1d1"
     inkscape:document-units="mm"
     inkscape:zoom="1.4485269"
     inkscape:cx="259.91923"
     inkscape:cy="160.50789"
     inkscape:window-width="1920"
     inkscape:window-height="1009"
     inkscape:window-x="-8"
     inkscape:window-y="-8"
     inkscape:window-maximized="1"
     inkscape:current-layer="layer1" /><defs
     id="defs1" /><g
     inkscape:label="Calque 1"
     inkscape:groupmode="layer"
     id="layer1"><path
       style="fill:#004a71;fill-opacity:1"
       d="M 33.20932,77.058967 C 24.745512,75.742455 17.455944,72.09844 11.442946,66.178075 -0.31040409,54.60579 -3.3520572,36.665517 3.9154322,21.779301 5.9204432,17.672378 8.2088192,14.455954 11.350968,11.328299 18.309315,4.4020459 26.922707,0.57804887 36.744215,0.05472687 52.03749,-0.76014913 66.402189,7.5823039 73.240158,21.250135 c 1.762754,3.523419 2.649113,6.061096 3.505741,10.037061 0.824333,3.82607 0.823303,11.029343 -0.0021,14.861304 -1.528277,7.094862 -4.526326,13.106461 -9.156835,18.36101 -3.902217,4.428109 -9.11253,8.056533 -14.764248,10.281717 -5.986385,2.356947 -13.47405,3.222687 -19.613372,2.26774 z M 36.0144,47.841766 c 0.792403,-0.296476 1.885282,-0.924004 2.42862,-1.394506 l 0.987887,-0.855458 -0.641917,-0.601565 -0.641917,-0.601565 -1.52915,0.920807 c -4.189592,2.522841 -9.966555,0.994196 -12.142149,-3.212939 -1.026459,-1.984954 -1.026459,-5.576606 0,-7.56156 2.1774,-4.210627 7.952475,-5.735829 12.149291,-3.208638 l 1.536292,0.925106 0.629303,-0.629303 0.629303,-0.629303 -0.92178,-0.809334 c -1.862581,-1.635367 -5.580493,-2.48585 -8.505777,-1.945719 -4.440943,0.819985 -7.582609,3.987074 -8.365838,8.433533 -0.933527,5.299722 2.666998,10.573937 7.980949,11.690858 1.686971,0.354578 4.728589,0.107516 6.406883,-0.520414 z M 29.330947,39.10951 v -3.704167 h -0.661458 -0.661458 v 3.704167 3.704167 h 0.661458 0.661458 z m 4.513523,1.124479 0.01561,-2.579688 1.101527,2.182813 c 0.742809,1.471968 1.251012,2.182813 1.560556,2.182813 0.313973,0 0.789793,-0.68978 1.505737,-2.182813 l 1.046708,-2.182813 0.02296,2.579688 c 0.02287,2.569154 0.02566,2.579688 0.684421,2.579688 h 0.661458 V 39.10951 35.405343 h -0.778132 c -0.721223,0 -0.863186,0.178993 -1.941087,2.447396 l -1.162953,2.447396 -1.236569,-2.447396 C 34.180092,35.58734 34.029308,35.405343 33.297042,35.405343 h -0.791095 v 3.704167 3.704167 h 0.661459 c 0.65926,0 0.66151,-0.0086 0.677064,-2.579688 z m 15.330227,2.050521 c 0,-0.48507 -0.176389,-0.529167 -2.116666,-0.529167 H 44.941364 V 40.69701 39.638677 h 1.852083 c 1.675695,0 1.852084,-0.0504 1.852084,-0.529167 0,-0.47877 -0.176389,-0.529167 -1.852084,-0.529167 H 44.941364 V 37.654301 36.72826 h 1.984375 c 1.940278,0 1.984375,-0.0147 1.984375,-0.661459 v -0.661458 h -2.645833 -2.645834 v 3.704167 3.704167 h 2.778125 c 2.601736,0 2.778125,-0.0336 2.778125,-0.529167 z m 4.233334,-0.529167 c 0,-1.049821 0.0081,-1.058333 1.009612,-1.058333 0.902357,0 1.072803,0.112432 1.60443,1.058333 0.486378,0.865393 0.738753,1.058334 1.384348,1.058334 h 0.789531 l -0.809089,-1.175971 -0.809089,-1.17597 0.664087,-0.664087 c 0.945113,-0.945113 0.936016,-2.721624 -0.01853,-3.618581 -0.588689,-0.553173 -0.989159,-0.654271 -2.910417,-0.73473 l -2.2278,-0.0933 v 3.731317 3.731318 h 0.661458 c 0.595313,0 0.661459,-0.105834 0.661459,-1.058334 z m 0,-3.704167 V 36.72826 h 1.445899 c 1.158729,0 1.500297,0.101643 1.719792,0.511772 0.701622,1.310993 -0.01639,2.134061 -1.861673,2.134061 h -1.304018 z"
       id="path1" /></g></svg>
