<?xml version="1.0" encoding="UTF-8" standalone="no"?>
<svg
   xmlns:dc="http://purl.org/dc/elements/1.1/"
   xmlns:cc="http://creativecommons.org/ns#"
   xmlns:rdf="http://www.w3.org/1999/02/22-rdf-syntax-ns#"
   xmlns:svg="http://www.w3.org/2000/svg"
   xmlns="http://www.w3.org/2000/svg"
   viewBox="0 0 387.42667 391.93066"
   height="391.93066"
   width="387.42667"
   xml:space="preserve"
   id="svg2"
   version="1.1"><metadata
     id="metadata8"><rdf:RDF><cc:Work
         rdf:about=""><dc:format>image/svg+xml</dc:format><dc:type
           rdf:resource="http://purl.org/dc/dcmitype/StillImage" /></cc:Work></rdf:RDF></metadata><defs
     id="defs6"><clipPath
       id="clipPath22"
       clipPathUnits="userSpaceOnUse"><path
         id="path20"
         d="M 0,293.948 H 290.57 V 0 H 0 Z" /></clipPath></defs><g
     transform="matrix(1.3333333,0,0,-1.3333333,0,391.93067)"
     id="g10"><path
       id="path12"
       style="fill:#2b2b2a;fill-opacity:1;fill-rule:nonzero;stroke:none"
       d="M 122.414,42.228 H 49.052 v 19.76 h 73.362 z" /><path
       id="path14"
       style="fill:#2b2b2a;fill-opacity:1;fill-rule:nonzero;stroke:none"
       d="m 246.03,224.161 h -73.362 v 19.76 h 73.362 z" /><g
       id="g16"><g
         clip-path="url(#clipPath22)"
         id="g18"><g
           transform="translate(89.7957,148.6176)"
           id="g24"><path
             id="path26"
             style="fill:#2b2b2a;fill-opacity:1;fill-rule:nonzero;stroke:none"
             d="m 0,0 c 3.98,0 7.246,0.6 9.797,1.798 2.564,1.2 4.555,2.82 5.957,4.861 1.416,2.041 2.386,4.388 2.909,7.054 0.523,2.666 0.778,5.409 0.778,8.228 V 24.76 H 40.132 V 21.941 C 40.132,8.878 36.713,-1.187 29.863,-8.241 23.025,-15.295 13.063,-18.816 0,-18.816 c -12.539,0 -22.464,3.815 -29.773,11.442 -7.323,7.629 -10.971,18.752 -10.971,33.384 v 24.454 c 0,7.004 0.931,13.306 2.819,18.892 1.875,5.588 4.593,10.295 8.152,14.109 3.545,3.814 7.832,6.736 12.845,8.777 5.027,2.041 10.664,3.061 16.928,3.061 6.48,0 12.233,-0.944 17.247,-2.832 5.013,-1.875 9.223,-4.592 12.616,-8.151 3.393,-3.546 5.957,-7.833 7.679,-12.846 1.735,-5.013 2.59,-10.664 2.59,-16.928 V 51.727 H 19.441 v 2.819 c 0,2.603 -0.306,5.218 -0.944,7.833 -0.625,2.615 -1.671,4.962 -3.125,7.054 -1.468,2.092 -3.457,3.789 -5.958,5.09 -2.513,1.314 -5.65,1.964 -9.414,1.964 -3.444,0 -6.416,-0.65 -8.93,-1.964 -2.512,-1.301 -4.604,-3.074 -6.262,-5.319 -1.685,-2.258 -2.91,-4.861 -3.688,-7.846 -0.79,-2.972 -1.173,-6.085 -1.173,-9.325 V 24.441 c 0,-3.546 0.357,-6.812 1.097,-9.797 0.727,-2.972 1.875,-5.561 3.444,-7.756 1.57,-2.194 3.623,-3.89 6.187,-5.09 C -6.761,0.6 -3.648,0 0,0" /></g><g
           transform="translate(175.8064,151.9594)"
           id="g28"><path
             id="path30"
             style="fill:#2b2b2a;fill-opacity:1;fill-rule:nonzero;stroke:none"
             d="M 0,0 H 70.224 V -19.76 H 20.69 V -44.839 H 69.28 V -64.586 H 20.69 v -45.145 H 0 Z" /></g></g></g></g></svg>