<?xml version="1.0" encoding="UTF-8" standalone="no"?>
<svg
   viewBox="0 0 427.63501 130.269"
   height="130.269"
   width="427.63501"
   xml:space="preserve"
   id="svg2"
   version="1.1"
   sodipodi:docname="cinefac_original.svg"
   inkscape:version="1.3.2 (091e20e, 2023-11-25, custom)"
   xmlns:inkscape="http://www.inkscape.org/namespaces/inkscape"
   xmlns:sodipodi="http://sodipodi.sourceforge.net/DTD/sodipodi-0.dtd"
   xmlns="http://www.w3.org/2000/svg"
   xmlns:svg="http://www.w3.org/2000/svg"
   xmlns:rdf="http://www.w3.org/1999/02/22-rdf-syntax-ns#"
   xmlns:cc="http://creativecommons.org/ns#"
   xmlns:dc="http://purl.org/dc/elements/1.1/"><sodipodi:namedview
     id="namedview1"
     pagecolor="#ffffff"
     bordercolor="#000000"
     borderopacity="0.25"
     inkscape:showpageshadow="2"
     inkscape:pageopacity="0.0"
     inkscape:pagecheckerboard="0"
     inkscape:deskcolor="#d1d1d1"
     inkscape:zoom="3.5002281"
     inkscape:cx="252.84067"
     inkscape:cy="108.13581"
     inkscape:window-width="1920"
     inkscape:window-height="1009"
     inkscape:window-x="-8"
     inkscape:window-y="-8"
     inkscape:window-maximized="1"
     inkscape:current-layer="svg2" /><metadata
     id="metadata8"><rdf:RDF><cc:Work
         rdf:about=""><dc:format>image/svg+xml</dc:format><dc:type
           rdf:resource="http://purl.org/dc/dcmitype/StillImage" /></cc:Work></rdf:RDF></metadata><defs
     id="defs6"><clipPath
       id="clipPath18"
       clipPathUnits="userSpaceOnUse"><path
         id="path16"
         d="M 0,162.178 H 379.261 V 0 H 0 Z" /></clipPath></defs><g
     transform="matrix(1.3333333,0,0,-1.3333333,-39.022399,171.81866)"
     id="g10"><g
       id="g12"><g
         clip-path="url(#clipPath18)"
         id="g14"><g
           transform="translate(47.6388,64.0448)"
           id="g20"><path
             id="path22"
             style="fill:#2b2b2a;fill-opacity:1;fill-rule:nonzero;stroke:none"
             d="m 0,0 c 1.785,0 3.254,0.271 4.408,0.815 1.154,0.541 2.055,1.272 2.686,2.187 0.64,0.919 1.073,1.978 1.307,3.182 0.235,1.199 0.352,2.438 0.352,3.71 v 1.271 h 9.33 V 9.894 C 18.083,4.003 16.542,-0.527 13.458,-3.705 10.367,-6.887 5.887,-8.474 0,-8.474 c -5.652,0 -10.132,1.718 -13.422,5.157 -3.3,3.434 -4.95,8.451 -4.95,15.045 v 11.02 c 0,3.155 0.424,5.995 1.271,8.514 0.848,2.52 2.074,4.638 3.679,6.356 1.595,1.721 3.533,3.037 5.787,3.957 2.262,0.919 4.804,1.379 7.635,1.379 2.921,0 5.508,-0.424 7.771,-1.271 2.253,-0.848 4.155,-2.073 5.687,-3.673 1.524,-1.605 2.678,-3.534 3.462,-5.797 0.775,-2.258 1.163,-4.8 1.163,-7.626 v -1.271 h -9.33 v 1.271 c 0,1.176 -0.135,2.353 -0.423,3.529 -0.28,1.176 -0.749,2.24 -1.407,3.182 C 6.256,32.24 5.364,33.002 4.237,33.592 3.11,34.183 1.695,34.476 0,34.476 c -1.56,0 -2.903,-0.293 -4.029,-0.884 -1.127,-0.59 -2.074,-1.388 -2.822,-2.402 -0.757,-1.014 -1.307,-2.19 -1.668,-3.534 -0.351,-1.338 -0.523,-2.74 -0.523,-4.2 V 11.02 c 0,-1.6 0.163,-3.069 0.487,-4.413 0.334,-1.342 0.847,-2.51 1.56,-3.497 C -6.292,2.123 -5.364,1.356 -4.209,0.815 -3.056,0.271 -1.649,0 0,0" /></g><g
           transform="translate(74.1954,106.0072)"
           id="g24"><path
             id="path26"
             style="fill:#2b2b2a;fill-opacity:1;fill-rule:nonzero;stroke:none"
             d="M 0,0 H 33.065 V -8.902 H 21.193 v -31.645 h 11.872 v -8.902 H 0 v 8.902 H 11.872 V -8.902 H 0 Z" /></g><g
           transform="translate(161.3746,106.0072)"
           id="g28"><path
             id="path30"
             style="fill:#2b2b2a;fill-opacity:1;fill-rule:nonzero;stroke:none"
             d="M 0,0 H 31.217 V -8.902 H 9.321 v -11.3 H 30.37 v -8.901 H 9.321 v -11.444 h 22.743 v -8.902 H 0 Z" /></g><g
           transform="translate(229.9025,106.0072)"
           id="g32"><path
             id="path34"
             style="fill:#2b2b2a;fill-opacity:1;fill-rule:nonzero;stroke:none"
             d="M 0,0 H 31.641 V -8.902 H 9.321 v -11.3 h 21.897 v -8.901 H 9.321 V -49.449 H 0 Z" /></g><g
           transform="translate(331.9103,64.0448)"
           id="g36"><path
             id="path38"
             style="fill:#2b2b2a;fill-opacity:1;fill-rule:nonzero;stroke:none"
             d="m 0,0 c 1.785,0 3.255,0.271 4.408,0.815 1.154,0.541 2.056,1.272 2.687,2.187 0.639,0.919 1.072,1.978 1.306,3.182 0.235,1.199 0.352,2.438 0.352,3.71 v 1.271 h 9.33 V 9.894 C 18.083,4.003 16.542,-0.527 13.459,-3.705 10.367,-6.887 5.887,-8.474 0,-8.474 c -5.652,0 -10.132,1.718 -13.422,5.157 -3.3,3.434 -4.949,8.451 -4.949,15.045 v 11.02 c 0,3.155 0.424,5.995 1.27,8.514 0.848,2.52 2.074,4.638 3.679,6.356 1.595,1.721 3.533,3.037 5.787,3.957 2.263,0.919 4.805,1.379 7.635,1.379 2.921,0 5.508,-0.424 7.771,-1.271 2.253,-0.848 4.156,-2.073 5.688,-3.673 1.523,-1.605 2.677,-3.534 3.461,-5.797 0.775,-2.258 1.163,-4.8 1.163,-7.626 v -1.271 h -9.33 v 1.271 c 0,1.176 -0.135,2.353 -0.424,3.529 C 8.05,29.292 7.581,30.356 6.923,31.298 6.256,32.24 5.364,33.002 4.237,33.592 3.11,34.183 1.695,34.476 0,34.476 c -1.56,0 -2.902,-0.293 -4.029,-0.884 -1.127,-0.59 -2.074,-1.388 -2.822,-2.402 -0.757,-1.014 -1.307,-2.19 -1.668,-3.534 -0.351,-1.338 -0.522,-2.74 -0.522,-4.2 V 11.02 c 0,-1.6 0.162,-3.069 0.486,-4.413 0.334,-1.342 0.848,-2.51 1.56,-3.497 C -6.292,2.123 -5.363,1.356 -4.21,0.815 -3.056,0.271 -1.649,0 0,0" /></g><path
           id="path40"
           style="fill:#2b2b2a;fill-opacity:1;fill-rule:nonzero;stroke:none"
           d="M 64.027,31.162 H 30.962 v 8.901 h 33.065 z" /><path
           id="path42"
           style="fill:#2b2b2a;fill-opacity:1;fill-rule:nonzero;stroke:none"
           d="m 262.256,119.962 h -33.065 v 8.902 h 33.065 z" /><g
           transform="translate(282.1056,76.0565)"
           id="g44"><path
             id="path46"
             style="fill:#2b2b2a;fill-opacity:1;fill-rule:nonzero;stroke:none"
             d="M 0,0 4.812,21.026 H 8.031 L 12.782,0 Z M 15.189,29.951 H -2.335 l -11.791,-49.449 h 9.745 l 2.398,10.597 h 16.821 l 2.397,-10.597 h 9.745 z" /></g><g
           transform="translate(141.9484,106.0072)"
           id="g48"><path
             id="path50"
             style="fill:#2b2b2a;fill-opacity:1;fill-rule:nonzero;stroke:none"
             d="M 0,0 V -40.525 H -1.831 L -7.067,0 h -18.227 v -49.449 h 9.32 v 40.525 h 1.831 l 5.237,-40.525 H 9.321 V 0 Z" /></g></g></g></g></svg>
