<?xml version="1.0" encoding="UTF-8" standalone="no"?>
<!-- Created with Inkscape (http://www.inkscape.org/) -->

<svg
   version="1.1"
   id="svg1"
   width="305.45099"
   height="397.44101"
   viewBox="0 0 305.45098 397.44101"
   sodipodi:docname="cognivence.svg"
   inkscape:version="1.3.2 (091e20e, 2023-11-25, custom)"
   xmlns:inkscape="http://www.inkscape.org/namespaces/inkscape"
   xmlns:sodipodi="http://sodipodi.sourceforge.net/DTD/sodipodi-0.dtd"
   xmlns="http://www.w3.org/2000/svg"
   xmlns:svg="http://www.w3.org/2000/svg">
  <defs
     id="defs1" />
  <sodipodi:namedview
     id="namedview1"
     pagecolor="#ffffff"
     bordercolor="#000000"
     borderopacity="0.25"
     inkscape:showpageshadow="2"
     inkscape:pageopacity="0.0"
     inkscape:pagecheckerboard="0"
     inkscape:deskcolor="#d1d1d1"
     inkscape:zoom="1"
     inkscape:cx="373.5"
     inkscape:cy="109.5"
     inkscape:window-width="1920"
     inkscape:window-height="1009"
     inkscape:window-x="-8"
     inkscape:window-y="-8"
     inkscape:window-maximized="1"
     inkscape:current-layer="g1" />
  <g
     inkscape:groupmode="layer"
     inkscape:label="Image"
     id="g1">
    <path
       style="fill:#000000"
       d="m 117.44952,397.12 c -7.45582,-0.99447 -24.512974,-4.06591 -31.803694,-5.72681 -10.07835,-2.29596 -14.99648,-3.79295 -28.26993,-8.60485 -8.53533,-3.09424 -24.44172,-10.14122 -24.44172,-10.82839 0,-0.41685 4.59496,1.02451 16.89418,5.29941 17.41526,6.0531 28.97368,9.37106 42.7686,12.27719 30.384324,6.40094 38.963994,6.62527 41.117654,1.07509 0.43095,-1.11059 0.49812,-7.91058 0.21379,-21.6439 -0.44689,-21.58542 -0.26925,-23.55625 2.41027,-26.74067 0.81616,-0.96996 2.94562,-2.4787 4.73212,-3.35275 3.17668,-1.55421 3.4192,-1.58118 11.01591,-1.22544 4.27225,0.20006 10.28552,0.75595 13.36282,1.23531 16.30527,2.53989 40.27974,4.09081 58.01227,3.75283 11.69954,-0.22299 13.28428,-0.37551 16.3287,-1.57156 5.54092,-2.17684 10.06188,-5.89696 12.01311,-9.88514 l 1.68152,-3.43691 0.0653,-13.25287 c 0.0828,-16.80557 -0.12487,-16.25044 9.00851,-24.07786 5.88398,-5.04264 6.00804,-6.33681 0.92626,-9.662 -3.64716,-2.38647 -4.15626,-3.95472 -1.28381,-3.95472 2.20354,0 5.83487,-2.28254 7.98986,-5.02217 1.60258,-2.03734 1.59104,-2.3808 -0.2124,-6.32003 -1.43211,-3.12814 -1.46199,-3.43838 -0.87186,-9.05277 0.85127,-8.09879 2.20316,-13.37849 4.094,-15.98872 2.04882,-2.82831 6.64854,-5.2861 16.30134,-8.71037 11.82126,-4.19351 13.1494,-5.44953 10.95786,-10.3628 -0.62691,-1.40548 -4.97127,-8.26194 -9.65414,-15.2366 -13.64955,-20.3296 -17.40705,-29.26142 -16.83448,-40.01662 0.31617,-5.93879 1.47957,-10.27001 5.85708,-21.80526 3.09741,-8.16201 5.1685,-18.22077 5.17447,-25.13111 0.0156,-18.04098 -10.72142,-51.45025 -22.19516,-69.062355 -5.27896,-8.103172 -8.16056,-11.60165 -16.93643,-20.562091 C 235.92131,19.36557 232.95685,16.950524 222.44099,10.437 214.17641,5.3179214 207.94908,2.4536874 201.67038,0.88364262 L 198.13663,0 l 4.71166,0.3417548 c 5.76716,0.41831448 10.24117,1.8467691 16.76241,5.3518716 12.45343,6.6935986 24.04096,15.7488616 33.13442,25.8934386 6.92067,7.720635 7.98212,9.153466 13.40744,18.098411 6.27657,10.348447 9.67924,17.724334 13.2683,28.761372 7.34566,22.589292 9.69819,36.050002 8.24086,47.152572 -1.04907,7.99232 -2.14307,12.0824 -5.68501,21.25428 -1.6098,4.16857 -3.46389,10.13176 -4.12021,13.25154 -1.0589,5.0334 -1.11786,6.26816 -0.52346,10.96228 1.3675,10.79951 3.63258,15.33615 17.65459,35.35971 4.82503,6.8902 9.21494,13.38266 9.75535,14.4277 1.37797,2.66471 0.74976,5.19922 -1.92445,7.76416 -2.80651,2.69183 -5.14626,3.81674 -14.51014,6.97622 -9.09137,3.06752 -10.82949,4.13146 -12.61078,7.71933 -1.29315,2.60466 -3.64686,13.60073 -3.64686,17.03742 0,0.88782 0.76779,3.23771 1.7062,5.22198 1.04104,2.20128 1.5754,4.10795 1.37069,4.89078 -0.18453,0.70565 -1.88837,2.87983 -3.78631,4.8315 -1.89794,1.95166 -3.17176,3.6415 -2.8307,3.75519 0.9826,0.32753 2.3622,3.41315 2.3622,5.28328 0,2.2549 -2.45714,5.55133 -7.32078,9.82137 -2.40441,2.11096 -4.56964,4.65321 -5.50127,6.4592 -1.50793,2.92315 -1.53758,3.212 -1.60533,15.64073 -0.0797,14.60861 -0.57619,16.9912 -4.46075,21.4043 -2.81065,3.19307 -10.25779,7.13458 -15.20452,8.04722 -8.6032,1.58723 -45.04711,-0.11969 -70.74171,-3.31332 -18.19123,-2.26103 -24.64505,-1.58887 -27.93745,2.90966 -1.16596,1.5931 -1.22802,2.59858 -1.5104,24.46904 -0.33842,26.21092 -0.15356,25.29266 -5.4058,26.85241 -2.83117,0.84077 -9.3737,1.07636 -13.7353,0.4946 z m 52.25702,-213.6715 c -1.70772,-0.47748 -5.82779,-2.05375 -9.15571,-3.50283 -16.8229,-7.32519 -30.28659,-11.94774 -41.17744,-14.13762 -10.15687,-2.04229 -19.00511,-2.59491 -46.979094,-2.93407 -24.80198,-0.30071 -36.52361,-1.11875 -41.57675,-2.9016 C 17.668416,155.3331 7.277896,141.96319 1.916076,122.78369 -0.14473396,115.41208 -0.60170396,104.20436 0.83083604,96.167419 4.374296,76.287751 15.102266,56.994971 31.263006,41.43935 43.110346,30.035615 57.643396,20.990814 74.709786,14.399766 90.783216,8.1922035 115.31032,4.9265979 135.27642,6.3357616 c 20.46681,1.4445032 36.17188,5.3669754 52.35112,13.0751234 26.36811,12.56236 48.46458,30.790523 62.1262,51.250104 3.96948,5.944674 10.29021,18.995726 11.06697,22.851076 2.18639,10.851875 -1.03106,23.104825 -8.03817,30.611615 -2.12878,2.28059 -2.6905,2.61787 -3.11301,1.86917 -0.30681,-0.54367 -0.24555,-1.97442 0.15129,-3.53375 1.09938,-4.31983 0.84989,-27.460278 -0.36701,-34.041948 C 245.73456,68.30148 235.65321,52.819559 217.57222,39.456592 205.13157,30.262186 192.62763,24.684441 175.25934,20.581703 159.96982,16.970012 135.11476,15.481738 116.14221,17.041881 96.196376,18.682059 71.516686,25.630704 54.053806,34.523072 23.255486,50.206051 5.318496,75.60035 7.312016,100.6978 c 1.71345,21.57152 8.16904,38.85069 17.85711,47.79668 6.12405,5.65497 12.55885,8.14185 24.38627,9.42464 5.292,0.57397 9.24505,0.51089 23.29339,-0.37168 24.2586,-1.52402 38.455144,-0.7203 58.146744,3.2919 12.30301,2.50676 18.63822,4.63519 28.8589,9.69564 9.78689,4.84568 13.22378,5.77965 18.25499,4.9608 7.90125,-1.28596 13.79925,-5.89007 17.72761,-13.83856 2.21239,-4.47647 2.2996,-4.87746 2.2996,-10.57305 0,-5.41423 -0.15674,-6.24724 -1.83434,-9.74833 -5.66422,-11.82107 -19.02756,-22.5736 -34.97547,-28.14228 -5.87488,-2.05139 -19.67599,-5.94548 -27.81391,-7.84791 -3.15041,-0.73648 -5.6254,-1.44168 -5.49997,-1.5671 0.44055,-0.44056 22.47904,3.40018 27.9145,4.86477 17.52114,4.72108 32.15621,13.53857 41.37658,24.92898 9.1349,11.28484 11.14952,20.43506 6.96289,31.62484 -2.44188,6.5265 -10.70192,15.0178 -16.97728,17.45258 -4.25361,1.65037 -13.09999,2.05225 -17.58309,0.79878 z m -43.82758,-80.20821 c 0.42516,-0.17013 0.93313,-0.14921 1.12884,0.0465 0.1957,0.1957 -0.15215,0.3349 -0.77301,0.30933 -0.6861,-0.0283 -0.82566,-0.16782 -0.35583,-0.35583 z"
       id="path1"
       sodipodi:nodetypes="ssssssssssssssscsssssssssssssssssscsssssssssssssssssssssssssssssssssssssssssssssssssssssssssssssssssssssssss" />
  </g>
</svg>
