<?xml version="1.0" encoding="UTF-8" standalone="no"?>
<!-- Created with Inkscape (http://www.inkscape.org/) -->

<svg
   version="1.1"
   id="svg1"
   width="1212.394"
   height="397.44101"
   viewBox="0 0 1212.394 397.44101"
   sodipodi:docname="cognivence_o.svg"
   inkscape:version="1.3.2 (091e20e, 2023-11-25, custom)"
   xmlns:inkscape="http://www.inkscape.org/namespaces/inkscape"
   xmlns:sodipodi="http://sodipodi.sourceforge.net/DTD/sodipodi-0.dtd"
   xmlns="http://www.w3.org/2000/svg"
   xmlns:svg="http://www.w3.org/2000/svg">
  <defs
     id="defs1" />
  <sodipodi:namedview
     id="namedview1"
     pagecolor="#ffffff"
     bordercolor="#000000"
     borderopacity="0.25"
     inkscape:showpageshadow="2"
     inkscape:pageopacity="0.0"
     inkscape:pagecheckerboard="0"
     inkscape:deskcolor="#d1d1d1"
     inkscape:zoom="0.70710678"
     inkscape:cx="528.20876"
     inkscape:cy="47.376154"
     inkscape:window-width="1920"
     inkscape:window-height="1009"
     inkscape:window-x="-8"
     inkscape:window-y="-8"
     inkscape:window-maximized="1"
     inkscape:current-layer="g1" />
  <g
     inkscape:groupmode="layer"
     inkscape:label="Image"
     id="g1">
    <path
       style="fill:#000000"
       d="m 368.1242,397.12 c -7.45582,-0.99447 -24.51297,-4.06591 -31.80369,-5.72681 -10.07835,-2.29596 -14.99648,-3.79295 -28.26993,-8.60485 -8.53533,-3.09424 -24.44172,-10.14122 -24.44172,-10.82839 0,-0.41685 4.59496,1.02451 16.89418,5.29941 17.41526,6.0531 28.97368,9.37106 42.7686,12.27719 30.38432,6.40094 38.96399,6.62527 41.11765,1.07509 0.43095,-1.11059 0.49812,-7.91058 0.21379,-21.6439 -0.44689,-21.58542 -0.26925,-23.55625 2.41027,-26.74067 0.81616,-0.96996 2.94562,-2.4787 4.73212,-3.35275 3.17668,-1.55421 3.4192,-1.58118 11.01591,-1.22544 4.27225,0.20006 10.28552,0.75595 13.36282,1.23531 16.30527,2.53989 40.27974,4.09081 58.01227,3.75283 11.69954,-0.22299 13.28428,-0.37551 16.3287,-1.57156 5.54092,-2.17684 10.06188,-5.89696 12.01311,-9.88514 l 1.68152,-3.43691 0.0653,-13.25287 c 0.0828,-16.80557 -0.12487,-16.25044 9.00851,-24.07786 5.88398,-5.04264 6.00804,-6.33681 0.92626,-9.662 -3.64716,-2.38647 -4.15626,-3.95472 -1.28381,-3.95472 2.20354,0 5.83487,-2.28254 7.98986,-5.02217 1.60258,-2.03734 1.59104,-2.3808 -0.2124,-6.32003 -1.43211,-3.12814 -1.46199,-3.43838 -0.87186,-9.05277 0.85127,-8.09879 2.20316,-13.37849 4.094,-15.98872 2.04882,-2.82831 6.64854,-5.2861 16.30134,-8.71037 11.82126,-4.19351 13.1494,-5.44953 10.95786,-10.3628 -0.62691,-1.40548 -4.97127,-8.26194 -9.65414,-15.2366 -13.64955,-20.3296 -17.40705,-29.26142 -16.83448,-40.01662 0.31617,-5.93879 1.47957,-10.27001 5.85708,-21.80526 3.09741,-8.16201 5.1685,-18.22077 5.17447,-25.13111 0.0156,-18.04098 -10.72142,-51.45025 -22.19516,-69.062355 C 508.20367,41.983983 505.32207,38.485505 496.5462,29.525064 486.59599,19.36557 483.63153,16.950524 473.11567,10.437 464.85109,5.3179214 458.62376,2.4536874 452.34506,0.88364262 L 448.81131,0 l 4.71166,0.3417548 c 5.76716,0.41831448 10.24117,1.8467691 16.76241,5.3518716 12.45343,6.6935986 24.04096,15.7488616 33.13442,25.8934386 6.92067,7.720635 7.98212,9.153466 13.40744,18.098411 6.27657,10.348447 9.67924,17.724334 13.2683,28.761372 7.34566,22.589292 9.69819,36.050002 8.24086,47.152572 -1.04907,7.99232 -2.14307,12.0824 -5.68501,21.25428 -1.6098,4.16857 -3.46389,10.13176 -4.12021,13.25154 -1.0589,5.0334 -1.11786,6.26816 -0.52346,10.96228 1.3675,10.79951 3.63258,15.33615 17.65459,35.35971 4.82503,6.8902 9.21494,13.38266 9.75535,14.4277 1.37797,2.66471 0.74976,5.19922 -1.92445,7.76416 -2.80651,2.69183 -5.14626,3.81674 -14.51014,6.97622 -9.09137,3.06752 -10.82949,4.13146 -12.61078,7.71933 -1.29315,2.60466 -3.64686,13.60073 -3.64686,17.03742 0,0.88782 0.76779,3.23771 1.7062,5.22198 1.04104,2.20128 1.5754,4.10795 1.37069,4.89078 -0.18453,0.70565 -1.88837,2.87983 -3.78631,4.8315 -1.89794,1.95166 -3.17176,3.6415 -2.8307,3.75519 0.9826,0.32753 2.3622,3.41315 2.3622,5.28328 0,2.2549 -2.45714,5.55133 -7.32078,9.82137 -2.40441,2.11096 -4.56964,4.65321 -5.50127,6.4592 -1.50793,2.92315 -1.53758,3.212 -1.60533,15.64073 -0.0797,14.60861 -0.57619,16.9912 -4.46075,21.4043 -2.81065,3.19307 -10.25779,7.13458 -15.20452,8.04722 -8.6032,1.58723 -45.04711,-0.11969 -70.74171,-3.31332 -18.19123,-2.26103 -24.64505,-1.58887 -27.93745,2.90966 -1.16596,1.5931 -1.22802,2.59858 -1.5104,24.46904 -0.33842,26.21092 -0.15356,25.29266 -5.4058,26.85241 -2.83117,0.84077 -9.3737,1.07636 -13.7353,0.4946 z M 777.15661,268.69689 c -3.30988,-1.65486 -3.16195,-5.07869 0.31219,-7.22583 1.60536,-0.99216 1.99785,-1.55481 1.71227,-2.45458 -0.24615,-0.77556 0.0779,-1.64471 0.96567,-2.58964 1.52266,-1.6208 3.59251,-2.08569 2.28804,-0.51389 -1.08159,1.30324 -0.3107,1.78936 4.9684,3.13302 2.55926,0.6514 5.05159,1.58274 5.53849,2.06965 1.07064,1.07064 1.07409,4.21695 0.006,5.50776 -2.46735,2.98195 -11.58069,4.17861 -15.7911,2.07351 z m 12.21913,-1.31779 c 1.97536,-1.2044 2.4815,-2.92576 1.17791,-4.00606 -0.4049,-0.33555 -2.82796,-1.1457 -5.38457,-1.80033 l -4.64837,-1.19024 -1.68292,1.68291 c -1.92271,1.92272 -2.14144,3.54735 -0.65223,4.84466 1.49108,1.29894 2.41391,1.54228 6.03681,1.59182 2.25382,0.0308 3.82156,-0.31074 5.15337,-1.12276 z m -226.37061,-7.51565 c 0.1705,-0.56688 0.77015,-3.01841 1.33257,-5.44786 l 1.02258,-4.41717 0.41099,3.10301 c 0.45368,3.42525 1.12346,4.51181 3.55686,5.77017 4.22537,2.18503 8.75926,-0.38548 8.75926,-4.96609 0,-2.03402 -0.4385,-2.84939 -3.11254,-5.78763 -5.85756,-6.43633 -6.31077,-7.14474 -6.31077,-9.86437 0,-3.00368 1.62623,-5.38459 4.49715,-6.58413 2.55275,-1.06661 4.62353,-1.02507 7.71277,0.15472 2.34724,0.89642 2.60928,0.89642 3.59981,0 0.58756,-0.53173 1.21803,-0.96679 1.40103,-0.96679 0.34629,0 -0.2974,3.30721 -1.43287,7.36196 l -0.65971,2.35583 -0.47697,-2.6503 c -0.61271,-3.40461 -2.67314,-5.30062 -5.76027,-5.30062 -2.88645,0 -5.3472,1.85661 -5.3472,4.0344 0,2.00199 1.02534,3.52315 5.64553,8.37555 2.59671,2.72723 3.80278,4.49858 4.08415,5.99842 0.70135,3.73852 -1.17853,7.31733 -4.83206,9.19902 -1.67697,0.86369 -6.20938,0.84619 -9.15165,-0.0353 -1.79529,-0.53788 -2.58556,-0.53788 -3.44684,0 -1.52468,0.95218 -1.85607,0.87826 -1.49182,-0.33278 z m 24.46027,-0.6909 c -2.9925,-2.9925 -2.21372,-8.62162 1.82998,-13.22713 3.40202,-3.87469 9.07586,-5.65035 12.38901,-3.8772 1.91927,1.02716 1.34806,5.27989 -0.70917,5.27989 -1.42511,0 -2.04746,-1.50437 -1.09642,-2.65031 1.00682,-1.21314 0.29746,-2.65073 -1.30667,-2.6481 -6.15998,0.0101 -12.04919,11.92854 -7.84556,15.87766 1.94217,1.82457 5.60821,1.40542 8.03389,-0.91853 0.93226,-0.89316 1.85683,-1.46211 2.05461,-1.26433 0.60517,0.60517 -0.36356,1.65212 -3.18327,3.44033 -3.80122,2.41067 -7.74822,2.4059 -10.1664,-0.0123 z m 18.50532,0.81043 c -0.1923,-0.50113 0.61111,-4.28556 1.78536,-8.40984 1.17425,-4.12429 2.13499,-7.68973 2.13499,-7.92322 0,-0.23348 -0.8481,-0.42451 -1.88466,-0.42451 -2.96097,0 -1.19524,-1.02516 2.55151,-1.48137 l 3.31716,-0.4039 -2.28648,8.09196 c -1.25757,4.45057 -2.28648,8.32016 -2.28648,8.59907 0,1.06495 1.73344,0.44093 2.90203,-1.0447 0.81314,-1.03373 1.22067,-1.25072 1.22067,-0.64996 0,1.35672 -3.95691,4.55761 -5.63407,4.55761 -0.80872,0 -1.62772,-0.41001 -1.82003,-0.91114 z m 13.63457,-0.41493 c -4.33051,-3.72495 -1.05292,-13.53821 5.66668,-16.9663 2.51824,-1.28471 7.54654,-1.53847 8.64855,-0.43646 1.16054,1.16054 0.80492,3.79786 -0.76345,5.66176 -1.65943,1.97213 -5.20416,3.58408 -9.13103,4.1523 -2.30374,0.33335 -2.67378,0.58552 -2.82987,1.92841 -0.1136,0.97741 0.33917,2.14796 1.23259,3.18663 1.83478,2.13305 4.94849,2.11098 8.22651,-0.0583 2.9111,-1.92648 3.47405,-1.53158 0.90485,0.63474 -4.10219,3.45891 -9.19892,4.26776 -11.95483,1.89723 z m 7.5937,-9.71072 c 3.76034,-1.89347 5.62079,-5.54382 3.65639,-7.17412 -1.1985,-0.99468 -3.47657,-0.22587 -5.67589,1.9155 -1.76516,1.71864 -3.50928,4.82466 -3.50928,6.2495 0,0.74558 3.22985,0.16672 5.52878,-0.99088 z m 21.36693,10.64415 c -0.72223,-0.72223 -0.40533,-2.80471 1.37423,-9.03067 0.97178,-3.39986 1.76687,-6.51342 1.76687,-6.91901 0,-1.59422 -2.62033,-0.64692 -4.82939,1.74593 -2.42489,2.62663 -6.94975,11.0241 -6.94975,12.89772 0,0.84887 -0.43012,1.10971 -1.82988,1.10971 -1.45568,0 -1.75392,-0.19796 -1.45841,-0.96805 1.20813,-3.14832 4.38628,-15.1756 4.12275,-15.60199 -0.17326,-0.28034 -1.02821,-0.51777 -1.89989,-0.52762 -2.45978,-0.0278 -0.38107,-0.95289 3.23161,-1.43818 l 3.04961,-0.40965 -1.17956,3.93176 c -0.64876,2.16246 -1.05745,4.05386 -0.9082,4.20311 0.14924,0.14924 0.83743,-0.64458 1.52931,-1.76406 3.19523,-5.17 8.55125,-7.92548 10.03097,-5.16058 0.60874,1.13744 0.42386,2.10369 -2.23833,11.69845 -1.26985,4.57665 -0.92386,5.26627 1.49979,2.98936 0.74972,-0.70431 1.36312,-0.9968 1.36312,-0.64996 0,0.34683 -0.93683,1.45315 -2.08185,2.45849 -1.98292,1.74103 -3.73859,2.28965 -4.593,1.43524 z m 11.93016,-1.32893 c -2.99251,-2.9925 -2.21372,-8.62162 1.82997,-13.22713 3.40203,-3.87469 9.07587,-5.65035 12.38902,-3.8772 1.91926,1.02716 1.34806,5.27989 -0.70917,5.27989 -1.54686,0 -2.035,-1.58227 -0.88141,-2.85697 0.73036,-0.80705 0.78709,-1.20597 0.24811,-1.74494 -2.42815,-2.42815 -8.55092,1.98238 -10.39405,7.48734 -1.8521,5.53174 0.15044,9.3337 4.60171,8.73666 1.33352,-0.17886 3.18309,-0.99923 4.22004,-1.87176 1.01533,-0.85434 1.97182,-1.42757 2.12554,-1.27384 0.52535,0.52534 -0.56733,1.65046 -3.26336,3.36023 -3.80123,2.41067 -7.74823,2.4059 -10.1664,-0.0123 z m 19.86998,0.18317 c -2.04633,-2.04633 -2.50731,-4.82292 -1.35983,-8.19057 1.97574,-5.79848 6.91015,-9.70661 12.25559,-9.70661 4.49295,0 5.84115,2.57749 3.07051,5.87021 -1.94133,2.30713 -5.32437,4.05691 -8.75198,4.52672 -3.10689,0.42585 -4.02707,1.30137 -3.51443,3.34388 0.94839,3.77869 5.27376,4.62575 9.38257,1.83744 2.81906,-1.91306 3.31415,-1.50761 0.77421,0.63403 -4.25503,3.58779 -9.24469,4.29685 -11.85664,1.6849 z m 8.12067,-9.85943 c 2.55769,-1.39089 4.67075,-4.4143 4.10874,-5.87886 -0.85637,-2.23169 -4.357,-1.50919 -7.14254,1.47417 -1.13685,1.21757 -3.12014,5.10301 -3.12014,6.11261 0,0.63795 3.75813,-0.40505 6.15394,-1.70792 z m 8.06372,8.74752 c 0.25024,-1.2957 0.46651,-2.68711 0.48062,-3.09202 0.0468,-1.34304 1.20356,-0.76142 1.20356,0.60515 0,3.05692 3.1413,5.11612 6.09278,3.99397 3.01659,-1.14691 2.51615,-3.3274 -2.29205,-9.98683 -1.85694,-2.57189 -1.88595,-5.33004 -0.074,-7.03231 1.19587,-1.12347 1.93316,-1.26819 5.77397,-1.13334 l 4.40304,0.15459 -0.5514,2.79754 c -0.63027,3.19766 -1.26974,3.57882 -1.77402,1.0574 -0.48178,-2.40885 -2.90174,-3.94601 -4.82948,-3.06768 -2.22535,1.01394 -1.85585,3.14615 1.19414,6.89071 3.08423,3.78661 3.65773,5.51635 2.64197,7.9686 -1.08751,2.62549 -3.2502,3.48786 -8.35783,3.3327 l -4.3663,-0.13265 z m 37.31609,1.81228 c -4.25523,-1.90724 -6.18405,-5.37641 -6.18405,-11.1226 0,-11.03289 11.07539,-19.98731 21.59901,-17.46273 2.51874,0.60423 3.49747,0.62281 4.36218,0.0828 0.61317,-0.38292 1.22279,-0.69623 1.35471,-0.69623 0.26541,0 -0.50463,3.71559 -1.52574,7.36196 l -0.65971,2.35583 -0.48213,-2.62744 c -0.72384,-3.9447 -2.67154,-5.59123 -6.54768,-5.5352 -1.71204,0.0247 -3.90102,0.45744 -4.86439,0.96155 -4.35659,2.27966 -8.1531,8.54497 -8.86903,14.63641 -0.47542,4.04504 0.35006,6.80385 2.71328,9.06795 3.54609,3.39737 11.30484,2.41701 14.66348,-1.85282 0.68301,-0.86831 1.38698,-1.43359 1.56438,-1.2562 0.57535,0.57536 -3.40418,4.60641 -5.70766,5.78155 -2.65972,1.35689 -8.7094,1.51861 -11.41665,0.30519 z m 23.65799,-0.36667 c -6.30242,-4.95749 0.73123,-18.18928 9.68589,-18.22119 6.15189,-0.0219 8.51429,6.08684 4.97404,12.86199 -2.83265,5.42097 -10.85368,8.3532 -14.65993,5.3592 z m 10.03436,-4.06267 c 3.53521,-5.86858 3.76203,-11.59621 0.51776,-13.0744 -2.2605,-1.02996 -4.96626,0.87941 -7.21774,5.09331 -3.08849,5.78046 -3.11223,10.86244 -0.0562,12.01714 2.26496,0.85578 4.67751,-0.58545 6.75613,-4.03605 z m 42.97022,4.87473 c -0.68729,-0.68729 -0.43541,-2.25175 1.37059,-8.5129 2.06157,-7.14721 2.15104,-8.17421 0.71213,-8.17421 -2.41164,0 -8.63347,8.489 -10.1242,13.81335 -0.65735,2.34784 -0.94934,2.67744 -2.37193,2.67744 h -1.6223 l 2.30142,-7.78515 c 1.26577,-4.28184 2.17108,-8.12478 2.0118,-8.53988 -0.15929,-0.4151 -0.881,-0.75472 -1.60381,-0.75472 -2.36946,0 -0.31178,-1.04253 2.89686,-1.46769 1.70061,-0.22534 3.0886,-0.31859 3.08442,-0.20721 -0.004,0.11138 -0.53912,1.89824 -1.18876,3.9708 -0.64963,2.07257 -1.06931,3.88015 -0.9326,4.01685 0.1367,0.13671 1.06093,-0.9322 2.05384,-2.37535 2.66723,-3.87668 5.18695,-5.8022 7.31269,-5.58821 3.08021,0.31006 3.19984,1.39339 1.02213,9.25561 -1.0852,3.91794 -1.79635,7.30026 -1.58033,7.51628 0.21602,0.21602 1.05325,-0.22773 1.86051,-0.98611 0.80726,-0.75838 1.60831,-1.23831 1.78011,-1.06651 0.1718,0.1718 -0.75552,1.27714 -2.06072,2.45631 -2.22963,2.01433 -4.0213,2.65185 -4.92185,1.7513 z m 11.13355,-0.65446 c -0.18279,-0.5759 0.59445,-4.19668 1.72718,-8.04617 1.13274,-3.84949 2.05952,-7.35376 2.05952,-7.78726 0,-0.44809 -0.63532,-0.78818 -1.47239,-0.78818 -2.77611,0 -1.47349,-1.04206 1.81645,-1.45311 1.80887,-0.226 3.38341,-0.31636 3.49898,-0.20079 0.11557,0.11557 -0.66138,3.25154 -1.72656,6.96882 -2.7681,9.66024 -2.83628,9.99796 -2.01842,9.99796 0.3902,0 1.32181,-0.57528 2.07025,-1.27839 0.74843,-0.70312 1.50135,-1.13783 1.67315,-0.96603 0.17181,0.1718 -0.75552,1.27714 -2.06072,2.45631 -2.58404,2.33452 -5.02217,2.81486 -5.56744,1.09684 z m 12.42474,0.65446 c -0.76838,-0.76838 -0.33441,-3.52645 1.6063,-10.20859 l 1.9671,-6.773 -1.39406,-0.18636 c -1.91097,-0.25546 -1.74762,-0.99669 0.41727,-1.89341 0.99624,-0.41266 2.63078,-1.76996 3.63232,-3.01624 1.00153,-1.24628 2.02897,-2.26596 2.28319,-2.26596 0.25421,0 0.1077,1.17797 -0.3256,2.6177 -0.77583,2.57789 -0.76617,2.62043 0.63544,2.79755 2.06958,0.26152 1.98606,1.32794 -0.12014,1.5339 -1.77355,0.17343 -1.83445,0.29086 -3.96206,7.64038 -2.37631,8.20858 -2.20327,9.78209 0.73036,6.64163 1.136,-1.2161 1.79368,-1.59575 1.79368,-1.03543 0,2.21487 -5.85398,5.55766 -7.2638,4.14783 z m 12.3681,0 c -0.72223,-0.72223 -0.40533,-2.80471 1.37423,-9.03067 2.18186,-7.63345 2.20372,-8.2454 0.29448,-8.2454 -0.80982,0 -1.4724,-0.22854 -1.4724,-0.50787 0,-0.51368 6.44039,-1.49347 6.88624,-1.04761 0.13269,0.13268 -0.69986,3.51017 -1.8501,7.50552 -2.82248,9.80387 -2.77383,10.80133 0.37949,7.78026 0.96034,-0.92006 1.65186,-1.25737 1.65186,-0.80574 0,1.24744 -4.08246,4.74415 -5.53887,4.74415 -0.73276,0 -1.50898,-0.17669 -1.72493,-0.39264 z m 15.67428,-6.5276 c -0.85607,-8.756 -1.51966,-10.74847 -3.57975,-10.74847 -2.55046,0 -0.67692,-1.10605 2.199,-1.29819 l 2.60759,-0.1742 0.78304,2.6503 c 0.43067,1.45767 0.95209,4.84213 1.15871,7.52103 0.37112,4.81178 0.38988,4.85811 1.55044,3.82822 2.08538,-1.85056 6.30607,-8.0163 6.30607,-9.21212 0,-0.63852 -0.42969,-1.63574 -0.95486,-2.21606 -1.79335,-1.98163 0.70766,-4.05539 2.60394,-2.1591 2.06793,2.06793 -1.28668,8.25139 -8.64293,15.93128 -1.47381,1.53866 -2.83153,2.79755 -3.01716,2.79755 -0.18562,0 -0.64196,-3.11411 -1.01409,-6.92024 z m 17.57246,5.95983 c -1.88756,-1.3221 -3.08233,-4.4181 -2.62672,-6.80665 0.84678,-4.43925 4.50542,-9.23508 8.28131,-10.8553 2.58194,-1.1079 6.91507,-1.04765 8.075,0.11228 3.08368,3.08368 -1.50668,7.82937 -9.08676,9.39424 -3.43569,0.70928 -3.97259,1.3976 -3.2709,4.19335 0.4753,1.89373 3.43199,3.1961 5.74798,2.53189 0.92808,-0.26617 2.60562,-1.05143 3.72787,-1.74501 2.42089,-1.4962 2.74666,-0.73072 0.42081,0.98882 -4.36955,3.23049 -8.60473,4.05222 -11.26859,2.18638 z m 5.06946,-9.35269 c 4.78534,-1.4211 8.10687,-5.99469 5.76506,-7.93822 -2.14439,-1.77969 -7.60533,2.27932 -8.94671,6.64992 -0.76512,2.49299 -0.81161,2.47417 3.18165,1.2883 z m 10.41512,7.95727 c 0.18451,-1.13374 0.33838,-2.52515 0.34195,-3.09202 0.004,-0.56687 0.27151,-1.03068 0.59544,-1.03068 0.32392,0 0.58896,0.38508 0.58896,0.85573 0,1.63256 1.31523,3.72943 2.749,4.38269 2.61884,1.19323 5.49639,-0.40766 5.49639,-3.05785 0,-0.46291 -1.32515,-2.6368 -2.94478,-4.83087 -3.38629,-4.58732 -3.73075,-6.62954 -1.49526,-8.86503 1.31755,-1.31755 1.85296,-1.43577 5.88046,-1.29839 3.61416,0.12329 4.38412,0.31399 4.17697,1.03458 -0.13968,0.48589 -0.43382,1.8971 -0.65365,3.13602 -0.41775,2.35445 -1.18988,2.28765 -1.52736,-0.13215 -0.10841,-0.77731 -0.91829,-1.94972 -1.79973,-2.60535 -1.34439,-0.99999 -1.84259,-1.08271 -3.09202,-0.51343 -2.10659,0.95982 -1.93194,3.14553 0.46788,5.85555 3.03107,3.42284 3.93228,4.98065 3.93228,6.79723 0,4.07979 -2.74813,5.80912 -8.86913,5.58112 l -4.18286,-0.1558 z m 30.18904,1.28651 c -3.36948,-3.72323 -0.15264,-12.75098 5.9306,-16.64361 2.7674,-1.77085 5.27019,-2.06783 7.8138,-0.92719 0.69846,0.31322 1.16739,-0.60841 2.219,-4.36124 0.73337,-2.61711 1.18055,-5.0057 0.99374,-5.30796 -0.18681,-0.30227 -0.90708,-0.54958 -1.6006,-0.54958 -2.32732,0 -0.22009,-1.04762 2.95297,-1.46808 2.46147,-0.32617 3.03947,-0.24804 2.8241,0.38175 -0.14893,0.43552 -1.87293,6.2905 -3.83109,13.01106 -4.31839,14.82102 -4.46095,16.18308 -1.392,13.29995 0.74844,-0.70312 1.50136,-1.13783 1.67316,-0.96603 0.1718,0.1718 -0.75553,1.27714 -2.06073,2.45631 -3.92486,3.54587 -6.13557,2.5416 -4.86703,-2.21098 0.35346,-1.32426 0.56927,-2.48112 0.47957,-2.57082 -0.0897,-0.0897 -0.90187,0.903 -1.80484,2.20599 -2.93234,4.23136 -7.26936,5.92813 -9.33065,3.65043 z m 7.44456,-3.03264 c 1.0938,-0.96037 2.83323,-3.33056 3.86539,-5.2671 2.20321,-4.13365 2.5691,-7.49026 0.94586,-8.67721 -1.60667,-1.17482 -2.36248,-1.00478 -4.71498,1.06074 -3.80623,3.34191 -6.52769,10.57634 -5.0308,13.37331 0.92908,1.73601 2.58695,1.57147 4.93453,-0.48974 z m 38.49397,3.70932 c -0.77741,-0.77741 -0.33844,-2.83954 3.15272,-14.8105 1.94995,-6.68622 3.41593,-12.49405 3.25775,-12.90627 -0.15818,-0.41221 -0.87899,-0.74949 -1.6018,-0.74949 -2.37047,0 -0.31113,-1.04261 2.89973,-1.46808 2.46223,-0.32627 3.03887,-0.24824 2.8208,0.38175 -1.02125,2.95026 -7.38809,25.93756 -7.38809,26.67448 0,1.36366 0.94798,1.11149 2.62647,-0.69869 0.84017,-0.90609 1.49623,-1.26763 1.49623,-0.82454 0,1.35378 -3.90238,4.79398 -5.43804,4.79398 -0.78822,0 -1.60981,-0.17669 -1.82577,-0.39264 z m 14.18404,-0.2435 c -2.73429,-1.59257 -3.51046,-6.28304 -1.69775,-10.25956 2.4758,-5.43112 6.74076,-8.53988 11.71602,-8.53988 3.32128,0 4.26395,0.71781 4.26395,3.24686 0,3.24891 -4.6379,6.43429 -10.60122,7.2811 -2.30598,0.32745 -2.67364,0.57706 -2.82988,1.92126 -0.11407,0.98143 0.34176,2.15097 1.24975,3.20658 1.86801,2.17168 4.82877,2.1589 8.14422,-0.0352 2.96489,-1.96207 3.56471,-1.5962 0.96998,0.59164 -3.52693,2.97386 -8.55837,4.13455 -11.21507,2.58716 z m 7.32306,-10.63118 c 2.61432,-1.30737 4.01438,-3.16097 4.01438,-5.31484 0,-2.99374 -3.59222,-2.73423 -6.55853,0.47381 -1.59575,1.72579 -3.45374,4.98161 -3.45374,6.05211 0,0.81364 3.26906,0.15356 5.99789,-1.21108 z m 24.67061,9.7155 c -2.991,-3.80243 -0.025,-11.79592 5.9958,-16.15716 2.6744,-1.93728 6.2355,-2.32541 7.7196,-0.84136 1.0109,1.01095 0.7763,1.48795 2.6568,-5.40218 0.6338,-2.32235 0.9985,-4.37634 0.8104,-4.56442 -0.1881,-0.18807 -1.0266,-0.35001 -1.8634,-0.35986 -2.2892,-0.0269 -0.3582,-0.92634 3.0429,-1.4173 1.9468,-0.28103 2.7976,-0.19831 2.7976,0.27199 0,0.37171 -1.7227,6.58337 -3.8283,13.80368 -2.1055,7.22032 -3.8282,13.29317 -3.8282,13.49523 0,0.78922 1.4627,0.3052 2.7596,-0.91321 0.7497,-0.70431 1.3631,-0.9968 1.3631,-0.64996 0,1.17962 -4.196,4.35919 -5.5063,4.17244 -1.4841,-0.21153 -1.9752,-2.56258 -1.0749,-5.14537 0.4715,-1.35251 -0.02,-1.03326 -2.7833,1.80843 -3.9412,4.05279 -6.1652,4.56402 -8.2614,1.89905 z m 8.2091,-3.09561 c 4.6091,-4.84513 6.7933,-12.17752 4.0628,-13.63884 -1.8522,-0.99123 -4.3999,0.32427 -6.4781,3.34494 -3.0526,4.43668 -4.1918,8.97855 -2.8711,11.44631 0.9508,1.77649 2.9056,1.35034 5.2864,-1.15241 z m 15.1366,3.23902 c -5.778,-5.35491 1.6034,-18.02717 10.5006,-18.02717 8.8284,0 4.2308,9.08834 -5.2554,10.38857 -3.5903,0.4921 -4.096,0.91292 -3.6326,3.0228 0.8956,4.07761 5.1762,5.06021 9.4398,2.16688 2.819,-1.91306 3.3141,-1.50761 0.7742,0.63403 -4.1578,3.50575 -9.1719,4.27521 -11.8266,1.81489 z m 8.0906,-9.98942 c 2.5577,-1.39089 4.6708,-4.4143 4.1088,-5.87886 -0.8564,-2.23169 -4.3571,-1.50919 -7.1426,1.47417 -1.1368,1.21757 -3.1201,5.10301 -3.1201,6.11261 0,0.63795 3.7581,-0.40505 6.1539,-1.70792 z m 68.5689,10.14523 c -3.2118,-3.21185 1.4099,-14.33525 7.2004,-17.32963 2.2044,-1.13997 4.9322,-1.07942 6.1481,0.13645 0.9271,0.9271 1.0249,0.9271 1.5437,0 0.6472,-1.1565 3.7196,-1.39359 3.2866,-0.25361 -1.4081,3.70679 -4.5588,15.86586 -4.2435,16.37609 0.262,0.42394 1.0008,0.0809 2.1059,-0.97786 0.9362,-0.89698 1.7022,-1.34371 1.7022,-0.99274 0,1.12177 -4.1122,4.2939 -5.5665,4.2939 -1.6738,0 -2.0329,-0.7767 -1.6342,-3.53374 l 0.2982,-2.06135 -1.27,1.57756 c -1.7235,2.1407 -4.8852,4.01753 -6.7682,4.01753 -0.8525,0 -2.1137,-0.56367 -2.8027,-1.2526 z m 8.993,-4.02077 c 4.3919,-4.55656 5.8906,-11.36283 2.8592,-12.98517 -3.3076,-1.77018 -9.3758,6.03633 -9.4087,12.10394 -0.025,4.69264 2.5427,5.03818 6.5495,0.88123 z m 23.867,4.88073 c -0.7222,-0.72223 -0.4053,-2.80471 1.3742,-9.03067 0.9718,-3.39986 1.7669,-6.51342 1.7669,-6.91901 0,-1.59422 -2.6203,-0.64692 -4.8294,1.74593 -2.4249,2.62663 -6.9497,11.0241 -6.9497,12.89772 0,0.84887 -0.4302,1.10971 -1.8299,1.10971 -1.4557,0 -1.7539,-0.19796 -1.4584,-0.96805 1.2081,-3.14832 4.3862,-15.1756 4.1227,-15.60199 -0.1732,-0.28034 -1.0282,-0.51777 -1.8999,-0.52762 -2.4636,-0.0278 -0.3787,-0.95321 3.2442,-1.43991 l 3.0623,-0.41139 -1.3972,4.61559 c -1.3896,4.59063 -1.3903,4.60603 -0.1174,2.84871 0.7038,-0.97178 2.5007,-3.02577 3.9931,-4.56442 2.0904,-2.15519 3.1337,-2.79754 4.5437,-2.79754 3.4667,0 3.443,2.05771 -0.1599,13.84049 -1.0836,3.54404 -1.0634,3.23926 -0.2149,3.23926 0.384,0 1.3476,-0.59632 2.1413,-1.32515 1.4404,-1.32278 1.4418,-1.32287 0.7778,-0.0457 -1.3436,2.58448 -4.9631,4.54046 -6.1695,3.33402 z m 11.9301,-1.32893 c -2.9925,-2.9925 -2.2137,-8.62162 1.83,-13.22713 3.4021,-3.87469 9.0759,-5.65035 12.389,-3.8772 1.9193,1.02716 1.3481,5.27989 -0.7091,5.27989 -1.4251,0 -2.0475,-1.50437 -1.0964,-2.65031 1.0068,-1.21314 0.2974,-2.65073 -1.3067,-2.6481 -6.16,0.0101 -12.0492,11.92854 -7.8456,15.87766 1.9422,1.82457 5.6082,1.40542 8.0339,-0.91853 0.9323,-0.89316 1.8568,-1.46211 2.0546,-1.26433 0.6052,0.60517 -0.3635,1.65212 -3.1833,3.44033 -3.8012,2.41067 -7.7482,2.4059 -10.1664,-0.0123 z m 19.87,0.18317 c -2.063,-2.06308 -2.4977,-4.78519 -1.3268,-8.31025 1.8972,-5.71198 6.8374,-9.58693 12.2226,-9.58693 4.4929,0 5.8411,2.57749 3.0705,5.87021 -1.9413,2.30713 -5.3244,4.05691 -8.752,4.52672 -3.1069,0.42585 -4.027,1.30137 -3.5144,3.34388 0.9484,3.77869 5.2738,4.62575 9.3826,1.83744 2.819,-1.91306 3.3141,-1.50761 0.7742,0.63403 -4.2551,3.58779 -9.2447,4.29685 -11.8567,1.6849 z m 8.1207,-9.85943 c 2.5577,-1.39089 4.6708,-4.4143 4.1087,-5.87886 -0.8563,-2.23169 -4.357,-1.50919 -7.1425,1.47417 -1.1368,1.21757 -3.1201,5.10301 -3.1201,6.11261 0,0.63795 3.7581,-0.40505 6.1539,-1.70792 z m -235.41902,10.15348 c 1.04528,-0.30203 2.15814,-1.03053 2.47302,-1.61888 0.61547,-1.15003 6.14033,-19.74677 6.79872,-22.88457 0.36398,-1.73471 0.23208,-1.96732 -1.5591,-2.7495 -1.88606,-0.82361 -1.74623,-0.8562 3.87272,-0.90251 l 5.82942,-0.048 -2.0012,1.34433 c -1.90023,1.27651 -2.17343,1.93772 -5.41443,13.1043 -3.56925,12.29755 -3.6272,13.14682 -0.94822,13.89644 0.77916,0.21803 -1.36617,0.39892 -4.7674,0.402 -4.78327,0.004 -5.75355,-0.1188 -4.28353,-0.54357 z m 117.16912,0.009 c 2.209,-0.63947 2.5252,-1.36403 6.3839,-14.62729 3.1516,-10.8329 3.2405,-11.94408 1.0249,-12.81955 -1.2584,-0.49727 0.9191,-0.65397 9.7646,-0.70265 l 11.3843,-0.0627 -0.4106,1.91411 c -0.2259,1.05276 -0.7554,2.7092 -1.1767,3.68098 l -0.7661,1.76687 -0.048,-1.61963 c -0.026,-0.8908 -0.5883,-2.15986 -1.2486,-2.82015 -1.0546,-1.05465 -1.8209,-1.17988 -6.3069,-1.03067 l -5.1064,0.16984 -0.6873,2.35583 c -0.378,1.2957 -1.1035,3.74723 -1.6122,5.44785 l -0.925,3.09202 h 3.5288 c 2.8999,0 3.7708,-0.2421 4.8873,-1.35861 0.7473,-0.74724 1.494,-1.74111 1.6595,-2.20859 0.1655,-0.46749 0.435,-0.71746 0.5989,-0.5555 0.1639,0.16197 -0.3849,2.67976 -1.2196,5.5951 -1.4214,4.96481 -1.5433,5.17452 -1.9254,3.31037 -0.5185,-2.53013 -1.2943,-2.99575 -5.0095,-3.00688 l -3.0117,-0.009 -1.5528,5.47167 c -1.9882,7.00623 -1.9736,7.33019 0.3614,8.00439 1.4916,0.43071 0.5493,0.55268 -4.27,0.55268 -4.7169,0 -5.7411,-0.12823 -4.3168,-0.54052 z m 27.5753,-0.51429 c 2.2507,-7.09155 4.3438,-14.98056 4.0855,-15.39858 -0.1768,-0.28607 -1.0214,-0.52013 -1.8769,-0.52013 -2.5657,0 -0.7192,-1.02051 2.6556,-1.46769 1.9503,-0.25843 3.092,-0.19121 3.092,0.18204 0,0.32546 -0.5193,2.26042 -1.1541,4.29992 -0.6347,2.0395 -1.0711,3.7912 -0.9696,3.89267 0.1015,0.10147 0.8797,-0.86602 1.7294,-2.14998 3.7865,-5.72181 8.6397,-8.58643 8.6397,-5.09961 0,3.1838 -1.7231,4.37775 -3.2683,2.26458 -0.7075,-0.96749 -0.8133,-0.9637 -1.9556,0.07 -2.2186,2.00787 -5.4586,7.24617 -6.828,11.03964 -1.1665,3.23113 -1.5773,3.78036 -2.9507,3.94524 -1.3903,0.16689 -1.5446,0.0307 -1.199,-1.05811 z m -318.00172,-5.33522 c -3.90808,-2.49617 -4.16354,-6.8031 -0.58963,-9.94103 2.52891,-2.22041 4.05323,-2.6295 8.04711,-2.15962 1.71271,0.2015 4.51908,0.51809 6.23637,0.70355 3.38978,0.36606 3.91831,1.47682 0.95177,2.00019 -1.45593,0.25686 -1.6902,0.54275 -1.53436,1.87242 0.2319,1.97859 -1.24888,4.89228 -3.10411,6.10787 -1.20864,0.79194 -7.06584,2.67363 -7.97552,2.56223 -0.16196,-0.0198 -1.0762,-0.53536 -2.03163,-1.14561 z m 7.0236,-1.97591 c 2.94358,-2.94358 3.12164,-8.59821 0.29896,-9.49409 -2.84337,-0.90245 -5.83178,1.78321 -6.74737,6.06382 -0.90761,4.24325 3.36343,6.51525 6.44841,3.43027 z m 213.51102,0.29705 c 0,-2.15964 0.6841,-2.4261 6.2281,-2.4261 5.4695,0 5.5092,0.0105 5.0244,1.32515 -0.4512,1.22324 -0.9027,1.33818 -5.8706,1.49449 -3.1472,0.099 -5.3819,-0.0644 -5.3819,-0.39354 z m 55.951,-0.0221 c 0,-2.13638 0.6954,-2.40399 6.247,-2.40399 3.0427,0 5.5321,0.14994 5.5321,0.33319 0,0.18326 -0.2744,0.84584 -0.6097,1.4724 -0.5332,0.99623 -1.2723,1.13919 -5.8896,1.13919 -2.9039,0 -5.2798,-0.24335 -5.2798,-0.54079 z M 951.15724,239.24995 c 0.21848,-2.1865 0.66328,-4.82415 0.98843,-5.86143 0.8574,-2.73521 4.04492,-3.42414 4.05681,-0.87682 0.006,1.35986 -4.29636,10.70153 -4.93216,10.70829 -0.28068,0.003 -0.33157,-1.78354 -0.11308,-3.97004 z m -339.28631,-3.3865 c -0.82997,-2.16287 1.56149,-4.07303 3.13248,-2.50204 1.30921,1.30921 0.486,3.38547 -1.34229,3.38547 -0.79815,0 -1.60374,-0.39754 -1.79019,-0.88343 z m 215.6298,-0.32591 c -0.56217,-1.77126 1.09756,-3.44454 2.5241,-2.54471 0.56079,0.35374 1.01962,1.27686 1.01962,2.05137 0,1.97329 -2.94392,2.38313 -3.54372,0.49334 z m 24.52236,0.16346 c -0.73118,-1.36622 0.2166,-3.07682 1.70475,-3.07682 1.4742,0 2.42911,1.76708 1.67913,3.10723 -0.73911,1.32071 -2.67007,1.30335 -3.38388,-0.0304 z m 112.98898,-9.78585 c 3.81349,-3.91311 6.11883,-4.46613 6.69104,-1.60508 0.18679,0.93399 0.50169,2.45792 0.69977,3.38651 l 0.36014,1.68834 -1.98593,-2.17644 -1.98594,-2.17645 -1.73224,1.17369 c -0.95274,0.64553 -2.52734,1.58746 -3.49912,2.09318 -1.43065,0.74452 -1.15429,0.29091 1.45228,-2.38375 z m -341.78964,-22.2971 c 0.21352,-1.37669 0.58234,-3.03313 0.81959,-3.68099 0.35775,-0.97689 0.54468,-0.76245 1.09536,1.25655 0.79562,2.91707 1.74547,3.80913 4.12805,3.87687 4.3262,0.123 4.72376,-3.09513 1.00249,-8.11487 -1.42586,-1.92339 -2.67227,-4.02713 -2.7698,-4.67499 -0.62656,-4.16199 2.80601,-6.82075 7.1324,-5.52453 1.88196,0.56385 2.50062,0.53977 3.30605,-0.12869 0.91406,-0.7586 0.9574,-0.59421 0.5592,2.12097 -0.5358,3.65339 -1.2674,4.51734 -1.7942,2.1188 -0.4181,-1.90355 -2.24275,-3.59268 -3.88094,-3.59268 -1.03875,0 -2.90502,1.77879 -2.90502,2.76885 0,0.33811 1.32516,2.2725 2.94479,4.29863 1.61963,2.02614 2.9753,4.24642 3.01261,4.93397 0.28316,5.21937 -3.32848,7.80524 -8.9194,6.38611 -1.3637,-0.34614 -2.48181,-0.37466 -2.67126,-0.0681 -0.84877,1.37335 -1.41552,0.31685 -1.05992,-1.97586 z m 17.07976,0 c 0.69362,-4.47213 1.08664,-4.96318 1.87265,-2.33972 0.85261,2.84576 1.81989,3.72532 4.17034,3.79215 4.23744,0.12048 4.77024,-3.24633 1.22375,-7.73299 -3.0915,-3.91103 -3.64018,-5.41505 -2.82673,-7.74849 0.90622,-2.5996 3.80851,-3.77954 6.96807,-2.83291 1.88197,0.56385 2.50062,0.53977 3.30606,-0.12869 0.91406,-0.7586 0.9574,-0.59421 0.55919,2.12097 -0.5358,3.65339 -1.26739,4.51734 -1.7942,2.1188 -0.69751,-3.17573 -3.94257,-4.58049 -5.81123,-2.51563 -1.40323,1.55055 -1.2711,1.98487 1.72145,5.65855 1.4829,1.82041 2.90912,4.05231 3.16937,4.95977 0.52199,1.82005 -0.37573,4.59434 -1.89452,5.85483 -1.35403,1.12374 -4.617,1.49866 -7.09302,0.815 -1.30178,-0.35944 -2.30288,-0.38295 -2.50322,-0.0588 -0.85602,1.38506 -1.42502,0.33926 -1.06796,-1.96286 z m 21.35117,1.61984 c -4.94435,-2.68721 -3.19406,-12.47392 2.97432,-16.63079 8.70245,-5.86458 16.12384,0.9059 11.29153,10.30117 -2.95523,5.74574 -9.77372,8.77104 -14.26585,6.32962 z m 7.22708,-1.41987 c 2.03829,-1.60331 4.66069,-7.29823 5.03623,-10.93689 0.27177,-2.63317 0.13098,-3.29056 -0.9325,-4.35404 -2.59356,-2.59355 -6.1416,-0.71512 -8.8368,4.67844 -2.11409,4.23067 -2.53335,9.19243 -0.91361,10.81217 1.25867,1.25867 3.91198,1.16484 5.64668,-0.19968 z m 14.84052,1.7191 c -3.24124,-1.30801 -4.13939,-6.43403 -1.9278,-11.00257 1.62002,-3.3465 5.79817,-6.96457 8.93716,-7.73911 2.80661,-0.69253 5.37973,-0.36714 6.35097,0.80313 1.60203,1.93033 -0.75226,6.2513 -2.47008,4.53348 -0.55544,-0.55544 -0.53581,-1.03851 0.0897,-2.20726 1.07734,-2.01302 0.1422,-2.91856 -2.50174,-2.42255 -4.09464,0.76816 -8.06228,6.48708 -8.08655,11.65588 -0.0107,2.28297 0.25285,2.96387 1.53888,3.97546 0.8535,0.67137 2.19182,1.22066 2.97404,1.22066 1.66031,0 4.35939,-1.29232 5.45418,-2.61147 0.42098,-0.50725 1.04758,-0.92227 1.39245,-0.92227 1.0885,0 -2.7467,3.64206 -4.7278,4.48971 -2.1117,0.90354 -5.1069,1.0003 -7.02339,0.22691 z m 17.05615,-0.36806 c -0.20093,-0.52363 0.631,-4.39956 1.84873,-8.61319 1.80334,-6.23993 2.06575,-7.75565 1.4145,-8.17059 -0.43976,-0.28021 -1.13086,-0.38805 -1.53577,-0.23965 -0.40491,0.14839 -0.73619,0.0478 -0.73619,-0.22361 0,-0.49575 3.33058,-1.21792 5.67275,-1.23001 1.22991,-0.006 1.20911,0.15302 -1.01774,7.7972 -1.25033,4.29203 -2.27914,8.13497 -2.28625,8.53988 -0.0227,1.29495 1.61593,0.78949 2.86407,-0.88344 0.87024,-1.16641 1.2136,-1.34829 1.22704,-0.64997 0.027,1.40113 -3.88745,4.62543 -5.61542,4.62543 -0.8108,0 -1.63426,-0.42707 -1.83572,-0.95205 z m 12.41997,-0.28854 c -3.61634,-3.99875 1.67585,-15.40151 8.32696,-17.94159 2.4207,-0.92447 2.70393,-0.92592 4.08526,-0.0208 0.81633,0.53488 1.50103,1.29769 1.52156,1.69513 0.0205,0.39744 0.27702,0.1263 0.56998,-0.60254 0.67483,-1.6789 3.77871,-1.95634 3.2944,-0.29447 -0.16519,0.56687 -1.12587,3.94601 -2.13484,7.5092 -1.00896,3.56319 -1.96964,6.94233 -2.13484,7.5092 -0.41629,1.42848 0.8888,1.30001 2.5386,-0.2499 0.74971,-0.70432 1.36311,-0.99681 1.36311,-0.64997 0,1.17962 -4.19601,4.35919 -5.50628,4.17244 -1.06696,-0.15207 -1.26672,-0.57125 -1.26672,-2.65799 v -2.47745 l -1.76688,1.65224 c -4.12439,3.85683 -6.87429,4.58574 -8.89031,2.35654 z m 6.84516,-2.12779 c 3.00197,-2.08741 5.47708,-5.99387 6.1835,-9.75943 1.67341,-8.92 -6.68634,-6.37763 -10.00377,3.04235 -2.0999,5.96276 -0.11473,9.45325 3.82027,6.71708 z m 15.10037,2.97575 c -0.7695,-0.76951 -0.3334,-3.52958 1.613,-10.20859 1.08558,-3.72516 1.85787,-6.97178 1.71619,-7.21473 -0.14168,-0.24294 -0.83828,-0.45343 -1.548,-0.46775 -1.04865,-0.0212 -0.88874,-0.23824 0.85361,-1.15884 1.17919,-0.62305 3.0001,-2.21374 4.04646,-3.53487 1.04635,-1.32113 2.0035,-2.30102 2.12699,-2.17753 0.12349,0.1235 -0.14755,1.46087 -0.60232,2.97195 l -0.82685,2.74741 h 1.70923 c 2.32402,0 2.17559,1.05774 -0.18071,1.28784 -1.88701,0.18427 -1.89341,0.19637 -4.12755,7.8067 -2.46964,8.41253 -2.30511,10.04236 0.69007,6.836 1.13601,-1.21609 1.79368,-1.59575 1.79368,-1.03543 0,2.21488 -5.85397,5.55766 -7.2638,4.14784 z m 12.3681,0 c -0.71658,-0.71658 -0.41048,-2.67952 1.45986,-9.36178 1.95207,-6.97424 1.93318,-8.84952 -0.0827,-8.2097 -0.64945,0.20613 -1.18081,0.12243 -1.18081,-0.18601 0,-0.57518 6.35744,-1.60286 6.85259,-1.10772 0.15119,0.15119 -0.66622,3.54382 -1.81646,7.53917 -2.82248,9.80387 -2.77383,10.80134 0.37949,7.78026 1.74113,-1.6681 2.20973,-1.26558 0.7589,0.65189 -1.79836,2.37677 -5.2982,3.96653 -6.37084,2.89389 z m 14.33129,-0.36044 c -0.80982,-0.40464 -1.94853,-1.65963 -2.53048,-2.78886 -3.67401,-7.12925 6.63573,-18.72044 13.93731,-15.66965 2.75335,1.15043 3.90605,3.03675 3.90605,6.39199 0,8.27918 -8.88328,15.27919 -15.31288,12.06652 z m 7.87306,-2.84933 c 3.84928,-4.49702 5.2894,-12.44165 2.59712,-14.32739 -0.71993,-0.50426 -1.77083,-0.91683 -2.33534,-0.91683 -1.7019,0 -4.96134,3.33925 -6.30248,6.45682 -2.87469,6.68241 -2.08144,11.21189 1.96354,11.21189 1.61626,0 2.40165,-0.46704 4.07716,-2.42449 z m 22.35427,2.96838 c -0.71617,-0.71616 -0.35458,-2.72209 1.8902,-10.48609 0.78493,-2.71483 1.28482,-5.16637 1.11085,-5.44785 -1.6467,-2.66442 -7.75089,4.33321 -10.59941,12.15079 -1.09716,3.01108 -1.52359,3.56207 -2.8832,3.72528 -1.30807,0.15703 -1.53895,-0.002 -1.28118,-0.88343 4.58245,-15.66693 4.64408,-16.09339 2.32559,-16.09339 -0.9626,0 -1.36936,-0.20877 -1.03067,-0.52899 0.7614,-0.71987 6.74355,-1.47351 6.74355,-0.84955 0,0.27437 -0.52509,2.335 -1.16687,4.57919 -0.64177,2.24418 -0.95905,3.83352 -0.70505,3.53187 0.25399,-0.30166 1.58827,-2.04888 2.96505,-3.88273 2.86689,-3.81861 5.87487,-5.61551 7.73439,-4.62032 1.63677,0.87597 1.52303,2.90926 -0.58212,10.40635 -2.06984,7.37136 -1.97287,6.67707 -0.93255,6.67707 0.45887,0 1.37808,-0.72884 2.04269,-1.61964 0.66461,-0.89079 1.21677,-1.29717 1.22703,-0.90306 0.0283,1.08748 -3.99994,4.87852 -5.18379,4.87852 -0.57227,0 -1.3258,-0.28531 -1.67451,-0.63402 z m 60.348,0.0109 c -2.18182,-1.27195 -2.37103,-6.94993 -0.35957,-10.79056 1.59324,-3.04211 4.30604,-5.72064 7.25513,-7.1635 3.0529,-1.49364 3.26833,-1.51985 5.07695,-0.61759 1.03882,0.51823 1.94945,0.87484 2.02361,0.79245 0.26291,-0.29205 2.61873,-9.07033 2.61873,-9.75791 0,-0.38425 -0.71558,-0.69863 -1.59018,-0.69863 -2.61548,0 -0.76454,-1.01908 2.6807,-1.47592 2.89764,-0.38424 3.1242,-0.32969 2.80884,0.67622 -2.011,6.41468 -7.4331,25.64928 -7.4331,26.36854 0,1.26292 0.55068,1.17551 2.16831,-0.34417 0.74843,-0.70312 1.50135,-1.13783 1.67315,-0.96603 0.17181,0.1718 -0.77324,1.29315 -2.1001,2.49189 -4.07137,3.67823 -5.97661,2.19207 -4.46995,-3.48673 0.42353,-1.59633 0.26272,-1.49704 -1.66608,1.02874 -3.04642,3.98931 -6.17285,5.40855 -8.68644,3.9432 z m 6.31101,-3.0181 c 2.37831,-1.87077 6.01916,-7.79196 6.4844,-10.54569 0.31094,-1.84042 0.1684,-2.6352 -0.63103,-3.51856 -1.45003,-1.60227 -2.84191,-1.42478 -5.22322,0.66603 -3.93785,3.45748 -6.5198,11.31984 -4.51188,13.73924 1.05204,1.26763 1.93531,1.19003 3.88173,-0.34102 z m 16.14811,1.91969 c -4.76682,-4.76683 0.65763,-15.74158 8.73873,-17.68021 2.45006,-0.58776 3.32067,-0.5751 4.66835,0.0679 1.99476,0.95175 2.48465,3.41345 1.09987,5.52689 -1.26765,1.93468 -6.252,4.37364 -9.7959,4.79336 -2.79419,0.33093 -2.89887,0.4111 -2.89887,2.21998 0,4.22055 4.55983,5.67416 9.22432,2.94059 3.13107,-1.83493 3.39403,-1.00726 0.34623,1.08972 -4.85631,3.34129 -8.72878,3.6957 -11.38273,1.04176 z m 9.46862,-10.58877 c 2.64812,-2.12282 3.5419,-4.42471 2.22814,-5.73847 -1.85629,-1.8563 -6.07286,0.49455 -8.13415,4.535 -1.81373,3.55521 -1.61306,4.06535 1.34159,3.4106 1.37669,-0.30508 3.43067,-1.29829 4.56442,-2.20713 z m 6.80366,9.55632 c 0.57445,-3.97707 1.17899,-4.89101 1.65637,-2.5041 0.56187,2.80935 1.95429,4.0802 4.47051,4.0802 4.39703,0 4.71057,-2.85208 0.87238,-7.93556 -1.46107,-1.93511 -2.79386,-4.0657 -2.96176,-4.73464 -0.93759,-3.73569 3.1703,-6.79008 7.41975,-5.51691 1.87361,0.56134 2.50146,0.53907 3.29171,-0.11678 0.89349,-0.74153 0.93951,-0.58624 0.54133,1.82649 -0.67055,4.06315 -1.21633,4.63281 -2.04191,2.13128 -0.81277,-2.46271 -2.44962,-3.58147 -4.49057,-3.06922 -2.54445,0.63861 -2.47821,2.94927 0.17497,6.10382 3.76199,4.47289 4.53816,6.87645 3.09272,9.57727 -1.2795,2.39078 -5.99305,3.6095 -9.11137,2.3558 -0.64785,-0.26046 -1.6609,-0.22225 -2.2512,0.0849 -0.99091,0.51562 -1.04179,0.3404 -0.66293,-2.28258 z m 94.51777,1.89566 c -0.56829,-0.68475 -0.28508,-2.3958 1.40028,-8.46003 1.16195,-4.18092 2.11265,-7.90264 2.11265,-8.27048 0,-0.36784 -0.72884,-0.69043 -1.61964,-0.71685 l -1.61963,-0.048 1.83832,-0.80616 c 1.01108,-0.44339 2.97121,-2.07821 4.35585,-3.63294 2.42664,-2.72474 2.5043,-2.763 2.15131,-1.05991 -0.20141,0.97178 -0.53601,2.36319 -0.74355,3.09203 -0.32256,1.13275 -0.15359,1.32515 1.16374,1.32515 2.04772,0 1.98366,1.04875 -0.0786,1.28603 -1.46075,0.16808 -1.77169,0.64856 -3.16967,4.89802 -2.0916,6.35785 -3.14099,10.81817 -2.6587,11.30047 0.21899,0.21899 1.3218,-0.49707 2.45069,-1.59123 1.12889,-1.09416 2.05252,-1.6812 2.05252,-1.30453 0,0.37667 -0.93644,1.6213 -2.08098,2.76584 -2.20462,2.20463 -4.3481,2.67643 -5.55464,1.22263 z m 12.32691,-0.35762 c -0.51083,-0.9545 -0.30839,-2.50593 0.94143,-7.21473 2.60066,-9.79852 2.58726,-10.5261 -0.1469,-7.95743 -0.74972,0.70432 -1.36312,1.01555 -1.36312,0.69162 0,-0.73609 2.20631,-2.77374 4.01308,-3.70634 1.0549,-0.54449 1.5539,-0.54482 2.2086,-0.001 1.1802,0.97951 1.0963,1.74193 -1.0198,9.2621 -1.379,4.9008 -1.6963,6.81594 -1.21,7.30227 1.7024,1.70239 7.4843,-5.15788 10.0994,-11.98298 1.4426,-3.76494 1.8601,-4.3427 3.2587,-4.50971 1.3989,-0.16704 1.5534,-0.0317 1.2075,1.05812 -1.2418,3.91259 -4.4226,15.00639 -4.4226,15.425 0,0.99951 1.6501,0.45383 2.5141,-0.83145 0.49,-0.72883 1.0877,-1.13521 1.3283,-0.90307 0.2406,0.23215 -0.5184,1.3779 -1.6866,2.54611 -4.0084,4.00838 -6.1329,1.82677 -4.284,-4.39915 0.4878,-1.64242 0.8285,-2.98622 0.7571,-2.98622 -0.071,0 -1.2903,1.59362 -2.7086,3.54138 -3.9014,5.35746 -8.02979,7.388 -9.48659,4.66596 z m 21.83469,-0.073 c -0.8659,-0.92941 -1.2009,-2.08488 -1.2009,-4.14227 0,-5.2356 4.1347,-11.26691 9.286,-13.54559 2.3359,-1.03324 2.6654,-1.04806 4.3722,-0.1966 1.0153,0.50648 1.9439,0.82287 2.0637,0.70309 0.393,-0.393 2.5358,-8.29899 2.5358,-9.356 0,-0.72915 -0.4673,-1.03255 -1.5902,-1.03255 -0.9626,0 -1.3694,-0.20878 -1.0307,-0.52899 0.6814,-0.64417 6.7436,-1.5058 6.7436,-0.95848 0,0.21447 -1.7227,6.26506 -3.8282,13.44575 -2.1055,7.18069 -3.8282,13.39082 -3.8282,13.80029 0,1.08834 0.8449,0.91068 2.0613,-0.43342 0.5863,-0.64785 1.3437,-1.17791 1.6832,-1.17791 0.3395,0 -0.418,1.06012 -1.6832,2.35583 -3.671,3.75948 -6.3265,2.83713 -5.0134,-1.74137 0.3168,-1.10486 0.4851,-2.09986 0.3738,-2.21112 -0.1112,-0.11125 -0.9325,0.75511 -1.825,1.92525 -1.8892,2.47683 -4.7602,4.37772 -6.6167,4.38086 -0.7163,0.001 -1.8426,-0.57783 -2.5031,-1.28677 z m 7.6104,-3.17743 c 2.6291,-2.37522 5.9127,-8.42763 5.9127,-10.89848 0,-1.93397 -1.3684,-3.48174 -3.0781,-3.48174 -1.5225,0 -5.1678,3.75553 -6.6285,6.82897 -1.4023,2.95046 -1.8771,7.59464 -0.8972,8.77535 1.1199,1.34942 2.136,1.08428 4.6911,-1.2241 z m 14.5507,4.07377 c -0.7407,-0.74069 -0.3902,-2.99622 1.4043,-9.03683 2.0573,-6.92505 2.0803,-8.60178 0.1153,-8.39343 -0.7278,0.0772 -1.3233,-0.0911 -1.3233,-0.37386 0,-0.5441 6.3825,-1.53118 6.8537,-1.05995 0.1519,0.15181 -0.6656,3.61778 -1.8164,7.70214 -2.7878,9.89385 -2.752,10.61522 0.3783,7.61615 0.9604,-0.92006 1.6519,-1.25737 1.6519,-0.80573 0,1.24744 -4.0825,4.74414 -5.5389,4.74414 -0.7327,0 -1.509,-0.17668 -1.7249,-0.39263 z m 11.9755,-0.78528 c -1.4694,-1.4694 -1.5395,-4.61674 -0.1909,-8.5822 1.2031,-3.53807 6.6722,-9.31352 9.294,-9.8147 1.926,-0.36819 4.4429,0.3697 4.4429,1.30257 0,0.33194 0.265,0.60353 0.5889,0.60353 0.3239,0 0.589,-0.39754 0.589,-0.88343 0,-0.58537 0.5854,-0.88344 1.7351,-0.88344 h 1.7351 l -0.8127,2.79755 c -2.5841,8.89462 -3.8354,13.40202 -3.8354,13.81503 0,0.96577 1.7347,0.41776 2.6033,-0.82244 0.4968,-0.7093 1.1073,-1.08565 1.3566,-0.83636 0.7183,0.71834 -3.7831,4.4818 -5.3607,4.4818 -1.6881,0 -2.2164,-1.09497 -1.7793,-3.68742 l 0.3217,-1.90767 -1.2597,1.43802 c -3.5407,4.04195 -7.2067,5.20038 -9.4279,2.97916 z m 7.9682,-3.03901 c 2.3923,-2.10046 4.6275,-6.16445 5.2388,-9.52503 0.4779,-2.62735 -0.7713,-5.10467 -2.5742,-5.10467 -3.1483,0 -8.2756,7.86264 -8.2766,12.69202 -8e-4,4.19694 2.1809,4.95022 5.612,1.93768 z m 24.817,3.82429 c -0.7617,-0.76173 -0.3664,-3.50122 1.3779,-9.54845 2.0798,-7.21029 2.0731,-7.13867 0.6647,-7.13867 -2.651,0 -7.5614,6.30763 -9.8531,12.65675 -1.0743,2.97659 -1.5228,3.56921 -2.8194,3.72593 -0.848,0.10249 -1.5387,0.10249 -1.5348,0 0,-0.1025 1.0383,-3.76428 2.2986,-8.13728 1.2603,-4.37301 2.1691,-8.1497 2.0195,-8.39264 -0.1496,-0.24295 -0.9719,-0.44172 -1.8274,-0.44172 -2.5967,0 -0.7006,-1.02293 2.7427,-1.47966 l 3.1791,-0.42169 -0.3655,1.68687 c -0.2009,0.92778 -0.7749,3.00346 -1.2754,4.61263 -0.5004,1.60916 -0.6932,2.66928 -0.4283,2.35582 0.2649,-0.31345 1.5224,-1.89507 2.7946,-3.5147 3.6768,-4.68121 5.9205,-6.08414 7.9734,-4.9855 1.6064,0.85972 1.4638,3.26381 -0.6276,10.58059 -2.0744,7.25779 -1.9623,6.47853 -0.9325,6.47853 0.4589,0 1.3781,-0.72884 2.0427,-1.61964 0.6646,-0.89079 1.2168,-1.29717 1.227,-0.90306 0.01,0.39411 -0.9178,1.653 -2.0623,2.79754 -1.9523,1.9523 -3.6909,2.59128 -4.5939,1.68835 z m 11.1902,0 c -0.7888,-0.78884 -0.3497,-3.58844 1.6019,-10.21214 1.097,-3.7232 1.8764,-6.96823 1.7321,-7.21118 -0.1443,-0.24294 -0.8431,-0.45343 -1.5528,-0.46775 -1.0421,-0.021 -0.8716,-0.24722 0.8866,-1.17576 1.7762,-0.93808 3.3176,-2.53831 5.6029,-5.81661 0.094,-0.13497 0.2938,-0.1226 0.4439,0.0275 0.1501,0.15009 -0.1023,1.51941 -0.5608,3.04295 l -0.8336,2.77006 h 1.8565 c 2.1303,0 1.5735,0.96625 -0.735,1.27528 -1.3468,0.1803 -1.6609,0.84738 -3.683,7.82204 -2.4393,8.41339 -2.2713,10.02629 0.7114,6.83322 1.136,-1.21609 1.7937,-1.59575 1.7937,-1.03543 0,2.21488 -5.854,5.55766 -7.2638,4.14784 z m 9.9448,-2.36138 c 0.5744,-3.97707 1.179,-4.89101 1.6564,-2.5041 0.5618,2.80935 1.9542,4.0802 4.4705,4.0802 4.397,0 4.7105,-2.85208 0.8723,-7.93556 -1.461,-1.93511 -2.7938,-4.0657 -2.9617,-4.73464 -0.9376,-3.73569 3.1703,-6.79008 7.4197,-5.51691 1.8736,0.56134 2.5015,0.53907 3.2917,-0.11678 0.8935,-0.74153 0.9396,-0.58624 0.5414,1.82649 -0.6706,4.06315 -1.2164,4.63281 -2.0419,2.13128 -0.8128,-2.46271 -2.4497,-3.58147 -4.4906,-3.06922 -2.5445,0.63861 -2.4782,2.94927 0.175,6.10382 3.762,4.47289 4.5381,6.87645 3.0927,9.57727 -1.2795,2.39078 -5.9931,3.6095 -9.1114,2.3558 -0.6478,-0.26046 -1.6609,-0.22225 -2.2512,0.0849 -0.9909,0.51562 -1.0418,0.3404 -0.6629,-2.28258 z m 69.9389,2.04901 c -1.9629,-0.94837 -3.3212,-4.29739 -2.8749,-7.08835 1.0206,-6.38266 6.5043,-11.60601 12.4249,-11.83515 4.7346,-0.18324 6.256,3.11201 3.038,6.58017 -1.8038,1.94406 -4.0958,3.02135 -8.2716,3.88794 -3.5472,0.73614 -3.6095,0.78284 -3.5201,2.63786 0.2063,4.27868 4.8704,5.61208 9.2414,2.64196 2.8455,-1.93362 3.4091,-1.49887 0.852,0.65727 -3.5766,3.01573 -7.8261,3.99845 -10.8897,2.5183 z m 6.8893,-10.70765 c 3.133,-1.53002 5.0358,-4.55005 4.0395,-6.41151 -1.3539,-2.52986 -6.411,0.3366 -8.8051,4.99088 -0.6182,1.20182 -1.1239,2.46577 -1.1239,2.80877 0,0.83615 2.5802,0.228 5.8895,-1.38814 z m 21.0062,11.02002 c -0.7159,-0.71584 -0.3904,-2.78501 1.3742,-8.7362 2.0401,-6.88058 2.1394,-7.95198 0.7362,-7.948 -2.5598,0.007 -8.1078,7.42823 -9.97,13.33596 -0.8801,2.79172 -1.1763,3.15192 -2.5922,3.15192 h -1.5986 l 2.2951,-7.7886 c 1.2623,-4.28372 2.2951,-8.12667 2.2951,-8.53988 0,-0.4132 -0.6625,-0.75128 -1.4724,-0.75128 -0.8098,0 -1.4724,-0.26503 -1.4724,-0.58896 0,-0.32392 0.3606,-0.58895 0.8013,-0.58895 0.4407,0 2.0221,-0.16734 3.5143,-0.37187 l 2.7131,-0.37187 -1.148,4.01427 c -0.6314,2.20785 -1.085,4.0773 -1.0079,4.15435 0.077,0.077 1.3316,-1.36327 2.788,-3.20069 2.754,-3.47453 6.2097,-5.69265 7.8739,-5.05402 1.7459,0.66997 1.7049,2.98046 -0.1645,9.26896 -2.4639,8.28785 -2.409,9.35974 0.3465,6.77109 0.7497,-0.70432 1.3631,-0.99681 1.3631,-0.64997 0,0.34683 -0.9368,1.45316 -2.0818,2.45849 -1.983,1.74103 -3.7386,2.28965 -4.593,1.43525 z m -643.09944,-0.85332 c 2.49189,-0.71979 2.90645,-1.634 6.62595,-14.61195 3.28618,-11.466 3.32057,-12.2982 0.54044,-13.07613 -0.77916,-0.21802 1.49869,-0.39892 5.06188,-0.402 4.98894,-0.004 6.03913,0.12131 4.56748,0.5463 -1.05108,0.30354 -2.29105,1.14098 -2.7555,1.86099 -1.03453,1.60378 -6.81812,21.26146 -6.81812,23.17391 0,1.75466 1.83404,2.26246 6.20081,1.71687 3.56862,-0.44587 6.16906,-2.18565 7.70426,-5.15441 1.48788,-2.87724 1.61883,-1.39852 0.24242,2.73757 l -1.28647,3.86585 -10.99493,-0.0531 c -7.86403,-0.038 -10.45197,-0.20995 -9.08822,-0.60388 z m 33.57957,-0.51544 c 1.06409,-0.64878 4.87276,-5.1642 8.5675,-10.15731 3.65848,-4.9441 8.2212,-11.10952 10.13937,-13.70093 2.06724,-2.79279 3.56183,-4.34829 3.66988,-3.81943 0.10026,0.49072 -0.34495,6.52522 -0.98935,13.41 -0.6444,6.88478 -1.02659,12.89579 -0.8493,13.3578 0.17729,0.462 1.02838,1.0986 1.89132,1.41466 1.19302,0.43696 0.15774,0.56658 -4.3206,0.54094 -3.23926,-0.0185 -5.32093,-0.14493 -4.62592,-0.28088 2.01105,-0.39337 2.98268,-1.99265 3.42,-5.62922 l 0.40724,-3.38651 -4.31231,0.007 -4.31232,0.007 -2.20859,3.18173 c -1.21472,1.74996 -2.20859,3.45449 -2.20859,3.78785 0,0.33336 0.58903,1.01869 1.30896,1.52294 1.23458,0.86473 1.05886,0.91671 -3.09202,0.91463 l -4.40099,-0.002 z m 17.47852,-11.3429 c 0.69493,-3.34172 0.99892,-9.54163 0.44038,-8.9816 -0.32307,0.32393 -2.20035,2.77546 -4.17175,5.44786 l -3.58435,4.85889 h 3.52007 c 3.17616,0 3.547,-0.12947 3.79565,-1.32515 z m 343.57383,11.85722 c 2.29308,-0.66937 2.21507,-0.49278 6.06154,-13.72206 3.41865,-11.75788 3.53097,-12.97102 1.27715,-13.79419 -1.19475,-0.43636 1.18279,-0.60373 9.06307,-0.63803 l 10.6827,-0.0465 -0.92496,3.67192 c -0.84978,3.37346 -0.96135,3.53587 -1.37262,1.99807 -0.87349,-3.26613 -2.01784,-3.90312 -7.01187,-3.90312 -4.48374,0 -4.55154,0.0224 -4.89207,1.61963 -0.18992,0.8908 -0.86692,3.40859 -1.50444,5.5951 l -1.15912,3.97546 h 2.98091 c 2.67667,0 3.19152,-0.22331 5.04444,-2.18799 1.39907,-1.48344 1.95525,-1.81532 1.72726,-1.03067 -0.18495,0.63652 -0.9376,3.14504 -1.67255,5.57448 l -1.33627,4.41718 -0.32145,-2.35583 -0.32144,-2.35582 -3.29851,-0.17401 -3.29852,-0.174 -1.6073,5.66378 c -0.88402,3.11508 -1.46199,6.04246 -1.28439,6.50529 0.22373,0.58303 1.27837,0.8405 3.43343,0.83823 4.89567,-0.005 7.53768,-1.00228 10.32523,-3.89681 2.73697,-2.842 2.93101,-2.58279 1.37638,1.83874 l -1.0354,2.94479 -11.43429,0.10095 c -8.11406,0.0716 -10.87173,-0.0633 -9.49691,-0.46459 z M 593.1109,184.18246 c 0.56348,-5.74051 1.61616,-8.24254 3.36312,-7.99349 0.73227,0.1044 1.4193,0.651 1.52672,1.21468 0.22559,1.18368 -4.0563,11.01104 -4.80748,11.03365 -0.27582,0.008 -0.31288,-1.90637 -0.0824,-4.25484 z M 420.38122,183.4485 c -1.70772,-0.47748 -5.82779,-2.05375 -9.15571,-3.50283 -16.8229,-7.32519 -30.28659,-11.94774 -41.17744,-14.13762 -10.15687,-2.04229 -19.00511,-2.59491 -46.97909,-2.93407 -24.80198,-0.30071 -36.52361,-1.11875 -41.57675,-2.9016 -13.14913,-4.63928 -23.53965,-18.00919 -28.90147,-37.18869 -2.06081,-7.37161 -2.51778,-18.57933 -1.08524,-26.616271 3.54346,-19.879668 14.27143,-39.172448 30.43217,-54.728069 11.84734,-11.403735 26.38039,-20.448536 43.44678,-27.039584 16.07343,-6.2075625 40.60053,-9.4731681 60.56663,-8.0640044 20.46681,1.4445032 36.17188,5.3669754 52.35112,13.0751234 26.36811,12.56236 48.46458,30.790523 62.1262,51.250104 3.96948,5.944674 10.29021,18.995726 11.06697,22.851076 2.18639,10.851875 -1.03106,23.104825 -8.03817,30.611615 -2.12878,2.28059 -2.6905,2.61787 -3.11301,1.86917 -0.30681,-0.54367 -0.24555,-1.97442 0.15129,-3.53375 1.09938,-4.31983 0.84989,-27.460278 -0.36701,-34.041948 C 496.40924,68.30148 486.32789,52.819559 468.2469,39.456592 455.80625,30.262186 443.30231,24.684441 425.93402,20.581703 410.6445,16.970012 385.78944,15.481738 366.81689,17.041881 c -19.94583,1.640178 -44.62552,8.588823 -62.0884,17.481191 -30.79832,15.682979 -48.73531,41.077278 -46.74179,66.174728 1.71345,21.57152 8.16904,38.85069 17.85711,47.79668 6.12405,5.65497 12.55885,8.14185 24.38627,9.42464 5.292,0.57397 9.24505,0.51089 23.29339,-0.37168 24.2586,-1.52402 38.45514,-0.7203 58.14674,3.2919 12.30301,2.50676 18.63822,4.63519 28.8589,9.69564 9.78689,4.84568 13.22378,5.77965 18.25499,4.9608 7.90125,-1.28596 13.79925,-5.89007 17.72761,-13.83856 2.21239,-4.47647 2.2996,-4.87746 2.2996,-10.57305 0,-5.41423 -0.15674,-6.24724 -1.83434,-9.74833 -5.66422,-11.82107 -19.02756,-22.5736 -34.97547,-28.14228 -5.87488,-2.05139 -19.67599,-5.94548 -27.81391,-7.84791 -3.15041,-0.73648 -5.6254,-1.44168 -5.49997,-1.5671 0.44055,-0.44056 22.47904,3.40018 27.9145,4.86477 17.52114,4.72108 32.15621,13.53857 41.37658,24.92898 9.1349,11.28484 11.14952,20.43506 6.96289,31.62484 -2.44188,6.5265 -10.70192,15.0178 -16.97728,17.45258 -4.25361,1.65037 -13.09999,2.05225 -17.58309,0.79878 z m 286.28108,-2.43811 c -0.86767,-2.26111 2.26148,-3.92237 3.54761,-1.88343 0.4492,0.71212 0.40663,1.23719 -0.15516,1.91411 -1.00745,1.2139 -2.92151,1.19658 -3.39245,-0.0307 z m 46.416,-0.0824 c -0.73118,-1.36622 0.2166,-3.07682 1.70476,-3.07682 1.47419,0 2.42911,1.76708 1.67912,3.10724 -0.7391,1.3207 -2.67007,1.30334 -3.38388,-0.0304 z m 294.634,0.19685 c -0.5523,-1.43917 0.026,-2.95485 1.2141,-3.18371 1.5565,-0.29975 2.8161,1.50449 2.0499,2.93619 -0.6947,1.2981 -2.7996,1.45772 -3.264,0.24752 z m -75.23294,-9.89943 c 1.12673,-3.84887 1.3754,-4.10598 3.74413,-3.87112 l 1.91778,0.19014 -2.85327,3.3865 c -1.56929,1.86258 -3.04688,3.3865 -3.28353,3.3865 -0.23665,0 -0.0229,-1.39141 0.47489,-3.09202 z M 44.2717,148.11151 C 21.540221,143.40172 6.8729224,129.4647 1.3818565,107.35712 -0.35451856,100.36631 -0.47148921,87.162493 1.1272069,78.61191 4.1465554,62.463004 11.987316,46.220995 22.943965,33.418848 32.882682,21.806088 48.225759,11.661762 63.633388,6.5163695 72.80543,3.4533572 80.170734,2.1995599 88.958542,2.2052631 c 7.885441,0.00512 11.384978,0.6708464 22.502528,4.2807412 10.41399,3.3814431 12.41911,3.173615 17.25202,-1.7881439 2.23692,-2.2965671 3.27448,-2.9448478 4.71317,-2.9448478 1.48104,0 1.78437,0.2032265 1.53837,1.0306749 -0.16853,0.5668711 -2.45739,10.4392635 -5.08634,21.9386505 -2.62896,11.499387 -4.91207,21.371779 -5.07357,21.938651 -0.18951,0.665168 -0.8764,1.030674 -1.93693,1.030674 -1.57914,0 -1.65805,-0.141312 -2.02166,-3.620137 -0.20811,-1.991075 -0.37838,-5.129048 -0.37838,-6.973273 0,-4.621504 -1.99877,-12.014992 -4.28074,-15.834532 C 109.82823,10.620437 93.919078,6.359003 76.358689,10.595281 50.337633,16.872615 28.367927,45.884036 22.62118,81.556695 c -1.21823,7.562108 -0.916134,22.019635 0.575894,27.560785 4.051079,15.04505 14.427922,25.68126 28.970291,29.69439 5.373972,1.48301 20.450777,1.44925 25.894082,-0.058 5.89204,-1.63148 10.454689,-3.71862 15.608751,-7.14005 4.428036,-2.93948 11.975262,-10.14222 15.932262,-15.20506 1.56521,-2.00264 2.00669,-2.23106 3.98402,-2.06135 l 2.22375,0.19086 -3.41357,5.00164 c -4.14844,6.07838 -13.829281,16.0042 -18.950953,19.43052 -5.175944,3.46262 -12.366405,6.70479 -18.327656,8.26392 -6.484673,1.69601 -24.431069,2.20633 -30.846351,0.87714 z m 114.18378,-0.27227 c -9.36896,-2.03103 -17.91183,-8.70643 -21.56003,-16.84702 -4.32449,-9.64964 -3.75589,-24.33116 1.42707,-36.847513 6.65346,-16.067479 17.74541,-28.281884 32.35399,-35.62808 10.11384,-5.085935 19.08883,-7.015149 28.1098,-6.042333 5.8173,0.627334 10.14087,2.312774 14.60826,5.694677 9.06473,6.862174 12.94796,16.109204 12.29482,29.277295 -1.34395,27.095994 -20.8623,51.707394 -46.95451,59.206664 -4.86081,1.39707 -16.23728,2.06257 -20.2794,1.18631 z m 19.99083,-7.26557 c 7.04018,-3.72614 14.62739,-12.99689 20.82543,-25.44642 6.29285,-12.63998 9.09105,-23.67422 9.18534,-36.220862 0.0571,-7.592398 -0.0172,-8.117618 -1.64743,-11.647756 -1.89711,-4.10814 -4.56838,-6.784538 -8.51315,-8.529499 -2.14843,-0.950351 -3.54088,-1.113752 -7.68637,-0.90198 -6.81415,0.3481 -11.04907,2.479397 -17.17579,8.644021 -9.8128,9.873493 -18.76097,27.947035 -21.43049,43.285366 -1.18628,6.81605 -1.19214,17.4595 -0.0118,21.43414 3.25008,10.9442 15.3774,15.24561 26.45426,9.38299 z m 447.3466,5.35898 c -1.33487,-0.90398 -2.36402,-2.26474 -2.92018,-3.86113 -1.54629,-4.43842 -0.85684,-7.48509 10.82881,-47.852248 3.75026,-12.954965 5.82771,-21.177722 6.04986,-23.945857 0.32184,-4.010587 0.26067,-4.29344 -1.25681,-5.810918 -1.39763,-1.397628 -1.89571,-1.547058 -4.02288,-1.20691 -3.82641,0.611867 -7.90302,3.179245 -13.51614,8.512227 -6.01015,5.710186 -11.63163,12.993899 -18.69141,24.218329 -9.17029,14.579957 -12.9015,23.050917 -18.87267,42.846627 l -1.82094,6.03681 h -7.695 -7.695 l 0.40274,-1.61963 c 0.22151,-0.8908 4.60519,-16.06381 9.74152,-33.7178 13.57182,-46.647512 13.15958,-44.600818 9.61106,-47.716458 -2.1365,-1.875869 -2.21849,-1.894879 -6.49926,-1.506966 -2.3845,0.216078 -4.69126,0.529403 -5.12613,0.696278 -0.53043,0.203544 -0.88037,-0.307742 -1.06319,-1.553385 -0.15454,-1.052974 0.005,-1.949798 0.36968,-2.07163 1.59568,-0.533805 34.62047,-6.237662 34.84065,-6.017482 0.13613,0.136128 -2.53712,9.760259 -5.94054,21.386957 -7.5324,25.731977 -7.41938,25.324314 -6.83681,24.658971 0.2595,-0.296371 2.54852,-3.586709 5.08671,-7.311863 8.17127,-11.992464 15.11385,-20.759008 21.50576,-27.155756 5.27261,-5.276602 7.04173,-6.643543 11.38113,-8.793798 4.53454,-2.246953 5.70635,-2.573598 9.97598,-2.780814 4.55649,-0.221139 4.99571,-0.133168 7.55058,1.512276 1.85047,1.191776 3.13832,2.626338 4.05183,4.513409 1.19892,2.476632 1.30603,3.362543 1.02282,8.459435 -0.35517,6.391768 -0.41968,6.650731 -9.2673,37.202306 -7.82562,27.0225 -8.40711,29.2821 -7.97674,30.9968 0.56942,2.26875 2.40878,2.83974 4.66197,1.44719 2.04877,-1.26621 6.88936,-6.1845 10.597,-10.76709 2.04338,-2.5256 2.3605,-2.70851 3.66519,-2.11405 0.78555,0.35792 1.42827,0.90142 1.42827,1.20779 0,1.17008 -7.73244,10.38759 -12.48155,14.87872 -6.02124,5.69416 -10.44015,8.09717 -15.45771,8.40593 -3.00466,0.18489 -3.89635,-0.001 -5.6313,-1.17627 z m 56.09278,0.11802 c -4.14797,-2.52905 -5.12091,-6.60319 -3.36042,-14.07163 0.4877,-2.06893 4.428,-15.98304 8.75622,-30.92024 9.50077,-32.788233 10.18527,-35.642455 9.14824,-38.146068 -1.16708,-2.817591 -3.76148,-3.631482 -9.17551,-2.87846 -2.42974,0.337946 -4.66356,0.614447 -4.96404,0.614447 -0.30049,0 -0.54634,-0.873614 -0.54634,-1.941365 V 56.765989 L 699.17183,53.9513 c 9.5854,-1.548079 17.53757,-2.705115 17.67149,-2.571192 0.13393,0.133924 -4.24373,16.122001 -9.72812,35.529061 -12.73558,45.066071 -12.70543,44.950141 -12.2054,46.937491 0.5786,2.29966 2.66556,3.14869 4.89973,1.99336 2.67257,-1.38204 7.2156,-5.72598 10.76924,-10.29729 l 3.2153,-4.13608 1.67186,1.19047 c 1.63819,1.16649 1.65169,1.22189 0.67046,2.74987 -3.78261,5.8903 -11.57454,14.01029 -17.07727,17.79628 -5.93678,4.08461 -13.22026,5.31768 -17.17343,2.9074 z m 76.49434,-13.10747 c -1.89305,-36.657366 -5.60042,-61.373224 -10.22531,-68.168903 -2.59568,-3.814019 -4.04602,-4.431197 -10.15855,-4.322881 -5.41053,0.09588 -5.4876,0.07754 -5.76462,-1.371573 -0.15442,-0.807812 0.0178,-1.57327 0.38263,-1.701019 1.21795,-0.426431 28.11564,-6.153418 28.90049,-6.153418 0.46047,0 1.63325,2.588957 2.89946,6.400651 4.88315,14.699935 7.57114,33.090324 8.96408,61.329413 0.2157,4.373 0.56241,8.27238 0.77047,8.66528 0.41468,0.78309 11.61364,-11.60199 17.00899,-18.81048 12.94133,-17.290317 17.39668,-24.354215 19.20707,-30.452496 1.56388,-5.267974 1.40169,-5.794759 -3.09484,-10.051779 -4.72303,-4.47146 -5.37882,-5.5508 -5.37882,-8.852839 0,-4.372285 2.93747,-7.583509 7.39682,-8.086141 1.39994,-0.157794 3.21884,-0.117864 4.04199,0.08873 2.20562,0.553576 5.67248,3.839127 6.89838,6.53761 1.32935,2.926225 1.42433,8.589456 0.22188,13.229881 -3.67457,14.180607 -19.57953,36.452654 -45.53651,63.765664 -10.82389,11.38937 -11.73952,12.20627 -13.69765,12.22086 l -2.0984,0.0156 z m 91.10638,13.41658 c -7.71904,-2.12599 -13.50721,-7.08318 -17.43613,-14.93294 -3.99155,-7.97486 -4.61549,-16.83032 -1.92662,-27.34371 5.93199,-23.193849 24.33488,-43.624593 45.38705,-50.388343 6.42203,-2.063303 10.76032,-2.630141 18.09307,-2.364032 5.86118,0.212704 7.44629,0.48548 10.21608,1.758041 9.09876,4.180359 11.79748,12.979964 6.98119,22.763247 -2.15964,4.386832 -7.57136,10.372574 -12.66235,14.005431 -5.03744,3.59464 -15.86848,8.660757 -23.02363,10.769086 -5.81001,1.71198 -22.18461,4.7829 -25.5031,4.7829 -0.90091,0 -1.93833,0.36185 -2.30538,0.80412 -0.91601,1.10373 -0.98243,11.23224 -0.0951,14.50876 1.55162,5.72971 6.42738,11.28921 12.32674,14.05536 2.94745,1.38203 4.01944,1.552 9.78847,1.552 5.20084,0 7.23839,-0.26277 10.33141,-1.33238 4.85363,-1.67845 11.05539,-5.3001 18.23301,-10.64755 5.56812,-4.14835 5.60006,-4.16256 6.62577,-2.94925 0.56687,0.67055 1.03067,1.44705 1.03067,1.72555 0,0.9922 -10.99701,10.1328 -16.95307,14.09122 -10.58112,7.03225 -19.68857,10.04345 -30.11047,9.95545 -3.43039,-0.029 -7.4793,-0.39479 -8.99757,-0.81296 z m 5.45426,-46.611507 c 10.88097,-1.861031 21.1752,-5.775595 28.57292,-10.865363 8.40365,-5.78186 14.96645,-15.830408 14.96645,-22.91568 0,-3.266448 -2.24821,-7.107028 -4.97137,-8.492518 -3.10374,-1.57912 -8.87166,-1.494336 -13.37218,0.19656 -7.02376,2.638904 -15.6977,9.640165 -20.83593,16.817938 -4.15549,5.804945 -9.34115,17.289786 -11.10245,24.588958 -0.46858,1.941862 -0.61057,1.927752 6.74256,0.670105 z M 979.9711,146.09515 c -1.19141,-0.72649 -2.21234,-2.08417 -2.87811,-3.82747 -1.69436,-4.43662 -1.27692,-6.33563 9.97565,-45.381348 8.09376,-28.084824 8.45769,-30.630406 4.7284,-33.073926 -1.35699,-0.88914 -1.91044,-0.928462 -4.29622,-0.305246 -8.81142,2.301723 -20.85913,15.316878 -32.94379,35.589207 -8.90466,14.937793 -10.42269,18.565783 -18.04358,43.122903 l -0.73109,2.35583 -7.80067,0.16465 c -7.24681,0.15296 -7.77803,0.0902 -7.48182,-0.88344 2.34105,-7.69514 19.44987,-67.108729 20.36378,-70.717033 1.53968,-6.078938 1.64591,-8.48182 0.45532,-10.298887 -1.55875,-2.378963 -3.99192,-3.025142 -8.84748,-2.349638 -2.33701,0.325125 -4.44789,0.478033 -4.69084,0.339794 -0.24294,-0.138239 -0.44172,-0.968204 -0.44172,-1.844367 v -1.593023 l 17.44047,-3.115797 c 9.59226,-1.713688 17.57218,-2.984094 17.73315,-2.823124 0.16097,0.16097 -2.66727,10.407578 -6.28498,22.770242 -3.6177,12.362663 -6.49487,22.560341 -6.3937,22.661507 0.10116,0.101166 2.70082,-3.43019 5.77701,-7.847458 19.41146,-27.873924 30.59101,-37.730172 42.86808,-37.793893 8.39794,-0.04359 13.20114,5.846532 12.18554,14.943099 -0.6319,5.659029 -1.6703,9.685839 -9.1269,35.393498 -3.85219,13.28099 -7.39654,25.83131 -7.87631,27.88961 -1.30092,5.58125 0.17313,8.13197 3.6536,6.32226 1.66287,-0.86463 8.59521,-7.86497 11.65211,-11.76631 1.7923,-2.28751 1.7969,-2.28924 3.3599,-1.26512 l 1.5651,1.02551 -2.7602,3.62095 c -7.2473,9.5072 -13.07538,14.97929 -19.2489,18.07305 -4.26337,2.13651 -9.01337,2.38135 -11.9118,0.61397 z m 69.6553,0.22806 c -10.0256,-2.52001 -17.4349,-9.93594 -20.1249,-20.14312 -1.1811,-4.48162 -1.1615,-14.65885 0.04,-20.47336 3.3597,-16.265409 13.2412,-31.545724 27.1872,-42.041201 6.2665,-4.716034 16.6193,-9.715151 23.3314,-11.266173 4.7328,-1.093664 6.8622,-1.272518 12.34,-1.036472 10.3657,0.446672 15.8235,3.156258 18.9351,9.400547 4.8691,9.770876 -2.2497,22.809914 -11.3608,20.808798 -2.7407,-0.601973 -5.3713,-3.955613 -5.3713,-6.847753 0,-2.969665 0.659,-4.265705 3.8628,-7.597229 4.55,-4.731378 4.5974,-7.69134 0.1585,-9.901291 -2.1718,-1.081229 -3.6851,-1.357933 -7.3534,-1.344498 -14.4626,0.05297 -28.8535,11.130882 -37.8191,29.112672 -7.2044,14.449314 -9.6135,30.45427 -6.0114,39.93754 4.045,10.64967 15.3005,15.38126 28.9049,12.15102 6.5862,-1.56382 13.2706,-5.72033 21.1441,-13.14775 4.1322,-3.89811 4.1922,-3.92972 5.6512,-2.97376 0.8111,0.53143 1.4747,1.12976 1.4747,1.32963 0,0.82611 -11.7711,12.28265 -15.3129,14.90379 -4.6644,3.45181 -10.6877,6.53699 -16.1963,8.29584 -5.3537,1.70936 -18.1817,2.16435 -23.4794,0.83277 z m 95.3077,0.0807 c -9.1393,-2.22035 -15.7572,-8.66728 -19.51,-19.00614 -4.5974,-12.66577 -0.3602,-30.648043 11.209,-47.570262 9.233,-13.505066 22.9763,-23.351967 37.9977,-27.22495 4.9291,-1.27085 6.6652,-1.434292 13.3619,-1.257879 7.3286,0.193059 7.8868,0.296281 11.6677,2.157642 6.3189,3.110763 9.0083,7.739596 8.4607,14.561851 -0.4835,6.02284 -3.0695,10.738915 -9.1608,16.706023 -7.4639,7.311752 -16.9158,12.456104 -29.685,16.156475 -5.1296,1.4865 -21.6039,4.48282 -24.6473,4.48282 -2.5865,0 -3.064,1.54009 -2.8079,9.05716 0.2084,6.11869 0.3551,6.79544 2.2268,10.27295 2.3445,4.3559 6.0909,7.89912 10.6294,10.05291 2.9265,1.38878 3.8933,1.53404 10.0123,1.50427 5.8132,-0.0283 7.3409,-0.24909 10.7805,-1.55816 4.7652,-1.8136 11.442,-5.76772 18.2922,-10.833 4.8336,-3.57416 5.0135,-3.65143 5.9899,-2.57255 0.5536,0.61177 0.8601,1.49417 0.681,1.96091 -0.5721,1.4908 -10.5104,9.7939 -16.4774,13.76633 -6.6146,4.40353 -14.1415,7.82311 -20.2659,9.20717 -4.9621,1.12138 -14.4175,1.19016 -18.7548,0.13643 z m 10.4729,-47.779103 c 16.5988,-3.657056 30.1387,-12.602476 35.5025,-23.455456 3.9296,-7.950921 3.2574,-14.352586 -1.8376,-17.501469 -2.9014,-1.793202 -9.1233,-1.794494 -13.868,-0.0029 -7.0515,2.662704 -15.7381,9.681828 -20.8211,16.82424 -3.5258,4.954478 -7.1329,12.399529 -9.4824,19.571913 -1.1018,3.363393 -2.0032,6.257445 -2.0032,6.431235 0,0.49298 5.5696,-0.3385 12.5098,-1.867581 z m -778.85336,4.615483 c 0.42516,-0.17013 0.93313,-0.14921 1.12884,0.0465 0.1957,0.1957 -0.15215,0.3349 -0.77301,0.30933 -0.6861,-0.0283 -0.82566,-0.16782 -0.35583,-0.35583 z M 712.53287,29.957149 c -2.81318,-0.812982 -5.87641,-4.265915 -6.53853,-7.370363 -1.44449,-6.7728 3.05097,-12.5883746 9.73087,-12.5883746 3.66891,0 5.88622,0.9756896 8.04341,3.5393676 3.47352,4.128039 3.19501,9.940223 -0.66108,13.796318 -2.96879,2.968787 -6.41785,3.824329 -10.57467,2.623052 z"
       id="path1" />
  </g>
</svg>
