<?xml version="1.0" encoding="UTF-8" standalone="no"?>
<!-- Created with Inkscape (http://www.inkscape.org/) -->

<svg
   version="1.1"
   id="svg1"
   width="1110.624"
   height="434.599"
   viewBox="0 0 1110.624 434.599"
   sodipodi:docname="comair.svg"
   xml:space="preserve"
   inkscape:version="1.3.2 (091e20e, 2023-11-25, custom)"
   xmlns:inkscape="http://www.inkscape.org/namespaces/inkscape"
   xmlns:sodipodi="http://sodipodi.sourceforge.net/DTD/sodipodi-0.dtd"
   xmlns="http://www.w3.org/2000/svg"
   xmlns:svg="http://www.w3.org/2000/svg"><defs
     id="defs1" /><sodipodi:namedview
     id="namedview1"
     pagecolor="#ffffff"
     bordercolor="#000000"
     borderopacity="0.25"
     inkscape:showpageshadow="2"
     inkscape:pageopacity="0.0"
     inkscape:pagecheckerboard="0"
     inkscape:deskcolor="#d1d1d1"
     inkscape:zoom="0.55850387"
     inkscape:cx="421.66225"
     inkscape:cy="140.55408"
     inkscape:window-width="1920"
     inkscape:window-height="1009"
     inkscape:window-x="-8"
     inkscape:window-y="-8"
     inkscape:window-maximized="1"
     inkscape:current-layer="g1" /><g
     inkscape:groupmode="layer"
     inkscape:label="Image"
     id="g1"><path
       style="fill:#ed6f37;fill-opacity:1"
       d="m 561.02313,433.47248 c -0.72862,-0.87793 -1.20032,-33.64544 -1.50073,-104.25 -0.24097,-56.6333 -0.77063,-104.44346 -1.17703,-106.24481 -1.06559,-4.72317 -2.84821,-2.73012 -5.90337,6.60021 -10.3274,31.53941 -22.62198,113.13784 -28.16433,186.92497 -0.38213,5.0875 -0.85382,9.25 -1.04819,9.25 -1.91943,0 -27.84996,-17.68846 -31.02369,-21.16274 -2.84646,-3.11601 -2.96557,-3.64269 -5.39116,-23.83726 -4.55693,-37.9393 -15.13609,-102.08448 -21.48188,-130.25231 -4.30867,-19.12538 -10.53213,-37.74769 -12.61504,-37.74769 -0.49503,0 -0.87686,34.19657 -0.87686,78.53194 v 78.53193 l -2.56937,-1.34623 c -1.41316,-0.74042 -5.90426,-4.23268 -9.98022,-7.76056 -4.07597,-3.52789 -11.13225,-8.45632 -15.68063,-10.95207 -6.26201,-3.43605 -8.69427,-5.38351 -10.01823,-8.02137 -1.63326,-3.25415 -1.7471,-10.72991 -1.72803,-113.48364 0.0235,-126.59639 -1.05679,-113.93572 10.59748,-124.2017 3.78345,-3.33276 12.29658,-10.790097 18.91808,-16.571867 6.62149,-5.78176 18.82247,-17.51074 27.11329,-26.06439 l 15.07421,-15.5521 0.61922,5.69503 c 11.44671,105.275427 22.38817,188.195027 24.83284,188.195027 0.98701,0 4.3198,-6.595 5.21693,-10.32339 1.23682,-5.14006 12.45126,-84.79192 15.01934,-106.67661 3.94128,-33.586717 6.17618,-61.807647 8.1173,-102.499997 0.34107,-7.15 0.8195,-13.7192101 1.06318,-14.5982401 1.16069,-4.18701 18.53937,-6.90967 32.35945,-5.06964999 13.57809,1.80779999 32.81831,9.00697999 35.00841,13.09922009 0.69553,1.29961 1.06621,64.75326 1.14125,195.358777 l 0.11113,193.43399 -2.15716,4.88795 c -4.1324,9.36365 -11.90973,15.31084 -30.34017,23.20058 -10.63328,4.55191 -11.93827,4.83217 -13.53602,2.907 z m 68.81772,-41.24998 c 0,-0.97638 2.72324,-19.81898 6.05164,-41.87244 7.91542,-52.44629 22.54026,-153.34418 33.60453,-231.84025 4.86411,-34.508677 9.23916,-62.746177 9.72235,-62.749997 1.92803,-0.0153 60.20003,34.01208 61.28546,35.78703 0.64019,1.04687 2.57083,9.283987 4.2903,18.304697 13.20368,69.26929 28.07855,127.95068 50.08586,197.58888 4.37792,13.85316 7.95986,25.66566 7.95986,26.25 0,1.42191 -51.37127,1.46928 -54.02357,0.0498 -1.30196,-0.69679 -3.36415,-5.60907 -6.6119,-15.75 -2.5959,-8.10557 -5.61832,-15.74989 -6.71649,-16.98739 -1.9598,-2.20845 -2.41529,-2.25 -24.66737,-2.25 -20.44276,0 -22.82856,0.17444 -24.27704,1.77499 -1.04111,1.15041 -3.35239,11.17743 -6.5684,28.49564 -3.41033,18.36462 -5.53639,27.4764 -6.79864,29.13739 -1.375,1.80935 -29.96167,25.49445 -42.08659,34.87028 -0.89357,0.69097 -1.25,0.46039 -1.25,-0.80865 z m 93.53519,-135.12153 c 0.80565,-0.30915 1.46481,-1.26622 1.46481,-2.12682 0,-2.53581 -12.0423,-44.63244 -13.06489,-45.6713 -0.59052,-0.59993 -1.29018,-0.59493 -1.89867,0.0136 -1.46968,1.46968 -14.09597,46.77834 -13.2644,47.59849 1.64308,1.62051 22.64454,1.76653 26.76315,0.18607 z M 76.340851,336.71408 c -14.81301,-2.30994 -31.04487,-9.44751 -42.84877,-18.8417 C 10.264282,299.38643 -1.3068919,268.48834 0.11727813,228.75285 2.1832171,171.11145 34.261971,133.29494 83.779531,130.12633 c 24.444289,-1.56417 47.578589,5.03588 63.286129,18.05509 14.00607,11.60894 25.63267,33.93962 28.35475,54.45967 1.00903,7.60642 0.5326,7.75881 -28.78616,9.20771 -18.73972,0.92609 -25.04393,0.94102 -26.10333,0.0618 -0.84554,-0.70174 -1.65229,-4.18258 -2.04435,-8.82068 -1.08702,-12.85941 -7.69951,-23.47768 -16.50713,-26.50695 -5.696609,-1.95929 -14.966159,-1.50813 -19.766799,0.96207 -13.74125,7.07063 -19.82627,25.03797 -19.71331,58.20781 0.0929,27.27725 4.86828,44.92883 13.85406,51.20964 4.71699,3.29704 13.92507,5.23886 20.42521,4.30732 11.539879,-1.6538 17.025249,-7.23592 21.646359,-22.02818 3.38942,-10.84959 3.3887,-10.84874 9.07719,-10.65474 7.86371,0.26817 44.72959,3.20674 46.0887,3.67371 3.42391,1.1764 -0.49747,19.51596 -6.94752,32.49225 -3.48043,7.00197 -5.99426,10.26921 -14.26376,18.53872 -11.83159,11.83158 -20.86108,16.95824 -36.99367,21.0038 -11.26847,2.8258 -29.279679,3.94153 -39.045049,2.41871 z m 182.999999,0.0731 c -12.30945,-2.74929 -23.21043,-9.04627 -35.03192,-20.23629 -22.71428,-21.50096 -32.45375,-46.22672 -32.46406,-82.41704 -0.005,-16.4311 1.67973,-27.48985 6.09291,-40.00217 10.10929,-28.66203 26.57895,-47.32501 49.59427,-56.19889 16.37123,-6.31216 23.30309,-7.59401 41.3088,-7.63884 14.23946,-0.0355 17.56704,0.26819 24.2885,2.21641 31.03169,8.99456 54.89997,31.14458 64.11136,59.49605 7.4855,23.03943 7.4833,57.34713 -0.005,79.65474 -14.45364,43.05666 -46.01927,64.09512 -98.39474,65.57998 -8.525,0.24169 -17.3,0.0374 -19.5,-0.45395 z m 40.5,-47.36082 c 12.60844,-6.32467 17.66117,-25.77607 16.78452,-64.61507 -0.40511,-17.94784 -0.66148,-20.19844 -3.11326,-27.33028 -4.733,-13.76759 -10.38286,-19.72914 -20.74909,-21.89376 -4.47504,-0.93446 -6.38758,-0.85065 -10.94902,0.47975 -16.57348,4.83387 -24.28929,23.67989 -24.23149,59.18585 0.0579,35.58464 7.14913,52.28228 23.97584,56.45596 5.33183,1.3225 13.0058,0.36445 18.2825,-2.28245 z M 836.0842,333.5962 c -0.97425,-0.97425 -1.24335,-22.49218 -1.24335,-99.42091 0,-90.12439 0.13571,-98.29013 1.65452,-99.55 1.3112,-1.08765 7.19328,-1.37244 28.34696,-1.37244 21.15441,0 27.03541,0.28475 28.34548,1.37244 1.51692,1.25943 1.65178,9.41163 1.63773,99 -0.009,59.7024 -0.38325,98.21026 -0.96246,99.12756 -0.7973,1.26269 -5.34444,1.54641 -28.74134,1.79335 -21.14797,0.22321 -28.0915,-0.004 -29.03754,-0.95 z m 97.75665,0.17753 c -1.3167,-0.83256 -1.5,-12.92568 -1.5,-98.94925 0,-92.77598 0.095,-98.09595 1.7871,-99.78619 1.6739,-1.67234 5.2846,-1.78148 56.99996,-1.72294 59.17389,0.067 67.37579,0.61658 81.87909,5.48657 24.4655,8.21519 39.0482,31.13633 37.5052,58.95093 -0.5509,9.93231 -2.8656,18.31167 -6.8647,24.85109 -3.4517,5.64445 -11.5068,13.75714 -17.1749,17.29771 -7.3244,4.57522 -9.6318,6.86755 -9.6318,9.569 0,2.5717 3.5933,11.81435 21.3795,54.99198 6.3913,15.51539 11.6205,28.67789 11.6205,29.25 0,1.44257 -59.6127,1.41979 -63.7554,-0.0244 -3.6431,-1.26999 -2.9528,0.26545 -18.7864,-41.78713 -6.4925,-17.24344 -12.3659,-31.91311 -13.052,-32.59925 -1.912,-1.91197 -12.7322,-2.71825 -17.13189,-1.2766 l -3.7743,1.23671 -0.2112,35.99543 c -0.2083,35.49554 -0.2411,36.01972 -2.3608,37.74542 -1.9285,1.57 -4.8896,1.74842 -28.7888,1.73469 -15.04456,-0.009 -27.29206,-0.42814 -28.13916,-0.96381 z M 1031.9398,213.684 c 16.5864,-4.27177 20.4046,-26.8736 5.901,-34.93115 -4.2273,-2.34851 -5.5431,-2.52012 -21.7134,-2.83205 l -17.21339,-0.33204 -2.5366,2.53659 c -2.4812,2.48115 -2.5366,2.85209 -2.5366,16.97126 0,18.05483 0.4216,18.83771 10.66069,19.797 7.9901,0.74859 22.2813,0.11856 27.4383,-1.20961 z"
       id="path1" /></g></svg>
