<?xml version="1.0" encoding="UTF-8" standalone="no"?>
<svg
   width="226.843"
   height="99"
   viewBox="0 0 226.843 99"
   fill="none"
   version="1.1"
   id="svg27"
   sodipodi:docname="cop1_original.svg"
   inkscape:version="1.3.2 (091e20e, 2023-11-25, custom)"
   xmlns:inkscape="http://www.inkscape.org/namespaces/inkscape"
   xmlns:sodipodi="http://sodipodi.sourceforge.net/DTD/sodipodi-0.dtd"
   xmlns="http://www.w3.org/2000/svg"
   xmlns:svg="http://www.w3.org/2000/svg">
  <defs
     id="defs27" />
  <sodipodi:namedview
     id="namedview27"
     pagecolor="#ffffff"
     bordercolor="#000000"
     borderopacity="0.25"
     inkscape:showpageshadow="2"
     inkscape:pageopacity="0.0"
     inkscape:pagecheckerboard="0"
     inkscape:deskcolor="#d1d1d1"
     inkscape:zoom="3.8986784"
     inkscape:cx="170.57062"
     inkscape:cy="41.680791"
     inkscape:window-width="1920"
     inkscape:window-height="1009"
     inkscape:window-x="-8"
     inkscape:window-y="-8"
     inkscape:window-maximized="1"
     inkscape:current-layer="svg27" />
  <path
     d="m 48.3564,50.297 c -0.0661,-2.0019 -0.0017,-4.135 0.1039,-6.2649 0.1564,-3.1582 0.7519,-6.231 2.1268,-9.1114 2.1549,-4.5126 5.6363,-7.5669 10.2976,-9.3127 2.2025,-0.8245 4.4832,-1.2795 6.8259,-1.4639 2.0131,-0.1578 4.0262,-0.178 6.0313,0.0266 4.1132,0.4187 7.9686,1.5855 11.3316,4.093 2.5804,1.9238 4.4581,4.3967 5.7121,7.3496 0.2281,0.5363 0.4255,1.087 0.6197,1.637 0.2386,0.6756 0.2313,0.6837 0.9268,0.6829 1.893,-0.0024 3.7885,-0.0661 5.6783,0.0072 1.1194,0.0435 2.0376,-0.2979 2.9186,-0.9204 1.004,-0.7078 2.009,-1.4132 3.073,-2.0316 3.103,-1.8014 6.427,-2.8522 10.025,-2.9875 0.442,-0.0169 0.879,-0.1176 1.325,-0.0636 0.834,0.1023 1.32,0.5637 1.289,1.2377 -0.032,0.6876 -0.541,1.1515 -1.36,1.1684 -1.596,0.0322 -3.175,0.1844 -4.729,0.5564 -2.155,0.5162 -4.151,1.4027 -6.016,2.5945 -1.137,0.7263 -2.213,1.5429 -3.364,2.2499 -0.711,0.4364 -1.4717,0.6337 -2.2953,0.6329 -1.893,-0.0024 -3.786,-0.004 -5.6791,-0.0056 -0.1611,0 -0.3231,-0.0065 -0.4835,0.0048 -0.4166,0.029 -0.5053,0.116 -0.4352,0.5299 0.2805,1.6531 0.2998,3.3208 0.3602,4.9909 0.0831,2.2917 0.2467,4.5819 0.1757,6.876 -0.0781,2.5325 -0.0934,5.069 -0.3538,7.5935 -0.0394,0.3801 -0.0999,0.7577 -0.1418,1.1378 -0.0451,0.4107 -0.0161,0.4558 0.4046,0.4606 0.8453,0.0097 1.6915,-8e-4 2.5377,-8e-4 0.7455,0 1.4909,-0.0153 2.2355,0.0129 0.4828,0.0177 0.8374,-0.1562 1.1718,-0.4952 1.7552,-1.7748 3.5262,-3.5351 5.2932,-5.2986 0.413,-0.4123 0.825,-0.827 1.246,-1.2312 2.135,-2.0493 5.253,-1.6008 6.714,0.9639 0.039,0.07 0.079,0.1401 0.115,0.2118 0.118,0.2351 0.266,0.2045 0.428,0.0515 0.102,-0.0966 0.203,-0.1949 0.303,-0.2947 0.556,-0.554 1.116,-1.1048 1.667,-1.6645 2.092,-2.1218 5.447,-1.4365 6.717,0.9857 0.261,0.496 0.313,0.4976 0.733,0.0958 0.407,-0.3898 0.793,-0.8012 1.201,-1.1894 1.209,-1.1491 2.632,-1.4414 4.192,-0.9236 1.54,0.5122 2.489,1.6129 2.782,3.2089 0.263,1.4358 -0.133,2.7113 -1.149,3.7742 -0.473,0.4945 -0.971,0.9655 -1.445,1.4583 -0.295,0.3068 -0.285,0.3745 0.067,0.5871 0.31,0.1876 0.624,0.3688 0.897,0.6095 1.774,1.559 1.925,4.2735 0.299,5.9975 -0.952,1.0106 -1.955,1.9745 -2.937,2.9561 -1.795,1.7925 -3.585,3.5906 -5.391,5.3726 -1.58,1.5598 -4.023,1.6476 -5.708,0.2255 -0.502,-0.4236 -0.85,-0.9599 -1.129,-1.5493 -0.243,-0.5138 -0.254,-0.521 -0.82,-0.4075 -1.607,0.3229 -2.992,-0.0531 -4.118,-1.2755 -0.304,-0.3301 -0.524,-0.711 -0.717,-1.112 -0.256,-0.5323 -0.291,-0.5661 -0.883,-0.4397 -0.786,0.1675 -1.552,0.1723 -2.317,-0.1087 -1.006,-0.3696 -1.8,-0.9719 -2.268,-1.9584 -0.034,-0.0724 -0.072,-0.1441 -0.108,-0.2158 C 102,69.6463 102,69.6431 101.241,69.7751 c -1.8348,0.3205 -3.291,-0.2754 -4.3411,-1.815 -0.5311,-0.7787 -0.6907,-1.6612 -0.6262,-2.5905 0.0446,-0.6437 -0.2619,-0.9663 -0.9195,-0.9679 -0.9469,-8e-4 -1.893,-0.0016 -2.84,0 -0.7801,0.0016 -0.7873,0.0016 -1.0178,0.7304 -0.4755,1.5026 -1.0831,2.9456 -1.8882,4.3024 -2.0171,3.4022 -4.9054,5.7696 -8.5827,7.1869 -2.2871,0.8817 -4.6621,1.3769 -7.1031,1.6088 -1.3064,0.124 -2.6184,0.1611 -3.9199,0.1538 -3.3799,-0.0177 -6.6993,-0.4871 -9.881,-1.7143 -4.8047,-1.8521 -8.0927,-5.218 -10.0002,-9.9658 -0.7705,-1.9173 -1.1968,-3.9191 -1.4523,-5.9653 -0.1829,-1.4607 -0.2304,-2.9254 -0.2474,-4.395 -0.0225,-1.9713 -0.1023,-3.9425 -0.0652,-6.0466 z m 33.5556,0.9389 c 0.0249,-2.6549 0.0241,-5.3106 -0.2378,-7.9567 -0.1837,-1.8561 -0.6036,-3.651 -1.4909,-5.3106 -1.1798,-2.2072 -2.9253,-3.7565 -5.3188,-4.5561 -2.2074,-0.7368 -4.4671,-0.8415 -6.7405,-0.4783 -3.6378,0.5814 -6.2392,2.5293 -7.6785,5.9677 -0.7737,1.8472 -1.0855,3.7871 -1.1798,5.7632 -0.0854,1.7876 -0.1048,3.5785 -0.1161,5.3677 -0.008,1.3674 0.0452,2.7339 0.0661,4.1012 0.0161,1.0863 -0.0024,2.1741 0.0411,3.2588 0.0669,1.6709 0.2514,3.3305 0.7318,4.941 0.9606,3.221 2.968,5.4999 6.1626,6.6216 2.6981,0.947 5.4551,0.9768 8.1975,0.186 1.9809,-0.5717 3.6652,-1.6395 4.961,-3.2709 0.9309,-1.1717 1.4845,-2.5229 1.8842,-3.949 0.5972,-2.1347 0.6093,-4.3354 0.7068,-6.5217 0.0612,-1.3858 0.0113,-2.7757 0.0113,-4.1639 z m 30.089,21.8778 c 0.451,0.0161 0.896,-0.3543 1.317,-0.7755 4.53,-4.5247 9.061,-9.0477 13.589,-13.574 0.185,-0.1844 0.364,-0.3793 0.509,-0.5951 0.505,-0.7489 0.385,-1.7337 -0.265,-2.3063 -0.706,-0.6232 -1.651,-0.6345 -2.365,-0.0193 -0.198,0.1707 -0.38,0.36 -0.565,0.5452 -3.618,3.6147 -7.234,7.2303 -10.853,10.8435 -0.271,0.2697 -0.56,0.5201 -0.831,0.7899 -0.729,0.7231 -1.489,1.4156 -2.151,2.2024 -0.501,0.5942 -0.515,1.2634 -0.198,1.9229 0.314,0.6555 0.888,0.9615 1.814,0.9655 z m -7.691,-4.6793 c 0.003,0.7537 0.271,1.2803 0.884,1.6081 0.638,0.3406 1.275,0.3639 1.883,-0.0564 0.263,-0.182 0.507,-0.3986 0.734,-0.6249 3.534,-3.5254 7.064,-7.0548 10.592,-10.5858 0.184,-0.1836 0.361,-0.3825 0.503,-0.5991 0.503,-0.7698 0.393,-1.6821 -0.26,-2.3094 -0.604,-0.5814 -1.55,-0.6338 -2.277,-0.1063 -0.226,0.1643 -0.424,0.3696 -0.623,0.5677 -3.533,3.527 -7.063,7.0564 -10.593,10.585 -0.143,0.1425 -0.288,0.2826 -0.42,0.434 -0.29,0.331 -0.446,0.7143 -0.423,1.0871 z m 11.361,5.6883 c -0.024,0.7907 0.324,1.3286 1.009,1.6644 0.695,0.3406 1.329,0.2182 1.912,-0.2528 0.172,-0.1385 0.326,-0.3004 0.482,-0.4566 2.507,-2.5043 5.014,-5.0095 7.52,-7.5154 0.156,-0.1562 0.318,-0.31 0.454,-0.4839 0.528,-0.6724 0.496,-1.6629 -0.063,-2.2797 -0.62,-0.6845 -1.52,-0.8101 -2.295,-0.3044 -0.201,0.1313 -0.385,0.2923 -0.555,0.4622 -2.595,2.5881 -5.187,5.1794 -7.778,7.7707 -0.113,0.1135 -0.224,0.2319 -0.325,0.3575 -0.247,0.3092 -0.382,0.6595 -0.361,1.038 z m -5.68,-16.0486 c -0.015,-0.8979 -0.323,-1.4447 -0.944,-1.766 -0.641,-0.3325 -1.289,-0.2729 -1.88,0.153 -0.194,0.1402 -0.363,0.3181 -0.533,0.488 -2.022,2.018 -4.042,4.0375 -6.062,6.0571 -0.483,0.4832 -0.9805,0.955 -1.4454,1.4559 -0.6617,0.7143 -0.6738,1.7216 -0.0315,2.4004 0.5899,0.6233 1.5089,0.8745 2.3999,0.2344 0.21,-0.1514 0.395,-0.3423 0.58,-0.5267 2.349,-2.3448 4.696,-4.6913 7.043,-7.0386 0.156,-0.1563 0.313,-0.3141 0.454,-0.4832 0.28,-0.3366 0.43,-0.7239 0.418,-0.9751 z"
     fill="#df5f4d"
     id="path1" />
  <path
     d="m 166.531,24.0435 c 3.303,0 6.607,-0.0096 9.909,0.0032 3.196,0.0121 6.305,0.5452 9.242,1.8223 5.155,2.241 8.165,6.1698 9.061,11.7204 0.161,0.9953 0.278,1.9978 0.295,3.0004 0.045,2.5687 -0.182,5.1093 -1.084,7.5435 -1.461,3.9409 -4.216,6.6466 -8.029,8.3191 -2.139,0.9381 -4.391,1.4438 -6.707,1.7031 -1.443,0.1618 -2.892,0.1924 -4.34,0.2045 -3.182,0.0274 -6.365,0.0064 -9.547,0.0105 -1.057,8e-4 -1.057,0.0072 -1.057,1.0734 0,5.4757 0,10.9505 -0.001,16.4262 0,0.302 0.009,0.6056 -0.023,0.9051 -0.103,0.9526 -0.729,1.5421 -1.682,1.5614 -1.246,0.025 -2.491,0.1546 -3.741,0.0169 -0.417,-0.0459 -0.843,-0.0137 -1.266,0.0322 -0.886,0.0959 -1.772,0 -2.652,-0.0773 -0.688,-0.0612 -1.099,-0.5419 -1.323,-1.1748 -0.116,-0.3278 -0.114,-0.6716 -0.113,-1.0154 0.002,-3.5834 10e-4,-7.166 10e-4,-10.7493 0,-0.1208 0.004,-0.2416 0,-0.3624 -0.016,-0.5234 -0.074,-0.5975 -0.596,-0.6007 -1.35,-0.0097 -2.699,0.0032 -4.048,-0.008 -0.462,-0.0041 -0.926,-0.0331 -1.386,-0.0862 -0.65,-0.0749 -1.093,-0.5701 -1.085,-1.1676 0.009,-0.5709 0.44,-1.0493 1.052,-1.1459 0.198,-0.0314 0.401,-0.0249 0.603,-0.0249 1.591,-0.0017 3.182,0.0016 4.773,-0.0025 0.654,-0.0016 0.685,-0.0306 0.685,-0.6804 0.003,-6.7432 0.003,-13.4871 0,-20.2303 0,-0.6417 -0.039,-0.678 -0.692,-0.6796 -1.43,-0.0048 -2.86,-0.0153 -4.29,0.0024 -1.073,0.0129 -2.052,-0.252 -3.006,-0.7537 -2.816,-1.4808 -5.534,-3.1397 -8.363,-4.5972 -1.995,-1.0275 -4.047,-1.9156 -6.245,-2.3907 -3.466,-0.7497 -6.692,-0.1756 -9.553,1.9857 -1.248,0.9421 -2.236,2.142 -3.042,3.4851 -1.784,2.9682 -3.567,5.9355 -5.35,8.9037 -0.072,0.1207 -0.146,0.2423 -0.204,0.3696 -0.107,0.2327 -0.059,0.4316 0.156,0.5805 0.687,0.4735 1.422,0.8399 2.26,0.9543 0.569,0.0781 1.083,-0.0765 1.509,-0.4655 0.342,-0.3124 0.686,-0.6264 0.988,-0.9743 1.824,-2.1009 3.817,-4.0375 5.793,-5.9895 0.644,-0.6361 1.257,-1.3061 1.954,-1.8875 0.928,-0.7738 2.361,-0.868 3.378,-0.2109 0.999,0.6466 1.931,1.3818 2.806,2.1902 1.91,1.766 3.617,3.7251 5.369,5.6424 1.521,1.6645 3.035,3.3346 4.55,5.0038 0.704,0.7755 1.407,1.5509 2.103,2.3328 0.812,0.9124 1.195,1.9858 1.193,3.2057 -0.004,2.6574 0.004,5.3147 -0.003,7.9712 -0.002,1.0895 -0.23,2.1162 -0.908,3.0076 -1.04,1.3657 -2.738,1.9415 -4.482,1.4873 -0.763,-0.1981 -0.673,-0.2746 -0.983,0.4912 -0.849,2.1009 -2.942,3.1155 -5.128,2.4963 -0.117,-0.033 -0.233,-0.0677 -0.349,-0.1015 -0.19,-0.0548 -0.312,0.0274 -0.382,0.1981 -0.07,0.1675 -0.124,0.3406 -0.195,0.5073 -1.088,2.5583 -4.181,3.3893 -6.412,1.7289 -0.305,-0.2271 -0.518,-0.5081 -0.592,-0.8794 -0.091,-0.4557 0.062,-0.839 0.411,-1.1321 0.353,-0.2948 0.755,-0.3769 1.183,-0.1812 0.2,0.0918 0.382,0.2246 0.573,0.3342 1.251,0.7166 2.62,0.0145 2.751,-1.4133 0.063,-0.6812 0.099,-1.3632 0.097,-2.0493 -0.009,-2.8586 -0.004,-5.7173 -0.004,-8.5751 0,-0.2214 -0.008,-0.4445 0.02,-0.6635 0.067,-0.542 0.441,-0.9116 0.983,-0.9945 0.485,-0.0741 1.013,0.2319 1.211,0.7118 0.141,0.3423 0.149,0.7046 0.148,1.0694 -0.002,2.3151 -0.001,4.6302 0,6.9445 0,0.2415 -0.008,0.4855 0.024,0.7231 0.126,0.9164 0.943,1.5863 1.867,1.5469 0.876,-0.0371 1.618,-0.7787 1.673,-1.6854 0.019,-0.3012 0.008,-0.604 0.008,-0.9059 0.002,-2.8385 -0.012,-5.677 0.012,-8.5147 0.007,-0.8206 -0.249,-1.4785 -0.829,-2.0542 -2.159,-2.1412 -4.303,-4.296 -6.453,-6.4468 -0.156,-0.1563 -0.321,-0.3085 -0.453,-0.4848 -0.351,-0.4727 -0.309,-1.133 0.082,-1.559 0.366,-0.3994 0.904,-0.4694 1.437,-0.19 0.217,0.1143 0.392,0.2794 0.564,0.4501 2.179,2.1782 4.357,4.3564 6.536,6.5338 1.064,1.0629 1.605,2.3135 1.567,3.8467 -0.05,2.0115 -0.005,4.0254 -0.015,6.0386 -0.003,0.6232 0.187,1.137 0.673,1.5436 0.96,0.8053 2.408,0.3946 2.796,-0.8012 0.088,-0.2706 0.121,-0.5484 0.121,-0.8326 -0.003,-2.758 -0.005,-5.516 0.001,-8.2732 0.002,-0.5717 -0.166,-1.0653 -0.548,-1.4905 -1.038,-1.1507 -2.07,-2.3078 -3.112,-3.4553 -2.314,-2.547 -4.627,-5.0964 -6.955,-7.6305 -1.147,-1.2482 -2.432,-2.3489 -3.787,-3.366 -0.112,-0.0845 -0.236,-0.1538 -0.357,-0.2279 -0.277,-0.1707 -0.538,-0.1344 -0.776,0.0749 -0.166,0.1458 -0.329,0.2972 -0.486,0.4542 -1.679,1.6805 -3.363,3.3563 -5.032,5.0489 -0.55,0.5588 -1.056,1.1612 -1.582,1.7434 -0.527,0.583 -1.05,1.1716 -1.682,1.6443 -1.033,0.773 -2.166,1.1056 -3.463,0.8221 -1.181,-0.2576 -2.264,-0.7046 -3.221,-1.447 -0.34,-0.2633 -0.617,-0.5822 -0.83,-0.9494 -0.475,-0.8149 -0.491,-1.6411 -0.01,-2.464 0.853,-1.46 1.704,-2.9207 2.562,-4.3782 1.143,-1.943 2.298,-3.8805 3.543,-5.7607 1.067,-1.6089 2.358,-3.0101 3.965,-4.0996 2.126,-1.4422 4.5,-2.0888 7.048,-2.2305 2.345,-0.1296 4.557,0.3954 6.727,1.2063 2.821,1.0548 5.451,2.4938 8.059,3.9835 1.415,0.8093 2.845,1.5944 4.269,2.3884 0.485,0.2706 1.009,0.3946 1.564,0.3938 1.511,-0.0033 3.022,-0.0032 4.532,-0.0081 0.695,-0.0024 0.707,-0.0121 0.707,-0.715 0.003,-3.6035 0,-7.2062 0.003,-10.8097 0,-0.2609 -0.005,-0.5258 0.032,-0.7827 0.13,-0.8882 0.711,-1.4438 1.603,-1.5437 0.219,-0.0249 0.442,-0.0177 0.664,-0.0177 3.585,-8e-4 7.17,0 10.755,0 z m -2.376,17.0528 c -0.009,0 -0.017,0 -0.026,0 0,1.811 -0.001,3.6228 0,5.4338 0.001,0.8656 0.001,1.7305 0.02,2.5961 0.009,0.4614 0.075,0.5097 0.532,0.5387 0.08,0.0049 0.161,0.0041 0.241,0.0041 3.686,0 7.37,-0.0041 11.056,0.0016 0.955,0.0016 1.886,-0.1426 2.797,-0.4164 2.625,-0.7915 4.421,-2.4229 5.092,-5.1415 0.451,-1.8271 0.477,-3.6767 0.026,-5.5014 -0.685,-2.7693 -2.328,-4.6817 -5.136,-5.4838 -1.071,-0.306 -2.166,-0.4525 -3.278,-0.4582 -2.638,-0.012 -5.276,-0.0161 -7.914,-0.0209 -0.825,-0.0016 -1.651,0.0056 -2.477,0.0097 -0.614,0.0027 -0.924,0.3202 -0.931,0.9526 0,0.0604 -0.002,0.1208 -0.002,0.1812 0,2.435 0,4.8701 0,7.3052 z"
     fill="#df5f4d"
     id="path2" />
  <path
     d="m 39.342,43.1494 c -1.088,0 -2.1751,-0.0017 -3.263,0 -0.2837,0 -0.5626,-0.0258 -0.8398,-0.083 -0.6415,-0.132 -1.1049,-0.4872 -1.3249,-1.108 -0.174,-0.4928 -0.3159,-0.9969 -0.4601,-1.4994 -0.3296,-1.1467 -0.7624,-2.249 -1.3845,-3.2709 -0.9397,-1.5453 -2.2324,-2.6742 -3.9175,-3.3587 -1.6045,-0.6514 -3.2703,-0.9921 -4.9957,-1.0621 -1.6786,-0.0685 -3.3436,0.0113 -4.9635,0.5089 -2.7601,0.8487 -4.8498,2.4866 -6.0353,5.1689 -0.5157,1.1668 -0.8195,2.3972 -1.0073,3.6566 -0.1902,1.2755 -0.2337,2.5615 -0.2877,3.8491 -0.0943,2.2338 -0.0629,4.4675 -0.0572,6.7005 0.0048,1.8311 0.0274,3.6631 0.1136,5.4918 0.0854,1.7933 0.3804,3.5568 1.0114,5.2542 1.2161,3.2718 3.637,5.1496 6.954,5.9057 2.6345,0.6 5.281,0.4856 7.888,-0.2431 1.1718,-0.3278 2.2702,-0.8303 3.2574,-1.5477 1.2226,-0.8882 2.0535,-2.0864 2.6708,-3.4457 0.4255,-0.9381 0.7245,-1.9189 0.9791,-2.915 0.3836,-1.5034 0.8212,-1.8464 2.3653,-1.8488 2.2154,-0.0041 4.4316,0.0225 6.647,-0.0097 1.4482,-0.021 2.0042,0.6724 1.9043,2.0574 -0.4263,5.9097 -3.2945,10.3378 -8.2491,13.4501 -2.9407,1.848 -6.19,2.8626 -9.636,3.3095 -2.3306,0.302 -4.6669,0.3076 -6.9959,0.1852 C 16.6611,78.1358 13.6873,77.5021 10.8973,76.1879 6.95896,74.3326 4.02632,71.4732 2.22194,67.484 1.07193,64.9426 0.448981,62.274 0.199962,59.5064 0.0613487,57.9619 0.0202486,56.4142 0.0113839,54.8649 9.07309e-4,53.0128 0.0250843,51.1608 0.00413116,49.3087 -0.0152102,47.5573 0.0355614,45.8067 0.110509,44.0585 0.25154,40.7674 0.956692,37.5947 2.40326,34.6194 c 1.68915,-3.4747 4.23656,-6.1368 7.66884,-7.943 2.5289,-1.3311 5.231,-2.0647 8.0549,-2.4117 2.5901,-0.3181 5.1883,-0.3326 7.776,-0.0733 3.7538,0.3752 7.3102,1.439 10.5233,3.4617 3.9682,2.4979 6.6631,5.9533 7.7663,10.5673 0.2539,1.063 0.3345,2.1468 0.4014,3.2299 0.058,0.9413 -0.4521,1.5155 -1.3878,1.6556 -0.2176,0.033 -0.4408,0.0394 -0.6624,0.0402 -1.0678,0.0041 -2.1348,0.0016 -3.2026,0.0016 z"
     fill="#df5f4d"
     id="path3" />
  <path
     d="m 226.843,51.1721 c 0,8.3939 0,16.787 -0.002,25.181 0,0.3784 0.035,0.7585 -0.196,1.1088 -0.4,0.6031 -0.934,0.9107 -1.668,0.9019 -1.49,-0.0178 -2.981,-0.029 -4.471,-0.0153 -0.804,0.0072 -1.604,0.0781 -2.411,0.0016 -1.075,-0.1015 -1.647,-0.6627 -1.684,-1.7442 -0.009,-0.2617 -0.004,-0.5234 -0.004,-0.7851 0,-12.822 0,-25.644 -0.005,-38.4659 0,-0.2489 0.133,-0.5895 -0.138,-0.7256 -0.307,-0.1538 -0.496,0.1852 -0.704,0.3487 -3.463,2.729 -6.921,5.4652 -10.38,8.1982 -0.127,0.0999 -0.257,0.1965 -0.394,0.2803 -0.771,0.4718 -1.56,0.3849 -2.203,-0.2489 -0.418,-0.4114 -0.733,-0.9075 -1.09,-1.3681 -0.727,-0.9389 -1.438,-1.8907 -2.149,-2.8425 -0.131,-0.1764 -0.252,-0.3664 -0.342,-0.5661 -0.414,-0.9172 -0.207,-1.803 0.58,-2.4327 1.556,-1.2457 3.119,-2.4817 4.68,-3.7202 4.038,-3.2041 8.078,-6.4042 12.11,-9.6155 0.511,-0.4074 1.059,-0.6249 1.717,-0.6224 2.296,0.0104 4.592,0.0072 6.888,0 0.652,-0.0017 1.167,0.2383 1.566,0.7569 0.192,0.2496 0.309,0.5121 0.299,0.831 -0.007,0.2215 0,0.4429 0,0.6643 0,8.2933 0,16.5857 0,24.879 z"
     fill="#df5f4d"
     id="path4" />
  <path
     d="m 130.069,94.3379 c 0.123,-0.2569 0.077,-0.4808 0.077,-0.6974 0.004,-1.9124 0,-3.8249 0.004,-5.7374 0.001,-1.0106 0.135,-1.1386 1.156,-1.1458 1.075,-0.0073 1.183,0.0966 1.183,1.1515 0,3.2411 0,6.4822 0,9.7234 0,0.161 0.006,0.3229 -0.006,0.4831 -0.034,0.4832 -0.183,0.6458 -0.659,0.6957 -0.219,0.0234 -0.443,0.0041 -0.664,0.0145 -0.511,0.025 -0.882,-0.1803 -1.157,-0.6176 -0.472,-0.7497 -0.97,-1.4824 -1.456,-2.2233 -0.926,-1.4148 -1.851,-2.8312 -2.777,-4.2453 -0.086,-0.1304 -0.152,-0.2834 -0.345,-0.3655 -0.141,0.2077 -0.087,0.434 -0.088,0.6426 -0.005,1.8923 -0.002,3.7846 -0.004,5.677 -0.002,0.9695 -0.158,1.1249 -1.116,1.1313 -1.098,0.0065 -1.214,-0.1079 -1.214,-1.1909 0,-3.2613 0,-6.5225 0,-9.7838 0,-0.9695 0.112,-1.046 1.062,-1.0968 0.73,-0.0394 1.191,0.2328 1.579,0.8544 1.298,2.0848 2.643,4.1398 3.976,6.2029 0.117,0.1803 0.189,0.4034 0.449,0.5266 z"
     fill="#df5f4d"
     id="path5" />
  <path
     d="m 94.87,92.7906 c 0,-1.6105 -0.0024,-3.2202 8e-4,-4.8307 0.0024,-1.042 0.1539,-1.2079 1.1798,-1.199 1.5296,0.0129 3.0616,-0.0757 4.5884,0.0716 2.346,0.2271 3.695,1.4857 3.984,3.8008 0.194,1.559 0.187,3.1324 -0.058,4.6898 -0.144,0.9115 -0.496,1.7369 -1.204,2.3771 -0.721,0.6522 -1.601,0.9196 -2.532,1.0283 -1.6652,0.1941 -3.339,0.087 -5.0088,0.0813 -0.76,-0.0024 -0.9413,-0.2222 -0.9454,-1.0082 -0.0096,-1.67 -0.0032,-3.3409 -0.0032,-5.0118 h -8e-4 z m 7.352,0.0346 c 0,-0.6039 0.036,-1.2103 -0.007,-1.8102 -0.096,-1.3126 -0.851,-2.0405 -2.148,-2.1943 -0.7259,-0.0862 -1.4456,-0.0539 -2.1677,-0.0097 -0.4803,0.029 -0.5665,0.0999 -0.5681,0.5806 -0.0073,2.2749 -0.0073,4.5489 0,6.8237 0.0016,0.4638 0.0991,0.554 0.5859,0.5613 0.7043,0.0104 1.4111,0.0241 2.1139,-0.021 1.376,-0.0885 2.09,-0.8044 2.184,-2.179 0.04,-0.5806 0.006,-1.1668 0.006,-1.7506 z"
     fill="#df5f4d"
     id="path6" />
  <path
     d="m 120.481,9.40554 c 0,-1.56862 0,-3.13725 0,-4.70587 0,-0.18118 -0.004,-0.36317 0.012,-0.54274 0.049,-0.53549 0.216,-0.71989 0.754,-0.74485 0.603,-0.02819 1.207,-0.02336 1.811,-0.01208 1.125,0.02093 2.253,-0.07489 3.375,0.09421 0.521,0.07892 1.027,0.21098 1.5,0.44128 1.187,0.57736 1.847,1.51628 1.901,2.85058 0.017,0.42195 0.039,0.84712 -0.043,1.26344 -0.196,0.98642 -0.752,1.71276 -1.615,2.22169 -0.536,0.3156 -0.539,0.3301 -0.233,0.8753 0.572,1.0162 1.155,2.0268 1.734,3.039 0.04,0.0701 0.083,0.1369 0.124,0.207 0.438,0.7706 0.279,1.0766 -0.592,1.0886 -1.578,0.0218 -1.479,-0.066 -2.083,-1.1748 -0.49,-0.9011 -0.997,-1.7933 -1.46,-2.7081 -0.23,-0.4525 -0.557,-0.6643 -1.049,-0.6595 -0.382,0.0041 -0.765,-0.0161 -1.146,0.0129 -0.421,0.0322 -0.519,0.1426 -0.527,0.5726 -0.013,0.8648 -0.006,1.7296 -0.009,2.5945 0,0.2013 0.008,0.4026 -0.007,0.6031 -0.037,0.5355 -0.174,0.6724 -0.703,0.6869 -0.382,0.0104 -0.766,0.0145 -1.147,-0.0073 -0.365,-0.0209 -0.503,-0.1497 -0.564,-0.5081 -0.034,-0.1965 -0.032,-0.4002 -0.033,-0.6007 -0.002,-1.629 -10e-4,-3.258 -10e-4,-4.88706 z m 2.479,-2.22409 c 0,0 -0.004,0 -0.005,0 0,0.44127 -0.003,0.88255 0.001,1.32383 0.002,0.2923 0.158,0.44127 0.448,0.45174 0.843,0.0306 1.69,0.06039 2.526,-0.04993 0.909,-0.11917 1.418,-0.72311 1.455,-1.63707 0.042,-1.06292 -0.657,-1.83435 -1.755,-1.88508 -0.701,-0.03221 -1.405,-0.01772 -2.108,-0.00564 -0.425,0.00725 -0.529,0.10307 -0.558,0.53791 -0.027,0.41953 -0.005,0.84229 -0.005,1.26343 z"
     fill="#df5f4d"
     id="path7" />
  <path
     d="m 98.3484,9.39005 c 0,-1.62902 0,-3.25804 0,-4.88706 0,-0.18118 0.0024,-0.36236 0.0185,-0.54193 0.0298,-0.32693 0.2208,-0.50409 0.5432,-0.54435 0.0403,-0.00483 0.0798,-0.01208 0.12,-0.01127 1.7489,0.02657 3.5049,-0.13609 5.2439,0.11837 1.538,0.22547 2.789,0.90349 3.418,2.42863 0.177,0.43081 0.284,0.88255 0.341,1.34154 0.196,1.58473 0.188,3.17112 -0.09,4.74532 -0.354,2.0131 -1.659,3.1703 -3.697,3.3587 -1.648,0.1522 -3.298,0.0668 -4.9467,0.0854 -0.1394,0.0016 -0.2796,-0.0274 -0.419,-0.0451 -0.3272,-0.0419 -0.5045,-0.2287 -0.5231,-0.5581 -0.0104,-0.1803 -0.0104,-0.3615 -0.0113,-0.5427 0,-1.6492 0,-3.2983 0,-4.94745 z m 2.3696,0.22225 c 0,0 -0.004,0 -0.007,0 0,1.0645 -0.009,2.1283 0.004,3.1928 0.007,0.5089 0.103,0.608 0.602,0.6168 0.743,0.0129 1.488,0.0234 2.229,-0.0169 1.163,-0.0628 1.935,-0.7569 2.038,-1.9124 0.118,-1.3199 0.116,-2.65093 0,-3.97073 -0.111,-1.2586 -0.874,-1.94145 -2.14,-2.02117 -0.541,-0.03383 -1.084,-0.03222 -1.626,-0.03463 -1.047,-0.00483 -1.068,0.00161 -1.093,1.07501 -0.024,1.02347 -0.005,2.04774 -0.005,3.07202 z"
     fill="#df5f4d"
     id="path8" />
  <path
     d="m 83.275,9.42507 c -0.0072,0.72313 0.0403,1.44623 -0.0653,2.16933 -0.3562,2.4431 -1.7092,3.7702 -4.1632,4.0214 -0.6801,0.0701 -1.3652,0.0516 -2.0461,-0.0692 -2.2509,-0.3978 -3.5008,-1.6846 -3.7434,-3.949 -0.1628,-1.5227 -0.1716,-3.05106 0.0693,-4.57137 0.2861,-1.80698 1.2894,-3.00358 3.056,-3.51572 1.3522,-0.39215 2.7037,-0.36478 4.0366,0.11918 1.2999,0.47187 2.1606,1.36248 2.5692,2.68631 0.2216,0.71828 0.3111,1.45347 0.2885,2.20397 -0.0088,0.30196 -0.0016,0.60393 -0.0016,0.9059 z m -7.5874,0.06119 c 0,0.54274 -0.025,1.08704 0.0064,1.62744 0.0355,0.6079 0.1749,1.1982 0.5915,1.6757 0.7527,0.8608 1.7142,0.98 2.7562,0.7191 0.9679,-0.2432 1.4997,-0.9212 1.6504,-1.8722 C 80.9275,10.157 80.8944,8.66733 80.6599,7.19292 80.4826,6.07765 79.7775,5.46888 78.617,5.28528 77.2292,5.06545 76.0978,5.84171 75.7875,7.20338 75.615,7.96032 75.7061,8.72611 75.6876,9.48626 Z"
     fill="#df5f4d"
     id="path9" />
  <path
     d="M 67.4818,15.6351 C 66.2915,15.6592 65.1592,15.4402 64.1382,14.792 63.45,14.3555 62.9656,13.7572 62.74,12.9657 c -0.0387,-0.1353 -0.0718,-0.2746 -0.0822,-0.4131 -0.0282,-0.36 0.1023,-0.5532 0.4545,-0.5758 0.461,-0.0306 0.9252,-0.0177 1.3869,-0.0024 0.2885,0.0097 0.4811,0.2005 0.6117,0.438 0.4183,0.761 1.1025,1.0726 1.9212,1.1902 0.6319,0.091 1.2435,0.0048 1.8487,-0.1602 0.2757,-0.0757 0.515,-0.2247 0.7133,-0.4349 0.5463,-0.5798 0.4641,-1.3713 -0.1951,-1.8166 -0.4569,-0.3084 -0.9799,-0.463 -1.5038,-0.6104 C 67.1006,10.3575 66.3044,10.1433 65.5275,9.86061 65.0924,9.70198 64.6644,9.53127 64.276,9.27037 62.7529,8.2469 62.4837,5.97368 63.7312,4.61844 c 0.4312,-0.46865 0.9485,-0.82216 1.5497,-1.01703 1.5465,-0.50167 3.0898,-0.50408 4.5984,0.14978 0.7366,0.31968 1.3362,0.81894 1.748,1.52031 0.1016,0.17232 0.1966,0.35351 0.2595,0.54274 0.2514,0.7513 0.0395,1.05165 -0.7543,1.08869 C 70.9721,6.91018 70.8101,6.8973 70.6498,6.90938 70.0728,6.95044 69.6593,6.77248 69.3886,6.20398 69.0807,5.55736 68.4239,5.38665 67.7784,5.28036 67.1861,5.18373 66.6098,5.31015 66.0763,5.56944 65.285,5.95355 65.1601,6.944 65.8177,7.52781 c 0.3215,0.28506 0.71,0.45174 1.1193,0.57333 0.926,0.2754 1.8512,0.5516 2.7747,0.83263 0.2305,0.07006 0.4586,0.15139 0.6834,0.23997 1.1629,0.45818 1.9035,1.24406 1.9946,2.54696 0.0927,1.3206 -0.3828,2.3618 -1.5006,3.0849 -0.8325,0.5388 -1.7721,0.7489 -2.7456,0.827 -0.2201,0.0178 -0.4425,0.0025 -0.6641,0.0025 z"
     fill="#df5f4d"
     id="path10" />
  <path
     d="m 159.576,15.649 c -1.563,8e-4 -2.847,-0.2488 -3.94,-1.1306 -0.537,-0.4324 -0.876,-0.9985 -1.059,-1.6507 -0.183,-0.6474 0.021,-0.9027 0.692,-0.9148 0.302,-0.0056 0.604,0.0065 0.906,0 0.329,-0.0072 0.6,0.1039 0.759,0.3978 0.64,1.1813 1.737,1.3335 2.908,1.2715 0.459,-0.0242 0.915,-0.1353 1.32,-0.3914 0.896,-0.5677 0.876,-1.6169 -0.046,-2.1339 -0.442,-0.248 -0.926,-0.3889 -1.408,-0.5338 -0.886,-0.2674 -1.797,-0.455 -2.654,-0.81496 -0.204,-0.08536 -0.402,-0.1836 -0.6,-0.28184 -2.217,-1.09675 -2.113,-4.29922 -0.114,-5.47247 0.62,-0.36397 1.28,-0.59427 1.986,-0.67319 1.499,-0.16749 2.94,-0.03462 4.206,0.89705 0.618,0.45497 1.071,1.03474 1.276,1.78282 0.163,0.59347 0.039,0.7827 -0.554,0.86081 -0.239,0.03141 -0.482,0.02658 -0.722,0.04429 -0.571,0.04026 -1.015,-0.09743 -1.258,-0.69654 -0.186,-0.45899 -0.637,-0.65547 -1.081,-0.80847 -0.742,-0.25526 -1.477,-0.17796 -2.18,0.13045 -0.9,0.39538 -1.024,1.43334 -0.259,2.05741 0.317,0.25849 0.691,0.40826 1.08,0.52341 0.946,0.27942 1.892,0.55965 2.836,0.84552 0.523,0.15863 1.017,0.38249 1.469,0.69331 0.576,0.3962 0.926,0.9309 1.063,1.6202 0.331,1.662 -0.436,3.1565 -2,3.8434 -0.899,0.3954 -1.849,0.5452 -2.625,0.5339 z"
     fill="#df5f4d"
     id="path11" />
  <path
     d="m 149.484,3.3966 c 1.026,0 2.052,-0.00161 3.078,0.00162 0.201,0 0.403,0.00805 0.601,0.03543 0.183,0.02576 0.366,0.10065 0.443,0.27942 0.198,0.46302 0.177,0.94133 0.015,1.40838 -0.056,0.16266 -0.222,0.22144 -0.387,0.25285 -0.317,0.05958 -0.637,0.08294 -0.96,0.08213 -1.308,-8e-4 -2.616,-0.00483 -3.924,0.00725 -0.692,0.00644 -0.75,0.0773 -0.754,0.77223 -0.003,0.52261 -0.013,1.04602 0.004,1.56863 0.017,0.5218 0.133,0.63212 0.659,0.63453 1.328,0.00725 2.656,0.00242 3.984,0.00242 1.001,0 1.252,0.29311 1.098,1.28518 -0.069,0.44293 -0.214,0.60233 -0.654,0.65543 -0.259,0.0314 -0.522,0.0242 -0.783,0.025 -1.187,0.0032 -2.375,-0.004 -3.562,0.0064 -0.675,0.0057 -0.73,0.0661 -0.739,0.7215 -0.008,0.5629 -0.01,1.1266 0.002,1.6895 0.011,0.5081 0.086,0.5926 0.609,0.5975 1.449,0.0136 2.898,0.0072 4.347,0.0096 0.201,0 0.403,-0.0072 0.602,0.0121 0.475,0.0459 0.624,0.2021 0.681,0.6828 0.003,0.0202 0.003,0.0403 0.005,0.0604 0.093,1.067 -0.109,1.2965 -1.183,1.2989 -2.073,0.0048 -4.145,0.0016 -6.218,0.0016 -0.04,0 -0.081,0 -0.121,-8e-4 -0.875,-0.0225 -1.05,-0.1884 -1.052,-1.0839 -0.006,-3.2983 -0.002,-6.59655 -0.001,-9.89485 0,-0.12079 0,-0.24158 0.014,-0.36156 0.065,-0.5685 0.226,-0.73519 0.815,-0.74324 1.127,-0.0153 2.254,-0.00403 3.381,-0.00403 0,-8e-4 0,-0.00161 0,-0.00242 z"
     fill="#df5f4d"
     id="path12" />
  <path
     d="m 159.65,98.9952 c -1.168,-0.0218 -2.106,-0.1305 -2.986,-0.5194 -0.853,-0.3769 -1.552,-0.9325 -1.927,-1.8207 -0.055,-0.1296 -0.11,-0.2609 -0.145,-0.3962 -0.177,-0.6909 0.01,-0.9413 0.713,-0.9606 0.201,-0.0057 0.404,0.0137 0.603,-0.0049 0.536,-0.0491 0.909,0.1345 1.192,0.6217 0.329,0.5645 0.872,0.8616 1.527,0.9767 0.836,0.1474 1.641,0.1241 2.413,-0.2673 0.472,-0.2391 0.747,-0.5975 0.757,-1.1394 0.011,-0.5347 -0.296,-0.8431 -0.735,-1.0799 -0.52,-0.2794 -1.081,-0.4348 -1.641,-0.5999 -0.676,-0.1989 -1.352,-0.397 -2.022,-0.6128 -0.287,-0.0918 -0.565,-0.2142 -0.836,-0.3454 -1.064,-0.5178 -1.689,-1.344 -1.739,-2.5518 -0.052,-1.2409 0.391,-2.2435 1.462,-2.9247 0.203,-0.1289 0.415,-0.2521 0.639,-0.3382 1.592,-0.6128 3.193,-0.6104 4.771,0.0282 0.886,0.3591 1.561,0.9856 1.961,1.873 0.082,0.182 0.148,0.3776 0.18,0.5733 0.069,0.4155 -0.081,0.6072 -0.501,0.6442 -0.261,0.0226 -0.525,-0.0072 -0.785,0.0169 -0.616,0.0572 -1.125,-0.0547 -1.343,-0.7279 -0.023,-0.0725 -0.089,-0.1337 -0.141,-0.1941 -0.705,-0.8028 -2.699,-0.8737 -3.459,-0.1248 -0.487,0.4791 -0.471,1.2441 0.043,1.7224 0.271,0.2521 0.6,0.4051 0.95,0.5106 0.906,0.2737 1.812,0.5443 2.721,0.81 0.446,0.1305 0.876,0.2988 1.29,0.5082 1.827,0.9244 2.252,3.3482 0.857,4.8588 -0.478,0.5178 -1.061,0.8665 -1.722,1.0774 -0.749,0.2384 -1.513,0.4252 -2.098,0.3858 z"
     fill="#df5f4d"
     id="path13" />
  <path
     d="m 92.7019,91.1746 c 0,1.0669 -0.0056,2.1339 0.0024,3.2009 0.0032,0.4058 -0.0411,0.8052 -0.1257,1.1982 -0.3578,1.6668 -1.3313,2.7604 -3.0052,3.1952 -1.2596,0.3277 -2.5184,0.306 -3.7562,-0.0765 -1.5425,-0.4759 -2.4701,-1.5348 -2.7852,-3.1155 -0.0862,-0.4332 -0.1329,-0.8737 -0.1313,-1.3198 0.0064,-2.1138 0,-4.2276 0.004,-6.3405 0.0016,-1.0501 0.1024,-1.1483 1.1274,-1.1532 0.1209,0 0.2418,-0.0016 0.3627,9e-4 0.7599,0.0185 0.9171,0.1554 0.9227,0.934 0.0137,2.0333 0.0049,4.0665 0.0081,6.099 0,0.5033 0.0089,1.0041 0.1442,1.4969 0.216,0.7884 0.7068,1.2989 1.4942,1.5075 0.5544,0.1465 1.121,0.1481 1.6746,0.0048 0.9139,-0.2359 1.4925,-0.9518 1.5989,-1.9769 0.0435,-0.4195 0.0419,-0.8439 0.0435,-1.2666 0.004,-1.8722 -8e-4,-3.7444 0.0032,-5.6158 0.0024,-1.0678 0.1169,-1.1781 1.1742,-1.1846 1.1693,-0.0072 1.2435,0.0637 1.2443,1.2103 0.0016,1.067 0,2.1339 0,3.2009 z"
     fill="#df5f4d"
     id="path14" />
  <path
     d="m 62.5891,92.7716 c 0,-1.5896 0,-3.1791 0,-4.7687 0,-0.1812 -0.0065,-0.3632 0.0096,-0.5427 0.0427,-0.4655 0.166,-0.5999 0.6198,-0.67 0.1781,-0.0274 0.361,-0.0314 0.5415,-0.0314 2.0333,-0.0024 4.0665,-0.004 6.0998,0 1.0347,0.0016 1.1427,0.1168 1.125,1.1443 -0.0129,0.7174 -0.1434,0.8745 -0.901,0.8865 -1.3684,0.0226 -2.7376,0.0097 -4.1068,0.0113 -0.6941,0.0011 -1.0417,0.3422 -1.0428,1.0235 0,0.4227 -0.0048,0.8455 0.0016,1.2674 0.0105,0.6225 0.0846,0.703 0.6947,0.7071 1.0871,0.0064 2.1743,0 3.2614,0.0016 0.3627,0 0.7253,-0.0073 1.0872,0.0153 0.4674,0.0298 0.6132,0.1715 0.6285,0.6321 0.0387,1.1354 -0.0153,1.2377 -1.1298,1.2256 -1.2685,-0.0129 -2.5369,-0.0073 -3.8046,0 -0.6407,0.0032 -0.7261,0.0926 -0.7366,0.7424 -0.0089,0.5427 -0.0056,1.0863 -0.0016,1.6298 0.0056,0.6636 0.0669,0.736 0.7197,0.7409 1.2483,0.0088 2.4966,0.0024 3.7441,0.0048 0.3425,0 0.6858,-0.0113 1.0259,0.0169 0.5263,0.0435 0.656,0.1941 0.677,0.7231 0.0072,0.1812 0.0072,0.3624 0,0.5436 -0.0234,0.558 -0.1564,0.711 -0.7253,0.7384 -0.5424,0.0266 -1.0872,0.0129 -1.6304,0.0137 -1.5706,8e-4 -3.1405,0 -4.7112,0 -0.1612,0 -0.3223,0.0032 -0.4827,-0.0032 -0.7801,-0.0306 -0.9582,-0.203 -0.9614,-0.9808 -0.0073,-1.6903 -0.0024,-3.3805 -0.0024,-5.0707 z"
     fill="#df5f4d"
     id="path15" />
  <path
     d="m 144.873,92.7706 c 0,-1.6902 -0.002,-3.3804 0.001,-5.0714 0.002,-0.7771 0.136,-0.9317 0.905,-0.9365 2.175,-0.0113 4.35,-0.0049 6.524,-8e-4 0.159,0 0.323,0.0193 0.478,0.0596 0.393,0.1006 0.486,0.3003 0.479,0.9727 -0.007,0.6732 -0.099,0.864 -0.512,0.9478 -0.235,0.0475 -0.48,0.0539 -0.721,0.0555 -1.288,0.0049 -2.577,0.0024 -3.866,0.0024 -0.161,0 -0.322,0.0033 -0.483,0.0057 -0.285,0.004 -0.463,0.1296 -0.464,0.4324 -0.003,0.7038 -0.006,1.4084 0.001,2.1122 0.004,0.3333 0.213,0.4469 0.52,0.4453 0.625,-0.0024 1.248,8e-4 1.873,0.0024 0.825,0.0024 1.651,-0.0024 2.477,0.0097 0.636,0.0088 0.777,0.1578 0.795,0.7867 0.002,0.0805 0.002,0.161 -0.002,0.2415 -0.03,0.666 -0.172,0.8222 -0.832,0.8278 -1.309,0.0113 -2.618,0.0041 -3.926,0.0057 -0.162,0 -0.323,0.0032 -0.483,0.0088 -0.235,0.0081 -0.382,0.1233 -0.399,0.364 -0.054,0.7835 -0.049,1.5686 -0.007,2.353 0.013,0.2407 0.146,0.3663 0.383,0.3792 0.181,0.0097 0.362,0.0137 0.543,0.0137 1.37,0.0016 2.739,-0.0048 4.108,0.0032 1.073,0.0065 1.322,0.3101 1.148,1.3706 -0.072,0.4453 -0.167,0.5548 -0.601,0.6224 -0.217,0.0338 -0.441,0.0387 -0.661,0.0387 -2.014,0.0024 -4.027,0.004 -6.041,0 -1.162,-0.0024 -1.237,-0.0822 -1.237,-1.224 0,-1.6097 0,-3.2202 0,-4.8299 z"
     fill="#df5f4d"
     id="path16" />
  <path
     d="m 118.505,15.4876 c -0.161,-0.008 -0.322,-0.0161 -0.482,-0.0249 -0.38,-0.0226 -0.634,-0.1989 -0.763,-0.5717 -0.153,-0.4365 -0.349,-0.8576 -0.501,-1.2933 -0.122,-0.3486 -0.333,-0.5282 -0.711,-0.5266 -1.368,0.0056 -2.736,0.0056 -4.105,0 -0.354,-0.0016 -0.556,0.1683 -0.676,0.4872 -0.17,0.4517 -0.36,0.8954 -0.53,1.3472 -0.137,0.3647 -0.402,0.5403 -0.778,0.5644 -0.362,0.0234 -0.724,0.029 -1.084,-0.033 -0.506,-0.0878 -0.629,-0.2625 -0.467,-0.7448 0.192,-0.5718 0.42,-1.1306 0.631,-1.6959 1.048,-2.8063 2.097,-5.61338 3.146,-8.41968 0.064,-0.1699 0.139,-0.33498 0.194,-0.5073 0.15,-0.47027 0.484,-0.66675 0.96,-0.66594 0.422,0 0.845,0.01047 1.268,-0.00564 0.543,-0.02094 0.862,0.24319 1.042,0.73519 0.339,0.92523 0.688,1.84644 1.034,2.76925 0.93,2.48581 1.847,4.97722 2.799,7.45422 0.348,0.9035 0.106,1.0895 -0.736,1.1233 -0.08,0.0032 -0.161,0 -0.241,0 0,0.0032 0,0.0056 0,0.0089 z m -4.51,-9.37708 c -0.147,0.0298 -0.175,0.16186 -0.214,0.26815 -0.498,1.35765 -0.996,2.7153 -1.482,4.07693 -0.147,0.4139 -0.092,0.546 0.249,0.5524 0.943,0.0202 1.889,0.0178 2.833,0 0.315,-0.0056 0.384,-0.1272 0.33,-0.4324 -0.02,-0.1175 -0.062,-0.2327 -0.099,-0.347 -0.415,-1.28038 -0.888,-2.54059 -1.39,-3.78953 -0.05,-0.12401 -0.063,-0.27942 -0.227,-0.32935 z"
     fill="#df5f4d"
     id="path17" />
  <path
     d="m 116.061,86.7612 c 0.926,0.0016 1.55,0.429 1.871,1.282 1.17,3.1276 2.339,6.2568 3.504,9.386 0.091,0.2448 0.18,0.4936 0.231,0.748 0.071,0.3535 -0.052,0.5363 -0.412,0.6024 -0.438,0.0805 -0.882,0.0676 -1.323,0 -0.315,-0.0492 -0.486,-0.2642 -0.595,-0.5396 -0.164,-0.4114 -0.34,-0.8189 -0.48,-1.2376 -0.132,-0.3954 -0.354,-0.5758 -0.795,-0.5685 -1.308,0.0209 -2.618,0.0193 -3.926,-0.0073 -0.486,-0.0096 -0.74,0.1844 -0.88,0.6338 -0.125,0.4026 -0.308,0.7859 -0.458,1.1813 -0.127,0.3325 -0.358,0.5338 -0.714,0.5652 -0.402,0.0355 -0.807,0.0492 -1.206,-0.0104 -0.401,-0.0596 -0.513,-0.2352 -0.439,-0.6321 0.026,-0.1369 0.077,-0.2706 0.126,-0.4019 1.231,-3.2983 2.463,-6.5966 3.695,-9.8941 0.057,-0.1505 0.123,-0.2979 0.171,-0.4517 0.15,-0.4735 0.486,-0.6643 0.964,-0.6547 0.222,0.0049 0.443,0 0.664,0 z m -0.026,2.6574 c -0.061,0.07 -0.113,0.1087 -0.135,0.1602 -0.605,1.4261 -1.083,2.8981 -1.553,4.3725 -0.1,0.3149 -0.036,0.3913 0.315,0.405 0.543,0.021 1.086,0.0161 1.629,0.0153 0.402,0 0.806,0.0065 1.206,-0.0233 0.337,-0.0258 0.383,-0.1087 0.312,-0.4284 -0.025,-0.1168 -0.07,-0.2303 -0.112,-0.3438 -0.456,-1.245 -0.913,-2.4907 -1.376,-3.734 -0.054,-0.1449 -0.079,-0.3173 -0.288,-0.4244 z"
     fill="#df5f4d"
     id="path18" />
  <path
     d="m 140.798,10.4178 c 0,1.3069 0.006,2.6138 -0.002,3.92 -0.006,0.9485 -0.113,1.0903 -1.067,1.1209 -1.476,0.0475 -1.437,-0.1305 -1.45,-1.3376 -0.026,-2.4527 -0.008,-4.90553 -0.008,-7.35751 0,-0.12079 0,-0.24158 0,-0.36156 -0.006,-0.77867 -0.039,-0.80686 -0.82,-0.81894 -0.663,-0.00966 -1.328,0.04268 -1.989,-0.03784 -0.579,-0.07006 -0.671,-0.18118 -0.7,-0.76821 -0.063,-1.27954 0.031,-1.3802 1.307,-1.3802 2.333,0 4.666,-8e-4 6.999,0 1.194,0 1.306,0.11998 1.266,1.32303 -0.003,0.06039 -0.001,0.12078 -0.008,0.18037 -0.042,0.43323 -0.152,0.55723 -0.579,0.63937 -0.379,0.07328 -0.762,0.03865 -1.144,0.04348 -0.402,0.00483 -0.805,-0.00724 -1.207,0.00483 -0.511,0.0153 -0.593,0.09341 -0.596,0.60797 -0.007,1.20626 -0.002,2.41252 -0.001,3.61879 0,0.20132 0,0.40182 0,0.60312 z"
     fill="#df5f4d"
     id="path19" />
  <path
     d="m 137.418,93.7628 c 0,-1.3681 0.003,-2.7355 -0.002,-4.1036 -0.002,-0.6732 -0.056,-0.7263 -0.717,-0.7352 -0.624,-0.0088 -1.249,0.0049 -1.872,-0.0056 -0.789,-0.0129 -0.918,-0.1449 -0.936,-0.9083 -0.027,-1.1515 0.066,-1.2514 1.199,-1.2522 2.355,-0.0016 4.71,0 7.065,0 0.04,0 0.08,-0.0024 0.121,0 0.373,0.0266 0.838,-0.0934 1.051,0.2859 0.265,0.4694 0.198,1.0162 0.049,1.5267 -0.082,0.2778 -0.354,0.3173 -0.595,0.327 -0.543,0.0217 -1.086,0.0177 -1.63,0.0249 -0.262,0.0032 -0.523,0.0073 -0.785,0.0129 -0.293,0.0056 -0.442,0.1723 -0.468,0.4493 -0.02,0.2199 -0.022,0.4421 -0.022,0.6627 -0.002,2.5744 0,5.1496 -0.002,7.724 0,0.918 -0.123,1.0412 -1.037,1.0581 -0.182,0.0032 -0.363,0.004 -0.543,-0.0072 -0.664,-0.0419 -0.856,-0.2191 -0.869,-0.8939 -0.019,-1.046 -0.007,-2.092 -0.009,-3.138 0,-0.3423 0,-0.6837 0,-1.0259 z"
     fill="#df5f4d"
     id="path20" />
  <path
     d="m 75.6282,93.8116 c 0,-1.2063 0,-2.4134 0,-3.6196 0,-0.1409 8e-4,-0.2819 0,-0.422 -0.0096,-0.7666 -0.0749,-0.8374 -0.8196,-0.8463 -0.5633,-0.0064 -1.1266,0.0024 -1.6899,-0.0048 -0.2007,-0.0024 -0.4013,-0.025 -0.6004,-0.0492 -0.3046,-0.037 -0.4666,-0.2206 -0.4835,-0.5217 -0.0145,-0.2408 -0.0186,-0.4824 -0.0145,-0.7232 0.0121,-0.6909 0.1555,-0.8326 0.8591,-0.864 0.0805,-0.0032 0.1611,-0.0024 0.2417,-0.0024 2.4548,0 4.9095,0 7.3642,8e-4 0.1806,0 0.3635,-8e-4 0.5416,0.025 0.4287,0.0628 0.5609,0.1997 0.5875,0.6232 0.0177,0.2803 0.0177,0.5637 0,0.8439 -0.0282,0.4502 -0.1701,0.5927 -0.6302,0.6507 -0.1789,0.0225 -0.3611,0.0185 -0.5424,0.0193 -0.6036,0.0032 -1.2072,-0.0081 -1.8108,0.0064 -0.4827,0.0121 -0.5899,0.1273 -0.6254,0.6152 -0.0145,0.2006 -0.0072,0.4019 -0.0072,0.6032 0,2.4938 0,4.9877 0,7.4807 0,0.2013 -0.0049,0.4018 -0.0097,0.6032 -0.0089,0.3374 -0.1894,0.5041 -0.5182,0.5524 -0.361,0.0523 -0.7229,0.0555 -1.0839,0.0346 -0.5891,-0.0338 -0.731,-0.1884 -0.7535,-0.7819 -0.0057,-0.1409 -0.0024,-0.2818 -0.0024,-0.422 0,-1.2666 0,-2.5341 0,-3.8007 z"
     fill="#df5f4d"
     id="path21" />
  <path
     d="m 84.8014,9.39188 c 0,-1.60888 0,-3.21858 0,-4.82746 0,-0.18119 -0.0032,-0.36317 0.0145,-0.54274 0.0395,-0.40504 0.1604,-0.54918 0.5448,-0.59669 0.4198,-0.05234 0.8453,-0.05154 1.2652,0.00161 0.3546,0.04509 0.4868,0.19004 0.5303,0.54918 0.0242,0.1989 0.0169,0.40182 0.0169,0.60232 8e-4,2.57439 0,5.14957 0,7.724 0,0.1409 -0.0024,0.2818 0.0016,0.4227 0.0178,0.6096 0.0863,0.6837 0.7173,0.6869 1.3684,0.0064 2.7368,0 4.106,0.004 0.9969,0.0032 1.0944,0.1087 1.0766,1.1225 -0.0024,0.1208 -0.004,0.2416 -0.0169,0.3616 -0.0322,0.2939 -0.1845,0.488 -0.4875,0.5274 -0.2386,0.0306 -0.4795,0.0588 -0.7197,0.0588 -1.972,0.0048 -3.9448,0.0024 -5.9168,0.0024 -0.0806,0 -0.1612,8e-4 -0.2418,-0.0024 -0.7301,-0.033 -0.8849,-0.178 -0.8881,-0.9051 -0.0073,-1.7297 -0.0024,-3.4593 -0.0024,-5.18982 h -8e-4 z"
     fill="#df5f4d"
     id="path22" />
  <path
     d="m 133.781,9.41844 c 0,1.58956 0.003,3.17996 -0.001,4.76946 -0.003,1.1773 -0.157,1.323 -1.326,1.2997 -1.029,-0.0209 -1.188,-0.1691 -1.19,-1.2063 -0.007,-3.2202 -0.003,-6.43954 -0.003,-9.65973 0,-0.04026 0,-0.08052 0.002,-0.12079 0.03,-0.93892 0.177,-1.08708 1.097,-1.10158 0.161,-0.00241 0.322,-0.00161 0.483,0.00483 0.744,0.02658 0.925,0.18682 0.932,0.94295 0.014,1.69022 0.005,3.38043 0.005,5.07146 h 0.002 z"
     fill="#df5f4d"
     id="path23" />
  <path
     d="m 106.677,92.78 c 0,-1.629 0,-3.2588 0,-4.8879 0,-0.1811 0.004,-0.3623 0.01,-0.5427 0.01,-0.3366 0.197,-0.5154 0.52,-0.5556 0.461,-0.0572 0.923,-0.058 1.384,0.0072 0.329,0.0467 0.497,0.2432 0.53,0.5621 0.017,0.1796 0.019,0.3615 0.019,0.5419 0.001,3.2589 0.001,6.5177 0,9.7765 0,0.9736 -0.142,1.1153 -1.108,1.1427 -1.279,0.0362 -1.356,-0.0387 -1.356,-1.3367 0,-1.5687 0,-3.1381 0,-4.7067 z"
     fill="#df5f4d"
     id="path24" />
  <path
     d="m 93.9892,9.42876 c 0,-1.64915 0,-3.2983 0,-4.94664 0,-0.16105 8e-4,-0.3221 0.0081,-0.48235 0.0145,-0.32693 0.1821,-0.53066 0.5093,-0.57172 0.44,-0.05476 0.8841,-0.04912 1.3249,-0.00725 0.3183,0.0306 0.515,0.22144 0.5641,0.5371 0.0339,0.21742 0.0564,0.43886 0.0564,0.65869 0.0032,3.23791 0.0024,6.47501 0.0024,9.71291 0,0.0805 10e-5,0.1611 -0.004,0.2416 -0.0419,0.6909 -0.2256,0.8793 -0.93,0.9043 -0.3199,0.0112 -0.6455,0.004 -0.9622,-0.0395 -0.432,-0.0596 -0.5464,-0.194 -0.5625,-0.6377 -0.0178,-0.5025 -0.0073,-1.005 -0.0073,-1.5083 0,-1.2868 0,-2.5744 0,-3.86114 z"
     fill="#df5f4d"
     id="path25" />
  <path
     d="m 149.266,2.57944 c -0.201,0 -0.406,0.02416 -0.602,-0.00564 -0.312,-0.04751 -0.44,-0.26895 -0.266,-0.51616 0.473,-0.674 0.963,-1.337522 1.573,-1.899586 0.122,-0.1127347 0.278,-0.15702313 0.445,-0.15702313 0.523,0 1.046,-0.001610667 1.569,-8.05418e-4 0.19,0 0.366,0.037041748 0.443,0.239964548 0.082,0.217417 0.004,0.394572 -0.166,0.534685 -0.65,0.538715 -1.298,1.080645 -1.956,1.609695 -0.304,0.24399 -0.678,0.22144 -1.041,0.19487 z"
     fill="#df5f4d"
     id="path26" />
  <path
     d="m 66.5283,85.9107 c -0.253,-0.0354 -0.6262,0.091 -0.7914,-0.2174 -0.1918,-0.3583 0.1668,-0.5733 0.3546,-0.8157 0.2571,-0.3326 0.5311,-0.6531 0.793,-0.9824 0.2232,-0.2802 0.5061,-0.4622 0.8623,-0.4952 0.5198,-0.0475 1.0412,-0.0451 1.561,0 0.1757,0.0153 0.3723,0.0435 0.4497,0.2448 0.0798,0.2077 -0.058,0.3494 -0.1942,0.4646 -0.6117,0.5178 -1.2217,1.038 -1.8511,1.5324 -0.3063,0.2407 -0.5795,0.2746 -1.1831,0.2673 z"
     fill="#df5f4d"
     id="path27" />
</svg>
