<?xml version="1.0" encoding="UTF-8" standalone="no"?>
<svg
   width="226.843"
   height="54.416"
   viewBox="0 0 226.843 54.416"
   fill="none"
   version="1.1"
   id="svg4"
   sodipodi:docname="cop1.svg"
   inkscape:version="1.3.2 (091e20e, 2023-11-25, custom)"
   xmlns:inkscape="http://www.inkscape.org/namespaces/inkscape"
   xmlns:sodipodi="http://sodipodi.sourceforge.net/DTD/sodipodi-0.dtd"
   xmlns="http://www.w3.org/2000/svg"
   xmlns:svg="http://www.w3.org/2000/svg">
  <defs
     id="defs4" />
  <sodipodi:namedview
     id="namedview4"
     pagecolor="#ffffff"
     bordercolor="#000000"
     borderopacity="0.25"
     inkscape:showpageshadow="2"
     inkscape:pageopacity="0.0"
     inkscape:pagecheckerboard="0"
     inkscape:deskcolor="#d1d1d1"
     inkscape:zoom="3.8986784"
     inkscape:cx="173.90508"
     inkscape:cy="16.031073"
     inkscape:window-width="1920"
     inkscape:window-height="1009"
     inkscape:window-x="-8"
     inkscape:window-y="-8"
     inkscape:window-maximized="1"
     inkscape:current-layer="svg4" />
  <path
     d="m 48.3564,26.286728 c -0.0661,-2.0019 -0.0017,-4.135 0.1039,-6.2649 0.1564,-3.1582 0.7519,-6.231 2.1268,-9.1114 2.1549,-4.5125997 5.6363,-7.5668997 10.2976,-9.3126997 2.2025,-0.82450001 4.4832,-1.27950001 6.8259,-1.46390001 2.0131,-0.1578 4.0262,-0.178 6.0313,0.0266 4.1132,0.4187 7.9686,1.58550001 11.3316,4.09300001 2.5804,1.9238 4.4581,4.3967 5.7121,7.3495997 0.2281,0.5363 0.4255,1.087 0.6197,1.637 0.2386,0.6756 0.2313,0.6837 0.9268,0.6829 1.893,-0.0024 3.7885,-0.0661 5.6783,0.0072 1.1194,0.0435 2.0376,-0.2979 2.9186,-0.9204 1.004,-0.7078 2.009,-1.4132 3.073,-2.0316 3.103,-1.8013997 6.427,-2.8521997 10.025,-2.9874997 0.442,-0.0169 0.879,-0.1176 1.325,-0.0636 0.834,0.1023 1.32,0.5637 1.289,1.2377 -0.032,0.6876 -0.541,1.1514997 -1.36,1.1683997 -1.596,0.0322 -3.175,0.1844 -4.729,0.5564 -2.155,0.5162 -4.151,1.4027 -6.016,2.5945 -1.137,0.7263 -2.213,1.5429 -3.364,2.2499 -0.711,0.4364 -1.4717,0.6337 -2.2953,0.6329 -1.893,-0.0024 -3.786,-0.004 -5.6791,-0.0056 -0.1611,0 -0.3231,-0.0065 -0.4835,0.0048 -0.4166,0.029 -0.5053,0.116 -0.4352,0.5299 0.2805,1.6531 0.2998,3.3208 0.3602,4.9909 0.0831,2.2917 0.2467,4.5819 0.1757,6.876 -0.0781,2.5325 -0.0934,5.069 -0.3538,7.5935 -0.0394,0.3801 -0.0999,0.7577 -0.1418,1.1378 -0.0451,0.4107 -0.0161,0.4558 0.4046,0.4606 0.8453,0.0097 1.6915,-8e-4 2.5377,-8e-4 0.7455,0 1.4909,-0.0153 2.2355,0.0129 0.4828,0.0177 0.8374,-0.1562 1.1718,-0.4952 1.7552,-1.7748 3.5262,-3.5351 5.2932,-5.2986 0.413,-0.4123 0.825,-0.827 1.246,-1.2312 2.135,-2.0493 5.253,-1.6008 6.714,0.9639 0.039,0.07 0.079,0.1401 0.115,0.2118 0.118,0.2351 0.266,0.2045 0.428,0.0515 0.102,-0.0966 0.203,-0.1949 0.303,-0.2947 0.556,-0.554 1.116,-1.1048 1.667,-1.6645 2.092,-2.1218 5.447,-1.4365 6.717,0.9857 0.261,0.496 0.313,0.4976 0.733,0.0958 0.407,-0.3898 0.793,-0.8012 1.201,-1.1894 1.209,-1.1491 2.632,-1.4414 4.192,-0.9236 1.54,0.5122 2.489,1.6129 2.782,3.2089 0.263,1.4358 -0.133,2.7113 -1.149,3.7742 -0.473,0.4945 -0.971,0.9655 -1.445,1.4583 -0.295,0.3068 -0.285,0.3745 0.067,0.5871 0.31,0.1876 0.624,0.3688 0.897,0.6095 1.774,1.559 1.925,4.2735 0.299,5.9975 -0.952,1.0106 -1.955,1.9745 -2.937,2.9561 -1.795,1.7925 -3.585,3.5906 -5.391,5.3726 -1.58,1.5598 -4.023,1.6476 -5.708,0.2255 -0.502,-0.4236 -0.85,-0.9599 -1.129,-1.5493 -0.243,-0.5138 -0.254,-0.521 -0.82,-0.4075 -1.607,0.3229 -2.992,-0.0531 -4.118,-1.2755 -0.304,-0.3301 -0.524,-0.711 -0.717,-1.112 -0.256,-0.5323 -0.291,-0.5661 -0.883,-0.4397 -0.786,0.1675 -1.552,0.1723 -2.317,-0.1087 -1.006,-0.3696 -1.8,-0.9719 -2.268,-1.9584 -0.034,-0.0724 -0.072,-0.1441 -0.108,-0.2158 -0.333,-0.6651 -0.333,-0.6683 -1.092,-0.5363 -1.8348,0.3205 -3.291,-0.2754 -4.3411,-1.815 -0.5311,-0.7787 -0.6907,-1.6612 -0.6262,-2.5905 0.0446,-0.6437 -0.2619,-0.9663 -0.9195,-0.9679 -0.9469,-8e-4 -1.893,-0.0016 -2.84,0 -0.7801,0.0016 -0.7873,0.0016 -1.0178,0.7304 -0.4755,1.5026 -1.0831,2.9456 -1.8882,4.3024 -2.0171,3.4022 -4.9054,5.7696 -8.5827,7.1869 -2.2871,0.8817 -4.6621,1.3769 -7.1031,1.6088 -1.3064,0.124 -2.6184,0.1611 -3.9199,0.1538 -3.3799,-0.0177 -6.6993,-0.4871 -9.881,-1.7143 -4.8047,-1.8521 -8.0927,-5.218 -10.0002,-9.9658 -0.7705,-1.9173 -1.1968,-3.9191 -1.4523,-5.9653 -0.1829,-1.4607 -0.2304,-2.9254 -0.2474,-4.395 -0.0225,-1.9713 -0.1023,-3.9425 -0.0652,-6.0466 z m 33.5556,0.9389 c 0.0249,-2.6549 0.0241,-5.3106 -0.2378,-7.9567 -0.1837,-1.8561 -0.6036,-3.651 -1.4909,-5.3106 -1.1798,-2.2072 -2.9253,-3.7565 -5.3188,-4.5560997 -2.2074,-0.7368 -4.4671,-0.8415 -6.7405,-0.4783 -3.6378,0.5814 -6.2392,2.5292997 -7.6785,5.9676997 -0.7737,1.8472 -1.0855,3.7871 -1.1798,5.7632 -0.0854,1.7876 -0.1048,3.5785 -0.1161,5.3677 -0.008,1.3674 0.0452,2.7339 0.0661,4.1012 0.0161,1.0863 -0.0024,2.1741 0.0411,3.2588 0.0669,1.6709 0.2514,3.3305 0.7318,4.941 0.9606,3.221 2.968,5.4999 6.1626,6.6216 2.6981,0.947 5.4551,0.9768 8.1975,0.186 1.9809,-0.5717 3.6652,-1.6395 4.961,-3.2709 0.9309,-1.1717 1.4845,-2.5229 1.8842,-3.949 0.5972,-2.1347 0.6093,-4.3354 0.7068,-6.5217 0.0612,-1.3858 0.0113,-2.7757 0.0113,-4.1639 z m 30.089,21.8778 c 0.451,0.0161 0.896,-0.3543 1.317,-0.7755 4.53,-4.5247 9.061,-9.0477 13.589,-13.574 0.185,-0.1844 0.364,-0.3793 0.509,-0.5951 0.505,-0.7489 0.385,-1.7337 -0.265,-2.3063 -0.706,-0.6232 -1.651,-0.6345 -2.365,-0.0193 -0.198,0.1707 -0.38,0.36 -0.565,0.5452 -3.618,3.6147 -7.234,7.2303 -10.853,10.8435 -0.271,0.2697 -0.56,0.5201 -0.831,0.7899 -0.729,0.7231 -1.489,1.4156 -2.151,2.2024 -0.501,0.5942 -0.515,1.2634 -0.198,1.9229 0.314,0.6555 0.888,0.9615 1.814,0.9655 z m -7.691,-4.6793 c 0.003,0.7537 0.271,1.2803 0.884,1.6081 0.638,0.3406 1.275,0.3639 1.883,-0.0564 0.263,-0.182 0.507,-0.3986 0.734,-0.6249 3.534,-3.5254 7.064,-7.0548 10.592,-10.5858 0.184,-0.1836 0.361,-0.3825 0.503,-0.5991 0.503,-0.7698 0.393,-1.6821 -0.26,-2.3094 -0.604,-0.5814 -1.55,-0.6338 -2.277,-0.1063 -0.226,0.1643 -0.424,0.3696 -0.623,0.5677 -3.533,3.527 -7.063,7.0564 -10.593,10.585 -0.143,0.1425 -0.288,0.2826 -0.42,0.434 -0.29,0.331 -0.446,0.7143 -0.423,1.0871 z m 11.361,5.6883 c -0.024,0.7907 0.324,1.3286 1.009,1.6644 0.695,0.3406 1.329,0.2182 1.912,-0.2528 0.172,-0.1385 0.326,-0.3004 0.482,-0.4566 2.507,-2.5043 5.014,-5.0095 7.52,-7.5154 0.156,-0.1562 0.318,-0.31 0.454,-0.4839 0.528,-0.6724 0.496,-1.6629 -0.063,-2.2797 -0.62,-0.6845 -1.52,-0.8101 -2.295,-0.3044 -0.201,0.1313 -0.385,0.2923 -0.555,0.4622 -2.595,2.5881 -5.187,5.1794 -7.778,7.7707 -0.113,0.1135 -0.224,0.2319 -0.325,0.3575 -0.247,0.3092 -0.382,0.6595 -0.361,1.038 z m -5.68,-16.0486 c -0.015,-0.8979 -0.323,-1.4447 -0.944,-1.766 -0.641,-0.3325 -1.289,-0.2729 -1.88,0.153 -0.194,0.1402 -0.363,0.3181 -0.533,0.488 -2.022,2.018 -4.042,4.0375 -6.062,6.0571 -0.483,0.4832 -0.9805,0.955 -1.4454,1.4559 -0.6617,0.7143 -0.6738,1.7216 -0.0315,2.4004 0.5899,0.6233 1.5089,0.8745 2.3999,0.2344 0.21,-0.1514 0.395,-0.3423 0.58,-0.5267 2.349,-2.3448 4.696,-4.6913 7.043,-7.0386 0.156,-0.1563 0.313,-0.3141 0.454,-0.4832 0.28,-0.3366 0.43,-0.7239 0.418,-0.9751 z"
     fill="#df5f4d"
     id="path1" />
  <path
     d="m 166.531,0.03322829 c 3.303,0 6.607,-0.0096 9.909,0.0032 3.196,0.0121 6.305,0.5452 9.242,1.82230001 5.155,2.241 8.165,6.1698 9.061,11.7203997 0.161,0.9953 0.278,1.9978 0.295,3.0004 0.045,2.5687 -0.182,5.1093 -1.084,7.5435 -1.461,3.9409 -4.216,6.6466 -8.029,8.3191 -2.139,0.9381 -4.391,1.4438 -6.707,1.7031 -1.443,0.1618 -2.892,0.1924 -4.34,0.2045 -3.182,0.0274 -6.365,0.0064 -9.547,0.0105 -1.057,8e-4 -1.057,0.0072 -1.057,1.0734 0,5.4757 0,10.9505 -0.001,16.4262 0,0.302 0.009,0.6056 -0.023,0.9051 -0.103,0.9526 -0.729,1.5421 -1.682,1.5614 -1.246,0.025 -2.491,0.1546 -3.741,0.0169 -0.417,-0.0459 -0.843,-0.0137 -1.266,0.0322 -0.886,0.0959 -1.772,0 -2.652,-0.0773 -0.688,-0.0612 -1.099,-0.5419 -1.323,-1.1748 -0.116,-0.3278 -0.114,-0.6716 -0.113,-1.0154 0.002,-3.5834 10e-4,-7.166 10e-4,-10.7493 0,-0.1208 0.004,-0.2416 0,-0.3624 -0.016,-0.5234 -0.074,-0.5975 -0.596,-0.6007 -1.35,-0.0097 -2.699,0.0032 -4.048,-0.008 -0.462,-0.0041 -0.926,-0.0331 -1.386,-0.0862 -0.65,-0.0749 -1.093,-0.5701 -1.085,-1.1676 0.009,-0.5709 0.44,-1.0493 1.052,-1.1459 0.198,-0.0314 0.401,-0.0249 0.603,-0.0249 1.591,-0.0017 3.182,0.0016 4.773,-0.0025 0.654,-0.0016 0.685,-0.0306 0.685,-0.6804 0.003,-6.7432 0.003,-13.4871 0,-20.2303 0,-0.6417 -0.039,-0.678 -0.692,-0.6796 -1.43,-0.0048 -2.86,-0.0153 -4.29,0.0024 -1.073,0.0129 -2.052,-0.252 -3.006,-0.7537 -2.816,-1.4808 -5.534,-3.1397 -8.363,-4.5972 -1.995,-1.0274997 -4.047,-1.9155997 -6.245,-2.3906997 -3.466,-0.7497 -6.692,-0.1756 -9.553,1.9856997 -1.248,0.9421 -2.236,2.142 -3.042,3.4851 -1.784,2.9682 -3.567,5.9355 -5.35,8.9037 -0.072,0.1207 -0.146,0.2423 -0.204,0.3696 -0.107,0.2327 -0.059,0.4316 0.156,0.5805 0.687,0.4735 1.422,0.8399 2.26,0.9543 0.569,0.0781 1.083,-0.0765 1.509,-0.4655 0.342,-0.3124 0.686,-0.6264 0.988,-0.9743 1.824,-2.1009 3.817,-4.0375 5.793,-5.9895 0.644,-0.6361 1.257,-1.3061 1.954,-1.8875 0.928,-0.7738 2.361,-0.868 3.378,-0.2109 0.999,0.6466 1.931,1.3818 2.806,2.1902 1.91,1.766 3.617,3.7251 5.369,5.6424 1.521,1.6645 3.035,3.3346 4.55,5.0038 0.704,0.7755 1.407,1.5509 2.103,2.3328 0.812,0.9124 1.195,1.9858 1.193,3.2057 -0.004,2.6574 0.004,5.3147 -0.003,7.9712 -0.002,1.0895 -0.23,2.1162 -0.908,3.0076 -1.04,1.3657 -2.738,1.9415 -4.482,1.4873 -0.763,-0.1981 -0.673,-0.2746 -0.983,0.4912 -0.849,2.1009 -2.942,3.1155 -5.128,2.4963 -0.117,-0.033 -0.233,-0.0677 -0.349,-0.1015 -0.19,-0.0548 -0.312,0.0274 -0.382,0.1981 -0.07,0.1675 -0.124,0.3406 -0.195,0.5073 -1.088,2.5583 -4.181,3.3893 -6.412,1.7289 -0.305,-0.2271 -0.518,-0.5081 -0.592,-0.8794 -0.091,-0.4557 0.062,-0.839 0.411,-1.1321 0.353,-0.2948 0.755,-0.3769 1.183,-0.1812 0.2,0.0918 0.382,0.2246 0.573,0.3342 1.251,0.7166 2.62,0.0145 2.751,-1.4133 0.063,-0.6812 0.099,-1.3632 0.097,-2.0493 -0.009,-2.8586 -0.004,-5.7173 -0.004,-8.5751 0,-0.2214 -0.008,-0.4445 0.02,-0.6635 0.067,-0.542 0.441,-0.9116 0.983,-0.9945 0.485,-0.0741 1.013,0.2319 1.211,0.7118 0.141,0.3423 0.149,0.7046 0.148,1.0694 -0.002,2.3151 -0.001,4.6302 0,6.9445 0,0.2415 -0.008,0.4855 0.024,0.7231 0.126,0.9164 0.943,1.5863 1.867,1.5469 0.876,-0.0371 1.618,-0.7787 1.673,-1.6854 0.019,-0.3012 0.008,-0.604 0.008,-0.9059 0.002,-2.8385 -0.012,-5.677 0.012,-8.5147 0.007,-0.8206 -0.249,-1.4785 -0.829,-2.0542 -2.159,-2.1412 -4.303,-4.296 -6.453,-6.4468 -0.156,-0.1563 -0.321,-0.3085 -0.453,-0.4848 -0.351,-0.4727 -0.309,-1.133 0.082,-1.559 0.366,-0.3994 0.904,-0.4694 1.437,-0.19 0.217,0.1143 0.392,0.2794 0.564,0.4501 2.179,2.1782 4.357,4.3564 6.536,6.5338 1.064,1.0629 1.605,2.3135 1.567,3.8467 -0.05,2.0115 -0.005,4.0254 -0.015,6.0386 -0.003,0.6232 0.187,1.137 0.673,1.5436 0.96,0.8053 2.408,0.3946 2.796,-0.8012 0.088,-0.2706 0.121,-0.5484 0.121,-0.8326 -0.003,-2.758 -0.005,-5.516 0.001,-8.2732 0.002,-0.5717 -0.166,-1.0653 -0.548,-1.4905 -1.038,-1.1507 -2.07,-2.3078 -3.112,-3.4553 -2.314,-2.547 -4.627,-5.0964 -6.955,-7.6305 -1.147,-1.2482 -2.432,-2.3489 -3.787,-3.366 -0.112,-0.0845 -0.236,-0.1538 -0.357,-0.2279 -0.277,-0.1707 -0.538,-0.1344 -0.776,0.0749 -0.166,0.1458 -0.329,0.2972 -0.486,0.4542 -1.679,1.6805 -3.363,3.3563 -5.032,5.0489 -0.55,0.5588 -1.056,1.1612 -1.582,1.7434 -0.527,0.583 -1.05,1.1716 -1.682,1.6443 -1.033,0.773 -2.166,1.1056 -3.463,0.8221 -1.181,-0.2576 -2.264,-0.7046 -3.221,-1.447 -0.34,-0.2633 -0.617,-0.5822 -0.83,-0.9494 -0.475,-0.8149 -0.491,-1.6411 -0.01,-2.464 0.853,-1.46 1.704,-2.9207 2.562,-4.3782 1.143,-1.943 2.298,-3.8805 3.543,-5.7607 1.067,-1.6089 2.358,-3.0100997 3.965,-4.0995997 2.126,-1.4422 4.5,-2.0888 7.048,-2.2305 2.345,-0.1296 4.557,0.3954 6.727,1.2063 2.821,1.0548 5.451,2.4938 8.059,3.9834997 1.415,0.8093 2.845,1.5944 4.269,2.3884 0.485,0.2706 1.009,0.3946 1.564,0.3938 1.511,-0.0033 3.022,-0.0032 4.532,-0.0081 0.695,-0.0024 0.707,-0.0121 0.707,-0.715 0.003,-3.6034997 0,-7.2061997 0.003,-10.8096997 0,-0.2609 -0.005,-0.5258 0.032,-0.7827 0.13,-0.88820001 0.711,-1.44380001 1.603,-1.54370001 0.219,-0.0249 0.442,-0.0177 0.664,-0.0177 3.585,-8e-4 7.17,0 10.755,0 z M 164.155,17.086028 c -0.009,0 -0.017,0 -0.026,0 0,1.811 -0.001,3.6228 0,5.4338 0.001,0.8656 0.001,1.7305 0.02,2.5961 0.009,0.4614 0.075,0.5097 0.532,0.5387 0.08,0.0049 0.161,0.0041 0.241,0.0041 3.686,0 7.37,-0.0041 11.056,0.0016 0.955,0.0016 1.886,-0.1426 2.797,-0.4164 2.625,-0.7915 4.421,-2.4229 5.092,-5.1415 0.451,-1.8271 0.477,-3.6767 0.026,-5.5014 -0.685,-2.7693 -2.328,-4.6816997 -5.136,-5.4837997 -1.071,-0.306 -2.166,-0.4525 -3.278,-0.4582 -2.638,-0.012 -5.276,-0.0161 -7.914,-0.0209 -0.825,-0.0016 -1.651,0.0056 -2.477,0.0097 -0.614,0.0027 -0.924,0.3202 -0.931,0.9526 0,0.0604 -0.002,0.1208 -0.002,0.1812 0,2.4349997 0,4.8700997 0,7.3051997 z"
     fill="#df5f4d"
     id="path2" />
  <path
     d="m 39.342,19.139128 c -1.088,0 -2.1751,-0.0017 -3.263,0 -0.2837,0 -0.5626,-0.0258 -0.8398,-0.083 -0.6415,-0.132 -1.1049,-0.4872 -1.3249,-1.108 -0.174,-0.4928 -0.3159,-0.9969 -0.4601,-1.4994 -0.3296,-1.1467 -0.7624,-2.249 -1.3845,-3.2709 -0.9397,-1.5453 -2.2324,-2.6742 -3.9175,-3.3586997 -1.6045,-0.6514 -3.2703,-0.9921 -4.9957,-1.0621 -1.6786,-0.0685 -3.3436,0.0113 -4.9635,0.5089 -2.7601,0.8486997 -4.8498,2.4865997 -6.0353,5.1688997 -0.5157,1.1668 -0.8195,2.3972 -1.0073,3.6566 -0.1902,1.2755 -0.2337,2.5615 -0.2877,3.8491 -0.0943,2.2338 -0.0629,4.4675 -0.0572,6.7005 0.0048,1.8311 0.0274,3.6631 0.1136,5.4918 0.0854,1.7933 0.3804,3.5568 1.0114,5.2542 1.2161,3.2718 3.637,5.1496 6.954,5.9057 2.6345,0.6 5.281,0.4856 7.888,-0.2431 1.1718,-0.3278 2.2702,-0.8303 3.2574,-1.5477 1.2226,-0.8882 2.0535,-2.0864 2.6708,-3.4457 0.4255,-0.9381 0.7245,-1.9189 0.9791,-2.915 0.3836,-1.5034 0.8212,-1.8464 2.3653,-1.8488 2.2154,-0.0041 4.4316,0.0225 6.647,-0.0097 1.4482,-0.021 2.0042,0.6724 1.9043,2.0574 -0.4263,5.9097 -3.2945,10.3378 -8.2491,13.4501 -2.9407,1.848 -6.19,2.8626 -9.636,3.3095 -2.3306,0.302 -4.6669,0.3076 -6.9959,0.1852 -3.0543,-0.1594 -6.0281,-0.7931 -8.8181,-2.1073 -3.93834,-1.8553 -6.87098,-4.7147 -8.67536,-8.7039 -1.15001,-2.5414 -1.772959,-5.21 -2.021978,-7.9776 -0.1386133,-1.5445 -0.1797134,-3.0922 -0.1885781,-4.6415 -0.010476591,-1.8521 0.0137004,-3.7041 -0.00725274,-5.5562 -0.01934136,-1.7514 0.03143024,-3.502 0.10637784,-5.2502 0.141031,-3.2911 0.846183,-6.4638 2.292751,-9.4391 1.68915,-3.4746997 4.23656,-6.1367997 7.66884,-7.9429997 2.5289,-1.3311 5.231,-2.06470001 8.0549,-2.41170001 2.5901,-0.3181 5.1883,-0.3326 7.776,-0.0733 3.7538,0.3752 7.3102,1.43900001 10.5233,3.46170001 3.9682,2.4979 6.6631,5.9533 7.7663,10.5672997 0.2539,1.063 0.3345,2.1468 0.4014,3.2299 0.058,0.9413 -0.4521,1.5155 -1.3878,1.6556 -0.2176,0.033 -0.4408,0.0394 -0.6624,0.0402 -1.0678,0.0041 -2.1348,0.0016 -3.2026,0.0016 z"
     fill="#df5f4d"
     id="path3" />
  <path
     d="m 226.843,27.161828 c 0,8.3939 0,16.787 -0.002,25.181 0,0.3784 0.035,0.7585 -0.196,1.1088 -0.4,0.6031 -0.934,0.9107 -1.668,0.9019 -1.49,-0.0178 -2.981,-0.029 -4.471,-0.0153 -0.804,0.0072 -1.604,0.0781 -2.411,0.0016 -1.075,-0.1015 -1.647,-0.6627 -1.684,-1.7442 -0.009,-0.2617 -0.004,-0.5234 -0.004,-0.7851 0,-12.822 0,-25.644 -0.005,-38.4659 0,-0.2489 0.133,-0.5895 -0.138,-0.7256 -0.307,-0.1538 -0.496,0.1852 -0.704,0.3487 -3.463,2.729 -6.921,5.4652 -10.38,8.1982 -0.127,0.0999 -0.257,0.1965 -0.394,0.2803 -0.771,0.4718 -1.56,0.3849 -2.203,-0.2489 -0.418,-0.4114 -0.733,-0.9075 -1.09,-1.3681 -0.727,-0.9389 -1.438,-1.8907 -2.149,-2.8425 -0.131,-0.1764 -0.252,-0.3664 -0.342,-0.5661 -0.414,-0.9172 -0.207,-1.803 0.58,-2.4327 1.556,-1.2457 3.119,-2.4817 4.68,-3.7202 4.038,-3.2040997 8.078,-6.4041997 12.11,-9.61549971 0.511,-0.4074 1.059,-0.6249 1.717,-0.6224 2.296,0.0104 4.592,0.0072 6.888,0 0.652,-0.0017 1.167,0.2383 1.566,0.7569 0.192,0.24960001 0.309,0.51210001 0.299,0.83100001 -0.007,0.2215 0,0.4429 0,0.6643 0,8.2932997 0,16.5856997 0,24.8789997 z"
     fill="#df5f4d"
     id="path4" />
</svg>
