<svg width="227" height="99" viewBox="0 0 227 99" fill="none" xmlns="http://www.w3.org/2000/svg">
<path d="M48.3564 50.297C48.2903 48.2951 48.3547 46.162 48.4603 44.0321C48.6167 40.8739 49.2122 37.8011 50.5871 34.9207C52.742 30.4081 56.2234 27.3538 60.8847 25.608C63.0872 24.7835 65.3679 24.3285 67.7106 24.1441C69.7237 23.9863 71.7368 23.9661 73.7419 24.1707C77.8551 24.5894 81.7105 25.7562 85.0735 28.2637C87.6539 30.1875 89.5316 32.6604 90.7856 35.6133C91.0137 36.1496 91.2111 36.7003 91.4053 37.2503C91.6439 37.9259 91.6366 37.934 92.3321 37.9332C94.2251 37.9308 96.1206 37.8671 98.0104 37.9404C99.1298 37.9839 100.048 37.6425 100.929 37.02C101.933 36.3122 102.938 35.6068 104.002 34.9884C107.105 33.187 110.429 32.1362 114.027 32.0009C114.469 31.984 114.906 31.8833 115.352 31.9373C116.186 32.0396 116.672 32.501 116.641 33.175C116.609 33.8626 116.1 34.3265 115.281 34.3434C113.685 34.3756 112.106 34.5278 110.552 34.8998C108.397 35.416 106.401 36.3025 104.536 37.4943C103.399 38.2206 102.323 39.0372 101.172 39.7442C100.461 40.1806 99.7003 40.3779 98.8767 40.3771C96.9837 40.3747 95.0907 40.3731 93.1976 40.3715C93.0365 40.3715 92.8745 40.365 92.7141 40.3763C92.2975 40.4053 92.2088 40.4923 92.2789 40.9062C92.5594 42.5593 92.5787 44.227 92.6391 45.8971C92.7222 48.1888 92.8858 50.479 92.8148 52.7731C92.7367 55.3056 92.7214 57.8421 92.461 60.3666C92.4216 60.7467 92.3611 61.1243 92.3192 61.5044C92.2741 61.9151 92.3031 61.9602 92.7238 61.965C93.5691 61.9747 94.4153 61.9642 95.2615 61.9642C96.007 61.9642 96.7524 61.9489 97.497 61.9771C97.9798 61.9948 98.3344 61.8209 98.6688 61.4819C100.424 59.7071 102.195 57.9468 103.962 56.1833C104.375 55.771 104.787 55.3563 105.208 54.9521C107.343 52.9028 110.461 53.3513 111.922 55.916C111.961 55.986 112.001 56.0561 112.037 56.1278C112.155 56.3629 112.303 56.3323 112.465 56.1793C112.567 56.0827 112.668 55.9844 112.768 55.8846C113.324 55.3306 113.884 54.7798 114.435 54.2201C116.527 52.0983 119.882 52.7836 121.152 55.2058C121.413 55.7018 121.465 55.7034 121.885 55.3016C122.292 54.9118 122.678 54.5004 123.086 54.1122C124.295 52.9631 125.718 52.6708 127.278 53.1886C128.818 53.7008 129.767 54.8015 130.06 56.3975C130.323 57.8333 129.927 59.1088 128.911 60.1717C128.438 60.6662 127.94 61.1372 127.466 61.63C127.171 61.9368 127.181 62.0045 127.533 62.2171C127.843 62.4047 128.157 62.5859 128.43 62.8266C130.204 64.3856 130.355 67.1001 128.729 68.8241C127.777 69.8347 126.774 70.7986 125.792 71.7802C123.997 73.5727 122.207 75.3708 120.401 77.1528C118.821 78.7126 116.378 78.8004 114.693 77.3783C114.191 76.9547 113.843 76.4184 113.564 75.829C113.321 75.3152 113.31 75.308 112.744 75.4215C111.137 75.7444 109.752 75.3684 108.626 74.146C108.322 73.8159 108.102 73.435 107.909 73.034C107.653 72.5017 107.618 72.4679 107.026 72.5943C106.24 72.7618 105.474 72.7666 104.709 72.4856C103.703 72.116 102.909 71.5137 102.441 70.5272C102.407 70.4548 102.369 70.3831 102.333 70.3114C102 69.6463 102 69.6431 101.241 69.7751C99.4062 70.0956 97.95 69.4997 96.8999 67.9601C96.3688 67.1814 96.2092 66.2989 96.2737 65.3696C96.3183 64.7259 96.0118 64.4033 95.3542 64.4017C94.4073 64.4009 93.4612 64.4001 92.5142 64.4017C91.7341 64.4033 91.7269 64.4033 91.4964 65.1321C91.0209 66.6347 90.4133 68.0777 89.6082 69.4345C87.5911 72.8367 84.7028 75.2041 81.0255 76.6214C78.7384 77.5031 76.3634 77.9983 73.9224 78.2302C72.616 78.3542 71.304 78.3913 70.0025 78.384C66.6226 78.3663 63.3032 77.8969 60.1215 76.6697C55.3168 74.8176 52.0288 71.4517 50.1213 66.7039C49.3508 64.7866 48.9245 62.7848 48.669 60.7386C48.4861 59.2779 48.4386 57.8132 48.4216 56.3436C48.3991 54.3723 48.3193 52.4011 48.3564 50.297ZM81.912 51.2359C81.9369 48.581 81.9361 45.9253 81.6742 43.2792C81.4905 41.4231 81.0706 39.6282 80.1833 37.9686C79.0035 35.7614 77.258 34.2121 74.8645 33.4125C72.6571 32.6757 70.3974 32.571 68.124 32.9342C64.4862 33.5156 61.8848 35.4635 60.4455 38.9019C59.6718 40.7491 59.36 42.689 59.2657 44.6651C59.1803 46.4527 59.1609 48.2436 59.1496 50.0328C59.1416 51.4002 59.1948 52.7667 59.2157 54.134C59.2318 55.2203 59.2133 56.3081 59.2568 57.3928C59.3237 59.0637 59.5082 60.7233 59.9886 62.3338C60.9492 65.5548 62.9566 67.8337 66.1512 68.9554C68.8493 69.9024 71.6063 69.9322 74.3487 69.1414C76.3296 68.5697 78.0139 67.5019 79.3097 65.8705C80.2406 64.6988 80.7942 63.3476 81.1939 61.9215C81.7911 59.7868 81.8032 57.5861 81.9007 55.3998C81.9619 54.014 81.912 52.6241 81.912 51.2359ZM112.001 73.1137C112.452 73.1298 112.897 72.7594 113.318 72.3382C117.848 67.8135 122.379 63.2905 126.907 58.7642C127.092 58.5798 127.271 58.3849 127.416 58.1691C127.921 57.4202 127.801 56.4354 127.151 55.8628C126.445 55.2396 125.5 55.2283 124.786 55.8435C124.588 56.0142 124.406 56.2035 124.221 56.3887C120.603 60.0034 116.987 63.619 113.368 67.2322C113.097 67.5019 112.808 67.7523 112.537 68.0221C111.808 68.7452 111.048 69.4377 110.386 70.2245C109.885 70.8187 109.871 71.4879 110.188 72.1474C110.502 72.8029 111.076 73.1089 112.002 73.1129L112.001 73.1137ZM104.31 68.4344C104.313 69.1881 104.581 69.7147 105.194 70.0425C105.832 70.3831 106.469 70.4064 107.077 69.9861C107.34 69.8041 107.584 69.5875 107.811 69.3612C111.345 65.8358 114.875 62.3064 118.403 58.7754C118.587 58.5918 118.764 58.3929 118.906 58.1763C119.409 57.4065 119.299 56.4942 118.646 55.8669C118.042 55.2855 117.096 55.2331 116.369 55.7606C116.143 55.9249 115.945 56.1302 115.746 56.3283C112.213 59.8553 108.683 63.3847 105.153 66.9133C105.01 67.0558 104.865 67.1959 104.733 67.3473C104.443 67.6783 104.287 68.0616 104.31 68.4344ZM115.671 74.1227C115.647 74.9134 115.995 75.4513 116.68 75.7871C117.375 76.1277 118.009 76.0053 118.592 75.5343C118.764 75.3958 118.918 75.2339 119.074 75.0777C121.581 72.5734 124.088 70.0682 126.594 67.5623C126.75 67.4061 126.912 67.2523 127.048 67.0784C127.576 66.406 127.544 65.4155 126.985 64.7987C126.365 64.1142 125.465 63.9886 124.69 64.4943C124.489 64.6256 124.305 64.7866 124.135 64.9565C121.54 67.5446 118.948 70.1359 116.357 72.7272C116.244 72.8407 116.133 72.9591 116.032 73.0847C115.785 73.3939 115.65 73.7442 115.671 74.1227H115.671ZM109.991 58.0741C109.976 57.1762 109.668 56.6294 109.047 56.3081C108.406 55.9756 107.758 56.0352 107.167 56.4611C106.973 56.6013 106.804 56.7792 106.634 56.9491C104.612 58.9671 102.592 60.9866 100.572 63.0062C100.089 63.4894 99.5915 63.9612 99.1266 64.4621C98.4649 65.1764 98.4528 66.1837 99.0951 66.8625C99.685 67.4858 100.604 67.737 101.495 67.0969C101.705 66.9455 101.89 66.7546 102.075 66.5702C104.424 64.2254 106.771 61.8789 109.118 59.5316C109.274 59.3753 109.431 59.2175 109.572 59.0484C109.852 58.7118 110.002 58.3245 109.99 58.0733L109.991 58.0741Z" fill="#DF5F4D"/>
<path d="M166.531 24.0435C169.834 24.0435 173.138 24.0339 176.44 24.0467C179.636 24.0588 182.745 24.5919 185.682 25.869C190.837 28.11 193.847 32.0388 194.743 37.5894C194.904 38.5847 195.021 39.5872 195.038 40.5898C195.083 43.1585 194.856 45.6991 193.954 48.1333C192.493 52.0742 189.738 54.7799 185.925 56.4524C183.786 57.3905 181.534 57.8962 179.218 58.1555C177.775 58.3173 176.326 58.3479 174.878 58.36C171.696 58.3874 168.513 58.3664 165.331 58.3705C164.274 58.3713 164.274 58.3777 164.274 59.4439C164.274 64.9196 164.274 70.3944 164.273 75.8701C164.273 76.1721 164.282 76.4757 164.25 76.7752C164.147 77.7278 163.521 78.3173 162.568 78.3366C161.322 78.3616 160.077 78.4912 158.827 78.3535C158.41 78.3076 157.984 78.3398 157.561 78.3857C156.675 78.4816 155.789 78.3857 154.909 78.3084C154.221 78.2472 153.81 77.7665 153.586 77.1336C153.47 76.8058 153.472 76.462 153.473 76.1182C153.475 72.5348 153.474 68.9522 153.474 65.3689C153.474 65.2481 153.478 65.1273 153.474 65.0065C153.458 64.4831 153.4 64.409 152.878 64.4058C151.528 64.3961 150.179 64.409 148.83 64.3978C148.368 64.3937 147.904 64.3647 147.444 64.3116C146.794 64.2367 146.351 63.7415 146.359 63.144C146.368 62.5731 146.799 62.0947 147.411 61.9981C147.609 61.9667 147.812 61.9732 148.014 61.9732C149.605 61.9715 151.196 61.9748 152.787 61.9707C153.441 61.9691 153.472 61.9401 153.472 61.2903C153.475 54.5471 153.475 47.8032 153.472 41.06C153.472 40.4183 153.433 40.382 152.78 40.3804C151.35 40.3756 149.92 40.3651 148.49 40.3828C147.417 40.3957 146.438 40.1308 145.484 39.6291C142.668 38.1483 139.95 36.4894 137.121 35.0319C135.126 34.0044 133.074 33.1163 130.876 32.6412C127.41 31.8915 124.184 32.4656 121.323 34.6269C120.075 35.569 119.087 36.7689 118.281 38.112C116.497 41.0802 114.714 44.0475 112.931 47.0157C112.859 47.1364 112.785 47.258 112.727 47.3853C112.62 47.618 112.668 47.8169 112.883 47.9658C113.57 48.4393 114.305 48.8057 115.143 48.9201C115.712 48.9982 116.226 48.8436 116.652 48.4546C116.994 48.1422 117.338 47.8282 117.64 47.4803C119.464 45.3794 121.457 43.4428 123.433 41.4908C124.077 40.8547 124.69 40.1847 125.387 39.6033C126.315 38.8295 127.748 38.7353 128.765 39.3924C129.764 40.039 130.696 40.7742 131.571 41.5826C133.481 43.3486 135.188 45.3077 136.94 47.225C138.461 48.8895 139.975 50.5596 141.49 52.2288C142.194 53.0043 142.897 53.7797 143.593 54.5616C144.405 55.474 144.788 56.5474 144.786 57.7673C144.782 60.4247 144.79 63.082 144.783 65.7385C144.781 66.828 144.553 67.8547 143.875 68.7461C142.835 70.1118 141.137 70.6876 139.393 70.2334C138.63 70.0353 138.72 69.9588 138.41 70.7246C137.561 72.8255 135.468 73.8401 133.282 73.2209C133.165 73.1879 133.049 73.1532 132.933 73.1194C132.743 73.0646 132.621 73.1468 132.551 73.3175C132.481 73.485 132.427 73.6581 132.356 73.8248C131.268 76.3831 128.175 77.2141 125.944 75.5537C125.639 75.3266 125.426 75.0456 125.352 74.6743C125.261 74.2186 125.414 73.8353 125.763 73.5422C126.116 73.2474 126.518 73.1653 126.946 73.361C127.146 73.4528 127.328 73.5856 127.519 73.6952C128.77 74.4118 130.139 73.7097 130.27 72.2819C130.333 71.6007 130.369 70.9187 130.367 70.2326C130.358 67.374 130.363 64.5153 130.363 61.6575C130.363 61.4361 130.355 61.213 130.383 60.994C130.45 60.452 130.824 60.0824 131.366 59.9995C131.851 59.9254 132.379 60.2314 132.577 60.7113C132.718 61.0536 132.726 61.4159 132.725 61.7807C132.723 64.0958 132.724 66.4109 132.725 68.7252C132.725 68.9667 132.717 69.2107 132.749 69.4483C132.875 70.3647 133.692 71.0346 134.616 70.9952C135.492 70.9581 136.234 70.2165 136.289 69.3098C136.308 69.0086 136.297 68.7058 136.297 68.4039C136.299 65.5654 136.285 62.7269 136.309 59.8892C136.316 59.0686 136.06 58.4107 135.48 57.835C133.321 55.6938 131.177 53.539 129.027 51.3882C128.871 51.2319 128.706 51.0797 128.574 50.9034C128.223 50.4307 128.265 49.7704 128.656 49.3444C129.022 48.945 129.56 48.875 130.093 49.1544C130.31 49.2687 130.485 49.4338 130.657 49.6045C132.836 51.7827 135.014 53.9609 137.193 56.1383C138.257 57.2012 138.798 58.4518 138.76 59.985C138.71 61.9965 138.755 64.0104 138.745 66.0236C138.742 66.6468 138.932 67.1606 139.418 67.5672C140.378 68.3725 141.826 67.9618 142.214 66.766C142.302 66.4954 142.335 66.2176 142.335 65.9334C142.332 63.1754 142.33 60.4174 142.336 57.6602C142.338 57.0885 142.17 56.5949 141.788 56.1697C140.75 55.019 139.718 53.8619 138.676 52.7144C136.362 50.1674 134.049 47.618 131.721 45.0839C130.574 43.8357 129.289 42.735 127.934 41.7179C127.822 41.6334 127.698 41.5641 127.577 41.49C127.3 41.3193 127.039 41.3556 126.801 41.5649C126.635 41.7107 126.472 41.8621 126.315 42.0191C124.636 43.6996 122.952 45.3754 121.283 47.068C120.733 47.6268 120.227 48.2292 119.701 48.8114C119.174 49.3944 118.651 49.983 118.019 50.4557C116.986 51.2287 115.853 51.5613 114.556 51.2778C113.375 51.0202 112.292 50.5732 111.335 49.8308C110.995 49.5675 110.718 49.2486 110.505 48.8814C110.03 48.0665 110.014 47.2403 110.495 46.4174C111.348 44.9574 112.199 43.4967 113.057 42.0392C114.2 40.0962 115.355 38.1587 116.6 36.2785C117.667 34.6696 118.958 33.2684 120.565 32.1789C122.691 30.7367 125.065 30.0901 127.613 29.9484C129.958 29.8188 132.17 30.3438 134.34 31.1547C137.161 32.2095 139.791 33.6485 142.399 35.1382C143.814 35.9475 145.244 36.7326 146.668 37.5266C147.153 37.7972 147.677 37.9212 148.232 37.9204C149.743 37.9171 151.254 37.9172 152.764 37.9123C153.459 37.9099 153.471 37.9002 153.471 37.1973C153.474 33.5938 153.471 29.9911 153.474 26.3876C153.474 26.1267 153.469 25.8618 153.506 25.6049C153.636 24.7167 154.217 24.1611 155.109 24.0612C155.328 24.0363 155.551 24.0435 155.773 24.0435C159.358 24.0427 162.943 24.0435 166.528 24.0435H166.531ZM164.155 41.0963C164.146 41.0963 164.138 41.0963 164.129 41.0963C164.129 42.9073 164.128 44.7191 164.129 46.5301C164.13 47.3957 164.13 48.2606 164.149 49.1262C164.158 49.5876 164.224 49.6359 164.681 49.6649C164.761 49.6698 164.842 49.669 164.922 49.669C168.608 49.669 172.292 49.6649 175.978 49.6706C176.933 49.6722 177.864 49.528 178.775 49.2542C181.4 48.4627 183.196 46.8313 183.867 44.1127C184.318 42.2856 184.344 40.436 183.893 38.6113C183.208 35.842 181.565 33.9296 178.757 33.1275C177.686 32.8215 176.591 32.675 175.479 32.6693C172.841 32.6573 170.203 32.6532 167.565 32.6484C166.74 32.6468 165.914 32.654 165.088 32.6581C164.474 32.6608 164.164 32.9783 164.157 33.6107C164.157 33.6711 164.155 33.7315 164.155 33.7919C164.155 36.2269 164.155 38.662 164.155 41.0971V41.0963Z" fill="#DF5F4D"/>
<path d="M39.342 43.1494C38.254 43.1494 37.1669 43.1477 36.079 43.1494C35.7953 43.1494 35.5164 43.1236 35.2392 43.0664C34.5977 42.9344 34.1343 42.5792 33.9143 41.9584C33.7403 41.4656 33.5984 40.9615 33.4542 40.459C33.1246 39.3123 32.6918 38.21 32.0697 37.1881C31.13 35.6428 29.8373 34.5139 28.1522 33.8294C26.5477 33.178 24.8819 32.8373 23.1565 32.7673C21.4779 32.6988 19.8129 32.7786 18.193 33.2762C15.4329 34.1249 13.3432 35.7628 12.1577 38.4451C11.642 39.6119 11.3382 40.8423 11.1504 42.1017C10.9602 43.3772 10.9167 44.6632 10.8627 45.9508C10.7684 48.1846 10.7998 50.4183 10.8055 52.6513C10.8103 54.4824 10.8329 56.3144 10.9191 58.1431C11.0045 59.9364 11.2995 61.6999 11.9305 63.3973C13.1466 66.6691 15.5675 68.5469 18.8845 69.303C21.519 69.903 24.1655 69.7886 26.7725 69.0599C27.9443 68.7321 29.0427 68.2296 30.0299 67.5122C31.2525 66.624 32.0834 65.4258 32.7007 64.0665C33.1262 63.1284 33.4252 62.1476 33.6798 61.1515C34.0634 59.6481 34.501 59.3051 36.0451 59.3027C38.2605 59.2986 40.4767 59.3252 42.6921 59.293C44.1403 59.272 44.6963 59.9654 44.5964 61.3504C44.1701 67.2601 41.3019 71.6882 36.3473 74.8005C33.4066 76.6485 30.1573 77.6631 26.7113 78.11C24.3807 78.412 22.0444 78.4176 19.7154 78.2952C16.6611 78.1358 13.6873 77.5021 10.8973 76.1879C6.95896 74.3326 4.02632 71.4732 2.22194 67.484C1.07193 64.9426 0.448981 62.274 0.199962 59.5064C0.0613487 57.9619 0.0202486 56.4142 0.0113839 54.8649C0.000907309 53.0128 0.0250843 51.1608 0.00413116 49.3087C-0.0152102 47.5573 0.0355614 45.8067 0.110509 44.0585C0.25154 40.7674 0.956692 37.5947 2.40326 34.6194C4.09241 31.1447 6.63982 28.4826 10.0721 26.6764C12.601 25.3453 15.3031 24.6117 18.127 24.2647C20.7171 23.9466 23.3153 23.9321 25.903 24.1914C29.6568 24.5666 33.2132 25.6304 36.4263 27.6531C40.3945 30.151 43.0894 33.6064 44.1926 38.2204C44.4465 39.2834 44.5271 40.3672 44.594 41.4503C44.652 42.3916 44.1419 42.9658 43.2062 43.1059C42.9886 43.1389 42.7654 43.1453 42.5438 43.1461C41.476 43.1502 40.409 43.1477 39.3412 43.1477L39.342 43.1494Z" fill="#DF5F4D"/>
<path d="M226.843 51.1721C226.843 59.566 226.843 67.9591 226.841 76.3531C226.841 76.7315 226.876 77.1116 226.645 77.4619C226.245 78.065 225.711 78.3726 224.977 78.3638C223.487 78.346 221.996 78.3348 220.506 78.3485C219.702 78.3557 218.902 78.4266 218.095 78.3501C217.02 78.2486 216.448 77.6874 216.411 76.6059C216.402 76.3442 216.407 76.0825 216.407 75.8208C216.407 62.9988 216.407 50.1768 216.402 37.3549C216.402 37.106 216.535 36.7654 216.264 36.6293C215.957 36.4755 215.768 36.8145 215.56 36.978C212.097 39.707 208.639 42.4432 205.18 45.1762C205.053 45.2761 204.923 45.3727 204.786 45.4565C204.015 45.9283 203.226 45.8414 202.583 45.2076C202.165 44.7962 201.85 44.3001 201.493 43.8395C200.766 42.9006 200.055 41.9488 199.344 40.997C199.213 40.8206 199.092 40.6306 199.002 40.4309C198.588 39.5137 198.795 38.6279 199.582 37.9982C201.138 36.7525 202.701 35.5165 204.262 34.278C208.3 31.0739 212.34 27.8738 216.372 24.6625C216.883 24.2551 217.431 24.0376 218.089 24.0401C220.385 24.0505 222.681 24.0473 224.977 24.0401C225.629 24.0384 226.144 24.2784 226.543 24.797C226.735 25.0466 226.852 25.3091 226.842 25.628C226.835 25.8495 226.842 26.0709 226.842 26.2923C226.842 34.5856 226.842 42.878 226.842 51.1713L226.843 51.1721Z" fill="#DF5F4D"/>
<path d="M130.069 94.3379C130.192 94.081 130.146 93.8571 130.146 93.6405C130.15 91.7281 130.146 89.8156 130.15 87.9031C130.151 86.8925 130.285 86.7645 131.306 86.7573C132.381 86.75 132.489 86.8539 132.489 87.9088C132.489 91.1499 132.489 94.391 132.489 97.6322C132.489 97.7932 132.495 97.9551 132.483 98.1153C132.449 98.5985 132.3 98.7611 131.824 98.811C131.605 98.8344 131.381 98.8151 131.16 98.8255C130.649 98.8505 130.278 98.6452 130.003 98.2079C129.531 97.4582 129.033 96.7255 128.547 95.9846C127.621 94.5698 126.696 93.1534 125.77 91.7393C125.684 91.6089 125.618 91.4559 125.425 91.3738C125.284 91.5815 125.338 91.8078 125.337 92.0164C125.332 93.9087 125.335 95.801 125.333 97.6934C125.331 98.6629 125.175 98.8183 124.217 98.8247C123.119 98.8312 123.003 98.7168 123.003 97.6338C123.003 94.3725 123.003 91.1113 123.003 87.85C123.003 86.8805 123.115 86.804 124.065 86.7532C124.795 86.7138 125.256 86.986 125.644 87.6076C126.942 89.6924 128.287 91.7474 129.62 93.8105C129.737 93.9908 129.809 94.2139 130.069 94.3371V94.3379Z" fill="#DF5F4D"/>
<path d="M94.87 92.7906C94.87 91.1801 94.8676 89.5704 94.8708 87.9599C94.8732 86.9179 95.0247 86.752 96.0506 86.7609C97.5802 86.7738 99.1122 86.6852 100.639 86.8325C102.985 87.0596 104.334 88.3182 104.623 90.6333C104.817 92.1923 104.81 93.7657 104.565 95.3231C104.421 96.2346 104.069 97.06 103.361 97.7002C102.64 98.3524 101.76 98.6198 100.829 98.7285C99.1638 98.9226 97.49 98.8155 95.8202 98.8098C95.0602 98.8074 94.8789 98.5876 94.8748 97.8016C94.8652 96.1316 94.8716 94.4607 94.8716 92.7898H94.8708L94.87 92.7906ZM102.222 92.8252C102.222 92.2213 102.258 91.6149 102.215 91.015C102.119 89.7024 101.364 88.9745 100.067 88.8207C99.3411 88.7345 98.6214 88.7668 97.8993 88.811C97.419 88.84 97.3328 88.9109 97.3312 89.3916C97.3239 91.6665 97.3239 93.9405 97.3312 96.2153C97.3328 96.6791 97.4303 96.7693 97.9171 96.7766C98.6214 96.787 99.3282 96.8007 100.031 96.7556C101.407 96.6671 102.121 95.9512 102.215 94.5766C102.255 93.996 102.221 93.4098 102.221 92.826L102.222 92.8252Z" fill="#DF5F4D"/>
<path d="M120.481 9.40554C120.481 7.83692 120.481 6.26829 120.481 4.69967C120.481 4.51849 120.477 4.3365 120.493 4.15693C120.542 3.62144 120.709 3.43704 121.247 3.41208C121.85 3.38389 122.454 3.38872 123.058 3.4C124.183 3.42093 125.311 3.32511 126.433 3.49421C126.954 3.57313 127.46 3.70519 127.933 3.93549C129.12 4.51285 129.78 5.45177 129.834 6.78607C129.851 7.20802 129.873 7.63319 129.791 8.04951C129.595 9.03593 129.039 9.76227 128.176 10.2712C127.64 10.5868 127.637 10.6013 127.943 11.1465C128.515 12.1627 129.098 13.1733 129.677 14.1855C129.717 14.2556 129.76 14.3224 129.801 14.3925C130.239 15.1631 130.08 15.4691 129.209 15.4811C127.631 15.5029 127.73 15.4151 127.126 14.3063C126.636 13.4052 126.129 12.513 125.666 11.5982C125.436 11.1457 125.109 10.9339 124.617 10.9387C124.235 10.9428 123.852 10.9226 123.471 10.9516C123.05 10.9838 122.952 11.0942 122.944 11.5242C122.931 12.389 122.938 13.2538 122.935 14.1187C122.935 14.32 122.943 14.5213 122.928 14.7218C122.891 15.2573 122.754 15.3942 122.225 15.4087C121.843 15.4191 121.459 15.4232 121.078 15.4014C120.713 15.3805 120.575 15.2517 120.514 14.8933C120.48 14.6968 120.482 14.4931 120.481 14.2926C120.479 12.6636 120.48 11.0346 120.48 9.40554H120.481ZM122.96 7.18145C122.96 7.18145 122.956 7.18145 122.955 7.18145C122.955 7.62272 122.952 8.064 122.956 8.50528C122.958 8.79758 123.114 8.94655 123.404 8.95702C124.247 8.98762 125.094 9.01741 125.93 8.90709C126.839 8.78792 127.348 8.18398 127.385 7.27002C127.427 6.2071 126.728 5.43567 125.63 5.38494C124.929 5.35273 124.225 5.36722 123.522 5.3793C123.097 5.38655 122.993 5.48237 122.964 5.91721C122.937 6.33674 122.959 6.7595 122.959 7.18064L122.96 7.18145Z" fill="#DF5F4D"/>
<path d="M98.3484 9.39005C98.3484 7.76103 98.3484 6.13201 98.3484 4.50299C98.3484 4.32181 98.3508 4.14063 98.3669 3.96106C98.3967 3.63413 98.5877 3.45697 98.9101 3.41671C98.9504 3.41188 98.9899 3.40463 99.0301 3.40544C100.779 3.43201 102.535 3.26935 104.274 3.52381C105.812 3.74928 107.063 4.4273 107.692 5.95244C107.869 6.38325 107.976 6.83499 108.033 7.29398C108.229 8.87871 108.221 10.4651 107.943 12.0393C107.589 14.0524 106.284 15.2096 104.246 15.398C102.598 15.5502 100.948 15.4648 99.2993 15.4834C99.1599 15.485 99.0197 15.456 98.8803 15.4383C98.5531 15.3964 98.3758 15.2096 98.3572 14.8802C98.3468 14.6999 98.3468 14.5187 98.3459 14.3375C98.3459 12.6883 98.3459 11.0392 98.3459 9.39005H98.3484ZM100.718 9.6123C100.718 9.6123 100.714 9.6123 100.711 9.6123C100.711 10.6768 100.702 11.7406 100.715 12.8051C100.722 13.314 100.818 13.4131 101.317 13.4219C102.06 13.4348 102.805 13.4453 103.546 13.405C104.709 13.3422 105.481 12.6481 105.584 11.4926C105.702 10.1727 105.7 8.84167 105.584 7.52187C105.473 6.26327 104.71 5.58042 103.444 5.5007C102.903 5.46687 102.36 5.46848 101.818 5.46607C100.771 5.46124 100.75 5.46768 100.725 6.54108C100.701 7.56455 100.72 8.58882 100.72 9.6131L100.718 9.6123Z" fill="#DF5F4D"/>
<path d="M83.275 9.42507C83.2678 10.1482 83.3153 10.8713 83.2097 11.5944C82.8535 14.0375 81.5005 15.3646 79.0465 15.6158C78.3664 15.6859 77.6813 15.6674 77.0004 15.5466C74.7495 15.1488 73.4996 13.862 73.257 11.5976C73.0942 10.0749 73.0854 8.54654 73.3263 7.02623C73.6124 5.21925 74.6157 4.02265 76.3823 3.51051C77.7345 3.11836 79.086 3.14573 80.4189 3.62969C81.7188 4.10156 82.5795 4.99217 82.9881 6.316C83.2097 7.03428 83.2992 7.76947 83.2766 8.51997C83.2678 8.82193 83.275 9.1239 83.275 9.42587V9.42507ZM75.6876 9.48626C75.6876 10.029 75.6626 10.5733 75.694 11.1137C75.7295 11.7216 75.8689 12.3119 76.2855 12.7894C77.0382 13.6502 77.9997 13.7694 79.0417 13.5085C80.0096 13.2653 80.5414 12.5873 80.6921 11.6363C80.9275 10.157 80.8944 8.66733 80.6599 7.19292C80.4826 6.07765 79.7775 5.46888 78.617 5.28528C77.2292 5.06545 76.0978 5.84171 75.7875 7.20338C75.615 7.96032 75.7061 8.72611 75.6876 9.48626Z" fill="#DF5F4D"/>
<path d="M67.4818 15.6351C66.2915 15.6592 65.1592 15.4402 64.1382 14.792C63.45 14.3555 62.9656 13.7572 62.74 12.9657C62.7013 12.8304 62.6682 12.6911 62.6578 12.5526C62.6296 12.1926 62.7601 11.9994 63.1123 11.9768C63.5733 11.9462 64.0375 11.9591 64.4992 11.9744C64.7877 11.9841 64.9803 12.1749 65.1109 12.4124C65.5292 13.1734 66.2134 13.485 67.0321 13.6026C67.664 13.6936 68.2756 13.6074 68.8808 13.4424C69.1565 13.3667 69.3958 13.2177 69.5941 13.0075C70.1404 12.4277 70.0582 11.6362 69.399 11.1909C68.9421 10.8825 68.4191 10.7279 67.8952 10.5805C67.1006 10.3575 66.3044 10.1433 65.5275 9.86061C65.0924 9.70198 64.6644 9.53127 64.276 9.27037C62.7529 8.2469 62.4837 5.97368 63.7312 4.61844C64.1624 4.14979 64.6797 3.79628 65.2809 3.60141C66.8274 3.09974 68.3707 3.09733 69.8793 3.75119C70.6159 4.07087 71.2155 4.57013 71.6273 5.2715C71.7289 5.44382 71.8239 5.62501 71.8868 5.81424C72.1382 6.56554 71.9263 6.86589 71.1325 6.90293C70.9721 6.91018 70.8101 6.8973 70.6498 6.90938C70.0728 6.95044 69.6593 6.77248 69.3886 6.20398C69.0807 5.55736 68.4239 5.38665 67.7784 5.28036C67.1861 5.18373 66.6098 5.31015 66.0763 5.56944C65.285 5.95355 65.1601 6.944 65.8177 7.52781C66.1392 7.81287 66.5277 7.97955 66.937 8.10114C67.863 8.37654 68.7882 8.65274 69.7117 8.93377C69.9422 9.00383 70.1703 9.08516 70.3951 9.17374C71.558 9.63192 72.2986 10.4178 72.3897 11.7207C72.4824 13.0413 72.0069 14.0825 70.8891 14.8056C70.0566 15.3444 69.117 15.5545 68.1435 15.6326C67.9234 15.6504 67.701 15.6351 67.4794 15.6351H67.4818Z" fill="#DF5F4D"/>
<path d="M159.576 15.649C158.013 15.6498 156.729 15.4002 155.636 14.5184C155.099 14.086 154.76 13.5199 154.577 12.8677C154.394 12.2203 154.598 11.965 155.269 11.9529C155.571 11.9473 155.873 11.9594 156.175 11.9529C156.504 11.9457 156.775 12.0568 156.934 12.3507C157.574 13.532 158.671 13.6842 159.842 13.6222C160.301 13.598 160.757 13.4869 161.162 13.2308C162.058 12.6631 162.038 11.6139 161.116 11.0969C160.674 10.8489 160.19 10.708 159.708 10.5631C158.822 10.2957 157.911 10.1081 157.054 9.74814C156.85 9.66278 156.652 9.56454 156.454 9.4663C154.237 8.36955 154.341 5.16708 156.34 3.99383C156.96 3.62986 157.62 3.39956 158.326 3.32064C159.825 3.15315 161.266 3.28602 162.532 4.21769C163.15 4.67266 163.603 5.25243 163.808 6.00051C163.971 6.59398 163.847 6.78321 163.254 6.86132C163.015 6.89273 162.772 6.8879 162.532 6.90561C161.961 6.94587 161.517 6.80818 161.274 6.20907C161.088 5.75008 160.637 5.5536 160.193 5.4006C159.451 5.14534 158.716 5.22264 158.013 5.53105C157.113 5.92643 156.989 6.96439 157.754 7.58846C158.071 7.84695 158.445 7.99672 158.834 8.11187C159.78 8.39129 160.726 8.67152 161.67 8.95739C162.193 9.11602 162.687 9.33988 163.139 9.6507C163.715 10.0469 164.065 10.5816 164.202 11.2709C164.533 12.9329 163.766 14.4274 162.202 15.1143C161.303 15.5097 160.353 15.6595 159.577 15.6482L159.576 15.649Z" fill="#DF5F4D"/>
<path d="M149.484 3.3966C150.51 3.3966 151.536 3.39499 152.562 3.39822C152.763 3.39822 152.965 3.40627 153.163 3.43365C153.346 3.45941 153.529 3.5343 153.606 3.71307C153.804 4.17609 153.783 4.6544 153.621 5.12145C153.565 5.28411 153.399 5.34289 153.234 5.3743C152.917 5.43388 152.597 5.45724 152.274 5.45643C150.966 5.45563 149.658 5.4516 148.35 5.46368C147.658 5.47012 147.6 5.54098 147.596 6.23591C147.593 6.75852 147.583 7.28193 147.6 7.80454C147.617 8.32634 147.733 8.43666 148.259 8.43907C149.587 8.44632 150.915 8.44149 152.243 8.44149C153.244 8.44149 153.495 8.7346 153.341 9.72667C153.272 10.1696 153.127 10.329 152.687 10.3821C152.428 10.4135 152.165 10.4063 151.904 10.4071C150.717 10.4103 149.529 10.4031 148.342 10.4135C147.667 10.4192 147.612 10.4796 147.603 11.135C147.595 11.6979 147.593 12.2616 147.605 12.8245C147.616 13.3326 147.691 13.4171 148.214 13.422C149.663 13.4356 151.112 13.4292 152.561 13.4316C152.762 13.4316 152.964 13.4244 153.163 13.4437C153.638 13.4896 153.787 13.6458 153.844 14.1265C153.847 14.1467 153.847 14.1668 153.849 14.1869C153.942 15.2539 153.74 15.4834 152.666 15.4858C150.593 15.4906 148.521 15.4874 146.448 15.4874C146.408 15.4874 146.367 15.4874 146.327 15.4866C145.452 15.4641 145.277 15.2982 145.275 14.4027C145.269 11.1044 145.273 7.80615 145.274 4.50785C145.274 4.38706 145.274 4.26627 145.288 4.14629C145.353 3.57779 145.514 3.4111 146.103 3.40305C147.23 3.38775 148.357 3.39902 149.484 3.39902C149.484 3.39822 149.484 3.39741 149.484 3.3966Z" fill="#DF5F4D"/>
<path d="M159.65 98.9952C158.482 98.9734 157.544 98.8647 156.664 98.4758C155.811 98.0989 155.112 97.5433 154.737 96.6551C154.682 96.5255 154.627 96.3942 154.592 96.2589C154.415 95.568 154.602 95.3176 155.305 95.2983C155.506 95.2926 155.709 95.312 155.908 95.2934C156.444 95.2443 156.817 95.4279 157.1 95.9151C157.429 96.4796 157.972 96.7767 158.627 96.8918C159.463 97.0392 160.268 97.0159 161.04 96.6245C161.512 96.3854 161.787 96.027 161.797 95.4851C161.808 94.9504 161.501 94.642 161.062 94.4052C160.542 94.1258 159.981 93.9704 159.421 93.8053C158.745 93.6064 158.069 93.4083 157.399 93.1925C157.112 93.1007 156.834 92.9783 156.563 92.8471C155.499 92.3293 154.874 91.5031 154.824 90.2953C154.772 89.0544 155.215 88.0518 156.286 87.3706C156.489 87.2417 156.701 87.1185 156.925 87.0324C158.517 86.4196 160.118 86.422 161.696 87.0606C162.582 87.4197 163.257 88.0462 163.657 88.9336C163.739 89.1156 163.805 89.3112 163.837 89.5069C163.906 89.9224 163.756 90.1141 163.336 90.1511C163.075 90.1737 162.811 90.1439 162.551 90.168C161.935 90.2252 161.426 90.1133 161.208 89.4401C161.185 89.3676 161.119 89.3064 161.067 89.246C160.362 88.4432 158.368 88.3723 157.608 89.1212C157.121 89.6003 157.137 90.3653 157.651 90.8436C157.922 91.0957 158.251 91.2487 158.601 91.3542C159.507 91.6279 160.413 91.8985 161.322 92.1642C161.768 92.2947 162.198 92.463 162.612 92.6724C164.439 93.5968 164.864 96.0206 163.469 97.5312C162.991 98.049 162.408 98.3977 161.747 98.6086C160.998 98.847 160.234 99.0338 159.649 98.9944L159.65 98.9952Z" fill="#DF5F4D"/>
<path d="M92.7019 91.1746C92.7019 92.2415 92.6963 93.3085 92.7043 94.3755C92.7075 94.7813 92.6632 95.1807 92.5786 95.5737C92.2208 97.2405 91.2473 98.3341 89.5734 98.7689C88.3138 99.0966 87.055 99.0749 85.8172 98.6924C84.2747 98.2165 83.3471 97.1576 83.032 95.5769C82.9458 95.1437 82.8991 94.7032 82.9007 94.2571C82.9071 92.1433 82.9007 90.0295 82.9047 87.9166C82.9063 86.8665 83.0071 86.7683 84.0321 86.7634C84.153 86.7634 84.2739 86.7618 84.3948 86.7643C85.1547 86.7828 85.3119 86.9197 85.3175 87.6983C85.3312 89.7316 85.3224 91.7648 85.3256 93.7973C85.3256 94.3006 85.3345 94.8014 85.4698 95.2942C85.6858 96.0826 86.1766 96.5931 86.964 96.8017C87.5184 96.9482 88.085 96.9498 88.6386 96.8065C89.5525 96.5706 90.1311 95.8547 90.2375 94.8296C90.281 94.4101 90.2794 93.9857 90.281 93.563C90.285 91.6908 90.2802 89.8186 90.2842 87.9472C90.2866 86.8794 90.4011 86.7691 91.4584 86.7626C92.6277 86.7554 92.7019 86.8263 92.7027 87.9729C92.7043 89.0399 92.7027 90.1068 92.7027 91.1738L92.7019 91.1746Z" fill="#DF5F4D"/>
<path d="M62.5891 92.7716C62.5891 91.182 62.5891 89.5925 62.5891 88.0029C62.5891 87.8217 62.5826 87.6397 62.5987 87.4602C62.6414 86.9947 62.7647 86.8603 63.2185 86.7902C63.3966 86.7628 63.5795 86.7588 63.76 86.7588C65.7933 86.7564 67.8265 86.7548 69.8598 86.7588C70.8945 86.7604 71.0025 86.8756 70.9848 87.9031C70.9719 88.6205 70.8414 88.7776 70.0838 88.7896C68.7154 88.8122 67.3462 88.7993 65.977 88.8009C65.2829 88.802 64.9353 89.1431 64.9342 89.8244C64.9342 90.2471 64.9294 90.6699 64.9358 91.0918C64.9463 91.7143 65.0204 91.7948 65.6305 91.7989C66.7176 91.8053 67.8048 91.7989 68.8919 91.8005C69.2546 91.8005 69.6172 91.7932 69.9791 91.8158C70.4465 91.8456 70.5923 91.9873 70.6076 92.4479C70.6463 93.5833 70.5923 93.6856 69.4778 93.6735C68.2093 93.6606 66.9409 93.6662 65.6732 93.6735C65.0325 93.6767 64.9471 93.7661 64.9366 94.4159C64.9277 94.9586 64.931 95.5022 64.935 96.0457C64.9406 96.7093 65.0019 96.7817 65.6547 96.7866C66.903 96.7954 68.1513 96.789 69.3988 96.7914C69.7413 96.7914 70.0846 96.7801 70.4247 96.8083C70.951 96.8518 71.0807 97.0024 71.1017 97.5314C71.1089 97.7126 71.1089 97.8938 71.1017 98.075C71.0783 98.633 70.9453 98.786 70.3764 98.8134C69.834 98.84 69.2892 98.8263 68.746 98.8271C67.1754 98.8279 65.6055 98.8271 64.0348 98.8271C63.8736 98.8271 63.7125 98.8303 63.5521 98.8239C62.772 98.7933 62.5939 98.6209 62.5907 97.8431C62.5834 96.1528 62.5883 94.4626 62.5883 92.7724L62.5891 92.7716Z" fill="#DF5F4D"/>
<path d="M144.873 92.7706C144.873 91.0804 144.871 89.3902 144.874 87.6992C144.876 86.9221 145.01 86.7675 145.779 86.7627C147.954 86.7514 150.129 86.7578 152.303 86.7619C152.462 86.7619 152.626 86.7812 152.781 86.8215C153.174 86.9221 153.267 87.1218 153.26 87.7942C153.253 88.4674 153.161 88.6582 152.748 88.742C152.513 88.7895 152.268 88.7959 152.027 88.7975C150.739 88.8024 149.45 88.7999 148.161 88.7999C148 88.7999 147.839 88.8032 147.678 88.8056C147.393 88.8096 147.215 88.9352 147.214 89.238C147.211 89.9418 147.208 90.6464 147.215 91.3502C147.219 91.6835 147.428 91.7971 147.735 91.7955C148.36 91.7931 148.983 91.7963 149.608 91.7979C150.433 91.8003 151.259 91.7955 152.085 91.8076C152.721 91.8164 152.862 91.9654 152.88 92.5943C152.882 92.6748 152.882 92.7553 152.878 92.8358C152.848 93.5018 152.706 93.658 152.046 93.6636C150.737 93.6749 149.428 93.6677 148.12 93.6693C147.958 93.6693 147.797 93.6725 147.637 93.6781C147.402 93.6862 147.255 93.8014 147.238 94.0421C147.184 94.8256 147.189 95.6107 147.231 96.3951C147.244 96.6358 147.377 96.7614 147.614 96.7743C147.795 96.784 147.976 96.788 148.157 96.788C149.527 96.7896 150.896 96.7832 152.265 96.7912C153.338 96.7977 153.587 97.1013 153.413 98.1618C153.341 98.6071 153.246 98.7166 152.812 98.7842C152.595 98.818 152.371 98.8229 152.151 98.8229C150.137 98.8253 148.124 98.8269 146.11 98.8229C144.948 98.8205 144.873 98.7407 144.873 97.5989C144.873 95.9892 144.873 94.3787 144.873 92.769L144.873 92.7706Z" fill="#DF5F4D"/>
<path d="M118.505 15.4876C118.344 15.4796 118.183 15.4715 118.023 15.4627C117.643 15.4401 117.389 15.2638 117.26 14.891C117.107 14.4545 116.911 14.0334 116.759 13.5977C116.637 13.2491 116.426 13.0695 116.048 13.0711C114.68 13.0767 113.312 13.0767 111.943 13.0711C111.589 13.0695 111.387 13.2394 111.267 13.5583C111.097 14.01 110.907 14.4537 110.737 14.9055C110.6 15.2702 110.335 15.4458 109.959 15.4699C109.597 15.4933 109.235 15.4989 108.875 15.4369C108.369 15.3491 108.246 15.1744 108.408 14.6921C108.6 14.1203 108.828 13.5615 109.039 12.9962C110.087 10.1899 111.136 7.38282 112.185 4.57652C112.249 4.40662 112.324 4.24154 112.379 4.06922C112.529 3.59895 112.863 3.40247 113.339 3.40328C113.761 3.40328 114.184 3.41375 114.607 3.39764C115.15 3.3767 115.469 3.64083 115.649 4.13283C115.988 5.05806 116.337 5.97927 116.683 6.90208C117.613 9.38789 118.53 11.8793 119.482 14.3563C119.83 15.2598 119.588 15.4458 118.746 15.4796C118.666 15.4828 118.585 15.4796 118.505 15.4796C118.505 15.4828 118.505 15.4852 118.505 15.4885V15.4876ZM113.995 6.11052C113.848 6.14032 113.82 6.27238 113.781 6.37867C113.283 7.73632 112.785 9.09397 112.299 10.4556C112.152 10.8695 112.207 11.0016 112.548 11.008C113.491 11.0282 114.437 11.0258 115.381 11.008C115.696 11.0024 115.765 10.8808 115.711 10.5756C115.691 10.4581 115.649 10.3429 115.612 10.2286C115.197 8.94822 114.724 7.68801 114.222 6.43907C114.172 6.31506 114.159 6.15965 113.995 6.10972V6.11052Z" fill="#DF5F4D"/>
<path d="M116.061 86.7612C116.987 86.7628 117.611 87.1902 117.932 88.0432C119.102 91.1708 120.271 94.3 121.436 97.4292C121.527 97.674 121.616 97.9228 121.667 98.1772C121.738 98.5307 121.615 98.7135 121.255 98.7796C120.817 98.8601 120.373 98.8472 119.932 98.7796C119.617 98.7304 119.446 98.5154 119.337 98.24C119.173 97.8286 118.997 97.4211 118.857 97.0024C118.725 96.607 118.503 96.4266 118.062 96.4339C116.754 96.4548 115.444 96.4532 114.136 96.4266C113.65 96.417 113.396 96.611 113.256 97.0604C113.131 97.463 112.948 97.8463 112.798 98.2417C112.671 98.5742 112.44 98.7755 112.084 98.8069C111.682 98.8424 111.277 98.8561 110.878 98.7965C110.477 98.7369 110.365 98.5613 110.439 98.1644C110.465 98.0275 110.516 97.8938 110.565 97.7625C111.796 94.4642 113.028 91.1659 114.26 87.8684C114.317 87.7179 114.383 87.5705 114.431 87.4167C114.581 86.9432 114.917 86.7524 115.395 86.762C115.617 86.7669 115.838 86.762 116.059 86.762L116.061 86.7612ZM116.035 89.4186C115.974 89.4886 115.922 89.5273 115.9 89.5788C115.295 91.0049 114.817 92.4769 114.347 93.9513C114.247 94.2662 114.311 94.3426 114.662 94.3563C115.205 94.3773 115.748 94.3724 116.291 94.3716C116.693 94.3716 117.097 94.3781 117.497 94.3483C117.834 94.3225 117.88 94.2396 117.809 93.9199C117.784 93.8031 117.739 93.6896 117.697 93.5761C117.241 92.3311 116.784 91.0854 116.321 89.8421C116.267 89.6972 116.242 89.5248 116.033 89.4177L116.035 89.4186Z" fill="#DF5F4D"/>
<path d="M140.798 10.4178C140.798 11.7247 140.804 13.0316 140.796 14.3378C140.79 15.2863 140.683 15.4281 139.729 15.4587C138.253 15.5062 138.292 15.3282 138.279 14.1211C138.253 11.6684 138.271 9.21557 138.271 6.76359C138.271 6.6428 138.271 6.52201 138.271 6.40203C138.265 5.62336 138.232 5.59517 137.451 5.58309C136.788 5.57343 136.123 5.62577 135.462 5.54525C134.883 5.47519 134.791 5.36407 134.762 4.77704C134.699 3.4975 134.793 3.39684 136.069 3.39684C138.402 3.39684 140.735 3.39604 143.068 3.39684C144.262 3.39684 144.374 3.51682 144.334 4.71987C144.331 4.78026 144.333 4.84065 144.326 4.90024C144.284 5.33347 144.174 5.45747 143.747 5.53961C143.368 5.61289 142.985 5.57826 142.603 5.58309C142.201 5.58792 141.798 5.57585 141.396 5.58792C140.885 5.60322 140.803 5.68133 140.8 6.19589C140.793 7.40215 140.798 8.60841 140.799 9.81468C140.799 10.016 140.799 10.2165 140.799 10.4178H140.798Z" fill="#DF5F4D"/>
<path d="M137.418 93.7628C137.418 92.3947 137.421 91.0273 137.416 89.6592C137.414 88.986 137.36 88.9329 136.699 88.924C136.075 88.9152 135.45 88.9289 134.827 88.9184C134.038 88.9055 133.909 88.7735 133.891 88.0101C133.864 86.8586 133.957 86.7587 135.09 86.7579C137.445 86.7563 139.8 86.7579 142.155 86.7579C142.195 86.7579 142.235 86.7555 142.276 86.7579C142.649 86.7845 143.114 86.6645 143.327 87.0438C143.592 87.5132 143.525 88.06 143.376 88.5705C143.294 88.8483 143.022 88.8878 142.781 88.8975C142.238 88.9192 141.695 88.9152 141.151 88.9224C140.889 88.9256 140.628 88.9297 140.366 88.9353C140.073 88.9409 139.924 89.1076 139.898 89.3846C139.878 89.6045 139.876 89.8267 139.876 90.0473C139.874 92.6217 139.876 95.1969 139.874 97.7713C139.874 98.6893 139.751 98.8125 138.837 98.8294C138.655 98.8326 138.474 98.8334 138.294 98.8222C137.63 98.7803 137.438 98.6031 137.425 97.9283C137.406 96.8823 137.418 95.8363 137.416 94.7903C137.416 94.448 137.416 94.1066 137.416 93.7644L137.418 93.7628Z" fill="#DF5F4D"/>
<path d="M75.6282 93.8116C75.6282 92.6053 75.6282 91.3982 75.6282 90.192C75.6282 90.0511 75.629 89.9101 75.6282 89.77C75.6186 89.0034 75.5533 88.9326 74.8086 88.9237C74.2453 88.9173 73.682 88.9261 73.1187 88.9189C72.918 88.9165 72.7174 88.8939 72.5183 88.8697C72.2137 88.8327 72.0517 88.6491 72.0348 88.348C72.0203 88.1072 72.0162 87.8656 72.0203 87.6248C72.0324 86.9339 72.1758 86.7922 72.8794 86.7608C72.9599 86.7576 73.0405 86.7584 73.1211 86.7584C75.5759 86.7584 78.0306 86.7584 80.4853 86.7592C80.6659 86.7592 80.8488 86.7584 81.0269 86.7842C81.4556 86.847 81.5878 86.9839 81.6144 87.4074C81.6321 87.6877 81.6321 87.9711 81.6144 88.2513C81.5862 88.7015 81.4443 88.844 80.9842 88.902C80.8053 88.9245 80.6231 88.9205 80.4418 88.9213C79.8382 88.9245 79.2346 88.9132 78.631 88.9277C78.1483 88.9398 78.0411 89.055 78.0056 89.5429C77.9911 89.7435 77.9984 89.9448 77.9984 90.1461C77.9984 92.6399 77.9984 95.1338 77.9984 97.6268C77.9984 97.8281 77.9935 98.0286 77.9887 98.23C77.9798 98.5674 77.7993 98.7341 77.4705 98.7824C77.1095 98.8347 76.7476 98.8379 76.3866 98.817C75.7975 98.7832 75.6556 98.6286 75.6331 98.0351C75.6274 97.8942 75.6307 97.7533 75.6307 97.6131C75.6307 96.3465 75.6307 95.079 75.6307 93.8124L75.6282 93.8116Z" fill="#DF5F4D"/>
<path d="M84.8014 9.39188C84.8014 7.783 84.8014 6.1733 84.8014 4.56442C84.8014 4.38323 84.7982 4.20125 84.8159 4.02168C84.8554 3.61664 84.9763 3.4725 85.3607 3.42499C85.7805 3.37265 86.206 3.37345 86.6259 3.4266C86.9805 3.47169 87.1127 3.61664 87.1562 3.97578C87.1804 4.17468 87.1731 4.3776 87.1731 4.5781C87.1739 7.15249 87.1731 9.72767 87.1731 12.3021C87.1731 12.443 87.1707 12.5839 87.1747 12.7248C87.1925 13.3344 87.261 13.4085 87.892 13.4117C89.2604 13.4181 90.6288 13.4117 91.998 13.4157C92.9949 13.4189 93.0924 13.5244 93.0746 14.5382C93.0722 14.659 93.0706 14.7798 93.0577 14.8998C93.0255 15.1937 92.8732 15.3878 92.5702 15.4272C92.3316 15.4578 92.0907 15.486 91.8505 15.486C89.8785 15.4908 87.9057 15.4884 85.9337 15.4884C85.8531 15.4884 85.7725 15.4892 85.6919 15.486C84.9618 15.453 84.807 15.308 84.8038 14.5809C84.7965 12.8512 84.8014 11.1216 84.8014 9.39108H84.8006L84.8014 9.39188Z" fill="#DF5F4D"/>
<path d="M133.781 9.41844C133.781 11.008 133.784 12.5984 133.78 14.1879C133.777 15.3652 133.623 15.5109 132.454 15.4876C131.425 15.4667 131.266 15.3185 131.264 14.2813C131.257 11.0611 131.261 7.84176 131.261 4.62157C131.261 4.58131 131.261 4.54105 131.263 4.50078C131.293 3.56186 131.44 3.4137 132.36 3.3992C132.521 3.39679 132.682 3.39759 132.843 3.40403C133.587 3.43061 133.768 3.59085 133.775 4.34698C133.789 6.0372 133.78 7.72741 133.78 9.41844H133.782H133.781Z" fill="#DF5F4D"/>
<path d="M106.677 92.78C106.677 91.151 106.677 89.5212 106.677 87.8921C106.677 87.711 106.681 87.5298 106.687 87.3494C106.697 87.0128 106.884 86.834 107.207 86.7938C107.668 86.7366 108.13 86.7358 108.591 86.801C108.92 86.8477 109.088 87.0442 109.121 87.3631C109.138 87.5427 109.14 87.7246 109.14 87.905C109.141 91.1639 109.141 94.4227 109.14 97.6815C109.14 98.6551 108.998 98.7968 108.032 98.8242C106.753 98.8604 106.676 98.7855 106.676 97.4875C106.676 95.9188 106.676 94.3494 106.676 92.7808L106.677 92.78Z" fill="#DF5F4D"/>
<path d="M93.9892 9.42876C93.9892 7.77961 93.9892 6.13046 93.9892 4.48212C93.9892 4.32107 93.99 4.16002 93.9973 3.99977C94.0118 3.67284 94.1794 3.46911 94.5066 3.42805C94.9466 3.37329 95.3907 3.37893 95.8315 3.4208C96.1498 3.4514 96.3465 3.64224 96.3956 3.9579C96.4295 4.17532 96.452 4.39676 96.452 4.61659C96.4552 7.8545 96.4544 11.0916 96.4544 14.3295C96.4544 14.41 96.4545 14.4906 96.4504 14.5711C96.4085 15.262 96.2248 15.4504 95.5204 15.4754C95.2005 15.4866 94.8749 15.4794 94.5582 15.4359C94.1262 15.3763 94.0118 15.2419 93.9957 14.7982C93.9779 14.2957 93.9884 13.7932 93.9884 13.2899C93.9884 12.0031 93.9884 10.7155 93.9884 9.42876H93.9892Z" fill="#DF5F4D"/>
<path d="M149.266 2.57944C149.065 2.57944 148.86 2.6036 148.664 2.5738C148.352 2.52629 148.224 2.30485 148.398 2.05764C148.871 1.38364 149.361 0.720118 149.971 0.158054C150.093 0.0453193 150.249 0.00103087 150.416 0.00103087C150.939 0.00103087 151.462 -0.000579797 151.985 0.000225452C152.175 0.000225452 152.351 0.0372672 152.428 0.24019C152.51 0.457607 152.432 0.634762 152.262 0.774875C151.612 1.31359 150.964 1.85552 150.306 2.38457C150.002 2.62856 149.628 2.60601 149.265 2.57944H149.266Z" fill="#DF5F4D"/>
<path d="M66.5283 85.9107C66.2753 85.8753 65.9021 86.0017 65.7369 85.6933C65.5451 85.335 65.9037 85.12 66.0915 84.8776C66.3486 84.545 66.6226 84.2245 66.8845 83.8952C67.1077 83.615 67.3906 83.433 67.7468 83.4C68.2666 83.3525 68.788 83.3549 69.3078 83.4C69.4835 83.4153 69.6801 83.4435 69.7575 83.6448C69.8373 83.8525 69.6995 83.9942 69.5633 84.1094C68.9516 84.6272 68.3416 85.1474 67.7122 85.6418C67.4059 85.8825 67.1327 85.9164 66.5291 85.9091L66.5283 85.9107Z" fill="#DF5F4D"/>
</svg>
