<?xml version="1.0" encoding="UTF-8" standalone="no"?>
<svg
   id="Calque_1"
   data-name="Calque 1"
   viewBox="0 0 411.90499 141.97099"
   version="1.1"
   sodipodi:docname="cosu.svg"
   width="411.905"
   height="141.97099"
   inkscape:version="1.3.2 (091e20e, 2023-11-25, custom)"
   xmlns:inkscape="http://www.inkscape.org/namespaces/inkscape"
   xmlns:sodipodi="http://sodipodi.sourceforge.net/DTD/sodipodi-0.dtd"
   xmlns="http://www.w3.org/2000/svg"
   xmlns:svg="http://www.w3.org/2000/svg">
  <sodipodi:namedview
     id="namedview40"
     pagecolor="#ffffff"
     bordercolor="#000000"
     borderopacity="0.25"
     inkscape:showpageshadow="2"
     inkscape:pageopacity="0.0"
     inkscape:pagecheckerboard="0"
     inkscape:deskcolor="#d1d1d1"
     showgrid="false"
     showguides="true"
     inkscape:zoom="2.8284271"
     inkscape:cx="162.45778"
     inkscape:cy="57.452426"
     inkscape:window-width="1920"
     inkscape:window-height="1009"
     inkscape:window-x="-8"
     inkscape:window-y="-8"
     inkscape:window-maximized="1"
     inkscape:current-layer="Calque_1" />
  <defs
     id="defs1">
    <style
       id="style1">.cls-1{fill:#1d2769;}.cls-2{fill:#e6332a;}</style>
  </defs>
  <path
     class="cls-1"
     d="m 133.94505,66.12 c 14,0 24.31,10.4 24.31,23.73 0,13.65 -10.26,24.31 -24.31,24.31 -14.05,0 -24.32,-10.66 -24.32,-24.34 0,-13.3 10.32,-23.7 24.32,-23.7 z m 0,37.64 c 7,0 12.55,-6 12.55,-13.91 0,-7.61 -5.59,-13.33 -12.55,-13.33 -6.96,0 -12.55,5.72 -12.55,13.3 0,8 5.55,13.94 12.55,13.94 z"
     id="path1" />
  <path
     class="cls-1"
     d="m 163.38505,79.9 h 10.79 v 5.66 a 17.82,17.82 0 0 1 -0.13,2.08 h 0.13 c 1.43,-4.55 5.65,-8.32 10.66,-8.32 a 7.6,7.6 0 0 1 1.3,0.13 V 90.5 a 11.7,11.7 0 0 0 -2.28,-0.2 c -2.66,0 -7,0.85 -8.64,5.85 a 15.19,15.19 0 0 0 -0.59,4.55 v 12.68 h -11.24 z"
     id="path2" />
  <path
     class="cls-1"
     d="m 206.21505,79.12 c 9.1,0 13.33,5.07 13.33,5.07 l -4.75,7.54 a 12.19,12.19 0 0 0 -7.86,-3.25 7.7,7.7 0 0 0 -8,8 8.09,8.09 0 0 0 8.39,8.32 c 4.68,0 9.16,-4 9.16,-4 l 4.1,7.86 a 20.15,20.15 0 0 1 -14.37,5.53 c -12,0 -18.65,-8.32 -18.65,-17.55 0,-9 6.63,-17.52 18.65,-17.52 z"
     id="path3" />
  <path
     class="cls-1"
     d="m 224.54505,66.9 h 11.25 v 14.69 c 0,1.69 -0.13,2.86 -0.13,2.86 h 0.13 c 1.88,-3.31 5.78,-5.33 10.2,-5.33 6.76,0 12,3.12 12,12.55 v 21.71 h -11.22 V 93.75 c 0,-3.12 -1.23,-4.42 -3.7,-4.42 a 6.75,6.75 0 0 0 -6.7,4.94 13.07,13.07 0 0 0 -0.58,4.29 v 14.82 h -11.25 z"
     id="path4" />
  <path
     class="cls-1"
     d="m 279.60505,79.12 c 9.88,0 15.47,6.89 15.47,16.19 0,1.1 -0.26,3.51 -0.26,3.51 h -21.13 c 0.85,4.09 4.23,6 7.8,6 4.81,0 9.23,-3.38 9.23,-3.38 l 4.16,7.86 a 22.57,22.57 0 0 1 -14.3,4.88 c -12,0 -18.39,-8.65 -18.39,-17.55 0,-9.81 6.63,-17.51 17.42,-17.51 z m 4.16,13.26 a 4.56,4.56 0 0 0 -4.42,-4.81 c -3.25,0 -4.81,2.34 -5.4,4.81 z"
     id="path5" />
  <path
     class="cls-1"
     d="m 302.09505,101.68 a 14.06,14.06 0 0 0 8.51,3.38 c 1.69,0 3.32,-0.46 3.32,-1.56 0,-2.93 -15.67,-3.25 -15.67,-14.17 0,-6.31 6.05,-10.21 13.78,-10.21 7.73,0 11.77,3.84 11.77,3.84 l -3.84,8 a 13.37,13.37 0 0 0 -7.93,-2.73 c -1.69,0 -3.31,0.46 -3.31,1.63 0,2.53 15.66,2.92 15.66,13.71 0,5.72 -5.07,10.6 -13.71,10.6 a 20.14,20.14 0 0 1 -13.39,-4.94 z"
     id="path6" />
  <path
     class="cls-1"
     d="m 330.88505,89.26 h -4.29 v -8.77 h 4.61 v -9.62 h 10.93 v 9.62 h 7 v 8.77 h -7 v 10.27 c 0,3.77 3.83,4.29 6,4.29 0.91,0 1.49,-0.06 1.49,-0.06 v 9.75 a 22.07,22.07 0 0 1 -3.05,0.19 c -5.33,0 -15.67,-1.43 -15.67,-12.67 z"
     id="path7" />
  <path
     class="cls-1"
     d="m 354.86505,79.9 h 10.79 v 5.66 a 17.82,17.82 0 0 1 -0.13,2.08 h 0.13 c 1.44,-4.55 5.66,-8.32 10.67,-8.32 a 7.6,7.6 0 0 1 1.3,0.13 V 90.5 a 11.7,11.7 0 0 0 -2.28,-0.2 c -2.66,0 -7,0.85 -8.65,5.85 a 15.54,15.54 0 0 0 -0.58,4.55 v 12.68 h -11.25 z"
     id="path8" />
  <path
     class="cls-1"
     d="m 396.53505,79.12 c 9.88,0 15.47,6.89 15.47,16.19 0,1.1 -0.26,3.51 -0.26,3.51 h -21.13 c 0.85,4.09 4.23,6 7.8,6 4.82,0 9.24,-3.38 9.24,-3.38 l 4.16,7.86 a 22.62,22.62 0 0 1 -14.31,4.88 c -12,0 -18.39,-8.65 -18.39,-17.55 0,-9.81 6.63,-17.51 17.42,-17.51 z m 4.16,13.26 a 4.56,4.56 0 0 0 -4.42,-4.81 c -3.25,0 -4.81,2.34 -5.4,4.81 z"
     id="path9" />
  <path
     class="cls-1"
     d="m 134.00505,9.43 c 11.5,0 17.42,6.56 17.42,6.56 l -5.27,8.58 c 0,0 -5.21,-4.75 -11.63,-4.75 -8.91,0 -13.13,6.57 -13.13,13.26 0,6.89 4.55,14 13.13,14 7,0 12.35,-5.72 12.35,-5.72 l 5.85,8.32 a 25.52,25.52 0 0 1 -18.72,7.8 c -14.56,0 -24.38,-10.34 -24.38,-24.12 0,-13.54 10.4,-23.93 24.38,-23.93 z"
     id="path10" />
  <path
     class="cls-1"
     d="m 157.01505,10.21 h 11.24 V 24.9 c 0,1.69 -0.13,2.86 -0.13,2.86 h 0.13 c 1.89,-3.32 5.79,-5.33 10.21,-5.33 6.76,0 12,3.12 12,12.55 v 21.71 h -11.22 V 37.06 c 0,-3.12 -1.24,-4.42 -3.71,-4.42 a 6.74,6.74 0 0 0 -6.69,4.94 12.8,12.8 0 0 0 -0.59,4.29 v 14.82 h -11.24 z"
     id="path11" />
  <path
     class="cls-1"
     d="m 213.10505,22.43 c 6.37,0 9.88,2.21 12.94,5.2 h 0.13 c 2.66,-2.93 5.85,-5.2 12.35,-5.2 9.88,0 15.47,6.89 15.47,16.19 0,1.1 -0.26,3.51 -0.26,3.51 h -21.06 a 7.59,7.59 0 0 0 7.73,6 c 4.81,0 9.23,-3.38 9.23,-3.38 l 4.16,7.86 a 22.57,22.57 0 0 1 -14.3,4.88 c -7,0 -10.33,-2.54 -13.06,-5.53 h -0.13 a 16.7,16.7 0 0 1 -13.13,5.53 c -10.34,0 -18.59,-7 -18.59,-17.42 0,-10.42 8.25,-17.64 18.52,-17.64 z m 0.39,25.68 c 4.1,0 7.61,-3.06 7.61,-8.06 0,-5 -3.51,-8.23 -7.61,-8.23 -4.1,0 -7.6,3.19 -7.6,8.26 0,5.07 3.51,8.03 7.6,8.03 z m 29.19,-12.42 c -0.07,-2.34 -1.69,-4.81 -4.29,-4.81 -3.38,0 -4.94,2.34 -5.53,4.81 z"
     id="path12" />
  <path
     class="cls-1"
     d="m 258.34505,23.21 h 11.24 v 19.61 c 0,3.12 1.24,4.42 3.58,4.42 4.81,0 7.09,-4.22 7.09,-9.23 v -14.8 h 11.24 v 33.48 h -10.79 v -2.93 a 17.82,17.82 0 0 1 0.13,-2.08 h -0.13 c -1.82,3.58 -6,5.79 -10.47,5.79 -6.62,0 -11.89,-3.12 -11.89,-12.55 z"
     id="path13" />
  <path
     class="cls-1"
     d="m 298.51505,23.21 h 10.79 v 5.61 a 17.6,17.6 0 0 1 -0.13,2.08 h 0.13 c 1.43,-4.5 5.64,-8.28 10.64,-8.28 a 7.6,7.6 0 0 1 1.3,0.13 v 11.07 a 11.7,11.7 0 0 0 -2.28,-0.2 c -2.66,0 -7,0.85 -8.64,5.85 a 15.19,15.19 0 0 0 -0.59,4.55 v 12.67 h -11.22 z"
     id="path14" />
  <path
     class="cls-1"
     d="m 344.53505,32.11 v -0.12 c 0,0 -5.46,-2.47 -5.46,-10 0,-9 7.6,-12.55 15.34,-12.55 a 33.49,33.49 0 0 1 6.7,0.78 l -2.61,8.9 a 13.58,13.58 0 0 0 -2.56,-0.3 c -2.93,0 -5.4,1.49 -5.4,4.8 a 4.41,4.41 0 0 0 4.75,4.49 h 5.65 v -5.68 h 11.18 v 5.72 h 5.82 v 9.75 h -5.79 v 4.49 c 0,8.32 -6.37,15.08 -17.74,15.08 -10.6,0 -17.29,-6.31 -17.29,-14.24 a 12.17,12.17 0 0 1 7.41,-11.12 z m 9.88,15 c 4.29,0 6.56,-2.34 6.56,-5.39 V 37.9 h -6.37 c -3,0 -5.85,1.11 -5.85,4.62 0,2.53 2.47,4.61 5.66,4.61 z"
     id="path15" />
  <path
     class="cls-1"
     d="m 44.055048,6.04 a 5.28,5.28 0 0 1 4.34,5.27 v 4 h 2.89 v 2.29 c 7.57,3.56 12.93,11.48 12.93,19.61 v 7.12 h 17.49 v -7.08 c -0.37,-22.95 -16.7,-37 -38.27,-37.25 z"
     id="path16" />
  <path
     class="cls-1"
     d="m 40.495048,44.35 h 4.74 v -10.4 a 2.37,2.37 0 1 0 -4.74,0 z"
     id="path17" />
  <path
     class="cls-1"
     d="m 30.505048,44.35 h 4.74 v -10.4 a 2.37,2.37 0 1 0 -4.74,0 z"
     id="path18" />
  <path
     class="cls-1"
     d="m 50.485048,44.35 h 4.74 v -10.4 a 2.37,2.37 0 1 0 -4.74,0 z"
     id="path19" />
  <path
     class="cls-1"
     d="m 40.745048,11.18 v 4.17 h 4.26 v -4.17 a 2.13,2.13 0 0 0 -4.26,0"
     id="path20" />
  <path
     class="cls-1"
     d="m 46.085048,55.56 c -18.06,-4.62 -24.81,-8.55 -24.81,-20 0,-8.21 5.48,-15.28 13.17,-18.3 v -1.91 h 2.9 v -4 a 5.28,5.28 0 0 1 4.48,-5.29 l 0.58,-6 c -21.74,0.17 -40.2400003,15.27 -39.3500003,35.57 1,22.73 25.9000003,29.09 39.3300003,31.95 10.56,2.24 36,8.19 42.27,26.09 0,0 2.35,-29.62 -38.57,-38"
     id="path21" />
  <path
     class="cls-1"
     d="m 40.075048,87.1 c 18.21,5.55 22.87,12.3 22.87,21.89 0,14.62 -11.32,20.63 -25.53,20.63 A 45.92,45.92 0 0 1 4.3250477,115.05 c 0,0 -2.9,6 -2.9,6 5.73,10.82 21.8200003,20.67 39.7800003,20.67 v 0 c 23,0.2 42.57,-10.57 42.57,-32.27 0,-23.28 -25.38,-32.4 -39.46,-35.53 -11.08,-2.46 -39.0000003,-9.82 -44.00000033,-25.45 0,0 -5.54999997,27.09 39.74000033,38.63"
     id="path22" />
  <path
     class="cls-2"
     d="m 109.47505,138.08 a 5.69,5.69 0 0 0 3.54,1.5 c 1.08,0 2.06,-0.55 2.06,-1.72 0,-2.54 -6.7,-2.1 -6.7,-6.46 0,-2.36 2,-4.12 4.76,-4.12 a 6,6 0 0 1 4.24,1.52 l -1.12,2.1 a 5.18,5.18 0 0 0 -3.14,-1.24 c -1.2,0 -2.14,0.7 -2.14,1.7 0,2.52 6.68,1.9 6.68,6.44 0,2.27 -1.72,4.17 -4.68,4.17 a 6.87,6.87 0 0 1 -4.9,-1.94 z"
     id="path23" />
  <path
     class="cls-2"
     d="m 126.57505,127.28 a 7.17,7.17 0 0 1 7.37,7.24 7.34,7.34 0 1 1 -14.68,0 7.17,7.17 0 0 1 7.31,-7.24 z m 0,12.33 a 4.82,4.82 0 0 0 4.68,-5.09 4.68,4.68 0 1 0 -9.36,0 4.82,4.82 0 0 0 4.68,5.09 z"
     id="path24" />
  <path
     class="cls-2"
     d="m 136.51505,127.52 h 4.58 a 6.6,6.6 0 0 1 2.86,0.4 4,4 0 0 1 2.32,3.88 4.09,4.09 0 0 1 -2.4,3.88 v 0 a 3.47,3.47 0 0 1 0.48,0.7 l 2.92,5.31 h -2.88 l -2.82,-5.31 h -2.48 v 5.31 h -2.58 z m 4.9,6.66 a 2.06,2.06 0 0 0 2.24,-2.24 c 0,-1.36 -0.58,-2.2 -2.6,-2.2 h -2 v 4.44 z"
     id="path25" />
  <path
     class="cls-2"
     d="m 149.65505,127.52 h 5.08 c 2.56,0 4.38,1.32 4.38,3.66 a 3.36,3.36 0 0 1 -1.72,3 v 0 a 3.32,3.32 0 0 1 2.3,3.34 c 0,2.84 -2.28,4.13 -4.9,4.13 h -5.14 z m 5.08,5.8 a 1.69,1.69 0 0 0 1.76,-1.82 1.64,1.64 0 0 0 -1.8,-1.76 h -2.46 v 3.58 z m 0.26,6.18 a 2.05,2.05 0 1 0 0,-4.1 h -2.76 v 4.1 z"
     id="path26" />
  <path
     class="cls-2"
     d="m 168.83505,127.28 a 7.17,7.17 0 0 1 7.34,7.24 7.34,7.34 0 1 1 -14.68,0 7.17,7.17 0 0 1 7.34,-7.24 z m 0,12.33 a 4.82,4.82 0 0 0 4.68,-5.09 4.68,4.68 0 1 0 -9.36,0 4.82,4.82 0 0 0 4.68,5.09 z"
     id="path27" />
  <path
     class="cls-2"
     d="m 178.77505,127.52 h 2.58 l 5.38,8.2 a 21.52,21.52 0 0 1 1.18,2.2 v 0 c 0,0 -0.14,-1.36 -0.14,-2.2 v -8.2 h 2.56 v 14.21 h -2.56 l -5.38,-8.19 a 21.52,21.52 0 0 1 -1.18,-2.2 v 0 c 0,0 0.14,1.36 0.14,2.2 v 8.19 h -2.58 z"
     id="path28" />
  <path
     class="cls-2"
     d="m 193.94505,127.52 h 2.58 l 5.38,8.2 a 21.52,21.52 0 0 1 1.18,2.2 v 0 c 0,0 -0.14,-1.36 -0.14,-2.2 v -8.2 h 2.56 v 14.21 h -2.56 l -5.38,-8.19 a 21.52,21.52 0 0 1 -1.18,-2.2 v 0 c 0,0 0.14,1.36 0.14,2.2 v 8.19 h -2.58 z"
     id="path29" />
  <path
     class="cls-2"
     d="m 209.13505,127.52 h 8.5 v 2.22 h -5.92 v 3.72 h 4.78 v 2.22 h -4.78 v 3.82 h 6.23 v 2.23 h -8.82 z"
     id="path30" />
  <path
     class="cls-2"
     d="m 225.25505,127.52 h 2.58 v 9.1 a 3.15,3.15 0 0 0 6.3,0 v -9.1 h 2.58 v 9.1 c 0,3.19 -2.3,5.35 -5.72,5.35 -3.42,0 -5.74,-2.16 -5.74,-5.35 z"
     id="path31" />
  <path
     class="cls-2"
     d="m 240.09505,127.52 h 2.58 l 5.38,8.2 a 21.52,21.52 0 0 1 1.18,2.2 v 0 c 0,0 -0.14,-1.36 -0.14,-2.2 v -8.2 h 2.56 v 14.21 h -2.56 l -5.38,-8.19 a 21.52,21.52 0 0 1 -1.18,-2.2 v 0 c 0,0 0.14,1.36 0.14,2.2 v 8.19 h -2.58 z"
     id="path32" />
  <path
     class="cls-2"
     d="m 255.27505,127.52 h 2.58 v 14.21 h -2.58 z"
     id="path33" />
  <path
     class="cls-2"
     d="m 259.61505,127.52 h 2.78 l 3.12,9.26 c 0.28,0.82 0.52,2.08 0.54,2.08 v 0 c 0,0 0.26,-1.26 0.54,-2.08 l 3.14,-9.26 h 2.76 l -5.18,14.21 h -2.56 z"
     id="path34" />
  <path
     class="cls-2"
     d="m 274.29505,127.52 h 8.5 v 2.22 h -5.92 v 3.72 h 4.78 v 2.22 h -4.78 v 3.82 h 6.24 v 2.23 h -8.82 z"
     id="path35" />
  <path
     class="cls-2"
     d="m 285.77505,127.52 h 4.58 a 6.6,6.6 0 0 1 2.86,0.4 4,4 0 0 1 2.32,3.88 4.09,4.09 0 0 1 -2.4,3.88 v 0 a 3.47,3.47 0 0 1 0.48,0.7 l 2.92,5.31 h -2.88 l -2.82,-5.31 h -2.48 v 5.31 h -2.58 z m 4.9,6.66 a 2.06,2.06 0 0 0 2.24,-2.24 c 0,-1.36 -0.58,-2.2 -2.6,-2.2 h -2 v 4.44 z"
     id="path36" />
  <path
     class="cls-2"
     d="m 299.23505,138.08 a 5.69,5.69 0 0 0 3.54,1.5 c 1.08,0 2.06,-0.55 2.06,-1.72 0,-2.54 -6.7,-2.1 -6.7,-6.46 0,-2.36 2,-4.12 4.76,-4.12 a 6,6 0 0 1 4.24,1.52 l -1.12,2.1 a 5.18,5.18 0 0 0 -3.14,-1.24 c -1.2,0 -2.14,0.7 -2.14,1.7 0,2.52 6.68,1.9 6.68,6.44 0,2.27 -1.72,4.17 -4.68,4.17 a 6.87,6.87 0 0 1 -4.9,-1.94 z"
     id="path37" />
  <path
     class="cls-2"
     d="m 309.94505,127.52 h 2.58 v 14.21 h -2.58 z"
     id="path38" />
  <path
     class="cls-2"
     d="m 319.07505,129.74 h -4.66 v -2.22 h 11.9 v 2.22 h -4.66 v 12 h -2.58 z"
     id="path39" />
  <path
     class="cls-2"
     d="m 328.17505,127.52 h 8.5 v 2.22 h -5.92 v 3.72 h 4.78 v 2.22 h -4.78 v 3.82 h 6.24 v 2.23 h -8.82 z m 4.88,-3.66 h 2.62 l -2.1,2.72 h -2 z"
     id="path40" />
</svg>
