<?xml version="1.0" encoding="UTF-8" standalone="no"?>
<!-- Created with Inkscape (http://www.inkscape.org/) -->

<svg
   version="1.1"
   id="svg2"
   width="235.02699"
   height="214.048"
   viewBox="0 0 235.02699 214.04801"
   sodipodi:docname="curieosity_loutre.svg"
   inkscape:version="1.3.2 (091e20e, 2023-11-25, custom)"
   xmlns:inkscape="http://www.inkscape.org/namespaces/inkscape"
   xmlns:sodipodi="http://sodipodi.sourceforge.net/DTD/sodipodi-0.dtd"
   xmlns="http://www.w3.org/2000/svg"
   xmlns:svg="http://www.w3.org/2000/svg">
  <defs
     id="defs6" />
  <sodipodi:namedview
     id="namedview4"
     pagecolor="#ffffff"
     bordercolor="#666666"
     borderopacity="1.0"
     inkscape:pageshadow="2"
     inkscape:pageopacity="0.0"
     inkscape:pagecheckerboard="0"
     showgrid="false"
     inkscape:zoom="1.7381198"
     inkscape:cx="325.63924"
     inkscape:cy="168.86063"
     inkscape:window-width="1920"
     inkscape:window-height="1009"
     inkscape:window-x="-8"
     inkscape:window-y="-8"
     inkscape:window-maximized="1"
     inkscape:current-layer="g8"
     inkscape:showpageshadow="2"
     inkscape:deskcolor="#d1d1d1" />
  <g
     inkscape:groupmode="layer"
     inkscape:label="Image"
     id="g8"
     transform="translate(123.03928,160.66889)">
    <path
       style="fill:#000000;stroke-width:0.32"
       d="m -2.8615195,53.160262 c -0.13796,-0.22324 -1.7403,-0.34874 -4.45264,-0.34874 -2.40981,0 -4.3756995,-0.13858 -4.5584495,-0.32133 -0.17674,-0.17674 -1.68154,-0.33755 -3.344,-0.35735 -1.66247,-0.0198 -3.16667,-0.14285 -3.34267,-0.27344 -0.176,-0.13059 -1.904,-0.4099 -3.84,-0.62069 -1.936,-0.21079 -3.808,-0.51048 -4.16,-0.66598 -0.352,-0.1555 -1.864,-0.49954 -3.36,-0.76453 -3.68312,-0.6524 -4.53063,-0.83825 -5.28,-1.15781 -0.352,-0.15011 -1.432,-0.4376 -2.4,-0.63887 -0.968,-0.20127 -2.048,-0.48429 -2.4,-0.62895 -0.352,-0.14466 -1.576,-0.55174 -2.72,-0.90463 -3.64507,-1.12439 -8.07444,-2.81513 -10.95348,-4.18107 -1.53641,-0.72894 -2.85504,-1.32535 -2.93028,-1.32535 -0.20799,0 -7.82558,-4.4015 -8.79054,-5.07924 -0.46513,-0.32669 -1.4937,-0.93806 -2.2857,-1.35862 -12.20281,-6.47977 -26.175563,-18.23609 -33.197461,-27.9315204 -0.3946,-0.54484 -0.94303,-1.27862 -1.21875,-1.63062 -0.98284,-1.25478 -3.34379,-4.63257998 -3.34379,-4.78394998 0,-0.0847 -0.77737,-1.34698002 -1.72749,-2.80504002 -0.95011,-1.45806 -1.98478,-3.19101 -2.29926,-3.85101 -0.31448,-0.66 -0.68912,-1.2 -0.83252,-1.2 -0.1434,0 -0.26073,-0.288 -0.26073,-0.64 0,-0.352 -0.144,-0.64 -0.32,-0.64 -0.176,0 -0.32,-0.19333 -0.32,-0.42963 0,-0.23629 -0.48731,-1.4242896 -1.0829,-2.6399996 -2.21005,-4.51104 -3.26608,-6.96178 -3.56222,-8.26688 -0.0769,-0.33908 -0.28727,-0.76388 -0.46739,-0.944 -0.18012,-0.18012 -0.32749,-0.58865 -0.32749,-0.90783 0,-0.31919 -0.1247,-0.83039 -0.27711,-1.136 -0.41162,-0.8254 -1.0187,-2.62861 -1.36788,-4.06306 -0.16969,-0.69708 -0.42879,-1.41708 -0.57577,-1.6 -0.14699,-0.18293 -0.34227,-0.9086 -0.43395,-1.6126 -0.2765,-2.12305 -1.12585,-5.85101 -1.48665,-6.52518 -0.18625,-0.34801 -0.34,-1.39821 -0.34165,-2.33379 -0.002,-0.93557 -0.28966,-3.11896 -0.64,-4.851974 -0.49088,-2.4282 -0.63699,-4.42833 -0.63699,-8.72 0,-3.49938 -0.11893,-5.56906 -0.32,-5.56906 -0.176,0 -0.32,-0.504 -0.32,-1.12 0,-0.616 0.144,-1.12 0.32,-1.12 0.176,0 0.32,-0.74757 0.32,-1.66125 0,-2.568219 0.65653,-8.983951 0.99249,-9.698754 0.28817,-0.61313 0.32135,-0.955383 0.31689,-3.269581 -0.001,-0.566269 0.13585,-1.114768 0.30432,-1.218887 0.16846,-0.104118 0.3063,-0.656006 0.3063,-1.226419 0,-0.570413 0.12209,-1.173913 0.27132,-1.341113 0.14922,-0.1672 0.45672,-1.384001 0.68333,-2.704001 0.22661,-1.32 0.55445,-2.76 0.72853,-3.2 0.17408,-0.44 0.43419,-1.088 0.57803,-1.44 0.14383,-0.352 0.35901,-1.144 0.47816,-1.76 0.59621,-3.082349 7.73893,-19.098133 9.28761,-20.825203 0.24916,-0.27785 0.45302,-0.58441 0.45302,-0.68123 0,-0.54511 2.89197,-4.84405 6.65631,-9.89464 4.645296,-6.23258 11.223081,-12.9669 17.663691,-18.08405 1.848,-1.46826 3.58808,-2.88676 3.86685,-3.15222 0.27876,-0.26546 0.65713,-0.48266 0.84081,-0.48266 0.18369,0 0.51248,-0.21509 0.73065,-0.47797 0.21818,-0.26288 1.13581,-0.91562 2.03919,-1.45053 0.90337,-0.53491 2.55696,-1.54383 3.67463,-2.24203 1.11767,-0.69821 2.07496,-1.26947 2.12729,-1.26947 0.0523,0 1.00989,-0.54486 2.12788,-1.21081 1.91485,-1.14061 4.43583,-2.40819 5.8727,-2.95288 0.84287,-0.31951 4.96652,-2.19034 5.67566,-2.57495 0.30561,-0.16575 0.83711,-0.30136 1.18111,-0.30136 0.34401,0 0.71446,-0.144 0.82323,-0.32 0.10878,-0.176 0.54078,-0.32 0.96,-0.32 0.41923,0 0.85123,-0.144 0.96,-0.32 0.10878,-0.176 0.51327,-0.32089 0.89889,-0.32197 0.38561,-0.001 1.10319,-0.2117 1.59463,-0.46804 0.49143,-0.25633 1.39302,-0.55977 2.00353,-0.6743 0.61051,-0.11453 1.18893,-0.33592 1.28537,-0.49197 0.0964,-0.15604 0.70686,-0.28882 1.35647,-0.29506 0.64961,-0.006 1.54111,-0.21713 1.98111,-0.46866 0.44,-0.25153 1.32242,-0.46242 1.96092,-0.46866 0.63851,-0.006 1.67202,-0.22489 2.29669,-0.4859 1.08116,-0.45173 3.76959,-0.73408 13.76964,-1.44612 2.43499,-0.17338 4.54015,-0.38501 4.67813,-0.47028 0.41904,-0.25898 21.51061952,-0.28745 23.0546195,-0.0311 0.792,0.13148 3.168,0.35816 5.28,0.50373 8.1637005,0.56266 13.8457105,1.37254 19.0400005,2.71384 0.44,0.11362 1.94491,0.34522 3.34424,0.51467 1.39933,0.16944 3.16836,0.51997 3.93118,0.77896 1.98662,0.67447 2.39121,0.60276 3.59261,-0.63676 2.9231,-3.01588 6.36621,-2.7075 8.18614,0.73318 0.40308,0.76205 0.95287,1.62864 1.22176,1.92576 0.26889,0.29711 0.76967,1.16735 1.11284,1.93386 0.71557,1.59827 4.9621,5.79484 5.86383,5.79484 0.32307,0 0.58741,0.12991 0.58741,0.2887 0,0.15878 0.396,0.4299 0.88,0.60249 0.484,0.17259 1.71638,1.05068 2.73862,1.95131 1.02224,0.90062 2.00952,1.6375 2.19395,1.6375 0.49595,0 2.82743,1.91678 2.82743,2.32453 0,0.19291 0.612,0.9588 1.36,1.70199 2.04492,2.03175 2.48,2.55109 2.48,2.96032 0,0.20524 0.14851,0.37316 0.33004,0.37316 0.18152,0 0.41941,0.252 0.52864,0.56 0.10923,0.308 0.37809,0.776 0.59748,1.04 0.21939,0.264 0.68796,1.00027 1.04127,1.63616 1.2863,2.31508 1.50575,2.68673 1.67924,2.84384 0.0972,0.088 0.43168,0.664 0.74336,1.28 0.66334,1.31103 0.98319,1.87242 2.28629,4.01279 1.76673,2.90189 1.73148,2.7098 0.75807,4.13213 -0.48749,0.71229 -1.3269,1.70329 -1.86537,2.20221 -1.28371,1.18943 -1.28992,2.35527 -0.019,3.57287 1.38738,1.32919 1.31322,2.68211 -0.24,4.3785 -1.9336,2.11184 -2.01779,2.1815 -2.63619,2.1815 -0.32476,0 -0.63847,0.14005 -0.69714,0.31122 -0.14318,0.41774 -4.60438,0.8179 -4.84147,0.43427 -0.10134,-0.16397 0.10692,-1.51477 0.46279,-3.0018 1.01279,-4.23198 1.14511,-6.70369 0.3589,-6.70369 -1.02139,0 -1.57912,0.9503 -2.34763,4 -1.30928,5.19565 -2.23757,6.09856 -5.54247,5.39091 -1.72605,-0.36958 -1.72204,-0.61289 0.0551,-3.33669 4.14863,-6.35873 5.11102,-9.3894 2.37251,-7.47127 -1.02644,0.71895 -4.38789,5.30521 -6.23991,8.51353 -0.99833,1.72945 -1.41049,1.88411 -3.55823,1.33525 -3.14062,-0.80259 -3.1649,-0.74666 2.95754,-6.81292 3.02294,-2.9952 5.49626,-5.52074 5.49626,-5.61232 0,-0.61301 -1.60459,0.0778 -3.3297,1.43351 -1.11978,0.88 -2.1343,1.6 -2.25449,1.6 -0.53521,0 -2.80732,1.93932 -5.52195,4.71317 -3.27806,3.34957 -3.16654,3.30792 -7.13386,2.66446 -2.11819,-0.34355 -4.0878,-0.42002 -4.48561,-0.17417 -0.21864,0.13513 -1.93235,-0.34533 -2.89409,-0.8114 -0.27483,-0.13319 -1.85883,-0.42684 -3.52,-0.65257 -1.66117,-0.22573 -3.19236,-0.54049 -3.40265,-0.69948 -0.21029,-0.15898 -1.86629,-0.2993 -3.68,-0.31182 -1.81371,-0.0125 -3.48023,-0.16524 -3.70337,-0.3394 -0.22585,-0.17626 -1.25431,-0.23969 -2.31988,-0.14307 -1.05279,0.0955 -1.9918,0.048 -2.08669,-0.10559 -0.0949,-0.15354 -0.59859,-0.19395 -1.11933,-0.0898 -0.52995,0.10599 -1.14225,0.0271 -1.39073,-0.17908 -0.42368,-0.35162 -5.0320805,-0.72582 -9.4776605,-0.76957 -1.14399998,-0.0113 -4.168,0.16277 -6.72,0.38673 -2.552,0.22397 -5.7919995,0.47629 -7.1999995,0.56072 -1.408,0.0844 -2.992,0.34514 -3.52,0.57937 -0.528,0.23422 -1.71584,0.52612 -2.63964,0.64866 -0.9238,0.12254 -1.7603,0.35331 -1.85888,0.51282 -0.0986,0.15951 -0.73825,0.29002 -1.42148,0.29002 -0.68322,0 -1.33122,0.144 -1.44,0.32 -0.10877,0.176 -0.58923,0.32 -1.06768,0.32 -0.47845,0 -1.15395,0.18465 -1.50111,0.41033 -0.34716,0.22568 -1.49521,0.68313 -2.55121,1.01655 -1.056,0.33342 -2.0568,0.72477 -2.224,0.86967 -0.1672,0.1449 -0.50628,0.26345 -0.75352,0.26345 -0.74899,0 -5.22617,2.37382 -7.00113,3.71201 -0.56025,0.4224 -1.17225,0.76799 -1.36,0.76799 -0.18774,0 -0.34135,0.12288 -0.34135,0.27305 0,0.27861 -3.58732,2.722311 -5.22513,3.559393 -2.3746,1.213651 -9.81487,9.433632 -9.81487,10.843425 0,0.200275 -0.144,0.364137 -0.32,0.364137 -0.176,0 -0.32,0.206784 -0.32,0.45952 0,0.252736 -0.80793,1.656736 -1.79541,3.12 -2.47573,3.668583 -6.20438,11.285738 -8.02319,16.390366 -0.44487,1.248563 -0.93768,2.406915 -1.09513,2.574115 -0.15745,0.1672 -0.28627,0.7192 -0.28627,1.226662 0,1.37157 -0.77929,0.9063 -0.90065,-0.537731 -0.0553,-0.658678 0.0445,-1.372473 0.22188,-1.586211 0.20609,-0.248329 0.21922,-0.84663 0.0364,-1.657389 -0.17624,-0.781411 -0.16928,-1.385651 0.0181,-1.573049 0.16735,-0.167357 0.30428,-0.986983 0.30428,-1.821396 0,-0.834413 0.15091,-1.610381 0.33535,-1.724374 0.20406,-0.126119 0.2547,-0.745101 0.12934,-1.58105 -0.11621,-0.774963 -0.0719,-1.456701 0.10173,-1.56399 0.16926,-0.104608 0.23827,-0.553636 0.15336,-0.997834 -0.0905,-0.473488 -0.007,-0.807638 0.20293,-0.807638 0.19651,0 0.3573,-0.505956 0.3573,-1.124343 0,-0.618387 0.12864,-1.374387 0.28588,-1.68 0.15723,-0.305613 0.45775,-1.347658 0.66784,-2.315658 0.21008,-0.968 0.65743,-2.370432 0.99412,-3.116512 0.33669,-0.746083 0.61216,-1.449792 0.61216,-1.563801 0,-0.222381 2.40843,-5.401361 2.8831,-6.199687 0.15697,-0.264 0.59692,-1.099411 0.97767,-1.856474 0.38075,-0.757059 1.25184,-2.121184 1.93575,-3.031386 0.68392,-0.910204 1.24348,-1.828345 1.24348,-2.040305 0,-0.21196 0.36,-0.66856 0.8,-1.01466 0.44,-0.34611 0.8,-0.76624 0.8,-0.93363 0,-0.1674 0.288,-0.56499 0.64,-0.88355 1.09981,-0.9953 0.62789,-2.4 -0.80629,-2.4 -0.73798,0 -2.07371,1.32746 -2.07371,2.06087 0,0.2508 -0.27596,0.54359 -0.61325,0.65064 -0.33729,0.10706 -0.75952,0.58476 -0.93828,1.06157 -0.17876,0.47681 -0.7668,1.35444 -1.30674,1.95029 -0.53995,0.595847 -0.98173,1.262215 -0.98173,1.480814 0,0.218601 -0.216,0.57672 -0.48,0.795821 -0.264,0.2191 -0.48,0.646412 -0.48,0.949587 0,0.303171 -0.288,0.811856 -0.64,1.130413 -0.352,0.318557 -0.64,0.775593 -0.64,1.015641 0,0.240048 -0.432,1.246 -0.96,2.23545 -0.528,0.98945 -0.96,2.144752 -0.96,2.567335 0,0.422585 -0.28039,1.069296 -0.62308,1.437132 -0.59499,0.638644 -0.84477,1.41057 -1.7423,5.384442 -0.21864,0.968 -0.47792,1.976 -0.57618,2.24 -0.28357,0.761847 -0.89844,5.023495 -0.89844,6.227054 0,0.602348 -0.14996,1.187859 -0.33325,1.301139 -0.1833,0.11328 -0.31846,0.949779 -0.30037,1.858886 0.0931,4.67841 0.0113,6.084215 -0.36763,6.31842 -0.31493,0.194633 -0.3188,0.677513 -0.0185,2.307224 0.47857,2.59733 0.48679,4.38728 0.0201,4.38728 -0.24798,0 -0.29668,0.57122 -0.15686,1.84 0.49,4.44635 0.57775,6.40436 0.29486,6.5792 -0.18389,0.11364 -0.19321,1.15353 -0.0241,2.68318 0.22831,2.06465 0.21171,3.86064 -0.0645,6.977624 -0.15816,1.7849 0.94784,12.6008 1.3115,12.82556 0.15325,0.0947 0.27864,0.67278 0.27864,1.28458 0,0.61181 0.22159,1.45056 0.49241,1.86389 0.27083,0.41333 0.45722,0.87626 0.41421,1.02874 -0.043,0.15248 0.16741,0.73808 0.46759,1.30134 0.3184,0.59744 0.54579,1.73605 0.54579,2.73297 0,1.02723 0.38293,2.89025 0.96,4.67063 0.528,1.62897 0.96,3.23463 0.96,3.56814 0,0.33351 0.144,0.69537 0.32,0.80415 0.176,0.10877 0.32,0.4524396 0.32,0.7637096 0,0.68262 1.1999,3.70095 2.94029,7.39629 2.36657,5.02486 3.15598,6.44127 5.4097,9.70641 0.95151,1.37852 2.12453,3.0971104 2.60671,3.8190704 0.48219,0.72197 1.05819,1.42788 1.28,1.56869 0.22182,0.14082 0.2593,0.25345 0.0833,0.2503 -0.176,-0.003 -0.896,-0.43048 -1.6,-0.94961 -0.704,-0.51913 -1.64,-1.12571 -2.08,-1.34794 -0.44,-0.22224 -1.06245,-0.72871 -1.38322,-1.1254904 -0.32074,-0.39679 -0.77594,-0.72143 -1.01152,-0.72143 -0.23558,0 -0.81856,-0.46376 -1.29551,-1.03059 -0.47695,-0.56682 -1.74975,-1.81393 -2.82845,-2.77136 -1.07869,-0.95743 -2.01539,-1.89766 -2.08155,-2.08941 -0.1159,-0.3359 -1.03032,-1.36921 -3.0977,-3.50044998 -0.5379,-0.5545 -1.18567,-1.44019002 -1.43948,-1.96819002 -0.25382,-0.528 -0.64059,-1.07452 -0.85949,-1.21449 -0.2189,-0.13997 -0.76959,-1.03997 -1.22376,-2 -0.45417,-0.96003 -0.94952,-1.74551 -1.10079,-1.74551 -0.15127,0 -0.87915,-1.26 -1.61752,-2.7999996 -0.73836,-1.54 -1.55269,-3.20346 -1.8096,-3.69657 -0.25692,-0.49311 -0.39114,-1.09458 -0.29827,-1.3366 0.0929,-0.24202 -0.0386,-0.6122 -0.29212,-0.82262 -0.25354,-0.21042 -0.46098,-0.6929 -0.46098,-1.07219 0,-0.37929 -0.2018,-0.97773 -0.44845,-1.32986 -0.24664,-0.35214 -0.49864,-0.99618 -0.56,-1.4312 -0.0889,-0.63021 -0.32336,-0.81137 -1.15375,-0.8914 -1.19821,-0.11548 -1.69563,0.606 -1.0883,1.57849 0.20377,0.32629 0.3705,0.94672 0.3705,1.37872 0,0.432 0.144,0.87445 0.32,0.98323 0.176,0.10877 0.32,0.67786 0.32,1.26465 0,0.65314 0.18615,1.13831 0.48,1.25107 0.27769,0.10656 0.48,0.58507 0.48,1.13535 0,0.52314 0.16008,1.05009 0.35572,1.17101 0.35052,0.21663 1.8979,3.4455096 2.01807,4.2110396 0.0339,0.21621 0.37773,0.72949 0.76396,1.14062 0.38624,0.41113 0.70225,0.85628 0.70225,0.98923 0,0.13294 0.432,0.86961 0.96,1.63703 0.528,0.76742 0.96,1.54937 0.96,1.73766 0,0.18828 0.12089,0.34234 0.26863,0.34234 0.14775,0 0.4182,0.32826 0.60101,0.72946 1.08269,2.37625 14.91112,15.5753804 16.33036,15.5872104 0.22,0.002 0.4,0.13448 0.4,0.29477 0,0.1603 1.476,1.2594 3.28,2.44245 1.804,1.18306 3.856,2.56551 4.56,3.07213 0.704,0.50662 1.712,1.15345 2.24,1.4374 0.528,0.28395 1.56024,1.00235 2.29386,1.59643 0.73362,0.59408 1.5393,1.08015 1.7904,1.08015 0.2511,0 0.72071,0.29189 1.04356,0.64864 0.32286,0.35675 1.38918,1.06142 2.3696,1.56593 2.42171,1.24617 3.24302,1.70356 4.18258,2.3293 0.44,0.29303 1.232,0.63353 1.76,0.75665 0.528,0.12313 2.112,0.83552 3.52,1.5831 1.408,0.74758 3.28,1.60536 4.16,1.90618 0.88,0.30082 1.84638,0.67588 2.1475,0.83347 0.30112,0.1576 1.59712,0.44322 2.88,0.63472 1.28288,0.1915 2.58255,0.48179 2.88816,0.6451 0.30561,0.1633 1.06161,0.29691 1.68,0.29691 0.61839,0 1.12434,0.1382 1.12434,0.30712 0,0.16891 0.468,0.30586 1.04,0.30432 2.0806995,-0.006 2.4517895,0.044 2.6430295,0.35346 0.10711,0.17331 0.66145,0.3151 1.23186,0.3151 0.57041,0 1.19124,0.15413 1.37962,0.34251 0.18838,0.18838 1.44601,0.35394 2.79473,0.36792 1.34872002,0.014 2.52789002,0.14784 2.62038002,0.29748 0.0925,0.14965 1.08715998,0.27209 2.21037998,0.27209 1.12323,0 2.13123,0.144 2.24,0.32 0.10878,0.176 0.88048,0.32 1.71489,0.32 0.83441,0 1.65391,0.13565 1.82111,0.30144 0.52126,0.51686 14.9619705,1.03305 20.3040005,0.72577 0.792,-0.0455 1.80001,-0.0586 2.24001,-0.0289 1.51645,0.10223 7.0619,-0.45488 7.22965,-0.72631 0.0925,-0.1496 1.20362,-0.27218 2.46923,-0.27239 1.26561,-2e-4 3.38112,-0.22232 4.70112,-0.4936 1.32,-0.27127 3.048,-0.57271 3.84,-0.66986 0.792,-0.0971 2.232,-0.43307 3.2,-0.74648 0.968,-0.31342 2.624,-0.73959 3.68,-0.94706 1.056,-0.20747 2.352,-0.52614 2.88,-0.70815 0.528,-0.18202 1.53033,-0.46977 2.2274,-0.63946 0.69707,-0.16969 1.42066,-0.43571 1.60797,-0.59117 0.18732,-0.15546 0.69699,-0.34178 1.1326,-0.41405 0.43562,-0.0723 1.00803,-0.20966 1.27203,-0.30532 0.264,-0.0957 1.2,-0.42474 2.08,-0.73128 0.88,-0.30654 1.7368,-0.68241 1.904,-0.83527 0.1672,-0.15285 0.6352,-0.27792 1.04,-0.27792 0.4048,0 0.736,-0.144 0.736,-0.32 0,-0.176 0.15322,-0.32 0.3405,-0.32 0.18728,0 1.15928,-0.37542 2.16,-0.83427 1.00072,-0.45885 2.49124,-1.09992 3.31225,-1.4246 1.76373,-0.69747 5.81903,-2.85275 8.19346,-4.35459 0.92742,-0.5866 1.75262,-1.06654 1.83379,-1.06654 0.37058,0 4.071,-2.53889 6.26257,-4.2968 1.33242,-1.06876 2.83919,-2.2312 3.34839,-2.5832 0.5092,-0.352 1.4382,-1.18 2.06443,-1.84 0.62624,-0.66 1.20746,-1.20004 1.29161,-1.20009 0.801609,-6.4e-4 7.960069,-7.8783904 9.377659,-10.3201304 0.48541,-0.83613 1.3316,-1.6782955 1.52872,-2.12219998 0.27289,-0.61452613 1.88137,-3.06863512 1.24662,0.54291998 -0.0909,0.5172012 -0.12779,1.32016 -0.28397,1.72444 -0.15618,0.40428 -0.46375,1.52706 -0.6835,2.49506 -0.69446,3.05918 -2.93685,7.6772704 -4.83839,9.9644104 -0.67878,0.81643 -1.23414,1.63414 -1.23414,1.81715 0,0.92377 -12.259999,12.21844 -13.262719,12.21844 -0.12627,0 -0.82981,0.48306 -1.56343,1.07348 -1.65153,1.32914 -5.20742,3.40652 -5.831,3.40652 -0.25457,0 -0.46285,0.144 -0.46285,0.32 0,0.176 -0.14833,0.32 -0.32962,0.32 -0.27105,0 -4.92459,2.66792 -6.71038,3.84712 -0.264,0.17432 -0.696,0.41677 -0.96,0.53876 -0.264,0.122 -0.75916,0.48108 -1.10034,0.79796 -0.34119,0.31689 -0.94469,0.57616 -1.34112,0.57616 -0.39643,0 -0.80977,0.144 -0.91854,0.32 -0.10878,0.176 -0.46561,0.32 -0.79296,0.32 -0.32735,0 -1.00285,0.20351 -1.50111,0.45223 -0.89909,0.44881 -2.40968,1.10697 -3.94593,1.71922 -0.44,0.17536 -1.52,0.54136 -2.4,0.81334 -0.88,0.27198 -2.032,0.63852 -2.56,0.81454 -0.528,0.17602 -1.824,0.55586 -2.88,0.84407 -1.056,0.28821 -2.58733,0.72936 -3.40295,0.98031 -0.81562,0.25096 -1.92312,0.45629 -2.46112,0.45629 -0.53799,0 -1.06716,0.144 -1.17593,0.32 -0.10878,0.176 -0.53117,0.32 -0.93866,0.32 -0.40748,0 -1.37098,0.22948 -2.14111,0.50996 -0.77013,0.28047 -2.19223,0.63221 -3.16023,0.78164 -2.53377,0.39112 -6.37823,1.1812 -7.68,1.57832 -0.616,0.18792 -1.696,0.31802 -2.4,0.2891 -1.28536,-0.0528 -4.34038,0.29933 -10.88001,1.254 -1.936,0.28262 -4.528,0.53723 -5.76,0.5658 -10.9317705,0.25346 -19.05012048,0.52619 -19.8833505,0.66795 -0.56458,0.096 -1.09761,0.0182 -1.21889,-0.17803 z M 62.589281,-129.22726 c 1.15691,-0.93682 1.02311,-2.74887 -0.2896,-3.92177 -1.20841,-1.07971 -3.17544,-1.33401 -2.78046,-0.35946 0.7979,1.96868 0.86874,2.39791 0.52151,3.16 -0.80298,1.76234 0.85565,2.49205 2.54855,1.12123 z m -3.24096,-0.97805 c 0.43118,-0.80568 0.10093,-1.62318 -0.65574,-1.62318 -0.76755,0 -1.22188,1.53988 -0.57517,1.94945 0.65331,0.41374 0.86488,0.35766 1.23091,-0.32627 z m 14.94242,18.17179 c -1.64,-0.94604 -1.84766,-3.50133 -0.40201,-4.94697 1.99011,-1.99011 3.392,-1.16038 3.392,2.0076 0,2.47017 -1.40647,3.85283 -2.98999,2.93937 z"
       id="path1407"
       sodipodi:nodetypes="sssssssssssssssssssssssssccssssssscssssssscssssssssscsssssssssssssscssccsccssssssssssssssssssssssssssssssssssssscsssssssssssssssccsccscssssssssssssssssssssscscsssssssssssssssssscssssssssssssssssssscssscssssssssssssssscssssssssssssssssssssssssssscsssssccssssssssssssssssscsssssssssccssssssssssssssssssssssscssssssssssssssssssssssssssssssssscsssssssssssssss" />
  </g>
</svg>
