<?xml version="1.0" encoding="UTF-8" standalone="no"?>
<!-- Generator: Adobe Illustrator 25.3.1, SVG Export Plug-In . SVG Version: 6.00 Build 0)  -->

<svg
   version="1.1"
   id="Calque_1"
   x="0px"
   y="0px"
   viewBox="0 0 368.85801 141.70301"
   xml:space="preserve"
   sodipodi:docname="fablab.svg"
   width="368.858"
   height="141.703"
   inkscape:version="1.3.2 (091e20e, 2023-11-25, custom)"
   xmlns:inkscape="http://www.inkscape.org/namespaces/inkscape"
   xmlns:sodipodi="http://sodipodi.sourceforge.net/DTD/sodipodi-0.dtd"
   xmlns="http://www.w3.org/2000/svg"
   xmlns:svg="http://www.w3.org/2000/svg"><defs
   id="defs31" /><sodipodi:namedview
   id="namedview31"
   pagecolor="#ffffff"
   bordercolor="#000000"
   borderopacity="0.25"
   inkscape:showpageshadow="2"
   inkscape:pageopacity="0.0"
   inkscape:pagecheckerboard="0"
   inkscape:deskcolor="#d1d1d1"
   inkscape:zoom="3.3708027"
   inkscape:cx="216.86229"
   inkscape:cy="55.031402"
   inkscape:window-width="1920"
   inkscape:window-height="1009"
   inkscape:window-x="-8"
   inkscape:window-y="-8"
   inkscape:window-maximized="1"
   inkscape:current-layer="Calque_1" />
<style
   type="text/css"
   id="style1">
	.st0{fill:#1D2769;}
	.st1{fill:#E6332A;}
</style>
<path
   class="st0"
   d="m 40.358418,44.4 h 4.7 V 34 c 0,-1.3 -1.1,-2.4 -2.4,-2.4 -1.3,0 -2.4,1.1 -2.4,2.4 v 10.4 z"
   id="path1" />
<path
   class="st0"
   d="m 30.358418,44.4 h 4.7 V 34 c 0,-1.3 -1.1,-2.4 -2.4,-2.4 -1.3,0 -2.4,1.1 -2.4,2.4 v 10.4 z"
   id="path2" />
<path
   class="st0"
   d="m 50.358418,44.4 h 4.7 V 34 c 0,-1.3 -1.1,-2.4 -2.4,-2.4 -1.3,0 -2.4,1.1 -2.4,2.4 v 10.4 z"
   id="path3" />
<path
   class="st0"
   d="m 43.858418,6 c 3.2,0.6 4.3,3.3 4.3,5.3 v 4 h 2.9 v 2.3 c 7.6,3.6 12.9,11.5 12.9,19.6 0,0.1 0,0.1 0,0.2 v 7 h 17.5 v -7.1 c -0.4,-23 -16.7,-37 -38.3,-37.3 z"
   id="path4" />
<path
   class="st0"
   d="m 40.558418,11.2 v 4.2 h 4.3 v -4.2 c 0,-1.2 -1,-2.1 -2.1,-2.1 -1.2,0 -2.2,0.9 -2.2,2.1"
   id="path5" />
<path
   class="st0"
   d="m 45.958418,55.6 c -18.1,-4.6 -24.8,-8.6 -24.8,-20 0,-8.2 5.5,-15.3 13.2,-18.3 v -1.9 h 2.9 v -4 c 0,-2 1.2,-4.8 4.5,-5.3 l 0.6,-6 c -21.9,0.1 -40.3999996,15.2 -39.4999996,35.5 1,22.7 25.8999996,29.1 39.2999996,31.9 10.6,2.2 36,8.2 42.3,26.1 0,0 2.4,-29.6 -38.5,-38"
   id="path6" />
<path
   class="st0"
   d="m 39.958418,87.1 c 18.2,5.6 22.9,12.3 22.9,21.9 0,14.6 -11.3,20.6 -25.5,20.6 -13.6,0 -25.3,-6.3 -33.0999996,-14.6 0,0 -2.9,6 -2.9,6 5.7,10.8 21.7999996,20.7 39.7999996,20.7 v 0 c 0,0 0,0 0,0 v 0 c 23,0.2 42.6,-10.6 42.6,-32.3 0,-23.3 -25.4,-32.4 -39.5,-35.5 -11.1,-2.5 -38.9999996,-9.8 -43.99999957,-25.5 -0.1,0.1 -5.60000003,27.2 39.69999957,38.7"
   id="path7" />
<g
   id="g13"
   transform="translate(-0.04158157)">
	<path
   class="st0"
   d="m 108,27.8 h 35 v 12 h -21 v 12 h 17.4 v 12 H 122 V 85 h -14 z"
   id="path8" />
	<path
   class="st0"
   d="m 168.6,59.4 h 0.6 v -0.7 c 0,-3.4 -2.6,-4.6 -6.1,-4.6 -5.2,0 -11.1,3.9 -11.1,3.9 l -4.8,-9.8 c 0,0 7.1,-5.4 17.3,-5.4 11.6,0 18.6,6.3 18.6,16.8 V 85 h -12.6 v -2.5 c 0,-1.4 0.2,-2.6 0.2,-2.6 h -0.2 c 0,0 -3,6 -11.7,6 -7.7,0 -14,-5.1 -14,-13.3 -0.1,-11.9 17.4,-13.2 23.8,-13.2 z m -6.1,16 c 3.6,0 6.8,-3.9 6.8,-7.3 V 67.2 H 168 c -4.4,0 -9.4,1.3 -9.4,4.7 0,2 1.2,3.5 3.9,3.5 z"
   id="path9" />
	<path
   class="st0"
   d="m 190.6,27.8 h 13.8 v 15.9 c 0,2.1 -0.2,3.5 -0.2,3.5 h 0.2 c 0,0 3.8,-4.4 11.1,-4.4 11.2,0 18.6,8.8 18.6,21.6 0,13 -8.2,21.5 -19.2,21.5 -7.6,0 -11.3,-4.6 -11.3,-4.6 h -0.2 c 0,0 0.1,1 0.1,2.3 V 85 h -13 V 27.8 Z m 21.5,46.8 c 4.3,0 8.1,-3.5 8.1,-9.8 0,-6.2 -3.3,-10.2 -8.1,-10.2 -4.2,0 -8.1,3 -8.1,10.2 0,4.9 2.7,9.8 8.1,9.8 z"
   id="path10" />
	<path
   class="st0"
   d="m 241.2,27.8 h 14 V 73 h 23.4 v 12 h -37.4 z"
   id="path11" />
	<path
   class="st0"
   d="m 303.4,59.4 h 0.6 v -0.7 c 0,-3.4 -2.6,-4.6 -6.1,-4.6 -5.2,0 -11.1,3.9 -11.1,3.9 L 282,48.2 c 0,0 7.1,-5.4 17.3,-5.4 11.6,0 18.6,6.3 18.6,16.8 V 85 h -12.6 v -2.5 c 0,-1.4 0.2,-2.6 0.2,-2.6 h -0.2 c 0,0 -3,6 -11.7,6 -7.7,0 -14,-5.1 -14,-13.3 -0.1,-11.9 17.4,-13.2 23.8,-13.2 z m -6.1,16 c 3.6,0 6.8,-3.9 6.8,-7.3 v -0.9 h -1.3 c -4.4,0 -9.4,1.3 -9.4,4.7 0,2 1.2,3.5 3.9,3.5 z"
   id="path12" />
	<path
   class="st0"
   d="m 325.4,27.8 h 13.8 v 15.9 c 0,2.1 -0.2,3.5 -0.2,3.5 h 0.2 c 0,0 3.8,-4.4 11.1,-4.4 11.2,0 18.6,8.8 18.6,21.6 0,13 -8.2,21.5 -19.2,21.5 -7.6,0 -11.3,-4.6 -11.3,-4.6 h -0.2 c 0,0 0.1,1 0.1,2.3 V 85 h -13 V 27.8 Z m 21.5,46.8 c 4.3,0 8.1,-3.5 8.1,-9.8 0,-6.2 -3.3,-10.2 -8.1,-10.2 -4.2,0 -8.1,3 -8.1,10.2 0,4.9 2.7,9.8 8.1,9.8 z"
   id="path13" />
</g>
<g
   id="g31"
   transform="translate(-0.04158157)">
	<path
   class="st1"
   d="m 109.4,109.7 c 0,0 1.5,1.5 3.5,1.5 1.1,0 2.1,-0.6 2.1,-1.7 0,-2.5 -6.7,-2.1 -6.7,-6.5 0,-2.4 2,-4.1 4.8,-4.1 2.8,0 4.2,1.5 4.2,1.5 l -1.1,2.1 c 0,0 -1.4,-1.2 -3.1,-1.2 -1.2,0 -2.1,0.7 -2.1,1.7 0,2.5 6.7,1.9 6.7,6.4 0,2.3 -1.7,4.2 -4.7,4.2 -3.2,0 -4.9,-1.9 -4.9,-1.9 z"
   id="path14" />
	<path
   class="st1"
   d="m 126.5,98.9 c 4.2,0 7.3,3.2 7.3,7.2 0,4.2 -3.2,7.4 -7.3,7.4 -4.2,0 -7.3,-3.3 -7.3,-7.4 -0.1,-4 3.1,-7.2 7.3,-7.2 z m 0,12.4 c 2.6,0 4.7,-2.2 4.7,-5.1 0,-2.8 -2.1,-4.9 -4.7,-4.9 -2.6,0 -4.7,2.1 -4.7,4.9 0,2.9 2.1,5.1 4.7,5.1 z"
   id="path15" />
	<path
   class="st1"
   d="m 136.4,99.2 h 4.6 c 1.5,0 2.2,0.1 2.9,0.4 1.4,0.6 2.3,2 2.3,3.9 0,1.7 -0.9,3.3 -2.4,3.9 v 0 c 0,0 0.2,0.2 0.5,0.7 l 2.9,5.3 h -2.9 l -2.8,-5.3 H 139 v 5.3 h -2.6 z m 4.9,6.6 c 1.4,0 2.2,-0.8 2.2,-2.2 0,-1.4 -0.6,-2.2 -2.6,-2.2 h -2 v 4.4 z"
   id="path16" />
	<path
   class="st1"
   d="m 149.5,99.2 h 5.1 c 2.6,0 4.4,1.3 4.4,3.7 0,1.3 -0.6,2.5 -1.7,3 v 0 c 1.6,0.5 2.3,1.9 2.3,3.3 0,2.8 -2.3,4.1 -4.9,4.1 h -5.1 V 99.2 Z m 5.1,5.8 c 1.1,0 1.8,-0.8 1.8,-1.8 0,-1 -0.6,-1.8 -1.8,-1.8 h -2.5 v 3.6 z m 0.3,6.2 c 1.3,0 2.1,-0.9 2.1,-2.1 0,-1.2 -0.8,-2 -2.1,-2 h -2.8 v 4.1 z"
   id="path17" />
	<path
   class="st1"
   d="m 168.7,98.9 c 4.2,0 7.3,3.2 7.3,7.2 0,4.2 -3.2,7.4 -7.3,7.4 -4.2,0 -7.3,-3.3 -7.3,-7.4 0,-4 3.1,-7.2 7.3,-7.2 z m 0,12.4 c 2.6,0 4.7,-2.2 4.7,-5.1 0,-2.8 -2.1,-4.9 -4.7,-4.9 -2.6,0 -4.7,2.1 -4.7,4.9 0,2.9 2.1,5.1 4.7,5.1 z"
   id="path18" />
	<path
   class="st1"
   d="m 178.7,99.2 h 2.6 l 5.4,8.2 c 0.5,0.8 1.2,2.2 1.2,2.2 v 0 c 0,0 -0.1,-1.4 -0.1,-2.2 v -8.2 h 2.6 v 14.2 h -2.6 l -5.4,-8.2 c -0.5,-0.8 -1.2,-2.2 -1.2,-2.2 v 0 c 0,0 0.1,1.4 0.1,2.2 v 8.2 h -2.6 z"
   id="path19" />
	<path
   class="st1"
   d="m 193.8,99.2 h 2.6 l 5.4,8.2 c 0.5,0.8 1.2,2.2 1.2,2.2 v 0 c 0,0 -0.1,-1.4 -0.1,-2.2 v -8.2 h 2.6 v 14.2 h -2.6 l -5.4,-8.2 c -0.5,-0.8 -1.2,-2.2 -1.2,-2.2 v 0 c 0,0 0.1,1.4 0.1,2.2 v 8.2 h -2.6 z"
   id="path20" />
	<path
   class="st1"
   d="m 209,99.2 h 8.5 v 2.2 h -5.9 v 3.7 h 4.8 v 2.2 h -4.8 v 3.8 h 6.2 v 2.2 H 209 Z"
   id="path21" />
	<path
   class="st1"
   d="m 225.1,99.2 h 2.6 v 9.1 c 0,1.9 1.2,3 3.1,3 1.9,0 3.2,-1.1 3.2,-3 v -9.1 h 2.6 v 9.1 c 0,3.2 -2.3,5.3 -5.7,5.3 -3.4,0 -5.7,-2.2 -5.7,-5.3 v -9.1 z"
   id="path22" />
	<path
   class="st1"
   d="m 240,99.2 h 2.6 l 5.4,8.2 c 0.5,0.8 1.2,2.2 1.2,2.2 v 0 c 0,0 -0.1,-1.4 -0.1,-2.2 v -8.2 h 2.6 v 14.2 H 249 l -5.4,-8.2 c -0.5,-0.8 -1.2,-2.2 -1.2,-2.2 v 0 c 0,0 0.1,1.4 0.1,2.2 v 8.2 H 240 Z"
   id="path23" />
	<path
   class="st1"
   d="m 255.2,99.2 h 2.6 v 14.2 h -2.6 z"
   id="path24" />
	<path
   class="st1"
   d="m 259.5,99.2 h 2.8 l 3.1,9.3 c 0.3,0.8 0.5,2.1 0.5,2.1 v 0 c 0,0 0.3,-1.3 0.5,-2.1 l 3.1,-9.3 h 2.8 l -5.2,14.2 h -2.6 z"
   id="path25" />
	<path
   class="st1"
   d="m 274.2,99.2 h 8.5 v 2.2 h -5.9 v 3.7 h 4.8 v 2.2 h -4.8 v 3.8 h 6.2 v 2.2 h -8.8 z"
   id="path26" />
	<path
   class="st1"
   d="m 285.7,99.2 h 4.6 c 1.5,0 2.2,0.1 2.9,0.4 1.4,0.6 2.3,2 2.3,3.9 0,1.7 -0.9,3.3 -2.4,3.9 v 0 c 0,0 0.2,0.2 0.5,0.7 l 2.9,5.3 h -2.9 l -2.8,-5.3 h -2.5 v 5.3 h -2.6 z m 4.9,6.6 c 1.4,0 2.2,-0.8 2.2,-2.2 0,-1.4 -0.6,-2.2 -2.6,-2.2 h -2 v 4.4 z"
   id="path27" />
	<path
   class="st1"
   d="m 299.1,109.7 c 0,0 1.5,1.5 3.5,1.5 1.1,0 2.1,-0.6 2.1,-1.7 0,-2.5 -6.7,-2.1 -6.7,-6.5 0,-2.4 2,-4.1 4.8,-4.1 2.8,0 4.2,1.5 4.2,1.5 l -1.1,2.1 c 0,0 -1.4,-1.2 -3.1,-1.2 -1.2,0 -2.1,0.7 -2.1,1.7 0,2.5 6.7,1.9 6.7,6.4 0,2.3 -1.7,4.2 -4.7,4.2 -3.2,0 -4.9,-1.9 -4.9,-1.9 z"
   id="path28" />
	<path
   class="st1"
   d="m 309.9,99.2 h 2.6 v 14.2 h -2.6 z"
   id="path29" />
	<path
   class="st1"
   d="m 319,101.4 h -4.7 v -2.2 h 11.9 v 2.2 h -4.7 v 12 H 319 Z"
   id="path30" />
	<path
   class="st1"
   d="m 328.1,99.2 h 8.5 v 2.2 h -5.9 v 3.7 h 4.8 v 2.2 h -4.8 v 3.8 h 6.2 v 2.2 h -8.8 z m 4.8,-3.7 h 2.6 l -2.1,2.7 h -2 z"
   id="path31" />
</g>
</svg>
