<?xml version="1.0" encoding="UTF-8" standalone="no"?>
<!-- Created with Inkscape (http://www.inkscape.org/) -->

<svg
   version="1.1"
   id="svg1"
   width="1252.0861"
   height="1484.369"
   viewBox="0 0 1252.0861 1484.369"
   sodipodi:docname="inflechir.svg"
   xml:space="preserve"
   inkscape:version="1.3.2 (091e20e, 2023-11-25, custom)"
   xmlns:inkscape="http://www.inkscape.org/namespaces/inkscape"
   xmlns:sodipodi="http://sodipodi.sourceforge.net/DTD/sodipodi-0.dtd"
   xmlns="http://www.w3.org/2000/svg"
   xmlns:svg="http://www.w3.org/2000/svg"><defs
     id="defs1" /><sodipodi:namedview
     id="namedview1"
     pagecolor="#ffffff"
     bordercolor="#000000"
     borderopacity="0.25"
     inkscape:showpageshadow="2"
     inkscape:pageopacity="0.0"
     inkscape:pagecheckerboard="0"
     inkscape:deskcolor="#d1d1d1"
     showgrid="false"
     showguides="false"
     inkscape:zoom="0.1767767"
     inkscape:cx="789.13116"
     inkscape:cy="1139.8561"
     inkscape:window-width="1920"
     inkscape:window-height="1009"
     inkscape:window-x="-8"
     inkscape:window-y="-8"
     inkscape:window-maximized="1"
     inkscape:current-layer="g1" /><g
     inkscape:groupmode="layer"
     inkscape:label="Image"
     id="g1"><path
       style="fill:#000000"
       d="m 163.01208,1463.2923 c -97.818238,-30.9038 -97.913428,-30.9338 -130.999998,-41.3081 -16.775,-5.2598 -31.03727001,-9.7613 -31.69393001,-10.0033 -0.83972,-0.3095 -0.042,-3.9418 2.68889001,-12.243 2.13556,-6.4916 12.50285,-39.2529 23.03841,-72.8029 29.66374,-94.4627 29.59497,-94.2439 50.45681,-160.5 10.82355,-34.375 27.326348,-86.8 36.672888,-116.5 48.62884,-154.52525 56.85288,-180.65358 70.34792,-223.49999 8.05519,-25.575 19.59584,-62.25 25.64591,-81.5 16.54125,-52.63071 24.55726,-78.10585 61.83068,-196.5 18.78717,-59.675 39.81022,-126.5 46.71788,-148.5 6.90765,-22 12.61438,-40.0771 12.68161,-40.17132 0.0672,-0.0942 20.82015,6.36267 46.11759,14.34867 25.29744,7.98599 49.37034,15.56018 53.49534,16.83153 4.125,1.27135 19.875,6.21978 35,10.99652 15.125,4.77674 39.425,12.43229 54,17.01234 14.575,4.58005 30.3863,9.59971 35.1361,11.15481 l 8.6362,2.82745 -9.2977,29.5 c -5.1137,16.225 -28.2058,89.575 -51.3156,163 -23.1099,73.425 -51.0844,162.3 -62.1657,197.5 -11.0812,35.2 -25.09649,79.75 -31.14501,99 -11.72539,37.31712 -20.75555,66.00738 -39.18595,124.49999 -6.32542,20.075 -27.98832,88.925 -48.13978,153 -20.15146,64.075 -39.05951,124.15 -42.01789,133.5 -2.95838,9.35 -10.61536,33.65 -17.0155,54 -20.36046,64.7385 -28.58836,90.9103 -29.63031,94.25 -0.55768,1.7875 -1.54157,3.22 -2.18641,3.1834 -0.64485,-0.037 -31.09745,-9.5209 -67.67245,-21.0761 z m 740.5102,-12.0325 c -17.7599,-3.3867 -33.8164,-19.6678 -38.925,-39.4691 -2.0229,-7.841 -2.0497,-23.152 -0.054,-30.8141 3.1825,-12.2187 11.6578,-23.7125 22.9458,-31.118 15.0582,-9.8789 37.5553,-10.2857 51.6859,-0.9345 2.0868,1.381 4.0289,2.5109 4.3157,2.5109 0.2868,0 0.5214,-1.575 0.5214,-3.5 v -3.5 h 9 9 v 20.0375 20.0376 l -9.0715,-0.2876 -9.0715,-0.2875 -1.7976,-5.3174 c -3.5927,-10.627 -11.8427,-16.2691 -24.8312,-16.9818 -7.7276,-0.424 -8.6943,-0.2459 -14.6936,2.7076 -11.065,5.4472 -16.6094,14.8085 -17.3363,29.2707 -0.3443,6.8504 0,10.1163 1.6412,15.5 5.0808,16.6825 14.581,24.3209 30.2487,24.3209 12.3674,0 22.7127,-5.685 28.5875,-15.7096 1.4107,-2.4072 2.8756,-4.2449 3.2552,-4.0836 13.788,5.8578 16.0684,7.2208 15.4389,9.2278 -2.252,7.1794 -13.413,19.5061 -21.3087,23.5342 -10.291,5.2501 -26.8334,7.2812 -39.5509,4.856 z m -546.5102,-10.8248 v -9 h 9 9 v -34 -34 h -9 -9 v -9.5 -9.5 h 19.5 19.5 v 6.548 6.5481 l 4.25,-2.9135 c 11.68706,-8.0119 22.52428,-11.5587 33.6039,-10.9979 8.5373,0.4321 13.4942,2.3684 18.0862,7.0652 6.9094,7.0672 8.0415,14.5885 8.0523,53.5001 l 0.01,27.25 h 8.5 8.5 v 9 9 h -18.9569 -18.957 l -0.293,-39.9282 c -0.2843,-38.7337 -0.3558,-40.0125 -2.3886,-42.75 -5.6876,-7.6589 -19.08985,-5.7619 -35.6545,5.0467 l -4.7524,3.0995 v 28.266 28.266 h 9 9 v 9 9 h -28.5 -28.5 z m 125,-0.5 v -9.5 h 9.5 9.5 v -56.5 -56.5 h -9.5375 -9.5376 l 0.2876,-9.25 0.2875,-9.25 h 58 58 l 0.2688,22.75 0.2687,22.75 h -9.5187 -9.5188 v -13.5 -13.5 h -28 -28 v 22.5 22.5 h 24 24 v 9.5 9.5 h -24 -24 v 24.5 24.5 h 9.5 9.5 v 9.5 9.5 h -30.5 -30.5 z m 121.8186,0 0.3186,-9.5022 h 9.4314 9.4314 v -56.5 -56.5 h -9.429 -9.4291 l -0.3209,-9.0878 c -0.1766,-4.9983 -0.1335,-9.2733 0.096,-9.5 0.2291,-0.2267 14.0666,-0.4122 30.75,-0.4122 h 30.333 v 9.5 9.5 h -9 -9 v 56.5 56.5 h 23 23 v -25.5 -25.5 h 10.5 10.5 v 35 35 h -55.25 -55.25 z m 118.1814,0 v -9.5 h 9.4834 9.4834 l 0.2666,-55.502 c 0.1466,-30.526 0.1166,-55.951 -0.067,-56.5 -0.1904,-0.5701 -4.3864,-0.998 -9.7875,-0.998 h -9.4542 l 0.2875,-9.25 0.2875,-9.25 h 62 62 l 0.2688,22.75 0.2688,22.75 h -8.9898 -8.9897 l -0.279,-13.25 -0.279,-13.25 -32.25,-0.2639 -32.25,-0.2638 v 22.5138 22.5139 h 28 28 v 9.5 9.5 h -28 -28 v 24.5 24.5 h 32.5 32.5 v -13.5 -13.5 h 9 9 v 23 23 h -62.5 -62.5 z m 253,0.5 v -9 h 9.5 9.5 v -57 -57 h -9.5 -9.5 v -9.4271 -9.4271 l 19.5,-0.1022 19.50002,-0.1021 v 29.1126 c 0,16.0119 0.3375,28.9622 0.75,28.7783 0.4125,-0.1838 3.9268,-2.4376 7.8094,-5.0085 21.3991,-14.1689 45.3758,-11.6076 53.135,5.6761 1.5955,3.5542 1.8317,7.929 2.1192,39.25 l 0.3236,35.25 h 8.9314 8.9314 v 9 9 h -18.9209 -18.9209 l -0.3291,-40.25 c -0.3579,-43.7745 -0.2863,-43.2287 -6.1429,-46.7998 -6.4263,-3.9184 -17.6038,-1.3184 -31.329,7.2873 l -6.3572,3.9859 v 28.8883 28.8883 h 9.5513 9.5513 l -0.2308,9 -0.2308,9 h -28.8205 -28.82052 z m 130.00002,0 v -9 h 8 8 v -34 -34 h -8 -8 v -9.5226 -9.5225 l 18.25,0.2725 18.25,0.2726 0.2606,43.25 0.2606,43.25 h 7.9894 7.9894 v 9 9 h -26.5 -26.5 z m 62,0 v -9 h 10.4743 10.4742 l 0.2758,-34.0005 0.2757,-34.0004 -10.75,4e-4 -10.75,5e-4 v -9.5 -9.5 h 19 19 l 0.01,11.25 0.01,11.25 2.8797,-5.0204 c 3.6178,-6.3073 10.8432,-13.0293 16.9258,-15.7467 3.549,-1.5855 7.3955,-2.1971 15.9621,-2.5381 l 11.2864,-0.4493 -0.2864,10.3773 -0.2864,10.3772 -10.5,0.5848 c -12.2545,0.6825 -17.5805,2.1208 -22.3198,6.0273 -7.3764,6.0802 -9.6802,16.3924 -9.6802,43.3295 v 17.5584 h 11.5 11.5 v 9 9 h -32.5 -32.5 z m -42.8102,-121.0256 c -6.5246,-3.978 -7.7326,-12.799 -2.5897,-18.911 6.5744,-7.8132 20.0151,-3.3612 21.0396,6.969 0.5361,5.4056 -0.9865,8.6108 -5.5522,11.6876 -4.1756,2.8139 -8.5577,2.9004 -12.8977,0.2544 z M 179.93331,244.01721 c -45.76873,-8.09714 -83.576878,-36.97596 -99.973408,-76.36219 -10.54117,-25.32101 -11.78471,-55.05619 -3.38082,-80.840724 5.85485,-17.96363 15.53656,-33.45774 29.932998,-47.90321 18.82152,-18.885617 41.06502,-30.7268272 68.81159,-36.6314672 13.33989,-2.83881002 37.74237,-3.06207002 51.18841,-0.46833 42.67368,8.2317602 76.55523,32.8458002 94.46146,68.6237172 8.80671,17.59643 12.2757,32.072194 12.34154,51.500004 0.0905,26.71693 -7.46091,49.49097 -23.58556,71.13049 -18.78328,25.20743 -46.19051,42.47345 -79.21744,49.90543 -9.7199,2.18724 -40.52728,2.82453 -50.57877,1.04628 z"
       id="path1" /></g></svg>
