<?xml version="1.0" encoding="UTF-8" standalone="no"?>
<!-- Created with Inkscape (http://www.inkscape.org/) -->

<svg
   version="1.1"
   id="svg1"
   width="348"
   height="410.01801"
   viewBox="0 0 347.99999 410.01801"
   sodipodi:docname="lacommode.svg"
   xml:space="preserve"
   inkscape:version="1.3.2 (091e20e, 2023-11-25, custom)"
   xmlns:inkscape="http://www.inkscape.org/namespaces/inkscape"
   xmlns:sodipodi="http://sodipodi.sourceforge.net/DTD/sodipodi-0.dtd"
   xmlns="http://www.w3.org/2000/svg"
   xmlns:svg="http://www.w3.org/2000/svg"><defs
     id="defs1" /><sodipodi:namedview
     id="namedview1"
     pagecolor="#ffffff"
     bordercolor="#000000"
     borderopacity="0.25"
     inkscape:showpageshadow="2"
     inkscape:pageopacity="0.0"
     inkscape:pagecheckerboard="0"
     inkscape:deskcolor="#d1d1d1"
     inkscape:zoom="1.1170077"
     inkscape:cx="297.67027"
     inkscape:cy="184.86891"
     inkscape:window-width="1920"
     inkscape:window-height="1009"
     inkscape:window-x="-8"
     inkscape:window-y="-8"
     inkscape:window-maximized="1"
     inkscape:current-layer="g1" /><g
     inkscape:groupmode="layer"
     inkscape:label="Image"
     id="g1"><path
       style="display:inline;fill:#d35b6d;fill-opacity:1"
       d="m 193.83086,307.47217 c -35.39737,-6.47875 -65.05637,-33.59478 -73.87783,-67.54352 -2.92568,-11.25928 -2.90042,-36.45261 0.0482,-48.05505 8.7679,-34.50073 40.08101,-62.2534 76.1986,-67.53449 10.55666,-1.54359 27.16178,-0.60572 36.62656,2.0687 43.88475,12.40032 73.7553,55.78486 68.18301,99.03028 -5.08574,39.46945 -31.26788,69.93236 -68.81862,80.07044 -8.59446,2.32037 -30.33145,3.43308 -38.3599,1.96364 z m 31.60068,-10.2006 c 24.10085,-4.05003 48.1014,-23.18255 58.96189,-47.00264 5.37355,-11.78572 7.10988,-20.44804 7.08382,-35.34028 -0.0184,-10.51003 -0.46173,-14.53229 -2.31469,-21 -6.6652,-23.26476 -23.1674,-42.51749 -45.47147,-53.05049 -12.05726,-5.694 -18.35221,-6.94552 -34.69109,-6.89706 -16.6454,0.0494 -22.87041,1.35188 -35.5,7.42801 -20.47014,9.84823 -34.52789,25.88101 -42.36298,48.31473 -3.48311,9.97298 -3.56491,10.55694 -3.60055,25.70481 -0.0416,17.66921 1.09453,23.1392 7.58096,36.5 10.09913,20.8023 27.86202,36.2806 49.38257,43.03121 13.46153,4.22263 25.51056,4.90313 40.93154,2.31171 z m -27.56201,-7.85171 c -29.24522,-4.61976 -53.80173,-27.71937 -60.26398,-56.68861 -2.07236,-9.29006 -2.06458,-25.37125 0.0167,-34.60519 7.39034,-32.78782 37.18453,-55.73708 72.28768,-55.68027 20.6385,0.0334 36.90171,6.70725 51.09003,20.96555 9.75693,9.80505 13.95788,16.39598 18.32868,28.7561 2.93943,8.31234 3.09772,9.52972 3.0896,23.76121 -0.008,13.59735 -0.2591,15.74808 -2.68783,23 -8.01708,23.93808 -28.00331,42.62021 -52.2883,48.87647 -7.59472,1.95654 -22.3192,2.76054 -29.57262,1.61474 z M 229,276.84282 c 19.26036,-6.06827 33.97139,-20.53937 41.08425,-40.41417 2.01469,-5.62946 2.32624,-8.375 2.32624,-20.5 0,-15.3657 -1.31019,-20.85723 -7.75395,-32.5 -7.01296,-12.67122 -23.04856,-25.11274 -38.15654,-29.60446 -9.63654,-2.86502 -26.78968,-2.43117 -37.07841,0.93783 -20.36505,6.66843 -36.06254,23.39442 -41.92006,44.66663 -2.37721,8.63312 -2.40886,24.26048 -0.0668,32.98291 9.62005,35.82741 45.99057,55.63962 81.56527,44.43126 z m -38.69574,-39.37021 c -5.64356,-3.4411 -5.4515,-13.28895 0.31038,-15.91424 10.46372,-4.76759 19.45376,6.95573 11.46229,14.94721 -3.46521,3.4652 -7.17569,3.76999 -11.77267,0.96703 z m 28.59023,0.84193 C 215.948,237.23317 214,233.71043 214,229.46339 c 0,-4.23455 0.91744,-5.94068 4.07152,-7.57172 7.06877,-3.65541 13.92848,-0.006 13.92848,7.40974 0,5.36021 -0.74403,6.94352 -4.07152,8.66423 -3.19427,1.65182 -5.2658,1.73182 -9.03399,0.3489 z m -29.6278,-28.85206 c -6.42173,-5.98275 -2.32642,-17.03383 6.31241,-17.03383 4.74876,0 8.40981,3.4984 9.10793,8.70329 0.4994,3.72326 0.21725,4.54628 -2.48491,7.24844 -3.72312,3.72312 -9.57516,4.21267 -12.93543,1.0821 z m 27.18786,-0.48837 C 214.64238,207.16194 214,205.4407 214,202.39718 c 0,-10.44096 13.60328,-13.94893 17.54147,-4.52353 1.71222,4.09793 0.38492,9.79273 -2.80284,12.02552 -3.43979,2.40932 -9.39841,1.9606 -12.28408,-0.92506 z"
       id="path3"
       sodipodi:nodetypes="ssssssssssssssssssssssscssscsssssssssssssssssssssssssssssssss" /><path
       style="display:inline;fill:#000000"
       d="M 176,409.79105 C 136.78748,404.79489 98.19231,388.4352 70,364.85986 43.32087,342.54988 24.32935,313.68561 12.14486,276.92865 3.2638,250.13716 0,229.80416 0,201.26788 0,176.7812 2.7439,157.30149 9.44782,134.1951 24.11306,83.648462 54.35632,46.784122 99.8313,24.024202 150.29847,-1.2342684 209.71519,-6.6250984 275.5,8.0859216 c 31.52507,7.0497504 41.12712,7.7604404 58.71454,4.3457604 5.65701,-1.09834 11.07296,-1.99834 12.03546,-2 1.64209,-0.003 1.75,2.91856 1.75,47.37453 0,40.91471 -0.20482,47.547538 -1.50152,48.623698 -2.59029,2.14975 -11.49461,0.69752 -19.74402,-3.2201 C 315.96723,98.086972 306.53064,88.647342 289.48535,65.928652 265.92438,34.525612 252.74307,23.755952 232,18.960812 c -21.83393,-5.04732 -57.64841,3.62631 -81.33349,19.69752 -33.18678,22.51846 -55.92072,62.269148 -65.3527,114.270318 -2.64779,14.59796 -2.62716,70.97112 0.0331,90.5 7.81664,57.38157 26.56251,99.9272 54.31103,123.26435 19.11559,16.07665 42.08735,24.68114 62.61676,23.45426 11.39281,-0.68086 18.8769,-2.65842 29.22529,-7.72236 12.92356,-6.32408 20.2618,-12.63737 53.5,-46.02753 30.28198,-30.42042 36.54379,-35.85804 47.32478,-41.09585 3.81885,-1.85534 4.94405,-2.05592 5.59794,-0.99791 0.92022,1.48894 1.75507,19.28487 2.70406,57.64037 0.57145,23.09596 0.46477,26.16381 -0.95064,27.33849 -0.87687,0.72774 -4.87523,1.73147 -8.88523,2.2305 -14.5797,1.8144 -26.29298,4.9153 -58.74997,15.55306 -29.88885,9.79605 -44.57951,12.4161 -72.04094,12.84832 -11.275,0.17745 -22.075,0.12197 -24,-0.1233 z"
       id="path4"
       sodipodi:nodetypes="sssssssscsssssssssssssssssssss" /></g></svg>
