<?xml version="1.0" encoding="UTF-8" standalone="no"?>
<!-- Created with Inkscape (http://www.inkscape.org/) -->

<svg
   version="1.1"
   id="svg1"
   width="795.51898"
   height="657.66199"
   viewBox="0 0 795.51896 657.662"
   sodipodi:docname="lacommode_o.svg"
   xml:space="preserve"
   inkscape:version="1.3.2 (091e20e, 2023-11-25, custom)"
   xmlns:inkscape="http://www.inkscape.org/namespaces/inkscape"
   xmlns:sodipodi="http://sodipodi.sourceforge.net/DTD/sodipodi-0.dtd"
   xmlns="http://www.w3.org/2000/svg"
   xmlns:svg="http://www.w3.org/2000/svg"><defs
     id="defs1" /><sodipodi:namedview
     id="namedview1"
     pagecolor="#ffffff"
     bordercolor="#000000"
     borderopacity="0.25"
     inkscape:showpageshadow="2"
     inkscape:pageopacity="0.0"
     inkscape:pagecheckerboard="0"
     inkscape:deskcolor="#d1d1d1"
     inkscape:zoom="0.78984375"
     inkscape:cx="403.24431"
     inkscape:cy="356.3996"
     inkscape:window-width="1920"
     inkscape:window-height="1009"
     inkscape:window-x="-8"
     inkscape:window-y="-8"
     inkscape:window-maximized="1"
     inkscape:current-layer="g1" /><g
     inkscape:groupmode="layer"
     inkscape:label="Image"
     id="g1"><path
       style="display:inline;fill:#d35b6d;fill-opacity:1"
       d="m 135.89916,585.88513 c -26.47351,-5.74363 -42.485318,-32.29636 -35.57595,-58.99634 4.40305,-17.01477 20.71155,-31.70205 38.33445,-34.52363 10.87299,-1.74086 22.66283,0.90497 32.09301,7.2022 7.8099,5.21526 12.52531,10.72705 16.58991,19.39176 13.36157,28.48359 -3.44859,61.80673 -33.99338,67.38578 -7.33133,1.33908 -9.40917,1.28433 -17.44804,-0.45977 z m 27.11924,-8.25261 c 7.64677,-3.7645 16.20238,-12.35346 19.6844,-19.76114 3.75534,-7.98914 4.64906,-14.31904 3.3145,-23.47542 -1.63289,-11.20328 -5.72951,-19.35669 -13.20127,-26.27423 -8.43839,-7.81246 -14.71878,-10.13045 -27.53517,-10.16278 -9.19608,-0.0232 -10.5419,0.23127 -16.74075,3.16539 -8.60294,4.07205 -15.46326,10.92543 -19.83965,19.81957 -3.29491,6.69624 -3.4193,7.36962 -3.41138,18.46722 0.008,10.92199 0.17341,11.85368 3.20287,18.01756 5.59466,11.38317 12.77416,18.09994 23.57584,22.05632 4.04347,1.48101 7.36219,1.85078 14.79193,1.64807 8.48837,-0.23158 10.32794,-0.6301 16.15868,-3.50056 z m -27.9515,-1.59627 c -10.7655,-3.51344 -20.52177,-12.4691 -24.40895,-22.40593 -1.68511,-4.30764 -2.23043,-7.77979 -2.23043,-14.20163 0,-11.86068 2.69526,-18.51693 10.76583,-26.58751 13.51836,-13.51836 33.86834,-15.01104 48.8791,-3.5853 18.06623,13.75147 19.74211,41.23435 3.50458,57.47188 -6.82544,6.82545 -14.26607,10.0051 -24.29617,10.38264 -4.89133,0.18411 -9.63748,-0.23329 -12.21396,-1.07415 z m 22.21396,-6.43554 c 7.11624,-2.36564 15.56997,-10.88791 18.03566,-18.1819 8.28439,-24.50682 -10.54938,-47.89801 -35.37477,-43.93482 -23.44826,3.74334 -34.30086,32.98626 -19.42656,52.34592 8.43387,10.97711 22.16198,14.62548 36.76567,9.7708 z m -22.3,-19.37202 c -1.99209,-1.99209 -1.44996,-6.59586 0.9265,-7.8677 3.26018,-1.74479 6.8735,0.27714 6.8735,3.84626 0,3.35114 -1.61189,5.22144 -4.5,5.22144 -1.155,0 -2.64,-0.54 -3.3,-1.2 z m 14,0 c -1.76719,-1.76719 -1.46032,-5.25444 0.62874,-7.14501 2.59578,-2.34915 4.86427,-2.05315 6.79006,0.88598 2.34298,3.57583 0.5743,7.45903 -3.39736,7.45903 -1.55179,0 -3.36144,-0.54 -4.02144,-1.2 z m -14,-14 c -0.66,-0.66 -1.2,-2.37 -1.2,-3.8 0,-3.1445 1.66995,-5 4.5,-5 2.83005,0 4.5,1.8555 4.5,5 0,3.1445 -1.66995,5 -4.5,5 -1.155,0 -2.64,-0.54 -3.3,-1.2 z m 14.40534,-0.0993 c -2.15748,-1.57759 -1.85407,-6.53049 0.48989,-7.99708 2.29099,-1.43346 6.6596,-0.0514 7.42105,2.34768 0.81554,2.56953 -1.92476,6.94871 -4.3482,6.94871 -0.9822,0 -2.58543,-0.58469 -3.56274,-1.29931 z M 417.61172,307.47217 c -35.39737,-6.47875 -65.05637,-33.59478 -73.87783,-67.54352 -2.92568,-11.25928 -2.90042,-36.45261 0.0482,-48.05505 8.7679,-34.50073 40.08101,-62.2534 76.1986,-67.53449 10.55666,-1.54359 27.16178,-0.60572 36.62656,2.0687 43.88475,12.40032 73.7553,55.78486 68.18301,99.03028 -5.08574,39.46945 -31.26788,69.93236 -68.81862,80.07044 -8.59446,2.32037 -30.33145,3.43308 -38.3599,1.96364 z m 31.60068,-10.2006 c 24.10085,-4.05003 48.1014,-23.18255 58.96189,-47.00264 5.37355,-11.78572 7.10988,-20.44804 7.08382,-35.34028 -0.0184,-10.51003 -0.46173,-14.53229 -2.31469,-21 -6.6652,-23.26476 -23.1674,-42.51749 -45.47147,-53.05049 -12.05726,-5.694 -18.35221,-6.94552 -34.69109,-6.89706 -16.6454,0.0494 -22.87041,1.35188 -35.5,7.42801 -20.47014,9.84823 -34.52789,25.88101 -42.36298,48.31473 -3.48311,9.97298 -3.56491,10.55694 -3.60055,25.70481 -0.0416,17.66921 1.09453,23.1392 7.58096,36.5 10.09913,20.8023 27.86202,36.2806 49.38257,43.03121 13.46153,4.22263 25.51056,4.90313 40.93154,2.31171 z m -27.56201,-7.85171 c -29.24522,-4.61976 -53.80173,-27.71937 -60.26398,-56.68861 -2.07236,-9.29006 -2.06458,-25.37125 0.0167,-34.60519 7.39034,-32.78782 37.18453,-55.73708 72.28768,-55.68027 20.6385,0.0334 36.90171,6.70725 51.09003,20.96555 9.75693,9.80505 13.95788,16.39598 18.32868,28.7561 2.93943,8.31234 3.09772,9.52972 3.0896,23.76121 -0.008,13.59735 -0.2591,15.74808 -2.68783,23 -8.01708,23.93808 -28.00331,42.62021 -52.2883,48.87647 -7.59472,1.95654 -22.3192,2.76054 -29.57262,1.61474 z m 31.13047,-12.57704 c 19.26036,-6.06827 33.97139,-20.53937 41.08425,-40.41417 2.01469,-5.62946 2.32624,-8.375 2.32624,-20.5 0,-15.3657 -1.31019,-20.85723 -7.75395,-32.5 -7.01296,-12.67122 -23.04856,-25.11274 -38.15654,-29.60446 -9.63654,-2.86502 -26.78968,-2.43117 -37.07841,0.93783 -20.36505,6.66843 -36.06254,23.39442 -41.92006,44.66663 -2.37721,8.63312 -2.40886,24.26048 -0.0668,32.98291 9.62005,35.82741 45.99057,55.63962 81.56527,44.43126 z m -38.69574,-39.37021 c -5.64356,-3.4411 -5.4515,-13.28895 0.31038,-15.91424 10.46372,-4.76759 19.45376,6.95573 11.46229,14.94721 -3.46521,3.4652 -7.17569,3.76999 -11.77267,0.96703 z m 28.59023,0.84193 c -2.94649,-1.08137 -4.89449,-4.60411 -4.89449,-8.85115 0,-4.23455 0.91744,-5.94068 4.07152,-7.57172 7.06877,-3.65541 13.92848,-0.006 13.92848,7.40974 0,5.36021 -0.74403,6.94352 -4.07152,8.66423 -3.19427,1.65182 -5.2658,1.73182 -9.03399,0.3489 z m -29.6278,-28.85206 c -6.42173,-5.98275 -2.32642,-17.03383 6.31241,-17.03383 4.74876,0 8.40981,3.4984 9.10793,8.70329 0.4994,3.72326 0.21725,4.54628 -2.48491,7.24844 -3.72312,3.72312 -9.57516,4.21267 -12.93543,1.0821 z m 27.18786,-0.48837 c -1.81217,-1.81217 -2.45455,-3.53341 -2.45455,-6.57693 0,-10.44096 13.60328,-13.94893 17.54147,-4.52353 1.71222,4.09793 0.38492,9.79273 -2.80284,12.02552 -3.43979,2.40932 -9.39841,1.9606 -12.28408,-0.92506 z"
       id="path3"
       sodipodi:nodetypes="sssssssssssssscssssssssssssssssssssssssssssssssssssssssssssssssssssssssssssscssscsssssssssssssssssssssssssssssssss" /><path
       style="display:inline;fill:#000000"
       d="m 284.78086,646.42865 v -11 h 3.57486 c 3.41823,0 3.68923,0.26507 6.18529,6.04998 l 2.61043,6.04998 2.44168,-6.10278 c 2.41036,-6.02447 2.48817,-6.09888 6.06472,-5.79997 l 3.62302,0.30279 0.28454,10.81976 0.28454,10.81975 -2.78454,-0.31975 c -2.65508,-0.30489 -2.80778,-0.61271 -3.28454,-6.62098 l -0.5,-6.30123 -2.35242,6.10483 c -3.02003,7.83732 -4.73263,7.62431 -8.1083,-1.00851 l -2.53928,-6.49387 -0.29381,7.25 c -0.28175,6.95244 -0.39462,7.25 -2.75,7.25 h -2.45619 z m 29.90171,0.25 c 3.63631,-10.1845 3.99494,-10.76589 6.81752,-11.05211 2.93309,-0.29743 3.03607,-0.14232 6.63931,10 2.013,5.66616 3.65583,10.63961 3.65073,11.05211 -0.005,0.4125 -1.12569,0.75 -2.49021,0.75 -1.81236,0 -2.65005,-0.67373 -3.10841,-2.5 -0.53416,-2.12827 -1.20328,-2.5 -4.5,-2.5 -3.29672,0 -3.96584,0.37173 -4.5,2.5 -0.48631,1.93762 -1.2708,2.5 -3.48731,2.5 h -2.85984 z m 8.38397,-1.26558 c -0.56317,-2.15355 -2.28568,-3.75514 -2.28568,-2.12522 0,0.53747 -0.27314,1.68903 -0.60698,2.55901 -0.42964,1.11961 -0.0187,1.58179 1.40638,1.58179 1.52622,0 1.88583,-0.48767 1.48628,-2.01558 z m 10.71432,1.01558 v -11.23299 l 6.63473,0.42247 c 8.51414,0.54214 11.36527,3.2541 11.36527,10.81052 0,7.55642 -2.85113,10.26839 -11.36527,10.81053 l -6.63473,0.42246 z m 12.08021,3.28903 c 1.13653,-2.98928 0.41396,-7.35378 -1.40949,-8.5137 -0.64389,-0.40959 -2.18322,-0.75159 -3.42072,-0.76002 -2.08503,-0.0142 -2.25,0.4246 -2.25,5.98469 v 6 h 3.02475 c 2.36904,0 3.2482,-0.58769 4.05546,-2.71097 z m 7.91979,-3.24859 v -11.04044 h 8 c 7.86667,0 8,0.0417 8,2.5 0,2.36364 -0.3,2.5 -5.5,2.5 -4.22222,0 -5.5,0.34849 -5.5,1.5 0,1.13333 1.22223,1.5 5,1.5 4.66667,0 5,0.16667 5,2.5 0,2.33333 -0.33333,2.5 -5,2.5 -4.29068,0 -5,0.27665 -5,1.9501 0,1.67259 0.81825,1.99277 5.75,2.25 4.98337,0.25992 5.75,0.56656 5.75,2.2999 0,1.81492 -0.76348,2.02688 -8.25,2.29044 l -8.25,0.29045 z m 27,-0.0404 v -11.13284 l 2.75,0.31642 2.75,0.31642 v 10.5 10.5 l -2.75,0.31642 -2.75,0.31643 z m 8,0 v -11 h 2.78188 c 2.35061,0 3.35617,0.96891 6.48642,6.25 l 3.70455,6.25 0.0136,-6.31642 c 0.0135,-6.29792 0.0216,-6.3155 2.76357,-6 l 2.75,0.31642 v 10.5 10.5 l -2.62371,0.30424 c -2.29121,0.26568 -3.11494,-0.53717 -6.5,-6.33519 l -3.87629,-6.63943 -0.29569,6.58519 c -0.28039,6.24453 -0.42265,6.58519 -2.75,6.58519 h -2.45431 z m 32.49522,8.58612 c -6.82223,-6.82222 -2.35234,-19.58612 6.859,-19.58612 3.64639,0 7.64578,2.39996 7.64578,4.58809 0,1.95106 -2.83471,2.9772 -4.26721,1.54469 -1.77884,-1.77883 -5.55874,-1.32651 -6.6976,0.80148 -1.39783,2.61187 -1.30897,7.39196 0.16481,8.86574 1.64262,1.64262 4.80359,1.50673 6.79112,-0.29196 1.40012,-1.26709 1.92873,-1.28713 3.50716,-0.13296 1.78095,1.30227 1.74862,1.46893 -0.77441,3.99196 -3.57118,3.57118 -9.77383,3.67391 -13.22865,0.21908 z m 16.50478,-8.54568 v -11.04044 h 8 c 7.86667,0 8,0.0417 8,2.5 0,2.36364 -0.3,2.5 -5.5,2.5 -4.22222,0 -5.5,0.34849 -5.5,1.5 0,1.13333 1.22222,1.5 5,1.5 4.66667,0 5,0.16667 5,2.5 0,2.33333 -0.33333,2.5 -5,2.5 -4.29068,0 -5,0.27665 -5,1.9501 0,1.67259 0.81824,1.99277 5.75,2.25 4.98337,0.25992 5.75,0.56656 5.75,2.2999 0,1.81492 -0.76348,2.02688 -8.25,2.29044 l -8.25,0.29045 z m 18.42878,9.63454 c -0.27965,-0.72875 -0.37803,-5.56625 -0.21862,-10.75 l 0.28984,-9.42498 2.75,-0.31642 2.75,-0.31642 v 8.56642 8.56642 h 4.5 c 4.13334,0 4.5,0.20371 4.5,2.5 0,2.42964 -0.19791,2.5 -7.03138,2.5 -4.91493,0 -7.18443,-0.39883 -7.53984,-1.32502 z m 18.8989,0.32259 c -1.56699,-0.63164 -2.0208,-1.45506 -1.62857,-2.95494 0.48826,-1.86713 1.04156,-2.01326 5.42232,-1.43213 3.9198,0.51998 4.87857,0.35816 4.87857,-0.82338 0,-0.84699 -1.68077,-1.97411 -3.96382,-2.65813 -3.87744,-1.16171 -7.03618,-4.25794 -7.03618,-6.89695 0,-0.72762 1.10455,-2.42749 2.45455,-3.77749 2.6582,-2.6582 7.37019,-3.23208 12.02059,-1.464 2.16229,0.8221 2.43335,1.31193 1.59392,2.88041 -0.84052,1.57053 -1.79889,1.8011 -5.67187,1.36456 -5.79328,-0.65298 -5.76068,1.41806 0.054,3.43116 2.11125,0.73093 4.44842,1.83505 5.19372,2.45359 1.96973,1.63473 1.68009,7.27563 -0.47366,9.22474 -1.98508,1.79648 -9.10796,2.15838 -12.84358,0.65256 z m 16.11869,-0.74757 c 0.31963,-0.9625 2.04629,-5.8 3.83703,-10.75 3.09237,-8.54802 3.4032,-9 6.18934,-9 2.7961,0 3.1111,0.46822 6.72752,10 2.08674,5.5 3.79535,10.3375 3.79691,10.75 0.002,0.4125 -1.13331,0.75 -2.52192,0.75 -1.77293,0 -2.80779,-0.74444 -3.47525,-2.5 -0.76747,-2.01859 -1.634,-2.5 -4.5,-2.5 -2.866,0 -3.73253,0.48141 -4.5,2.5 -1.1625,3.05762 -6.5621,3.78682 -5.55363,0.75 z m 11.18392,-10.5 c -0.33164,-1.2375 -0.64075,-2.7 -0.68692,-3.25 -0.10484,-1.249 -1.77725,2.54568 -1.87308,4.25 -0.0387,0.6875 0.6572,1.25 1.54634,1.25 1.1885,0 1.45695,-0.59586 1.01366,-2.25 z M 38.893192,590.9099 c -24.76523,-6.94408 -40.4209804,-30.35461 -38.77483039,-57.98121 0.57199,-9.59947 3.26403999,-19.25349 7.28093999,-26.11035 5.5874304,-9.53778 18.6230904,-19.02678 30.8815604,-22.47953 7.17986,-2.02229 26.99409,-1.73928 36.83852,0.52618 4.4576,1.02581 9.7332,1.59029 12.23126,1.30873 2.88261,-0.32492 4.75745,-0.0557 5.45366,0.78321 0.6513,0.78477 0.94811,5.65925 0.76874,12.62505 -0.28356,11.01221 -0.36065,11.35641 -2.61489,11.67579 -3.27414,0.46388 -8.00557,-3.09896 -13.14747,-9.90024 -7.1042,-9.39687 -13.5331,-13.25983 -22.02982,-13.23718 -7.0734,0.0188 -13.99326,3.2428 -20.16693,9.39572 -9.24299,9.21193 -12.85174,20.22558 -12.79745,39.05697 0.0715,24.80874 7.5819,41.70096 21.47072,48.29164 4.60051,2.18308 12.72663,1.99597 17.42555,-0.40124 2.11871,-1.08089 8.85,-6.75433 14.95842,-12.60766 6.65508,-6.37716 11.65802,-10.43065 12.48307,-10.11405 0.9357,0.35906 1.60416,3.25716 2.0863,9.04508 0.90394,10.85177 -0.25567,13.76733 -5.96955,15.00889 -2.19457,0.47686 -7.81513,1.98342 -12.49013,3.34791 -10.8331,3.16186 -26.07691,3.9564 -33.88767,1.76629 z m 505.887668,-0.29549 c -20.99786,-5.4885 -31.13249,-21.77734 -29.66922,-47.68572 1.48026,-26.20921 13.62501,-39.13025 39.90594,-42.45671 15.52344,-1.96486 29.67882,2.72671 39.9504,13.24091 8.01166,8.2009 11.49874,20.03292 10.33349,35.0626 -2.28124,29.42391 -17.05478,43.72593 -45.02061,43.58369 -5.09905,-0.0259 -11.81735,-0.78219 -15.5,-1.74477 z m 26.28212,-4.56256 c 11.31911,-4.84312 16.36538,-22.44678 12.25368,-42.74638 -2.0838,-10.28777 -4.57477,-16.39405 -10.20335,-25.01216 -7.68746,-11.77053 -16.4151,-15.45352 -25.76672,-10.87333 -10.75489,5.26746 -14.60945,24.75357 -9.15211,46.26702 4.15857,16.39358 10.95731,27.24134 19.82398,31.63026 4.95785,2.4541 8.55265,2.65653 13.04452,0.73459 z m 60.89618,3.30807 c -14.74633,-7.36883 -23.40838,-25.43061 -21.70185,-45.25191 2.8002,-32.52419 24.5697,-49.46749 54.04507,-42.06352 8.84809,2.22257 9.47848,1.82528 9.47848,-5.97363 0,-9.78305 1.22184,-10.80673 12.45741,-10.43696 8.59396,0.28283 8.98552,0.39623 9.65032,2.79479 0.3811,1.375 0.73777,23.88737 0.79259,50.0275 0.087,41.50578 -0.0976,47.80908 -1.45702,49.75 -1.39786,1.99573 -2.41094,2.2225 -9.92857,2.2225 -11.11284,0 -11.51473,-0.42798 -11.51473,-12.2626 v -9.11974 l -3.51098,5.94117 c -9.48335,16.0474 -24.0345,21.50632 -38.31072,14.3724 z m 27.80185,-13.18123 c 5.54489,-2.83293 9.45701,-7.71791 12.0194,-15.0084 1.77268,-5.04358 2.00045,-8.25341 2.00045,-28.19094 v -22.4993 l -3.25,-1.71824 c -4.841,-2.55938 -16.05817,-2.33177 -21.37421,0.43371 -10.99425,5.71937 -17.20354,21.31346 -16.12952,40.50788 0.80416,14.37142 4.75692,22.99395 12.25373,26.7302 5.19164,2.5874 9.04984,2.51948 14.48015,-0.25491 z m 79.91232,14.80054 c -12.12322,-3.34325 -23.43105,-13.05129 -29.49362,-25.32099 -3.24823,-6.57391 -3.74874,-8.59068 -4.1805,-16.84522 -0.56117,-10.72842 1.43422,-21.21848 5.31998,-27.96797 7.16808,-12.45083 24.40224,-20.41636 44.17266,-20.41636 18.95983,0 32.88534,5.63886 37.96836,15.37452 2.2541,4.31734 2.01478,14.35105 -0.45696,19.15891 -5.29397,10.29749 -15.40028,15.15441 -34.3861,16.52539 -12.42982,0.89756 -17.2316,2.30238 -20.73942,6.06758 -1.85515,1.99127 -2.33276,2.12159 -3.15262,0.8602 -0.53143,-0.81763 -0.84879,-3.0616 -0.70524,-4.9866 0.22477,-3.01426 0.74674,-3.66565 3.76099,-4.69356 1.925,-0.65645 7.22696,-1.21895 11.78212,-1.25 13.30743,-0.0907 19.13674,-3.52961 21.85955,-12.89575 3.24695,-11.16913 0.15284,-22.67853 -7.23008,-26.89424 -7.72604,-4.41163 -16.32758,-2.40973 -24.49896,5.70183 -7.75913,7.70233 -10.18626,14.12349 -10.7004,28.30874 -0.32029,8.83667 -0.0164,12.00908 1.68789,17.62004 4.03481,13.28376 13.84087,24.01425 24.84988,27.19255 3.38471,0.97716 5.11187,0.96875 8.48316,-0.0413 5.30992,-1.59089 8.18953,-3.90844 14.75239,-11.87294 5.56288,-6.75094 10.16099,-10.16555 13.69706,-10.17161 2.80593,-0.005 3.23027,1.66013 3.00324,11.78352 -0.21104,9.41075 -1.03,10.5772 -6.78309,9.66127 -2.34177,-0.37283 -5.75322,0.15359 -9.7747,1.50833 -14.60944,4.92157 -29.48109,6.2837 -39.23559,3.59368 z m -535.3655,-1.424 c -5.38885,-1.15431 -5.49615,-2.03694 -5.51222,-45.34135 -0.0171,-45.9844 -0.99686,-42.2924 11.04306,-41.61208 10.10465,0.57096 10.94219,1.64698 10.94219,14.05784 v 9.92096 l 9.25,-9.44077 c 10.78489,-11.00731 18.6412,-15.52822 28.54514,-16.42628 8.25409,-0.74845 12.63095,0.27234 16.77733,3.91291 4.06377,3.56804 6.11363,7.14778 8.34424,14.57183 l 1.58329,5.26959 4.5,-5.64679 c 5.55253,-6.96753 14.50621,-13.42968 22.70916,-16.38989 12.48474,-4.50538 25.8359,-0.80994 30.7003,8.49749 1.99494,3.81708 2.10356,5.70216 2.37525,41.22224 l 0.2847,37.22224 -2.62074,0.65776 c -1.44142,0.36177 -5.60211,0.41845 -9.24599,0.12596 -10.66519,-0.8561 -10.20166,0.8053 -10.20825,-36.58898 -0.003,-18.599 -0.42963,-33.16605 -1.03445,-35.34373 -1.26338,-4.5489 -5.17757,-7.79549 -9.39849,-7.79549 -7.04915,0 -20.33681,9.35953 -25.31839,17.8337 l -2.7431,4.6663 -0.5,27.66923 c -0.275,15.21808 -0.87615,28.04308 -1.33589,28.5 -0.45974,0.45692 -4.38494,0.83077 -8.72267,0.83077 -6.8729,0 -8.17955,-0.29269 -10.16411,-2.27679 -2.26053,-2.26001 -2.28101,-2.53049 -2.77733,-36.67191 -0.49923,-34.34226 -0.50358,-34.39893 -2.83468,-36.8778 -7.19288,-7.64885 -22.34215,-0.50244 -33.54693,15.82518 l -4.11839,6.00132 -0.14719,25.93824 c -0.13444,23.69104 -0.30262,26.05189 -1.94113,27.25 -1.83943,1.34503 -9.5867,1.57315 -14.88471,0.4383 z m 156.35702,-0.19824 c -1.90125,-1.17504 -1.73375,-83.19947 0.17461,-85.4989 1.13587,-1.36864 2.7576,-1.58123 9.2119,-1.2076 10.59539,0.61336 11.09619,1.20156 11.7295,13.7765 l 0.5,9.92793 5.29556,-6.4451 c 16.23571,-19.76009 41.38106,-25.73149 51.5437,-12.24036 2.40998,3.19929 5.66074,11.40794 5.66074,14.29418 0,0.80578 0.2108,1.46505 0.46844,1.46505 0.25764,0 4.00152,-3.58568 8.31972,-7.96817 10.84688,-11.00838 18.211,-14.53183 30.37199,-14.53183 8.03344,0 8.9742,0.22031 13,3.04441 2.38692,1.67442 5.45154,5.04942 6.81026,7.5 l 2.47041,4.45559 0.3956,35.56257 c 0.45772,41.14703 0.95475,38.93743 -8.75862,38.93743 -8.05269,0 -11.69471,-1.46231 -13.00526,-5.22176 -0.67524,-1.937 -1.07254,-14.70172 -1.07254,-34.45958 0,-33.34586 -0.43633,-36.87626 -4.8496,-39.23817 -5.54243,-2.96622 -14.07824,0.22979 -23.27592,8.71504 -9.97066,9.19836 -10.23222,10.23054 -10.405,41.06107 -0.17495,31.21684 0.46327,29.58417 -11.28797,28.87601 -5.06057,-0.30496 -7.83728,-0.95922 -9,-2.12061 -1.48912,-1.48743 -1.73871,-5.59432 -2.18151,-35.8958 -0.54877,-37.55358 -0.50723,-37.30542 -6.7383,-40.26226 -8.25945,-3.91936 -21.91717,4.84244 -31.60612,20.27619 l -2.65558,4.23013 -0.0153,25.26987 c -0.008,13.89843 -0.42987,25.92523 -0.93655,26.72622 -0.68377,1.08096 -3.24366,1.49135 -9.9311,1.59214 -4.95542,0.0747 -9.56029,-0.2044 -10.23305,-0.62019 z m 39.11601,-179.56594 c -39.21252,-4.99616 -77.80769,-21.35585 -106,-44.93119 -26.67913,-22.30998 -45.67065,-51.17425 -57.85514,-87.93121 -8.88106,-26.79149 -12.14486,-47.12449 -12.14486,-75.66077 0,-24.48668 2.7439,-43.96639 9.44782,-67.07278 14.66524,-50.546638 44.9085,-87.410978 90.38348,-110.170898 50.46717,-25.2584704 109.88389,-30.6493004 175.6687,-15.9382804 31.52507,7.0497504 41.12712,7.7604404 58.71454,4.3457604 5.65701,-1.09834 11.07296,-1.99834 12.03546,-2 1.64209,-0.003 1.75,2.91856 1.75,47.37453 0,40.91471 -0.20482,47.547538 -1.50152,48.623698 -2.59029,2.14975 -11.49461,0.69752 -19.74402,-3.2201 -10.78723,-5.122838 -20.22382,-14.562468 -37.26911,-37.281158 -23.56097,-31.40304 -36.74228,-42.1727 -57.48535,-46.96784 -21.83393,-5.04732 -57.64841,3.62631 -81.33349,19.69752 -33.18678,22.51846 -55.92072,62.269148 -65.3527,114.270318 -2.64779,14.59796 -2.62716,70.97112 0.0331,90.5 7.81664,57.38157 26.56251,99.9272 54.31103,123.26435 19.11559,16.07665 42.08735,24.68114 62.61676,23.45426 11.39281,-0.68086 18.8769,-2.65842 29.22529,-7.72236 12.92356,-6.32408 20.2618,-12.63737 53.5,-46.02753 30.28198,-30.42042 36.54379,-35.85804 47.32478,-41.09585 3.81885,-1.85534 4.94405,-2.05592 5.59794,-0.99791 0.92022,1.48894 1.75507,19.28487 2.70406,57.64037 0.57145,23.09596 0.46477,26.16381 -0.95064,27.33849 -0.87687,0.72774 -4.87523,1.73147 -8.88523,2.2305 -14.5797,1.8144 -26.29298,4.9153 -58.74997,15.55306 -29.88885,9.79605 -44.57951,12.4161 -72.04094,12.84832 -11.275,0.17745 -22.075,0.12197 -24,-0.1233 z"
       id="path4"
       sodipodi:nodetypes="ccsscsscccsscsscssccssssssssscssssssccsssccsssscssccssssssssssscccccccccccccsscsscccsscssccssssssssssccsssssssssssccsscccccssssssssssssssssssssssscssssssssssssssssssssssssssssssssssssssssssssssssssssssscssssscsssssssssssssssssssssssssssssssssssscsssscsssscsscssscssssssscssssssscsssssssscssssssssssssccsssssssssssscsssssssssssssssssssss" /></g></svg>
