<?xml version="1.0" encoding="UTF-8" standalone="no"?>
<!-- Created with Inkscape (http://www.inkscape.org/) -->

<svg
   version="1.1"
   id="svg1"
   width="869.29303"
   height="994.38898"
   viewBox="0 0 869.29303 994.38898"
   sodipodi:docname="lagazelle.svg"
   inkscape:version="1.3.2 (091e20e, 2023-11-25, custom)"
   xmlns:inkscape="http://www.inkscape.org/namespaces/inkscape"
   xmlns:sodipodi="http://sodipodi.sourceforge.net/DTD/sodipodi-0.dtd"
   xmlns="http://www.w3.org/2000/svg"
   xmlns:svg="http://www.w3.org/2000/svg">
  <defs
     id="defs1" />
  <sodipodi:namedview
     id="namedview1"
     pagecolor="#ffffff"
     bordercolor="#000000"
     borderopacity="0.25"
     inkscape:showpageshadow="2"
     inkscape:pageopacity="0.0"
     inkscape:pagecheckerboard="0"
     inkscape:deskcolor="#d1d1d1"
     showgrid="false"
     inkscape:zoom="0.50784259"
     inkscape:cx="424.34409"
     inkscape:cy="310.13547"
     inkscape:window-width="1920"
     inkscape:window-height="1009"
     inkscape:window-x="-8"
     inkscape:window-y="-8"
     inkscape:window-maximized="1"
     inkscape:current-layer="svg1" />
  <path
     style="fill:#000000"
     d="m 410.75349,993.78596 c -83.50662,-5.1591 -163.15215,-33.1836 -229.5,-80.75307 C 122.79785,871.12193 77.652119,818.47415 46.418889,755.79226 36.400799,735.687 34.078339,730.52808 28.411499,715.79226 12.796089,675.18655 3.4245186,631.05145 0.66719858,585.13141 -1.7991514,544.05724 2.6093986,499.18591 13.276329,456.79226 37.235799,361.57001 93.400609,277.16168 172.47852,217.53225 c 41.84439,-31.55314 91.59836,-56.23551 142.54317,-70.714 5.37251,-1.52686 9.92227,-2.49484 10.11059,-2.15105 0.18832,0.34378 0.12694,2.34644 -0.13639,4.45035 -0.55387,4.42513 0.82699,3.71376 -19.7424,10.17046 -65.32603,20.50573 -121.44607,54.56073 -170.56709,103.50425 -20.5218,20.44764 -21.99776,22.057 -33.61812,36.65654 -88.966131,111.77498 -115.735801,261.90665 -70.492871,395.34346 7.22297,21.303 11.40044,31.44816 21.20615,51.5 10.66549,21.81001 17.62927,34.02146 28.79846,50.5 62.435661,92.11487 154.242731,154.4699 262.874311,178.5433 30.63557,6.7891 57.56654,9.6524 90.79916,9.6541 56.77744,0 106.73448,-9.4342 158.5,-29.9409 39.48691,-15.64255 77.55994,-37.80815 111,-64.62265 15.4486,-12.38773 39.65366,-35.78172 53.424,-51.63385 56.44526,-64.97861 91.89707,-145.7956 101.11293,-230.5 5.33254,-49.01227 1.54901,-103.16404 -10.50714,-150.38332 C 819.54146,347.29665 746.87427,252.39445 646.25349,194.71423 c -35.87284,-20.56388 -82.75084,-38.35284 -122.31681,-46.416 -6.22425,-1.26844 -11.54958,-2.53903 -11.83408,-2.82353 -0.2845,-0.28449 -0.77252,-2.4203 -1.08449,-4.74624 -0.54528,-4.06532 -0.47431,-4.20654 1.83408,-3.64943 1.32071,0.31875 5.3263,1.09074 8.9013,1.71553 30.61575,5.35063 71.59757,19.34508 105.5,36.02607 49.15342,24.18492 87.52207,52.4797 126.07258,92.97163 50.38017,52.91733 88.3462,123.97474 105.25726,197 3.81768,16.48547 6.35501,31.64984 9.37005,56 2.01789,16.29699 1.68895,69.89666 -0.53699,87.5 -2.72018,21.5119 -5.52882,37.64731 -9.23694,53.06528 -21.762,90.48433 -70.30264,169.40684 -141.02963,229.30087 -53.58108,45.3743 -113.1203,75.41205 -182.39633,92.01965 -37.55223,9.0024 -86.74784,13.4093 -124,11.1079 z m -12,-22.0875 C 302.36459,963.39156 213.1733,922.84516 144.8903,856.29226 110.57452,822.84594 84.426539,787.54751 63.882349,746.93568 35.259359,690.35366 21.198679,634.45582 19.071719,568.79226 18.177729,541.19293 22.432319,500.343 29.313769,470.45454 57.444309,348.27398 137.54874,246.3261 248.25349,191.81277 c 25.78172,-12.69546 48.59803,-21.45348 74.38889,-28.55411 6.81389,-1.87597 12.5823,-3.60426 12.81869,-3.84065 0.23639,-0.23639 0.82729,-4.41138 1.31312,-9.27777 1.8981,-19.01276 3.21306,-27.28364 6.09683,-38.34798 10.50586,-40.308586 24.07114,-71.843446 41.79435,-97.158246 8.77868,-12.538955 10.42691,-14.368435 12.04432,-13.368823 1.84718,1.141624 1.15513,4.399185 -4.86161,22.884148 -12.00163,36.872095 -19.82216,80.211151 -20.35495,112.801071 -0.1318,8.06198 0.005,14.90641 0.30352,15.20983 0.52212,0.53031 5.08735,0.13226 27.95684,-2.43759 6.76357,-0.76003 20.71322,-1.0186 39.20088,-0.72663 l 28.70088,0.45325 0.29912,-4.0785 c 0.16452,-2.24318 -0.002,-7.22851 -0.37085,-11.07851 -3.60636,-37.679866 -5.83281,-56.982016 -7.95899,-68.999996 -1.60217,-9.05612 -4.74971,-35.324508 -6.02757,-50.304265 -0.85533,-10.026535 -0.85091,-13.588296 0.0179,-14.457143 1.89521,-1.895209 3.69957,0.816142 10.5272,15.818842 8.71967,19.160199 18.52268,49.622976 24.64007,76.568906 1.66697,7.342676 3.89292,16.730576 4.94655,20.861996 3.22103,12.63005 6.91692,29.26232 7.57659,34.09622 0.34411,2.5215 0.93795,5.08988 1.31966,5.70749 0.3817,0.61761 6.30427,2.30344 13.16126,3.74629 78.52758,16.52379 151.32645,55.61975 209.32204,112.41447 68.86237,67.4365 109.83307,150.1136 121.63856,245.46133 3.10511,25.07863 3.08425,70.76965 -0.043,94.08586 -6.538,48.74682 -19.68553,92.86112 -39.51203,132.57587 -65.32059,130.84482 -192.85356,216.46003 -342.43827,229.88513 -13.20966,1.1856 -51.98111,1.1534 -66,-0.055 z m 75.5,-57.94503 c 20.35656,-2.58909 29.71684,-4.29884 46.5,-8.4937 128.67035,-32.1605 229.46499,-135.79908 258.90957,-266.21475 11.14861,-49.37932 11.69401,-102.50663 1.54687,-150.67842 -9.94136,-47.19484 -25.82361,-85.42328 -51.96292,-125.0743 -42.22812,-64.05632 -104.16989,-112.34204 -178.03835,-138.78694 -6.38298,-2.28511 -32.16837,-9.7143 -38.55431,-11.10814 l -2.59915,-0.5673 -0.61657,39.23119 c -0.7472,47.54259 -1.76809,60.24385 -9.12288,113.50174 -0.85604,6.1988 -2.44923,19.2488 -3.54041,29 -1.09119,9.7512 -2.27866,19.86695 -2.63884,22.47945 -0.36017,2.6125 -0.37371,4.75 -0.0301,4.75 0.34362,0 2.4783,-3.68651 4.74374,-8.19225 6.48288,-12.89381 12.82424,-21.27711 27.11923,-35.8517 18.41372,-18.77389 24.64415,-23.67175 47.94695,-37.69204 27.77803,-16.71283 35.56662,-20.4314 44.07994,-21.0454 5.90695,-0.42603 7.16947,-0.19393 10.18502,1.87235 4.93802,3.38359 7.97804,9.93146 7.21057,15.53078 -1.00485,7.33116 -3.05311,11.16187 -19.45125,36.37826 -10.43095,16.0403 -12.40303,18.82763 -18.53871,26.20259 -7.27061,8.73912 -30.00742,30.73109 -37.21929,36.00002 -4.24783,3.10344 -27.22932,14.79739 -29.08049,14.79739 -2.20521,0 -15.71868,7.42556 -19.55332,10.74442 -2.57397,2.22775 -5.17445,4.2153 -5.77884,4.41676 -0.73574,0.24525 -0.55664,1.45327 0.54195,3.65544 2.31336,4.63726 2.87636,13.3275 1.5225,23.50112 -1.10984,8.3399 -1.04972,9.02674 1.37934,15.76068 3.24202,8.98764 3.19158,11.0404 -0.46104,18.76137 -1.64957,3.48688 -3.00118,7.08688 -3.00358,8 -0.002,0.91311 1.20291,7.88387 2.67848,15.49057 l 2.68286,13.83036 -1.73997,9.16964 c -0.95699,5.0433 -3.23253,13.66964 -5.05676,19.16964 -3.47652,10.4816 -5.79283,22.74783 -10.10276,53.5 -2.2287,15.90216 -3.4117,20.95741 -8.42455,36 -5.63332,16.90452 -5.88808,18.12951 -7.48715,36 -0.91047,10.175 -2.07244,21.2 -2.58216,24.5 -0.50972,3.3 -1.38359,11.85 -1.94194,19 -1.12237,14.37284 -2.76227,26.81571 -7.18275,54.5 -1.62469,10.175 -3.57288,24.575 -4.32931,32 -0.75642,7.425 -2.27377,17.57903 -3.37187,22.56452 -1.09811,4.98549 -2.49881,13.62888 -3.11267,19.20753 -1.20182,10.92191 -2.4355,19.09022 -3.54593,23.47795 -0.6561,2.59249 -0.5036,2.74989 2.66244,2.74808 1.84713,-10e-4 10.55841,-0.91767 19.35841,-2.03691 z m -5.08081,-18.1812 c 0.76181,-4.76406 1.79081,-5.74047 6.08081,-5.76998 9.39012,-0.0646 44.77815,-7.80613 62,-13.5632 31.62921,-10.57327 61.56891,-25.53354 88.2045,-44.07403 50.33427,-35.03664 90.76831,-84.94826 115.22454,-142.23272 17.46872,-40.91743 26.16318,-83.72847 26.22694,-129.14004 0.063,-44.90268 -8.1993,-86.25224 -25.67645,-128.5 C 703.5812,341.276 623.70203,269.92799 528.00349,241.8358 l -7.25,-2.12823 v -4.45766 c 0,-2.45171 0.3375,-4.45759 0.75,-4.45752 0.4125,8e-5 6.6,1.76747 13.75,3.92755 53.13819,16.05348 104.16378,47.29255 144.06704,88.20123 26.2508,26.91222 45.97183,55.1653 62.93554,90.16378 35.74205,73.7408 43.36213,157.77878 21.54576,237.61716 -5.44244,19.91695 -14.55508,44.13841 -22.79534,60.59015 -40.83077,81.51896 -112.27641,143.71431 -197.98959,172.35527 -20.90024,6.98379 -30.5258,9.32924 -56.1915,13.69212 -19.39389,3.29674 -18.47719,3.38852 -17.65272,-1.76742 z m -185.6179,-37.02997 c 4.87122,-10.0375 10.10935,-21.4 11.6403,-25.25 8.67583,-21.81785 12.06909,-28.9468 27.44951,-57.66918 6.72013,-12.54959 12.49513,-26.82329 14.56894,-36.00913 1.86925,-8.27976 6.94981,-25.25696 12.21547,-40.81926 2.91379,-8.6115 3.89145,-13.73204 5.4415,-28.5 1.03924,-9.90134 2.41911,-21.60243 3.06637,-26.00243 0.64726,-4.4 1.14452,-17.9 1.10502,-30 l -0.0718,-22 -4.60829,-12.21084 c -5.32007,-14.0969 -5.6233,-17.8214 -2.95448,-36.28916 l 1.66189,-11.5 -3.15785,-6.22148 c -3.82464,-7.53517 -3.91963,-10.46123 -0.60216,-18.54839 3.45411,-8.42023 4.19939,-14.92878 2.07988,-18.16356 -0.89958,-1.37291 -1.63559,-4.45712 -1.63559,-6.8538 0,-6.02546 -5.00441,-15.25384 -8.76897,-16.17041 -8.90584,-2.16835 -27.0487,-10.66462 -39.70481,-18.59371 -21.10306,-13.22112 -31.89579,-23.05693 -42.73794,-38.94865 -2.43905,-3.575 -6.68175,-9.65 -9.42822,-13.5 -7.0245,-9.84693 -17.96373,-28.48316 -22.51422,-38.35554 -5.27785,-11.45041 -6.90073,-17.58629 -7.09794,-26.83647 -0.14186,-6.65371 0.18968,-8.47092 2.11335,-11.58348 3.10147,-5.01829 6.79068,-7.72451 10.53031,-7.72451 9.82596,0 59.52434,35.24915 84.25615,59.75964 10.17407,10.08304 25.75149,29.48536 33.91322,42.24036 1.58372,2.475 6.59138,11.7 11.12813,20.5 4.53676,8.8 8.25926,15.55 8.27224,15 0.0779,-3.2997 -2.75735,-16.77407 -7.56532,-35.95447 -3.02685,-12.07496 -6.38792,-27.72577 -7.46905,-34.77957 -1.08113,-7.0538 -3.07355,-18.32428 -4.42759,-25.04552 -1.35405,-6.72124 -2.89092,-15.14544 -3.41527,-18.72044 -1.82403,-12.43622 -5.06126,-32.5691 -6.99451,-43.5 -2.17083,-12.27421 -3.55574,-26.01129 -5.0912,-50.5 -1.13746,-18.14131 -1.46729,-20 -3.54903,-20 -2.51181,0 -21.24986,6.79222 -35.79489,12.97503 -41.99452,17.85105 -78.91428,43.01769 -112.16086,76.45531 -10.93052,10.99333 -12.37309,12.5717 -22.00832,24.08004 -9.97377,11.9127 -18.16654,23.50373 -30.03249,42.48962 -30.02899,48.04732 -49.492851,113.87167 -51.155051,173 -0.53813,19.14223 0.75726,45.91988 2.7574,57 0.54606,3.025 1.89703,11.125 3.00215,18 4.64116,28.87284 16.530761,65.23718 30.340111,92.7952 29.34131,58.55372 67.96453,102.98691 121.29677,139.54307 11.37541,7.79719 33.80152,20.65734 36.02812,20.66018 0.67224,8.5e-4 5.2078,-8.21095 10.07902,-18.24845 z m -26.97345,-6.03024 C 200.47385,818.81414 154.24398,768.55765 125.91678,710.46656 97.656659,652.51304 87.077359,593.8595 92.877759,527.29226 c 4.88314,-56.04047 25.295321,-111.92199 58.626831,-160.5 37.40719,-54.518 93.46421,-99.03977 155.27288,-123.32125 16.93285,-6.65206 16.63922,-6.61785 17.22672,-2.00739 0.26834,2.10575 0.2092,4.12447 -0.13141,4.48604 -0.34061,0.36158 -6.46929,2.98317 -13.61929,5.82576 -58.11353,23.10393 -107.64603,61.20013 -145.15746,111.6428 -34.65047,46.59545 -57.27722,104.33416 -63.23955,161.37404 -6.671051,63.81998 4.61435,126.43649 33.05997,183.43171 27.9696,56.04145 72.91868,104.79629 125.58704,136.22027 6.1875,3.6917 11.25,7.1026 11.25,7.57976 0,1.51169 -3.01606,6.76826 -3.88342,6.76826 -0.45763,0 -5.53756,-2.82611 -11.28874,-6.28024 z m 149.24951,1.78024 c 1.14569,-3.85 3.81763,-11.95 5.93765,-18 3.48054,-9.93261 11.40945,-34.2445 18.36458,-56.31013 3.71222,-11.77725 6.2632,-28.71044 4.62296,-30.68681 -3.59422,-4.33077 -11.00254,0.67403 -11.00254,7.43293 0,8.2672 -6.25308,41.81446 -10.72971,57.56401 -4.44874,15.6514 -7.04636,25.85565 -7.76418,30.5 -0.38253,2.475 -1.58562,8.1 -2.67353,12.5 -2.94239,11.90032 -2.98884,12.34985 -0.82661,8 1.09357,-2.2 2.9257,-7.15 4.07138,-11 z m 36.53154,-118.97649 c 6.66027,-1.97789 9.9192,-5.67057 12.87483,-14.58841 3.46249,-10.44719 3.39484,-10.97631 -1.23372,-9.64956 -2.0625,0.59121 -9.6,1.15427 -16.75,1.25126 -7.15,0.097 -16.0241,0.52641 -19.72022,0.95428 -5.4693,0.63315 -7.18458,0.4737 -9.21482,-0.85656 -1.37203,-0.89899 -2.73543,-1.63452 -3.02978,-1.63452 -1.93799,0 2.63844,16.46868 5.35741,19.27913 2.39565,2.47624 15.57509,6.50241 21.67591,6.62173 2.78767,0.0545 7.30585,-0.56528 10.04039,-1.37735 z m -16.14369,-31.6271 c 3.26274,-2.86472 3.53477,-3.53818 3.53442,-8.75 -3.7e-4,-5.43635 -0.19949,-5.86203 -5.35226,-11.44229 -5.07363,-5.49454 -5.48938,-5.73322 -7.99667,-4.59083 -4.36883,1.99058 -9.77428,-0.2092 -12.52038,-5.09522 -1.24205,-2.20994 -2.44534,-4.01807 -2.67397,-4.01807 -0.94187,0 -4.45459,8.09091 -4.4328,10.21016 0.0351,3.41775 3.7713,16.83771 5.15027,18.49927 1.32147,1.59227 9.88639,6.14752 13.82619,7.35344 4.64048,1.4204 6.91667,0.94919 10.4652,-2.16646 z m 26.42846,-0.73372 c 4.22384,-2.59486 4.88,-3.56232 7.90186,-11.65077 4.12075,-11.02978 3.79351,-14.06226 -1.60311,-14.85574 -2.03083,-0.2986 -5.15849,-0.845 -6.95038,-1.21421 -2.8821,-0.59386 -3.9204,-0.11667 -9,4.13625 -9.04883,7.5762 -10.16502,9.21113 -10.20607,14.94927 -0.0417,5.83584 1.79164,9.03717 6.34234,11.07457 3.98814,1.78554 7.74065,1.10825 13.51536,-2.43937 z m 17.10634,-7.13131 c 0,-0.8725 0.60903,-2.474 1.3534,-3.55887 2.64702,-3.85788 10.85222,-32.51221 13.1302,-45.8535 3.35655,-19.65808 0.4932,-14.47027 -6.00563,10.88099 -4.84557,18.90207 -7.74993,28.1526 -10.58174,33.7034 -1.94016,3.80304 -2.46317,7.89633 -1.17368,9.18582 0.90958,0.90958 3.27745,-2.23885 3.27745,-4.35784 z m -78.00264,-4.54762 c -0.52752,-3.24121 -2.81096,-10.11556 -5.0743,-15.27635 -3.79623,-8.65601 -7.87867,-24.25008 -7.90992,-30.21429 -0.0127,-2.42948 -5.11728,-16.3994 -8.21889,-22.49312 -0.83982,-1.65 -1.84111,-4.73348 -2.22508,-6.85218 -0.38398,-2.1187 -0.91497,-3.63535 -1.17999,-3.37034 -0.26501,0.26502 0.17677,4.6985 0.98174,9.85219 0.80498,5.15368 1.77088,13.19533 2.14645,17.87033 1.00014,12.44928 2.1589,17.6702 5.42502,24.44295 1.60654,3.33138 5.22441,11.00705 8.03972,17.05705 5.26597,11.3164 7.87959,15.97164 8.57603,15.27519 0.21909,-0.21909 -0.0333,-3.05023 -0.56078,-6.29143 z m 43.57795,-12.24907 c 0.59142,-0.40408 1.94142,-2.24092 3,-4.08186 1.12134,-1.95009 3.82917,-4.31754 6.4875,-5.672 8.40269,-4.28128 8.88267,-7.24187 1.70243,-10.50094 -5.84097,-2.65118 -15.5475,-2.64178 -20.76524,0.0201 -2.21618,1.13061 -5.89377,2 -8.46016,2 -4.94589,0 -8.53984,2.47354 -8.53984,5.87756 0,2.67146 2.73577,4.78667 4.24238,3.28006 2.14315,-2.14315 4.19699,-1.1841 9.29943,4.34238 4.27549,4.6308 5.62165,5.49758 8.51809,5.48469 1.89206,-0.008 3.92399,-0.34592 4.51541,-0.75 z m 26.88447,-33.63555 -1.66541,-6.90085 3.09455,-2.8921 c 1.70199,-1.59066 3.36254,-4.11027 3.69009,-5.59915 1.442,-6.55447 3.7972,-14.14192 6.06541,-19.54018 2.41581,-5.74955 2.44884,-6.22962 2.30534,-33.5 -0.21065,-40.02838 -0.73799,-36.44289 6.49591,-44.16686 2.41687,-2.58061 5.85798,-8.12551 8.06766,-13 l 3.85319,-8.5 0.0667,-14.5 0.0667,-14.5 -3.70358,-7.55618 c -2.29829,-4.68904 -4.66923,-8.07297 -6.24849,-8.91817 -3.38905,-1.81376 -3.83346,-1.09541 -2.20757,3.56836 2.49302,7.15111 2.80595,16.33954 0.74605,21.90599 -3.25901,8.80679 -12.74856,31.78227 -15.96844,38.66174 -2.77866,5.9368 -3.11112,7.62355 -3.05505,15.5 0.0346,4.86105 0.42669,12.65106 0.87129,17.31114 0.90959,9.53385 0.0728,13.96959 -6.41952,34.02712 -6.7301,20.79234 -6.5802,19.84619 -4.9154,31.02379 0.81977,5.50403 2.37029,13.44731 3.4456,17.65173 1.07531,4.20442 1.95511,8.72077 1.95511,10.03632 0,1.31556 1.0125,4.15728 2.25,6.31495 l 2.25,3.92302 0.31259,-6.72491 c 0.18309,-3.9389 -0.37736,-9.58379 -1.35281,-13.62576 z m -54.99654,-20.09914 c -0.53102,-12.70765 -1.01055,-15.97846 -3.13784,-21.40256 -4.04866,-10.32317 -11.3176,-36.26852 -11.32166,-40.41092 -0.002,-2.09742 0.69642,-8.39742 1.55216,-14 l 1.5559,-10.18652 -8.11091,-14.5 c -13.45189,-24.04815 -16.24935,-30.4691 -16.77439,-38.50187 -0.39776,-6.08531 -0.0538,-8.04192 2.62748,-14.94711 1.69683,-4.36988 2.93357,-8.0968 2.74831,-8.28206 -0.56782,-0.56783 -10.02277,7.25361 -12.89527,10.66738 -2.58219,3.06876 -2.70702,3.72229 -2.70702,14.1725 0,7.47591 0.47641,12.0956 1.5,14.5454 0.825,1.97451 1.5,4.82848 1.5,6.34216 0,4.20364 2.52462,10.4629 7.40224,18.35225 5.473,8.85237 6.58705,12.8537 6.58497,23.65135 -9e-4,4.675 0.52935,14.35 1.17834,21.5 1.07109,11.80044 1.47004,13.46137 4.3236,18 5.17366,8.22877 16.32917,31.7271 17.46221,36.78296 0.8821,3.93612 0.64362,6.78542 -1.44764,17.29552 -3.74514,18.82213 -3.29,19.83106 3.12242,6.92152 l 5.4639,-11 z M 364.36221,456.36954 c 0.27266,-0.71054 -1.08468,-3.98847 -3.01631,-7.2843 -5.65983,-9.65702 -34.92006,-50.56778 -42.04997,-58.79298 l -3.46735,-4 -0.0375,7.3525 c -0.0769,15.05712 11.18439,39.84873 24.63043,54.22363 9.38347,10.03169 21.67813,14.39742 23.94074,8.50115 z m 81.17275,-8.59797 c 7.94186,-6.68507 7.72088,-6.20496 11.72761,-25.47931 3.66457,-17.62837 9.80331,-63.71913 11.52078,-86.5 0.43538,-5.775 1.03594,-11.175 1.33458,-12 1.4736,-4.0709 2.74913,-39.45431 2.73064,-75.74826 -0.0114,-22.28085 -0.23385,-40.72384 -0.49443,-40.98442 -1.30004,-1.30004 -18.31703,-2.42267 -37.10065,-2.44759 -19.87079,-0.0263 -42.94457,1.68154 -58.25,4.31159 l -6.25,1.07399 v 15.21204 c 0,16.15457 2.59755,47.31088 6.00965,72.08265 1.13636,8.25 2.74614,20.175 3.57729,26.5 0.83114,6.325 1.90589,13.075 2.38833,15 0.48244,1.925 2.07661,11.15 3.5426,20.5 2.83043,18.05235 7.53598,40.37073 9.90935,47 0.78762,2.2 1.94581,6.7 2.57373,10 3.68083,19.34419 8.2506,31.57682 13.06683,34.97807 3.14163,2.21864 4.41133,2.42801 14.99666,2.47289 l 11.56445,0.049 z M 381.75349,227.85128 c 0,-2.16754 0.39764,-4.18674 0.88365,-4.48711 3.75872,-2.32302 45.74351,-4.79613 64.61635,-3.80623 l 14,0.73432 0.29819,4.05952 0.29819,4.05951 -25.79819,-0.0263 c -18.9218,-0.0193 -29.1735,0.43132 -38.46135,1.69049 -16.89192,2.29008 -15.83684,2.43826 -15.83684,-2.2242 z m 130.80699,210.76989 c 15.8806,-16.61602 21.62467,-23.54746 23.8113,-28.73338 1.70685,-4.04806 6.72196,-24.08862 6.167,-24.64357 -0.1977,-0.19771 -3.0699,1.3543 -6.38265,3.44891 -5.86821,3.71039 -19.61402,18.32354 -27.21854,28.93599 -7.42763,10.36561 -15.1841,24.77635 -15.1841,28.21054 0,2.38088 3.06101,8.11927 4.11389,7.71218 0.36924,-0.14277 6.98114,-6.86157 14.6931,-14.93067 z M 381.6622,141.37929 c -0.32521,-0.33162 -0.31832,-2.28229 0.0153,-4.33482 0.58532,-3.60092 0.78153,-3.75704 5.59129,-4.44873 9.78467,-1.40714 47.88445,-2.8147 58.58931,-2.16453 l 10.89539,0.66173 v 3.34966 c 0,1.84231 -0.1125,3.67164 -0.25,4.06518 -0.1375,0.39354 -7.225,0.59319 -15.75,0.44368 -14.14947,-0.24816 -39.25132,0.89875 -53,2.42158 -3.025,0.33505 -5.76608,0.33786 -6.09129,0.006 z"
     id="path1"
     inkscape:label="La Gazelle" />
</svg>
