<?xml version="1.0" encoding="UTF-8" standalone="no"?>
<!-- Created with Inkscape (http://www.inkscape.org/) -->

<svg
   width="1268"
   height="986.646"
   viewBox="0 0 335.49167 261.05009"
   version="1.1"
   id="svg1"
   xml:space="preserve"
   inkscape:version="1.3.2 (091e20e, 2023-11-25, custom)"
   sodipodi:docname="legorille.svg"
   xmlns:inkscape="http://www.inkscape.org/namespaces/inkscape"
   xmlns:sodipodi="http://sodipodi.sourceforge.net/DTD/sodipodi-0.dtd"
   xmlns="http://www.w3.org/2000/svg"
   xmlns:svg="http://www.w3.org/2000/svg"><sodipodi:namedview
     id="namedview1"
     pagecolor="#ffffff"
     bordercolor="#000000"
     borderopacity="0.25"
     inkscape:showpageshadow="2"
     inkscape:pageopacity="0.0"
     inkscape:pagecheckerboard="0"
     inkscape:deskcolor="#d1d1d1"
     inkscape:document-units="mm"
     inkscape:zoom="0.51213161"
     inkscape:cx="610.19471"
     inkscape:cy="467.65323"
     inkscape:window-width="1920"
     inkscape:window-height="1009"
     inkscape:window-x="-8"
     inkscape:window-y="-8"
     inkscape:window-maximized="1"
     inkscape:current-layer="layer1" /><defs
     id="defs1" /><g
     inkscape:label="Calque 1"
     inkscape:groupmode="layer"
     id="layer1"><path
       style="fill:#000000"
       d="m 145.91771,260.93369 c -3.65611,-0.23158 -6.58213,-0.83642 -9.12813,-1.88689 -1.55907,-0.64327 -2.36123,-1.19379 -3.7427,-2.5686 -1.51548,-1.50818 -1.83521,-1.9988 -2.3151,-3.55249 -1.07921,-3.49408 -0.53621,-8.29016 1.34551,-11.88414 3.50269,-6.68998 13.15919,-10.15118 25.63851,-9.18967 5.94876,0.45834 9.67296,1.70162 12.37547,4.13141 3.19282,2.87062 3.97475,8.09019 2.04378,13.6427 -0.84393,2.42672 -2.00224,4.1742 -3.91302,5.90335 -4.55299,4.12022 -12.43312,6.02958 -22.30432,5.40433 z m 8.89884,-9.07885 c 2.50724,-0.90023 4.44252,-3.3079 4.83848,-6.0195 0.53657,-3.67451 -1.92659,-5.64036 -7.00547,-5.59111 -3.7674,0.0365 -6.45293,1.32976 -8.01792,3.86107 -0.59376,0.96039 -0.7983,1.66277 -0.90061,3.09262 -0.20619,2.88185 0.56915,4.07792 3.20261,4.94041 1.47425,0.48283 6.22438,0.31201 7.88291,-0.28349 z m -56.537176,8.72692 c -5.981621,-1.08661 -9.556846,-3.22813 -11.183542,-6.69882 -0.663732,-1.41613 -0.708175,-1.74333 -0.690736,-5.08538 0.01639,-3.14093 0.101179,-3.80383 0.702777,-5.4944 0.879609,-2.47182 1.956441,-4.13203 3.847126,-5.93131 4.51924,-4.30077 12.350531,-6.19876 22.765871,-5.51753 6.70369,0.43846 10.49223,1.68641 13.13127,4.32545 1.52465,1.52465 2.26453,3.24239 2.26453,5.25747 v 1.01032 h -7.02854 -7.02854 l -0.64603,-0.76776 c -0.83576,-0.99325 -2.7173,-1.47119 -5.66981,-1.44022 -4.91893,0.0516 -8.17501,2.35512 -9.009243,6.37361 -0.636372,3.06539 0.400913,5.18285 2.954423,6.03099 1.92523,0.63946 6.93931,0.43792 8.98106,-0.36098 2.95538,-1.15639 2.8679,-1.35115 -0.61114,-1.36056 -1.70987,-0.005 -3.10885,-0.07 -3.10885,-0.14533 0,-0.19696 1.06532,-5.19863 1.22473,-5.75007 0.12432,-0.43005 0.82025,-0.46302 9.77331,-0.46302 9.05859,0 9.63946,0.0283 9.63946,0.47 0,0.2585 -0.65484,3.6081 -1.45521,7.44356 -0.80036,3.83545 -1.45521,7.07676 -1.45521,7.20291 0,0.12615 -1.86068,0.22937 -4.13485,0.22937 h -4.13486 l 0.17313,-1.08273 c 0.0952,-0.5955 0.0807,-1.04154 -0.0323,-0.9912 -0.113,0.0503 -1.21749,0.58922 -2.45442,1.19752 -3.12394,1.53631 -5.37161,1.94004 -10.63833,1.91086 -2.37084,-0.0131 -5.150067,-0.17637 -6.176047,-0.36275 z m 202.221156,-0.59799 c -2.14645,-0.0483 -3.90262,-0.1811 -3.90262,-0.29506 0,-0.11396 0.46812,-2.46226 1.04026,-5.21845 0.57214,-2.75619 1.76984,-8.58312 2.66156,-12.94875 0.89173,-4.36562 1.68178,-8.14586 1.7557,-8.40052 0.12612,-0.43454 1.14229,-0.46302 16.52073,-0.46302 14.47297,0 16.38633,0.0469 16.38633,0.40149 0,0.32947 -0.52405,3.00469 -1.20415,6.14695 l -0.12884,0.59531 h -10.2823 -10.2823 l -0.296,1.1755 c -0.55107,2.18853 -1.43605,1.9995 9.3613,1.9995 9.02668,0 9.65633,0.0302 9.64249,0.46302 -0.008,0.25466 -0.2811,1.71318 -0.60657,3.24115 l -0.59176,2.77812 -9.79977,0.0693 -9.79976,0.0693 -0.30929,1.33992 c -0.17011,0.73696 -0.3093,1.50944 -0.3093,1.71662 0,0.31942 1.56867,0.37669 10.31875,0.37669 9.65537,0 10.31802,0.0298 10.30726,0.46302 -0.0162,0.65139 -1.17003,6.10125 -1.32008,6.23491 -0.17042,0.1518 -24.35289,0.36322 -29.16165,0.25495 z M 0,259.80508 c 0,-0.12717 4.299356,-20.99129 5.034265,-24.43051 0.287092,-1.34353 0.521985,-2.50439 0.521985,-2.57969 0,-0.0753 2.738437,-0.13691 6.085416,-0.13691 5.460929,0 6.085417,0.0445 6.085417,0.43342 0,0.39993 -2.848784,14.42236 -3.443102,16.94781 -0.497762,2.11515 -1.415374,1.93336 9.758684,1.93336 h 10.019749 l -0.819823,3.96875 -0.819822,3.96875 H 16.211384 C 7.295123,259.91006 0,259.86286 0,259.80508 Z m 34.785137,-0.90854 c 0.09418,-0.55744 1.334724,-6.65939 2.756769,-13.5599 l 2.585537,-12.54638 16.235058,-0.0682 c 8.929283,-0.0375 16.336806,0.0335 16.461163,0.15791 0.125083,0.12508 0.04917,1.04215 -0.169912,2.05257 -0.217809,1.00456 -0.529479,2.51108 -0.692601,3.34783 l -0.296585,1.52135 H 61.377011 51.089456 l -0.275544,0.99219 c -0.15155,0.5457 -0.276209,1.26008 -0.27702,1.5875 l -0.0015,0.59531 h 9.657292 c 6.007081,0 9.657292,0.0962 9.657292,0.25452 0,0.68223 -1.170367,5.7404 -1.395078,6.02934 -0.197374,0.25378 -2.491381,0.33073 -9.860186,0.33073 h -9.602971 l -0.286508,1.33594 c -0.157579,0.73476 -0.286507,1.50867 -0.286507,1.71979 0,0.32885 1.478511,0.38385 10.31875,0.38385 5.675312,0 10.31875,0.0706 10.31875,0.15687 0,0.16072 -0.957861,5.05536 -1.199026,6.12698 l -0.133973,0.59532 H 51.168578 34.613904 Z m 137.814683,0.4182 c 0.0819,-0.32742 1.05148,-5.00062 2.15467,-10.38489 1.1032,-5.38427 2.29928,-11.19047 2.65795,-12.90265 0.35868,-1.71219 0.65214,-3.17722 0.65214,-3.25563 0,-0.0784 6.51867,-0.0988 14.48594,-0.0453 15.44571,0.10374 15.57681,0.11427 18.21515,1.46324 1.34452,0.68745 2.58528,2.07233 3.05215,3.40669 0.42013,1.20073 0.42476,4.54353 0.008,6.04603 -0.741,2.67388 -2.89838,4.82156 -5.65781,5.63236 -0.84044,0.24694 -1.52823,0.54035 -1.52844,0.65201 -2e-4,0.11166 0.95214,2.33474 2.1163,4.94019 1.16417,2.60544 2.11667,4.80812 2.11667,4.89483 0,0.0867 -2.93851,0.12581 -6.53003,0.0869 l -6.53003,-0.0708 -1.47128,-3.63802 -1.47128,-3.63802 h -4.26714 -4.26715 l -0.75893,3.70417 -0.75892,3.70417 h -6.18359 -6.1836 z m 25.62721,-13.96736 c 1.21686,-0.33796 2.06256,-1.3727 2.06256,-2.52363 0,-1.57045 -0.48221,-1.69911 -6.36806,-1.69911 h -5.192 l -0.43768,1.99189 c -0.24072,1.09555 -0.43768,2.10758 -0.43768,2.24896 0,0.34902 9.10825,0.33312 10.37286,-0.0181 z m 14.34491,13.4382 c 0.15854,-0.99507 2.06157,-10.33076 4.49,-22.02657 l 0.82404,-3.96875 5.9339,-0.0713 c 3.26365,-0.0392 6.02502,0.0203 6.13638,0.13229 0.11136,0.112 -0.0841,1.57285 -0.43445,3.24634 -0.35031,1.67349 -1.46898,7.09083 -2.48595,12.03854 -1.01695,4.94771 -1.98389,9.62091 -2.14874,10.38489 l -0.29972,1.38907 h -6.09731 -6.09731 z m 14.96972,0.70834 c 0,-0.35761 2.31976,-11.81428 4.71054,-23.26407 l 0.7182,-3.43959 6.1791,-0.0711 6.1791,-0.0711 -0.14375,0.60026 c -0.0791,0.33015 -0.75182,3.57683 -1.49504,7.21485 -0.7432,3.63802 -1.57124,7.65024 -1.8401,8.91604 -0.26884,1.2658 -0.42315,2.36713 -0.34288,2.4474 0.0803,0.0803 4.59094,0.14594 10.02372,0.14594 5.43279,0 9.87778,0.0431 9.87778,0.0959 0,0.12898 -1.28008,6.49389 -1.45733,7.24628 l -0.14025,0.59532 H 243.6762 c -14.49727,0 -16.13454,-0.0422 -16.13454,-0.41614 z m 34.52139,-0.17918 c 0.0746,-0.32742 1.32602,-6.34983 2.78094,-13.38313 1.45492,-7.03329 2.71288,-12.89712 2.79544,-13.03072 0.15128,-0.24479 11.82423,-0.35565 12.06528,-0.11459 0.0706,0.0706 -0.74263,4.32706 -1.80714,9.45885 -1.0645,5.13179 -1.93584,9.41983 -1.9363,9.52897 -4.7e-4,0.10914 4.52578,0.19844 10.05836,0.19844 h 10.05921 l -0.14198,0.59531 c -0.31987,1.34126 -1.45562,6.88495 -1.45562,7.10501 0,0.13727 -6.85602,0.23718 -16.2769,0.23718 H 261.92741 Z M 1.059322,196.21162 c 9.54e-4,-20.86563 0.01894,-21.65913 0.509189,-22.46313 0.621166,-1.0187 1.854093,-1.86929 5.972114,-4.12012 3.122103,-1.70648 4.10489,-2.15122 12.303125,-5.5676 11.955881,-4.98228 24.990039,-11.53313 33.734375,-16.95461 3.059216,-1.89671 10.839585,-6.90698 19.711458,-12.69345 5.626449,-3.66973 8.461333,-6.55158 10.642944,-10.81929 3.114828,-6.09329 6.681415,-13.85753 7.263858,-15.81296 0.928852,-3.11843 1.126555,-7.874462 0.485713,-11.684549 -1.405143,-8.354195 0.321932,-13.906294 6.472393,-20.807064 2.147099,-2.409032 3.919809,-3.763101 4.923959,-3.761138 1.25409,0.0025 2.18797,0.998927 3.52356,3.759729 2.40696,4.975423 2.43888,7.145306 0.20185,13.719621 -2.22489,6.538611 -2.63891,8.375579 -2.50744,11.125351 0.11048,2.31066 0.11668,2.32814 2.5436,7.16208 4.27476,8.51451 5.42619,13.26216 5.29104,21.81645 -0.0724,4.58324 -0.0345,5.11481 0.39895,5.59471 1.00963,1.11779 3.39062,0.85467 4.53111,-0.50072 0.605,-0.719 0.67846,-1.03643 0.67846,-2.93161 0,-1.33638 -0.23833,-3.12124 -0.64206,-4.80834 -1.1237,-4.69571 -1.30006,-6.0362 -1.31027,-9.95909 -0.0133,-5.11738 0.89495,-9.31619 2.84929,-13.17206 2.31756,-4.572526 6.6637,-5.697356 11.86513,-3.07083 1.74762,0.88248 2.58056,1.57816 4.0514,3.38378 1.52277,1.86935 2.71906,2.59681 4.30987,2.62081 1.44228,0.0218 3.1326,-0.79959 3.96635,-1.9273 0.29176,-0.39462 2.21728,-4.98498 4.27895,-10.2008 5.12919,-12.976349 6.09406,-14.787723 8.54235,-16.036749 1.30452,-0.665519 2.49166,-0.497031 3.48303,0.494341 1.7335,1.733503 3.84971,6.818183 3.84971,9.249817 0,0.888398 -0.33217,1.943429 -1.2254,3.892097 -1.67926,3.663436 -3.10497,8.12887 -3.8993,12.212924 -0.66012,3.39398 -1.2253,7.33044 -1.2253,8.53418 0,1.02194 0.57412,0.52281 1.02119,-0.8878 0.64388,-2.03157 6.0344,-12.761037 7.30756,-14.545213 1.51133,-2.117933 4.39455,-4.786883 6.50154,-6.018374 3.06767,-1.792979 5.43342,-2.517159 12.2951,-3.763651 11.328,-2.057842 16.33021,-3.396466 21.17377,-5.666231 6.11204,-2.864201 10.93539,-7.474997 11.78335,-11.264091 0.6331,-2.828995 -0.77506,-5.65097 -4.08484,-8.186056 -3.6047,-2.760977 -8.05654,-4.362085 -13.79049,-4.959766 -3.60015,-0.375262 -4.62857,-0.200374 -5.97504,1.016082 -1.4051,1.269418 -1.40165,2.155517 0.0158,4.055304 0.58209,0.780168 1.05834,1.641021 1.05834,1.913007 0,1.661288 -1.97286,3.105527 -4.23334,3.099034 -1.81913,-0.0052 -5.16066,-0.671403 -6.07402,-1.21094 -1.03231,-0.609803 -1.73353,-2.092387 -2.12185,-4.486236 -0.90767,-5.595438 -3.83394,-5.889497 -13.41412,-1.347977 -5.00048,2.370496 -6.76136,2.991702 -9.0918,3.207416 -0.7948,0.07357 -5.33938,0.201634 -10.09908,0.284588 -8.59709,0.149834 -8.65773,0.14709 -9.22211,-0.417292 -0.50905,-0.50905 -0.55007,-0.750906 -0.39453,-2.326213 0.30489,-3.087828 1.2085,-7.760604 1.8978,-9.814005 2.01353,-5.998207 4.76673,-9.1419 11.87492,-13.559203 8.92314,-5.545179 11.69596,-6.849493 16.72106,-7.865457 4.22861,-0.854931 7.17305,-0.917869 14.36748,-0.307107 7.803,0.662426 12.26737,0.697798 15.47813,0.122638 1.30969,-0.234611 3.35808,-0.484278 4.55199,-0.554815 2.09793,-0.123946 2.19314,-0.104084 2.83833,0.592086 0.36717,0.396184 0.74224,1.118312 0.8335,1.604728 0.26728,1.424772 0.60076,1.547414 3.08706,1.135319 1.28439,-0.212881 3.97979,-0.352148 6.54849,-0.338349 4.90059,0.02633 7.70135,0.497725 11.64167,1.959421 3.8256,1.419137 4.17046,1.491535 4.97646,1.044732 0.53613,-0.297194 0.85976,-0.851101 1.30972,-2.241617 0.3287,-1.015786 0.79794,-1.995712 1.04276,-2.177613 0.64406,-0.478546 1.78143,-0.405904 2.28059,0.145657 0.87477,0.966617 2.09988,4.58139 3.64958,10.768406 1.85639,7.411403 2.2071,8.667248 5.17213,18.520833 4.25861,14.152448 5.16767,18.818933 6.8294,35.057292 1.52585,14.910493 2.65227,21.921323 4.9312,30.691673 2.56351,9.86555 4.56738,14.14602 8.35337,17.84374 3.01071,2.9405 6.36421,4.8355 16.09124,9.09289 9.90141,4.3337 17.73617,7.99118 34.39583,16.05688 2.61938,1.26815 5.65548,2.72265 6.74689,3.23221 6.69489,3.12575 9.50619,4.59921 10.01905,5.2512 l 0.56428,0.71735 v 19.94037 19.94036 H 168.275 1.058333 Z M 205.05208,187.3003 c 3.84801,-0.69817 7.23694,-2.41129 8.58865,-4.34159 0.7536,-1.07618 0.80406,-1.30031 0.80406,-3.57188 0,-2.24896 -0.0705,-2.57138 -0.97875,-4.47333 -2.17884,-4.56289 -7.03664,-7.42149 -9.10201,-5.35612 -0.90219,0.9022 -1.24356,1.80309 -2.3538,6.21175 -1.12459,4.46568 -1.46987,5.21731 -2.61684,5.69655 -1.26488,0.5285 -6.34179,1.0105 -8.62881,0.81922 -2.41574,-0.20205 -4.40651,-1.10063 -5.62477,-2.53887 -0.47163,-0.55681 -1.6356,-2.47956 -2.58659,-4.27279 -2.16984,-4.09159 -2.85978,-4.66347 -6.05784,-5.02127 -2.72353,-0.30471 -3.6492,-0.69219 -5.26566,-2.2042 -0.70939,-0.66355 -1.46152,-1.20646 -1.67139,-1.20646 -0.20987,0 -0.73775,0.62507 -1.17307,1.38906 -1.083,1.90069 -1.62376,1.93413 -3.00571,0.18582 -3.02417,-3.82585 -4.78233,-10.29454 -5.3181,-19.56655 -0.34147,-5.90934 -0.6982,-9.28217 -1.01528,-9.59925 -0.13754,-0.13753 -0.39764,-0.15885 -0.57802,-0.0474 -0.4351,0.26891 -0.1602,10.99022 0.40958,15.97413 1.00942,8.82934 3.53372,17.61511 6.52906,22.72429 0.48611,0.82917 1.84409,2.47317 3.01775,3.65334 1.67876,1.68809 2.60991,2.37911 4.36562,3.23979 2.82137,1.3831 4.51498,1.80238 9.12183,2.25831 5.08647,0.50338 20.45345,0.53488 23.14009,0.0474 z m 13.42925,-23.23556 c 0.36975,-0.46166 0.80387,-4.68269 1.12248,-10.91406 1.34614,-26.32764 1.34534,-27.08978 -0.0289,-27.52597 -1.57417,-0.49962 -2.47527,1.95769 -2.08941,5.69785 0.11259,1.0914 0.16834,3.41312 0.12388,5.15937 -0.35603,13.9826 -0.42427,26.81926 -0.14533,27.34046 0.34871,0.65157 0.63498,0.71976 1.01734,0.24235 z m -46.05605,-42.06875 c 0.95974,-1.06127 3.52347,-5.8413 4.05931,-7.56849 0.57624,-1.85746 0.65777,-4.03645 0.24892,-6.65286 -0.21572,-1.38054 -0.42493,-1.86333 -1.06051,-2.4474 -1.132,-1.04027 -2.20515,-0.97739 -3.30985,0.19394 -0.99544,1.05547 -0.93966,0.84167 -1.86492,7.14825 -0.83276,5.67606 -0.7753,8.67432 0.18126,9.45885 0.74484,0.61089 1.09791,0.58414 1.74579,-0.13229 z m 48.08992,-6.60731 c 0.99208,-1.4164 0.23586,-5.62173 -1.70085,-9.45832 -0.88002,-1.7433 -1.11281,-1.96349 -1.83394,-1.7346 -0.68446,0.21724 -0.74782,0.44851 -1.2385,4.52057 -0.50595,4.19895 -0.37982,5.1879 0.81395,6.38167 0.76293,0.76292 1.05457,0.87872 2.21309,0.87872 1.07897,0 1.41321,-0.11255 1.74625,-0.58804 z m -30.94125,-9.34503 c 5.05208,-0.97248 11.47141,-1.14173 16.32484,-0.43042 3.73241,0.54702 4.50887,0.52274 5.30485,-0.16587 0.90365,-0.78177 0.2687,-2.88689 -1.38407,-4.58874 -1.37781,-1.418722 -3.34373,-2.153155 -8.5083,-3.178548 -3.91446,-0.777192 -9.97289,-0.849078 -12.85806,-0.152568 -3.28577,0.79322 -4.69721,1.442349 -5.84594,2.688576 -1.4591,1.58294 -1.91277,3.23539 -1.33963,4.87949 0.61988,1.7782 2.73791,2.01995 8.30631,0.94808 z m 89.4445,9.99249 c -0.0812,-0.0812 -0.14761,-1.3184 -0.14761,-2.74935 v -2.60174 h 0.90446 c 0.87811,0 0.92116,0.0501 1.47679,1.71979 0.31477,0.94589 0.61241,1.7198 0.66145,1.7198 0.049,0 0.34668,-0.77391 0.66146,-1.7198 0.53014,-1.59308 0.6292,-1.71979 1.34448,-1.71979 h 0.77219 v 2.64584 c 0,1.5875 -0.10583,2.64583 -0.26458,2.64583 -0.14553,0 -0.35388,0.002 -0.46303,0.004 -0.10913,0.003 -0.26037,-0.74168 -0.33607,-1.65365 l -0.13764,-1.65813 -0.34693,1.19063 c -0.45063,1.54661 -1.00843,2.39886 -1.45728,2.22661 -0.19727,-0.0757 -0.57307,-0.84577 -0.83512,-1.71128 -0.26205,-0.86552 -0.55451,-1.57366 -0.64989,-1.57366 -0.0954,0 -0.12301,0.69707 -0.0614,1.54905 0.10046,1.38877 0.0559,1.56374 -0.43081,1.69101 -0.29858,0.0781 -0.60929,0.0755 -0.69049,-0.006 z m -3.32262,-2.17609 v -2.11666 h -0.79374 c -0.61736,0 -0.79376,-0.1176 -0.79376,-0.52917 0,-0.48507 0.1764,-0.52917 2.11667,-0.52917 1.94028,0 2.11667,0.0441 2.11667,0.52917 0,0.41157 -0.17639,0.52917 -0.79375,0.52917 h -0.79375 v 2.11666 c 0,1.94028 -0.0441,2.11667 -0.52917,2.11667 -0.48506,0 -0.52916,-0.17639 -0.52917,-2.11667 z M 184.54687,74.948782 c -6.18108,-0.365729 -20.4165,-2.296063 -21.62968,-2.933004 -0.72197,-0.379042 -0.54914,-1.362088 0.39687,-2.257391 1.32296,-1.25204 4.702,-3.780043 5.80415,-4.342316 0.57441,-0.293044 1.53162,-0.503934 2.2873,-0.503934 1.1181,0 1.59051,0.190161 3.38398,1.362173 3.68514,2.408196 6.52366,3.617691 10.41884,4.439477 1.61106,0.339894 2.0361,0.601136 2.72172,1.672829 0.25602,0.400182 0.59607,0.727604 0.75569,0.727604 0.15963,0 2.03212,-1.292125 4.16109,-2.871389 7.92894,-5.881636 9.44748,-6.749403 11.84915,-6.771155 1.43187,-0.01297 1.751,0.08326 2.64583,0.797815 2.81024,2.244085 2.5509,5.996721 -0.57844,8.370175 -1.70048,1.289733 -3.7162,2.015313 -6.47379,2.330309 -2.55743,0.292132 -10.63099,0.281263 -15.74271,-0.02119 z m -81.33386,-8.254608 c -1.12698,-0.579176 -1.68454,-1.61408 -1.69737,-3.15052 -0.0273,-3.26847 10.75817,-36.045404 14.14969,-43.000838 1.19125,-2.443059 2.89319,-4.443495 4.0204,-4.725526 0.95302,-0.238447 2.35688,0.397282 2.98111,1.349973 0.68409,1.044048 0.83156,2.66392 0.57,6.260828 -0.56688,7.795388 -2.98937,16.131053 -8.67907,29.864241 -2.30648,5.56712 -3.12245,7.217493 -4.76391,9.63543 -1.51174,2.226864 -2.44351,3.142878 -3.75359,3.690131 -1.18095,0.49331 -1.97416,0.514711 -2.82726,0.07628 z m 54.76363,-47.071146 c -5.54739,-0.522758 -6.18292,-1.860752 -3.2863,-6.91864 1.71137,-2.9882842 1.93414,-4.3365222 1.20296,-7.2806802 -0.71599,-2.883028 -0.73496,-4.029729 -0.08,-4.83855296 0.43345,-0.535288 0.71653,-0.614954 2.05052,-0.577071 1.86698,0.05302 5.6833,1.02891696 9.0461,2.31324396 7.00891,2.676851 11.87444,2.780829 16.51311,0.352893 1.53528,-0.803585 1.83204,-0.864557 4.16656,-0.856051 2.21595,0.0081 2.77983,0.114214 4.76251,0.896455 3.53605,1.395103 9.83133,4.247455 10.63088,4.816792 0.94005,0.669378 1.24139,2.088303 0.63882,3.0079672 -1.03348,1.577277 -7.34929,3.886842 -14.04784,5.137001 -4.9037,0.915188 -21.87135,3.701061 -23.41562,3.84455 -3.15973,0.293592 -5.79994,0.326538 -8.18169,0.102093 z"
       id="path1" /></g></svg>
