<?xml version="1.0" encoding="UTF-8" standalone="no"?>
<!-- Created with Inkscape (http://www.inkscape.org/) -->

<svg
   width="1264"
   height="823.33698"
   viewBox="0 0 334.43334 217.84124"
   version="1.1"
   id="svg1"
   xml:space="preserve"
   inkscape:version="1.3.2 (091e20e, 2023-11-25, custom)"
   sodipodi:docname="legorille2.svg"
   xmlns:inkscape="http://www.inkscape.org/namespaces/inkscape"
   xmlns:sodipodi="http://sodipodi.sourceforge.net/DTD/sodipodi-0.dtd"
   xmlns="http://www.w3.org/2000/svg"
   xmlns:svg="http://www.w3.org/2000/svg"><sodipodi:namedview
     id="namedview1"
     pagecolor="#ffffff"
     bordercolor="#000000"
     borderopacity="0.25"
     inkscape:showpageshadow="2"
     inkscape:pageopacity="0.0"
     inkscape:pagecheckerboard="0"
     inkscape:deskcolor="#d1d1d1"
     inkscape:document-units="mm"
     inkscape:zoom="0.51213161"
     inkscape:cx="645.34193"
     inkscape:cy="520.37405"
     inkscape:window-width="1920"
     inkscape:window-height="1009"
     inkscape:window-x="-8"
     inkscape:window-y="-8"
     inkscape:window-maximized="1"
     inkscape:current-layer="layer1" /><defs
     id="defs1" /><g
     inkscape:label="Calque 1"
     inkscape:groupmode="layer"
     id="layer1"><path
       style="fill:#000000"
       d="m 9.89e-4,196.21162 c 9.54e-4,-20.86563 0.01894,-21.65913 0.509189,-22.46313 0.621166,-1.0187 1.854093,-1.86929 5.972114,-4.12012 3.122103,-1.70648 4.10489,-2.15122 12.303125,-5.5676 11.955881,-4.98228 24.990039,-11.53313 33.734375,-16.95461 3.059216,-1.89671 10.839585,-6.90698 19.711458,-12.69345 5.626449,-3.66973 8.461333,-6.55158 10.642944,-10.81929 3.114828,-6.09329 6.681415,-13.85753 7.263858,-15.81296 0.928852,-3.11843 1.126555,-7.874462 0.485713,-11.684549 -1.405143,-8.354195 0.321932,-13.906294 6.472393,-20.807064 2.147099,-2.409032 3.919812,-3.763101 4.923962,-3.761138 1.25409,0.0025 2.18797,0.998927 3.52356,3.759729 2.40696,4.975423 2.43888,7.145306 0.20185,13.719621 -2.22489,6.538611 -2.63891,8.375579 -2.50744,11.125351 0.11048,2.31066 0.11668,2.32814 2.5436,7.16208 4.27476,8.51451 5.42619,13.26216 5.29104,21.81645 -0.0724,4.58324 -0.0345,5.11481 0.39895,5.59471 1.00963,1.11779 3.39062,0.85467 4.53111,-0.50072 0.605,-0.719 0.67846,-1.03643 0.67846,-2.93161 0,-1.33638 -0.23833,-3.12124 -0.64206,-4.80834 -1.1237,-4.69571 -1.30006,-6.0362 -1.31027,-9.95909 -0.0133,-5.11738 0.89495,-9.31619 2.84929,-13.17206 2.31756,-4.572526 6.6637,-5.697356 11.86513,-3.07083 1.74762,0.88248 2.58056,1.57816 4.0514,3.38378 1.52277,1.86935 2.71906,2.59681 4.30987,2.62081 1.44228,0.0218 3.1326,-0.79959 3.96635,-1.9273 0.29176,-0.39462 2.21728,-4.98498 4.27895,-10.2008 5.12919,-12.976349 6.09406,-14.787723 8.54235,-16.036749 1.30452,-0.665519 2.49166,-0.497031 3.48303,0.494341 1.7335,1.733503 3.84971,6.818183 3.84971,9.249817 0,0.888398 -0.33217,1.943429 -1.2254,3.892097 -1.67926,3.663436 -3.10497,8.12887 -3.8993,12.212924 -0.66012,3.39398 -1.2253,7.33044 -1.2253,8.53418 0,1.02194 0.57412,0.52281 1.02119,-0.8878 0.64388,-2.03157 6.0344,-12.761037 7.30756,-14.545213 1.51133,-2.117933 4.39455,-4.786883 6.50154,-6.018374 3.06767,-1.792979 5.43342,-2.517159 12.2951,-3.763651 11.328,-2.057842 16.33021,-3.396466 21.17377,-5.666231 6.11204,-2.864201 10.93539,-7.474997 11.78335,-11.264091 0.6331,-2.828995 -0.77506,-5.65097 -4.08484,-8.186056 -3.6047,-2.760977 -8.05654,-4.362085 -13.79049,-4.959766 -3.60015,-0.375262 -4.62857,-0.200374 -5.97504,1.016082 -1.4051,1.269418 -1.40165,2.155517 0.0158,4.055304 0.58209,0.780168 1.05834,1.641021 1.05834,1.913007 0,1.661288 -1.97286,3.105527 -4.23334,3.099034 -1.81913,-0.0052 -5.16066,-0.671403 -6.07402,-1.21094 -1.03231,-0.609803 -1.73353,-2.092387 -2.12185,-4.486236 -0.90767,-5.595438 -3.83394,-5.889497 -13.41412,-1.347977 -5.00048,2.370496 -6.76136,2.991702 -9.0918,3.207416 -0.7948,0.07357 -5.33938,0.201634 -10.09908,0.284588 -8.59709,0.149834 -8.65773,0.14709 -9.22211,-0.417292 -0.50905,-0.50905 -0.55007,-0.750906 -0.39453,-2.326213 0.30489,-3.087828 1.2085,-7.760604 1.8978,-9.814005 2.01353,-5.998207 4.76673,-9.1419 11.87492,-13.559203 8.92314,-5.545179 11.69596,-6.849493 16.72106,-7.865457 4.22861,-0.854931 7.17305,-0.917869 14.36748,-0.307107 7.803,0.662426 12.26737,0.697798 15.47813,0.122638 1.30969,-0.234611 3.35808,-0.484278 4.55199,-0.554815 2.09793,-0.123946 2.19314,-0.104084 2.83833,0.592086 0.36717,0.396184 0.74224,1.118312 0.8335,1.604728 0.26728,1.424772 0.60076,1.547414 3.08706,1.135319 1.28439,-0.212881 3.97979,-0.352148 6.54849,-0.338349 4.90059,0.02633 7.70135,0.497725 11.64167,1.959421 3.8256,1.419137 4.17046,1.491535 4.97646,1.044732 0.53613,-0.297194 0.85976,-0.851101 1.30972,-2.241617 0.3287,-1.015786 0.79794,-1.995712 1.04276,-2.177613 0.64406,-0.478546 1.78143,-0.405904 2.28059,0.145657 0.87477,0.966617 2.09988,4.58139 3.64958,10.768406 1.85639,7.411403 2.2071,8.667248 5.17213,18.520833 4.25861,14.152448 5.16767,18.818933 6.8294,35.057292 1.52585,14.910493 2.65227,21.921323 4.9312,30.691673 2.56351,9.86555 4.56738,14.14602 8.35337,17.84374 3.01071,2.9405 6.36421,4.8355 16.09124,9.09289 9.90141,4.3337 17.73617,7.99118 34.39583,16.05688 2.61938,1.26815 5.65548,2.72265 6.74689,3.23221 6.69489,3.12575 9.50619,4.59921 10.01905,5.2512 l 0.56428,0.71735 v 19.94037 19.94036 H 167.21667 0 Z M 203.99375,187.3003 c 3.84801,-0.69817 7.23694,-2.41129 8.58865,-4.34159 0.7536,-1.07618 0.80406,-1.30031 0.80406,-3.57188 0,-2.24896 -0.0705,-2.57138 -0.97875,-4.47333 -2.17884,-4.56289 -7.03664,-7.42149 -9.10201,-5.35612 -0.90219,0.9022 -1.24356,1.80309 -2.3538,6.21175 -1.12459,4.46568 -1.46987,5.21731 -2.61684,5.69655 -1.26488,0.5285 -6.34179,1.0105 -8.62881,0.81922 -2.41574,-0.20205 -4.40651,-1.10063 -5.62477,-2.53887 -0.47163,-0.55681 -1.6356,-2.47956 -2.58659,-4.27279 -2.16984,-4.09159 -2.85978,-4.66347 -6.05784,-5.02127 -2.72353,-0.30471 -3.6492,-0.69219 -5.26566,-2.2042 -0.70939,-0.66355 -1.46152,-1.20646 -1.67139,-1.20646 -0.20987,0 -0.73775,0.62507 -1.17307,1.38906 -1.083,1.90069 -1.62376,1.93413 -3.00571,0.18582 -3.02417,-3.82585 -4.78233,-10.29454 -5.3181,-19.56655 -0.34147,-5.90934 -0.6982,-9.28217 -1.01528,-9.59925 -0.13754,-0.13753 -0.39764,-0.15885 -0.57802,-0.0474 -0.4351,0.26891 -0.1602,10.99022 0.40958,15.97413 1.00942,8.82934 3.53372,17.61511 6.52906,22.72429 0.48611,0.82917 1.84409,2.47317 3.01775,3.65334 1.67876,1.68809 2.60991,2.37911 4.36562,3.23979 2.82137,1.3831 4.51498,1.80238 9.12183,2.25831 5.08647,0.50338 20.45345,0.53488 23.14009,0.0474 z M 217.423,164.06474 c 0.36975,-0.46166 0.80387,-4.68269 1.12248,-10.91406 1.34614,-26.32764 1.34534,-27.08978 -0.0289,-27.52597 -1.57417,-0.49962 -2.47527,1.95769 -2.08941,5.69785 0.11259,1.0914 0.16834,3.41312 0.12388,5.15937 -0.35603,13.9826 -0.42427,26.81926 -0.14533,27.34046 0.34871,0.65157 0.63498,0.71976 1.01734,0.24235 z m -46.05605,-42.06875 c 0.95974,-1.06127 3.52347,-5.8413 4.05931,-7.56849 0.57624,-1.85746 0.65777,-4.03645 0.24892,-6.65286 -0.21572,-1.38054 -0.42493,-1.86333 -1.06051,-2.4474 -1.132,-1.04027 -2.20515,-0.97739 -3.30985,0.19394 -0.99544,1.05547 -0.93966,0.84167 -1.86492,7.14825 -0.83276,5.67606 -0.7753,8.67432 0.18126,9.45885 0.74484,0.61089 1.09791,0.58414 1.74579,-0.13229 z m 48.08992,-6.60731 c 0.99208,-1.4164 0.23586,-5.62173 -1.70085,-9.45832 -0.88002,-1.7433 -1.11281,-1.96349 -1.83394,-1.7346 -0.68446,0.21724 -0.74782,0.44851 -1.2385,4.52057 -0.50595,4.19895 -0.37982,5.1879 0.81395,6.38167 0.76293,0.76292 1.05457,0.87872 2.21309,0.87872 1.07897,0 1.41321,-0.11255 1.74625,-0.58804 z m -30.94125,-9.34503 c 5.05208,-0.97248 11.47141,-1.14173 16.32484,-0.43042 3.73241,0.54702 4.50887,0.52274 5.30485,-0.16587 0.90365,-0.78177 0.2687,-2.88689 -1.38407,-4.58874 -1.37781,-1.418722 -3.34373,-2.153155 -8.5083,-3.178548 -3.91446,-0.777192 -9.97289,-0.849078 -12.85806,-0.152568 -3.28577,0.79322 -4.69721,1.442349 -5.84594,2.688576 -1.4591,1.58294 -1.91277,3.23539 -1.33963,4.87949 0.61988,1.7782 2.73791,2.01995 8.30631,0.94808 z m -5.02708,-31.094868 c -6.18108,-0.365729 -20.4165,-2.296063 -21.62968,-2.933004 -0.72197,-0.379042 -0.54914,-1.362088 0.39687,-2.257391 1.32296,-1.25204 4.702,-3.780043 5.80415,-4.342316 0.57441,-0.293044 1.53162,-0.503934 2.2873,-0.503934 1.1181,0 1.59051,0.190161 3.38398,1.362173 3.68514,2.408196 6.52366,3.617691 10.41884,4.439477 1.61106,0.339894 2.0361,0.601136 2.72172,1.672829 0.25602,0.400182 0.59607,0.727604 0.75569,0.727604 0.15963,0 2.03212,-1.292125 4.16109,-2.871389 7.92894,-5.881636 9.44748,-6.749403 11.84915,-6.771155 1.43187,-0.01297 1.751,0.08326 2.64583,0.797815 2.81024,2.244085 2.5509,5.996721 -0.57844,8.370175 -1.70048,1.289733 -3.7162,2.015313 -6.47379,2.330309 -2.55743,0.292132 -10.63099,0.281263 -15.74271,-0.02119 z m -81.33386,-8.254608 c -1.12698,-0.579176 -1.68454,-1.61408 -1.69737,-3.15052 -0.0273,-3.26847 10.75817,-36.045404 14.14969,-43.000838 1.19125,-2.443059 2.89319,-4.443495 4.0204,-4.725526 0.95302,-0.238447 2.35688,0.397282 2.98111,1.349973 0.68409,1.044048 0.83156,2.66392 0.57,6.260828 -0.56688,7.795388 -2.98937,16.131053 -8.67907,29.864241 -2.30648,5.56712 -3.12245,7.217493 -4.76391,9.63543 -1.51174,2.226864 -2.44351,3.142878 -3.75359,3.690131 -1.18095,0.49331 -1.97416,0.514711 -2.82726,0.07628 z m 54.76363,-47.071146 c -5.54739,-0.522758 -6.18292,-1.860752 -3.2863,-6.91864 1.71137,-2.9882842 1.93414,-4.3365222 1.20296,-7.2806802 -0.71599,-2.883028 -0.73496,-4.029729 -0.08,-4.83855296 0.43345,-0.535288 0.71653,-0.614954 2.05052,-0.577071 1.86698,0.05302 5.6833,1.02891696 9.0461,2.31324396 7.00891,2.676851 11.87444,2.780829 16.51311,0.352893 1.53528,-0.803585 1.83204,-0.864557 4.16656,-0.856051 2.21595,0.0081 2.77983,0.114214 4.76251,0.896455 3.53605,1.395103 9.83133,4.247455 10.63088,4.816792 0.94005,0.669378 1.24139,2.088303 0.63882,3.0079672 -1.03348,1.577277 -7.34929,3.886842 -14.04784,5.137001 -4.9037,0.915188 -21.87135,3.701061 -23.41562,3.84455 -3.15973,0.293592 -5.79994,0.326538 -8.18169,0.102093 z"
       id="path1"
       sodipodi:nodetypes="sssssssssscssssssssssssscssssssssssssssssssssssssssssssssssssssssssssssssssscccccscsscssssssssssssscssssscccsssssccssssssssssssssssssssssssssssssssssssssssssssssssssssssssssssssssss" /></g></svg>
