<?xml version="1.0" encoding="UTF-8" standalone="no"?>
<!-- Created with Inkscape (http://www.inkscape.org/) -->

<svg
   version="1.1"
   id="svg1"
   width="446.08701"
   height="632"
   viewBox="0 0 446.08701 632"
   sodipodi:docname="lentracte.svg"
   xml:space="preserve"
   inkscape:version="1.3.2 (091e20e, 2023-11-25, custom)"
   xmlns:inkscape="http://www.inkscape.org/namespaces/inkscape"
   xmlns:sodipodi="http://sodipodi.sourceforge.net/DTD/sodipodi-0.dtd"
   xmlns="http://www.w3.org/2000/svg"
   xmlns:svg="http://www.w3.org/2000/svg"><defs
     id="defs1" /><sodipodi:namedview
     id="namedview1"
     pagecolor="#ffffff"
     bordercolor="#000000"
     borderopacity="0.25"
     inkscape:showpageshadow="2"
     inkscape:pageopacity="0.0"
     inkscape:pagecheckerboard="0"
     inkscape:deskcolor="#d1d1d1"
     inkscape:zoom="0.80144053"
     inkscape:cx="160.33629"
     inkscape:cy="301.3324"
     inkscape:window-width="1920"
     inkscape:window-height="1009"
     inkscape:window-x="-8"
     inkscape:window-y="-8"
     inkscape:window-maximized="1"
     inkscape:current-layer="g1" /><g
     inkscape:groupmode="layer"
     inkscape:label="Image"
     id="g1"><path
       style="display:inline;fill:#000000"
       d="m 329.58731,631.05683 c -21.45,-0.37302 -66.64666,-0.74985 -100.43701,-0.8374 -33.79036,-0.0875 -61.52404,-0.26252 -61.63041,-0.38883 -0.10637,-0.12631 1.73755,-6.07966 4.0976,-13.22966 2.36006,-7.15 8.19736,-25.15 12.97179,-40 12.06445,-37.52428 13.83443,-42.94048 14.18835,-43.41667 1.13649,-1.52913 1.55813,4.25199 2.35142,32.24044 0.98426,34.7257 1.98724,44.01373 5.11208,47.33996 1.19363,1.27057 4.99673,2.92644 9.19116,4.00183 6.40852,1.64305 11.7456,1.83444 51.15502,1.83444 38.16472,0 45.45881,-0.24516 55,-1.84856 48.00433,-8.06717 70.63064,-22.79915 87.77676,-57.15144 9.60214,-19.23791 20.31063,-56.87069 24.75604,-87 1.72429,-11.68666 2.16928,-12.5 6.83877,-12.5 2.64697,0 4.11099,0.51217 4.52144,1.58179 0.33384,0.86998 0.60699,39.56998 0.60699,86 v 84.41821 l -38.75,-0.18295 c -21.3125,-0.10062 -56.3,-0.48815 -77.75,-0.86116 z M 313.77713,517.85094 c -2.25509,-25.24433 -4.51307,-38.17819 -9.29636,-53.25 -7.58348,-23.89499 -21.02192,-37.10585 -43.89346,-43.15011 -6.55982,-1.73356 -12.59664,-1.84989 -96,-1.84989 -48.95,0 -105.875008,0.13384 -126.500008,0.29741 l -37.5,0.29742 v -5.29742 -5.29741 l 7,-0.65194 c 3.85,-0.35856 13.3,-1.16615 21,-1.79464 24.297783,-1.98323 39.47124,-4.887 45.294635,-8.66812 3.441311,-2.23443 4.019729,-4.73422 5.93778,-25.66163 1.58294,-17.27102 1.7597,-33.29183 1.74019,-157.72367 -0.0193,-122.933005 -0.2172,-140.804135 -1.761,-158.999995 -0.9566,-11.275 -2.205787,-21.925643 -2.775962,-23.668094 C 74.396486,24.406419 63.912081,22.003852 21.587302,19.729429 l -21,-1.128486 L 0.293651,13.599167 0,8.5973899 l 120.58788,-0.0167 120.58789,-0.0167 -0.29423,5.0184811 -0.29423,5.01848 -21.51793,1.147931 c -36.5183,1.948166 -48.69119,4.328557 -53.1852,10.400285 -4.73086,6.391728 -7.09668,62.284258 -7.2149,170.451783 -0.13075,119.62448 2.09108,189.41503 6.27928,197.24075 2.40482,4.49344 6.67864,6.266 22.63875,9.38936 8.84775,1.73149 48.81897,1.72981 59.5,-0.002 21.03719,-3.41193 33.836,-8.46927 43.28223,-17.10259 12.63135,-11.54435 19.91555,-33.98229 23.40664,-72.10084 l 1.73317,-18.92419 h 4.18199 c 2.89094,0 4.36938,0.48832 4.78898,1.58179 0.33384,0.86998 0.60699,54.41998 0.60699,119 v 117.41821 h -4.79529 -4.79529 z M 419.41614,379.30439 c -4.60888,-0.34335 -4.34182,0.23525 -5.86324,-12.70345 -6.49,-55.19349 -22.10066,-97.16339 -41.88795,-112.61746 -14.73968,-11.51184 -39.80132,-20.04313 -65.84207,-22.41347 -4.27044,-0.38871 -7.98976,-1.07133 -8.26515,-1.51693 -0.2754,-0.4456 0.0537,-2.88304 0.7313,-5.41654 0.8756,-3.27377 1.82018,-4.72408 3.26514,-5.01329 1.11823,-0.22381 29.37064,-0.69109 62.78314,-1.03839 l 60.75,-0.63147 v 80.51476 c 0,44.28311 -0.3375,80.657 -0.75,80.83087 -0.4125,0.17386 -2.62703,0.17627 -4.92117,0.005 z"
       id="path2"
       sodipodi:nodetypes="sssssssssssssssscssssssscccsssssssscccccccssssscsscssscccscssssssscsscc" /><path
       style="display:inline;fill:#1d1d1b;fill-opacity:1"
       d="m 298.12249,151.16668 c -1.43665,-2.6844 -1.64075,-2.36825 4.54293,-7.03697 27.13453,-20.48677 41.85864,-45.553655 45.04897,-76.693115 0.93028,-9.0801 0.62613,-9.46004 -5.79712,-7.2417 -6.95352,2.40147 -16.1342,2.40521 -21.41078,0.009 -5.24952,-2.38419 -11.10489,-8.38846 -13.75294,-14.10267 -1.63976,-3.53842 -2.09311,-6.53001 -2.12161,-14.000002 -0.0321,-8.409165 0.28367,-10.152419 2.74995,-15.181872 7.08152,-14.4412711 24.34118,-20.6846191 40.36643,-14.6017731 7.35332,2.791163 14.9457,10.1338861 18.70746,18.0922991 2.96505,6.272907 5.6304,19.154648 5.62614,27.191348 -0.004,6.84741 -2.49925,21.66923 -5.06093,30.05758 -2.723,8.91659 -10.62093,24.091145 -17.16526,32.980195 -9.90376,13.45209 -28.22065,29.97384 -43.53345,39.26695 -6.15454,3.73511 -6.82085,3.83758 -8.19979,1.26101 z"
       id="path4"
       sodipodi:nodetypes="cssscssssscssscc" /></g></svg>
