<?xml version="1.0" encoding="UTF-8" standalone="no"?>
<svg
   id="content"
   viewBox="0 0 365.31399 141.72301"
   version="1.1"
   sodipodi:docname="sse.svg"
   width="365.314"
   height="141.72301"
   inkscape:version="1.3.2 (091e20e, 2023-11-25, custom)"
   xmlns:inkscape="http://www.inkscape.org/namespaces/inkscape"
   xmlns:sodipodi="http://sodipodi.sourceforge.net/DTD/sodipodi-0.dtd"
   xmlns="http://www.w3.org/2000/svg"
   xmlns:svg="http://www.w3.org/2000/svg">
  <sodipodi:namedview
     id="namedview39"
     pagecolor="#ffffff"
     bordercolor="#000000"
     borderopacity="0.25"
     inkscape:showpageshadow="2"
     inkscape:pageopacity="0.0"
     inkscape:pagecheckerboard="0"
     inkscape:deskcolor="#d1d1d1"
     inkscape:zoom="3.1063488"
     inkscape:cx="216.65307"
     inkscape:cy="79.031692"
     inkscape:window-width="1920"
     inkscape:window-height="1009"
     inkscape:window-x="-8"
     inkscape:window-y="-8"
     inkscape:window-maximized="1"
     inkscape:current-layer="content" />
  <defs
     id="defs1">
    <style
       id="style1">.cls-1{fill:#1d2769;}.cls-2{fill:#e6332a;}</style>
  </defs>
  <path
     class="cls-1"
     d="m 40.304172,44.32 h 4.73 V 33.95 a 2.37,2.37 0 1 0 -4.73,0 z"
     id="path1" />
  <path
     class="cls-1"
     d="m 30.384172,44.32 h 4.73 V 33.95 a 2.37,2.37 0 1 0 -4.73,0 z"
     id="path2" />
  <path
     class="cls-1"
     d="m 50.264172,44.32 h 4.73 V 33.95 a 2.37,2.37 0 1 0 -4.73,0 z"
     id="path3" />
  <path
     class="cls-1"
     d="m 43.854172,6.04 a 5.28,5.28 0 0 1 4.33,5.28 v 4 h 2.88 v 2.29 c 7.54,3.56 12.89,11.48 12.89,19.61 0,0 0,0.1 0,0.16 v 7 h 17.43 v -7.13 c -0.37,-22.93 -16.65,-36.93 -38.15,-37.25 z"
     id="path4" />
  <path
     class="cls-1"
     d="m 40.554172,11.18 v 4.14 h 4.24 v -4.14 a 2.12,2.12 0 1 0 -4.24,0"
     id="path5" />
  <path
     class="cls-1"
     d="m 45.874172,55.56 c -18,-4.62 -24.73,-8.55 -24.73,-20 0,-8.21 5.46,-15.28 13.13,-18.3 v -1.94 h 2.9 v -4 a 5.27,5.27 0 0 1 4.45,-5.29 l 0.59,-6 c -21.67,0.17 -40.11,15.27 -39.23,35.57 1,22.73 25.82,29.09 39.2,31.95 10.53,2.24 35.86,8.19 42.13,26.09 0,0 2.35,-29.62 -38.44,-38"
     id="path6" />
  <path
     class="cls-1"
     d="m 39.884172,87.1 c 18.15,5.55 22.8,12.3 22.8,21.89 0,14.62 -11.29,20.63 -25.45,20.63 a 45.68,45.68 0 0 1 -33,-14.57 c 0,0 -2.9,6 -2.9,6 5.71,10.82 21.75,20.67 39.66,20.67 v 0 c 22.93,0.2 42.43,-10.57 42.43,-32.27 0,-23.28 -25.29,-32.4 -39.33,-35.53 -11.05,-2.46 -38.92,-9.82 -43.87999997,-25.45 0,0 -5.53000003,27.09 39.60999997,38.63"
     id="path7" />
  <path
     class="cls-2"
     d="m 109.26417,131 a 5.65,5.65 0 0 0 3.53,1.5 c 1.07,0 2.05,-0.56 2.05,-1.72 0,-2.54 -6.68,-2.1 -6.68,-6.46 0,-2.36 2,-4.12 4.75,-4.12 a 6,6 0 0 1 4.23,1.52 l -1.12,2.1 a 5.18,5.18 0 0 0 -3.13,-1.24 c -1.2,0 -2.14,0.7 -2.14,1.7 0,2.52 6.66,1.9 6.66,6.44 0,2.26 -1.71,4.16 -4.66,4.16 a 6.86,6.86 0 0 1 -4.89,-1.94 z"
     id="path8" />
  <path
     class="cls-2"
     d="m 126.31417,120.2 a 7.16,7.16 0 0 1 7.31,7.24 7.32,7.32 0 1 1 -14.63,0 7.16,7.16 0 0 1 7.32,-7.24 z m 0,12.32 a 4.8,4.8 0 0 0 4.66,-5.08 4.67,4.67 0 1 0 -9.33,0 4.8,4.8 0 0 0 4.67,5.08 z"
     id="path9" />
  <path
     class="cls-2"
     d="m 136.21417,120.44 h 4.57 a 6.58,6.58 0 0 1 2.85,0.4 4,4 0 0 1 2.31,3.88 4.08,4.08 0 0 1 -2.39,3.88 v 0 a 3.47,3.47 0 0 1 0.48,0.7 l 2.91,5.3 h -2.87 l -2.81,-5.3 h -2.48 v 5.3 h -2.57 z m 4.89,6.66 a 2.06,2.06 0 0 0 2.23,-2.24 c 0,-1.36 -0.58,-2.2 -2.59,-2.2 h -2 v 4.44 z"
     id="path10" />
  <path
     class="cls-2"
     d="m 149.31417,120.44 h 5.07 c 2.56,0 4.37,1.32 4.37,3.66 a 3.37,3.37 0 0 1 -1.71,3 v 0 a 3.33,3.33 0 0 1 2.29,3.34 c 0,2.84 -2.27,4.12 -4.89,4.12 h -5.12 z m 5.06,5.8 a 1.69,1.69 0 0 0 1.76,-1.82 1.64,1.64 0 0 0 -1.8,-1.76 h -2.45 v 3.58 z m 0.26,6.18 a 2.05,2.05 0 1 0 0,-4.1 h -2.75 v 4.1 z"
     id="path11" />
  <path
     class="cls-2"
     d="m 168.43417,120.2 a 7.16,7.16 0 0 1 7.32,7.24 7.32,7.32 0 1 1 -14.64,0 7.16,7.16 0 0 1 7.32,-7.24 z m 0,12.32 a 4.81,4.81 0 0 0 4.67,-5.08 4.67,4.67 0 1 0 -9.34,0 4.81,4.81 0 0 0 4.67,5.08 z"
     id="path12" />
  <path
     class="cls-2"
     d="m 178.38417,120.44 h 2.57 l 5.36,8.2 a 21.52,21.52 0 0 1 1.18,2.2 v 0 c 0,0 -0.14,-1.36 -0.14,-2.2 v -8.2 h 2.55 v 14.2 h -2.52 l -5.37,-8.18 a 22.84,22.84 0 0 1 -1.17,-2.2 v 0 c 0,0 0.14,1.36 0.14,2.2 v 8.18 h -2.6 z"
     id="path13" />
  <path
     class="cls-2"
     d="m 193.47417,120.44 h 2.57 l 5.36,8.2 a 21.52,21.52 0 0 1 1.18,2.2 v 0 c 0,0 -0.14,-1.36 -0.14,-2.2 v -8.2 h 2.55 v 14.2 h -2.51 l -5.36,-8.18 a 21.52,21.52 0 0 1 -1.18,-2.2 v 0 c 0,0 0.14,1.36 0.14,2.2 v 8.18 h -2.57 z"
     id="path14" />
  <path
     class="cls-2"
     d="m 208.60417,120.44 h 8.47 v 2.22 h -5.9 v 3.72 h 4.77 v 2.22 h -4.77 v 3.82 h 6.21 v 2.22 h -8.79 z"
     id="path15" />
  <path
     class="cls-2"
     d="m 224.67417,120.44 h 2.57 v 9.1 a 3.14,3.14 0 0 0 6.28,0 v -9.08 h 2.57 v 9.1 c 0,3.18 -2.29,5.34 -5.7,5.34 -3.41,0 -5.72,-2.16 -5.72,-5.34 z"
     id="path16" />
  <path
     class="cls-2"
     d="m 239.46417,120.44 h 2.57 l 5.37,8.2 a 20.63,20.63 0 0 1 1.17,2.2 v 0 c 0,0 -0.14,-1.36 -0.14,-2.2 v -8.2 h 2.56 v 14.2 h -2.56 l -5.36,-8.18 a 21.52,21.52 0 0 1 -1.18,-2.2 v 0 c 0,0 0.14,1.36 0.14,2.2 v 8.18 h -2.57 z"
     id="path17" />
  <path
     class="cls-2"
     d="m 254.59417,120.44 h 2.57 v 14.2 h -2.57 z"
     id="path18" />
  <path
     class="cls-2"
     d="m 258.92417,120.44 h 2.77 l 3.11,9.26 c 0.28,0.82 0.52,2.08 0.54,2.08 v 0 c 0,0 0.26,-1.26 0.54,-2.08 l 3.13,-9.26 h 2.75 l -5.17,14.2 h -2.51 z"
     id="path19" />
  <path
     class="cls-2"
     d="m 273.55417,120.44 h 8.48 v 2.22 h -5.91 v 3.72 h 4.77 v 2.22 h -4.77 v 3.82 h 6.26 v 2.22 h -8.8 z"
     id="path20" />
  <path
     class="cls-2"
     d="m 284.99417,120.44 h 4.57 a 6.55,6.55 0 0 1 2.85,0.4 4,4 0 0 1 2.32,3.88 4.09,4.09 0 0 1 -2.4,3.88 v 0 a 3.47,3.47 0 0 1 0.48,0.7 l 2.91,5.3 h -2.87 l -2.81,-5.3 h -2.48 v 5.3 h -2.57 z m 4.89,6.66 a 2.06,2.06 0 0 0 2.23,-2.24 c 0,-1.36 -0.58,-2.2 -2.59,-2.2 h -2 v 4.44 z"
     id="path21" />
  <path
     class="cls-2"
     d="m 298.38417,131 a 5.68,5.68 0 0 0 3.53,1.5 c 1.08,0 2.05,-0.56 2.05,-1.72 0,-2.54 -6.68,-2.1 -6.68,-6.46 0,-2.36 2,-4.12 4.75,-4.12 a 6,6 0 0 1 4.23,1.52 l -1.12,2.1 a 5.18,5.18 0 0 0 -3.13,-1.24 c -1.2,0 -2.13,0.7 -2.13,1.7 0,2.52 6.66,1.9 6.66,6.44 0,2.26 -1.72,4.16 -4.67,4.16 a 6.86,6.86 0 0 1 -4.89,-1.94 z"
     id="path22" />
  <path
     class="cls-2"
     d="m 309.11417,120.44 h 2.58 v 14.2 h -2.58 z"
     id="path23" />
  <path
     class="cls-2"
     d="m 318.19417,122.66 h -4.65 v -2.22 h 11.84 v 2.22 h -4.65 v 12 h -2.57 z"
     id="path24" />
  <path
     class="cls-2"
     d="m 327.26417,120.44 h 8.47 v 2.22 h -5.9 v 3.72 h 4.77 v 2.22 h -4.77 v 3.82 h 6.22 v 2.22 h -8.79 z m 4.86,-3.66 h 2.61 l -2.09,2.72 h -2 z"
     id="path25" />
  <path
     class="cls-1"
     d="m 123.53417,70.12 c 8.36,0 13.09,5.83 13.09,13.69 0,0.94 -0.22,3 -0.22,3 h -17.87 c 0.72,3.47 3.58,5.06 6.6,5.06 4.07,0 7.81,-2.86 7.81,-2.86 l 3.52,6.66 a 19.16,19.16 0 0 1 -12.1,4.12 c -10.12,0 -15.56,-7.31 -15.56,-14.85 0,-8.33 5.58,-14.82 14.73,-14.82 z m 3.52,11.2 a 3.85,3.85 0 0 0 -3.74,-4 c -2.75,0 -4.06,2 -4.56,4.07 z m -3.24,-21.56 h 9.4 l -6.49,8.25 h -7.34 z"
     id="path26" />
  <path
     class="cls-1"
     d="m 143.23417,78.7 h -3.63 v -7.38 h 3.9 v -8.18 h 9.24 v 8.18 h 5.94 v 7.42 h -5.94 v 8.69 c 0,3.19 3.24,3.63 5.06,3.63 a 11.46,11.46 0 0 0 1.26,-0.06 v 8.25 a 17.66,17.66 0 0 1 -2.58,0.17 c -4.51,0 -13.25,-1.21 -13.25,-10.73 z"
     id="path27" />
  <path
     class="cls-1"
     d="m 164.24417,70.78 h 9.51 v 16.61 c 0,2.64 1,3.74 3,3.74 4.07,0 6,-3.58 6,-7.81 V 70.78 h 9.51 V 99.1 h -9.13 v -2.47 a 14.88,14.88 0 0 1 0.11,-1.76 h -0.11 c -1.54,3 -5.06,4.89 -8.85,4.89 -5.61,0 -10.06,-2.64 -10.06,-10.61 z"
     id="path28" />
  <path
     class="cls-1"
     d="m 210.32417,70.12 c 5.72,0 7.43,2.26 7.43,2.26 h 0.11 c 0,0 -0.06,-0.55 -0.06,-1.27 V 59.78 h 9.52 V 99.1 h -8.94 v -1.87 c 0,-0.88 0.05,-1.59 0.05,-1.59 h -0.05 a 9.45,9.45 0 0 1 -8.19,4.12 c -7.7,0 -12.76,-6 -12.76,-14.85 -0.05,-8.96 5.36,-14.79 12.89,-14.79 z m 2.2,21.78 c 2.86,0 5.56,-2.09 5.56,-7 0,-3.41 -1.82,-6.76 -5.56,-6.76 -3,0 -5.55,2.42 -5.55,6.76 0,4.34 2.25,7 5.55,7 z"
     id="path29" />
  <path
     class="cls-1"
     d="m 234.38417,70.78 h 9.51 V 99.1 h -9.51 z m 0.11,-11 h 9.29 v 7.43 h -9.29 z"
     id="path30" />
  <path
     class="cls-1"
     d="m 265.21417,81.45 h 0.39 v -0.5 c 0,-2.36 -1.82,-3.13 -4.18,-3.13 -3.58,0 -7.65,2.69 -7.65,2.69 l -3.3,-6.7 a 21.42,21.42 0 0 1 11.91,-3.69 c 8,0 12.76,4.35 12.76,11.55 V 99.1 h -8.76 v -1.7 a 14.88,14.88 0 0 1 0.11,-1.76 h -0.11 c 0,0 -2.09,4.12 -8,4.12 -5.28,0 -9.62,-3.52 -9.62,-9.13 0.01,-8.25 12.05,-9.18 16.45,-9.18 z m -4.18,11.05 c 2.48,0 4.68,-2.69 4.68,-5 v -0.61 h -0.88 c -3,0 -6.49,0.88 -6.49,3.25 0.04,1.32 0.82,2.36 2.69,2.36 z"
     id="path31" />
  <path
     class="cls-1"
     d="m 281.71417,70.78 h 9.13 v 2.48 a 15.1,15.1 0 0 1 -0.11,1.76 h 0.11 a 10,10 0 0 1 9,-4.9 c 5.72,0 10.18,2.64 10.18,10.61 V 99.1 h -9.52 V 82.49 c 0,-2.64 -1,-3.74 -3.13,-3.74 a 5.57,5.57 0 0 0 -5.61,4.07 11.26,11.26 0 0 0 -0.55,3.74 V 99.1 h -9.52 z"
     id="path32" />
  <path
     class="cls-1"
     d="m 318.12417,78.7 h -3.63 v -7.38 h 3.89 v -8.18 h 9.24 v 8.18 h 5.94 v 7.42 h -5.94 v 8.69 c 0,3.19 3.24,3.63 5.06,3.63 a 11.46,11.46 0 0 0 1.26,-0.06 v 8.25 a 17.66,17.66 0 0 1 -2.58,0.17 c -4.51,0 -13.26,-1.21 -13.26,-10.73 z"
     id="path33" />
  <path
     class="cls-1"
     d="m 352.22417,70.12 c 8.36,0 13.09,5.83 13.09,13.69 0,0.94 -0.22,3 -0.22,3 h -17.87 c 0.71,3.47 3.57,5.06 6.6,5.06 4.07,0 7.81,-2.86 7.81,-2.86 l 3.52,6.66 a 19.16,19.16 0 0 1 -12.1,4.12 c -10.12,0 -15.57,-7.31 -15.57,-14.85 0,-8.33 5.61,-14.82 14.74,-14.82 z m 3.52,11.2 a 3.85,3.85 0 0 0 -3.74,-4 c -2.75,0 -4.07,2 -4.56,4.07 z"
     id="path34" />
  <path
     class="cls-1"
     d="m 114.08417,30.25 c 0,0 4.45,4.07 9.4,4.07 2,0 4.12,-0.77 4.12,-3.13 0,-4.68 -17.7,-4.51 -17.7,-16.61 0,-7.26 6.1,-12 13.91,-12 8.47,0 12.65,4.45 12.65,4.45 l -4.08,7.82 c 0,0 -4,-3.46 -8.69,-3.46 -2,0 -4.18,0.88 -4.18,3.08 0,5 17.71,4.07 17.71,16.5 0,6.54 -5,12.2 -13.86,12.2 a 20.3,20.3 0 0 1 -14.35,-5.6 z"
     id="path35" />
  <path
     class="cls-1"
     d="m 157.03417,24.86 h 0.35 v -0.49 c 0,-2.37 -1.81,-3.14 -4.18,-3.14 -3.57,0 -7.64,2.7 -7.64,2.7 l -3.3,-6.71 a 21.42,21.42 0 0 1 11.88,-3.69 c 8,0 12.76,4.35 12.76,11.55 v 17.43 h -8.69 v -1.7 a 14.88,14.88 0 0 1 0.11,-1.76 h -0.11 c 0,0 -2.09,4.12 -8,4.12 -5.28,0 -9.62,-3.51 -9.62,-9.12 0,-8.25 12.04,-9.19 16.44,-9.19 z m -4.18,11.06 c 2.47,0 4.67,-2.7 4.67,-5 v -0.6 h -0.88 c -3,0 -6.49,0.88 -6.49,3.24 0,1.31 0.83,2.36 2.7,2.36 z"
     id="path36" />
  <path
     class="cls-1"
     d="m 173.53417,14.19 h 9.13 v 2.48 a 15.1,15.1 0 0 1 -0.11,1.76 h 0.11 a 10,10 0 0 1 9,-4.9 c 5.72,0 10.17,2.64 10.17,10.62 v 18.36 h -9.45 v -16.6 c 0,-2.64 -1.05,-3.74 -3.14,-3.74 a 5.58,5.58 0 0 0 -5.61,4.07 11.49,11.49 0 0 0 -0.55,3.74 v 12.53 h -9.51 z"
     id="path37" />
  <path
     class="cls-1"
     d="m 209.94417,22.11 h -3.63 v -7.42 h 3.91 V 6.55 h 9.23 v 8.14 h 5.93 v 7.42 h -5.94 v 8.69 c 0,3.19 3.25,3.63 5.06,3.63 0.77,0 1.27,0 1.27,0 v 8.19 a 17.9,17.9 0 0 1 -2.59,0.17 c -4.51,0 -13.25,-1.21 -13.25,-10.72 z"
     id="path38" />
  <path
     class="cls-1"
     d="m 244.04417,13.53 c 8.36,0 13.09,5.83 13.09,13.7 0,0.93 -0.22,3 -0.22,3 h -17.88 c 0.72,3.46 3.58,5.06 6.6,5.06 4.07,0 7.81,-2.86 7.81,-2.86 l 3.52,6.65 a 19.12,19.12 0 0 1 -12.1,4.12 c -10.12,0 -15.56,-7.31 -15.56,-14.84 0,-8.34 5.61,-14.83 14.74,-14.83 z m 3.52,11.22 a 3.86,3.86 0 0 0 -3.74,-4.07 c -2.75,0 -4.07,2 -4.57,4.07 z m -3.25,-21.55 h 9.41 l -6.49,8.24 h -7.37 z"
     id="path39" />
</svg>
