<?xml version="1.0" encoding="UTF-8" standalone="no"?>
<!-- Created with Inkscape (http://www.inkscape.org/) -->

<svg
   version="1.1"
   id="svg1"
   width="323.77701"
   height="408.311"
   viewBox="0 0 323.777 408.31101"
   sodipodi:docname="winenot.svg"
   xml:space="preserve"
   inkscape:version="1.3.2 (091e20e, 2023-11-25, custom)"
   xmlns:inkscape="http://www.inkscape.org/namespaces/inkscape"
   xmlns:sodipodi="http://sodipodi.sourceforge.net/DTD/sodipodi-0.dtd"
   xmlns="http://www.w3.org/2000/svg"
   xmlns:svg="http://www.w3.org/2000/svg"><defs
     id="defs1" /><sodipodi:namedview
     id="namedview1"
     pagecolor="#ffffff"
     bordercolor="#000000"
     borderopacity="0.25"
     inkscape:showpageshadow="2"
     inkscape:pageopacity="0.0"
     inkscape:pagecheckerboard="0"
     inkscape:deskcolor="#d1d1d1"
     inkscape:zoom="1.1170077"
     inkscape:cx="149.05895"
     inkscape:cy="200.08814"
     inkscape:window-width="1920"
     inkscape:window-height="1009"
     inkscape:window-x="-8"
     inkscape:window-y="-8"
     inkscape:window-maximized="1"
     inkscape:current-layer="g1" /><g
     inkscape:groupmode="layer"
     inkscape:label="Image"
     id="g1"><path
       style="fill:#e07047;fill-opacity:1"
       d="m 187.29102,407.79503 c -9.66021,-2.07006 -18.04373,-7.79138 -21.32078,-14.55036 l -2.07953,-4.28906 -0.0498,8.75 -0.0498,8.75 h -8 -8 l -0.0239,-16.25 c -0.0359,-24.44458 -1.40176,-27.78356 -11.33693,-27.71403 -3.80251,0.0266 -5.8296,0.61183 -7.79352,2.25 -4.87146,4.06343 -5.8457,8.36924 -5.8457,25.83616 v 15.87787 h -8 -8 v -27.5 -27.5 h 8 8 v 4.70821 4.70821 l 4.25,-4.16087 c 5.189,-5.08018 10.15739,-7.26257 16.46788,-7.23359 9.39514,0.0432 16.63234,5.55444 19.34371,14.73067 l 1.25656,4.25264 1.71629,-3.83345 c 4.49732,-10.04508 16.54156,-15.95683 30.33929,-14.89161 7.84696,0.6058 14.47476,3.03853 19.26913,7.07273 2.96812,2.49751 3.15401,2.53183 3.64036,0.67204 0.31168,-1.19186 2.69887,-2.92677 6.09188,-4.42732 5.12109,-2.26479 5.84529,-3.00672 8.81677,-9.03256 3.12606,-6.33932 3.366,-6.5651 6.97707,-6.5651 h 3.73968 l 0.29569,6.75 0.29569,6.75 7.75,0.29207 7.75,0.29206 v 5.45794 5.45793 l -6,0.125 c -3.3,0.0687 -6.45,0.2375 -7,0.375 -0.55,0.1375 -1.45,0.30625 -2,0.375 -0.61666,0.0771 -1,5.875 -1,15.125 v 15 h 7.5 7.5 v 6.5 6.5 h -5.16809 c -8.27561,0 -17.07985,-1.91857 -19.83191,-4.32166 -4.38848,-3.83202 -5.20374,-7.20459 -5.75621,-23.81236 l -0.52007,-15.63402 -3.90956,-0.054 c -3.21356,-0.0444 -3.82011,0.24655 -3.40708,1.63402 2.19267,7.36577 2.79377,12.13418 2.25582,17.895 -1.18059,12.64271 -7.50137,20.61839 -19.20503,24.23328 -6.21698,1.92023 -12.21621,2.4152 -16.95787,1.39912 z m 13.32388,-13.42787 c 5.03015,-1.75352 7.17612,-6.33762 7.17612,-15.32924 0,-7.98714 -1.17524,-11.62095 -4.82738,-14.92609 -1.58908,-1.4381 -3.57776,-1.82459 -9.12131,-1.77269 -7.9841,0.0747 -9.96317,0.83077 -12.6329,4.82586 -1.45517,2.17759 -1.87071,4.69626 -1.89162,11.46549 -0.029,9.40559 1.46108,12.935 6.56961,15.56038 2.98443,1.53376 10.57289,1.62459 14.72748,0.17629 z M 171.18928,336.5674 c -6.13494,-2.90234 -9.15901,-6.03206 -11.87881,-12.29382 -1.40027,-3.22381 -1.44228,-3.06966 -1.48031,5.43203 l -0.0391,8.75 h -7.5 -7.5 v -18.04775 -18.04775 l -2.64602,-2.45225 c -3.75695,-3.48182 -11.01734,-3.44784 -15.1994,0.0711 -3.98314,3.35159 -5.15458,9.15265 -5.15458,25.52583 v 12.95078 h -7.5 -7.5 v -25.5 -25.5 h 7.5 7.5 v 4.68 4.68 l 3.60343,-4.20979 c 4.35254,-5.08497 8.91811,-7.15021 15.80681,-7.15021 10.15791,0 17.43614,6.29371 17.77746,15.37272 l 0.13735,3.65354 2.40614,-4.26313 c 5.52635,-9.79142 13.97654,-14.76837 25.05632,-14.75755 16.19827,0.0158 25.74962,8.68848 26.42548,23.99442 l 0.28701,6.5 -19.75,0.27114 c -11.74313,0.16122 -19.75,0.65978 -19.75,1.22977 0,0.52724 0.68815,2.67847 1.52922,4.78051 1.97058,4.92496 5.9017,7.21858 12.37219,7.21858 4.36489,0 5.62925,-0.47923 8.84571,-3.35277 3.58582,-3.20352 4.03111,-3.33172 10.00288,-2.87981 3.4375,0.26013 6.25,0.89122 6.25,1.40243 0,1.70652 -2.78279,6.30479 -5.15498,8.51808 -4.64639,4.33515 -10.74092,6.26664 -19.84502,6.28932 -7.32042,0.0182 -9.34676,-0.37942 -14.60174,-2.86546 z m 25.60174,-32.18871 c 0,-2.06748 -0.95897,-4.0359 -2.92307,-6 -2.47053,-2.47053 -3.71677,-2.92308 -8.04966,-2.92308 -2.81963,0 -6.39356,0.65518 -7.94208,1.45595 -2.94137,1.52104 -6.63427,7.8466 -5.57834,9.55513 0.34768,0.56256 5.75935,0.98892 12.55217,0.98892 h 11.94098 z m -183.9431,30.32692 c -2.92978,-10.7356 -5.03191,-18.58612 -7.02895,-26.25 -1.2182,-4.675 -3.02582,-11.33058 -4.01694,-14.79018 L 0,287.37525 l 7.64551,0.29018 7.64551,0.29018 2.5946,10.5 c 1.42702,5.775 3.38926,13.875 4.36052,18 2.98918,12.69516 1.93894,14.48846 14.20196,-24.25 l 1.50366,-4.75 h 7.79831 c 7.58825,0 7.82635,0.0741 8.83916,2.75 1.86822,4.93595 9.13585,28.66728 9.80625,32.02081 1.39818,6.99407 2.6296,4.54297 6.91839,-13.77081 0.96601,-4.125 2.51715,-10.425 3.44698,-14 l 1.69059,-6.5 5.91979,-0.5 c 3.25589,-0.275 9.18229,-0.35057 13.16979,-0.16794 l 7.25,0.33206 v 25.41794 25.41794 h -6.9805 -6.98049 l -0.26951,-21.75 c -0.2296,-18.53038 -0.43705,-21.08387 -1.40139,-17.25 -1.07055,4.25611 -7.18327,27.13985 -9.41601,35.25 l -1.03238,3.75 H 66.28942 55.86811 l -1.0937,-4.25 c -2.03803,-7.91951 -9.1058,-30.75 -9.51947,-30.75 -0.46095,0 -6.61288,20.1977 -10.12747,33.25 -0.41042,1.52418 -1.81228,1.75 -10.86369,1.75 H 13.87131 Z m 220.9431,-25.93427 c -2.30708,-0.94685 -2.96888,-2.46309 -2.97492,-6.81573 -0.0112,-8.09644 7.57204,-19.50408 17.04644,-25.64328 3.19827,-2.07241 4.80265,-3.74224 4.45814,-4.64002 -0.296,-0.77137 -0.79616,-2.59819 -1.11146,-4.0596 -0.3153,-1.4614 -1.40003,-5.3571 -2.41052,-8.6571 -1.01048,-3.3 -2.81978,-9.375 -4.02066,-13.5 -1.20088,-4.125 -2.98575,-10.2 -3.96637,-13.5 -0.98062,-3.3 -2.57446,-8.925 -3.54187,-12.5 -0.9674,-3.575 -2.78441,-10.1 -4.03779,-14.5 -1.25338,-4.4 -2.82154,-10.12934 -3.48481,-12.73187 -1.75302,-6.87844 -7.40258,-11.26911 -16.5617,-12.87123 -25.25055,-4.41686 -39.74501,-25.65585 -49.54642,-72.60128 -1.28661,-6.16241 -2.60269,-10.887409 -2.92463,-10.499999 -0.32194,0.38741 -1.41342,3.62938 -2.42552,7.204379 -5.9836,21.1357 -14.49547,34.73463 -25.89494,41.37084 -4.97388,2.89555 -17.14151,5.08083 -23.85972,4.28516 l -4.91583,-0.58221 -5.83712,12.21311 c -6.11694,12.79859 -6.31673,13.28663 -12.98209,31.7131 -3.30023,9.12352 -11.01664,33.8045 -11.00593,35.20251 0.001,0.16362 1.23876,0.34031 2.75,0.39263 8.15065,0.28223 23.78004,12.17395 28.64941,21.79809 3.13498,6.19617 3.56318,9.73926 1.48034,12.24892 -1.21551,1.4646 -3.29601,1.57305 -18.66843,0.97304 -22.66599,-0.88468 -45.3194,-4.71401 -66.67008,-11.26992 -9.55693,-2.93454 -10.54352,-3.66175 -10.54352,-7.77155 0,-7.35285 16.93698,-17.57372 29.12137,-17.57372 5.74682,0 5.855,-0.15387 8.78805,-12.5 1.17597,-4.95 2.7888,-11.475 3.58407,-14.5 0.79528,-3.025 4.46755,-17.72334 8.1606,-32.66298 8.16806,-33.04257 8.32123,-31.38655 -4.03614,-43.63678 -6.77771,-6.71896 -8.7942,-9.46471 -11.16309,-15.20024 -2.74145,-6.63755 -2.8928,-7.77667 -2.923,-21.999999 -0.037,-17.43087 0.93541,-22.58309 8.95176,-47.42925 4.52929,-14.03824 5.09812,-16.63187 3.90855,-17.82143 -2.19002,-2.19003 -1.72451,-7.5962 0.85783,-9.96215 3.49277,-3.2000901 9.76351,-6.0101701 18.89165,-8.4658201 7.18,-1.93157004 10.89597,-2.25240804 26.35835,-2.27580104 15.50701,-0.02346 19.31157,0.294377 27.46983,2.29485104 17.05147,4.18117 26.59407,10.1600801 36.59906,22.9311201 l 6.65398,8.49358 -1.20791,5.61745 c -2.02243,9.4055 -2.74684,13.38865 -3.42476,18.83107 l -0.64943,5.21362 8.64472,-6.52001 c 10.79175,-8.13934 29.98508,-17.51354 41.5917,-20.31376 10.53108,-2.54074 23.26643,-2.74186 30.89131,-0.48784 8.92816,2.63928 17.92311,7.25222 18.8791,9.68188 4.63019,11.76765 20.32741,56.973649 21.94975,63.212489 7.10491,27.32243 4.85772,46.38709 -6.75022,57.26736 -3.57577,3.35162 -9.98784,7.49432 -13.64713,8.81711 -2.74284,0.99151 -3.02597,1.52907 -3.30299,6.27111 -0.28822,4.93372 0.35463,12.04184 2.81667,31.14442 0.96615,7.49622 6.37578,33.83622 9.09055,44.26272 0.91442,3.51197 1.12686,3.68022 3.18774,2.52462 1.39936,-0.78466 6.23667,-1.22102 13.20803,-1.19146 12.11432,0.0514 16.4293,1.3565 25.12054,7.59807 8.86606,6.36712 7.19651,9.87901 -8.41298,17.69661 -29.3205,14.6844 -69.619,28.12921 -76.20756,25.42517 z m 22.5,-16.697 c 12.96645,-3.78054 43.27717,-15.93211 47.29238,-18.95953 0.76579,-0.57739 0.9257,-1.34112 0.39245,-1.87437 -1.31895,-1.31895 -11.27786,-2.14792 -16.46296,-1.37037 -4.30186,0.6451 -4.53875,0.85985 -5.75996,5.2216 -0.82859,2.95944 -2.00531,4.8277 -3.36775,5.34693 -13.35385,5.08926 -16.65688,6.10982 -20.09416,6.20866 -4.03642,0.11606 -7.68417,2.19859 -10.23831,5.84512 -1.70984,2.44115 -1.53826,2.43244 8.23831,-0.41804 z m 8.64985,-33.74465 c -7.44413,-30.68443 -9.73875,-43.94622 -11.31138,-65.37408 -1.16622,-15.89037 -1.15812,-16.03514 1.18198,-21.12836 2.07857,-4.52401 3.04547,-5.44473 8.20471,-7.81287 7.87081,-3.61279 12.02829,-7.47654 15.15842,-14.08748 1.43903,-3.03928 2.61642,-5.75187 2.61642,-6.02798 0,-0.27612 -3.0375,1.11835 -6.75,3.09881 -14.95014,7.97528 -32.80306,11.89221 -54.25,11.90246 -12.81803,0.006 -15.12407,-0.25551 -19.88001,-2.25548 -2.95901,-1.24432 -5.56802,-2.07439 -5.79782,-1.8446 -0.88015,0.88015 8.42894,8.02299 13.67783,10.49494 3.80251,1.79078 7.23336,2.60501 11.1162,2.63815 5.06263,0.0432 6.02895,0.42082 9.80369,3.83107 2.30312,2.08073 5.24771,4.26621 6.54354,4.85663 2.77637,1.265 3.75406,3.822 9.49577,24.83471 2.32945,8.525 5.03364,18.2 6.00931,21.5 0.97567,3.3 2.73327,9.375 3.90578,13.5 4.05951,14.28179 10.15379,34.23642 10.75131,35.20322 0.38474,0.62253 0.94579,0.6254 1.56319,0.008 0.6174,-0.6174 -0.1144,-5.40426 -2.03894,-13.33714 z M 89.22811,248.35515 C 86.06491,245.016 77.1575,239.48032 74.92304,239.465 c -0.75239,-0.005 -2.95182,1.38123 -4.88761,3.08088 -2.71926,2.38755 -4.11369,2.95063 -6.13202,2.47617 -1.43681,-0.33776 -5.53739,-0.86365 -9.11239,-1.16865 -3.7749,-0.32205 -8.38661,-1.50524 -11,-2.82218 -3.78704,-1.90837 -5.17335,-2.12428 -8.75,-1.36278 -4.66069,0.99231 -5.50458,2.27847 -2,3.04819 1.2375,0.27179 7.65,1.69561 14.25,3.16403 12.74674,2.83601 30.44987,5.29044 39.43709,5.46771 l 5.43709,0.10724 z M 60.88567,228.20561 c 8.53825,-30.88486 18.47712,-57.93761 28.9776,-78.87455 3.12686,-6.23467 4.63351,-8.09901 8.26507,-10.22724 4.09916,-2.40227 5.05067,-2.55568 12.35667,-1.99229 9.00291,0.69426 14.15352,-0.93 20.35682,-6.41958 3.77797,-3.34329 17.42616,-29.21372 18.53658,-35.136469 0.56926,-3.03631 0.43819,-3.31836 -1.22496,-2.63591 -15.83043,6.49579 -40.42157,4.49758 -64.94594,-5.27734 -6.87101,-2.73865 -21.00532,-11.24756 -25.91649,-15.60183 -2.2,-1.95053 -4.3375,-3.55505 -4.75,-3.5656 -2.00679,-0.0513 -0.10251,21.25823 2.79856,31.31696 2.40047,8.323029 7.18955,14.419379 14.45144,18.396249 2.82516,1.54716 3.88562,3.05922 5.5,7.84217 1.1,3.25899 2.5625,6.90835 3.25,8.10969 1.74766,3.05387 1.62308,4.33171 -1.68815,17.31574 -13.71143,53.76552 -19.90905,79.40544 -19.39781,80.25 1.06605,1.76111 2.33369,0.46783 3.43061,-3.5 z m 121.90535,-99.71666 c 0,-1.95494 7.23867,-8.12425 12.78825,-10.89907 7.64061,-3.82035 13.50134,-5.54496 27.21175,-8.00747 25.71287,-4.61825 40.32222,-5.12996 49.75,-1.74255 3.27644,1.17723 4.25,1.23843 4.25,0.26714 0,-1.62105 -7.6976,-23.308299 -12.72697,-35.856999 l -3.88989,-9.70561 -3.44157,2.10117 c -17.19386,10.49729 -40.11615,17.47356 -75.2202,22.89284 -4.27825,0.66047 -8.01465,1.58274 -8.30313,2.0495 -1.14997,1.8607 7.1404,39.867709 8.69624,39.867709 0.48704,0 0.88552,-0.435 0.88552,-0.96666 z M 153.30051,72.705611 c 0.34762,-2.6125 1.2752,-8.6877 2.06128,-13.50044 0.78608,-4.81275 1.42923,-9.36552 1.42923,-10.11727 0,-1.05621 -2.89752,-1.48894 -12.75,-1.90415 -7.09386,-0.29896 -16.79387,-1.43714 -21.86565,-2.56567 -8.01949,-1.78444 -29.16563,-8.61393 -46.76793,-15.10446 -3.23597,-1.19321 -6.44541,-1.95387 -7.13209,-1.69037 -1.45485,0.55828 -7.84484,19.2505 -7.17636,20.99253 0.24832,0.64711 5.11811,2.00542 10.82176,3.01847 5.70365,1.01306 13.52027,2.64236 17.37027,3.62068 3.85,0.97831 8.8,2.0811 11,2.45065 14.08484,2.36588 41.65888,12.38344 48.158,17.49566 1.43645,1.1299 2.97346,2.05437 3.41559,2.05437 0.44213,0 1.08828,-2.1375 1.4359,-4.75 z m 35.49051,1.23783 c 19.62313,-3.62395 27.68395,-5.39419 35,-7.68636 6.82589,-2.13859 25.08101,-10.56454 28.5,-13.15464 1.9218,-1.45588 1.81303,-1.59828 -2.78176,-3.64182 -8.83385,-3.92887 -23.72801,-3.6641 -36.5735,0.65017 -13.84168,4.64885 -25.35553,11.71759 -41.59474,25.53642 -1.62181,1.38008 3.41367,0.88843 17.45,-1.70377 z m -32.54475,-39.41542 c 0.31531,-0.51017 -1.89211,-3.59051 -4.90537,-6.84519 -5.9751,-6.45383 -13.94786,-11.00856 -24.0844,-13.75912 -8.06679,-2.18894 -30.0338,-3.03916 -40.57027,-1.57026 -10.84607,1.51207 -14.14742,2.18328 -13.57142,2.75929 1.64582,1.64582 38.53524,14.46738 48.39297,16.81982 12.13116,2.89497 33.56372,4.49628 34.73849,2.59546 z M 87.79102,274.45561 v -5 h 8 8 v 5 5 h -8 -8 z"
       id="path2" /></g></svg>
