<?xml version="1.0" encoding="UTF-8" standalone="no"?>
<svg
   width="2833.2549"
   height="738.98798"
   version="1.1"
   id="svg2404"
   sodipodi:docname="FuMince.svg"
   inkscape:version="1.2.1 (9c6d41e410, 2022-07-14)"
   xmlns:inkscape="http://www.inkscape.org/namespaces/inkscape"
   xmlns:sodipodi="http://sodipodi.sourceforge.net/DTD/sodipodi-0.dtd"
   xmlns="http://www.w3.org/2000/svg"
   xmlns:svg="http://www.w3.org/2000/svg"><defs
   id="defs2408" />
<sodipodi:namedview
   id="namedview2406"
   pagecolor="#ffffff"
   bordercolor="#000000"
   borderopacity="0.25"
   inkscape:showpageshadow="2"
   inkscape:pageopacity="0.0"
   inkscape:pagecheckerboard="0"
   inkscape:deskcolor="#d1d1d1"
   showgrid="false"
   inkscape:zoom="0.53600823"
   inkscape:cx="1057.8196"
   inkscape:cy="456.14971"
   inkscape:window-width="1920"
   inkscape:window-height="991"
   inkscape:window-x="-9"
   inkscape:window-y="-9"
   inkscape:window-maximized="1"
   inkscape:current-layer="svg2404" />
<style
   id="style2304">
        line{
            stroke: black;
            stroke-width: 0.5px;
            stroke-linecap: round;
        }    
    </style>
<!--BAT GAUCHE-->
<line
   x1="0.99848413"
   y1="385.73474"
   x2="587.58441"
   y2="385.73474"
   id="line2306" />











\&gt;
    <line
   x1="587.58441"
   y1="385.73474"
   x2="825.4165"
   y2="440.69592"
   id="line2308" />











\&gt;
    <line
   x1="825.4165"
   y1="440.69592"
   x2="1196.1547"
   y2="614.57318"
   id="line2310" />











\&gt;
    <line
   x1="1196.1547"
   y1="614.57318"
   x2="1174.1703"
   y2="621.56824"
   id="line2312" />











\&gt;
    <line
   x1="1174.1703"
   y1="621.56824"
   x2="587.58441"
   y2="621.56824"
   id="line2314" />











\&gt;
    <line
   x1="1196.1547"
   y1="614.57318"
   x2="1284.0928"
   y2="299.79538"
   id="line2316" />











\&gt;
    <line
   x1="1284.0928"
   y1="299.79538"
   x2="1202.1505"
   y2="45.974548"
   id="line2318" />











\&gt;
    <line
   x1="825.4165"
   y1="440.69592"
   x2="1202.1505"
   y2="45.974548"
   id="line2320" />











\&gt;
    <line
   x1="1202.1505"
   y1="45.974548"
   x2="1149.1881"
   y2="1.0062951"
   id="line2322" />











\&gt;
    <line
   x1="1149.1881"
   y1="1.0062951"
   x2="562.60217"
   y2="1.0062951"
   id="line2324" />











\&gt;
    <line
   x1="587.58441"
   y1="385.73474"
   x2="1149.1881"
   y2="1.0062951"
   id="line2326" />











\&gt;

    <!--Jsais pas-->
<line
   x1="1413.0018"
   y1="175.88286"
   x2="1350.0461"
   y2="234.84122"
   id="line2328" />











\&gt;
    <line
   x1="1350.0461"
   y1="234.84122"
   x2="1283.0934"
   y2="648.54926"
   id="line2330" />











\&gt;
    <line
   x1="1283.0934"
   y1="648.54926"
   x2="1286.0913"
   y2="650.54785"
   id="line2332" />
<line
   x1="1286.3103"
   y1="650.646"
   x2="1291.8569"
   y2="650.61456"
   id="line2332-4" />











\&gt;
    
\&gt;
    <line
   x1="1283.0934"
   y1="648.54926"
   x2="1409.0044"
   y2="629.56262"
   id="line2336" />











\&gt;
    <line
   x1="1292.087"
   y1="649.54852"
   x2="1409.0044"
   y2="632.56049"
   id="line2338" />











\&gt;
    <line
   x1="1292.087"
   y1="649.54852"
   x2="1278.097"
   y2="735.48779"
   id="line2340" />











\&gt;
    <line
   x1="1278.097"
   y1="735.48779"
   x2="1408.0052"
   y2="739.48505"
   id="line2342" />











\&gt;
    <line
   x1="1408.0052"
   y1="739.48505"
   x2="1413.0018"
   y2="175.88286"
   id="line2344" />











\&gt;
    





\&gt;
    


\&gt;
    



\&gt;
    






\&gt;

    <!--ZGauche-->
<line
   x1="1396.0135"
   y1="738.79541"
   x2="1399.0118"
   y2="634.10107"
   id="line2354" />











\&gt;
    <line
   x1="1383.8817"
   y1="738.56659"
   x2="1387.9727"
   y2="635.88354"
   id="line2356" />











\&gt;
    <line
   x1="1372.0317"
   y1="738.216"
   x2="1378.0762"
   y2="637.19446"
   id="line2358" />











\&gt;
    <line
   x1="1361.0674"
   y1="737.89062"
   x2="1368.0625"
   y2="638.96045"
   id="line2360" />











\&gt;
    <line
   x1="1350.9364"
   y1="737.45984"
   x2="1358.173"
   y2="639.96387"
   id="line2362" />











\&gt;
    <line
   x1="1341.0542"
   y1="737.32263"
   x2="1349.0961"
   y2="641.57965"
   id="line2364" />











\&gt;
    <line
   x1="1330.9999"
   y1="736.79565"
   x2="1340.0508"
   y2="642.60938"
   id="line2366" />











\&gt;
    <line
   x1="1321.0691"
   y1="736.66699"
   x2="1332.0565"
   y2="643.95245"
   id="line2368" />











\&gt;
    <line
   x1="1312.0758"
   y1="736.35571"
   x2="1323.0625"
   y2="645.43555"
   id="line2370" />











\&gt;
    <line
   x1="1302.9491"
   y1="736.15692"
   x2="1315.0558"
   y2="646.36115"
   id="line2372" />
<line
   x1="1294.6776"
   y1="735.88708"
   x2="1307.3488"
   y2="647.49585"
   id="line2372-7" />











\&gt;
    






\&gt;
    <line
   x1="1287.092"
   y1="735.48657"
   x2="1300.0801"
   y2="648.69"
   id="line2376" />











\&gt;

    <!--Zdroit-->
<line
   x1="1397.7842"
   y1="630.94128"
   x2="1407.9552"
   y2="180.69199"
   id="line2378" />











\&gt;
<line
   x1="1386.48"
   y1="632.78284"
   x2="1403.0391"
   y2="185.31404"
   id="line2380" />











\&gt;
<line
   x1="1375.51"
   y1="634.41956"
   x2="1398.4926"
   y2="189.65457"
   id="line2382" />











\&gt;
<line
   x1="1366.204"
   y1="635.771"
   x2="1394.1826"
   y2="193.67653"
   id="line2384" />











\&gt;
<line
   x1="1356.8802"
   y1="637.32526"
   x2="1389.8551"
   y2="197.65018"
   id="line2386" />











\&gt;
<line
   x1="1347.2919"
   y1="638.72162"
   x2="1385.2848"
   y2="201.97098"
   id="line2388" />











\&gt;
<line
   x1="1338.5414"
   y1="640.16296"
   x2="1380.5098"
   y2="206.33786"
   id="line2390" />











\&gt;
<line
   x1="1330.0181"
   y1="641.26776"
   x2="1376.0443"
   y2="210.52736"
   id="line2392" />











\&gt;
<line
   x1="1321.3912"
   y1="642.68402"
   x2="1371.3546"
   y2="214.9828"
   id="line2394" />











\&gt;
<line
   x1="1313.1538"
   y1="643.85992"
   x2="1367.1146"
   y2="218.90871"
   id="line2396" />











\&gt;
<line
   x1="1304.3706"
   y1="645.30438"
   x2="1362.3491"
   y2="223.40407"
   id="line2398" />











\&gt;
<line
   x1="1297.0721"
   y1="646.35028"
   x2="1357.7571"
   y2="227.70691"
   id="line2400" />











\&gt;
<line
   x1="1289.7504"
   y1="647.44458"
   x2="1353.5172"
   y2="231.6537"
   id="line2402" />











\&gt;
&quot; /&gt;
&quot; /&gt;
&quot; /&gt;
&quot; /&gt;
&quot; /&gt;
&quot; /&gt;
&quot; /&gt;
&quot; /&gt;
&quot; /&gt;
&quot; /&gt;
&quot; /&gt;
&quot; /&gt;
&quot; /&gt;
&quot; /&gt;
&quot; /&gt;
&quot; /&gt;
&quot; /&gt;
&quot; /&gt;
&quot; /&gt;
&quot; /&gt;
&quot; /&gt;
&quot; /&gt;
&quot; /&gt;
&quot; /&gt;
&quot; /&gt;
&quot; /&gt;
&quot; /&gt;
&quot; /&gt;
&quot; /&gt;
&quot; /&gt;
&quot; /&gt;
&quot; /&gt;
&quot; /&gt;
&quot; /&gt;
&quot; /&gt;
&quot; /&gt;
&quot; /&gt;
&quot; /&gt;
&quot; /&gt;
&quot; /&gt;
&quot; /&gt;
&quot; /&gt;
&quot; /&gt;
&quot; /&gt;
&quot; /&gt;
&quot; /&gt;
&quot; /&gt;
&quot; /&gt;
&quot; /&gt;
<line
   x1="1421.674"
   y1="175.87593"
   x2="1413.0388"
   y2="175.87593"
   id="line2346-5" />
<line
   x1="1425.6149"
   y1="629.55756"
   x2="1408.814"
   y2="629.55756"
   id="line2348-9" />
<line
   x1="1425.65"
   y1="632.55341"
   x2="1408.7921"
   y2="632.55341"
   id="line2350-8" />
<line
   x1="1426.7205"
   y1="739.48755"
   x2="1408.0105"
   y2="739.48755"
   id="line2352-5" />
<line
   x1="2833.7534"
   y1="385.72836"
   x2="2247.1675"
   y2="385.72836"
   id="line2306-1" />
<line
   x1="2247.1675"
   y1="385.72836"
   x2="2009.3354"
   y2="440.68954"
   id="line2308-4" />
<line
   x1="2009.3354"
   y1="440.68954"
   x2="1638.5972"
   y2="614.56714"
   id="line2310-4" />
<line
   x1="1638.5972"
   y1="614.56714"
   x2="1660.5815"
   y2="621.56219"
   id="line2312-8" />
<line
   x1="1660.5815"
   y1="621.56219"
   x2="2247.1675"
   y2="621.56219"
   id="line2314-6" />
<line
   x1="1638.5972"
   y1="614.56714"
   x2="1550.6592"
   y2="299.789"
   id="line2316-8" />
<line
   x1="1550.6592"
   y1="299.789"
   x2="1632.6013"
   y2="45.968266"
   id="line2318-7" />
<line
   x1="2009.3354"
   y1="440.68954"
   x2="1632.6013"
   y2="45.968266"
   id="line2320-0" />
<line
   x1="1632.6013"
   y1="45.968266"
   x2="1685.5637"
   y2="1"
   id="line2322-7" />
<line
   x1="1685.5637"
   y1="1"
   x2="2272.1499"
   y2="1"
   id="line2324-9" />
<line
   x1="2247.1675"
   y1="385.72836"
   x2="1685.5637"
   y2="1"
   id="line2326-0" />
<line
   x1="1421.75"
   y1="175.8765"
   x2="1484.7058"
   y2="234.83484"
   id="line2328-2" />
<line
   x1="1484.7058"
   y1="234.83484"
   x2="1551.6584"
   y2="648.54321"
   id="line2330-3" />
<line
   x1="1551.6584"
   y1="648.54321"
   x2="1548.6606"
   y2="650.54181"
   id="line2332-1" />
<line
   x1="1548.4417"
   y1="650.63995"
   x2="1542.895"
   y2="650.60852"
   id="line2332-4-9" />
<line
   x1="1551.6584"
   y1="648.54321"
   x2="1425.7476"
   y2="629.55658"
   id="line2336-4" />
<line
   x1="1542.6648"
   y1="649.54248"
   x2="1425.7476"
   y2="632.55444"
   id="line2338-2" />
<line
   x1="1542.6648"
   y1="649.54248"
   x2="1556.6548"
   y2="735.48175"
   id="line2340-1" />
<line
   x1="1556.6548"
   y1="735.48175"
   x2="1426.7466"
   y2="739.479"
   id="line2342-0" />
<line
   x1="1426.7466"
   y1="739.479"
   x2="1421.75"
   y2="175.8765"
   id="line2344-6" />
<line
   x1="1438.7383"
   y1="738.78937"
   x2="1435.74"
   y2="634.09503"
   id="line2354-5" />
<line
   x1="1450.8701"
   y1="738.56055"
   x2="1446.7793"
   y2="635.8775"
   id="line2356-0" />
<line
   x1="1462.7202"
   y1="738.20996"
   x2="1456.6758"
   y2="637.18842"
   id="line2358-4" />
<line
   x1="1473.6846"
   y1="737.88458"
   x2="1466.6895"
   y2="638.95441"
   id="line2360-4" />
<line
   x1="1483.8154"
   y1="737.4538"
   x2="1476.5789"
   y2="639.95782"
   id="line2362-0" />
<line
   x1="1493.6978"
   y1="737.31659"
   x2="1485.6558"
   y2="641.57361"
   id="line2364-0" />
<line
   x1="1503.752"
   y1="736.78961"
   x2="1494.7012"
   y2="642.60333"
   id="line2366-1" />
<line
   x1="1513.6829"
   y1="736.66095"
   x2="1502.6953"
   y2="643.94641"
   id="line2368-8" />
<line
   x1="1522.676"
   y1="736.34967"
   x2="1511.6895"
   y2="645.4295"
   id="line2370-7" />
<line
   x1="1531.8027"
   y1="736.15088"
   x2="1519.696"
   y2="646.3551"
   id="line2372-0" />
<line
   x1="1540.0742"
   y1="735.88104"
   x2="1527.4031"
   y2="647.48981"
   id="line2372-7-0" />
<line
   x1="1547.6599"
   y1="735.48053"
   x2="1534.6719"
   y2="648.68396"
   id="line2376-1" />
<line
   x1="1436.9678"
   y1="630.93524"
   x2="1426.7966"
   y2="180.68562"
   id="line2378-7" />
<line
   x1="1448.272"
   y1="632.77679"
   x2="1431.7129"
   y2="185.30768"
   id="line2380-9" />
<line
   x1="1459.2419"
   y1="634.41351"
   x2="1436.2593"
   y2="189.64821"
   id="line2382-9" />
<line
   x1="1468.5479"
   y1="635.76495"
   x2="1440.5693"
   y2="193.67017"
   id="line2384-5" />
<line
   x1="1477.8716"
   y1="637.31921"
   x2="1444.8967"
   y2="197.64381"
   id="line2386-7" />
<line
   x1="1487.46"
   y1="638.71558"
   x2="1449.467"
   y2="201.9646"
   id="line2388-9" />
<line
   x1="1496.2104"
   y1="640.15692"
   x2="1454.2422"
   y2="206.33148"
   id="line2390-0" />
<line
   x1="1504.7339"
   y1="641.26172"
   x2="1458.7075"
   y2="210.521"
   id="line2392-5" />
<line
   x1="1513.3606"
   y1="642.67798"
   x2="1463.3972"
   y2="214.97644"
   id="line2394-9" />
<line
   x1="1521.5981"
   y1="643.85388"
   x2="1467.6372"
   y2="218.90234"
   id="line2396-4" />
<line
   x1="1530.3813"
   y1="645.29834"
   x2="1472.4028"
   y2="223.39771"
   id="line2398-0" />
<line
   x1="1537.6797"
   y1="646.34424"
   x2="1476.9949"
   y2="227.70053"
   id="line2400-0" />
<line
   x1="1545.0015"
   y1="647.43854"
   x2="1481.2346"
   y2="231.64734"
   id="line2402-0" />
</svg>
