<?xml version="1.0" encoding="UTF-8" standalone="no"?>
<svg
   width="1661.583"
   height="740.48798"
   version="1.1"
   id="svg2404"
   sodipodi:docname="LiLarge.svg"
   inkscape:version="1.2.1 (9c6d41e410, 2022-07-14)"
   xmlns:inkscape="http://www.inkscape.org/namespaces/inkscape"
   xmlns:sodipodi="http://sodipodi.sourceforge.net/DTD/sodipodi-0.dtd"
   xmlns="http://www.w3.org/2000/svg"
   xmlns:svg="http://www.w3.org/2000/svg"><defs
   id="defs2408" />
<sodipodi:namedview
   id="namedview2406"
   pagecolor="#ffffff"
   bordercolor="#000000"
   borderopacity="0.25"
   inkscape:showpageshadow="2"
   inkscape:pageopacity="0.0"
   inkscape:pagecheckerboard="0"
   inkscape:deskcolor="#d1d1d1"
   showgrid="false"
   inkscape:zoom="0.14230129"
   inkscape:cx="1946.5741"
   inkscape:cy="917.06832"
   inkscape:window-width="1920"
   inkscape:window-height="991"
   inkscape:window-x="-9"
   inkscape:window-y="-9"
   inkscape:window-maximized="1"
   inkscape:current-layer="svg2404" />
<style
   id="style2304">
        line{
            stroke: black;
            stroke-width: 2px;
            stroke-linecap: round;
        }    
    </style>
<!--BAT GAUCHE-->











\&gt;
    <line
   x1="1"
   y1="385.73474"
   x2="238.83209"
   y2="440.69592"
   id="line2308" />











\&gt;
    <line
   x1="238.83209"
   y1="440.69592"
   x2="609.57025"
   y2="614.57318"
   id="line2310" />











\&gt;
    










\&gt;
    










\&gt;
    <line
   x1="609.57025"
   y1="614.57318"
   x2="697.50836"
   y2="299.79538"
   id="line2316" />











\&gt;
    <line
   x1="697.50836"
   y1="299.79538"
   x2="615.5661"
   y2="45.974548"
   id="line2318" />











\&gt;
    <line
   x1="238.83209"
   y1="440.69592"
   x2="615.5661"
   y2="45.974548"
   id="line2320" />











\&gt;
    <line
   x1="615.5661"
   y1="45.974548"
   x2="562.6037"
   y2="1.0062951"
   id="line2322" />











\&gt;
    










\&gt;
    <line
   x1="1"
   y1="385.73474"
   x2="562.6037"
   y2="1.0062951"
   id="line2326" />











\&gt;

    <!--Jsais pas-->
<line
   x1="826.41742"
   y1="175.88286"
   x2="763.46173"
   y2="234.84122"
   id="line2328" />











\&gt;
    <line
   x1="763.46173"
   y1="234.84122"
   x2="696.50897"
   y2="648.54926"
   id="line2330" />











\&gt;
    <line
   x1="696.50897"
   y1="648.54926"
   x2="699.5069"
   y2="650.54785"
   id="line2332" />
<line
   x1="699.72589"
   y1="650.646"
   x2="705.27252"
   y2="650.61456"
   id="line2332-4" />











\&gt;
    
\&gt;
    <line
   x1="696.50897"
   y1="648.54926"
   x2="822.41998"
   y2="629.56262"
   id="line2336" />











\&gt;
    <line
   x1="705.50262"
   y1="649.54852"
   x2="822.41998"
   y2="632.56049"
   id="line2338" />











\&gt;
    <line
   x1="705.50262"
   y1="649.54852"
   x2="691.51263"
   y2="735.48779"
   id="line2340" />











\&gt;
    <line
   x1="691.51263"
   y1="735.48779"
   x2="821.42084"
   y2="739.48505"
   id="line2342" />











\&gt;
    <line
   x1="821.42084"
   y1="739.48505"
   x2="826.41742"
   y2="175.88286"
   id="line2344" />











\&gt;
    





\&gt;
    


\&gt;
    



\&gt;
    






\&gt;

    <!--ZGauche-->
<line
   x1="809.42914"
   y1="738.79541"
   x2="812.42743"
   y2="634.10107"
   id="line2354" />











\&gt;
    <line
   x1="797.2973"
   y1="738.56659"
   x2="801.38824"
   y2="635.88354"
   id="line2356" />











\&gt;
    <line
   x1="785.44733"
   y1="738.216"
   x2="791.49176"
   y2="637.19446"
   id="line2358" />











\&gt;
    <line
   x1="774.48297"
   y1="737.89062"
   x2="781.47809"
   y2="638.96045"
   id="line2360" />











\&gt;
    <line
   x1="764.35199"
   y1="737.45984"
   x2="771.58856"
   y2="639.96387"
   id="line2362" />











\&gt;
    <line
   x1="754.46979"
   y1="737.32263"
   x2="762.51166"
   y2="641.57965"
   id="line2364" />











\&gt;
    <line
   x1="744.41547"
   y1="736.79565"
   x2="753.46637"
   y2="642.60938"
   id="line2366" />











\&gt;
    <line
   x1="734.48468"
   y1="736.66699"
   x2="745.47211"
   y2="643.95245"
   id="line2368" />











\&gt;
    <line
   x1="725.49139"
   y1="736.35571"
   x2="736.47809"
   y2="645.43555"
   id="line2370" />











\&gt;
    <line
   x1="716.36469"
   y1="736.15692"
   x2="728.47137"
   y2="646.36115"
   id="line2372" />
<line
   x1="708.0932"
   y1="735.88708"
   x2="720.76434"
   y2="647.49585"
   id="line2372-7" />











\&gt;
    






\&gt;
    <line
   x1="700.50763"
   y1="735.48657"
   x2="713.49567"
   y2="648.69"
   id="line2376" />











\&gt;

    <!--Zdroit-->
<line
   x1="811.19977"
   y1="630.94128"
   x2="821.37079"
   y2="180.69199"
   id="line2378" />











\&gt;
<line
   x1="799.89557"
   y1="632.78284"
   x2="816.45465"
   y2="185.31404"
   id="line2380" />











\&gt;
<line
   x1="788.9256"
   y1="634.41956"
   x2="811.90814"
   y2="189.65457"
   id="line2382" />











\&gt;
<line
   x1="779.61957"
   y1="635.771"
   x2="807.59821"
   y2="193.67653"
   id="line2384" />











\&gt;
<line
   x1="770.29584"
   y1="637.32526"
   x2="803.27069"
   y2="197.65018"
   id="line2386" />











\&gt;
<line
   x1="760.70746"
   y1="638.72162"
   x2="798.70038"
   y2="201.97098"
   id="line2388" />











\&gt;
<line
   x1="751.95697"
   y1="640.16296"
   x2="793.92535"
   y2="206.33786"
   id="line2390" />











\&gt;
<line
   x1="743.43365"
   y1="641.26776"
   x2="789.4599"
   y2="210.52736"
   id="line2392" />











\&gt;
<line
   x1="734.80682"
   y1="642.68402"
   x2="784.7702"
   y2="214.9828"
   id="line2394" />











\&gt;
<line
   x1="726.5694"
   y1="643.85992"
   x2="780.53021"
   y2="218.90871"
   id="line2396" />











\&gt;
<line
   x1="717.78619"
   y1="645.30438"
   x2="775.76471"
   y2="223.40407"
   id="line2398" />











\&gt;
<line
   x1="710.48773"
   y1="646.35028"
   x2="771.17267"
   y2="227.70691"
   id="line2400" />











\&gt;
<line
   x1="703.16595"
   y1="647.44458"
   x2="766.9328"
   y2="231.6537"
   id="line2402" />











\&gt;
&quot; /&gt;
&quot; /&gt;
&quot; /&gt;
&quot; /&gt;
&quot; /&gt;
&quot; /&gt;
&quot; /&gt;
&quot; /&gt;
&quot; /&gt;
&quot; /&gt;
&quot; /&gt;
&quot; /&gt;
&quot; /&gt;
&quot; /&gt;
&quot; /&gt;
&quot; /&gt;
&quot; /&gt;
&quot; /&gt;
&quot; /&gt;
&quot; /&gt;
&quot; /&gt;
&quot; /&gt;
&quot; /&gt;
&quot; /&gt;
&quot; /&gt;
&quot; /&gt;
&quot; /&gt;
&quot; /&gt;
&quot; /&gt;
&quot; /&gt;
&quot; /&gt;
&quot; /&gt;
&quot; /&gt;
&quot; /&gt;
&quot; /&gt;
&quot; /&gt;
&quot; /&gt;
&quot; /&gt;
&quot; /&gt;
&quot; /&gt;
&quot; /&gt;
&quot; /&gt;
&quot; /&gt;
&quot; /&gt;
&quot; /&gt;
&quot; /&gt;
&quot; /&gt;
&quot; /&gt;
&quot; /&gt;
<line
   x1="835.08954"
   y1="175.87593"
   x2="826.45441"
   y2="175.87593"
   id="line2346-5" />
<line
   x1="839.03046"
   y1="629.55756"
   x2="822.22955"
   y2="629.55756"
   id="line2348-9" />
<line
   x1="839.06561"
   y1="632.55341"
   x2="822.2077"
   y2="632.55341"
   id="line2350-8" />
<line
   x1="840.13605"
   y1="739.48755"
   x2="821.42609"
   y2="739.48755"
   id="line2352-5" />
<line
   x1="1660.583"
   y1="385.72836"
   x2="1422.751"
   y2="440.68954"
   id="line2308-4" />
<line
   x1="1422.751"
   y1="440.68954"
   x2="1052.0127"
   y2="614.56714"
   id="line2310-4" />
<line
   x1="1052.0127"
   y1="614.56714"
   x2="964.07477"
   y2="299.789"
   id="line2316-8" />
<line
   x1="964.07477"
   y1="299.789"
   x2="1046.0168"
   y2="45.968266"
   id="line2318-7" />
<line
   x1="1422.751"
   y1="440.68954"
   x2="1046.0168"
   y2="45.968266"
   id="line2320-0" />
<line
   x1="1046.0168"
   y1="45.968266"
   x2="1098.9792"
   y2="1"
   id="line2322-7" />
<line
   x1="1660.583"
   y1="385.72836"
   x2="1098.9792"
   y2="1"
   id="line2326-0" />
<line
   x1="835.16559"
   y1="175.8765"
   x2="898.1214"
   y2="234.83484"
   id="line2328-2" />
<line
   x1="898.1214"
   y1="234.83484"
   x2="965.07404"
   y2="648.54321"
   id="line2330-3" />
<line
   x1="965.07404"
   y1="648.54321"
   x2="962.07623"
   y2="650.54181"
   id="line2332-1" />
<line
   x1="961.85724"
   y1="650.63995"
   x2="956.31061"
   y2="650.60852"
   id="line2332-4-9" />
<line
   x1="965.07404"
   y1="648.54321"
   x2="839.16315"
   y2="629.55658"
   id="line2336-4" />
<line
   x1="956.08038"
   y1="649.54248"
   x2="839.16315"
   y2="632.55444"
   id="line2338-2" />
<line
   x1="956.08038"
   y1="649.54248"
   x2="970.07037"
   y2="735.48175"
   id="line2340-1" />
<line
   x1="970.07037"
   y1="735.48175"
   x2="840.16217"
   y2="739.479"
   id="line2342-0" />
<line
   x1="840.16217"
   y1="739.479"
   x2="835.16559"
   y2="175.8765"
   id="line2344-6" />
<line
   x1="852.15387"
   y1="738.78937"
   x2="849.15558"
   y2="634.09503"
   id="line2354-5" />
<line
   x1="864.28571"
   y1="738.56055"
   x2="860.19489"
   y2="635.8775"
   id="line2356-0" />
<line
   x1="876.1358"
   y1="738.20996"
   x2="870.09137"
   y2="637.18842"
   id="line2358-4" />
<line
   x1="887.10016"
   y1="737.88458"
   x2="880.10504"
   y2="638.95441"
   id="line2360-4" />
<line
   x1="897.23102"
   y1="737.4538"
   x2="889.99445"
   y2="639.95782"
   id="line2362-0" />
<line
   x1="907.11334"
   y1="737.31659"
   x2="899.07135"
   y2="641.57361"
   id="line2364-0" />
<line
   x1="917.16754"
   y1="736.78961"
   x2="908.11676"
   y2="642.60333"
   id="line2366-1" />
<line
   x1="927.09845"
   y1="736.66095"
   x2="916.1109"
   y2="643.94641"
   id="line2368-8" />
<line
   x1="936.09161"
   y1="736.34967"
   x2="925.10504"
   y2="645.4295"
   id="line2370-7" />
<line
   x1="945.21832"
   y1="736.15088"
   x2="933.11163"
   y2="646.3551"
   id="line2372-0" />
<line
   x1="953.48981"
   y1="735.88104"
   x2="940.81866"
   y2="647.48981"
   id="line2372-7-0" />
<line
   x1="961.0755"
   y1="735.48053"
   x2="948.08746"
   y2="648.68396"
   id="line2376-1" />
<line
   x1="850.38336"
   y1="630.93524"
   x2="840.21222"
   y2="180.68562"
   id="line2378-7" />
<line
   x1="861.68756"
   y1="632.77679"
   x2="845.12848"
   y2="185.30768"
   id="line2380-9" />
<line
   x1="872.65753"
   y1="634.41351"
   x2="849.67487"
   y2="189.64821"
   id="line2382-9" />
<line
   x1="881.96344"
   y1="635.76495"
   x2="853.98492"
   y2="193.67017"
   id="line2384-5" />
<line
   x1="891.28717"
   y1="637.31921"
   x2="858.31232"
   y2="197.64381"
   id="line2386-7" />
<line
   x1="900.87555"
   y1="638.71558"
   x2="862.88263"
   y2="201.9646"
   id="line2388-9" />
<line
   x1="909.62604"
   y1="640.15692"
   x2="867.65778"
   y2="206.33148"
   id="line2390-0" />
<line
   x1="918.14948"
   y1="641.26172"
   x2="872.12311"
   y2="210.521"
   id="line2392-5" />
<line
   x1="926.77618"
   y1="642.67798"
   x2="876.81281"
   y2="214.97644"
   id="line2394-9" />
<line
   x1="935.01373"
   y1="643.85388"
   x2="881.0528"
   y2="218.90234"
   id="line2396-4" />
<line
   x1="943.79694"
   y1="645.29834"
   x2="885.81842"
   y2="223.39771"
   id="line2398-0" />
<line
   x1="951.09528"
   y1="646.34424"
   x2="890.41046"
   y2="227.70053"
   id="line2400-0" />
<line
   x1="958.41705"
   y1="647.43854"
   x2="894.65021"
   y2="231.64734"
   id="line2402-0" />
</svg>
