<?xml version="1.0" encoding="UTF-8" standalone="no"?>
<svg
   width="1660.083"
   height="738.98798"
   version="1.1"
   id="svg2404"
   sodipodi:docname="LiMince.svg"
   inkscape:version="1.2.1 (9c6d41e410, 2022-07-14)"
   xmlns:inkscape="http://www.inkscape.org/namespaces/inkscape"
   xmlns:sodipodi="http://sodipodi.sourceforge.net/DTD/sodipodi-0.dtd"
   xmlns="http://www.w3.org/2000/svg"
   xmlns:svg="http://www.w3.org/2000/svg"><defs
   id="defs2408" />
<sodipodi:namedview
   id="namedview2406"
   pagecolor="#ffffff"
   bordercolor="#000000"
   borderopacity="0.25"
   inkscape:showpageshadow="2"
   inkscape:pageopacity="0.0"
   inkscape:pagecheckerboard="0"
   inkscape:deskcolor="#d1d1d1"
   showgrid="false"
   inkscape:zoom="0.53600823"
   inkscape:cx="1555.9463"
   inkscape:cy="456.14971"
   inkscape:window-width="1920"
   inkscape:window-height="991"
   inkscape:window-x="-9"
   inkscape:window-y="-9"
   inkscape:window-maximized="1"
   inkscape:current-layer="svg2404" />
<style
   id="style2304">
        line{
            stroke: black;
            stroke-width: 0.5px;
            stroke-linecap: round;
        }    
    </style>
<!--BAT GAUCHE-->











\&gt;
    <line
   x1="0.25"
   y1="384.98474"
   x2="238.08209"
   y2="439.94592"
   id="line2308" />











\&gt;
    <line
   x1="238.08209"
   y1="439.94592"
   x2="608.82025"
   y2="613.82318"
   id="line2310" />











\&gt;
    










\&gt;
    










\&gt;
    <line
   x1="608.82025"
   y1="613.82318"
   x2="696.75836"
   y2="299.04538"
   id="line2316" />











\&gt;
    <line
   x1="696.75836"
   y1="299.04538"
   x2="614.8161"
   y2="45.224548"
   id="line2318" />











\&gt;
    <line
   x1="238.08209"
   y1="439.94592"
   x2="614.8161"
   y2="45.224548"
   id="line2320" />











\&gt;
    <line
   x1="614.8161"
   y1="45.224548"
   x2="561.8537"
   y2="0.25629508"
   id="line2322" />











\&gt;
    










\&gt;
    <line
   x1="0.25"
   y1="384.98474"
   x2="561.8537"
   y2="0.25629508"
   id="line2326" />











\&gt;

    <!--Jsais pas-->
<line
   x1="825.66742"
   y1="175.13286"
   x2="762.71173"
   y2="234.09122"
   id="line2328" />











\&gt;
    <line
   x1="762.71173"
   y1="234.09122"
   x2="695.75897"
   y2="647.79926"
   id="line2330" />











\&gt;
    <line
   x1="695.75897"
   y1="647.79926"
   x2="698.7569"
   y2="649.79785"
   id="line2332" />
<line
   x1="698.97589"
   y1="649.896"
   x2="704.52252"
   y2="649.86456"
   id="line2332-4" />











\&gt;
    
\&gt;
    <line
   x1="695.75897"
   y1="647.79926"
   x2="821.66998"
   y2="628.81262"
   id="line2336" />











\&gt;
    <line
   x1="704.75262"
   y1="648.79852"
   x2="821.66998"
   y2="631.81049"
   id="line2338" />











\&gt;
    <line
   x1="704.75262"
   y1="648.79852"
   x2="690.76263"
   y2="734.73779"
   id="line2340" />











\&gt;
    <line
   x1="690.76263"
   y1="734.73779"
   x2="820.67084"
   y2="738.73505"
   id="line2342" />











\&gt;
    <line
   x1="820.67084"
   y1="738.73505"
   x2="825.66742"
   y2="175.13286"
   id="line2344" />











\&gt;
    





\&gt;
    


\&gt;
    



\&gt;
    






\&gt;

    <!--ZGauche-->
<line
   x1="808.67914"
   y1="738.04541"
   x2="811.67743"
   y2="633.35107"
   id="line2354" />











\&gt;
    <line
   x1="796.5473"
   y1="737.81659"
   x2="800.63824"
   y2="635.13354"
   id="line2356" />











\&gt;
    <line
   x1="784.69733"
   y1="737.466"
   x2="790.74176"
   y2="636.44446"
   id="line2358" />











\&gt;
    <line
   x1="773.73297"
   y1="737.14062"
   x2="780.72809"
   y2="638.21045"
   id="line2360" />











\&gt;
    <line
   x1="763.60199"
   y1="736.70984"
   x2="770.83856"
   y2="639.21387"
   id="line2362" />











\&gt;
    <line
   x1="753.71979"
   y1="736.57263"
   x2="761.76166"
   y2="640.82965"
   id="line2364" />











\&gt;
    <line
   x1="743.66547"
   y1="736.04565"
   x2="752.71637"
   y2="641.85938"
   id="line2366" />











\&gt;
    <line
   x1="733.73468"
   y1="735.91699"
   x2="744.72211"
   y2="643.20245"
   id="line2368" />











\&gt;
    <line
   x1="724.74139"
   y1="735.60571"
   x2="735.72809"
   y2="644.68555"
   id="line2370" />











\&gt;
    <line
   x1="715.61469"
   y1="735.40692"
   x2="727.72137"
   y2="645.61115"
   id="line2372" />
<line
   x1="707.3432"
   y1="735.13708"
   x2="720.01434"
   y2="646.74585"
   id="line2372-7" />











\&gt;
    






\&gt;
    <line
   x1="699.75763"
   y1="734.73657"
   x2="712.74567"
   y2="647.94"
   id="line2376" />











\&gt;

    <!--Zdroit-->
<line
   x1="810.44977"
   y1="630.19128"
   x2="820.62079"
   y2="179.94199"
   id="line2378" />











\&gt;
<line
   x1="799.14557"
   y1="632.03284"
   x2="815.70465"
   y2="184.56404"
   id="line2380" />











\&gt;
<line
   x1="788.1756"
   y1="633.66956"
   x2="811.15814"
   y2="188.90457"
   id="line2382" />











\&gt;
<line
   x1="778.86957"
   y1="635.021"
   x2="806.84821"
   y2="192.92653"
   id="line2384" />











\&gt;
<line
   x1="769.54584"
   y1="636.57526"
   x2="802.52069"
   y2="196.90018"
   id="line2386" />











\&gt;
<line
   x1="759.95746"
   y1="637.97162"
   x2="797.95038"
   y2="201.22098"
   id="line2388" />











\&gt;
<line
   x1="751.20697"
   y1="639.41296"
   x2="793.17535"
   y2="205.58786"
   id="line2390" />











\&gt;
<line
   x1="742.68365"
   y1="640.51776"
   x2="788.7099"
   y2="209.77736"
   id="line2392" />











\&gt;
<line
   x1="734.05682"
   y1="641.93402"
   x2="784.0202"
   y2="214.2328"
   id="line2394" />











\&gt;
<line
   x1="725.8194"
   y1="643.10992"
   x2="779.78021"
   y2="218.15871"
   id="line2396" />











\&gt;
<line
   x1="717.03619"
   y1="644.55438"
   x2="775.01471"
   y2="222.65407"
   id="line2398" />











\&gt;
<line
   x1="709.73773"
   y1="645.60028"
   x2="770.42267"
   y2="226.95691"
   id="line2400" />











\&gt;
<line
   x1="702.41595"
   y1="646.69458"
   x2="766.1828"
   y2="230.9037"
   id="line2402" />











\&gt;
&quot; /&gt;
&quot; /&gt;
&quot; /&gt;
&quot; /&gt;
&quot; /&gt;
&quot; /&gt;
&quot; /&gt;
&quot; /&gt;
&quot; /&gt;
&quot; /&gt;
&quot; /&gt;
&quot; /&gt;
&quot; /&gt;
&quot; /&gt;
&quot; /&gt;
&quot; /&gt;
&quot; /&gt;
&quot; /&gt;
&quot; /&gt;
&quot; /&gt;
&quot; /&gt;
&quot; /&gt;
&quot; /&gt;
&quot; /&gt;
&quot; /&gt;
&quot; /&gt;
&quot; /&gt;
&quot; /&gt;
&quot; /&gt;
&quot; /&gt;
&quot; /&gt;
&quot; /&gt;
&quot; /&gt;
&quot; /&gt;
&quot; /&gt;
&quot; /&gt;
&quot; /&gt;
&quot; /&gt;
&quot; /&gt;
&quot; /&gt;
&quot; /&gt;
&quot; /&gt;
&quot; /&gt;
&quot; /&gt;
&quot; /&gt;
&quot; /&gt;
&quot; /&gt;
&quot; /&gt;
&quot; /&gt;
<line
   x1="834.33954"
   y1="175.12593"
   x2="825.70441"
   y2="175.12593"
   id="line2346-5" />
<line
   x1="838.28046"
   y1="628.80756"
   x2="821.47955"
   y2="628.80756"
   id="line2348-9" />
<line
   x1="838.31561"
   y1="631.80341"
   x2="821.4577"
   y2="631.80341"
   id="line2350-8" />
<line
   x1="839.38605"
   y1="738.73755"
   x2="820.67609"
   y2="738.73755"
   id="line2352-5" />
<line
   x1="1659.833"
   y1="384.97836"
   x2="1422.001"
   y2="439.93954"
   id="line2308-4" />
<line
   x1="1422.001"
   y1="439.93954"
   x2="1051.2627"
   y2="613.81714"
   id="line2310-4" />
<line
   x1="1051.2627"
   y1="613.81714"
   x2="963.32477"
   y2="299.039"
   id="line2316-8" />
<line
   x1="963.32477"
   y1="299.039"
   x2="1045.2668"
   y2="45.218266"
   id="line2318-7" />
<line
   x1="1422.001"
   y1="439.93954"
   x2="1045.2668"
   y2="45.218266"
   id="line2320-0" />
<line
   x1="1045.2668"
   y1="45.218266"
   x2="1098.2292"
   y2="0.25"
   id="line2322-7" />
<line
   x1="1659.833"
   y1="384.97836"
   x2="1098.2292"
   y2="0.25"
   id="line2326-0" />
<line
   x1="834.41559"
   y1="175.1265"
   x2="897.3714"
   y2="234.08484"
   id="line2328-2" />
<line
   x1="897.3714"
   y1="234.08484"
   x2="964.32404"
   y2="647.79321"
   id="line2330-3" />
<line
   x1="964.32404"
   y1="647.79321"
   x2="961.32623"
   y2="649.79181"
   id="line2332-1" />
<line
   x1="961.10724"
   y1="649.88995"
   x2="955.56061"
   y2="649.85852"
   id="line2332-4-9" />
<line
   x1="964.32404"
   y1="647.79321"
   x2="838.41315"
   y2="628.80658"
   id="line2336-4" />
<line
   x1="955.33038"
   y1="648.79248"
   x2="838.41315"
   y2="631.80444"
   id="line2338-2" />
<line
   x1="955.33038"
   y1="648.79248"
   x2="969.32037"
   y2="734.73175"
   id="line2340-1" />
<line
   x1="969.32037"
   y1="734.73175"
   x2="839.41217"
   y2="738.729"
   id="line2342-0" />
<line
   x1="839.41217"
   y1="738.729"
   x2="834.41559"
   y2="175.1265"
   id="line2344-6" />
<line
   x1="851.40387"
   y1="738.03937"
   x2="848.40558"
   y2="633.34503"
   id="line2354-5" />
<line
   x1="863.53571"
   y1="737.81055"
   x2="859.44489"
   y2="635.1275"
   id="line2356-0" />
<line
   x1="875.3858"
   y1="737.45996"
   x2="869.34137"
   y2="636.43842"
   id="line2358-4" />
<line
   x1="886.35016"
   y1="737.13458"
   x2="879.35504"
   y2="638.20441"
   id="line2360-4" />
<line
   x1="896.48102"
   y1="736.7038"
   x2="889.24445"
   y2="639.20782"
   id="line2362-0" />
<line
   x1="906.36334"
   y1="736.56659"
   x2="898.32135"
   y2="640.82361"
   id="line2364-0" />
<line
   x1="916.41754"
   y1="736.03961"
   x2="907.36676"
   y2="641.85333"
   id="line2366-1" />
<line
   x1="926.34845"
   y1="735.91095"
   x2="915.3609"
   y2="643.19641"
   id="line2368-8" />
<line
   x1="935.34161"
   y1="735.59967"
   x2="924.35504"
   y2="644.6795"
   id="line2370-7" />
<line
   x1="944.46832"
   y1="735.40088"
   x2="932.36163"
   y2="645.6051"
   id="line2372-0" />
<line
   x1="952.73981"
   y1="735.13104"
   x2="940.06866"
   y2="646.73981"
   id="line2372-7-0" />
<line
   x1="960.3255"
   y1="734.73053"
   x2="947.33746"
   y2="647.93396"
   id="line2376-1" />
<line
   x1="849.63336"
   y1="630.18524"
   x2="839.46222"
   y2="179.93562"
   id="line2378-7" />
<line
   x1="860.93756"
   y1="632.02679"
   x2="844.37848"
   y2="184.55768"
   id="line2380-9" />
<line
   x1="871.90753"
   y1="633.66351"
   x2="848.92487"
   y2="188.89821"
   id="line2382-9" />
<line
   x1="881.21344"
   y1="635.01495"
   x2="853.23492"
   y2="192.92017"
   id="line2384-5" />
<line
   x1="890.53717"
   y1="636.56921"
   x2="857.56232"
   y2="196.89381"
   id="line2386-7" />
<line
   x1="900.12555"
   y1="637.96558"
   x2="862.13263"
   y2="201.2146"
   id="line2388-9" />
<line
   x1="908.87604"
   y1="639.40692"
   x2="866.90778"
   y2="205.58148"
   id="line2390-0" />
<line
   x1="917.39948"
   y1="640.51172"
   x2="871.37311"
   y2="209.771"
   id="line2392-5" />
<line
   x1="926.02618"
   y1="641.92798"
   x2="876.06281"
   y2="214.22644"
   id="line2394-9" />
<line
   x1="934.26373"
   y1="643.10388"
   x2="880.3028"
   y2="218.15234"
   id="line2396-4" />
<line
   x1="943.04694"
   y1="644.54834"
   x2="885.06842"
   y2="222.64771"
   id="line2398-0" />
<line
   x1="950.34528"
   y1="645.59424"
   x2="889.66046"
   y2="226.95053"
   id="line2400-0" />
<line
   x1="957.66705"
   y1="646.68854"
   x2="893.90021"
   y2="230.89734"
   id="line2402-0" />
</svg>
